M48
; DRILL file {KiCad 8.0.7} date 2025-06-17T21:23:21-0400
; FORMAT={-:-/ absolute / metric / decimal}
; #@! TF.CreationDate,2025-06-17T21:23:21-04:00
; #@! TF.GenerationSoftware,Kicad,Pcbnew,8.0.7
; #@! TF.FileFunction,Plated,1,2,PTH
FMAT,2
METRIC
; #@! TA.AperFunction,Plated,PTH,ViaDrill
T1C0.400
; #@! TA.AperFunction,Plated,PTH,ComponentDrill
T2C0.700
; #@! TA.AperFunction,Plated,PTH,ComponentDrill
T3C0.800
; #@! TA.AperFunction,Plated,PTH,ComponentDrill
T4C1.000
; #@! TA.AperFunction,Plated,PTH,ComponentDrill
T5C1.500
%
G90
G05
T1
X39.0Y-104.5
X46.5Y-97.5
X165.5Y-100.0
X169.5Y-105.0
X173.75Y-103.75
X182.275Y-103.987
X184.5Y-89.0
X200.5Y-89.5
X205.0Y-89.5
X221.0Y-89.0
X276.0Y-86.0
T2
X175.5Y-94.69
X175.5Y-102.31
X245.0Y-86.0
X245.0Y-93.62
X249.0Y-86.0
X249.0Y-93.62
T3
X176.0Y-110.5
X180.045Y-91.5
X181.0Y-110.5
X182.045Y-91.5
X253.5Y-87.0
X253.5Y-92.0
T4
X188.25Y-96.0
X190.25Y-96.0
X192.25Y-96.0
X194.25Y-96.0
X196.25Y-96.0
X208.75Y-96.0
X210.75Y-96.0
X212.75Y-96.0
X214.75Y-96.0
X216.75Y-96.0
X225.3Y-88.0
X227.84Y-88.0
X230.38Y-88.0
X232.92Y-88.0
X235.46Y-88.0
X238.0Y-88.0
X240.54Y-88.0
T5
X187.75Y-106.96
X194.1Y-109.5
X206.8Y-106.96
X213.15Y-109.5
X225.85Y-106.96
X232.2Y-109.5
X244.9Y-106.96
X251.25Y-109.5
M30
