G04 #@! TF.GenerationSoftware,KiCad,Pcbnew,7.0.5-0*
G04 #@! TF.CreationDate,2024-06-20T00:37:07-04:00*
G04 #@! TF.ProjectId,ESP32_MIDI,45535033-325f-44d4-9944-492e6b696361,rev?*
G04 #@! TF.SameCoordinates,Original*
G04 #@! TF.FileFunction,Copper,L2,Bot*
G04 #@! TF.FilePolarity,Positive*
%FSLAX46Y46*%
G04 Gerber Fmt 4.6, Leading zero omitted, Abs format (unit mm)*
G04 Created by KiCad (PCBNEW 7.0.5-0) date 2024-06-20 00:37:07*
%MOMM*%
%LPD*%
G01*
G04 APERTURE LIST*
G04 Aperture macros list*
%AMRoundRect*
0 Rectangle with rounded corners*
0 $1 Rounding radius*
0 $2 $3 $4 $5 $6 $7 $8 $9 X,Y pos of 4 corners*
0 Add a 4 corners polygon primitive as box body*
4,1,4,$2,$3,$4,$5,$6,$7,$8,$9,$2,$3,0*
0 Add four circle primitives for the rounded corners*
1,1,$1+$1,$2,$3*
1,1,$1+$1,$4,$5*
1,1,$1+$1,$6,$7*
1,1,$1+$1,$8,$9*
0 Add four rect primitives between the rounded corners*
20,1,$1+$1,$2,$3,$4,$5,0*
20,1,$1+$1,$4,$5,$6,$7,0*
20,1,$1+$1,$6,$7,$8,$9,0*
20,1,$1+$1,$8,$9,$2,$3,0*%
%AMFreePoly0*
4,1,25,0.515063,3.095106,0.530902,3.095106,0.543715,3.085796,0.558779,3.080902,0.568088,3.068088,0.580902,3.058779,0.585796,3.043715,0.595106,3.030902,0.595106,3.015062,0.600000,3.000000,0.600000,-1.000000,-0.600000,-1.000000,-0.600000,3.000000,-0.595106,3.015062,-0.595106,3.030902,-0.585796,3.043715,-0.580902,3.058779,-0.568088,3.068088,-0.558779,3.080902,-0.543715,3.085796,
-0.530902,3.095106,-0.515063,3.095106,-0.500000,3.100000,0.500000,3.100000,0.515063,3.095106,0.515063,3.095106,$1*%
G04 Aperture macros list end*
G04 #@! TA.AperFunction,ComponentPad*
%ADD10R,1.700000X1.700000*%
G04 #@! TD*
G04 #@! TA.AperFunction,ComponentPad*
%ADD11O,1.700000X1.700000*%
G04 #@! TD*
G04 #@! TA.AperFunction,ComponentPad*
%ADD12C,1.400000*%
G04 #@! TD*
G04 #@! TA.AperFunction,ComponentPad*
%ADD13O,1.400000X1.400000*%
G04 #@! TD*
G04 #@! TA.AperFunction,ComponentPad*
%ADD14R,1.800000X1.800000*%
G04 #@! TD*
G04 #@! TA.AperFunction,ComponentPad*
%ADD15C,1.800000*%
G04 #@! TD*
G04 #@! TA.AperFunction,ComponentPad*
%ADD16FreePoly0,270.000000*%
G04 #@! TD*
G04 #@! TA.AperFunction,ComponentPad*
%ADD17FreePoly0,90.000000*%
G04 #@! TD*
G04 #@! TA.AperFunction,ComponentPad*
%ADD18RoundRect,0.750000X1.250000X0.750000X-1.250000X0.750000X-1.250000X-0.750000X1.250000X-0.750000X0*%
G04 #@! TD*
G04 #@! TA.AperFunction,ComponentPad*
%ADD19RoundRect,0.750000X-1.250000X-0.750000X1.250000X-0.750000X1.250000X0.750000X-1.250000X0.750000X0*%
G04 #@! TD*
G04 #@! TA.AperFunction,ViaPad*
%ADD20C,0.800000*%
G04 #@! TD*
G04 #@! TA.AperFunction,Conductor*
%ADD21C,0.250000*%
G04 #@! TD*
G04 #@! TA.AperFunction,Conductor*
%ADD22C,0.500000*%
G04 #@! TD*
G04 APERTURE END LIST*
D10*
X166116000Y-33020000D03*
D11*
X168656000Y-33020000D03*
X171196000Y-33020000D03*
X173736000Y-33020000D03*
D10*
X166116000Y-37670000D03*
D11*
X168656000Y-37670000D03*
X171196000Y-37670000D03*
X173736000Y-37670000D03*
D12*
X127762000Y-31496000D03*
D13*
X120142000Y-31496000D03*
D12*
X127762000Y-35052000D03*
D13*
X120142000Y-35052000D03*
D12*
X127762000Y-38608000D03*
D13*
X120142000Y-38608000D03*
D14*
X133096000Y-31812000D03*
D15*
X133096000Y-33971000D03*
X133096000Y-36130000D03*
X133096000Y-38289000D03*
D10*
X170165000Y-55372000D03*
D11*
X167625000Y-55372000D03*
X165085000Y-55372000D03*
D10*
X119380000Y-45212000D03*
D11*
X119380000Y-47752000D03*
X119380000Y-50292000D03*
X119380000Y-52832000D03*
X119380000Y-55372000D03*
X119380000Y-57912000D03*
X119380000Y-60452000D03*
X119380000Y-62992000D03*
D10*
X180340000Y-35052000D03*
D11*
X180340000Y-37592000D03*
X180340000Y-40132000D03*
X180340000Y-42672000D03*
X180340000Y-45212000D03*
X180340000Y-47752000D03*
X180340000Y-50292000D03*
X125715000Y-55569000D03*
X128255000Y-55569000D03*
D10*
X130795000Y-55569000D03*
D11*
X175245000Y-55569000D03*
X177785000Y-55569000D03*
D10*
X180325000Y-55569000D03*
X160513000Y-55372000D03*
D11*
X157973000Y-55372000D03*
X155433000Y-55372000D03*
D10*
X150861000Y-55372000D03*
D11*
X148321000Y-55372000D03*
X145781000Y-55372000D03*
D10*
X140955000Y-55372000D03*
D11*
X138415000Y-55372000D03*
X135875000Y-55372000D03*
D16*
X158562000Y-31668000D03*
X158562000Y-34208000D03*
X158562000Y-36748000D03*
X158562000Y-39288000D03*
X158562000Y-41828000D03*
X158562000Y-44368000D03*
X158562000Y-46908000D03*
X158562000Y-49448000D03*
X158562000Y-51988000D03*
D17*
X143322000Y-51988000D03*
X143322000Y-49448000D03*
X143322000Y-46908000D03*
X143322000Y-44368000D03*
X143322000Y-41828000D03*
X143322000Y-39288000D03*
X143322000Y-36748000D03*
X143322000Y-34208000D03*
X143322000Y-31668000D03*
D14*
X175000000Y-49000000D03*
D15*
X175000000Y-46500000D03*
X175000000Y-44000000D03*
D18*
X168000000Y-50900000D03*
X168000000Y-42100000D03*
D14*
X126000000Y-44000000D03*
D15*
X126000000Y-46500000D03*
X126000000Y-49000000D03*
D19*
X133000000Y-42100000D03*
X133000000Y-50900000D03*
D20*
X128016000Y-40132000D03*
X125476000Y-42164000D03*
X122936000Y-42164000D03*
X129032000Y-47244000D03*
X129032000Y-49784000D03*
X137668000Y-48260000D03*
X123660500Y-38608000D03*
D21*
X129032000Y-47244000D02*
X129032000Y-49784000D01*
D22*
X180340000Y-39624000D02*
X177800000Y-42164000D01*
X177800000Y-41734000D02*
X177800000Y-42164000D01*
X177800000Y-42164000D02*
X177292000Y-42672000D01*
X173736000Y-37670000D02*
X177800000Y-41734000D01*
X166116000Y-37670000D02*
X173736000Y-37670000D01*
X164084000Y-36748000D02*
X164084000Y-34544000D01*
X164084000Y-34544000D02*
X162560000Y-33020000D01*
X173736000Y-33020000D02*
X162560000Y-33020000D01*
X180340000Y-34544000D02*
X175260000Y-34544000D01*
X175260000Y-34544000D02*
X173736000Y-33020000D01*
X133096000Y-33971000D02*
X137733000Y-33971000D01*
X137733000Y-33971000D02*
X138684000Y-33020000D01*
X138684000Y-33020000D02*
X156464000Y-33020000D01*
D21*
X127000000Y-41148000D02*
X128016000Y-40132000D01*
X121920000Y-41148000D02*
X127000000Y-41148000D01*
X119380000Y-45212000D02*
X119380000Y-43688000D01*
X119380000Y-43688000D02*
X121920000Y-41148000D01*
D22*
X125222000Y-53594000D02*
X126492000Y-53594000D01*
X126492000Y-53594000D02*
X129540000Y-53594000D01*
X125715000Y-55569000D02*
X125715000Y-54371000D01*
X125715000Y-54371000D02*
X126492000Y-53594000D01*
D21*
X125476000Y-42164000D02*
X122936000Y-42164000D01*
X137668000Y-48260000D02*
X137668000Y-45212000D01*
X137668000Y-45212000D02*
X138684000Y-44196000D01*
X138684000Y-44196000D02*
X143150000Y-44196000D01*
X143150000Y-44196000D02*
X143322000Y-44368000D01*
D22*
X128255000Y-55569000D02*
X128255000Y-56627000D01*
X128255000Y-56627000D02*
X129032000Y-57404000D01*
X129032000Y-57404000D02*
X140504000Y-57404000D01*
X138415000Y-55372000D02*
X138472000Y-55372000D01*
X138472000Y-55372000D02*
X140504000Y-57404000D01*
X135875000Y-55372000D02*
X135875000Y-55133000D01*
X135875000Y-55133000D02*
X137414000Y-53594000D01*
X137414000Y-53594000D02*
X138104000Y-53594000D01*
X119888000Y-62992000D02*
X123444000Y-59436000D01*
X123444000Y-59436000D02*
X123444000Y-55372000D01*
X123444000Y-55372000D02*
X125222000Y-53594000D01*
D21*
X123660500Y-38608000D02*
X120142000Y-38608000D01*
D22*
X126000000Y-44000000D02*
X126180000Y-44000000D01*
X126180000Y-44000000D02*
X130048000Y-40132000D01*
X151384000Y-38100000D02*
X156464000Y-33020000D01*
X156464000Y-33020000D02*
X162560000Y-33020000D01*
X136144000Y-40132000D02*
X138176000Y-38100000D01*
X130048000Y-40132000D02*
X136144000Y-40132000D01*
X138176000Y-38100000D02*
X151384000Y-38100000D01*
X158562000Y-34208000D02*
X157308000Y-34208000D01*
X157308000Y-34208000D02*
X155448000Y-36068000D01*
X155448000Y-36068000D02*
X155448000Y-51816000D01*
X167625000Y-55569000D02*
X167625000Y-56373000D01*
X167625000Y-56373000D02*
X168656000Y-57404000D01*
X168656000Y-57404000D02*
X169460000Y-57404000D01*
X119888000Y-60452000D02*
X122428000Y-57912000D01*
X122428000Y-47572000D02*
X126000000Y-44000000D01*
X122428000Y-57912000D02*
X122428000Y-47572000D01*
X158562000Y-36748000D02*
X164084000Y-36748000D01*
X150368000Y-57404000D02*
X150876000Y-57404000D01*
X150876000Y-57404000D02*
X160020000Y-57404000D01*
X140504000Y-57404000D02*
X150876000Y-57404000D01*
X148336000Y-55372000D02*
X150368000Y-57404000D01*
X157988000Y-55372000D02*
X160020000Y-57404000D01*
X160020000Y-57404000D02*
X169460000Y-57404000D01*
X177785000Y-56403000D02*
X177785000Y-55569000D01*
X169460000Y-57404000D02*
X176784000Y-57404000D01*
X176784000Y-57404000D02*
X177785000Y-56403000D01*
X128778000Y-53594000D02*
X129540000Y-53594000D01*
X129540000Y-53594000D02*
X138104000Y-53594000D01*
X177292000Y-42672000D02*
X177292000Y-46292000D01*
X177292000Y-46292000D02*
X177292000Y-51816000D01*
X175000000Y-44000000D02*
X177292000Y-46292000D01*
X175245000Y-55569000D02*
X173630000Y-53954000D01*
X173630000Y-53954000D02*
X173524000Y-53848000D01*
X177292000Y-51816000D02*
X175154000Y-53954000D01*
X175154000Y-53954000D02*
X173630000Y-53954000D01*
X126000000Y-49000000D02*
X126000000Y-50816000D01*
X126000000Y-50816000D02*
X128778000Y-53594000D01*
X145796000Y-55372000D02*
X147574000Y-53594000D01*
X147574000Y-53594000D02*
X149352000Y-51816000D01*
X138104000Y-53594000D02*
X147574000Y-53594000D01*
X173524000Y-53848000D02*
X163364000Y-53848000D01*
X155448000Y-51816000D02*
X155448000Y-53848000D01*
X155448000Y-53848000D02*
X155448000Y-55372000D01*
X165085000Y-55569000D02*
X163364000Y-53848000D01*
X163364000Y-53848000D02*
X155448000Y-53848000D01*
X149352000Y-51816000D02*
X155448000Y-51816000D01*
M02*
