G04 #@! TF.GenerationSoftware,KiCad,Pcbnew,7.0.5-0*
G04 #@! TF.CreationDate,2024-06-20T00:37:07-04:00*
G04 #@! TF.ProjectId,ESP32_MIDI,45535033-325f-44d4-9944-492e6b696361,rev?*
G04 #@! TF.SameCoordinates,Original*
G04 #@! TF.FileFunction,Copper,L1,Top*
G04 #@! TF.FilePolarity,Positive*
%FSLAX46Y46*%
G04 Gerber Fmt 4.6, Leading zero omitted, Abs format (unit mm)*
G04 Created by KiCad (PCBNEW 7.0.5-0) date 2024-06-20 00:37:07*
%MOMM*%
%LPD*%
G01*
G04 APERTURE LIST*
G04 Aperture macros list*
%AMRoundRect*
0 Rectangle with rounded corners*
0 $1 Rounding radius*
0 $2 $3 $4 $5 $6 $7 $8 $9 X,Y pos of 4 corners*
0 Add a 4 corners polygon primitive as box body*
4,1,4,$2,$3,$4,$5,$6,$7,$8,$9,$2,$3,0*
0 Add four circle primitives for the rounded corners*
1,1,$1+$1,$2,$3*
1,1,$1+$1,$4,$5*
1,1,$1+$1,$6,$7*
1,1,$1+$1,$8,$9*
0 Add four rect primitives between the rounded corners*
20,1,$1+$1,$2,$3,$4,$5,0*
20,1,$1+$1,$4,$5,$6,$7,0*
20,1,$1+$1,$6,$7,$8,$9,0*
20,1,$1+$1,$8,$9,$2,$3,0*%
%AMFreePoly0*
4,1,25,0.515063,3.095106,0.530902,3.095106,0.543715,3.085796,0.558779,3.080902,0.568088,3.068088,0.580902,3.058779,0.585796,3.043715,0.595106,3.030902,0.595106,3.015062,0.600000,3.000000,0.600000,-1.000000,-0.600000,-1.000000,-0.600000,3.000000,-0.595106,3.015062,-0.595106,3.030902,-0.585796,3.043715,-0.580902,3.058779,-0.568088,3.068088,-0.558779,3.080902,-0.543715,3.085796,
-0.530902,3.095106,-0.515063,3.095106,-0.500000,3.100000,0.500000,3.100000,0.515063,3.095106,0.515063,3.095106,$1*%
G04 Aperture macros list end*
G04 #@! TA.AperFunction,ComponentPad*
%ADD10R,1.700000X1.700000*%
G04 #@! TD*
G04 #@! TA.AperFunction,ComponentPad*
%ADD11O,1.700000X1.700000*%
G04 #@! TD*
G04 #@! TA.AperFunction,ComponentPad*
%ADD12C,1.400000*%
G04 #@! TD*
G04 #@! TA.AperFunction,ComponentPad*
%ADD13O,1.400000X1.400000*%
G04 #@! TD*
G04 #@! TA.AperFunction,ComponentPad*
%ADD14R,1.800000X1.800000*%
G04 #@! TD*
G04 #@! TA.AperFunction,ComponentPad*
%ADD15C,1.800000*%
G04 #@! TD*
G04 #@! TA.AperFunction,ComponentPad*
%ADD16FreePoly0,270.000000*%
G04 #@! TD*
G04 #@! TA.AperFunction,ComponentPad*
%ADD17FreePoly0,90.000000*%
G04 #@! TD*
G04 #@! TA.AperFunction,ComponentPad*
%ADD18RoundRect,0.750000X1.250000X0.750000X-1.250000X0.750000X-1.250000X-0.750000X1.250000X-0.750000X0*%
G04 #@! TD*
G04 #@! TA.AperFunction,ComponentPad*
%ADD19RoundRect,0.750000X-1.250000X-0.750000X1.250000X-0.750000X1.250000X0.750000X-1.250000X0.750000X0*%
G04 #@! TD*
G04 #@! TA.AperFunction,ViaPad*
%ADD20C,0.800000*%
G04 #@! TD*
G04 #@! TA.AperFunction,Conductor*
%ADD21C,0.250000*%
G04 #@! TD*
G04 #@! TA.AperFunction,Conductor*
%ADD22C,0.500000*%
G04 #@! TD*
G04 APERTURE END LIST*
D10*
X166116000Y-33020000D03*
D11*
X168656000Y-33020000D03*
X171196000Y-33020000D03*
X173736000Y-33020000D03*
D10*
X166116000Y-37670000D03*
D11*
X168656000Y-37670000D03*
X171196000Y-37670000D03*
X173736000Y-37670000D03*
D12*
X127762000Y-31496000D03*
D13*
X120142000Y-31496000D03*
D12*
X127762000Y-35052000D03*
D13*
X120142000Y-35052000D03*
D12*
X127762000Y-38608000D03*
D13*
X120142000Y-38608000D03*
D14*
X133096000Y-31812000D03*
D15*
X133096000Y-33971000D03*
X133096000Y-36130000D03*
X133096000Y-38289000D03*
D10*
X170165000Y-55372000D03*
D11*
X167625000Y-55372000D03*
X165085000Y-55372000D03*
D10*
X119380000Y-45212000D03*
D11*
X119380000Y-47752000D03*
X119380000Y-50292000D03*
X119380000Y-52832000D03*
X119380000Y-55372000D03*
X119380000Y-57912000D03*
X119380000Y-60452000D03*
X119380000Y-62992000D03*
D10*
X180340000Y-35052000D03*
D11*
X180340000Y-37592000D03*
X180340000Y-40132000D03*
X180340000Y-42672000D03*
X180340000Y-45212000D03*
X180340000Y-47752000D03*
X180340000Y-50292000D03*
X125715000Y-55569000D03*
X128255000Y-55569000D03*
D10*
X130795000Y-55569000D03*
D11*
X175245000Y-55569000D03*
X177785000Y-55569000D03*
D10*
X180325000Y-55569000D03*
X160513000Y-55372000D03*
D11*
X157973000Y-55372000D03*
X155433000Y-55372000D03*
D10*
X150861000Y-55372000D03*
D11*
X148321000Y-55372000D03*
X145781000Y-55372000D03*
D10*
X140955000Y-55372000D03*
D11*
X138415000Y-55372000D03*
X135875000Y-55372000D03*
D16*
X158562000Y-31668000D03*
X158562000Y-34208000D03*
X158562000Y-36748000D03*
X158562000Y-39288000D03*
X158562000Y-41828000D03*
X158562000Y-44368000D03*
X158562000Y-46908000D03*
X158562000Y-49448000D03*
X158562000Y-51988000D03*
D17*
X143322000Y-51988000D03*
X143322000Y-49448000D03*
X143322000Y-46908000D03*
X143322000Y-44368000D03*
X143322000Y-41828000D03*
X143322000Y-39288000D03*
X143322000Y-36748000D03*
X143322000Y-34208000D03*
X143322000Y-31668000D03*
D14*
X175000000Y-49000000D03*
D15*
X175000000Y-46500000D03*
X175000000Y-44000000D03*
D18*
X168000000Y-50900000D03*
X168000000Y-42100000D03*
D14*
X126000000Y-44000000D03*
D15*
X126000000Y-46500000D03*
X126000000Y-49000000D03*
D19*
X133000000Y-42100000D03*
X133000000Y-50900000D03*
D20*
X128016000Y-40132000D03*
X125476000Y-42164000D03*
X122936000Y-42164000D03*
X129032000Y-47244000D03*
X129032000Y-49784000D03*
X137668000Y-48260000D03*
X123660500Y-38608000D03*
D21*
X143150000Y-39116000D02*
X139700000Y-39116000D01*
X139700000Y-39116000D02*
X138684000Y-40132000D01*
X138684000Y-40132000D02*
X138684000Y-41656000D01*
X143322000Y-39288000D02*
X143150000Y-39116000D01*
X138684000Y-41656000D02*
X136144000Y-44196000D01*
X136144000Y-44196000D02*
X129540000Y-44196000D01*
X129540000Y-44196000D02*
X127508000Y-42164000D01*
X127508000Y-42164000D02*
X125476000Y-42164000D01*
X141431604Y-36748000D02*
X141259604Y-36576000D01*
X129397000Y-40275000D02*
X128815000Y-40857000D01*
X128815000Y-40857000D02*
X126201000Y-40857000D01*
X141259604Y-36576000D02*
X139192000Y-36576000D01*
X135493000Y-40275000D02*
X129397000Y-40275000D01*
X143322000Y-36748000D02*
X141431604Y-36748000D01*
X124968000Y-36322000D02*
X120142000Y-31496000D01*
X139192000Y-36576000D02*
X135493000Y-40275000D01*
X126201000Y-40857000D02*
X124968000Y-39624000D01*
X124968000Y-39624000D02*
X124968000Y-36322000D01*
X128016000Y-40132000D02*
X128524000Y-39624000D01*
X134620000Y-39624000D02*
X138684000Y-35560000D01*
X149860000Y-35560000D02*
X153416000Y-39116000D01*
X128524000Y-39624000D02*
X134620000Y-39624000D01*
X138684000Y-35560000D02*
X149860000Y-35560000D01*
X153416000Y-39116000D02*
X158390000Y-39116000D01*
X158390000Y-39116000D02*
X158562000Y-39288000D01*
X129032000Y-47244000D02*
X130397000Y-48609000D01*
X134017000Y-48609000D02*
X140798000Y-41828000D01*
X130397000Y-48609000D02*
X134017000Y-48609000D01*
X140798000Y-41828000D02*
X143322000Y-41828000D01*
X126000000Y-46500000D02*
X126764000Y-46500000D01*
X137496000Y-46908000D02*
X143322000Y-46908000D01*
X126764000Y-46500000D02*
X129323000Y-49059000D01*
X129323000Y-49059000D02*
X135345000Y-49059000D01*
X135345000Y-49059000D02*
X137496000Y-46908000D01*
X129032000Y-49784000D02*
X129032000Y-50292000D01*
X129032000Y-50292000D02*
X127000000Y-52324000D01*
X127000000Y-52324000D02*
X120396000Y-52324000D01*
X180340000Y-42672000D02*
X177292000Y-39624000D01*
X177292000Y-39624000D02*
X177292000Y-37084000D01*
X175260000Y-35052000D02*
X164592000Y-35052000D01*
X177292000Y-37084000D02*
X175260000Y-35052000D01*
X164592000Y-35052000D02*
X162560000Y-33020000D01*
X162560000Y-33020000D02*
X152400000Y-33020000D01*
X152400000Y-33020000D02*
X151048000Y-31668000D01*
X151048000Y-31668000D02*
X143322000Y-31668000D01*
X127762000Y-35052000D02*
X128840000Y-36130000D01*
X128840000Y-36130000D02*
X133096000Y-36130000D01*
X127762000Y-31496000D02*
X132780000Y-31496000D01*
X132780000Y-31496000D02*
X133096000Y-31812000D01*
X127762000Y-38608000D02*
X132777000Y-38608000D01*
X132777000Y-38608000D02*
X133096000Y-38289000D01*
D22*
X119380000Y-57912000D02*
X123372000Y-57912000D01*
X123372000Y-57912000D02*
X125715000Y-55569000D01*
D21*
X122936000Y-47244000D02*
X122936000Y-42164000D01*
X122936000Y-42164000D02*
X122936000Y-37846000D01*
X122936000Y-37846000D02*
X120142000Y-35052000D01*
X119888000Y-52832000D02*
X120396000Y-52324000D01*
X120396000Y-52324000D02*
X124016198Y-48703802D01*
X133604000Y-53340000D02*
X134491604Y-53340000D01*
X134491604Y-53340000D02*
X136587802Y-51243802D01*
X119380000Y-55372000D02*
X121412000Y-53340000D01*
X121412000Y-53340000D02*
X133604000Y-53340000D01*
X136587802Y-51243802D02*
X137668000Y-50163604D01*
X137668000Y-50163604D02*
X137668000Y-48260000D01*
X130795000Y-55569000D02*
X132899000Y-55569000D01*
X138176000Y-49784000D02*
X139700000Y-48260000D01*
X138176000Y-50292000D02*
X138176000Y-49784000D01*
X139700000Y-48260000D02*
X144780000Y-48260000D01*
X132899000Y-55569000D02*
X138176000Y-50292000D01*
X144780000Y-48260000D02*
X145288000Y-47752000D01*
X145288000Y-47752000D02*
X145288000Y-43180000D01*
X145288000Y-43180000D02*
X146812000Y-41656000D01*
X146812000Y-41656000D02*
X158390000Y-41656000D01*
X158390000Y-41656000D02*
X158562000Y-41828000D01*
X158226000Y-44704000D02*
X158562000Y-44368000D01*
X139192000Y-52832000D02*
X139192000Y-51308000D01*
X139192000Y-51308000D02*
X139700000Y-50800000D01*
X140955000Y-54595000D02*
X139192000Y-52832000D01*
X146304000Y-50800000D02*
X152400000Y-44704000D01*
X140955000Y-55372000D02*
X140955000Y-54595000D01*
X139700000Y-50800000D02*
X146304000Y-50800000D01*
X152400000Y-44704000D02*
X158226000Y-44704000D01*
X124016198Y-38963698D02*
X123660500Y-38608000D01*
X124016198Y-43533802D02*
X124016198Y-38963698D01*
X119888000Y-50292000D02*
X122936000Y-47244000D01*
X119888000Y-47752000D02*
X121984198Y-45655802D01*
X121984198Y-45655802D02*
X121984198Y-42228198D01*
X121984198Y-42228198D02*
X121412000Y-41656000D01*
X119888000Y-41656000D02*
X118872000Y-40640000D01*
X118872000Y-40640000D02*
X118872000Y-32766000D01*
X121412000Y-41656000D02*
X119888000Y-41656000D01*
X118872000Y-32766000D02*
X120142000Y-31496000D01*
X175000000Y-46500000D02*
X171704000Y-43204000D01*
X146304000Y-43688000D02*
X146304000Y-48260000D01*
X145116000Y-49448000D02*
X143322000Y-49448000D01*
X171704000Y-43204000D02*
X171704000Y-40640000D01*
X170688000Y-39624000D02*
X165608000Y-39624000D01*
X171704000Y-40640000D02*
X170688000Y-39624000D01*
X165608000Y-39624000D02*
X162052000Y-43180000D01*
X162052000Y-43180000D02*
X146812000Y-43180000D01*
X146812000Y-43180000D02*
X146304000Y-43688000D01*
X146304000Y-48260000D02*
X145116000Y-49448000D01*
X180325000Y-55569000D02*
X177474000Y-58420000D01*
X177474000Y-58420000D02*
X144780000Y-58420000D01*
X144780000Y-58420000D02*
X143764000Y-57404000D01*
X143764000Y-57404000D02*
X143764000Y-53848000D01*
X143764000Y-53848000D02*
X143322000Y-53406000D01*
X143322000Y-53406000D02*
X143322000Y-51988000D01*
X168133000Y-53340000D02*
X163068000Y-53340000D01*
X163068000Y-53340000D02*
X161716000Y-51988000D01*
X170165000Y-55372000D02*
X168133000Y-53340000D01*
X161716000Y-51988000D02*
X158562000Y-51988000D01*
X160513000Y-55372000D02*
X160513000Y-55357000D01*
X160513000Y-55357000D02*
X158496000Y-53340000D01*
X158496000Y-53340000D02*
X154940000Y-53340000D01*
X154940000Y-53340000D02*
X154432000Y-52832000D01*
X154432000Y-52832000D02*
X154432000Y-50292000D01*
X154432000Y-50292000D02*
X155448000Y-49276000D01*
X155448000Y-49276000D02*
X158390000Y-49276000D01*
X158390000Y-49276000D02*
X158562000Y-49448000D01*
X150861000Y-55372000D02*
X150861000Y-48783000D01*
X150861000Y-48783000D02*
X152736000Y-46908000D01*
X152736000Y-46908000D02*
X158562000Y-46908000D01*
X180340000Y-45212000D02*
X175768000Y-40640000D01*
X174752000Y-35560000D02*
X154432000Y-35560000D01*
X175768000Y-36576000D02*
X174752000Y-35560000D01*
X175768000Y-40640000D02*
X175768000Y-36576000D01*
X154432000Y-35560000D02*
X153080000Y-34208000D01*
X153080000Y-34208000D02*
X143322000Y-34208000D01*
X124016198Y-48703802D02*
X124016198Y-43533802D01*
X143150000Y-36576000D02*
X143322000Y-36748000D01*
D22*
X177785000Y-55569000D02*
X177785000Y-51785000D01*
X177785000Y-51785000D02*
X175000000Y-49000000D01*
M02*
