G04 #@! TF.GenerationSoftware,KiCad,Pcbnew,8.0.7*
G04 #@! TF.CreationDate,2025-07-02T19:51:18-04:00*
G04 #@! TF.ProjectId,ESP32_MIDI_Summer25_FRETS_v2,45535033-325f-44d4-9944-495f53756d6d,rev?*
G04 #@! TF.SameCoordinates,Original*
G04 #@! TF.FileFunction,Copper,L2,Bot*
G04 #@! TF.FilePolarity,Positive*
%FSLAX46Y46*%
G04 Gerber Fmt 4.6, Leading zero omitted, Abs format (unit mm)*
G04 Created by KiCad (PCBNEW 8.0.7) date 2025-07-02 19:51:18*
%MOMM*%
%LPD*%
G01*
G04 APERTURE LIST*
G04 #@! TA.AperFunction,ComponentPad*
%ADD10C,6.800000*%
G04 #@! TD*
G04 #@! TA.AperFunction,ComponentPad*
%ADD11O,1.700000X1.700000*%
G04 #@! TD*
G04 #@! TA.AperFunction,ComponentPad*
%ADD12R,1.700000X1.700000*%
G04 #@! TD*
G04 #@! TA.AperFunction,ComponentPad*
%ADD13C,1.700000*%
G04 #@! TD*
G04 #@! TA.AperFunction,Conductor*
%ADD14C,0.250000*%
G04 #@! TD*
G04 APERTURE END LIST*
D10*
X234000000Y-48500000D03*
X254000000Y-48500000D03*
X74000000Y-48500000D03*
X114000000Y-48500000D03*
X274000000Y-49000000D03*
X174000000Y-48500000D03*
X194000000Y-48500000D03*
D11*
X281000000Y-53120000D03*
X281000000Y-50580000D03*
X281000000Y-48040000D03*
D12*
X281000000Y-45500000D03*
D13*
X250650000Y-58890000D03*
X253190000Y-58890000D03*
X255730000Y-58890000D03*
X258270000Y-58890000D03*
X260810000Y-58890000D03*
X263350000Y-58890000D03*
X270970000Y-41110000D03*
X268430000Y-41110000D03*
X265890000Y-41110000D03*
X263350000Y-41110000D03*
X260810000Y-41110000D03*
X258270000Y-41110000D03*
X255730000Y-41110000D03*
X253190000Y-41110000D03*
X250650000Y-41110000D03*
X248110000Y-41110000D03*
X245570000Y-41110000D03*
X243030000Y-41110000D03*
D10*
X134000000Y-48500000D03*
X214000000Y-48500000D03*
X154000000Y-48500000D03*
X54000000Y-48500000D03*
X94000000Y-49500000D03*
D14*
X281000000Y-50580000D02*
X282920000Y-52500000D01*
X283000000Y-52500000D02*
X283000000Y-54000000D01*
X282920000Y-52500000D02*
X283000000Y-52500000D01*
X283000000Y-54000000D02*
X282500000Y-54500000D01*
X276000000Y-60000000D02*
X274500000Y-60000000D01*
X281500000Y-54500000D02*
X276000000Y-60000000D01*
X259500000Y-61500000D02*
X258000000Y-60000000D01*
X282500000Y-54500000D02*
X281500000Y-54500000D01*
X274500000Y-60000000D02*
X273000000Y-61500000D01*
X273000000Y-61500000D02*
X259500000Y-61500000D01*
X258000000Y-60000000D02*
X258000000Y-59000000D01*
X281000000Y-53120000D02*
X274620000Y-59500000D01*
X274000000Y-59500000D02*
X272500000Y-61000000D01*
X274620000Y-59500000D02*
X274000000Y-59500000D01*
X261000000Y-59500000D02*
X261000000Y-58500000D01*
X272500000Y-61000000D02*
X262500000Y-61000000D01*
X262500000Y-61000000D02*
X261000000Y-59500000D01*
M02*
