G04 #@! TF.GenerationSoftware,KiCad,Pcbnew,8.0.7*
G04 #@! TF.CreationDate,2025-06-18T23:22:59-07:00*
G04 #@! TF.ProjectId,ESP32_MIDI_Summer25_FRETSkicad_pro.kicad_sch,45535033-325f-44d4-9944-495f53756d6d,rev?*
G04 #@! TF.SameCoordinates,Original*
G04 #@! TF.FileFunction,Copper,L1,Top*
G04 #@! TF.FilePolarity,Positive*
%FSLAX46Y46*%
G04 Gerber Fmt 4.6, Leading zero omitted, Abs format (unit mm)*
G04 Created by KiCad (PCBNEW 8.0.7) date 2025-06-18 23:22:59*
%MOMM*%
%LPD*%
G01*
G04 APERTURE LIST*
G04 Aperture macros list*
%AMRoundRect*
0 Rectangle with rounded corners*
0 $1 Rounding radius*
0 $2 $3 $4 $5 $6 $7 $8 $9 X,Y pos of 4 corners*
0 Add a 4 corners polygon primitive as box body*
4,1,4,$2,$3,$4,$5,$6,$7,$8,$9,$2,$3,0*
0 Add four circle primitives for the rounded corners*
1,1,$1+$1,$2,$3*
1,1,$1+$1,$4,$5*
1,1,$1+$1,$6,$7*
1,1,$1+$1,$8,$9*
0 Add four rect primitives between the rounded corners*
20,1,$1+$1,$2,$3,$4,$5,0*
20,1,$1+$1,$4,$5,$6,$7,0*
20,1,$1+$1,$6,$7,$8,$9,0*
20,1,$1+$1,$8,$9,$2,$3,0*%
G04 Aperture macros list end*
G04 #@! TA.AperFunction,ComponentPad*
%ADD10C,6.800000*%
G04 #@! TD*
G04 #@! TA.AperFunction,ConnectorPad*
%ADD11C,11.000000*%
G04 #@! TD*
G04 #@! TA.AperFunction,ComponentPad*
%ADD12RoundRect,0.250000X0.600000X0.600000X-0.600000X0.600000X-0.600000X-0.600000X0.600000X-0.600000X0*%
G04 #@! TD*
G04 #@! TA.AperFunction,ComponentPad*
%ADD13C,1.700000*%
G04 #@! TD*
G04 #@! TA.AperFunction,SMDPad,CuDef*
%ADD14RoundRect,0.567500X-73.247500X-0.567500X73.247500X-0.567500X73.247500X0.567500X-73.247500X0.567500X0*%
G04 #@! TD*
G04 #@! TA.AperFunction,ViaPad*
%ADD15C,0.800000*%
G04 #@! TD*
G04 #@! TA.AperFunction,Conductor*
%ADD16C,0.250000*%
G04 #@! TD*
G04 #@! TA.AperFunction,Conductor*
%ADD17C,0.500000*%
G04 #@! TD*
G04 APERTURE END LIST*
D10*
X179000000Y-99000000D03*
D11*
X179000000Y-99000000D03*
D10*
X137000000Y-99000000D03*
D11*
X137000000Y-99000000D03*
D10*
X172000000Y-87000000D03*
D11*
X172000000Y-87000000D03*
D10*
X165000000Y-99000000D03*
D11*
X165000000Y-99000000D03*
D10*
X186000000Y-87000000D03*
D11*
X186000000Y-87000000D03*
D10*
X95000000Y-99000000D03*
D11*
X95000000Y-99000000D03*
D10*
X193000000Y-99000000D03*
D11*
X193000000Y-99000000D03*
D10*
X60000000Y-87000000D03*
D11*
X60000000Y-87000000D03*
D12*
X239000000Y-100000000D03*
D13*
X236460000Y-100000000D03*
X239000000Y-97460000D03*
X236460000Y-97460000D03*
X239000000Y-94920000D03*
X236460000Y-94920000D03*
X239000000Y-92380000D03*
X236460000Y-92380000D03*
X239000000Y-89840000D03*
X236460000Y-89840000D03*
D10*
X88000000Y-87000000D03*
D11*
X88000000Y-87000000D03*
D10*
X109000000Y-99000000D03*
D11*
X109000000Y-99000000D03*
D10*
X200000000Y-87000000D03*
D11*
X200000000Y-87000000D03*
D10*
X130000000Y-87000000D03*
D11*
X130000000Y-87000000D03*
D10*
X144000000Y-87000000D03*
D11*
X144000000Y-87000000D03*
D14*
X130185000Y-79865000D03*
D13*
X228390000Y-100850000D03*
X228390000Y-98310000D03*
X228390000Y-95770000D03*
X228390000Y-93230000D03*
X228390000Y-90690000D03*
X228390000Y-88150000D03*
X210610000Y-80530000D03*
X210610000Y-83070000D03*
X210610000Y-85610000D03*
X210610000Y-88150000D03*
X210610000Y-90690000D03*
X210610000Y-93230000D03*
X210610000Y-95770000D03*
X210610000Y-98310000D03*
X210610000Y-100850000D03*
X210610000Y-103390000D03*
X210610000Y-105930000D03*
X210610000Y-108470000D03*
D10*
X81000000Y-99000000D03*
D11*
X81000000Y-99000000D03*
D10*
X102000000Y-87000000D03*
D11*
X102000000Y-87000000D03*
D10*
X158000000Y-87000000D03*
D11*
X158000000Y-87000000D03*
D10*
X116000000Y-87000000D03*
D11*
X116000000Y-87000000D03*
D10*
X74000000Y-87000000D03*
D11*
X74000000Y-87000000D03*
D10*
X123000000Y-99000000D03*
D11*
X123000000Y-99000000D03*
D10*
X151000000Y-99000000D03*
D11*
X151000000Y-99000000D03*
D10*
X67000000Y-99000000D03*
D11*
X67000000Y-99000000D03*
D15*
X218000000Y-105500000D03*
D16*
X210610000Y-105930000D02*
X217570000Y-105930000D01*
X217570000Y-105930000D02*
X218000000Y-105500000D01*
X209000000Y-79000000D02*
X203500000Y-79000000D01*
X210530000Y-80530000D02*
X210000000Y-80000000D01*
X210610000Y-80530000D02*
X210530000Y-80530000D01*
X210000000Y-80000000D02*
X209000000Y-79000000D01*
X203640000Y-87500000D02*
X200000000Y-87500000D01*
D17*
X228000000Y-101300000D02*
X239896878Y-101300000D01*
X239896878Y-101300000D02*
X241575000Y-99621878D01*
X241575000Y-99621878D02*
X241575000Y-101425000D01*
X241575000Y-101425000D02*
X242000000Y-101000000D01*
X242000000Y-101000000D02*
X242000000Y-93000000D01*
X242000000Y-93000000D02*
X241380000Y-92380000D01*
X241380000Y-92380000D02*
X236460000Y-92380000D01*
X228500000Y-95770000D02*
X222770000Y-95770000D01*
X222770000Y-95770000D02*
X221000000Y-94000000D01*
X236000000Y-90000000D02*
X239000000Y-90000000D01*
X221000000Y-85000000D02*
X222000000Y-84000000D01*
X230000000Y-84000000D02*
X236000000Y-90000000D01*
X222000000Y-84000000D02*
X230000000Y-84000000D01*
X221000000Y-94000000D02*
X221000000Y-85000000D01*
D16*
X228500000Y-93230000D02*
X231230000Y-93230000D01*
X231230000Y-93230000D02*
X233000000Y-95000000D01*
X233000000Y-95000000D02*
X239000000Y-95000000D01*
X228000000Y-90500000D02*
X228190000Y-90690000D01*
X234745000Y-93745000D02*
X240745000Y-93745000D01*
X228190000Y-90690000D02*
X230690000Y-90690000D01*
X240745000Y-93745000D02*
X241000000Y-94000000D01*
X230690000Y-90690000D02*
X233000000Y-93000000D01*
X241000000Y-96000000D02*
X240000000Y-97000000D01*
X234000000Y-93000000D02*
X234745000Y-93745000D01*
X233000000Y-93000000D02*
X234000000Y-93000000D01*
X241000000Y-94000000D02*
X241000000Y-96000000D01*
X236460000Y-97460000D02*
X239540000Y-97460000D01*
X240000000Y-97000000D02*
X239000000Y-97000000D01*
X239540000Y-97460000D02*
X240000000Y-97000000D01*
M02*
