M48
; DRILL file {KiCad 8.0.7} date 2025-06-18T23:23:01-0700
; FORMAT={-:-/ absolute / metric / decimal}
; #@! TF.CreationDate,2025-06-18T23:23:01-07:00
; #@! TF.GenerationSoftware,Kicad,Pcbnew,8.0.7
; #@! TF.FileFunction,Plated,1,2,PTH
FMAT,2
METRIC
; #@! TA.AperFunction,Plated,PTH,ViaDrill
T1C0.400
; #@! TA.AperFunction,Plated,PTH,ComponentDrill
T2C1.000
; #@! TA.AperFunction,Plated,PTH,ComponentDrill
T3C6.400
%
G90
G05
T1
X218.0Y-105.5
T2
X210.61Y-80.53
X210.61Y-83.07
X210.61Y-85.61
X210.61Y-88.15
X210.61Y-90.69
X210.61Y-93.23
X210.61Y-95.77
X210.61Y-98.31
X210.61Y-100.85
X210.61Y-103.39
X210.61Y-105.93
X210.61Y-108.47
X228.39Y-88.15
X228.39Y-90.69
X228.39Y-93.23
X228.39Y-95.77
X228.39Y-98.31
X228.39Y-100.85
X236.46Y-89.84
X236.46Y-92.38
X236.46Y-94.92
X236.46Y-97.46
X236.46Y-100.0
X239.0Y-89.84
X239.0Y-92.38
X239.0Y-94.92
X239.0Y-97.46
X239.0Y-100.0
T3
X60.0Y-87.0
X67.0Y-99.0
X74.0Y-87.0
X81.0Y-99.0
X88.0Y-87.0
X95.0Y-99.0
X102.0Y-87.0
X109.0Y-99.0
X116.0Y-87.0
X123.0Y-99.0
X130.0Y-87.0
X137.0Y-99.0
X144.0Y-87.0
X151.0Y-99.0
X158.0Y-87.0
X165.0Y-99.0
X172.0Y-87.0
X179.0Y-99.0
X186.0Y-87.0
X193.0Y-99.0
X200.0Y-87.0
M30
