G04 #@! TF.GenerationSoftware,KiCad,Pcbnew,8.0.7*
G04 #@! TF.CreationDate,2025-06-18T23:22:59-07:00*
G04 #@! TF.ProjectId,ESP32_MIDI_Summer25_FRETSkicad_pro.kicad_sch,45535033-325f-44d4-9944-495f53756d6d,rev?*
G04 #@! TF.SameCoordinates,Original*
G04 #@! TF.FileFunction,Soldermask,Top*
G04 #@! TF.FilePolarity,Negative*
%FSLAX46Y46*%
G04 Gerber Fmt 4.6, Leading zero omitted, Abs format (unit mm)*
G04 Created by KiCad (PCBNEW 8.0.7) date 2025-06-18 23:22:59*
%MOMM*%
%LPD*%
G01*
G04 APERTURE LIST*
G04 Aperture macros list*
%AMRoundRect*
0 Rectangle with rounded corners*
0 $1 Rounding radius*
0 $2 $3 $4 $5 $6 $7 $8 $9 X,Y pos of 4 corners*
0 Add a 4 corners polygon primitive as box body*
4,1,4,$2,$3,$4,$5,$6,$7,$8,$9,$2,$3,0*
0 Add four circle primitives for the rounded corners*
1,1,$1+$1,$2,$3*
1,1,$1+$1,$4,$5*
1,1,$1+$1,$6,$7*
1,1,$1+$1,$8,$9*
0 Add four rect primitives between the rounded corners*
20,1,$1+$1,$2,$3,$4,$5,0*
20,1,$1+$1,$4,$5,$6,$7,0*
20,1,$1+$1,$6,$7,$8,$9,0*
20,1,$1+$1,$8,$9,$2,$3,0*%
G04 Aperture macros list end*
%ADD10C,6.800000*%
%ADD11C,11.000000*%
%ADD12RoundRect,0.250000X0.600000X0.600000X-0.600000X0.600000X-0.600000X-0.600000X0.600000X-0.600000X0*%
%ADD13C,1.700000*%
%ADD14C,3.200000*%
%ADD15C,4.300000*%
G04 APERTURE END LIST*
D10*
X179000000Y-99000000D03*
D11*
X179000000Y-99000000D03*
D10*
X137000000Y-99000000D03*
D11*
X137000000Y-99000000D03*
D10*
X172000000Y-87000000D03*
D11*
X172000000Y-87000000D03*
D10*
X165000000Y-99000000D03*
D11*
X165000000Y-99000000D03*
D10*
X186000000Y-87000000D03*
D11*
X186000000Y-87000000D03*
D10*
X95000000Y-99000000D03*
D11*
X95000000Y-99000000D03*
D10*
X193000000Y-99000000D03*
D11*
X193000000Y-99000000D03*
D10*
X60000000Y-87000000D03*
D11*
X60000000Y-87000000D03*
D12*
X239000000Y-100000000D03*
D13*
X236460000Y-100000000D03*
X239000000Y-97460000D03*
X236460000Y-97460000D03*
X239000000Y-94920000D03*
X236460000Y-94920000D03*
X239000000Y-92380000D03*
X236460000Y-92380000D03*
X239000000Y-89840000D03*
X236460000Y-89840000D03*
D10*
X88000000Y-87000000D03*
D11*
X88000000Y-87000000D03*
D10*
X109000000Y-99000000D03*
D11*
X109000000Y-99000000D03*
D10*
X200000000Y-87000000D03*
D11*
X200000000Y-87000000D03*
D14*
X245000000Y-80000000D03*
D10*
X130000000Y-87000000D03*
D11*
X130000000Y-87000000D03*
D10*
X144000000Y-87000000D03*
D11*
X144000000Y-87000000D03*
D13*
X228390000Y-100850000D03*
X228390000Y-98310000D03*
X228390000Y-95770000D03*
X228390000Y-93230000D03*
X228390000Y-90690000D03*
X228390000Y-88150000D03*
X210610000Y-80530000D03*
X210610000Y-83070000D03*
X210610000Y-85610000D03*
X210610000Y-88150000D03*
X210610000Y-90690000D03*
X210610000Y-93230000D03*
X210610000Y-95770000D03*
X210610000Y-98310000D03*
X210610000Y-100850000D03*
X210610000Y-103390000D03*
X210610000Y-105930000D03*
X210610000Y-108470000D03*
D10*
X81000000Y-99000000D03*
D11*
X81000000Y-99000000D03*
D10*
X102000000Y-87000000D03*
D11*
X102000000Y-87000000D03*
D10*
X158000000Y-87000000D03*
D11*
X158000000Y-87000000D03*
D10*
X116000000Y-87000000D03*
D11*
X116000000Y-87000000D03*
D15*
X88000000Y-105500000D03*
D10*
X74000000Y-87000000D03*
D11*
X74000000Y-87000000D03*
D10*
X123000000Y-99000000D03*
D11*
X123000000Y-99000000D03*
D14*
X245000000Y-110000000D03*
D10*
X151000000Y-99000000D03*
D11*
X151000000Y-99000000D03*
D15*
X115500000Y-105500000D03*
D10*
X67000000Y-99000000D03*
D11*
X67000000Y-99000000D03*
M02*
