M48
; DRILL file {KiCad 8.0.7} date 2025-07-02T19:51:21-0400
; FORMAT={-:-/ absolute / metric / decimal}
; #@! TF.CreationDate,2025-07-02T19:51:21-04:00
; #@! TF.GenerationSoftware,Kicad,Pcbnew,8.0.7
; #@! TF.FileFunction,Plated,1,2,PTH
FMAT,2
METRIC
; #@! TA.AperFunction,Plated,PTH,ComponentDrill
T1C1.000
; #@! TA.AperFunction,Plated,PTH,ComponentDrill
T2C6.400
%
G90
G05
T1
X243.03Y-41.11
X245.57Y-41.11
X248.11Y-41.11
X250.65Y-41.11
X250.65Y-58.89
X253.19Y-41.11
X253.19Y-58.89
X255.73Y-41.11
X255.73Y-58.89
X258.27Y-41.11
X258.27Y-58.89
X260.81Y-41.11
X260.81Y-58.89
X263.35Y-41.11
X263.35Y-58.89
X265.89Y-41.11
X268.43Y-41.11
X270.97Y-41.11
X281.0Y-45.5
X281.0Y-48.04
X281.0Y-50.58
X281.0Y-53.12
T2
X54.0Y-48.5
X74.0Y-48.5
X94.0Y-49.5
X114.0Y-48.5
X134.0Y-48.5
X154.0Y-48.5
X174.0Y-48.5
X194.0Y-48.5
X214.0Y-48.5
X234.0Y-48.5
X254.0Y-48.5
X274.0Y-49.0
M30
