G04 #@! TF.GenerationSoftware,KiCad,Pcbnew,8.0.7*
G04 #@! TF.CreationDate,2025-07-02T21:53:42-04:00*
G04 #@! TF.ProjectId,ESP32_laptop-strip.kicad_pcb,45535033-325f-46c6-9170-746f702d7374,rev?*
G04 #@! TF.SameCoordinates,Original*
G04 #@! TF.FileFunction,Copper,L2,Bot*
G04 #@! TF.FilePolarity,Positive*
%FSLAX46Y46*%
G04 Gerber Fmt 4.6, Leading zero omitted, Abs format (unit mm)*
G04 Created by KiCad (PCBNEW 8.0.7) date 2025-07-02 21:53:42*
%MOMM*%
%LPD*%
G01*
G04 APERTURE LIST*
G04 #@! TA.AperFunction,ComponentPad*
%ADD10C,7.500000*%
G04 #@! TD*
G04 #@! TA.AperFunction,ComponentPad*
%ADD11R,2.000000X2.000000*%
G04 #@! TD*
G04 #@! TA.AperFunction,ComponentPad*
%ADD12C,2.000000*%
G04 #@! TD*
G04 #@! TA.AperFunction,ComponentPad*
%ADD13R,3.000000X2.500000*%
G04 #@! TD*
G04 #@! TA.AperFunction,ViaPad*
%ADD14C,0.800000*%
G04 #@! TD*
G04 #@! TA.AperFunction,Conductor*
%ADD15C,0.500000*%
G04 #@! TD*
G04 APERTURE END LIST*
D10*
X110500000Y-118000000D03*
X92500000Y-118000000D03*
X164500000Y-118000000D03*
X146500000Y-118000000D03*
X200500000Y-118000000D03*
X74500000Y-118000000D03*
X182500000Y-118000000D03*
X128500000Y-118000000D03*
X218500000Y-119000000D03*
D11*
X62000000Y-114500000D03*
D12*
X62000000Y-109500000D03*
X62000000Y-112000000D03*
D13*
X56500000Y-117600000D03*
X56500000Y-106400000D03*
D11*
X229000000Y-109000000D03*
D12*
X229000000Y-114000000D03*
X229000000Y-111500000D03*
D13*
X234500000Y-105900000D03*
X234500000Y-117100000D03*
D14*
X48500000Y-103000000D03*
X43500000Y-105000000D03*
X42000000Y-102000000D03*
X50500000Y-103000000D03*
X68000000Y-111500000D03*
X68000000Y-113000000D03*
X86000000Y-107000000D03*
X223000000Y-113000000D03*
X223000000Y-111000000D03*
X23000000Y-117500000D03*
X22000000Y-116500000D03*
X23000000Y-116500000D03*
X22000000Y-117500000D03*
X74500000Y-108000000D03*
X20000000Y-114000000D03*
D15*
X223000000Y-107000000D02*
X231000000Y-107000000D01*
X229000000Y-111500000D02*
X230414213Y-111500000D01*
X230414213Y-111500000D02*
X231000000Y-110914213D01*
X231000000Y-110914213D02*
X231000000Y-107000000D01*
X223000000Y-113000000D02*
X223000000Y-111000000D01*
X86000000Y-107000000D02*
X223000000Y-107000000D01*
X223000000Y-111000000D02*
X223000000Y-107000000D01*
X47000000Y-102000000D02*
X48000000Y-103000000D01*
X48000000Y-103000000D02*
X48500000Y-103000000D01*
X42000000Y-105000000D02*
X42000000Y-113000000D01*
X42000000Y-102000000D02*
X42000000Y-105000000D01*
X43500000Y-105000000D02*
X42000000Y-105000000D01*
X26000000Y-113000000D02*
X42000000Y-113000000D01*
X42000000Y-113000000D02*
X48000000Y-113000000D01*
X48000000Y-113000000D02*
X56500000Y-113000000D01*
X50500000Y-103000000D02*
X50500000Y-110500000D01*
X50500000Y-110500000D02*
X48000000Y-113000000D01*
X68000000Y-111500000D02*
X68000000Y-113000000D01*
X68500000Y-116500000D02*
X70250000Y-114750000D01*
X69750000Y-114750000D02*
X70250000Y-114750000D01*
X70250000Y-114750000D02*
X71000000Y-114000000D01*
X68000000Y-113000000D02*
X69750000Y-114750000D01*
X56500000Y-113000000D02*
X58750000Y-115250000D01*
X58750000Y-115250000D02*
X60000000Y-116500000D01*
X62000000Y-112000000D02*
X60585787Y-112000000D01*
X58750000Y-113835787D02*
X58750000Y-115250000D01*
X60585787Y-112000000D02*
X58750000Y-113835787D01*
X80000000Y-113000000D02*
X86000000Y-107000000D01*
X87000000Y-106000000D02*
X80000000Y-113000000D01*
X80500000Y-112500000D02*
X87000000Y-106000000D01*
X71000000Y-114000000D02*
X71000000Y-112500000D01*
X71000000Y-112500000D02*
X80500000Y-112500000D01*
X22000000Y-116500000D02*
X25500000Y-113000000D01*
X60000000Y-116500000D02*
X68500000Y-116500000D01*
X25500000Y-113000000D02*
X26000000Y-113000000D01*
X23000000Y-117500000D02*
X23000000Y-116500000D01*
X22000000Y-117500000D02*
X22000000Y-116500000D01*
X22000000Y-117500000D02*
X23000000Y-117500000D01*
X22000000Y-116500000D02*
X23000000Y-116500000D01*
X74500000Y-107000000D02*
X68500000Y-101000000D01*
X74500000Y-108000000D02*
X74500000Y-107000000D01*
X68500000Y-101000000D02*
X46000000Y-101000000D01*
X46000000Y-101000000D02*
X47000000Y-102000000D01*
X20000000Y-114000000D02*
X20000000Y-103500000D01*
X22500000Y-101000000D02*
X46000000Y-101000000D01*
X20000000Y-103500000D02*
X22500000Y-101000000D01*
M02*
