G04 #@! TF.GenerationSoftware,KiCad,Pcbnew,8.0.7*
G04 #@! TF.CreationDate,2025-07-02T21:53:42-04:00*
G04 #@! TF.ProjectId,ESP32_laptop-strip.kicad_pcb,45535033-325f-46c6-9170-746f702d7374,rev?*
G04 #@! TF.SameCoordinates,Original*
G04 #@! TF.FileFunction,Paste,Top*
G04 #@! TF.FilePolarity,Positive*
%FSLAX46Y46*%
G04 Gerber Fmt 4.6, Leading zero omitted, Abs format (unit mm)*
G04 Created by KiCad (PCBNEW 8.0.7) date 2025-07-02 21:53:42*
%MOMM*%
%LPD*%
G01*
G04 APERTURE LIST*
G04 Aperture macros list*
%AMRoundRect*
0 Rectangle with rounded corners*
0 $1 Rounding radius*
0 $2 $3 $4 $5 $6 $7 $8 $9 X,Y pos of 4 corners*
0 Add a 4 corners polygon primitive as box body*
4,1,4,$2,$3,$4,$5,$6,$7,$8,$9,$2,$3,0*
0 Add four circle primitives for the rounded corners*
1,1,$1+$1,$2,$3*
1,1,$1+$1,$4,$5*
1,1,$1+$1,$6,$7*
1,1,$1+$1,$8,$9*
0 Add four rect primitives between the rounded corners*
20,1,$1+$1,$2,$3,$4,$5,0*
20,1,$1+$1,$4,$5,$6,$7,0*
20,1,$1+$1,$6,$7,$8,$9,0*
20,1,$1+$1,$8,$9,$2,$3,0*%
%AMFreePoly0*
4,1,11,0.600000,-3.000000,0.580902,-3.058779,0.530902,-3.095106,0.500000,-3.100000,-0.500000,-3.100000,-0.558779,-3.080902,-0.595106,-3.030902,-0.600000,-3.000000,-0.600000,1.000000,0.600000,1.000000,0.600000,-3.000000,0.600000,-3.000000,$1*%
G04 Aperture macros list end*
%ADD10RoundRect,0.250000X-0.350000X-0.450000X0.350000X-0.450000X0.350000X0.450000X-0.350000X0.450000X0*%
%ADD11RoundRect,0.162500X-0.837500X-0.162500X0.837500X-0.162500X0.837500X0.162500X-0.837500X0.162500X0*%
%ADD12FreePoly0,0.000000*%
%ADD13FreePoly0,180.000000*%
%ADD14RoundRect,0.250000X-0.337500X-0.475000X0.337500X-0.475000X0.337500X0.475000X-0.337500X0.475000X0*%
%ADD15RoundRect,0.250000X-0.475000X0.337500X-0.475000X-0.337500X0.475000X-0.337500X0.475000X0.337500X0*%
%ADD16RoundRect,0.250000X0.475000X-0.337500X0.475000X0.337500X-0.475000X0.337500X-0.475000X-0.337500X0*%
%ADD17R,6.000000X2.000000*%
G04 APERTURE END LIST*
D10*
X58500000Y-101500000D03*
X60500000Y-101500000D03*
D11*
X43790000Y-102050000D03*
X43790000Y-103000000D03*
X43790000Y-103950000D03*
X47210000Y-103950000D03*
X47210000Y-102050000D03*
D12*
X19840000Y-119620000D03*
X22380000Y-119620000D03*
X24920000Y-119620000D03*
X27460000Y-119620000D03*
X30000000Y-119620000D03*
X32540000Y-119620000D03*
X35080000Y-119620000D03*
X37620000Y-119620000D03*
X40160000Y-119620000D03*
D13*
X40160000Y-104380000D03*
X37620000Y-104380000D03*
X35080000Y-104380000D03*
X32540000Y-104380000D03*
X30000000Y-104380000D03*
X27460000Y-104380000D03*
X24920000Y-104380000D03*
X22380000Y-104380000D03*
X19840000Y-104380000D03*
D14*
X49462500Y-101500000D03*
X51537500Y-101500000D03*
X22462500Y-123500000D03*
X24537500Y-123500000D03*
D15*
X66000000Y-112962500D03*
X66000000Y-115037500D03*
X66000000Y-108962500D03*
X66000000Y-111037500D03*
D16*
X225500000Y-111037500D03*
X225500000Y-108962500D03*
D17*
X78750000Y-101750000D03*
X78750000Y-105000000D03*
X78750000Y-108250000D03*
D16*
X225500000Y-115037500D03*
X225500000Y-112962500D03*
M02*
