M48
; DRILL file {KiCad 8.0.7} date 2025-07-02T21:53:40-0400
; FORMAT={-:-/ absolute / metric / decimal}
; #@! TF.CreationDate,2025-07-02T21:53:40-04:00
; #@! TF.GenerationSoftware,Kicad,Pcbnew,8.0.7
; #@! TF.FileFunction,Plated,1,2,PTH
FMAT,2
METRIC
; #@! TA.AperFunction,Plated,PTH,ViaDrill
T1C0.400
; #@! TA.AperFunction,Plated,PTH,ComponentDrill
T2C1.000
; #@! TA.AperFunction,Plated,PTH,ComponentDrill
T3C2.000
; #@! TA.AperFunction,Plated,PTH,ComponentDrill
T4C4.300
%
G90
G05
T1
X20.0Y-114.0
X22.0Y-116.5
X22.0Y-117.5
X23.0Y-116.5
X23.0Y-117.5
X42.0Y-102.0
X43.5Y-105.0
X48.5Y-103.0
X50.5Y-103.0
X68.0Y-111.5
X68.0Y-113.0
X74.5Y-108.0
X86.0Y-107.0
X223.0Y-111.0
X223.0Y-113.0
T2
X62.0Y-109.5
X62.0Y-112.0
X62.0Y-114.5
X229.0Y-109.0
X229.0Y-111.5
X229.0Y-114.0
T4
X74.5Y-118.0
X92.5Y-118.0
X110.5Y-118.0
X128.5Y-118.0
X146.5Y-118.0
X164.5Y-118.0
X182.5Y-118.0
X200.5Y-118.0
X218.5Y-119.0
T3
X56.75Y-106.4G85X56.25Y-106.4
G05
X56.75Y-117.6G85X56.25Y-117.6
G05
X234.25Y-105.9G85X234.75Y-105.9
G05
X234.25Y-117.1G85X234.75Y-117.1
G05
M30
