G04 #@! TF.GenerationSoftware,KiCad,Pcbnew,8.0.7*
G04 #@! TF.CreationDate,2025-07-02T21:53:42-04:00*
G04 #@! TF.ProjectId,ESP32_laptop-strip.kicad_pcb,45535033-325f-46c6-9170-746f702d7374,rev?*
G04 #@! TF.SameCoordinates,Original*
G04 #@! TF.FileFunction,Legend,Top*
G04 #@! TF.FilePolarity,Positive*
%FSLAX46Y46*%
G04 Gerber Fmt 4.6, Leading zero omitted, Abs format (unit mm)*
G04 Created by KiCad (PCBNEW 8.0.7) date 2025-07-02 21:53:42*
%MOMM*%
%LPD*%
G01*
G04 APERTURE LIST*
G04 Aperture macros list*
%AMRoundRect*
0 Rectangle with rounded corners*
0 $1 Rounding radius*
0 $2 $3 $4 $5 $6 $7 $8 $9 X,Y pos of 4 corners*
0 Add a 4 corners polygon primitive as box body*
4,1,4,$2,$3,$4,$5,$6,$7,$8,$9,$2,$3,0*
0 Add four circle primitives for the rounded corners*
1,1,$1+$1,$2,$3*
1,1,$1+$1,$4,$5*
1,1,$1+$1,$6,$7*
1,1,$1+$1,$8,$9*
0 Add four rect primitives between the rounded corners*
20,1,$1+$1,$2,$3,$4,$5,0*
20,1,$1+$1,$4,$5,$6,$7,0*
20,1,$1+$1,$6,$7,$8,$9,0*
20,1,$1+$1,$8,$9,$2,$3,0*%
%AMFreePoly0*
4,1,11,0.600000,-3.000000,0.580902,-3.058779,0.530902,-3.095106,0.500000,-3.100000,-0.500000,-3.100000,-0.558779,-3.080902,-0.595106,-3.030902,-0.600000,-3.000000,-0.600000,1.000000,0.600000,1.000000,0.600000,-3.000000,0.600000,-3.000000,$1*%
G04 Aperture macros list end*
%ADD10C,0.150000*%
%ADD11C,0.120000*%
%ADD12C,0.200000*%
%ADD13RoundRect,0.250000X-0.350000X-0.450000X0.350000X-0.450000X0.350000X0.450000X-0.350000X0.450000X0*%
%ADD14C,7.500000*%
%ADD15C,3.200000*%
%ADD16RoundRect,0.162500X-0.837500X-0.162500X0.837500X-0.162500X0.837500X0.162500X-0.837500X0.162500X0*%
%ADD17FreePoly0,0.000000*%
%ADD18FreePoly0,180.000000*%
%ADD19RoundRect,0.250000X-0.337500X-0.475000X0.337500X-0.475000X0.337500X0.475000X-0.337500X0.475000X0*%
%ADD20R,2.000000X2.000000*%
%ADD21C,2.000000*%
%ADD22R,3.000000X2.500000*%
%ADD23RoundRect,0.250000X-0.475000X0.337500X-0.475000X-0.337500X0.475000X-0.337500X0.475000X0.337500X0*%
%ADD24RoundRect,0.250000X0.475000X-0.337500X0.475000X0.337500X-0.475000X0.337500X-0.475000X-0.337500X0*%
%ADD25R,6.000000X2.000000*%
G04 APERTURE END LIST*
D10*
X59333333Y-100304819D02*
X59000000Y-99828628D01*
X58761905Y-100304819D02*
X58761905Y-99304819D01*
X58761905Y-99304819D02*
X59142857Y-99304819D01*
X59142857Y-99304819D02*
X59238095Y-99352438D01*
X59238095Y-99352438D02*
X59285714Y-99400057D01*
X59285714Y-99400057D02*
X59333333Y-99495295D01*
X59333333Y-99495295D02*
X59333333Y-99638152D01*
X59333333Y-99638152D02*
X59285714Y-99733390D01*
X59285714Y-99733390D02*
X59238095Y-99781009D01*
X59238095Y-99781009D02*
X59142857Y-99828628D01*
X59142857Y-99828628D02*
X58761905Y-99828628D01*
X60285714Y-100304819D02*
X59714286Y-100304819D01*
X60000000Y-100304819D02*
X60000000Y-99304819D01*
X60000000Y-99304819D02*
X59904762Y-99447676D01*
X59904762Y-99447676D02*
X59809524Y-99542914D01*
X59809524Y-99542914D02*
X59714286Y-99590533D01*
X109738095Y-113704819D02*
X109738095Y-112704819D01*
X109738095Y-113181009D02*
X110309523Y-113181009D01*
X110309523Y-113704819D02*
X110309523Y-112704819D01*
X110928571Y-113133390D02*
X110833333Y-113085771D01*
X110833333Y-113085771D02*
X110785714Y-113038152D01*
X110785714Y-113038152D02*
X110738095Y-112942914D01*
X110738095Y-112942914D02*
X110738095Y-112895295D01*
X110738095Y-112895295D02*
X110785714Y-112800057D01*
X110785714Y-112800057D02*
X110833333Y-112752438D01*
X110833333Y-112752438D02*
X110928571Y-112704819D01*
X110928571Y-112704819D02*
X111119047Y-112704819D01*
X111119047Y-112704819D02*
X111214285Y-112752438D01*
X111214285Y-112752438D02*
X111261904Y-112800057D01*
X111261904Y-112800057D02*
X111309523Y-112895295D01*
X111309523Y-112895295D02*
X111309523Y-112942914D01*
X111309523Y-112942914D02*
X111261904Y-113038152D01*
X111261904Y-113038152D02*
X111214285Y-113085771D01*
X111214285Y-113085771D02*
X111119047Y-113133390D01*
X111119047Y-113133390D02*
X110928571Y-113133390D01*
X110928571Y-113133390D02*
X110833333Y-113181009D01*
X110833333Y-113181009D02*
X110785714Y-113228628D01*
X110785714Y-113228628D02*
X110738095Y-113323866D01*
X110738095Y-113323866D02*
X110738095Y-113514342D01*
X110738095Y-113514342D02*
X110785714Y-113609580D01*
X110785714Y-113609580D02*
X110833333Y-113657200D01*
X110833333Y-113657200D02*
X110928571Y-113704819D01*
X110928571Y-113704819D02*
X111119047Y-113704819D01*
X111119047Y-113704819D02*
X111214285Y-113657200D01*
X111214285Y-113657200D02*
X111261904Y-113609580D01*
X111261904Y-113609580D02*
X111309523Y-113514342D01*
X111309523Y-113514342D02*
X111309523Y-113323866D01*
X111309523Y-113323866D02*
X111261904Y-113228628D01*
X111261904Y-113228628D02*
X111214285Y-113181009D01*
X111214285Y-113181009D02*
X111119047Y-113133390D01*
X91261905Y-113704819D02*
X91261905Y-112704819D01*
X91261905Y-113181009D02*
X91833333Y-113181009D01*
X91833333Y-113704819D02*
X91833333Y-112704819D01*
X92833333Y-113704819D02*
X92261905Y-113704819D01*
X92547619Y-113704819D02*
X92547619Y-112704819D01*
X92547619Y-112704819D02*
X92452381Y-112847676D01*
X92452381Y-112847676D02*
X92357143Y-112942914D01*
X92357143Y-112942914D02*
X92261905Y-112990533D01*
X93452381Y-112704819D02*
X93547619Y-112704819D01*
X93547619Y-112704819D02*
X93642857Y-112752438D01*
X93642857Y-112752438D02*
X93690476Y-112800057D01*
X93690476Y-112800057D02*
X93738095Y-112895295D01*
X93738095Y-112895295D02*
X93785714Y-113085771D01*
X93785714Y-113085771D02*
X93785714Y-113323866D01*
X93785714Y-113323866D02*
X93738095Y-113514342D01*
X93738095Y-113514342D02*
X93690476Y-113609580D01*
X93690476Y-113609580D02*
X93642857Y-113657200D01*
X93642857Y-113657200D02*
X93547619Y-113704819D01*
X93547619Y-113704819D02*
X93452381Y-113704819D01*
X93452381Y-113704819D02*
X93357143Y-113657200D01*
X93357143Y-113657200D02*
X93309524Y-113609580D01*
X93309524Y-113609580D02*
X93261905Y-113514342D01*
X93261905Y-113514342D02*
X93214286Y-113323866D01*
X93214286Y-113323866D02*
X93214286Y-113085771D01*
X93214286Y-113085771D02*
X93261905Y-112895295D01*
X93261905Y-112895295D02*
X93309524Y-112800057D01*
X93309524Y-112800057D02*
X93357143Y-112752438D01*
X93357143Y-112752438D02*
X93452381Y-112704819D01*
X163261905Y-113704819D02*
X163261905Y-112704819D01*
X163261905Y-113181009D02*
X163833333Y-113181009D01*
X163833333Y-113704819D02*
X163833333Y-112704819D01*
X164833333Y-113704819D02*
X164261905Y-113704819D01*
X164547619Y-113704819D02*
X164547619Y-112704819D01*
X164547619Y-112704819D02*
X164452381Y-112847676D01*
X164452381Y-112847676D02*
X164357143Y-112942914D01*
X164357143Y-112942914D02*
X164261905Y-112990533D01*
X165785714Y-113704819D02*
X165214286Y-113704819D01*
X165500000Y-113704819D02*
X165500000Y-112704819D01*
X165500000Y-112704819D02*
X165404762Y-112847676D01*
X165404762Y-112847676D02*
X165309524Y-112942914D01*
X165309524Y-112942914D02*
X165214286Y-112990533D01*
X145738095Y-113704819D02*
X145738095Y-112704819D01*
X145738095Y-113181009D02*
X146309523Y-113181009D01*
X146309523Y-113704819D02*
X146309523Y-112704819D01*
X146690476Y-112704819D02*
X147357142Y-112704819D01*
X147357142Y-112704819D02*
X146928571Y-113704819D01*
X44738095Y-100004819D02*
X44738095Y-100814342D01*
X44738095Y-100814342D02*
X44785714Y-100909580D01*
X44785714Y-100909580D02*
X44833333Y-100957200D01*
X44833333Y-100957200D02*
X44928571Y-101004819D01*
X44928571Y-101004819D02*
X45119047Y-101004819D01*
X45119047Y-101004819D02*
X45214285Y-100957200D01*
X45214285Y-100957200D02*
X45261904Y-100909580D01*
X45261904Y-100909580D02*
X45309523Y-100814342D01*
X45309523Y-100814342D02*
X45309523Y-100004819D01*
X46309523Y-101004819D02*
X45738095Y-101004819D01*
X46023809Y-101004819D02*
X46023809Y-100004819D01*
X46023809Y-100004819D02*
X45928571Y-100147676D01*
X45928571Y-100147676D02*
X45833333Y-100242914D01*
X45833333Y-100242914D02*
X45738095Y-100290533D01*
X12714819Y-112761904D02*
X13524342Y-112761904D01*
X13524342Y-112761904D02*
X13619580Y-112714285D01*
X13619580Y-112714285D02*
X13667200Y-112666666D01*
X13667200Y-112666666D02*
X13714819Y-112571428D01*
X13714819Y-112571428D02*
X13714819Y-112380952D01*
X13714819Y-112380952D02*
X13667200Y-112285714D01*
X13667200Y-112285714D02*
X13619580Y-112238095D01*
X13619580Y-112238095D02*
X13524342Y-112190476D01*
X13524342Y-112190476D02*
X12714819Y-112190476D01*
X12810057Y-111761904D02*
X12762438Y-111714285D01*
X12762438Y-111714285D02*
X12714819Y-111619047D01*
X12714819Y-111619047D02*
X12714819Y-111380952D01*
X12714819Y-111380952D02*
X12762438Y-111285714D01*
X12762438Y-111285714D02*
X12810057Y-111238095D01*
X12810057Y-111238095D02*
X12905295Y-111190476D01*
X12905295Y-111190476D02*
X13000533Y-111190476D01*
X13000533Y-111190476D02*
X13143390Y-111238095D01*
X13143390Y-111238095D02*
X13714819Y-111809523D01*
X13714819Y-111809523D02*
X13714819Y-111190476D01*
X19294819Y-108407732D02*
X19294819Y-107836304D01*
X20294819Y-108122018D02*
X19294819Y-108122018D01*
X19294819Y-107598208D02*
X20294819Y-106931542D01*
X19294819Y-106931542D02*
X20294819Y-107598208D01*
X19294819Y-117537030D02*
X19294819Y-118013220D01*
X19294819Y-118013220D02*
X19771009Y-118060839D01*
X19771009Y-118060839D02*
X19723390Y-118013220D01*
X19723390Y-118013220D02*
X19675771Y-117917982D01*
X19675771Y-117917982D02*
X19675771Y-117679887D01*
X19675771Y-117679887D02*
X19723390Y-117584649D01*
X19723390Y-117584649D02*
X19771009Y-117537030D01*
X19771009Y-117537030D02*
X19866247Y-117489411D01*
X19866247Y-117489411D02*
X20104342Y-117489411D01*
X20104342Y-117489411D02*
X20199580Y-117537030D01*
X20199580Y-117537030D02*
X20247200Y-117584649D01*
X20247200Y-117584649D02*
X20294819Y-117679887D01*
X20294819Y-117679887D02*
X20294819Y-117917982D01*
X20294819Y-117917982D02*
X20247200Y-118013220D01*
X20247200Y-118013220D02*
X20199580Y-118060839D01*
X19294819Y-117203696D02*
X20294819Y-116870363D01*
X20294819Y-116870363D02*
X19294819Y-116537030D01*
X29502438Y-117489411D02*
X29454819Y-117584649D01*
X29454819Y-117584649D02*
X29454819Y-117727506D01*
X29454819Y-117727506D02*
X29502438Y-117870363D01*
X29502438Y-117870363D02*
X29597676Y-117965601D01*
X29597676Y-117965601D02*
X29692914Y-118013220D01*
X29692914Y-118013220D02*
X29883390Y-118060839D01*
X29883390Y-118060839D02*
X30026247Y-118060839D01*
X30026247Y-118060839D02*
X30216723Y-118013220D01*
X30216723Y-118013220D02*
X30311961Y-117965601D01*
X30311961Y-117965601D02*
X30407200Y-117870363D01*
X30407200Y-117870363D02*
X30454819Y-117727506D01*
X30454819Y-117727506D02*
X30454819Y-117632268D01*
X30454819Y-117632268D02*
X30407200Y-117489411D01*
X30407200Y-117489411D02*
X30359580Y-117441792D01*
X30359580Y-117441792D02*
X30026247Y-117441792D01*
X30026247Y-117441792D02*
X30026247Y-117632268D01*
X30454819Y-117013220D02*
X29454819Y-117013220D01*
X29454819Y-117013220D02*
X29454819Y-116632268D01*
X29454819Y-116632268D02*
X29502438Y-116537030D01*
X29502438Y-116537030D02*
X29550057Y-116489411D01*
X29550057Y-116489411D02*
X29645295Y-116441792D01*
X29645295Y-116441792D02*
X29788152Y-116441792D01*
X29788152Y-116441792D02*
X29883390Y-116489411D01*
X29883390Y-116489411D02*
X29931009Y-116537030D01*
X29931009Y-116537030D02*
X29978628Y-116632268D01*
X29978628Y-116632268D02*
X29978628Y-117013220D01*
X30454819Y-116013220D02*
X29454819Y-116013220D01*
X29454819Y-115346554D02*
X29454819Y-115156078D01*
X29454819Y-115156078D02*
X29502438Y-115060840D01*
X29502438Y-115060840D02*
X29597676Y-114965602D01*
X29597676Y-114965602D02*
X29788152Y-114917983D01*
X29788152Y-114917983D02*
X30121485Y-114917983D01*
X30121485Y-114917983D02*
X30311961Y-114965602D01*
X30311961Y-114965602D02*
X30407200Y-115060840D01*
X30407200Y-115060840D02*
X30454819Y-115156078D01*
X30454819Y-115156078D02*
X30454819Y-115346554D01*
X30454819Y-115346554D02*
X30407200Y-115441792D01*
X30407200Y-115441792D02*
X30311961Y-115537030D01*
X30311961Y-115537030D02*
X30121485Y-115584649D01*
X30121485Y-115584649D02*
X29788152Y-115584649D01*
X29788152Y-115584649D02*
X29597676Y-115537030D01*
X29597676Y-115537030D02*
X29502438Y-115441792D01*
X29502438Y-115441792D02*
X29454819Y-115346554D01*
X29550057Y-114537030D02*
X29502438Y-114489411D01*
X29502438Y-114489411D02*
X29454819Y-114394173D01*
X29454819Y-114394173D02*
X29454819Y-114156078D01*
X29454819Y-114156078D02*
X29502438Y-114060840D01*
X29502438Y-114060840D02*
X29550057Y-114013221D01*
X29550057Y-114013221D02*
X29645295Y-113965602D01*
X29645295Y-113965602D02*
X29740533Y-113965602D01*
X29740533Y-113965602D02*
X29883390Y-114013221D01*
X29883390Y-114013221D02*
X30454819Y-114584649D01*
X30454819Y-114584649D02*
X30454819Y-113965602D01*
X22834819Y-107931542D02*
X22358628Y-108264875D01*
X22834819Y-108502970D02*
X21834819Y-108502970D01*
X21834819Y-108502970D02*
X21834819Y-108122018D01*
X21834819Y-108122018D02*
X21882438Y-108026780D01*
X21882438Y-108026780D02*
X21930057Y-107979161D01*
X21930057Y-107979161D02*
X22025295Y-107931542D01*
X22025295Y-107931542D02*
X22168152Y-107931542D01*
X22168152Y-107931542D02*
X22263390Y-107979161D01*
X22263390Y-107979161D02*
X22311009Y-108026780D01*
X22311009Y-108026780D02*
X22358628Y-108122018D01*
X22358628Y-108122018D02*
X22358628Y-108502970D01*
X21834819Y-107598208D02*
X22834819Y-106931542D01*
X21834819Y-106931542D02*
X22834819Y-107598208D01*
X22877561Y-115965601D02*
X22925180Y-115870363D01*
X22925180Y-115870363D02*
X22925180Y-115727506D01*
X22925180Y-115727506D02*
X22877561Y-115584649D01*
X22877561Y-115584649D02*
X22782323Y-115489411D01*
X22782323Y-115489411D02*
X22687085Y-115441792D01*
X22687085Y-115441792D02*
X22496609Y-115394173D01*
X22496609Y-115394173D02*
X22353752Y-115394173D01*
X22353752Y-115394173D02*
X22163276Y-115441792D01*
X22163276Y-115441792D02*
X22068038Y-115489411D01*
X22068038Y-115489411D02*
X21972800Y-115584649D01*
X21972800Y-115584649D02*
X21925180Y-115727506D01*
X21925180Y-115727506D02*
X21925180Y-115822744D01*
X21925180Y-115822744D02*
X21972800Y-115965601D01*
X21972800Y-115965601D02*
X22020419Y-116013220D01*
X22020419Y-116013220D02*
X22353752Y-116013220D01*
X22353752Y-116013220D02*
X22353752Y-115822744D01*
X21925180Y-116441792D02*
X22925180Y-116441792D01*
X22925180Y-116441792D02*
X21925180Y-117013220D01*
X21925180Y-117013220D02*
X22925180Y-117013220D01*
X21925180Y-117489411D02*
X22925180Y-117489411D01*
X22925180Y-117489411D02*
X22925180Y-117727506D01*
X22925180Y-117727506D02*
X22877561Y-117870363D01*
X22877561Y-117870363D02*
X22782323Y-117965601D01*
X22782323Y-117965601D02*
X22687085Y-118013220D01*
X22687085Y-118013220D02*
X22496609Y-118060839D01*
X22496609Y-118060839D02*
X22353752Y-118060839D01*
X22353752Y-118060839D02*
X22163276Y-118013220D01*
X22163276Y-118013220D02*
X22068038Y-117965601D01*
X22068038Y-117965601D02*
X21972800Y-117870363D01*
X21972800Y-117870363D02*
X21925180Y-117727506D01*
X21925180Y-117727506D02*
X21925180Y-117489411D01*
X34812437Y-110139411D02*
X34764818Y-110234649D01*
X34764818Y-110234649D02*
X34764818Y-110377506D01*
X34764818Y-110377506D02*
X34812437Y-110520363D01*
X34812437Y-110520363D02*
X34907675Y-110615601D01*
X34907675Y-110615601D02*
X35002913Y-110663220D01*
X35002913Y-110663220D02*
X35193389Y-110710839D01*
X35193389Y-110710839D02*
X35336246Y-110710839D01*
X35336246Y-110710839D02*
X35526722Y-110663220D01*
X35526722Y-110663220D02*
X35621960Y-110615601D01*
X35621960Y-110615601D02*
X35717199Y-110520363D01*
X35717199Y-110520363D02*
X35764818Y-110377506D01*
X35764818Y-110377506D02*
X35764818Y-110282268D01*
X35764818Y-110282268D02*
X35717199Y-110139411D01*
X35717199Y-110139411D02*
X35669579Y-110091792D01*
X35669579Y-110091792D02*
X35336246Y-110091792D01*
X35336246Y-110091792D02*
X35336246Y-110282268D01*
X35764818Y-109663220D02*
X34764818Y-109663220D01*
X34764818Y-109663220D02*
X34764818Y-109282268D01*
X34764818Y-109282268D02*
X34812437Y-109187030D01*
X34812437Y-109187030D02*
X34860056Y-109139411D01*
X34860056Y-109139411D02*
X34955294Y-109091792D01*
X34955294Y-109091792D02*
X35098151Y-109091792D01*
X35098151Y-109091792D02*
X35193389Y-109139411D01*
X35193389Y-109139411D02*
X35241008Y-109187030D01*
X35241008Y-109187030D02*
X35288627Y-109282268D01*
X35288627Y-109282268D02*
X35288627Y-109663220D01*
X35764818Y-108663220D02*
X34764818Y-108663220D01*
X34764818Y-107996554D02*
X34764818Y-107806078D01*
X34764818Y-107806078D02*
X34812437Y-107710840D01*
X34812437Y-107710840D02*
X34907675Y-107615602D01*
X34907675Y-107615602D02*
X35098151Y-107567983D01*
X35098151Y-107567983D02*
X35431484Y-107567983D01*
X35431484Y-107567983D02*
X35621960Y-107615602D01*
X35621960Y-107615602D02*
X35717199Y-107710840D01*
X35717199Y-107710840D02*
X35764818Y-107806078D01*
X35764818Y-107806078D02*
X35764818Y-107996554D01*
X35764818Y-107996554D02*
X35717199Y-108091792D01*
X35717199Y-108091792D02*
X35621960Y-108187030D01*
X35621960Y-108187030D02*
X35431484Y-108234649D01*
X35431484Y-108234649D02*
X35098151Y-108234649D01*
X35098151Y-108234649D02*
X34907675Y-108187030D01*
X34907675Y-108187030D02*
X34812437Y-108091792D01*
X34812437Y-108091792D02*
X34764818Y-107996554D01*
X35764818Y-107091792D02*
X35764818Y-106901316D01*
X35764818Y-106901316D02*
X35717199Y-106806078D01*
X35717199Y-106806078D02*
X35669579Y-106758459D01*
X35669579Y-106758459D02*
X35526722Y-106663221D01*
X35526722Y-106663221D02*
X35336246Y-106615602D01*
X35336246Y-106615602D02*
X34955294Y-106615602D01*
X34955294Y-106615602D02*
X34860056Y-106663221D01*
X34860056Y-106663221D02*
X34812437Y-106710840D01*
X34812437Y-106710840D02*
X34764818Y-106806078D01*
X34764818Y-106806078D02*
X34764818Y-106996554D01*
X34764818Y-106996554D02*
X34812437Y-107091792D01*
X34812437Y-107091792D02*
X34860056Y-107139411D01*
X34860056Y-107139411D02*
X34955294Y-107187030D01*
X34955294Y-107187030D02*
X35193389Y-107187030D01*
X35193389Y-107187030D02*
X35288627Y-107139411D01*
X35288627Y-107139411D02*
X35336246Y-107091792D01*
X35336246Y-107091792D02*
X35383865Y-106996554D01*
X35383865Y-106996554D02*
X35383865Y-106806078D01*
X35383865Y-106806078D02*
X35336246Y-106710840D01*
X35336246Y-106710840D02*
X35288627Y-106663221D01*
X35288627Y-106663221D02*
X35193389Y-106615602D01*
X39662438Y-110139411D02*
X39614819Y-110234649D01*
X39614819Y-110234649D02*
X39614819Y-110377506D01*
X39614819Y-110377506D02*
X39662438Y-110520363D01*
X39662438Y-110520363D02*
X39757676Y-110615601D01*
X39757676Y-110615601D02*
X39852914Y-110663220D01*
X39852914Y-110663220D02*
X40043390Y-110710839D01*
X40043390Y-110710839D02*
X40186247Y-110710839D01*
X40186247Y-110710839D02*
X40376723Y-110663220D01*
X40376723Y-110663220D02*
X40471961Y-110615601D01*
X40471961Y-110615601D02*
X40567200Y-110520363D01*
X40567200Y-110520363D02*
X40614819Y-110377506D01*
X40614819Y-110377506D02*
X40614819Y-110282268D01*
X40614819Y-110282268D02*
X40567200Y-110139411D01*
X40567200Y-110139411D02*
X40519580Y-110091792D01*
X40519580Y-110091792D02*
X40186247Y-110091792D01*
X40186247Y-110091792D02*
X40186247Y-110282268D01*
X40614819Y-109663220D02*
X39614819Y-109663220D01*
X39614819Y-109663220D02*
X39614819Y-109282268D01*
X39614819Y-109282268D02*
X39662438Y-109187030D01*
X39662438Y-109187030D02*
X39710057Y-109139411D01*
X39710057Y-109139411D02*
X39805295Y-109091792D01*
X39805295Y-109091792D02*
X39948152Y-109091792D01*
X39948152Y-109091792D02*
X40043390Y-109139411D01*
X40043390Y-109139411D02*
X40091009Y-109187030D01*
X40091009Y-109187030D02*
X40138628Y-109282268D01*
X40138628Y-109282268D02*
X40138628Y-109663220D01*
X40614819Y-108663220D02*
X39614819Y-108663220D01*
X39614819Y-107996554D02*
X39614819Y-107806078D01*
X39614819Y-107806078D02*
X39662438Y-107710840D01*
X39662438Y-107710840D02*
X39757676Y-107615602D01*
X39757676Y-107615602D02*
X39948152Y-107567983D01*
X39948152Y-107567983D02*
X40281485Y-107567983D01*
X40281485Y-107567983D02*
X40471961Y-107615602D01*
X40471961Y-107615602D02*
X40567200Y-107710840D01*
X40567200Y-107710840D02*
X40614819Y-107806078D01*
X40614819Y-107806078D02*
X40614819Y-107996554D01*
X40614819Y-107996554D02*
X40567200Y-108091792D01*
X40567200Y-108091792D02*
X40471961Y-108187030D01*
X40471961Y-108187030D02*
X40281485Y-108234649D01*
X40281485Y-108234649D02*
X39948152Y-108234649D01*
X39948152Y-108234649D02*
X39757676Y-108187030D01*
X39757676Y-108187030D02*
X39662438Y-108091792D01*
X39662438Y-108091792D02*
X39614819Y-107996554D01*
X39614819Y-107234649D02*
X39614819Y-106567983D01*
X39614819Y-106567983D02*
X40614819Y-106996554D01*
X29502438Y-111139411D02*
X29454819Y-111234649D01*
X29454819Y-111234649D02*
X29454819Y-111377506D01*
X29454819Y-111377506D02*
X29502438Y-111520363D01*
X29502438Y-111520363D02*
X29597676Y-111615601D01*
X29597676Y-111615601D02*
X29692914Y-111663220D01*
X29692914Y-111663220D02*
X29883390Y-111710839D01*
X29883390Y-111710839D02*
X30026247Y-111710839D01*
X30026247Y-111710839D02*
X30216723Y-111663220D01*
X30216723Y-111663220D02*
X30311961Y-111615601D01*
X30311961Y-111615601D02*
X30407200Y-111520363D01*
X30407200Y-111520363D02*
X30454819Y-111377506D01*
X30454819Y-111377506D02*
X30454819Y-111282268D01*
X30454819Y-111282268D02*
X30407200Y-111139411D01*
X30407200Y-111139411D02*
X30359580Y-111091792D01*
X30359580Y-111091792D02*
X30026247Y-111091792D01*
X30026247Y-111091792D02*
X30026247Y-111282268D01*
X30454819Y-110663220D02*
X29454819Y-110663220D01*
X29454819Y-110663220D02*
X29454819Y-110282268D01*
X29454819Y-110282268D02*
X29502438Y-110187030D01*
X29502438Y-110187030D02*
X29550057Y-110139411D01*
X29550057Y-110139411D02*
X29645295Y-110091792D01*
X29645295Y-110091792D02*
X29788152Y-110091792D01*
X29788152Y-110091792D02*
X29883390Y-110139411D01*
X29883390Y-110139411D02*
X29931009Y-110187030D01*
X29931009Y-110187030D02*
X29978628Y-110282268D01*
X29978628Y-110282268D02*
X29978628Y-110663220D01*
X30454819Y-109663220D02*
X29454819Y-109663220D01*
X29454819Y-108996554D02*
X29454819Y-108806078D01*
X29454819Y-108806078D02*
X29502438Y-108710840D01*
X29502438Y-108710840D02*
X29597676Y-108615602D01*
X29597676Y-108615602D02*
X29788152Y-108567983D01*
X29788152Y-108567983D02*
X30121485Y-108567983D01*
X30121485Y-108567983D02*
X30311961Y-108615602D01*
X30311961Y-108615602D02*
X30407200Y-108710840D01*
X30407200Y-108710840D02*
X30454819Y-108806078D01*
X30454819Y-108806078D02*
X30454819Y-108996554D01*
X30454819Y-108996554D02*
X30407200Y-109091792D01*
X30407200Y-109091792D02*
X30311961Y-109187030D01*
X30311961Y-109187030D02*
X30121485Y-109234649D01*
X30121485Y-109234649D02*
X29788152Y-109234649D01*
X29788152Y-109234649D02*
X29597676Y-109187030D01*
X29597676Y-109187030D02*
X29502438Y-109091792D01*
X29502438Y-109091792D02*
X29454819Y-108996554D01*
X30454819Y-107615602D02*
X30454819Y-108187030D01*
X30454819Y-107901316D02*
X29454819Y-107901316D01*
X29454819Y-107901316D02*
X29597676Y-107996554D01*
X29597676Y-107996554D02*
X29692914Y-108091792D01*
X29692914Y-108091792D02*
X29740533Y-108187030D01*
X30454819Y-106663221D02*
X30454819Y-107234649D01*
X30454819Y-106948935D02*
X29454819Y-106948935D01*
X29454819Y-106948935D02*
X29597676Y-107044173D01*
X29597676Y-107044173D02*
X29692914Y-107139411D01*
X29692914Y-107139411D02*
X29740533Y-107234649D01*
X37122438Y-110139411D02*
X37074819Y-110234649D01*
X37074819Y-110234649D02*
X37074819Y-110377506D01*
X37074819Y-110377506D02*
X37122438Y-110520363D01*
X37122438Y-110520363D02*
X37217676Y-110615601D01*
X37217676Y-110615601D02*
X37312914Y-110663220D01*
X37312914Y-110663220D02*
X37503390Y-110710839D01*
X37503390Y-110710839D02*
X37646247Y-110710839D01*
X37646247Y-110710839D02*
X37836723Y-110663220D01*
X37836723Y-110663220D02*
X37931961Y-110615601D01*
X37931961Y-110615601D02*
X38027200Y-110520363D01*
X38027200Y-110520363D02*
X38074819Y-110377506D01*
X38074819Y-110377506D02*
X38074819Y-110282268D01*
X38074819Y-110282268D02*
X38027200Y-110139411D01*
X38027200Y-110139411D02*
X37979580Y-110091792D01*
X37979580Y-110091792D02*
X37646247Y-110091792D01*
X37646247Y-110091792D02*
X37646247Y-110282268D01*
X38074819Y-109663220D02*
X37074819Y-109663220D01*
X37074819Y-109663220D02*
X37074819Y-109282268D01*
X37074819Y-109282268D02*
X37122438Y-109187030D01*
X37122438Y-109187030D02*
X37170057Y-109139411D01*
X37170057Y-109139411D02*
X37265295Y-109091792D01*
X37265295Y-109091792D02*
X37408152Y-109091792D01*
X37408152Y-109091792D02*
X37503390Y-109139411D01*
X37503390Y-109139411D02*
X37551009Y-109187030D01*
X37551009Y-109187030D02*
X37598628Y-109282268D01*
X37598628Y-109282268D02*
X37598628Y-109663220D01*
X38074819Y-108663220D02*
X37074819Y-108663220D01*
X37074819Y-107996554D02*
X37074819Y-107806078D01*
X37074819Y-107806078D02*
X37122438Y-107710840D01*
X37122438Y-107710840D02*
X37217676Y-107615602D01*
X37217676Y-107615602D02*
X37408152Y-107567983D01*
X37408152Y-107567983D02*
X37741485Y-107567983D01*
X37741485Y-107567983D02*
X37931961Y-107615602D01*
X37931961Y-107615602D02*
X38027200Y-107710840D01*
X38027200Y-107710840D02*
X38074819Y-107806078D01*
X38074819Y-107806078D02*
X38074819Y-107996554D01*
X38074819Y-107996554D02*
X38027200Y-108091792D01*
X38027200Y-108091792D02*
X37931961Y-108187030D01*
X37931961Y-108187030D02*
X37741485Y-108234649D01*
X37741485Y-108234649D02*
X37408152Y-108234649D01*
X37408152Y-108234649D02*
X37217676Y-108187030D01*
X37217676Y-108187030D02*
X37122438Y-108091792D01*
X37122438Y-108091792D02*
X37074819Y-107996554D01*
X37503390Y-106996554D02*
X37455771Y-107091792D01*
X37455771Y-107091792D02*
X37408152Y-107139411D01*
X37408152Y-107139411D02*
X37312914Y-107187030D01*
X37312914Y-107187030D02*
X37265295Y-107187030D01*
X37265295Y-107187030D02*
X37170057Y-107139411D01*
X37170057Y-107139411D02*
X37122438Y-107091792D01*
X37122438Y-107091792D02*
X37074819Y-106996554D01*
X37074819Y-106996554D02*
X37074819Y-106806078D01*
X37074819Y-106806078D02*
X37122438Y-106710840D01*
X37122438Y-106710840D02*
X37170057Y-106663221D01*
X37170057Y-106663221D02*
X37265295Y-106615602D01*
X37265295Y-106615602D02*
X37312914Y-106615602D01*
X37312914Y-106615602D02*
X37408152Y-106663221D01*
X37408152Y-106663221D02*
X37455771Y-106710840D01*
X37455771Y-106710840D02*
X37503390Y-106806078D01*
X37503390Y-106806078D02*
X37503390Y-106996554D01*
X37503390Y-106996554D02*
X37551009Y-107091792D01*
X37551009Y-107091792D02*
X37598628Y-107139411D01*
X37598628Y-107139411D02*
X37693866Y-107187030D01*
X37693866Y-107187030D02*
X37884342Y-107187030D01*
X37884342Y-107187030D02*
X37979580Y-107139411D01*
X37979580Y-107139411D02*
X38027200Y-107091792D01*
X38027200Y-107091792D02*
X38074819Y-106996554D01*
X38074819Y-106996554D02*
X38074819Y-106806078D01*
X38074819Y-106806078D02*
X38027200Y-106710840D01*
X38027200Y-106710840D02*
X37979580Y-106663221D01*
X37979580Y-106663221D02*
X37884342Y-106615602D01*
X37884342Y-106615602D02*
X37693866Y-106615602D01*
X37693866Y-106615602D02*
X37598628Y-106663221D01*
X37598628Y-106663221D02*
X37551009Y-106710840D01*
X37551009Y-106710840D02*
X37503390Y-106806078D01*
X32042438Y-111139411D02*
X31994819Y-111234649D01*
X31994819Y-111234649D02*
X31994819Y-111377506D01*
X31994819Y-111377506D02*
X32042438Y-111520363D01*
X32042438Y-111520363D02*
X32137676Y-111615601D01*
X32137676Y-111615601D02*
X32232914Y-111663220D01*
X32232914Y-111663220D02*
X32423390Y-111710839D01*
X32423390Y-111710839D02*
X32566247Y-111710839D01*
X32566247Y-111710839D02*
X32756723Y-111663220D01*
X32756723Y-111663220D02*
X32851961Y-111615601D01*
X32851961Y-111615601D02*
X32947200Y-111520363D01*
X32947200Y-111520363D02*
X32994819Y-111377506D01*
X32994819Y-111377506D02*
X32994819Y-111282268D01*
X32994819Y-111282268D02*
X32947200Y-111139411D01*
X32947200Y-111139411D02*
X32899580Y-111091792D01*
X32899580Y-111091792D02*
X32566247Y-111091792D01*
X32566247Y-111091792D02*
X32566247Y-111282268D01*
X32994819Y-110663220D02*
X31994819Y-110663220D01*
X31994819Y-110663220D02*
X31994819Y-110282268D01*
X31994819Y-110282268D02*
X32042438Y-110187030D01*
X32042438Y-110187030D02*
X32090057Y-110139411D01*
X32090057Y-110139411D02*
X32185295Y-110091792D01*
X32185295Y-110091792D02*
X32328152Y-110091792D01*
X32328152Y-110091792D02*
X32423390Y-110139411D01*
X32423390Y-110139411D02*
X32471009Y-110187030D01*
X32471009Y-110187030D02*
X32518628Y-110282268D01*
X32518628Y-110282268D02*
X32518628Y-110663220D01*
X32994819Y-109663220D02*
X31994819Y-109663220D01*
X31994819Y-108996554D02*
X31994819Y-108806078D01*
X31994819Y-108806078D02*
X32042438Y-108710840D01*
X32042438Y-108710840D02*
X32137676Y-108615602D01*
X32137676Y-108615602D02*
X32328152Y-108567983D01*
X32328152Y-108567983D02*
X32661485Y-108567983D01*
X32661485Y-108567983D02*
X32851961Y-108615602D01*
X32851961Y-108615602D02*
X32947200Y-108710840D01*
X32947200Y-108710840D02*
X32994819Y-108806078D01*
X32994819Y-108806078D02*
X32994819Y-108996554D01*
X32994819Y-108996554D02*
X32947200Y-109091792D01*
X32947200Y-109091792D02*
X32851961Y-109187030D01*
X32851961Y-109187030D02*
X32661485Y-109234649D01*
X32661485Y-109234649D02*
X32328152Y-109234649D01*
X32328152Y-109234649D02*
X32137676Y-109187030D01*
X32137676Y-109187030D02*
X32042438Y-109091792D01*
X32042438Y-109091792D02*
X31994819Y-108996554D01*
X32994819Y-107615602D02*
X32994819Y-108187030D01*
X32994819Y-107901316D02*
X31994819Y-107901316D01*
X31994819Y-107901316D02*
X32137676Y-107996554D01*
X32137676Y-107996554D02*
X32232914Y-108091792D01*
X32232914Y-108091792D02*
X32280533Y-108187030D01*
X31994819Y-106996554D02*
X31994819Y-106901316D01*
X31994819Y-106901316D02*
X32042438Y-106806078D01*
X32042438Y-106806078D02*
X32090057Y-106758459D01*
X32090057Y-106758459D02*
X32185295Y-106710840D01*
X32185295Y-106710840D02*
X32375771Y-106663221D01*
X32375771Y-106663221D02*
X32613866Y-106663221D01*
X32613866Y-106663221D02*
X32804342Y-106710840D01*
X32804342Y-106710840D02*
X32899580Y-106758459D01*
X32899580Y-106758459D02*
X32947200Y-106806078D01*
X32947200Y-106806078D02*
X32994819Y-106901316D01*
X32994819Y-106901316D02*
X32994819Y-106996554D01*
X32994819Y-106996554D02*
X32947200Y-107091792D01*
X32947200Y-107091792D02*
X32899580Y-107139411D01*
X32899580Y-107139411D02*
X32804342Y-107187030D01*
X32804342Y-107187030D02*
X32613866Y-107234649D01*
X32613866Y-107234649D02*
X32375771Y-107234649D01*
X32375771Y-107234649D02*
X32185295Y-107187030D01*
X32185295Y-107187030D02*
X32090057Y-107139411D01*
X32090057Y-107139411D02*
X32042438Y-107091792D01*
X32042438Y-107091792D02*
X31994819Y-106996554D01*
X34582438Y-117259412D02*
X34534819Y-117354650D01*
X34534819Y-117354650D02*
X34534819Y-117497507D01*
X34534819Y-117497507D02*
X34582438Y-117640364D01*
X34582438Y-117640364D02*
X34677676Y-117735602D01*
X34677676Y-117735602D02*
X34772914Y-117783221D01*
X34772914Y-117783221D02*
X34963390Y-117830840D01*
X34963390Y-117830840D02*
X35106247Y-117830840D01*
X35106247Y-117830840D02*
X35296723Y-117783221D01*
X35296723Y-117783221D02*
X35391961Y-117735602D01*
X35391961Y-117735602D02*
X35487200Y-117640364D01*
X35487200Y-117640364D02*
X35534819Y-117497507D01*
X35534819Y-117497507D02*
X35534819Y-117402269D01*
X35534819Y-117402269D02*
X35487200Y-117259412D01*
X35487200Y-117259412D02*
X35439580Y-117211793D01*
X35439580Y-117211793D02*
X35106247Y-117211793D01*
X35106247Y-117211793D02*
X35106247Y-117402269D01*
X35534819Y-116783221D02*
X34534819Y-116783221D01*
X34534819Y-116783221D02*
X34534819Y-116402269D01*
X34534819Y-116402269D02*
X34582438Y-116307031D01*
X34582438Y-116307031D02*
X34630057Y-116259412D01*
X34630057Y-116259412D02*
X34725295Y-116211793D01*
X34725295Y-116211793D02*
X34868152Y-116211793D01*
X34868152Y-116211793D02*
X34963390Y-116259412D01*
X34963390Y-116259412D02*
X35011009Y-116307031D01*
X35011009Y-116307031D02*
X35058628Y-116402269D01*
X35058628Y-116402269D02*
X35058628Y-116783221D01*
X35534819Y-115783221D02*
X34534819Y-115783221D01*
X34534819Y-115116555D02*
X34534819Y-114926079D01*
X34534819Y-114926079D02*
X34582438Y-114830841D01*
X34582438Y-114830841D02*
X34677676Y-114735603D01*
X34677676Y-114735603D02*
X34868152Y-114687984D01*
X34868152Y-114687984D02*
X35201485Y-114687984D01*
X35201485Y-114687984D02*
X35391961Y-114735603D01*
X35391961Y-114735603D02*
X35487200Y-114830841D01*
X35487200Y-114830841D02*
X35534819Y-114926079D01*
X35534819Y-114926079D02*
X35534819Y-115116555D01*
X35534819Y-115116555D02*
X35487200Y-115211793D01*
X35487200Y-115211793D02*
X35391961Y-115307031D01*
X35391961Y-115307031D02*
X35201485Y-115354650D01*
X35201485Y-115354650D02*
X34868152Y-115354650D01*
X34868152Y-115354650D02*
X34677676Y-115307031D01*
X34677676Y-115307031D02*
X34582438Y-115211793D01*
X34582438Y-115211793D02*
X34534819Y-115116555D01*
X34868152Y-113830841D02*
X35534819Y-113830841D01*
X34487200Y-114068936D02*
X35201485Y-114307031D01*
X35201485Y-114307031D02*
X35201485Y-113687984D01*
X32042438Y-117259412D02*
X31994819Y-117354650D01*
X31994819Y-117354650D02*
X31994819Y-117497507D01*
X31994819Y-117497507D02*
X32042438Y-117640364D01*
X32042438Y-117640364D02*
X32137676Y-117735602D01*
X32137676Y-117735602D02*
X32232914Y-117783221D01*
X32232914Y-117783221D02*
X32423390Y-117830840D01*
X32423390Y-117830840D02*
X32566247Y-117830840D01*
X32566247Y-117830840D02*
X32756723Y-117783221D01*
X32756723Y-117783221D02*
X32851961Y-117735602D01*
X32851961Y-117735602D02*
X32947200Y-117640364D01*
X32947200Y-117640364D02*
X32994819Y-117497507D01*
X32994819Y-117497507D02*
X32994819Y-117402269D01*
X32994819Y-117402269D02*
X32947200Y-117259412D01*
X32947200Y-117259412D02*
X32899580Y-117211793D01*
X32899580Y-117211793D02*
X32566247Y-117211793D01*
X32566247Y-117211793D02*
X32566247Y-117402269D01*
X32994819Y-116783221D02*
X31994819Y-116783221D01*
X31994819Y-116783221D02*
X31994819Y-116402269D01*
X31994819Y-116402269D02*
X32042438Y-116307031D01*
X32042438Y-116307031D02*
X32090057Y-116259412D01*
X32090057Y-116259412D02*
X32185295Y-116211793D01*
X32185295Y-116211793D02*
X32328152Y-116211793D01*
X32328152Y-116211793D02*
X32423390Y-116259412D01*
X32423390Y-116259412D02*
X32471009Y-116307031D01*
X32471009Y-116307031D02*
X32518628Y-116402269D01*
X32518628Y-116402269D02*
X32518628Y-116783221D01*
X32994819Y-115783221D02*
X31994819Y-115783221D01*
X31994819Y-115116555D02*
X31994819Y-114926079D01*
X31994819Y-114926079D02*
X32042438Y-114830841D01*
X32042438Y-114830841D02*
X32137676Y-114735603D01*
X32137676Y-114735603D02*
X32328152Y-114687984D01*
X32328152Y-114687984D02*
X32661485Y-114687984D01*
X32661485Y-114687984D02*
X32851961Y-114735603D01*
X32851961Y-114735603D02*
X32947200Y-114830841D01*
X32947200Y-114830841D02*
X32994819Y-114926079D01*
X32994819Y-114926079D02*
X32994819Y-115116555D01*
X32994819Y-115116555D02*
X32947200Y-115211793D01*
X32947200Y-115211793D02*
X32851961Y-115307031D01*
X32851961Y-115307031D02*
X32661485Y-115354650D01*
X32661485Y-115354650D02*
X32328152Y-115354650D01*
X32328152Y-115354650D02*
X32137676Y-115307031D01*
X32137676Y-115307031D02*
X32042438Y-115211793D01*
X32042438Y-115211793D02*
X31994819Y-115116555D01*
X31994819Y-114354650D02*
X31994819Y-113735603D01*
X31994819Y-113735603D02*
X32375771Y-114068936D01*
X32375771Y-114068936D02*
X32375771Y-113926079D01*
X32375771Y-113926079D02*
X32423390Y-113830841D01*
X32423390Y-113830841D02*
X32471009Y-113783222D01*
X32471009Y-113783222D02*
X32566247Y-113735603D01*
X32566247Y-113735603D02*
X32804342Y-113735603D01*
X32804342Y-113735603D02*
X32899580Y-113783222D01*
X32899580Y-113783222D02*
X32947200Y-113830841D01*
X32947200Y-113830841D02*
X32994819Y-113926079D01*
X32994819Y-113926079D02*
X32994819Y-114211793D01*
X32994819Y-114211793D02*
X32947200Y-114307031D01*
X32947200Y-114307031D02*
X32899580Y-114354650D01*
X24374819Y-118108458D02*
X24374819Y-117489411D01*
X24374819Y-117489411D02*
X24755771Y-117822744D01*
X24755771Y-117822744D02*
X24755771Y-117679887D01*
X24755771Y-117679887D02*
X24803390Y-117584649D01*
X24803390Y-117584649D02*
X24851009Y-117537030D01*
X24851009Y-117537030D02*
X24946247Y-117489411D01*
X24946247Y-117489411D02*
X25184342Y-117489411D01*
X25184342Y-117489411D02*
X25279580Y-117537030D01*
X25279580Y-117537030D02*
X25327200Y-117584649D01*
X25327200Y-117584649D02*
X25374819Y-117679887D01*
X25374819Y-117679887D02*
X25374819Y-117965601D01*
X25374819Y-117965601D02*
X25327200Y-118060839D01*
X25327200Y-118060839D02*
X25279580Y-118108458D01*
X24374819Y-117203696D02*
X25374819Y-116870363D01*
X25374819Y-116870363D02*
X24374819Y-116537030D01*
X24374819Y-116298934D02*
X24374819Y-115679887D01*
X24374819Y-115679887D02*
X24755771Y-116013220D01*
X24755771Y-116013220D02*
X24755771Y-115870363D01*
X24755771Y-115870363D02*
X24803390Y-115775125D01*
X24803390Y-115775125D02*
X24851009Y-115727506D01*
X24851009Y-115727506D02*
X24946247Y-115679887D01*
X24946247Y-115679887D02*
X25184342Y-115679887D01*
X25184342Y-115679887D02*
X25279580Y-115727506D01*
X25279580Y-115727506D02*
X25327200Y-115775125D01*
X25327200Y-115775125D02*
X25374819Y-115870363D01*
X25374819Y-115870363D02*
X25374819Y-116156077D01*
X25374819Y-116156077D02*
X25327200Y-116251315D01*
X25327200Y-116251315D02*
X25279580Y-116298934D01*
X24422438Y-111139411D02*
X24374819Y-111234649D01*
X24374819Y-111234649D02*
X24374819Y-111377506D01*
X24374819Y-111377506D02*
X24422438Y-111520363D01*
X24422438Y-111520363D02*
X24517676Y-111615601D01*
X24517676Y-111615601D02*
X24612914Y-111663220D01*
X24612914Y-111663220D02*
X24803390Y-111710839D01*
X24803390Y-111710839D02*
X24946247Y-111710839D01*
X24946247Y-111710839D02*
X25136723Y-111663220D01*
X25136723Y-111663220D02*
X25231961Y-111615601D01*
X25231961Y-111615601D02*
X25327200Y-111520363D01*
X25327200Y-111520363D02*
X25374819Y-111377506D01*
X25374819Y-111377506D02*
X25374819Y-111282268D01*
X25374819Y-111282268D02*
X25327200Y-111139411D01*
X25327200Y-111139411D02*
X25279580Y-111091792D01*
X25279580Y-111091792D02*
X24946247Y-111091792D01*
X24946247Y-111091792D02*
X24946247Y-111282268D01*
X25374819Y-110663220D02*
X24374819Y-110663220D01*
X24374819Y-110663220D02*
X24374819Y-110282268D01*
X24374819Y-110282268D02*
X24422438Y-110187030D01*
X24422438Y-110187030D02*
X24470057Y-110139411D01*
X24470057Y-110139411D02*
X24565295Y-110091792D01*
X24565295Y-110091792D02*
X24708152Y-110091792D01*
X24708152Y-110091792D02*
X24803390Y-110139411D01*
X24803390Y-110139411D02*
X24851009Y-110187030D01*
X24851009Y-110187030D02*
X24898628Y-110282268D01*
X24898628Y-110282268D02*
X24898628Y-110663220D01*
X25374819Y-109663220D02*
X24374819Y-109663220D01*
X24374819Y-108996554D02*
X24374819Y-108806078D01*
X24374819Y-108806078D02*
X24422438Y-108710840D01*
X24422438Y-108710840D02*
X24517676Y-108615602D01*
X24517676Y-108615602D02*
X24708152Y-108567983D01*
X24708152Y-108567983D02*
X25041485Y-108567983D01*
X25041485Y-108567983D02*
X25231961Y-108615602D01*
X25231961Y-108615602D02*
X25327200Y-108710840D01*
X25327200Y-108710840D02*
X25374819Y-108806078D01*
X25374819Y-108806078D02*
X25374819Y-108996554D01*
X25374819Y-108996554D02*
X25327200Y-109091792D01*
X25327200Y-109091792D02*
X25231961Y-109187030D01*
X25231961Y-109187030D02*
X25041485Y-109234649D01*
X25041485Y-109234649D02*
X24708152Y-109234649D01*
X24708152Y-109234649D02*
X24517676Y-109187030D01*
X24517676Y-109187030D02*
X24422438Y-109091792D01*
X24422438Y-109091792D02*
X24374819Y-108996554D01*
X25374819Y-107615602D02*
X25374819Y-108187030D01*
X25374819Y-107901316D02*
X24374819Y-107901316D01*
X24374819Y-107901316D02*
X24517676Y-107996554D01*
X24517676Y-107996554D02*
X24612914Y-108091792D01*
X24612914Y-108091792D02*
X24660533Y-108187030D01*
X24374819Y-107282268D02*
X24374819Y-106663221D01*
X24374819Y-106663221D02*
X24755771Y-106996554D01*
X24755771Y-106996554D02*
X24755771Y-106853697D01*
X24755771Y-106853697D02*
X24803390Y-106758459D01*
X24803390Y-106758459D02*
X24851009Y-106710840D01*
X24851009Y-106710840D02*
X24946247Y-106663221D01*
X24946247Y-106663221D02*
X25184342Y-106663221D01*
X25184342Y-106663221D02*
X25279580Y-106710840D01*
X25279580Y-106710840D02*
X25327200Y-106758459D01*
X25327200Y-106758459D02*
X25374819Y-106853697D01*
X25374819Y-106853697D02*
X25374819Y-107139411D01*
X25374819Y-107139411D02*
X25327200Y-107234649D01*
X25327200Y-107234649D02*
X25279580Y-107282268D01*
X37122438Y-117259412D02*
X37074819Y-117354650D01*
X37074819Y-117354650D02*
X37074819Y-117497507D01*
X37074819Y-117497507D02*
X37122438Y-117640364D01*
X37122438Y-117640364D02*
X37217676Y-117735602D01*
X37217676Y-117735602D02*
X37312914Y-117783221D01*
X37312914Y-117783221D02*
X37503390Y-117830840D01*
X37503390Y-117830840D02*
X37646247Y-117830840D01*
X37646247Y-117830840D02*
X37836723Y-117783221D01*
X37836723Y-117783221D02*
X37931961Y-117735602D01*
X37931961Y-117735602D02*
X38027200Y-117640364D01*
X38027200Y-117640364D02*
X38074819Y-117497507D01*
X38074819Y-117497507D02*
X38074819Y-117402269D01*
X38074819Y-117402269D02*
X38027200Y-117259412D01*
X38027200Y-117259412D02*
X37979580Y-117211793D01*
X37979580Y-117211793D02*
X37646247Y-117211793D01*
X37646247Y-117211793D02*
X37646247Y-117402269D01*
X38074819Y-116783221D02*
X37074819Y-116783221D01*
X37074819Y-116783221D02*
X37074819Y-116402269D01*
X37074819Y-116402269D02*
X37122438Y-116307031D01*
X37122438Y-116307031D02*
X37170057Y-116259412D01*
X37170057Y-116259412D02*
X37265295Y-116211793D01*
X37265295Y-116211793D02*
X37408152Y-116211793D01*
X37408152Y-116211793D02*
X37503390Y-116259412D01*
X37503390Y-116259412D02*
X37551009Y-116307031D01*
X37551009Y-116307031D02*
X37598628Y-116402269D01*
X37598628Y-116402269D02*
X37598628Y-116783221D01*
X38074819Y-115783221D02*
X37074819Y-115783221D01*
X37074819Y-115116555D02*
X37074819Y-114926079D01*
X37074819Y-114926079D02*
X37122438Y-114830841D01*
X37122438Y-114830841D02*
X37217676Y-114735603D01*
X37217676Y-114735603D02*
X37408152Y-114687984D01*
X37408152Y-114687984D02*
X37741485Y-114687984D01*
X37741485Y-114687984D02*
X37931961Y-114735603D01*
X37931961Y-114735603D02*
X38027200Y-114830841D01*
X38027200Y-114830841D02*
X38074819Y-114926079D01*
X38074819Y-114926079D02*
X38074819Y-115116555D01*
X38074819Y-115116555D02*
X38027200Y-115211793D01*
X38027200Y-115211793D02*
X37931961Y-115307031D01*
X37931961Y-115307031D02*
X37741485Y-115354650D01*
X37741485Y-115354650D02*
X37408152Y-115354650D01*
X37408152Y-115354650D02*
X37217676Y-115307031D01*
X37217676Y-115307031D02*
X37122438Y-115211793D01*
X37122438Y-115211793D02*
X37074819Y-115116555D01*
X37074819Y-113783222D02*
X37074819Y-114259412D01*
X37074819Y-114259412D02*
X37551009Y-114307031D01*
X37551009Y-114307031D02*
X37503390Y-114259412D01*
X37503390Y-114259412D02*
X37455771Y-114164174D01*
X37455771Y-114164174D02*
X37455771Y-113926079D01*
X37455771Y-113926079D02*
X37503390Y-113830841D01*
X37503390Y-113830841D02*
X37551009Y-113783222D01*
X37551009Y-113783222D02*
X37646247Y-113735603D01*
X37646247Y-113735603D02*
X37884342Y-113735603D01*
X37884342Y-113735603D02*
X37979580Y-113783222D01*
X37979580Y-113783222D02*
X38027200Y-113830841D01*
X38027200Y-113830841D02*
X38074819Y-113926079D01*
X38074819Y-113926079D02*
X38074819Y-114164174D01*
X38074819Y-114164174D02*
X38027200Y-114259412D01*
X38027200Y-114259412D02*
X37979580Y-114307031D01*
X26962438Y-117489411D02*
X26914819Y-117584649D01*
X26914819Y-117584649D02*
X26914819Y-117727506D01*
X26914819Y-117727506D02*
X26962438Y-117870363D01*
X26962438Y-117870363D02*
X27057676Y-117965601D01*
X27057676Y-117965601D02*
X27152914Y-118013220D01*
X27152914Y-118013220D02*
X27343390Y-118060839D01*
X27343390Y-118060839D02*
X27486247Y-118060839D01*
X27486247Y-118060839D02*
X27676723Y-118013220D01*
X27676723Y-118013220D02*
X27771961Y-117965601D01*
X27771961Y-117965601D02*
X27867200Y-117870363D01*
X27867200Y-117870363D02*
X27914819Y-117727506D01*
X27914819Y-117727506D02*
X27914819Y-117632268D01*
X27914819Y-117632268D02*
X27867200Y-117489411D01*
X27867200Y-117489411D02*
X27819580Y-117441792D01*
X27819580Y-117441792D02*
X27486247Y-117441792D01*
X27486247Y-117441792D02*
X27486247Y-117632268D01*
X27914819Y-117013220D02*
X26914819Y-117013220D01*
X26914819Y-117013220D02*
X26914819Y-116632268D01*
X26914819Y-116632268D02*
X26962438Y-116537030D01*
X26962438Y-116537030D02*
X27010057Y-116489411D01*
X27010057Y-116489411D02*
X27105295Y-116441792D01*
X27105295Y-116441792D02*
X27248152Y-116441792D01*
X27248152Y-116441792D02*
X27343390Y-116489411D01*
X27343390Y-116489411D02*
X27391009Y-116537030D01*
X27391009Y-116537030D02*
X27438628Y-116632268D01*
X27438628Y-116632268D02*
X27438628Y-117013220D01*
X27914819Y-116013220D02*
X26914819Y-116013220D01*
X26914819Y-115346554D02*
X26914819Y-115156078D01*
X26914819Y-115156078D02*
X26962438Y-115060840D01*
X26962438Y-115060840D02*
X27057676Y-114965602D01*
X27057676Y-114965602D02*
X27248152Y-114917983D01*
X27248152Y-114917983D02*
X27581485Y-114917983D01*
X27581485Y-114917983D02*
X27771961Y-114965602D01*
X27771961Y-114965602D02*
X27867200Y-115060840D01*
X27867200Y-115060840D02*
X27914819Y-115156078D01*
X27914819Y-115156078D02*
X27914819Y-115346554D01*
X27914819Y-115346554D02*
X27867200Y-115441792D01*
X27867200Y-115441792D02*
X27771961Y-115537030D01*
X27771961Y-115537030D02*
X27581485Y-115584649D01*
X27581485Y-115584649D02*
X27248152Y-115584649D01*
X27248152Y-115584649D02*
X27057676Y-115537030D01*
X27057676Y-115537030D02*
X26962438Y-115441792D01*
X26962438Y-115441792D02*
X26914819Y-115346554D01*
X27914819Y-113965602D02*
X27914819Y-114537030D01*
X27914819Y-114251316D02*
X26914819Y-114251316D01*
X26914819Y-114251316D02*
X27057676Y-114346554D01*
X27057676Y-114346554D02*
X27152914Y-114441792D01*
X27152914Y-114441792D02*
X27200533Y-114537030D01*
X26962438Y-111139411D02*
X26914819Y-111234649D01*
X26914819Y-111234649D02*
X26914819Y-111377506D01*
X26914819Y-111377506D02*
X26962438Y-111520363D01*
X26962438Y-111520363D02*
X27057676Y-111615601D01*
X27057676Y-111615601D02*
X27152914Y-111663220D01*
X27152914Y-111663220D02*
X27343390Y-111710839D01*
X27343390Y-111710839D02*
X27486247Y-111710839D01*
X27486247Y-111710839D02*
X27676723Y-111663220D01*
X27676723Y-111663220D02*
X27771961Y-111615601D01*
X27771961Y-111615601D02*
X27867200Y-111520363D01*
X27867200Y-111520363D02*
X27914819Y-111377506D01*
X27914819Y-111377506D02*
X27914819Y-111282268D01*
X27914819Y-111282268D02*
X27867200Y-111139411D01*
X27867200Y-111139411D02*
X27819580Y-111091792D01*
X27819580Y-111091792D02*
X27486247Y-111091792D01*
X27486247Y-111091792D02*
X27486247Y-111282268D01*
X27914819Y-110663220D02*
X26914819Y-110663220D01*
X26914819Y-110663220D02*
X26914819Y-110282268D01*
X26914819Y-110282268D02*
X26962438Y-110187030D01*
X26962438Y-110187030D02*
X27010057Y-110139411D01*
X27010057Y-110139411D02*
X27105295Y-110091792D01*
X27105295Y-110091792D02*
X27248152Y-110091792D01*
X27248152Y-110091792D02*
X27343390Y-110139411D01*
X27343390Y-110139411D02*
X27391009Y-110187030D01*
X27391009Y-110187030D02*
X27438628Y-110282268D01*
X27438628Y-110282268D02*
X27438628Y-110663220D01*
X27914819Y-109663220D02*
X26914819Y-109663220D01*
X26914819Y-108996554D02*
X26914819Y-108806078D01*
X26914819Y-108806078D02*
X26962438Y-108710840D01*
X26962438Y-108710840D02*
X27057676Y-108615602D01*
X27057676Y-108615602D02*
X27248152Y-108567983D01*
X27248152Y-108567983D02*
X27581485Y-108567983D01*
X27581485Y-108567983D02*
X27771961Y-108615602D01*
X27771961Y-108615602D02*
X27867200Y-108710840D01*
X27867200Y-108710840D02*
X27914819Y-108806078D01*
X27914819Y-108806078D02*
X27914819Y-108996554D01*
X27914819Y-108996554D02*
X27867200Y-109091792D01*
X27867200Y-109091792D02*
X27771961Y-109187030D01*
X27771961Y-109187030D02*
X27581485Y-109234649D01*
X27581485Y-109234649D02*
X27248152Y-109234649D01*
X27248152Y-109234649D02*
X27057676Y-109187030D01*
X27057676Y-109187030D02*
X26962438Y-109091792D01*
X26962438Y-109091792D02*
X26914819Y-108996554D01*
X27914819Y-107615602D02*
X27914819Y-108187030D01*
X27914819Y-107901316D02*
X26914819Y-107901316D01*
X26914819Y-107901316D02*
X27057676Y-107996554D01*
X27057676Y-107996554D02*
X27152914Y-108091792D01*
X27152914Y-108091792D02*
X27200533Y-108187030D01*
X27010057Y-107234649D02*
X26962438Y-107187030D01*
X26962438Y-107187030D02*
X26914819Y-107091792D01*
X26914819Y-107091792D02*
X26914819Y-106853697D01*
X26914819Y-106853697D02*
X26962438Y-106758459D01*
X26962438Y-106758459D02*
X27010057Y-106710840D01*
X27010057Y-106710840D02*
X27105295Y-106663221D01*
X27105295Y-106663221D02*
X27200533Y-106663221D01*
X27200533Y-106663221D02*
X27343390Y-106710840D01*
X27343390Y-106710840D02*
X27914819Y-107282268D01*
X27914819Y-107282268D02*
X27914819Y-106663221D01*
X39662438Y-117259412D02*
X39614819Y-117354650D01*
X39614819Y-117354650D02*
X39614819Y-117497507D01*
X39614819Y-117497507D02*
X39662438Y-117640364D01*
X39662438Y-117640364D02*
X39757676Y-117735602D01*
X39757676Y-117735602D02*
X39852914Y-117783221D01*
X39852914Y-117783221D02*
X40043390Y-117830840D01*
X40043390Y-117830840D02*
X40186247Y-117830840D01*
X40186247Y-117830840D02*
X40376723Y-117783221D01*
X40376723Y-117783221D02*
X40471961Y-117735602D01*
X40471961Y-117735602D02*
X40567200Y-117640364D01*
X40567200Y-117640364D02*
X40614819Y-117497507D01*
X40614819Y-117497507D02*
X40614819Y-117402269D01*
X40614819Y-117402269D02*
X40567200Y-117259412D01*
X40567200Y-117259412D02*
X40519580Y-117211793D01*
X40519580Y-117211793D02*
X40186247Y-117211793D01*
X40186247Y-117211793D02*
X40186247Y-117402269D01*
X40614819Y-116783221D02*
X39614819Y-116783221D01*
X39614819Y-116783221D02*
X39614819Y-116402269D01*
X39614819Y-116402269D02*
X39662438Y-116307031D01*
X39662438Y-116307031D02*
X39710057Y-116259412D01*
X39710057Y-116259412D02*
X39805295Y-116211793D01*
X39805295Y-116211793D02*
X39948152Y-116211793D01*
X39948152Y-116211793D02*
X40043390Y-116259412D01*
X40043390Y-116259412D02*
X40091009Y-116307031D01*
X40091009Y-116307031D02*
X40138628Y-116402269D01*
X40138628Y-116402269D02*
X40138628Y-116783221D01*
X40614819Y-115783221D02*
X39614819Y-115783221D01*
X39614819Y-115116555D02*
X39614819Y-114926079D01*
X39614819Y-114926079D02*
X39662438Y-114830841D01*
X39662438Y-114830841D02*
X39757676Y-114735603D01*
X39757676Y-114735603D02*
X39948152Y-114687984D01*
X39948152Y-114687984D02*
X40281485Y-114687984D01*
X40281485Y-114687984D02*
X40471961Y-114735603D01*
X40471961Y-114735603D02*
X40567200Y-114830841D01*
X40567200Y-114830841D02*
X40614819Y-114926079D01*
X40614819Y-114926079D02*
X40614819Y-115116555D01*
X40614819Y-115116555D02*
X40567200Y-115211793D01*
X40567200Y-115211793D02*
X40471961Y-115307031D01*
X40471961Y-115307031D02*
X40281485Y-115354650D01*
X40281485Y-115354650D02*
X39948152Y-115354650D01*
X39948152Y-115354650D02*
X39757676Y-115307031D01*
X39757676Y-115307031D02*
X39662438Y-115211793D01*
X39662438Y-115211793D02*
X39614819Y-115116555D01*
X39614819Y-113830841D02*
X39614819Y-114021317D01*
X39614819Y-114021317D02*
X39662438Y-114116555D01*
X39662438Y-114116555D02*
X39710057Y-114164174D01*
X39710057Y-114164174D02*
X39852914Y-114259412D01*
X39852914Y-114259412D02*
X40043390Y-114307031D01*
X40043390Y-114307031D02*
X40424342Y-114307031D01*
X40424342Y-114307031D02*
X40519580Y-114259412D01*
X40519580Y-114259412D02*
X40567200Y-114211793D01*
X40567200Y-114211793D02*
X40614819Y-114116555D01*
X40614819Y-114116555D02*
X40614819Y-113926079D01*
X40614819Y-113926079D02*
X40567200Y-113830841D01*
X40567200Y-113830841D02*
X40519580Y-113783222D01*
X40519580Y-113783222D02*
X40424342Y-113735603D01*
X40424342Y-113735603D02*
X40186247Y-113735603D01*
X40186247Y-113735603D02*
X40091009Y-113783222D01*
X40091009Y-113783222D02*
X40043390Y-113830841D01*
X40043390Y-113830841D02*
X39995771Y-113926079D01*
X39995771Y-113926079D02*
X39995771Y-114116555D01*
X39995771Y-114116555D02*
X40043390Y-114211793D01*
X40043390Y-114211793D02*
X40091009Y-114259412D01*
X40091009Y-114259412D02*
X40186247Y-114307031D01*
X73738095Y-113704819D02*
X73738095Y-112704819D01*
X73738095Y-113181009D02*
X74309523Y-113181009D01*
X74309523Y-113704819D02*
X74309523Y-112704819D01*
X74833333Y-113704819D02*
X75023809Y-113704819D01*
X75023809Y-113704819D02*
X75119047Y-113657200D01*
X75119047Y-113657200D02*
X75166666Y-113609580D01*
X75166666Y-113609580D02*
X75261904Y-113466723D01*
X75261904Y-113466723D02*
X75309523Y-113276247D01*
X75309523Y-113276247D02*
X75309523Y-112895295D01*
X75309523Y-112895295D02*
X75261904Y-112800057D01*
X75261904Y-112800057D02*
X75214285Y-112752438D01*
X75214285Y-112752438D02*
X75119047Y-112704819D01*
X75119047Y-112704819D02*
X74928571Y-112704819D01*
X74928571Y-112704819D02*
X74833333Y-112752438D01*
X74833333Y-112752438D02*
X74785714Y-112800057D01*
X74785714Y-112800057D02*
X74738095Y-112895295D01*
X74738095Y-112895295D02*
X74738095Y-113133390D01*
X74738095Y-113133390D02*
X74785714Y-113228628D01*
X74785714Y-113228628D02*
X74833333Y-113276247D01*
X74833333Y-113276247D02*
X74928571Y-113323866D01*
X74928571Y-113323866D02*
X75119047Y-113323866D01*
X75119047Y-113323866D02*
X75214285Y-113276247D01*
X75214285Y-113276247D02*
X75261904Y-113228628D01*
X75261904Y-113228628D02*
X75309523Y-113133390D01*
X181261905Y-113704819D02*
X181261905Y-112704819D01*
X181261905Y-113181009D02*
X181833333Y-113181009D01*
X181833333Y-113704819D02*
X181833333Y-112704819D01*
X182833333Y-113704819D02*
X182261905Y-113704819D01*
X182547619Y-113704819D02*
X182547619Y-112704819D01*
X182547619Y-112704819D02*
X182452381Y-112847676D01*
X182452381Y-112847676D02*
X182357143Y-112942914D01*
X182357143Y-112942914D02*
X182261905Y-112990533D01*
X183738095Y-112704819D02*
X183261905Y-112704819D01*
X183261905Y-112704819D02*
X183214286Y-113181009D01*
X183214286Y-113181009D02*
X183261905Y-113133390D01*
X183261905Y-113133390D02*
X183357143Y-113085771D01*
X183357143Y-113085771D02*
X183595238Y-113085771D01*
X183595238Y-113085771D02*
X183690476Y-113133390D01*
X183690476Y-113133390D02*
X183738095Y-113181009D01*
X183738095Y-113181009D02*
X183785714Y-113276247D01*
X183785714Y-113276247D02*
X183785714Y-113514342D01*
X183785714Y-113514342D02*
X183738095Y-113609580D01*
X183738095Y-113609580D02*
X183690476Y-113657200D01*
X183690476Y-113657200D02*
X183595238Y-113704819D01*
X183595238Y-113704819D02*
X183357143Y-113704819D01*
X183357143Y-113704819D02*
X183261905Y-113657200D01*
X183261905Y-113657200D02*
X183214286Y-113609580D01*
X127261905Y-113704819D02*
X127261905Y-112704819D01*
X127261905Y-113181009D02*
X127833333Y-113181009D01*
X127833333Y-113704819D02*
X127833333Y-112704819D01*
X128833333Y-113704819D02*
X128261905Y-113704819D01*
X128547619Y-113704819D02*
X128547619Y-112704819D01*
X128547619Y-112704819D02*
X128452381Y-112847676D01*
X128452381Y-112847676D02*
X128357143Y-112942914D01*
X128357143Y-112942914D02*
X128261905Y-112990533D01*
X129690476Y-113038152D02*
X129690476Y-113704819D01*
X129452381Y-112657200D02*
X129214286Y-113371485D01*
X129214286Y-113371485D02*
X129833333Y-113371485D01*
X50333333Y-100179580D02*
X50285714Y-100227200D01*
X50285714Y-100227200D02*
X50142857Y-100274819D01*
X50142857Y-100274819D02*
X50047619Y-100274819D01*
X50047619Y-100274819D02*
X49904762Y-100227200D01*
X49904762Y-100227200D02*
X49809524Y-100131961D01*
X49809524Y-100131961D02*
X49761905Y-100036723D01*
X49761905Y-100036723D02*
X49714286Y-99846247D01*
X49714286Y-99846247D02*
X49714286Y-99703390D01*
X49714286Y-99703390D02*
X49761905Y-99512914D01*
X49761905Y-99512914D02*
X49809524Y-99417676D01*
X49809524Y-99417676D02*
X49904762Y-99322438D01*
X49904762Y-99322438D02*
X50047619Y-99274819D01*
X50047619Y-99274819D02*
X50142857Y-99274819D01*
X50142857Y-99274819D02*
X50285714Y-99322438D01*
X50285714Y-99322438D02*
X50333333Y-99370057D01*
X51190476Y-99274819D02*
X51000000Y-99274819D01*
X51000000Y-99274819D02*
X50904762Y-99322438D01*
X50904762Y-99322438D02*
X50857143Y-99370057D01*
X50857143Y-99370057D02*
X50761905Y-99512914D01*
X50761905Y-99512914D02*
X50714286Y-99703390D01*
X50714286Y-99703390D02*
X50714286Y-100084342D01*
X50714286Y-100084342D02*
X50761905Y-100179580D01*
X50761905Y-100179580D02*
X50809524Y-100227200D01*
X50809524Y-100227200D02*
X50904762Y-100274819D01*
X50904762Y-100274819D02*
X51095238Y-100274819D01*
X51095238Y-100274819D02*
X51190476Y-100227200D01*
X51190476Y-100227200D02*
X51238095Y-100179580D01*
X51238095Y-100179580D02*
X51285714Y-100084342D01*
X51285714Y-100084342D02*
X51285714Y-99846247D01*
X51285714Y-99846247D02*
X51238095Y-99751009D01*
X51238095Y-99751009D02*
X51190476Y-99703390D01*
X51190476Y-99703390D02*
X51095238Y-99655771D01*
X51095238Y-99655771D02*
X50904762Y-99655771D01*
X50904762Y-99655771D02*
X50809524Y-99703390D01*
X50809524Y-99703390D02*
X50761905Y-99751009D01*
X50761905Y-99751009D02*
X50714286Y-99846247D01*
X217261905Y-114704819D02*
X217261905Y-113704819D01*
X217261905Y-114181009D02*
X217833333Y-114181009D01*
X217833333Y-114704819D02*
X217833333Y-113704819D01*
X218833333Y-114704819D02*
X218261905Y-114704819D01*
X218547619Y-114704819D02*
X218547619Y-113704819D01*
X218547619Y-113704819D02*
X218452381Y-113847676D01*
X218452381Y-113847676D02*
X218357143Y-113942914D01*
X218357143Y-113942914D02*
X218261905Y-113990533D01*
X219214286Y-113800057D02*
X219261905Y-113752438D01*
X219261905Y-113752438D02*
X219357143Y-113704819D01*
X219357143Y-113704819D02*
X219595238Y-113704819D01*
X219595238Y-113704819D02*
X219690476Y-113752438D01*
X219690476Y-113752438D02*
X219738095Y-113800057D01*
X219738095Y-113800057D02*
X219785714Y-113895295D01*
X219785714Y-113895295D02*
X219785714Y-113990533D01*
X219785714Y-113990533D02*
X219738095Y-114133390D01*
X219738095Y-114133390D02*
X219166667Y-114704819D01*
X219166667Y-114704819D02*
X219785714Y-114704819D01*
X23333333Y-122179580D02*
X23285714Y-122227200D01*
X23285714Y-122227200D02*
X23142857Y-122274819D01*
X23142857Y-122274819D02*
X23047619Y-122274819D01*
X23047619Y-122274819D02*
X22904762Y-122227200D01*
X22904762Y-122227200D02*
X22809524Y-122131961D01*
X22809524Y-122131961D02*
X22761905Y-122036723D01*
X22761905Y-122036723D02*
X22714286Y-121846247D01*
X22714286Y-121846247D02*
X22714286Y-121703390D01*
X22714286Y-121703390D02*
X22761905Y-121512914D01*
X22761905Y-121512914D02*
X22809524Y-121417676D01*
X22809524Y-121417676D02*
X22904762Y-121322438D01*
X22904762Y-121322438D02*
X23047619Y-121274819D01*
X23047619Y-121274819D02*
X23142857Y-121274819D01*
X23142857Y-121274819D02*
X23285714Y-121322438D01*
X23285714Y-121322438D02*
X23333333Y-121370057D01*
X23714286Y-121370057D02*
X23761905Y-121322438D01*
X23761905Y-121322438D02*
X23857143Y-121274819D01*
X23857143Y-121274819D02*
X24095238Y-121274819D01*
X24095238Y-121274819D02*
X24190476Y-121322438D01*
X24190476Y-121322438D02*
X24238095Y-121370057D01*
X24238095Y-121370057D02*
X24285714Y-121465295D01*
X24285714Y-121465295D02*
X24285714Y-121560533D01*
X24285714Y-121560533D02*
X24238095Y-121703390D01*
X24238095Y-121703390D02*
X23666667Y-122274819D01*
X23666667Y-122274819D02*
X24285714Y-122274819D01*
X57833332Y-112092800D02*
X57690475Y-112045180D01*
X57690475Y-112045180D02*
X57452380Y-112045180D01*
X57452380Y-112045180D02*
X57357142Y-112092800D01*
X57357142Y-112092800D02*
X57309523Y-112140419D01*
X57309523Y-112140419D02*
X57261904Y-112235657D01*
X57261904Y-112235657D02*
X57261904Y-112330895D01*
X57261904Y-112330895D02*
X57309523Y-112426133D01*
X57309523Y-112426133D02*
X57357142Y-112473752D01*
X57357142Y-112473752D02*
X57452380Y-112521371D01*
X57452380Y-112521371D02*
X57642856Y-112568990D01*
X57642856Y-112568990D02*
X57738094Y-112616609D01*
X57738094Y-112616609D02*
X57785713Y-112664228D01*
X57785713Y-112664228D02*
X57833332Y-112759466D01*
X57833332Y-112759466D02*
X57833332Y-112854704D01*
X57833332Y-112854704D02*
X57785713Y-112949942D01*
X57785713Y-112949942D02*
X57738094Y-112997561D01*
X57738094Y-112997561D02*
X57642856Y-113045180D01*
X57642856Y-113045180D02*
X57404761Y-113045180D01*
X57404761Y-113045180D02*
X57261904Y-112997561D01*
X56928570Y-113045180D02*
X56690475Y-112045180D01*
X56690475Y-112045180D02*
X56499999Y-112759466D01*
X56499999Y-112759466D02*
X56309523Y-112045180D01*
X56309523Y-112045180D02*
X56071428Y-113045180D01*
X55642856Y-112045180D02*
X55452380Y-112045180D01*
X55452380Y-112045180D02*
X55357142Y-112092800D01*
X55357142Y-112092800D02*
X55309523Y-112140419D01*
X55309523Y-112140419D02*
X55214285Y-112283276D01*
X55214285Y-112283276D02*
X55166666Y-112473752D01*
X55166666Y-112473752D02*
X55166666Y-112854704D01*
X55166666Y-112854704D02*
X55214285Y-112949942D01*
X55214285Y-112949942D02*
X55261904Y-112997561D01*
X55261904Y-112997561D02*
X55357142Y-113045180D01*
X55357142Y-113045180D02*
X55547618Y-113045180D01*
X55547618Y-113045180D02*
X55642856Y-112997561D01*
X55642856Y-112997561D02*
X55690475Y-112949942D01*
X55690475Y-112949942D02*
X55738094Y-112854704D01*
X55738094Y-112854704D02*
X55738094Y-112616609D01*
X55738094Y-112616609D02*
X55690475Y-112521371D01*
X55690475Y-112521371D02*
X55642856Y-112473752D01*
X55642856Y-112473752D02*
X55547618Y-112426133D01*
X55547618Y-112426133D02*
X55357142Y-112426133D01*
X55357142Y-112426133D02*
X55261904Y-112473752D01*
X55261904Y-112473752D02*
X55214285Y-112521371D01*
X55214285Y-112521371D02*
X55166666Y-112616609D01*
X71044819Y-116047618D02*
X71044819Y-116619046D01*
X71044819Y-116333332D02*
X70044819Y-116333332D01*
X70044819Y-116333332D02*
X70187676Y-116428570D01*
X70187676Y-116428570D02*
X70282914Y-116523808D01*
X70282914Y-116523808D02*
X70330533Y-116619046D01*
X71044819Y-115095237D02*
X71044819Y-115666665D01*
X71044819Y-115380951D02*
X70044819Y-115380951D01*
X70044819Y-115380951D02*
X70187676Y-115476189D01*
X70187676Y-115476189D02*
X70282914Y-115571427D01*
X70282914Y-115571427D02*
X70330533Y-115666665D01*
X70949580Y-114666665D02*
X70997200Y-114619046D01*
X70997200Y-114619046D02*
X71044819Y-114666665D01*
X71044819Y-114666665D02*
X70997200Y-114714284D01*
X70997200Y-114714284D02*
X70949580Y-114666665D01*
X70949580Y-114666665D02*
X71044819Y-114666665D01*
X70140057Y-114238094D02*
X70092438Y-114190475D01*
X70092438Y-114190475D02*
X70044819Y-114095237D01*
X70044819Y-114095237D02*
X70044819Y-113857142D01*
X70044819Y-113857142D02*
X70092438Y-113761904D01*
X70092438Y-113761904D02*
X70140057Y-113714285D01*
X70140057Y-113714285D02*
X70235295Y-113666666D01*
X70235295Y-113666666D02*
X70330533Y-113666666D01*
X70330533Y-113666666D02*
X70473390Y-113714285D01*
X70473390Y-113714285D02*
X71044819Y-114285713D01*
X71044819Y-114285713D02*
X71044819Y-113666666D01*
X70044819Y-113047618D02*
X70044819Y-112952380D01*
X70044819Y-112952380D02*
X70092438Y-112857142D01*
X70092438Y-112857142D02*
X70140057Y-112809523D01*
X70140057Y-112809523D02*
X70235295Y-112761904D01*
X70235295Y-112761904D02*
X70425771Y-112714285D01*
X70425771Y-112714285D02*
X70663866Y-112714285D01*
X70663866Y-112714285D02*
X70854342Y-112761904D01*
X70854342Y-112761904D02*
X70949580Y-112809523D01*
X70949580Y-112809523D02*
X70997200Y-112857142D01*
X70997200Y-112857142D02*
X71044819Y-112952380D01*
X71044819Y-112952380D02*
X71044819Y-113047618D01*
X71044819Y-113047618D02*
X70997200Y-113142856D01*
X70997200Y-113142856D02*
X70949580Y-113190475D01*
X70949580Y-113190475D02*
X70854342Y-113238094D01*
X70854342Y-113238094D02*
X70663866Y-113285713D01*
X70663866Y-113285713D02*
X70425771Y-113285713D01*
X70425771Y-113285713D02*
X70235295Y-113238094D01*
X70235295Y-113238094D02*
X70140057Y-113190475D01*
X70140057Y-113190475D02*
X70092438Y-113142856D01*
X70092438Y-113142856D02*
X70044819Y-113047618D01*
X70044819Y-112095237D02*
X70044819Y-111999999D01*
X70044819Y-111999999D02*
X70092438Y-111904761D01*
X70092438Y-111904761D02*
X70140057Y-111857142D01*
X70140057Y-111857142D02*
X70235295Y-111809523D01*
X70235295Y-111809523D02*
X70425771Y-111761904D01*
X70425771Y-111761904D02*
X70663866Y-111761904D01*
X70663866Y-111761904D02*
X70854342Y-111809523D01*
X70854342Y-111809523D02*
X70949580Y-111857142D01*
X70949580Y-111857142D02*
X70997200Y-111904761D01*
X70997200Y-111904761D02*
X71044819Y-111999999D01*
X71044819Y-111999999D02*
X71044819Y-112095237D01*
X71044819Y-112095237D02*
X70997200Y-112190475D01*
X70997200Y-112190475D02*
X70949580Y-112238094D01*
X70949580Y-112238094D02*
X70854342Y-112285713D01*
X70854342Y-112285713D02*
X70663866Y-112333332D01*
X70663866Y-112333332D02*
X70425771Y-112333332D01*
X70425771Y-112333332D02*
X70235295Y-112285713D01*
X70235295Y-112285713D02*
X70140057Y-112238094D01*
X70140057Y-112238094D02*
X70092438Y-112190475D01*
X70092438Y-112190475D02*
X70044819Y-112095237D01*
X70044819Y-111142856D02*
X70044819Y-111047618D01*
X70044819Y-111047618D02*
X70092438Y-110952380D01*
X70092438Y-110952380D02*
X70140057Y-110904761D01*
X70140057Y-110904761D02*
X70235295Y-110857142D01*
X70235295Y-110857142D02*
X70425771Y-110809523D01*
X70425771Y-110809523D02*
X70663866Y-110809523D01*
X70663866Y-110809523D02*
X70854342Y-110857142D01*
X70854342Y-110857142D02*
X70949580Y-110904761D01*
X70949580Y-110904761D02*
X70997200Y-110952380D01*
X70997200Y-110952380D02*
X71044819Y-111047618D01*
X71044819Y-111047618D02*
X71044819Y-111142856D01*
X71044819Y-111142856D02*
X70997200Y-111238094D01*
X70997200Y-111238094D02*
X70949580Y-111285713D01*
X70949580Y-111285713D02*
X70854342Y-111333332D01*
X70854342Y-111333332D02*
X70663866Y-111380951D01*
X70663866Y-111380951D02*
X70425771Y-111380951D01*
X70425771Y-111380951D02*
X70235295Y-111333332D01*
X70235295Y-111333332D02*
X70140057Y-111285713D01*
X70140057Y-111285713D02*
X70092438Y-111238094D01*
X70092438Y-111238094D02*
X70044819Y-111142856D01*
X71044819Y-109619046D02*
X70378152Y-109619046D01*
X70473390Y-109619046D02*
X70425771Y-109571427D01*
X70425771Y-109571427D02*
X70378152Y-109476189D01*
X70378152Y-109476189D02*
X70378152Y-109333332D01*
X70378152Y-109333332D02*
X70425771Y-109238094D01*
X70425771Y-109238094D02*
X70521009Y-109190475D01*
X70521009Y-109190475D02*
X71044819Y-109190475D01*
X70521009Y-109190475D02*
X70425771Y-109142856D01*
X70425771Y-109142856D02*
X70378152Y-109047618D01*
X70378152Y-109047618D02*
X70378152Y-108904761D01*
X70378152Y-108904761D02*
X70425771Y-108809522D01*
X70425771Y-108809522D02*
X70521009Y-108761903D01*
X70521009Y-108761903D02*
X71044819Y-108761903D01*
X71044819Y-108285713D02*
X70378152Y-108285713D01*
X70473390Y-108285713D02*
X70425771Y-108238094D01*
X70425771Y-108238094D02*
X70378152Y-108142856D01*
X70378152Y-108142856D02*
X70378152Y-107999999D01*
X70378152Y-107999999D02*
X70425771Y-107904761D01*
X70425771Y-107904761D02*
X70521009Y-107857142D01*
X70521009Y-107857142D02*
X71044819Y-107857142D01*
X70521009Y-107857142D02*
X70425771Y-107809523D01*
X70425771Y-107809523D02*
X70378152Y-107714285D01*
X70378152Y-107714285D02*
X70378152Y-107571428D01*
X70378152Y-107571428D02*
X70425771Y-107476189D01*
X70425771Y-107476189D02*
X70521009Y-107428570D01*
X70521009Y-107428570D02*
X71044819Y-107428570D01*
X232690476Y-111407200D02*
X232833333Y-111454819D01*
X232833333Y-111454819D02*
X233071428Y-111454819D01*
X233071428Y-111454819D02*
X233166666Y-111407200D01*
X233166666Y-111407200D02*
X233214285Y-111359580D01*
X233214285Y-111359580D02*
X233261904Y-111264342D01*
X233261904Y-111264342D02*
X233261904Y-111169104D01*
X233261904Y-111169104D02*
X233214285Y-111073866D01*
X233214285Y-111073866D02*
X233166666Y-111026247D01*
X233166666Y-111026247D02*
X233071428Y-110978628D01*
X233071428Y-110978628D02*
X232880952Y-110931009D01*
X232880952Y-110931009D02*
X232785714Y-110883390D01*
X232785714Y-110883390D02*
X232738095Y-110835771D01*
X232738095Y-110835771D02*
X232690476Y-110740533D01*
X232690476Y-110740533D02*
X232690476Y-110645295D01*
X232690476Y-110645295D02*
X232738095Y-110550057D01*
X232738095Y-110550057D02*
X232785714Y-110502438D01*
X232785714Y-110502438D02*
X232880952Y-110454819D01*
X232880952Y-110454819D02*
X233119047Y-110454819D01*
X233119047Y-110454819D02*
X233261904Y-110502438D01*
X233595238Y-110454819D02*
X233833333Y-111454819D01*
X233833333Y-111454819D02*
X234023809Y-110740533D01*
X234023809Y-110740533D02*
X234214285Y-111454819D01*
X234214285Y-111454819D02*
X234452381Y-110454819D01*
X235357142Y-111454819D02*
X234785714Y-111454819D01*
X235071428Y-111454819D02*
X235071428Y-110454819D01*
X235071428Y-110454819D02*
X234976190Y-110597676D01*
X234976190Y-110597676D02*
X234880952Y-110692914D01*
X234880952Y-110692914D02*
X234785714Y-110740533D01*
X235976190Y-110454819D02*
X236071428Y-110454819D01*
X236071428Y-110454819D02*
X236166666Y-110502438D01*
X236166666Y-110502438D02*
X236214285Y-110550057D01*
X236214285Y-110550057D02*
X236261904Y-110645295D01*
X236261904Y-110645295D02*
X236309523Y-110835771D01*
X236309523Y-110835771D02*
X236309523Y-111073866D01*
X236309523Y-111073866D02*
X236261904Y-111264342D01*
X236261904Y-111264342D02*
X236214285Y-111359580D01*
X236214285Y-111359580D02*
X236166666Y-111407200D01*
X236166666Y-111407200D02*
X236071428Y-111454819D01*
X236071428Y-111454819D02*
X235976190Y-111454819D01*
X235976190Y-111454819D02*
X235880952Y-111407200D01*
X235880952Y-111407200D02*
X235833333Y-111359580D01*
X235833333Y-111359580D02*
X235785714Y-111264342D01*
X235785714Y-111264342D02*
X235738095Y-111073866D01*
X235738095Y-111073866D02*
X235738095Y-110835771D01*
X235738095Y-110835771D02*
X235785714Y-110645295D01*
X235785714Y-110645295D02*
X235833333Y-110550057D01*
X235833333Y-110550057D02*
X235880952Y-110502438D01*
X235880952Y-110502438D02*
X235976190Y-110454819D01*
X218564819Y-115547618D02*
X218564819Y-116119046D01*
X218564819Y-115833332D02*
X217564819Y-115833332D01*
X217564819Y-115833332D02*
X217707676Y-115928570D01*
X217707676Y-115928570D02*
X217802914Y-116023808D01*
X217802914Y-116023808D02*
X217850533Y-116119046D01*
X218564819Y-114595237D02*
X218564819Y-115166665D01*
X218564819Y-114880951D02*
X217564819Y-114880951D01*
X217564819Y-114880951D02*
X217707676Y-114976189D01*
X217707676Y-114976189D02*
X217802914Y-115071427D01*
X217802914Y-115071427D02*
X217850533Y-115166665D01*
X218469580Y-114166665D02*
X218517200Y-114119046D01*
X218517200Y-114119046D02*
X218564819Y-114166665D01*
X218564819Y-114166665D02*
X218517200Y-114214284D01*
X218517200Y-114214284D02*
X218469580Y-114166665D01*
X218469580Y-114166665D02*
X218564819Y-114166665D01*
X217660057Y-113738094D02*
X217612438Y-113690475D01*
X217612438Y-113690475D02*
X217564819Y-113595237D01*
X217564819Y-113595237D02*
X217564819Y-113357142D01*
X217564819Y-113357142D02*
X217612438Y-113261904D01*
X217612438Y-113261904D02*
X217660057Y-113214285D01*
X217660057Y-113214285D02*
X217755295Y-113166666D01*
X217755295Y-113166666D02*
X217850533Y-113166666D01*
X217850533Y-113166666D02*
X217993390Y-113214285D01*
X217993390Y-113214285D02*
X218564819Y-113785713D01*
X218564819Y-113785713D02*
X218564819Y-113166666D01*
X217564819Y-112547618D02*
X217564819Y-112452380D01*
X217564819Y-112452380D02*
X217612438Y-112357142D01*
X217612438Y-112357142D02*
X217660057Y-112309523D01*
X217660057Y-112309523D02*
X217755295Y-112261904D01*
X217755295Y-112261904D02*
X217945771Y-112214285D01*
X217945771Y-112214285D02*
X218183866Y-112214285D01*
X218183866Y-112214285D02*
X218374342Y-112261904D01*
X218374342Y-112261904D02*
X218469580Y-112309523D01*
X218469580Y-112309523D02*
X218517200Y-112357142D01*
X218517200Y-112357142D02*
X218564819Y-112452380D01*
X218564819Y-112452380D02*
X218564819Y-112547618D01*
X218564819Y-112547618D02*
X218517200Y-112642856D01*
X218517200Y-112642856D02*
X218469580Y-112690475D01*
X218469580Y-112690475D02*
X218374342Y-112738094D01*
X218374342Y-112738094D02*
X218183866Y-112785713D01*
X218183866Y-112785713D02*
X217945771Y-112785713D01*
X217945771Y-112785713D02*
X217755295Y-112738094D01*
X217755295Y-112738094D02*
X217660057Y-112690475D01*
X217660057Y-112690475D02*
X217612438Y-112642856D01*
X217612438Y-112642856D02*
X217564819Y-112547618D01*
X217564819Y-111595237D02*
X217564819Y-111499999D01*
X217564819Y-111499999D02*
X217612438Y-111404761D01*
X217612438Y-111404761D02*
X217660057Y-111357142D01*
X217660057Y-111357142D02*
X217755295Y-111309523D01*
X217755295Y-111309523D02*
X217945771Y-111261904D01*
X217945771Y-111261904D02*
X218183866Y-111261904D01*
X218183866Y-111261904D02*
X218374342Y-111309523D01*
X218374342Y-111309523D02*
X218469580Y-111357142D01*
X218469580Y-111357142D02*
X218517200Y-111404761D01*
X218517200Y-111404761D02*
X218564819Y-111499999D01*
X218564819Y-111499999D02*
X218564819Y-111595237D01*
X218564819Y-111595237D02*
X218517200Y-111690475D01*
X218517200Y-111690475D02*
X218469580Y-111738094D01*
X218469580Y-111738094D02*
X218374342Y-111785713D01*
X218374342Y-111785713D02*
X218183866Y-111833332D01*
X218183866Y-111833332D02*
X217945771Y-111833332D01*
X217945771Y-111833332D02*
X217755295Y-111785713D01*
X217755295Y-111785713D02*
X217660057Y-111738094D01*
X217660057Y-111738094D02*
X217612438Y-111690475D01*
X217612438Y-111690475D02*
X217564819Y-111595237D01*
X217564819Y-110642856D02*
X217564819Y-110547618D01*
X217564819Y-110547618D02*
X217612438Y-110452380D01*
X217612438Y-110452380D02*
X217660057Y-110404761D01*
X217660057Y-110404761D02*
X217755295Y-110357142D01*
X217755295Y-110357142D02*
X217945771Y-110309523D01*
X217945771Y-110309523D02*
X218183866Y-110309523D01*
X218183866Y-110309523D02*
X218374342Y-110357142D01*
X218374342Y-110357142D02*
X218469580Y-110404761D01*
X218469580Y-110404761D02*
X218517200Y-110452380D01*
X218517200Y-110452380D02*
X218564819Y-110547618D01*
X218564819Y-110547618D02*
X218564819Y-110642856D01*
X218564819Y-110642856D02*
X218517200Y-110738094D01*
X218517200Y-110738094D02*
X218469580Y-110785713D01*
X218469580Y-110785713D02*
X218374342Y-110833332D01*
X218374342Y-110833332D02*
X218183866Y-110880951D01*
X218183866Y-110880951D02*
X217945771Y-110880951D01*
X217945771Y-110880951D02*
X217755295Y-110833332D01*
X217755295Y-110833332D02*
X217660057Y-110785713D01*
X217660057Y-110785713D02*
X217612438Y-110738094D01*
X217612438Y-110738094D02*
X217564819Y-110642856D01*
X218564819Y-109119046D02*
X217898152Y-109119046D01*
X217993390Y-109119046D02*
X217945771Y-109071427D01*
X217945771Y-109071427D02*
X217898152Y-108976189D01*
X217898152Y-108976189D02*
X217898152Y-108833332D01*
X217898152Y-108833332D02*
X217945771Y-108738094D01*
X217945771Y-108738094D02*
X218041009Y-108690475D01*
X218041009Y-108690475D02*
X218564819Y-108690475D01*
X218041009Y-108690475D02*
X217945771Y-108642856D01*
X217945771Y-108642856D02*
X217898152Y-108547618D01*
X217898152Y-108547618D02*
X217898152Y-108404761D01*
X217898152Y-108404761D02*
X217945771Y-108309522D01*
X217945771Y-108309522D02*
X218041009Y-108261903D01*
X218041009Y-108261903D02*
X218564819Y-108261903D01*
X218564819Y-107785713D02*
X217898152Y-107785713D01*
X217993390Y-107785713D02*
X217945771Y-107738094D01*
X217945771Y-107738094D02*
X217898152Y-107642856D01*
X217898152Y-107642856D02*
X217898152Y-107499999D01*
X217898152Y-107499999D02*
X217945771Y-107404761D01*
X217945771Y-107404761D02*
X218041009Y-107357142D01*
X218041009Y-107357142D02*
X218564819Y-107357142D01*
X218041009Y-107357142D02*
X217945771Y-107309523D01*
X217945771Y-107309523D02*
X217898152Y-107214285D01*
X217898152Y-107214285D02*
X217898152Y-107071428D01*
X217898152Y-107071428D02*
X217945771Y-106976189D01*
X217945771Y-106976189D02*
X218041009Y-106928570D01*
X218041009Y-106928570D02*
X218564819Y-106928570D01*
X68039580Y-114166666D02*
X68087200Y-114214285D01*
X68087200Y-114214285D02*
X68134819Y-114357142D01*
X68134819Y-114357142D02*
X68134819Y-114452380D01*
X68134819Y-114452380D02*
X68087200Y-114595237D01*
X68087200Y-114595237D02*
X67991961Y-114690475D01*
X67991961Y-114690475D02*
X67896723Y-114738094D01*
X67896723Y-114738094D02*
X67706247Y-114785713D01*
X67706247Y-114785713D02*
X67563390Y-114785713D01*
X67563390Y-114785713D02*
X67372914Y-114738094D01*
X67372914Y-114738094D02*
X67277676Y-114690475D01*
X67277676Y-114690475D02*
X67182438Y-114595237D01*
X67182438Y-114595237D02*
X67134819Y-114452380D01*
X67134819Y-114452380D02*
X67134819Y-114357142D01*
X67134819Y-114357142D02*
X67182438Y-114214285D01*
X67182438Y-114214285D02*
X67230057Y-114166666D01*
X67134819Y-113833332D02*
X67134819Y-113214285D01*
X67134819Y-113214285D02*
X67515771Y-113547618D01*
X67515771Y-113547618D02*
X67515771Y-113404761D01*
X67515771Y-113404761D02*
X67563390Y-113309523D01*
X67563390Y-113309523D02*
X67611009Y-113261904D01*
X67611009Y-113261904D02*
X67706247Y-113214285D01*
X67706247Y-113214285D02*
X67944342Y-113214285D01*
X67944342Y-113214285D02*
X68039580Y-113261904D01*
X68039580Y-113261904D02*
X68087200Y-113309523D01*
X68087200Y-113309523D02*
X68134819Y-113404761D01*
X68134819Y-113404761D02*
X68134819Y-113690475D01*
X68134819Y-113690475D02*
X68087200Y-113785713D01*
X68087200Y-113785713D02*
X68039580Y-113833332D01*
X64859580Y-110166666D02*
X64907200Y-110214285D01*
X64907200Y-110214285D02*
X64954819Y-110357142D01*
X64954819Y-110357142D02*
X64954819Y-110452380D01*
X64954819Y-110452380D02*
X64907200Y-110595237D01*
X64907200Y-110595237D02*
X64811961Y-110690475D01*
X64811961Y-110690475D02*
X64716723Y-110738094D01*
X64716723Y-110738094D02*
X64526247Y-110785713D01*
X64526247Y-110785713D02*
X64383390Y-110785713D01*
X64383390Y-110785713D02*
X64192914Y-110738094D01*
X64192914Y-110738094D02*
X64097676Y-110690475D01*
X64097676Y-110690475D02*
X64002438Y-110595237D01*
X64002438Y-110595237D02*
X63954819Y-110452380D01*
X63954819Y-110452380D02*
X63954819Y-110357142D01*
X63954819Y-110357142D02*
X64002438Y-110214285D01*
X64002438Y-110214285D02*
X64050057Y-110166666D01*
X64954819Y-109214285D02*
X64954819Y-109785713D01*
X64954819Y-109499999D02*
X63954819Y-109499999D01*
X63954819Y-109499999D02*
X64097676Y-109595237D01*
X64097676Y-109595237D02*
X64192914Y-109690475D01*
X64192914Y-109690475D02*
X64240533Y-109785713D01*
X74791262Y-102749804D02*
X74838881Y-102654566D01*
X74838881Y-102654566D02*
X74838881Y-102511709D01*
X74838881Y-102511709D02*
X74791262Y-102368852D01*
X74791262Y-102368852D02*
X74696024Y-102273614D01*
X74696024Y-102273614D02*
X74600786Y-102225995D01*
X74600786Y-102225995D02*
X74410310Y-102178376D01*
X74410310Y-102178376D02*
X74267453Y-102178376D01*
X74267453Y-102178376D02*
X74076977Y-102225995D01*
X74076977Y-102225995D02*
X73981739Y-102273614D01*
X73981739Y-102273614D02*
X73886501Y-102368852D01*
X73886501Y-102368852D02*
X73838881Y-102511709D01*
X73838881Y-102511709D02*
X73838881Y-102606947D01*
X73838881Y-102606947D02*
X73886501Y-102749804D01*
X73886501Y-102749804D02*
X73934120Y-102797423D01*
X73934120Y-102797423D02*
X74267453Y-102797423D01*
X74267453Y-102797423D02*
X74267453Y-102606947D01*
X74137621Y-107135877D02*
X74137621Y-107897782D01*
X73756668Y-107516829D02*
X74518573Y-107516829D01*
X73776608Y-104218716D02*
X74776608Y-104218716D01*
X74776608Y-104218716D02*
X74776608Y-104456811D01*
X74776608Y-104456811D02*
X74728989Y-104599668D01*
X74728989Y-104599668D02*
X74633751Y-104694906D01*
X74633751Y-104694906D02*
X74538513Y-104742525D01*
X74538513Y-104742525D02*
X74348037Y-104790144D01*
X74348037Y-104790144D02*
X74205180Y-104790144D01*
X74205180Y-104790144D02*
X74014704Y-104742525D01*
X74014704Y-104742525D02*
X73919466Y-104694906D01*
X73919466Y-104694906D02*
X73824228Y-104599668D01*
X73824228Y-104599668D02*
X73776608Y-104456811D01*
X73776608Y-104456811D02*
X73776608Y-104218716D01*
X74776608Y-105409192D02*
X74776608Y-105599668D01*
X74776608Y-105599668D02*
X74728989Y-105694906D01*
X74728989Y-105694906D02*
X74633751Y-105790144D01*
X74633751Y-105790144D02*
X74443275Y-105837763D01*
X74443275Y-105837763D02*
X74109942Y-105837763D01*
X74109942Y-105837763D02*
X73919466Y-105790144D01*
X73919466Y-105790144D02*
X73824228Y-105694906D01*
X73824228Y-105694906D02*
X73776608Y-105599668D01*
X73776608Y-105599668D02*
X73776608Y-105409192D01*
X73776608Y-105409192D02*
X73824228Y-105313954D01*
X73824228Y-105313954D02*
X73919466Y-105218716D01*
X73919466Y-105218716D02*
X74109942Y-105171097D01*
X74109942Y-105171097D02*
X74443275Y-105171097D01*
X74443275Y-105171097D02*
X74633751Y-105218716D01*
X74633751Y-105218716D02*
X74728989Y-105313954D01*
X74728989Y-105313954D02*
X74776608Y-105409192D01*
X224359580Y-114166666D02*
X224407200Y-114214285D01*
X224407200Y-114214285D02*
X224454819Y-114357142D01*
X224454819Y-114357142D02*
X224454819Y-114452380D01*
X224454819Y-114452380D02*
X224407200Y-114595237D01*
X224407200Y-114595237D02*
X224311961Y-114690475D01*
X224311961Y-114690475D02*
X224216723Y-114738094D01*
X224216723Y-114738094D02*
X224026247Y-114785713D01*
X224026247Y-114785713D02*
X223883390Y-114785713D01*
X223883390Y-114785713D02*
X223692914Y-114738094D01*
X223692914Y-114738094D02*
X223597676Y-114690475D01*
X223597676Y-114690475D02*
X223502438Y-114595237D01*
X223502438Y-114595237D02*
X223454819Y-114452380D01*
X223454819Y-114452380D02*
X223454819Y-114357142D01*
X223454819Y-114357142D02*
X223502438Y-114214285D01*
X223502438Y-114214285D02*
X223550057Y-114166666D01*
X223788152Y-113309523D02*
X224454819Y-113309523D01*
X223407200Y-113547618D02*
X224121485Y-113785713D01*
X224121485Y-113785713D02*
X224121485Y-113166666D01*
D11*
X59272936Y-100765000D02*
X59727064Y-100765000D01*
X59272936Y-102235000D02*
X59727064Y-102235000D01*
X44620000Y-104560000D02*
X46380000Y-104560000D01*
X45580000Y-101490000D02*
X44780000Y-101490000D01*
X45580000Y-101490000D02*
X46380000Y-101490000D01*
X44280000Y-101540000D02*
X44040000Y-101210000D01*
X44520000Y-101210000D01*
X44280000Y-101540000D01*
G36*
X44280000Y-101540000D02*
G01*
X44040000Y-101210000D01*
X44520000Y-101210000D01*
X44280000Y-101540000D01*
G37*
X17300000Y-109460000D02*
X18250000Y-109460000D01*
X17300000Y-114540000D02*
X17300000Y-109460000D01*
X18250000Y-103000000D02*
X18250000Y-121000000D01*
X18250000Y-114540000D02*
X17300000Y-114540000D01*
X18250000Y-121000000D02*
X41750000Y-121000000D01*
X41750000Y-103000000D02*
X18250000Y-103000000D01*
X41750000Y-121000000D02*
X41750000Y-103000000D01*
X50238748Y-100765000D02*
X50761252Y-100765000D01*
X50238748Y-102235000D02*
X50761252Y-102235000D01*
X23238748Y-122765000D02*
X23761252Y-122765000D01*
X23238748Y-124235000D02*
X23761252Y-124235000D01*
X49030000Y-105700000D02*
X53930000Y-105700000D01*
X49450000Y-118300000D02*
X49450000Y-105700000D01*
X53930000Y-118300000D02*
X49030000Y-118300000D01*
X55730000Y-112500000D02*
X55730000Y-111500000D01*
X56230000Y-112000000D02*
X55230000Y-112000000D01*
X57530000Y-105700000D02*
X62430000Y-105700000D01*
X57630000Y-118300000D02*
X62430000Y-118300000D01*
X62430000Y-105700000D02*
X62430000Y-108500000D01*
X62430000Y-118300000D02*
X62430000Y-115800000D01*
X62930000Y-116100000D02*
X63230000Y-115800000D01*
X63230000Y-115800000D02*
X63530000Y-116100000D01*
X63530000Y-116100000D02*
X62930000Y-116100000D01*
X59500000Y-112000000D02*
G75*
G02*
X53500000Y-112000000I-3000000J0D01*
G01*
X53500000Y-112000000D02*
G75*
G02*
X59500000Y-112000000I3000000J0D01*
G01*
D10*
X71044819Y-116047618D02*
X71044819Y-116619046D01*
X71044819Y-116333332D02*
X70044819Y-116333332D01*
X70044819Y-116333332D02*
X70187676Y-116428570D01*
X70187676Y-116428570D02*
X70282914Y-116523808D01*
X70282914Y-116523808D02*
X70330533Y-116619046D01*
X71044819Y-115095237D02*
X71044819Y-115666665D01*
X71044819Y-115380951D02*
X70044819Y-115380951D01*
X70044819Y-115380951D02*
X70187676Y-115476189D01*
X70187676Y-115476189D02*
X70282914Y-115571427D01*
X70282914Y-115571427D02*
X70330533Y-115666665D01*
X70949580Y-114666665D02*
X70997200Y-114619046D01*
X70997200Y-114619046D02*
X71044819Y-114666665D01*
X71044819Y-114666665D02*
X70997200Y-114714284D01*
X70997200Y-114714284D02*
X70949580Y-114666665D01*
X70949580Y-114666665D02*
X71044819Y-114666665D01*
X70140057Y-114238094D02*
X70092438Y-114190475D01*
X70092438Y-114190475D02*
X70044819Y-114095237D01*
X70044819Y-114095237D02*
X70044819Y-113857142D01*
X70044819Y-113857142D02*
X70092438Y-113761904D01*
X70092438Y-113761904D02*
X70140057Y-113714285D01*
X70140057Y-113714285D02*
X70235295Y-113666666D01*
X70235295Y-113666666D02*
X70330533Y-113666666D01*
X70330533Y-113666666D02*
X70473390Y-113714285D01*
X70473390Y-113714285D02*
X71044819Y-114285713D01*
X71044819Y-114285713D02*
X71044819Y-113666666D01*
X70044819Y-113047618D02*
X70044819Y-112952380D01*
X70044819Y-112952380D02*
X70092438Y-112857142D01*
X70092438Y-112857142D02*
X70140057Y-112809523D01*
X70140057Y-112809523D02*
X70235295Y-112761904D01*
X70235295Y-112761904D02*
X70425771Y-112714285D01*
X70425771Y-112714285D02*
X70663866Y-112714285D01*
X70663866Y-112714285D02*
X70854342Y-112761904D01*
X70854342Y-112761904D02*
X70949580Y-112809523D01*
X70949580Y-112809523D02*
X70997200Y-112857142D01*
X70997200Y-112857142D02*
X71044819Y-112952380D01*
X71044819Y-112952380D02*
X71044819Y-113047618D01*
X71044819Y-113047618D02*
X70997200Y-113142856D01*
X70997200Y-113142856D02*
X70949580Y-113190475D01*
X70949580Y-113190475D02*
X70854342Y-113238094D01*
X70854342Y-113238094D02*
X70663866Y-113285713D01*
X70663866Y-113285713D02*
X70425771Y-113285713D01*
X70425771Y-113285713D02*
X70235295Y-113238094D01*
X70235295Y-113238094D02*
X70140057Y-113190475D01*
X70140057Y-113190475D02*
X70092438Y-113142856D01*
X70092438Y-113142856D02*
X70044819Y-113047618D01*
X70044819Y-112095237D02*
X70044819Y-111999999D01*
X70044819Y-111999999D02*
X70092438Y-111904761D01*
X70092438Y-111904761D02*
X70140057Y-111857142D01*
X70140057Y-111857142D02*
X70235295Y-111809523D01*
X70235295Y-111809523D02*
X70425771Y-111761904D01*
X70425771Y-111761904D02*
X70663866Y-111761904D01*
X70663866Y-111761904D02*
X70854342Y-111809523D01*
X70854342Y-111809523D02*
X70949580Y-111857142D01*
X70949580Y-111857142D02*
X70997200Y-111904761D01*
X70997200Y-111904761D02*
X71044819Y-111999999D01*
X71044819Y-111999999D02*
X71044819Y-112095237D01*
X71044819Y-112095237D02*
X70997200Y-112190475D01*
X70997200Y-112190475D02*
X70949580Y-112238094D01*
X70949580Y-112238094D02*
X70854342Y-112285713D01*
X70854342Y-112285713D02*
X70663866Y-112333332D01*
X70663866Y-112333332D02*
X70425771Y-112333332D01*
X70425771Y-112333332D02*
X70235295Y-112285713D01*
X70235295Y-112285713D02*
X70140057Y-112238094D01*
X70140057Y-112238094D02*
X70092438Y-112190475D01*
X70092438Y-112190475D02*
X70044819Y-112095237D01*
X70044819Y-111142856D02*
X70044819Y-111047618D01*
X70044819Y-111047618D02*
X70092438Y-110952380D01*
X70092438Y-110952380D02*
X70140057Y-110904761D01*
X70140057Y-110904761D02*
X70235295Y-110857142D01*
X70235295Y-110857142D02*
X70425771Y-110809523D01*
X70425771Y-110809523D02*
X70663866Y-110809523D01*
X70663866Y-110809523D02*
X70854342Y-110857142D01*
X70854342Y-110857142D02*
X70949580Y-110904761D01*
X70949580Y-110904761D02*
X70997200Y-110952380D01*
X70997200Y-110952380D02*
X71044819Y-111047618D01*
X71044819Y-111047618D02*
X71044819Y-111142856D01*
X71044819Y-111142856D02*
X70997200Y-111238094D01*
X70997200Y-111238094D02*
X70949580Y-111285713D01*
X70949580Y-111285713D02*
X70854342Y-111333332D01*
X70854342Y-111333332D02*
X70663866Y-111380951D01*
X70663866Y-111380951D02*
X70425771Y-111380951D01*
X70425771Y-111380951D02*
X70235295Y-111333332D01*
X70235295Y-111333332D02*
X70140057Y-111285713D01*
X70140057Y-111285713D02*
X70092438Y-111238094D01*
X70092438Y-111238094D02*
X70044819Y-111142856D01*
X71044819Y-109619046D02*
X70378152Y-109619046D01*
X70473390Y-109619046D02*
X70425771Y-109571427D01*
X70425771Y-109571427D02*
X70378152Y-109476189D01*
X70378152Y-109476189D02*
X70378152Y-109333332D01*
X70378152Y-109333332D02*
X70425771Y-109238094D01*
X70425771Y-109238094D02*
X70521009Y-109190475D01*
X70521009Y-109190475D02*
X71044819Y-109190475D01*
X70521009Y-109190475D02*
X70425771Y-109142856D01*
X70425771Y-109142856D02*
X70378152Y-109047618D01*
X70378152Y-109047618D02*
X70378152Y-108904761D01*
X70378152Y-108904761D02*
X70425771Y-108809522D01*
X70425771Y-108809522D02*
X70521009Y-108761903D01*
X70521009Y-108761903D02*
X71044819Y-108761903D01*
X71044819Y-108285713D02*
X70378152Y-108285713D01*
X70473390Y-108285713D02*
X70425771Y-108238094D01*
X70425771Y-108238094D02*
X70378152Y-108142856D01*
X70378152Y-108142856D02*
X70378152Y-107999999D01*
X70378152Y-107999999D02*
X70425771Y-107904761D01*
X70425771Y-107904761D02*
X70521009Y-107857142D01*
X70521009Y-107857142D02*
X71044819Y-107857142D01*
X70521009Y-107857142D02*
X70425771Y-107809523D01*
X70425771Y-107809523D02*
X70378152Y-107714285D01*
X70378152Y-107714285D02*
X70378152Y-107571428D01*
X70378152Y-107571428D02*
X70425771Y-107476189D01*
X70425771Y-107476189D02*
X70521009Y-107428570D01*
X70521009Y-107428570D02*
X71044819Y-107428570D01*
D11*
X57000000Y-106400000D02*
X72326420Y-106400000D01*
X57000000Y-117600000D02*
X72326420Y-117600000D01*
X71740000Y-106400000D02*
X71740000Y-117600000D01*
X71740000Y-106400000D02*
X71740000Y-117600000D01*
X71740000Y-106400000D02*
X72326421Y-107526504D01*
X71740000Y-106400000D02*
X71153579Y-107526504D01*
X71740000Y-117600000D02*
X71153579Y-116473496D01*
X71740000Y-117600000D02*
X72326421Y-116473496D01*
X227470000Y-107400000D02*
X228070000Y-107400000D01*
X227770000Y-107700000D02*
X227470000Y-107400000D01*
X228070000Y-107400000D02*
X227770000Y-107700000D01*
X228570000Y-105200000D02*
X228570000Y-107700000D01*
X228570000Y-117800000D02*
X228570000Y-115000000D01*
X233370000Y-105200000D02*
X228570000Y-105200000D01*
X233470000Y-117800000D02*
X228570000Y-117800000D01*
X234770000Y-111500000D02*
X235770000Y-111500000D01*
X235270000Y-111000000D02*
X235270000Y-112000000D01*
X237070000Y-105200000D02*
X241970000Y-105200000D01*
X241550000Y-105200000D02*
X241550000Y-117800000D01*
X241970000Y-117800000D02*
X237070000Y-117800000D01*
X237500000Y-111500000D02*
G75*
G02*
X231500000Y-111500000I-3000000J0D01*
G01*
X231500000Y-111500000D02*
G75*
G02*
X237500000Y-111500000I3000000J0D01*
G01*
D10*
X218564819Y-115547618D02*
X218564819Y-116119046D01*
X218564819Y-115833332D02*
X217564819Y-115833332D01*
X217564819Y-115833332D02*
X217707676Y-115928570D01*
X217707676Y-115928570D02*
X217802914Y-116023808D01*
X217802914Y-116023808D02*
X217850533Y-116119046D01*
X218564819Y-114595237D02*
X218564819Y-115166665D01*
X218564819Y-114880951D02*
X217564819Y-114880951D01*
X217564819Y-114880951D02*
X217707676Y-114976189D01*
X217707676Y-114976189D02*
X217802914Y-115071427D01*
X217802914Y-115071427D02*
X217850533Y-115166665D01*
X218469580Y-114166665D02*
X218517200Y-114119046D01*
X218517200Y-114119046D02*
X218564819Y-114166665D01*
X218564819Y-114166665D02*
X218517200Y-114214284D01*
X218517200Y-114214284D02*
X218469580Y-114166665D01*
X218469580Y-114166665D02*
X218564819Y-114166665D01*
X217660057Y-113738094D02*
X217612438Y-113690475D01*
X217612438Y-113690475D02*
X217564819Y-113595237D01*
X217564819Y-113595237D02*
X217564819Y-113357142D01*
X217564819Y-113357142D02*
X217612438Y-113261904D01*
X217612438Y-113261904D02*
X217660057Y-113214285D01*
X217660057Y-113214285D02*
X217755295Y-113166666D01*
X217755295Y-113166666D02*
X217850533Y-113166666D01*
X217850533Y-113166666D02*
X217993390Y-113214285D01*
X217993390Y-113214285D02*
X218564819Y-113785713D01*
X218564819Y-113785713D02*
X218564819Y-113166666D01*
X217564819Y-112547618D02*
X217564819Y-112452380D01*
X217564819Y-112452380D02*
X217612438Y-112357142D01*
X217612438Y-112357142D02*
X217660057Y-112309523D01*
X217660057Y-112309523D02*
X217755295Y-112261904D01*
X217755295Y-112261904D02*
X217945771Y-112214285D01*
X217945771Y-112214285D02*
X218183866Y-112214285D01*
X218183866Y-112214285D02*
X218374342Y-112261904D01*
X218374342Y-112261904D02*
X218469580Y-112309523D01*
X218469580Y-112309523D02*
X218517200Y-112357142D01*
X218517200Y-112357142D02*
X218564819Y-112452380D01*
X218564819Y-112452380D02*
X218564819Y-112547618D01*
X218564819Y-112547618D02*
X218517200Y-112642856D01*
X218517200Y-112642856D02*
X218469580Y-112690475D01*
X218469580Y-112690475D02*
X218374342Y-112738094D01*
X218374342Y-112738094D02*
X218183866Y-112785713D01*
X218183866Y-112785713D02*
X217945771Y-112785713D01*
X217945771Y-112785713D02*
X217755295Y-112738094D01*
X217755295Y-112738094D02*
X217660057Y-112690475D01*
X217660057Y-112690475D02*
X217612438Y-112642856D01*
X217612438Y-112642856D02*
X217564819Y-112547618D01*
X217564819Y-111595237D02*
X217564819Y-111499999D01*
X217564819Y-111499999D02*
X217612438Y-111404761D01*
X217612438Y-111404761D02*
X217660057Y-111357142D01*
X217660057Y-111357142D02*
X217755295Y-111309523D01*
X217755295Y-111309523D02*
X217945771Y-111261904D01*
X217945771Y-111261904D02*
X218183866Y-111261904D01*
X218183866Y-111261904D02*
X218374342Y-111309523D01*
X218374342Y-111309523D02*
X218469580Y-111357142D01*
X218469580Y-111357142D02*
X218517200Y-111404761D01*
X218517200Y-111404761D02*
X218564819Y-111499999D01*
X218564819Y-111499999D02*
X218564819Y-111595237D01*
X218564819Y-111595237D02*
X218517200Y-111690475D01*
X218517200Y-111690475D02*
X218469580Y-111738094D01*
X218469580Y-111738094D02*
X218374342Y-111785713D01*
X218374342Y-111785713D02*
X218183866Y-111833332D01*
X218183866Y-111833332D02*
X217945771Y-111833332D01*
X217945771Y-111833332D02*
X217755295Y-111785713D01*
X217755295Y-111785713D02*
X217660057Y-111738094D01*
X217660057Y-111738094D02*
X217612438Y-111690475D01*
X217612438Y-111690475D02*
X217564819Y-111595237D01*
X217564819Y-110642856D02*
X217564819Y-110547618D01*
X217564819Y-110547618D02*
X217612438Y-110452380D01*
X217612438Y-110452380D02*
X217660057Y-110404761D01*
X217660057Y-110404761D02*
X217755295Y-110357142D01*
X217755295Y-110357142D02*
X217945771Y-110309523D01*
X217945771Y-110309523D02*
X218183866Y-110309523D01*
X218183866Y-110309523D02*
X218374342Y-110357142D01*
X218374342Y-110357142D02*
X218469580Y-110404761D01*
X218469580Y-110404761D02*
X218517200Y-110452380D01*
X218517200Y-110452380D02*
X218564819Y-110547618D01*
X218564819Y-110547618D02*
X218564819Y-110642856D01*
X218564819Y-110642856D02*
X218517200Y-110738094D01*
X218517200Y-110738094D02*
X218469580Y-110785713D01*
X218469580Y-110785713D02*
X218374342Y-110833332D01*
X218374342Y-110833332D02*
X218183866Y-110880951D01*
X218183866Y-110880951D02*
X217945771Y-110880951D01*
X217945771Y-110880951D02*
X217755295Y-110833332D01*
X217755295Y-110833332D02*
X217660057Y-110785713D01*
X217660057Y-110785713D02*
X217612438Y-110738094D01*
X217612438Y-110738094D02*
X217564819Y-110642856D01*
X218564819Y-109119046D02*
X217898152Y-109119046D01*
X217993390Y-109119046D02*
X217945771Y-109071427D01*
X217945771Y-109071427D02*
X217898152Y-108976189D01*
X217898152Y-108976189D02*
X217898152Y-108833332D01*
X217898152Y-108833332D02*
X217945771Y-108738094D01*
X217945771Y-108738094D02*
X218041009Y-108690475D01*
X218041009Y-108690475D02*
X218564819Y-108690475D01*
X218041009Y-108690475D02*
X217945771Y-108642856D01*
X217945771Y-108642856D02*
X217898152Y-108547618D01*
X217898152Y-108547618D02*
X217898152Y-108404761D01*
X217898152Y-108404761D02*
X217945771Y-108309522D01*
X217945771Y-108309522D02*
X218041009Y-108261903D01*
X218041009Y-108261903D02*
X218564819Y-108261903D01*
X218564819Y-107785713D02*
X217898152Y-107785713D01*
X217993390Y-107785713D02*
X217945771Y-107738094D01*
X217945771Y-107738094D02*
X217898152Y-107642856D01*
X217898152Y-107642856D02*
X217898152Y-107499999D01*
X217898152Y-107499999D02*
X217945771Y-107404761D01*
X217945771Y-107404761D02*
X218041009Y-107357142D01*
X218041009Y-107357142D02*
X218564819Y-107357142D01*
X218041009Y-107357142D02*
X217945771Y-107309523D01*
X217945771Y-107309523D02*
X217898152Y-107214285D01*
X217898152Y-107214285D02*
X217898152Y-107071428D01*
X217898152Y-107071428D02*
X217945771Y-106976189D01*
X217945771Y-106976189D02*
X218041009Y-106928570D01*
X218041009Y-106928570D02*
X218564819Y-106928570D01*
D11*
X234000000Y-117100000D02*
X218673580Y-117100000D01*
X234000000Y-105900000D02*
X218673580Y-105900000D01*
X219260000Y-117100000D02*
X219260000Y-105900000D01*
X219260000Y-117100000D02*
X219260000Y-105900000D01*
X219260000Y-117100000D02*
X218673579Y-115973496D01*
X219260000Y-117100000D02*
X219846421Y-115973496D01*
X219260000Y-105900000D02*
X219846421Y-107026504D01*
X219260000Y-105900000D02*
X218673579Y-107026504D01*
X65265000Y-113738748D02*
X65265000Y-114261252D01*
X66735000Y-113738748D02*
X66735000Y-114261252D01*
X65265000Y-109738748D02*
X65265000Y-110261252D01*
X66735000Y-109738748D02*
X66735000Y-110261252D01*
X224765000Y-110261252D02*
X224765000Y-109738748D01*
X226235000Y-110261252D02*
X226235000Y-109738748D01*
X75250000Y-100000000D02*
X75250000Y-110000000D01*
X75250000Y-110000000D02*
X81750000Y-110000000D01*
D12*
X75710000Y-97380000D02*
X80790000Y-97380000D01*
X80790000Y-97380000D02*
X79375786Y-95965786D01*
X80790000Y-97380000D02*
X79375786Y-98794214D01*
D11*
X81750000Y-100000000D02*
X75250000Y-100000000D01*
X81750000Y-110000000D02*
X81750000Y-100000000D01*
X224765000Y-114261252D02*
X224765000Y-113738748D01*
X226235000Y-114261252D02*
X226235000Y-113738748D01*
%LPC*%
D13*
X58500000Y-101500000D03*
X60500000Y-101500000D03*
D14*
X110500000Y-118000000D03*
X92500000Y-118000000D03*
X164500000Y-118000000D03*
X146500000Y-118000000D03*
D15*
X239000000Y-102000000D03*
D14*
X200500000Y-118000000D03*
D16*
X43790000Y-102050000D03*
X43790000Y-103000000D03*
X43790000Y-103950000D03*
X47210000Y-103950000D03*
X47210000Y-102050000D03*
D15*
X239000000Y-120500000D03*
D17*
X19840000Y-119620000D03*
X22380000Y-119620000D03*
X24920000Y-119620000D03*
X27460000Y-119620000D03*
X30000000Y-119620000D03*
X32540000Y-119620000D03*
X35080000Y-119620000D03*
X37620000Y-119620000D03*
X40160000Y-119620000D03*
D18*
X40160000Y-104380000D03*
X37620000Y-104380000D03*
X35080000Y-104380000D03*
X32540000Y-104380000D03*
X30000000Y-104380000D03*
X27460000Y-104380000D03*
X24920000Y-104380000D03*
X22380000Y-104380000D03*
X19840000Y-104380000D03*
D14*
X74500000Y-118000000D03*
X182500000Y-118000000D03*
X128500000Y-118000000D03*
D19*
X49462500Y-101500000D03*
X51537500Y-101500000D03*
D15*
X155000000Y-120500000D03*
D14*
X218500000Y-119000000D03*
D19*
X22462500Y-123500000D03*
X24537500Y-123500000D03*
D20*
X62000000Y-114500000D03*
D21*
X62000000Y-109500000D03*
X62000000Y-112000000D03*
D22*
X56500000Y-117600000D03*
X56500000Y-106400000D03*
D20*
X229000000Y-109000000D03*
D21*
X229000000Y-114000000D03*
X229000000Y-111500000D03*
D22*
X234500000Y-105900000D03*
X234500000Y-117100000D03*
D23*
X66000000Y-112962500D03*
X66000000Y-115037500D03*
D15*
X45500000Y-120500000D03*
X94500000Y-102000000D03*
D23*
X66000000Y-108962500D03*
X66000000Y-111037500D03*
D24*
X225500000Y-111037500D03*
X225500000Y-108962500D03*
D25*
X78750000Y-101750000D03*
X78750000Y-105000000D03*
X78750000Y-108250000D03*
D15*
X155000000Y-102000000D03*
D24*
X225500000Y-115037500D03*
X225500000Y-112962500D03*
%LPD*%
M02*
