G04 #@! TF.GenerationSoftware,KiCad,Pcbnew,7.0.5-0*
G04 #@! TF.CreationDate,2024-12-12T00:25:15-05:00*
G04 #@! TF.ProjectId,ESP32_MIDI_v3.kicad_pro,45535033-325f-44d4-9944-495f76332e6b,rev?*
G04 #@! TF.SameCoordinates,Original*
G04 #@! TF.FileFunction,Soldermask,Bot*
G04 #@! TF.FilePolarity,Negative*
%FSLAX46Y46*%
G04 Gerber Fmt 4.6, Leading zero omitted, Abs format (unit mm)*
G04 Created by KiCad (PCBNEW 7.0.5-0) date 2024-12-12 00:25:15*
%MOMM*%
%LPD*%
G01*
G04 APERTURE LIST*
G04 Aperture macros list*
%AMRoundRect*
0 Rectangle with rounded corners*
0 $1 Rounding radius*
0 $2 $3 $4 $5 $6 $7 $8 $9 X,Y pos of 4 corners*
0 Add a 4 corners polygon primitive as box body*
4,1,4,$2,$3,$4,$5,$6,$7,$8,$9,$2,$3,0*
0 Add four circle primitives for the rounded corners*
1,1,$1+$1,$2,$3*
1,1,$1+$1,$4,$5*
1,1,$1+$1,$6,$7*
1,1,$1+$1,$8,$9*
0 Add four rect primitives between the rounded corners*
20,1,$1+$1,$2,$3,$4,$5,0*
20,1,$1+$1,$4,$5,$6,$7,0*
20,1,$1+$1,$6,$7,$8,$9,0*
20,1,$1+$1,$8,$9,$2,$3,0*%
%AMFreePoly0*
4,1,25,0.515063,3.095106,0.530902,3.095106,0.543715,3.085796,0.558779,3.080902,0.568088,3.068088,0.580902,3.058779,0.585796,3.043715,0.595106,3.030902,0.595106,3.015062,0.600000,3.000000,0.600000,-1.000000,-0.600000,-1.000000,-0.600000,3.000000,-0.595106,3.015062,-0.595106,3.030902,-0.585796,3.043715,-0.580902,3.058779,-0.568088,3.068088,-0.558779,3.080902,-0.543715,3.085796,
-0.530902,3.095106,-0.515063,3.095106,-0.500000,3.100000,0.500000,3.100000,0.515063,3.095106,0.515063,3.095106,$1*%
G04 Aperture macros list end*
%ADD10C,2.340000*%
%ADD11C,3.200000*%
%ADD12FreePoly0,90.000000*%
%ADD13FreePoly0,270.000000*%
%ADD14RoundRect,2.500000X5.000000X2.500000X-5.000000X2.500000X-5.000000X-2.500000X5.000000X-2.500000X0*%
%ADD15R,1.800000X1.800000*%
%ADD16C,1.800000*%
G04 APERTURE END LIST*
D10*
X51000000Y-73000000D03*
X51000000Y-75540000D03*
X51000000Y-78080000D03*
X51000000Y-80620000D03*
X51000000Y-83160000D03*
D11*
X51000000Y-65000000D03*
X30000000Y-45050000D03*
X32000000Y-147000000D03*
X47000000Y-128000000D03*
X37000000Y-174000000D03*
X39922000Y-48000000D03*
X39922000Y-138000000D03*
X39922000Y-156000000D03*
X39922000Y-118000000D03*
X39922000Y-98000000D03*
D12*
X33000000Y-180160000D03*
X33000000Y-177620000D03*
X33000000Y-175080000D03*
X33000000Y-172540000D03*
X33000000Y-170000000D03*
X33000000Y-167460000D03*
X33000000Y-164920000D03*
X33000000Y-162380000D03*
X33000000Y-159840000D03*
D13*
X48240000Y-159840000D03*
X48240000Y-162380000D03*
X48240000Y-164920000D03*
X48240000Y-167460000D03*
X48240000Y-170000000D03*
X48240000Y-172540000D03*
X48240000Y-175080000D03*
X48240000Y-177620000D03*
X48240000Y-180160000D03*
D14*
X39922000Y-48000000D03*
D15*
X51000000Y-33682000D03*
D16*
X51000000Y-35841000D03*
X51000000Y-38000000D03*
X51000000Y-40159000D03*
D11*
X39922000Y-78000000D03*
X39922000Y-56000000D03*
M02*
