G04 #@! TF.GenerationSoftware,KiCad,Pcbnew,7.0.5-0*
G04 #@! TF.CreationDate,2024-12-12T00:25:15-05:00*
G04 #@! TF.ProjectId,ESP32_MIDI_v3.kicad_pro,45535033-325f-44d4-9944-495f76332e6b,rev?*
G04 #@! TF.SameCoordinates,Original*
G04 #@! TF.FileFunction,Legend,Top*
G04 #@! TF.FilePolarity,Positive*
%FSLAX46Y46*%
G04 Gerber Fmt 4.6, Leading zero omitted, Abs format (unit mm)*
G04 Created by KiCad (PCBNEW 7.0.5-0) date 2024-12-12 00:25:15*
%MOMM*%
%LPD*%
G01*
G04 APERTURE LIST*
G04 Aperture macros list*
%AMRoundRect*
0 Rectangle with rounded corners*
0 $1 Rounding radius*
0 $2 $3 $4 $5 $6 $7 $8 $9 X,Y pos of 4 corners*
0 Add a 4 corners polygon primitive as box body*
4,1,4,$2,$3,$4,$5,$6,$7,$8,$9,$2,$3,0*
0 Add four circle primitives for the rounded corners*
1,1,$1+$1,$2,$3*
1,1,$1+$1,$4,$5*
1,1,$1+$1,$6,$7*
1,1,$1+$1,$8,$9*
0 Add four rect primitives between the rounded corners*
20,1,$1+$1,$2,$3,$4,$5,0*
20,1,$1+$1,$4,$5,$6,$7,0*
20,1,$1+$1,$6,$7,$8,$9,0*
20,1,$1+$1,$8,$9,$2,$3,0*%
G04 Aperture macros list end*
%ADD10C,0.200000*%
%ADD11C,0.150000*%
%ADD12C,0.300000*%
%ADD13C,0.120000*%
%ADD14C,2.340000*%
%ADD15RoundRect,0.500000X0.500000X-25.500000X0.500000X25.500000X-0.500000X25.500000X-0.500000X-25.500000X0*%
%ADD16C,3.200000*%
%ADD17RoundRect,1.500000X-6.000000X-1.500000X6.000000X-1.500000X6.000000X1.500000X-6.000000X1.500000X0*%
%ADD18RoundRect,2.500000X-5.000000X-2.500000X5.000000X-2.500000X5.000000X2.500000X-5.000000X2.500000X0*%
%ADD19R,1.800000X1.800000*%
%ADD20C,1.800000*%
G04 APERTURE END LIST*
D10*
X118110000Y-56642000D02*
X120904000Y-56642000D01*
X120904000Y-59182000D01*
X118110000Y-59182000D01*
X118110000Y-56642000D01*
G36*
X118110000Y-56642000D02*
G01*
X120904000Y-56642000D01*
X120904000Y-59182000D01*
X118110000Y-59182000D01*
X118110000Y-56642000D01*
G37*
X176276000Y-54610000D02*
X179070000Y-54610000D01*
X179070000Y-66294000D01*
X176276000Y-66294000D01*
X176276000Y-54610000D01*
X118110000Y-61722000D02*
X120904000Y-61722000D01*
X120904000Y-64262000D01*
X118110000Y-64262000D01*
X118110000Y-61722000D01*
G36*
X118110000Y-61722000D02*
G01*
X120904000Y-61722000D01*
X120904000Y-64262000D01*
X118110000Y-64262000D01*
X118110000Y-61722000D01*
G37*
X173990000Y-54610000D02*
X176276000Y-54610000D01*
X176276000Y-66294000D01*
X173990000Y-66294000D01*
X173990000Y-54610000D01*
G36*
X173990000Y-54610000D02*
G01*
X176276000Y-54610000D01*
X176276000Y-66294000D01*
X173990000Y-66294000D01*
X173990000Y-54610000D01*
G37*
X163830000Y-54102000D02*
X166116000Y-54102000D01*
X166116000Y-65786000D01*
X163830000Y-65786000D01*
X163830000Y-54102000D01*
G36*
X163830000Y-54102000D02*
G01*
X166116000Y-54102000D01*
X166116000Y-65786000D01*
X163830000Y-65786000D01*
X163830000Y-54102000D01*
G37*
X156464000Y-54102000D02*
X159258000Y-54102000D01*
X159258000Y-65786000D01*
X156464000Y-65786000D01*
X156464000Y-54102000D01*
X164592000Y-36460000D02*
X175514000Y-36460000D01*
X175514000Y-39508000D01*
X164592000Y-39508000D01*
X164592000Y-36460000D01*
G36*
X164592000Y-36460000D02*
G01*
X175514000Y-36460000D01*
X175514000Y-39508000D01*
X164592000Y-39508000D01*
X164592000Y-36460000D01*
G37*
X124714000Y-48006000D02*
X127508000Y-48006000D01*
X127508000Y-50546000D01*
X124714000Y-50546000D01*
X124714000Y-48006000D01*
G36*
X124714000Y-48006000D02*
G01*
X127508000Y-48006000D01*
X127508000Y-50546000D01*
X124714000Y-50546000D01*
X124714000Y-48006000D01*
G37*
X154178000Y-54102000D02*
X156464000Y-54102000D01*
X156464000Y-65786000D01*
X154178000Y-65786000D01*
X154178000Y-54102000D01*
G36*
X154178000Y-54102000D02*
G01*
X156464000Y-54102000D01*
X156464000Y-65786000D01*
X154178000Y-65786000D01*
X154178000Y-54102000D01*
G37*
X173482000Y-42418000D02*
X176276000Y-42418000D01*
X176276000Y-44958000D01*
X173482000Y-44958000D01*
X173482000Y-42418000D01*
G36*
X173482000Y-42418000D02*
G01*
X176276000Y-42418000D01*
X176276000Y-44958000D01*
X173482000Y-44958000D01*
X173482000Y-42418000D01*
G37*
X124460000Y-54102000D02*
X126746000Y-54102000D01*
X126746000Y-65786000D01*
X124460000Y-65786000D01*
X124460000Y-54102000D01*
G36*
X124460000Y-54102000D02*
G01*
X126746000Y-54102000D01*
X126746000Y-65786000D01*
X124460000Y-65786000D01*
X124460000Y-54102000D01*
G37*
X126746000Y-54102000D02*
X129540000Y-54102000D01*
X129540000Y-65786000D01*
X126746000Y-65786000D01*
X126746000Y-54102000D01*
X146812000Y-54102000D02*
X149606000Y-54102000D01*
X149606000Y-65786000D01*
X146812000Y-65786000D01*
X146812000Y-54102000D01*
X166116000Y-54102000D02*
X168910000Y-54102000D01*
X168910000Y-65786000D01*
X166116000Y-65786000D01*
X166116000Y-54102000D01*
X136906000Y-53848000D02*
X139700000Y-53848000D01*
X139700000Y-65532000D01*
X136906000Y-65532000D01*
X136906000Y-53848000D01*
X157607000Y-32766000D02*
X161925000Y-32766000D01*
X161925000Y-35306000D01*
X157607000Y-35306000D01*
X157607000Y-32766000D01*
G36*
X157607000Y-32766000D02*
G01*
X161925000Y-32766000D01*
X161925000Y-35306000D01*
X157607000Y-35306000D01*
X157607000Y-32766000D01*
G37*
X144526000Y-54102000D02*
X146812000Y-54102000D01*
X146812000Y-65786000D01*
X144526000Y-65786000D01*
X144526000Y-54102000D01*
G36*
X144526000Y-54102000D02*
G01*
X146812000Y-54102000D01*
X146812000Y-65786000D01*
X144526000Y-65786000D01*
X144526000Y-54102000D01*
G37*
X179070000Y-38862000D02*
X181864000Y-38862000D01*
X181864000Y-41402000D01*
X179070000Y-41402000D01*
X179070000Y-38862000D01*
G36*
X179070000Y-38862000D02*
G01*
X181864000Y-38862000D01*
X181864000Y-41402000D01*
X179070000Y-41402000D01*
X179070000Y-38862000D01*
G37*
X134620000Y-53848000D02*
X136906000Y-53848000D01*
X136906000Y-65532000D01*
X134620000Y-65532000D01*
X134620000Y-53848000D01*
G36*
X134620000Y-53848000D02*
G01*
X136906000Y-53848000D01*
X136906000Y-65532000D01*
X134620000Y-65532000D01*
X134620000Y-53848000D01*
G37*
D11*
X176469922Y-34429819D02*
X176803255Y-35429819D01*
X176803255Y-35429819D02*
X177136588Y-34429819D01*
X177469922Y-35048866D02*
X178231827Y-35048866D01*
X177850874Y-35429819D02*
X177850874Y-34667914D01*
X156245160Y-41129057D02*
X156292779Y-41081438D01*
X156292779Y-41081438D02*
X156388017Y-41033819D01*
X156388017Y-41033819D02*
X156626112Y-41033819D01*
X156626112Y-41033819D02*
X156721350Y-41081438D01*
X156721350Y-41081438D02*
X156768969Y-41129057D01*
X156768969Y-41129057D02*
X156816588Y-41224295D01*
X156816588Y-41224295D02*
X156816588Y-41319533D01*
X156816588Y-41319533D02*
X156768969Y-41462390D01*
X156768969Y-41462390D02*
X156197541Y-42033819D01*
X156197541Y-42033819D02*
X156816588Y-42033819D01*
X122272588Y-50669819D02*
X121701160Y-50669819D01*
X121986874Y-50669819D02*
X121986874Y-49669819D01*
X121986874Y-49669819D02*
X121891636Y-49812676D01*
X121891636Y-49812676D02*
X121796398Y-49907914D01*
X121796398Y-49907914D02*
X121701160Y-49955533D01*
X121193160Y-45542200D02*
X121336017Y-45589819D01*
X121336017Y-45589819D02*
X121574112Y-45589819D01*
X121574112Y-45589819D02*
X121669350Y-45542200D01*
X121669350Y-45542200D02*
X121716969Y-45494580D01*
X121716969Y-45494580D02*
X121764588Y-45399342D01*
X121764588Y-45399342D02*
X121764588Y-45304104D01*
X121764588Y-45304104D02*
X121716969Y-45208866D01*
X121716969Y-45208866D02*
X121669350Y-45161247D01*
X121669350Y-45161247D02*
X121574112Y-45113628D01*
X121574112Y-45113628D02*
X121383636Y-45066009D01*
X121383636Y-45066009D02*
X121288398Y-45018390D01*
X121288398Y-45018390D02*
X121240779Y-44970771D01*
X121240779Y-44970771D02*
X121193160Y-44875533D01*
X121193160Y-44875533D02*
X121193160Y-44780295D01*
X121193160Y-44780295D02*
X121240779Y-44685057D01*
X121240779Y-44685057D02*
X121288398Y-44637438D01*
X121288398Y-44637438D02*
X121383636Y-44589819D01*
X121383636Y-44589819D02*
X121621731Y-44589819D01*
X121621731Y-44589819D02*
X121764588Y-44637438D01*
X122193160Y-45589819D02*
X122193160Y-44923152D01*
X122193160Y-44589819D02*
X122145541Y-44637438D01*
X122145541Y-44637438D02*
X122193160Y-44685057D01*
X122193160Y-44685057D02*
X122240779Y-44637438D01*
X122240779Y-44637438D02*
X122193160Y-44589819D01*
X122193160Y-44589819D02*
X122193160Y-44685057D01*
X123097921Y-44923152D02*
X123097921Y-45732676D01*
X123097921Y-45732676D02*
X123050302Y-45827914D01*
X123050302Y-45827914D02*
X123002683Y-45875533D01*
X123002683Y-45875533D02*
X122907445Y-45923152D01*
X122907445Y-45923152D02*
X122764588Y-45923152D01*
X122764588Y-45923152D02*
X122669350Y-45875533D01*
X123097921Y-45542200D02*
X123002683Y-45589819D01*
X123002683Y-45589819D02*
X122812207Y-45589819D01*
X122812207Y-45589819D02*
X122716969Y-45542200D01*
X122716969Y-45542200D02*
X122669350Y-45494580D01*
X122669350Y-45494580D02*
X122621731Y-45399342D01*
X122621731Y-45399342D02*
X122621731Y-45113628D01*
X122621731Y-45113628D02*
X122669350Y-45018390D01*
X122669350Y-45018390D02*
X122716969Y-44970771D01*
X122716969Y-44970771D02*
X122812207Y-44923152D01*
X122812207Y-44923152D02*
X123002683Y-44923152D01*
X123002683Y-44923152D02*
X123097921Y-44970771D01*
D10*
X175289863Y-52547885D02*
X175175578Y-52490742D01*
X175175578Y-52490742D02*
X175004149Y-52490742D01*
X175004149Y-52490742D02*
X174832720Y-52547885D01*
X174832720Y-52547885D02*
X174718435Y-52662171D01*
X174718435Y-52662171D02*
X174661292Y-52776457D01*
X174661292Y-52776457D02*
X174604149Y-53005028D01*
X174604149Y-53005028D02*
X174604149Y-53176457D01*
X174604149Y-53176457D02*
X174661292Y-53405028D01*
X174661292Y-53405028D02*
X174718435Y-53519314D01*
X174718435Y-53519314D02*
X174832720Y-53633600D01*
X174832720Y-53633600D02*
X175004149Y-53690742D01*
X175004149Y-53690742D02*
X175118435Y-53690742D01*
X175118435Y-53690742D02*
X175289863Y-53633600D01*
X175289863Y-53633600D02*
X175347006Y-53576457D01*
X175347006Y-53576457D02*
X175347006Y-53176457D01*
X175347006Y-53176457D02*
X175118435Y-53176457D01*
D11*
X145577160Y-34874200D02*
X145720017Y-34921819D01*
X145720017Y-34921819D02*
X145958112Y-34921819D01*
X145958112Y-34921819D02*
X146053350Y-34874200D01*
X146053350Y-34874200D02*
X146100969Y-34826580D01*
X146100969Y-34826580D02*
X146148588Y-34731342D01*
X146148588Y-34731342D02*
X146148588Y-34636104D01*
X146148588Y-34636104D02*
X146100969Y-34540866D01*
X146100969Y-34540866D02*
X146053350Y-34493247D01*
X146053350Y-34493247D02*
X145958112Y-34445628D01*
X145958112Y-34445628D02*
X145767636Y-34398009D01*
X145767636Y-34398009D02*
X145672398Y-34350390D01*
X145672398Y-34350390D02*
X145624779Y-34302771D01*
X145624779Y-34302771D02*
X145577160Y-34207533D01*
X145577160Y-34207533D02*
X145577160Y-34112295D01*
X145577160Y-34112295D02*
X145624779Y-34017057D01*
X145624779Y-34017057D02*
X145672398Y-33969438D01*
X145672398Y-33969438D02*
X145767636Y-33921819D01*
X145767636Y-33921819D02*
X146005731Y-33921819D01*
X146005731Y-33921819D02*
X146148588Y-33969438D01*
X147148588Y-34826580D02*
X147100969Y-34874200D01*
X147100969Y-34874200D02*
X146958112Y-34921819D01*
X146958112Y-34921819D02*
X146862874Y-34921819D01*
X146862874Y-34921819D02*
X146720017Y-34874200D01*
X146720017Y-34874200D02*
X146624779Y-34778961D01*
X146624779Y-34778961D02*
X146577160Y-34683723D01*
X146577160Y-34683723D02*
X146529541Y-34493247D01*
X146529541Y-34493247D02*
X146529541Y-34350390D01*
X146529541Y-34350390D02*
X146577160Y-34159914D01*
X146577160Y-34159914D02*
X146624779Y-34064676D01*
X146624779Y-34064676D02*
X146720017Y-33969438D01*
X146720017Y-33969438D02*
X146862874Y-33921819D01*
X146862874Y-33921819D02*
X146958112Y-33921819D01*
X146958112Y-33921819D02*
X147100969Y-33969438D01*
X147100969Y-33969438D02*
X147148588Y-34017057D01*
X148053350Y-34921819D02*
X147577160Y-34921819D01*
X147577160Y-34921819D02*
X147577160Y-33921819D01*
X156721350Y-46447152D02*
X156721350Y-47113819D01*
X156483255Y-46066200D02*
X156245160Y-46780485D01*
X156245160Y-46780485D02*
X156864207Y-46780485D01*
D10*
X127753863Y-52490742D02*
X128153863Y-53690742D01*
X128153863Y-53690742D02*
X128553863Y-52490742D01*
X128953863Y-53233600D02*
X129868149Y-53233600D01*
X129411006Y-53690742D02*
X129411006Y-52776457D01*
X177029863Y-52490742D02*
X177429863Y-53690742D01*
X177429863Y-53690742D02*
X177829863Y-52490742D01*
X178229863Y-53233600D02*
X179144149Y-53233600D01*
X178687006Y-53690742D02*
X178687006Y-52776457D01*
D11*
X156197541Y-43573819D02*
X156816588Y-43573819D01*
X156816588Y-43573819D02*
X156483255Y-43954771D01*
X156483255Y-43954771D02*
X156626112Y-43954771D01*
X156626112Y-43954771D02*
X156721350Y-44002390D01*
X156721350Y-44002390D02*
X156768969Y-44050009D01*
X156768969Y-44050009D02*
X156816588Y-44145247D01*
X156816588Y-44145247D02*
X156816588Y-44383342D01*
X156816588Y-44383342D02*
X156768969Y-44478580D01*
X156768969Y-44478580D02*
X156721350Y-44526200D01*
X156721350Y-44526200D02*
X156626112Y-44573819D01*
X156626112Y-44573819D02*
X156340398Y-44573819D01*
X156340398Y-44573819D02*
X156245160Y-44526200D01*
X156245160Y-44526200D02*
X156197541Y-44478580D01*
D10*
X136173863Y-52039885D02*
X136059578Y-51982742D01*
X136059578Y-51982742D02*
X135888149Y-51982742D01*
X135888149Y-51982742D02*
X135716720Y-52039885D01*
X135716720Y-52039885D02*
X135602435Y-52154171D01*
X135602435Y-52154171D02*
X135545292Y-52268457D01*
X135545292Y-52268457D02*
X135488149Y-52497028D01*
X135488149Y-52497028D02*
X135488149Y-52668457D01*
X135488149Y-52668457D02*
X135545292Y-52897028D01*
X135545292Y-52897028D02*
X135602435Y-53011314D01*
X135602435Y-53011314D02*
X135716720Y-53125600D01*
X135716720Y-53125600D02*
X135888149Y-53182742D01*
X135888149Y-53182742D02*
X136002435Y-53182742D01*
X136002435Y-53182742D02*
X136173863Y-53125600D01*
X136173863Y-53125600D02*
X136231006Y-53068457D01*
X136231006Y-53068457D02*
X136231006Y-52668457D01*
X136231006Y-52668457D02*
X136002435Y-52668457D01*
D11*
X154736969Y-31381819D02*
X154260779Y-31381819D01*
X154260779Y-31381819D02*
X154213160Y-31858009D01*
X154213160Y-31858009D02*
X154260779Y-31810390D01*
X154260779Y-31810390D02*
X154356017Y-31762771D01*
X154356017Y-31762771D02*
X154594112Y-31762771D01*
X154594112Y-31762771D02*
X154689350Y-31810390D01*
X154689350Y-31810390D02*
X154736969Y-31858009D01*
X154736969Y-31858009D02*
X154784588Y-31953247D01*
X154784588Y-31953247D02*
X154784588Y-32191342D01*
X154784588Y-32191342D02*
X154736969Y-32286580D01*
X154736969Y-32286580D02*
X154689350Y-32334200D01*
X154689350Y-32334200D02*
X154594112Y-32381819D01*
X154594112Y-32381819D02*
X154356017Y-32381819D01*
X154356017Y-32381819D02*
X154260779Y-32334200D01*
X154260779Y-32334200D02*
X154213160Y-32286580D01*
X155070303Y-31381819D02*
X155403636Y-32381819D01*
X155403636Y-32381819D02*
X155736969Y-31381819D01*
X121701160Y-52305057D02*
X121748779Y-52257438D01*
X121748779Y-52257438D02*
X121844017Y-52209819D01*
X121844017Y-52209819D02*
X122082112Y-52209819D01*
X122082112Y-52209819D02*
X122177350Y-52257438D01*
X122177350Y-52257438D02*
X122224969Y-52305057D01*
X122224969Y-52305057D02*
X122272588Y-52400295D01*
X122272588Y-52400295D02*
X122272588Y-52495533D01*
X122272588Y-52495533D02*
X122224969Y-52638390D01*
X122224969Y-52638390D02*
X121653541Y-53209819D01*
X121653541Y-53209819D02*
X122272588Y-53209819D01*
X146148588Y-40001819D02*
X145577160Y-40001819D01*
X145862874Y-40001819D02*
X145862874Y-39001819D01*
X145862874Y-39001819D02*
X145767636Y-39144676D01*
X145767636Y-39144676D02*
X145672398Y-39239914D01*
X145672398Y-39239914D02*
X145577160Y-39287533D01*
X146529541Y-39097057D02*
X146577160Y-39049438D01*
X146577160Y-39049438D02*
X146672398Y-39001819D01*
X146672398Y-39001819D02*
X146910493Y-39001819D01*
X146910493Y-39001819D02*
X147005731Y-39049438D01*
X147005731Y-39049438D02*
X147053350Y-39097057D01*
X147053350Y-39097057D02*
X147100969Y-39192295D01*
X147100969Y-39192295D02*
X147100969Y-39287533D01*
X147100969Y-39287533D02*
X147053350Y-39430390D01*
X147053350Y-39430390D02*
X146481922Y-40001819D01*
X146481922Y-40001819D02*
X147100969Y-40001819D01*
D12*
X149269714Y-34086828D02*
X149269714Y-32586828D01*
X149269714Y-32586828D02*
X149555428Y-32586828D01*
X149555428Y-32586828D02*
X149726857Y-32658257D01*
X149726857Y-32658257D02*
X149841142Y-32801114D01*
X149841142Y-32801114D02*
X149898285Y-32943971D01*
X149898285Y-32943971D02*
X149955428Y-33229685D01*
X149955428Y-33229685D02*
X149955428Y-33443971D01*
X149955428Y-33443971D02*
X149898285Y-33729685D01*
X149898285Y-33729685D02*
X149841142Y-33872542D01*
X149841142Y-33872542D02*
X149726857Y-34015400D01*
X149726857Y-34015400D02*
X149555428Y-34086828D01*
X149555428Y-34086828D02*
X149269714Y-34086828D01*
X150469714Y-34086828D02*
X150469714Y-32586828D01*
X150469714Y-32586828D02*
X151155428Y-34086828D01*
X151155428Y-34086828D02*
X151155428Y-32586828D01*
X151726857Y-34086828D02*
X151726857Y-32586828D01*
X151726857Y-32586828D02*
X152184000Y-32586828D01*
X152184000Y-32586828D02*
X152298285Y-32658257D01*
X152298285Y-32658257D02*
X152355428Y-32729685D01*
X152355428Y-32729685D02*
X152412571Y-32872542D01*
X152412571Y-32872542D02*
X152412571Y-33086828D01*
X152412571Y-33086828D02*
X152355428Y-33229685D01*
X152355428Y-33229685D02*
X152298285Y-33301114D01*
X152298285Y-33301114D02*
X152184000Y-33372542D01*
X152184000Y-33372542D02*
X151726857Y-33372542D01*
X152926857Y-33943971D02*
X152984000Y-34015400D01*
X152984000Y-34015400D02*
X152926857Y-34086828D01*
X152926857Y-34086828D02*
X152869714Y-34015400D01*
X152869714Y-34015400D02*
X152926857Y-33943971D01*
X152926857Y-33943971D02*
X152926857Y-34086828D01*
X152926857Y-33515400D02*
X152869714Y-32658257D01*
X152869714Y-32658257D02*
X152926857Y-32586828D01*
X152926857Y-32586828D02*
X152984000Y-32658257D01*
X152984000Y-32658257D02*
X152926857Y-33515400D01*
X152926857Y-33515400D02*
X152926857Y-32586828D01*
X153498286Y-33943971D02*
X153555429Y-34015400D01*
X153555429Y-34015400D02*
X153498286Y-34086828D01*
X153498286Y-34086828D02*
X153441143Y-34015400D01*
X153441143Y-34015400D02*
X153498286Y-33943971D01*
X153498286Y-33943971D02*
X153498286Y-34086828D01*
X153498286Y-33515400D02*
X153441143Y-32658257D01*
X153441143Y-32658257D02*
X153498286Y-32586828D01*
X153498286Y-32586828D02*
X153555429Y-32658257D01*
X153555429Y-32658257D02*
X153498286Y-33515400D01*
X153498286Y-33515400D02*
X153498286Y-32586828D01*
X150984000Y-35001828D02*
X151784000Y-36501828D01*
X151784000Y-35001828D02*
X150984000Y-36501828D01*
X150984000Y-37416828D02*
X151784000Y-38916828D01*
X151784000Y-37416828D02*
X150984000Y-38916828D01*
D10*
X137659863Y-51982742D02*
X138059863Y-53182742D01*
X138059863Y-53182742D02*
X138459863Y-51982742D01*
X138859863Y-52725600D02*
X139774149Y-52725600D01*
X139317006Y-53182742D02*
X139317006Y-52268457D01*
D11*
X145640588Y-42541819D02*
X145069160Y-42541819D01*
X145354874Y-42541819D02*
X145354874Y-41541819D01*
X145354874Y-41541819D02*
X145259636Y-41684676D01*
X145259636Y-41684676D02*
X145164398Y-41779914D01*
X145164398Y-41779914D02*
X145069160Y-41827533D01*
X146592969Y-42541819D02*
X146021541Y-42541819D01*
X146307255Y-42541819D02*
X146307255Y-41541819D01*
X146307255Y-41541819D02*
X146212017Y-41684676D01*
X146212017Y-41684676D02*
X146116779Y-41779914D01*
X146116779Y-41779914D02*
X146021541Y-41827533D01*
X154784588Y-33969438D02*
X154689350Y-33921819D01*
X154689350Y-33921819D02*
X154546493Y-33921819D01*
X154546493Y-33921819D02*
X154403636Y-33969438D01*
X154403636Y-33969438D02*
X154308398Y-34064676D01*
X154308398Y-34064676D02*
X154260779Y-34159914D01*
X154260779Y-34159914D02*
X154213160Y-34350390D01*
X154213160Y-34350390D02*
X154213160Y-34493247D01*
X154213160Y-34493247D02*
X154260779Y-34683723D01*
X154260779Y-34683723D02*
X154308398Y-34778961D01*
X154308398Y-34778961D02*
X154403636Y-34874200D01*
X154403636Y-34874200D02*
X154546493Y-34921819D01*
X154546493Y-34921819D02*
X154641731Y-34921819D01*
X154641731Y-34921819D02*
X154784588Y-34874200D01*
X154784588Y-34874200D02*
X154832207Y-34826580D01*
X154832207Y-34826580D02*
X154832207Y-34493247D01*
X154832207Y-34493247D02*
X154641731Y-34493247D01*
X155260779Y-34921819D02*
X155260779Y-33921819D01*
X155260779Y-33921819D02*
X155832207Y-34921819D01*
X155832207Y-34921819D02*
X155832207Y-33921819D01*
X156308398Y-34921819D02*
X156308398Y-33921819D01*
X156308398Y-33921819D02*
X156546493Y-33921819D01*
X156546493Y-33921819D02*
X156689350Y-33969438D01*
X156689350Y-33969438D02*
X156784588Y-34064676D01*
X156784588Y-34064676D02*
X156832207Y-34159914D01*
X156832207Y-34159914D02*
X156879826Y-34350390D01*
X156879826Y-34350390D02*
X156879826Y-34493247D01*
X156879826Y-34493247D02*
X156832207Y-34683723D01*
X156832207Y-34683723D02*
X156784588Y-34778961D01*
X156784588Y-34778961D02*
X156689350Y-34874200D01*
X156689350Y-34874200D02*
X156546493Y-34921819D01*
X156546493Y-34921819D02*
X156308398Y-34921819D01*
D10*
X126013863Y-52547885D02*
X125899578Y-52490742D01*
X125899578Y-52490742D02*
X125728149Y-52490742D01*
X125728149Y-52490742D02*
X125556720Y-52547885D01*
X125556720Y-52547885D02*
X125442435Y-52662171D01*
X125442435Y-52662171D02*
X125385292Y-52776457D01*
X125385292Y-52776457D02*
X125328149Y-53005028D01*
X125328149Y-53005028D02*
X125328149Y-53176457D01*
X125328149Y-53176457D02*
X125385292Y-53405028D01*
X125385292Y-53405028D02*
X125442435Y-53519314D01*
X125442435Y-53519314D02*
X125556720Y-53633600D01*
X125556720Y-53633600D02*
X125728149Y-53690742D01*
X125728149Y-53690742D02*
X125842435Y-53690742D01*
X125842435Y-53690742D02*
X126013863Y-53633600D01*
X126013863Y-53633600D02*
X126071006Y-53576457D01*
X126071006Y-53576457D02*
X126071006Y-53176457D01*
X126071006Y-53176457D02*
X125842435Y-53176457D01*
D11*
X146148588Y-37461819D02*
X145577160Y-37461819D01*
X145862874Y-37461819D02*
X145862874Y-36461819D01*
X145862874Y-36461819D02*
X145767636Y-36604676D01*
X145767636Y-36604676D02*
X145672398Y-36699914D01*
X145672398Y-36699914D02*
X145577160Y-36747533D01*
X146481922Y-36461819D02*
X147100969Y-36461819D01*
X147100969Y-36461819D02*
X146767636Y-36842771D01*
X146767636Y-36842771D02*
X146910493Y-36842771D01*
X146910493Y-36842771D02*
X147005731Y-36890390D01*
X147005731Y-36890390D02*
X147053350Y-36938009D01*
X147053350Y-36938009D02*
X147100969Y-37033247D01*
X147100969Y-37033247D02*
X147100969Y-37271342D01*
X147100969Y-37271342D02*
X147053350Y-37366580D01*
X147053350Y-37366580D02*
X147005731Y-37414200D01*
X147005731Y-37414200D02*
X146910493Y-37461819D01*
X146910493Y-37461819D02*
X146624779Y-37461819D01*
X146624779Y-37461819D02*
X146529541Y-37414200D01*
X146529541Y-37414200D02*
X146481922Y-37366580D01*
X154165541Y-36461819D02*
X154784588Y-36461819D01*
X154784588Y-36461819D02*
X154451255Y-36842771D01*
X154451255Y-36842771D02*
X154594112Y-36842771D01*
X154594112Y-36842771D02*
X154689350Y-36890390D01*
X154689350Y-36890390D02*
X154736969Y-36938009D01*
X154736969Y-36938009D02*
X154784588Y-37033247D01*
X154784588Y-37033247D02*
X154784588Y-37271342D01*
X154784588Y-37271342D02*
X154736969Y-37366580D01*
X154736969Y-37366580D02*
X154689350Y-37414200D01*
X154689350Y-37414200D02*
X154594112Y-37461819D01*
X154594112Y-37461819D02*
X154308398Y-37461819D01*
X154308398Y-37461819D02*
X154213160Y-37414200D01*
X154213160Y-37414200D02*
X154165541Y-37366580D01*
X155213160Y-37366580D02*
X155260779Y-37414200D01*
X155260779Y-37414200D02*
X155213160Y-37461819D01*
X155213160Y-37461819D02*
X155165541Y-37414200D01*
X155165541Y-37414200D02*
X155213160Y-37366580D01*
X155213160Y-37366580D02*
X155213160Y-37461819D01*
X155594112Y-36461819D02*
X156213159Y-36461819D01*
X156213159Y-36461819D02*
X155879826Y-36842771D01*
X155879826Y-36842771D02*
X156022683Y-36842771D01*
X156022683Y-36842771D02*
X156117921Y-36890390D01*
X156117921Y-36890390D02*
X156165540Y-36938009D01*
X156165540Y-36938009D02*
X156213159Y-37033247D01*
X156213159Y-37033247D02*
X156213159Y-37271342D01*
X156213159Y-37271342D02*
X156165540Y-37366580D01*
X156165540Y-37366580D02*
X156117921Y-37414200D01*
X156117921Y-37414200D02*
X156022683Y-37461819D01*
X156022683Y-37461819D02*
X155736969Y-37461819D01*
X155736969Y-37461819D02*
X155641731Y-37414200D01*
X155641731Y-37414200D02*
X155594112Y-37366580D01*
X156546493Y-36795152D02*
X156784588Y-37461819D01*
X156784588Y-37461819D02*
X157022683Y-36795152D01*
X121748779Y-57766009D02*
X122082112Y-57766009D01*
X122224969Y-58289819D02*
X121748779Y-58289819D01*
X121748779Y-58289819D02*
X121748779Y-57289819D01*
X121748779Y-57289819D02*
X122224969Y-57289819D01*
X122653541Y-57623152D02*
X122653541Y-58289819D01*
X122653541Y-57718390D02*
X122701160Y-57670771D01*
X122701160Y-57670771D02*
X122796398Y-57623152D01*
X122796398Y-57623152D02*
X122939255Y-57623152D01*
X122939255Y-57623152D02*
X123034493Y-57670771D01*
X123034493Y-57670771D02*
X123082112Y-57766009D01*
X123082112Y-57766009D02*
X123082112Y-58289819D01*
X178152588Y-39557438D02*
X178057350Y-39509819D01*
X178057350Y-39509819D02*
X177914493Y-39509819D01*
X177914493Y-39509819D02*
X177771636Y-39557438D01*
X177771636Y-39557438D02*
X177676398Y-39652676D01*
X177676398Y-39652676D02*
X177628779Y-39747914D01*
X177628779Y-39747914D02*
X177581160Y-39938390D01*
X177581160Y-39938390D02*
X177581160Y-40081247D01*
X177581160Y-40081247D02*
X177628779Y-40271723D01*
X177628779Y-40271723D02*
X177676398Y-40366961D01*
X177676398Y-40366961D02*
X177771636Y-40462200D01*
X177771636Y-40462200D02*
X177914493Y-40509819D01*
X177914493Y-40509819D02*
X178009731Y-40509819D01*
X178009731Y-40509819D02*
X178152588Y-40462200D01*
X178152588Y-40462200D02*
X178200207Y-40414580D01*
X178200207Y-40414580D02*
X178200207Y-40081247D01*
X178200207Y-40081247D02*
X178009731Y-40081247D01*
X145577160Y-32334200D02*
X145720017Y-32381819D01*
X145720017Y-32381819D02*
X145958112Y-32381819D01*
X145958112Y-32381819D02*
X146053350Y-32334200D01*
X146053350Y-32334200D02*
X146100969Y-32286580D01*
X146100969Y-32286580D02*
X146148588Y-32191342D01*
X146148588Y-32191342D02*
X146148588Y-32096104D01*
X146148588Y-32096104D02*
X146100969Y-32000866D01*
X146100969Y-32000866D02*
X146053350Y-31953247D01*
X146053350Y-31953247D02*
X145958112Y-31905628D01*
X145958112Y-31905628D02*
X145767636Y-31858009D01*
X145767636Y-31858009D02*
X145672398Y-31810390D01*
X145672398Y-31810390D02*
X145624779Y-31762771D01*
X145624779Y-31762771D02*
X145577160Y-31667533D01*
X145577160Y-31667533D02*
X145577160Y-31572295D01*
X145577160Y-31572295D02*
X145624779Y-31477057D01*
X145624779Y-31477057D02*
X145672398Y-31429438D01*
X145672398Y-31429438D02*
X145767636Y-31381819D01*
X145767636Y-31381819D02*
X146005731Y-31381819D01*
X146005731Y-31381819D02*
X146148588Y-31429438D01*
X147148588Y-32286580D02*
X147100969Y-32334200D01*
X147100969Y-32334200D02*
X146958112Y-32381819D01*
X146958112Y-32381819D02*
X146862874Y-32381819D01*
X146862874Y-32381819D02*
X146720017Y-32334200D01*
X146720017Y-32334200D02*
X146624779Y-32238961D01*
X146624779Y-32238961D02*
X146577160Y-32143723D01*
X146577160Y-32143723D02*
X146529541Y-31953247D01*
X146529541Y-31953247D02*
X146529541Y-31810390D01*
X146529541Y-31810390D02*
X146577160Y-31619914D01*
X146577160Y-31619914D02*
X146624779Y-31524676D01*
X146624779Y-31524676D02*
X146720017Y-31429438D01*
X146720017Y-31429438D02*
X146862874Y-31381819D01*
X146862874Y-31381819D02*
X146958112Y-31381819D01*
X146958112Y-31381819D02*
X147100969Y-31429438D01*
X147100969Y-31429438D02*
X147148588Y-31477057D01*
X148053350Y-32381819D02*
X147577160Y-32381819D01*
X147577160Y-32381819D02*
X147577160Y-31381819D01*
D10*
X170032149Y-53347885D02*
X170603578Y-53347885D01*
X169917863Y-53690742D02*
X170317863Y-52490742D01*
X170317863Y-52490742D02*
X170717863Y-53690742D01*
X171689291Y-52490742D02*
X171117863Y-52490742D01*
X171117863Y-52490742D02*
X171060720Y-53062171D01*
X171060720Y-53062171D02*
X171117863Y-53005028D01*
X171117863Y-53005028D02*
X171232149Y-52947885D01*
X171232149Y-52947885D02*
X171517863Y-52947885D01*
X171517863Y-52947885D02*
X171632149Y-53005028D01*
X171632149Y-53005028D02*
X171689291Y-53062171D01*
X171689291Y-53062171D02*
X171746434Y-53176457D01*
X171746434Y-53176457D02*
X171746434Y-53462171D01*
X171746434Y-53462171D02*
X171689291Y-53576457D01*
X171689291Y-53576457D02*
X171632149Y-53633600D01*
X171632149Y-53633600D02*
X171517863Y-53690742D01*
X171517863Y-53690742D02*
X171232149Y-53690742D01*
X171232149Y-53690742D02*
X171117863Y-53633600D01*
X171117863Y-53633600D02*
X171060720Y-53576457D01*
D11*
X156816588Y-40001819D02*
X156245160Y-40001819D01*
X156530874Y-40001819D02*
X156530874Y-39001819D01*
X156530874Y-39001819D02*
X156435636Y-39144676D01*
X156435636Y-39144676D02*
X156340398Y-39239914D01*
X156340398Y-39239914D02*
X156245160Y-39287533D01*
X178130200Y-43906839D02*
X178177819Y-43763982D01*
X178177819Y-43763982D02*
X178177819Y-43525887D01*
X178177819Y-43525887D02*
X178130200Y-43430649D01*
X178130200Y-43430649D02*
X178082580Y-43383030D01*
X178082580Y-43383030D02*
X177987342Y-43335411D01*
X177987342Y-43335411D02*
X177892104Y-43335411D01*
X177892104Y-43335411D02*
X177796866Y-43383030D01*
X177796866Y-43383030D02*
X177749247Y-43430649D01*
X177749247Y-43430649D02*
X177701628Y-43525887D01*
X177701628Y-43525887D02*
X177654009Y-43716363D01*
X177654009Y-43716363D02*
X177606390Y-43811601D01*
X177606390Y-43811601D02*
X177558771Y-43859220D01*
X177558771Y-43859220D02*
X177463533Y-43906839D01*
X177463533Y-43906839D02*
X177368295Y-43906839D01*
X177368295Y-43906839D02*
X177273057Y-43859220D01*
X177273057Y-43859220D02*
X177225438Y-43811601D01*
X177225438Y-43811601D02*
X177177819Y-43716363D01*
X177177819Y-43716363D02*
X177177819Y-43478268D01*
X177177819Y-43478268D02*
X177225438Y-43335411D01*
X178082580Y-42335411D02*
X178130200Y-42383030D01*
X178130200Y-42383030D02*
X178177819Y-42525887D01*
X178177819Y-42525887D02*
X178177819Y-42621125D01*
X178177819Y-42621125D02*
X178130200Y-42763982D01*
X178130200Y-42763982D02*
X178034961Y-42859220D01*
X178034961Y-42859220D02*
X177939723Y-42906839D01*
X177939723Y-42906839D02*
X177749247Y-42954458D01*
X177749247Y-42954458D02*
X177606390Y-42954458D01*
X177606390Y-42954458D02*
X177415914Y-42906839D01*
X177415914Y-42906839D02*
X177320676Y-42859220D01*
X177320676Y-42859220D02*
X177225438Y-42763982D01*
X177225438Y-42763982D02*
X177177819Y-42621125D01*
X177177819Y-42621125D02*
X177177819Y-42525887D01*
X177177819Y-42525887D02*
X177225438Y-42383030D01*
X177225438Y-42383030D02*
X177273057Y-42335411D01*
X178177819Y-41430649D02*
X178177819Y-41906839D01*
X178177819Y-41906839D02*
X177177819Y-41906839D01*
D10*
X180192149Y-53347885D02*
X180763578Y-53347885D01*
X180077863Y-53690742D02*
X180477863Y-52490742D01*
X180477863Y-52490742D02*
X180877863Y-53690742D01*
X181792149Y-52490742D02*
X181563577Y-52490742D01*
X181563577Y-52490742D02*
X181449291Y-52547885D01*
X181449291Y-52547885D02*
X181392149Y-52605028D01*
X181392149Y-52605028D02*
X181277863Y-52776457D01*
X181277863Y-52776457D02*
X181220720Y-53005028D01*
X181220720Y-53005028D02*
X181220720Y-53462171D01*
X181220720Y-53462171D02*
X181277863Y-53576457D01*
X181277863Y-53576457D02*
X181335006Y-53633600D01*
X181335006Y-53633600D02*
X181449291Y-53690742D01*
X181449291Y-53690742D02*
X181677863Y-53690742D01*
X181677863Y-53690742D02*
X181792149Y-53633600D01*
X181792149Y-53633600D02*
X181849291Y-53576457D01*
X181849291Y-53576457D02*
X181906434Y-53462171D01*
X181906434Y-53462171D02*
X181906434Y-53176457D01*
X181906434Y-53176457D02*
X181849291Y-53062171D01*
X181849291Y-53062171D02*
X181792149Y-53005028D01*
X181792149Y-53005028D02*
X181677863Y-52947885D01*
X181677863Y-52947885D02*
X181449291Y-52947885D01*
X181449291Y-52947885D02*
X181335006Y-53005028D01*
X181335006Y-53005028D02*
X181277863Y-53062171D01*
X181277863Y-53062171D02*
X181220720Y-53176457D01*
D11*
X145640588Y-45081819D02*
X145069160Y-45081819D01*
X145354874Y-45081819D02*
X145354874Y-44081819D01*
X145354874Y-44081819D02*
X145259636Y-44224676D01*
X145259636Y-44224676D02*
X145164398Y-44319914D01*
X145164398Y-44319914D02*
X145069160Y-44367533D01*
X146259636Y-44081819D02*
X146354874Y-44081819D01*
X146354874Y-44081819D02*
X146450112Y-44129438D01*
X146450112Y-44129438D02*
X146497731Y-44177057D01*
X146497731Y-44177057D02*
X146545350Y-44272295D01*
X146545350Y-44272295D02*
X146592969Y-44462771D01*
X146592969Y-44462771D02*
X146592969Y-44700866D01*
X146592969Y-44700866D02*
X146545350Y-44891342D01*
X146545350Y-44891342D02*
X146497731Y-44986580D01*
X146497731Y-44986580D02*
X146450112Y-45034200D01*
X146450112Y-45034200D02*
X146354874Y-45081819D01*
X146354874Y-45081819D02*
X146259636Y-45081819D01*
X146259636Y-45081819D02*
X146164398Y-45034200D01*
X146164398Y-45034200D02*
X146116779Y-44986580D01*
X146116779Y-44986580D02*
X146069160Y-44891342D01*
X146069160Y-44891342D02*
X146021541Y-44700866D01*
X146021541Y-44700866D02*
X146021541Y-44462771D01*
X146021541Y-44462771D02*
X146069160Y-44272295D01*
X146069160Y-44272295D02*
X146116779Y-44177057D01*
X146116779Y-44177057D02*
X146164398Y-44129438D01*
X146164398Y-44129438D02*
X146259636Y-44081819D01*
X121653541Y-54749819D02*
X122272588Y-54749819D01*
X122272588Y-54749819D02*
X121939255Y-55130771D01*
X121939255Y-55130771D02*
X122082112Y-55130771D01*
X122082112Y-55130771D02*
X122177350Y-55178390D01*
X122177350Y-55178390D02*
X122224969Y-55226009D01*
X122224969Y-55226009D02*
X122272588Y-55321247D01*
X122272588Y-55321247D02*
X122272588Y-55559342D01*
X122272588Y-55559342D02*
X122224969Y-55654580D01*
X122224969Y-55654580D02*
X122177350Y-55702200D01*
X122177350Y-55702200D02*
X122082112Y-55749819D01*
X122082112Y-55749819D02*
X121796398Y-55749819D01*
X121796398Y-55749819D02*
X121701160Y-55702200D01*
X121701160Y-55702200D02*
X121653541Y-55654580D01*
X145164398Y-47621819D02*
X145354874Y-47621819D01*
X145354874Y-47621819D02*
X145450112Y-47574200D01*
X145450112Y-47574200D02*
X145497731Y-47526580D01*
X145497731Y-47526580D02*
X145592969Y-47383723D01*
X145592969Y-47383723D02*
X145640588Y-47193247D01*
X145640588Y-47193247D02*
X145640588Y-46812295D01*
X145640588Y-46812295D02*
X145592969Y-46717057D01*
X145592969Y-46717057D02*
X145545350Y-46669438D01*
X145545350Y-46669438D02*
X145450112Y-46621819D01*
X145450112Y-46621819D02*
X145259636Y-46621819D01*
X145259636Y-46621819D02*
X145164398Y-46669438D01*
X145164398Y-46669438D02*
X145116779Y-46717057D01*
X145116779Y-46717057D02*
X145069160Y-46812295D01*
X145069160Y-46812295D02*
X145069160Y-47050390D01*
X145069160Y-47050390D02*
X145116779Y-47145628D01*
X145116779Y-47145628D02*
X145164398Y-47193247D01*
X145164398Y-47193247D02*
X145259636Y-47240866D01*
X145259636Y-47240866D02*
X145450112Y-47240866D01*
X145450112Y-47240866D02*
X145545350Y-47193247D01*
X145545350Y-47193247D02*
X145592969Y-47145628D01*
X145592969Y-47145628D02*
X145640588Y-47050390D01*
X145259636Y-49590390D02*
X145164398Y-49542771D01*
X145164398Y-49542771D02*
X145116779Y-49495152D01*
X145116779Y-49495152D02*
X145069160Y-49399914D01*
X145069160Y-49399914D02*
X145069160Y-49352295D01*
X145069160Y-49352295D02*
X145116779Y-49257057D01*
X145116779Y-49257057D02*
X145164398Y-49209438D01*
X145164398Y-49209438D02*
X145259636Y-49161819D01*
X145259636Y-49161819D02*
X145450112Y-49161819D01*
X145450112Y-49161819D02*
X145545350Y-49209438D01*
X145545350Y-49209438D02*
X145592969Y-49257057D01*
X145592969Y-49257057D02*
X145640588Y-49352295D01*
X145640588Y-49352295D02*
X145640588Y-49399914D01*
X145640588Y-49399914D02*
X145592969Y-49495152D01*
X145592969Y-49495152D02*
X145545350Y-49542771D01*
X145545350Y-49542771D02*
X145450112Y-49590390D01*
X145450112Y-49590390D02*
X145259636Y-49590390D01*
X145259636Y-49590390D02*
X145164398Y-49638009D01*
X145164398Y-49638009D02*
X145116779Y-49685628D01*
X145116779Y-49685628D02*
X145069160Y-49780866D01*
X145069160Y-49780866D02*
X145069160Y-49971342D01*
X145069160Y-49971342D02*
X145116779Y-50066580D01*
X145116779Y-50066580D02*
X145164398Y-50114200D01*
X145164398Y-50114200D02*
X145259636Y-50161819D01*
X145259636Y-50161819D02*
X145450112Y-50161819D01*
X145450112Y-50161819D02*
X145545350Y-50114200D01*
X145545350Y-50114200D02*
X145592969Y-50066580D01*
X145592969Y-50066580D02*
X145640588Y-49971342D01*
X145640588Y-49971342D02*
X145640588Y-49780866D01*
X145640588Y-49780866D02*
X145592969Y-49685628D01*
X145592969Y-49685628D02*
X145545350Y-49638009D01*
X145545350Y-49638009D02*
X145450112Y-49590390D01*
D10*
X166869863Y-52490742D02*
X167269863Y-53690742D01*
X167269863Y-53690742D02*
X167669863Y-52490742D01*
X168069863Y-53233600D02*
X168984149Y-53233600D01*
X168527006Y-53690742D02*
X168527006Y-52776457D01*
D11*
X178130200Y-46954839D02*
X178177819Y-46811982D01*
X178177819Y-46811982D02*
X178177819Y-46573887D01*
X178177819Y-46573887D02*
X178130200Y-46478649D01*
X178130200Y-46478649D02*
X178082580Y-46431030D01*
X178082580Y-46431030D02*
X177987342Y-46383411D01*
X177987342Y-46383411D02*
X177892104Y-46383411D01*
X177892104Y-46383411D02*
X177796866Y-46431030D01*
X177796866Y-46431030D02*
X177749247Y-46478649D01*
X177749247Y-46478649D02*
X177701628Y-46573887D01*
X177701628Y-46573887D02*
X177654009Y-46764363D01*
X177654009Y-46764363D02*
X177606390Y-46859601D01*
X177606390Y-46859601D02*
X177558771Y-46907220D01*
X177558771Y-46907220D02*
X177463533Y-46954839D01*
X177463533Y-46954839D02*
X177368295Y-46954839D01*
X177368295Y-46954839D02*
X177273057Y-46907220D01*
X177273057Y-46907220D02*
X177225438Y-46859601D01*
X177225438Y-46859601D02*
X177177819Y-46764363D01*
X177177819Y-46764363D02*
X177177819Y-46526268D01*
X177177819Y-46526268D02*
X177225438Y-46383411D01*
X178177819Y-45954839D02*
X177177819Y-45954839D01*
X177177819Y-45954839D02*
X177177819Y-45716744D01*
X177177819Y-45716744D02*
X177225438Y-45573887D01*
X177225438Y-45573887D02*
X177320676Y-45478649D01*
X177320676Y-45478649D02*
X177415914Y-45431030D01*
X177415914Y-45431030D02*
X177606390Y-45383411D01*
X177606390Y-45383411D02*
X177749247Y-45383411D01*
X177749247Y-45383411D02*
X177939723Y-45431030D01*
X177939723Y-45431030D02*
X178034961Y-45478649D01*
X178034961Y-45478649D02*
X178130200Y-45573887D01*
X178130200Y-45573887D02*
X178177819Y-45716744D01*
X178177819Y-45716744D02*
X178177819Y-45954839D01*
X177892104Y-45002458D02*
X177892104Y-44526268D01*
X178177819Y-45097696D02*
X177177819Y-44764363D01*
X177177819Y-44764363D02*
X178177819Y-44431030D01*
X121605922Y-59829819D02*
X121939255Y-60829819D01*
X121939255Y-60829819D02*
X122272588Y-59829819D01*
X122605922Y-60448866D02*
X123367827Y-60448866D01*
X122986874Y-60829819D02*
X122986874Y-60067914D01*
D10*
X130604019Y-53584559D02*
X131175448Y-53584559D01*
X130489733Y-53927416D02*
X130889733Y-52727416D01*
X130889733Y-52727416D02*
X131289733Y-53927416D01*
X132318304Y-53927416D02*
X131632590Y-53927416D01*
X131975447Y-53927416D02*
X131975447Y-52727416D01*
X131975447Y-52727416D02*
X131861161Y-52898845D01*
X131861161Y-52898845D02*
X131746876Y-53013131D01*
X131746876Y-53013131D02*
X131632590Y-53070274D01*
X165129863Y-52547885D02*
X165015578Y-52490742D01*
X165015578Y-52490742D02*
X164844149Y-52490742D01*
X164844149Y-52490742D02*
X164672720Y-52547885D01*
X164672720Y-52547885D02*
X164558435Y-52662171D01*
X164558435Y-52662171D02*
X164501292Y-52776457D01*
X164501292Y-52776457D02*
X164444149Y-53005028D01*
X164444149Y-53005028D02*
X164444149Y-53176457D01*
X164444149Y-53176457D02*
X164501292Y-53405028D01*
X164501292Y-53405028D02*
X164558435Y-53519314D01*
X164558435Y-53519314D02*
X164672720Y-53633600D01*
X164672720Y-53633600D02*
X164844149Y-53690742D01*
X164844149Y-53690742D02*
X164958435Y-53690742D01*
X164958435Y-53690742D02*
X165129863Y-53633600D01*
X165129863Y-53633600D02*
X165187006Y-53576457D01*
X165187006Y-53576457D02*
X165187006Y-53176457D01*
X165187006Y-53176457D02*
X164958435Y-53176457D01*
D11*
X156721350Y-51701819D02*
X156530874Y-51701819D01*
X156530874Y-51701819D02*
X156435636Y-51749438D01*
X156435636Y-51749438D02*
X156388017Y-51797057D01*
X156388017Y-51797057D02*
X156292779Y-51939914D01*
X156292779Y-51939914D02*
X156245160Y-52130390D01*
X156245160Y-52130390D02*
X156245160Y-52511342D01*
X156245160Y-52511342D02*
X156292779Y-52606580D01*
X156292779Y-52606580D02*
X156340398Y-52654200D01*
X156340398Y-52654200D02*
X156435636Y-52701819D01*
X156435636Y-52701819D02*
X156626112Y-52701819D01*
X156626112Y-52701819D02*
X156721350Y-52654200D01*
X156721350Y-52654200D02*
X156768969Y-52606580D01*
X156768969Y-52606580D02*
X156816588Y-52511342D01*
X156816588Y-52511342D02*
X156816588Y-52273247D01*
X156816588Y-52273247D02*
X156768969Y-52178009D01*
X156768969Y-52178009D02*
X156721350Y-52130390D01*
X156721350Y-52130390D02*
X156626112Y-52082771D01*
X156626112Y-52082771D02*
X156435636Y-52082771D01*
X156435636Y-52082771D02*
X156340398Y-52130390D01*
X156340398Y-52130390D02*
X156292779Y-52178009D01*
X156292779Y-52178009D02*
X156245160Y-52273247D01*
X156768969Y-48653819D02*
X156292779Y-48653819D01*
X156292779Y-48653819D02*
X156245160Y-49130009D01*
X156245160Y-49130009D02*
X156292779Y-49082390D01*
X156292779Y-49082390D02*
X156388017Y-49034771D01*
X156388017Y-49034771D02*
X156626112Y-49034771D01*
X156626112Y-49034771D02*
X156721350Y-49082390D01*
X156721350Y-49082390D02*
X156768969Y-49130009D01*
X156768969Y-49130009D02*
X156816588Y-49225247D01*
X156816588Y-49225247D02*
X156816588Y-49463342D01*
X156816588Y-49463342D02*
X156768969Y-49558580D01*
X156768969Y-49558580D02*
X156721350Y-49606200D01*
X156721350Y-49606200D02*
X156626112Y-49653819D01*
X156626112Y-49653819D02*
X156388017Y-49653819D01*
X156388017Y-49653819D02*
X156292779Y-49606200D01*
X156292779Y-49606200D02*
X156245160Y-49558580D01*
D12*
X147269715Y-43461114D02*
X147669715Y-43461114D01*
X147841143Y-44246828D02*
X147269715Y-44246828D01*
X147269715Y-44246828D02*
X147269715Y-42746828D01*
X147269715Y-42746828D02*
X147841143Y-42746828D01*
X148298286Y-44175400D02*
X148469715Y-44246828D01*
X148469715Y-44246828D02*
X148755429Y-44246828D01*
X148755429Y-44246828D02*
X148869715Y-44175400D01*
X148869715Y-44175400D02*
X148926857Y-44103971D01*
X148926857Y-44103971D02*
X148984000Y-43961114D01*
X148984000Y-43961114D02*
X148984000Y-43818257D01*
X148984000Y-43818257D02*
X148926857Y-43675400D01*
X148926857Y-43675400D02*
X148869715Y-43603971D01*
X148869715Y-43603971D02*
X148755429Y-43532542D01*
X148755429Y-43532542D02*
X148526857Y-43461114D01*
X148526857Y-43461114D02*
X148412572Y-43389685D01*
X148412572Y-43389685D02*
X148355429Y-43318257D01*
X148355429Y-43318257D02*
X148298286Y-43175400D01*
X148298286Y-43175400D02*
X148298286Y-43032542D01*
X148298286Y-43032542D02*
X148355429Y-42889685D01*
X148355429Y-42889685D02*
X148412572Y-42818257D01*
X148412572Y-42818257D02*
X148526857Y-42746828D01*
X148526857Y-42746828D02*
X148812572Y-42746828D01*
X148812572Y-42746828D02*
X148984000Y-42818257D01*
X149498286Y-44246828D02*
X149498286Y-42746828D01*
X149498286Y-42746828D02*
X149955429Y-42746828D01*
X149955429Y-42746828D02*
X150069714Y-42818257D01*
X150069714Y-42818257D02*
X150126857Y-42889685D01*
X150126857Y-42889685D02*
X150184000Y-43032542D01*
X150184000Y-43032542D02*
X150184000Y-43246828D01*
X150184000Y-43246828D02*
X150126857Y-43389685D01*
X150126857Y-43389685D02*
X150069714Y-43461114D01*
X150069714Y-43461114D02*
X149955429Y-43532542D01*
X149955429Y-43532542D02*
X149498286Y-43532542D01*
X150584000Y-42746828D02*
X151326857Y-42746828D01*
X151326857Y-42746828D02*
X150926857Y-43318257D01*
X150926857Y-43318257D02*
X151098286Y-43318257D01*
X151098286Y-43318257D02*
X151212572Y-43389685D01*
X151212572Y-43389685D02*
X151269714Y-43461114D01*
X151269714Y-43461114D02*
X151326857Y-43603971D01*
X151326857Y-43603971D02*
X151326857Y-43961114D01*
X151326857Y-43961114D02*
X151269714Y-44103971D01*
X151269714Y-44103971D02*
X151212572Y-44175400D01*
X151212572Y-44175400D02*
X151098286Y-44246828D01*
X151098286Y-44246828D02*
X150755429Y-44246828D01*
X150755429Y-44246828D02*
X150641143Y-44175400D01*
X150641143Y-44175400D02*
X150584000Y-44103971D01*
X151784000Y-42889685D02*
X151841143Y-42818257D01*
X151841143Y-42818257D02*
X151955429Y-42746828D01*
X151955429Y-42746828D02*
X152241143Y-42746828D01*
X152241143Y-42746828D02*
X152355429Y-42818257D01*
X152355429Y-42818257D02*
X152412571Y-42889685D01*
X152412571Y-42889685D02*
X152469714Y-43032542D01*
X152469714Y-43032542D02*
X152469714Y-43175400D01*
X152469714Y-43175400D02*
X152412571Y-43389685D01*
X152412571Y-43389685D02*
X151726857Y-44246828D01*
X151726857Y-44246828D02*
X152469714Y-44246828D01*
X154069714Y-44246828D02*
X153955429Y-44175400D01*
X153955429Y-44175400D02*
X153898286Y-44103971D01*
X153898286Y-44103971D02*
X153841143Y-43961114D01*
X153841143Y-43961114D02*
X153841143Y-43532542D01*
X153841143Y-43532542D02*
X153898286Y-43389685D01*
X153898286Y-43389685D02*
X153955429Y-43318257D01*
X153955429Y-43318257D02*
X154069714Y-43246828D01*
X154069714Y-43246828D02*
X154241143Y-43246828D01*
X154241143Y-43246828D02*
X154355429Y-43318257D01*
X154355429Y-43318257D02*
X154412572Y-43389685D01*
X154412572Y-43389685D02*
X154469714Y-43532542D01*
X154469714Y-43532542D02*
X154469714Y-43961114D01*
X154469714Y-43961114D02*
X154412572Y-44103971D01*
X154412572Y-44103971D02*
X154355429Y-44175400D01*
X154355429Y-44175400D02*
X154241143Y-44246828D01*
X154241143Y-44246828D02*
X154069714Y-44246828D01*
X154984000Y-43246828D02*
X154984000Y-44246828D01*
X154984000Y-43389685D02*
X155041143Y-43318257D01*
X155041143Y-43318257D02*
X155155428Y-43246828D01*
X155155428Y-43246828D02*
X155326857Y-43246828D01*
X155326857Y-43246828D02*
X155441143Y-43318257D01*
X155441143Y-43318257D02*
X155498286Y-43461114D01*
X155498286Y-43461114D02*
X155498286Y-44246828D01*
X149498286Y-45161828D02*
X149726858Y-45161828D01*
X149726858Y-45161828D02*
X149841143Y-45233257D01*
X149841143Y-45233257D02*
X149955429Y-45376114D01*
X149955429Y-45376114D02*
X150012572Y-45661828D01*
X150012572Y-45661828D02*
X150012572Y-46161828D01*
X150012572Y-46161828D02*
X149955429Y-46447542D01*
X149955429Y-46447542D02*
X149841143Y-46590400D01*
X149841143Y-46590400D02*
X149726858Y-46661828D01*
X149726858Y-46661828D02*
X149498286Y-46661828D01*
X149498286Y-46661828D02*
X149384001Y-46590400D01*
X149384001Y-46590400D02*
X149269715Y-46447542D01*
X149269715Y-46447542D02*
X149212572Y-46161828D01*
X149212572Y-46161828D02*
X149212572Y-45661828D01*
X149212572Y-45661828D02*
X149269715Y-45376114D01*
X149269715Y-45376114D02*
X149384001Y-45233257D01*
X149384001Y-45233257D02*
X149498286Y-45161828D01*
X150355429Y-45661828D02*
X150812572Y-45661828D01*
X150526858Y-45161828D02*
X150526858Y-46447542D01*
X150526858Y-46447542D02*
X150584001Y-46590400D01*
X150584001Y-46590400D02*
X150698286Y-46661828D01*
X150698286Y-46661828D02*
X150812572Y-46661828D01*
X151212572Y-46661828D02*
X151212572Y-45161828D01*
X151726858Y-46661828D02*
X151726858Y-45876114D01*
X151726858Y-45876114D02*
X151669715Y-45733257D01*
X151669715Y-45733257D02*
X151555429Y-45661828D01*
X151555429Y-45661828D02*
X151384000Y-45661828D01*
X151384000Y-45661828D02*
X151269715Y-45733257D01*
X151269715Y-45733257D02*
X151212572Y-45804685D01*
X152755429Y-46590400D02*
X152641143Y-46661828D01*
X152641143Y-46661828D02*
X152412572Y-46661828D01*
X152412572Y-46661828D02*
X152298286Y-46590400D01*
X152298286Y-46590400D02*
X152241143Y-46447542D01*
X152241143Y-46447542D02*
X152241143Y-45876114D01*
X152241143Y-45876114D02*
X152298286Y-45733257D01*
X152298286Y-45733257D02*
X152412572Y-45661828D01*
X152412572Y-45661828D02*
X152641143Y-45661828D01*
X152641143Y-45661828D02*
X152755429Y-45733257D01*
X152755429Y-45733257D02*
X152812572Y-45876114D01*
X152812572Y-45876114D02*
X152812572Y-46018971D01*
X152812572Y-46018971D02*
X152241143Y-46161828D01*
X153326857Y-46661828D02*
X153326857Y-45661828D01*
X153326857Y-45947542D02*
X153384000Y-45804685D01*
X153384000Y-45804685D02*
X153441143Y-45733257D01*
X153441143Y-45733257D02*
X153555428Y-45661828D01*
X153555428Y-45661828D02*
X153669714Y-45661828D01*
X149698286Y-49005400D02*
X149869715Y-49076828D01*
X149869715Y-49076828D02*
X150155429Y-49076828D01*
X150155429Y-49076828D02*
X150269715Y-49005400D01*
X150269715Y-49005400D02*
X150326857Y-48933971D01*
X150326857Y-48933971D02*
X150384000Y-48791114D01*
X150384000Y-48791114D02*
X150384000Y-48648257D01*
X150384000Y-48648257D02*
X150326857Y-48505400D01*
X150326857Y-48505400D02*
X150269715Y-48433971D01*
X150269715Y-48433971D02*
X150155429Y-48362542D01*
X150155429Y-48362542D02*
X149926857Y-48291114D01*
X149926857Y-48291114D02*
X149812572Y-48219685D01*
X149812572Y-48219685D02*
X149755429Y-48148257D01*
X149755429Y-48148257D02*
X149698286Y-48005400D01*
X149698286Y-48005400D02*
X149698286Y-47862542D01*
X149698286Y-47862542D02*
X149755429Y-47719685D01*
X149755429Y-47719685D02*
X149812572Y-47648257D01*
X149812572Y-47648257D02*
X149926857Y-47576828D01*
X149926857Y-47576828D02*
X150212572Y-47576828D01*
X150212572Y-47576828D02*
X150384000Y-47648257D01*
X150898286Y-49076828D02*
X150898286Y-48076828D01*
X150898286Y-47576828D02*
X150841143Y-47648257D01*
X150841143Y-47648257D02*
X150898286Y-47719685D01*
X150898286Y-47719685D02*
X150955429Y-47648257D01*
X150955429Y-47648257D02*
X150898286Y-47576828D01*
X150898286Y-47576828D02*
X150898286Y-47719685D01*
X151984001Y-49076828D02*
X151984001Y-47576828D01*
X151984001Y-49005400D02*
X151869715Y-49076828D01*
X151869715Y-49076828D02*
X151641143Y-49076828D01*
X151641143Y-49076828D02*
X151526858Y-49005400D01*
X151526858Y-49005400D02*
X151469715Y-48933971D01*
X151469715Y-48933971D02*
X151412572Y-48791114D01*
X151412572Y-48791114D02*
X151412572Y-48362542D01*
X151412572Y-48362542D02*
X151469715Y-48219685D01*
X151469715Y-48219685D02*
X151526858Y-48148257D01*
X151526858Y-48148257D02*
X151641143Y-48076828D01*
X151641143Y-48076828D02*
X151869715Y-48076828D01*
X151869715Y-48076828D02*
X151984001Y-48148257D01*
X153012572Y-49005400D02*
X152898286Y-49076828D01*
X152898286Y-49076828D02*
X152669715Y-49076828D01*
X152669715Y-49076828D02*
X152555429Y-49005400D01*
X152555429Y-49005400D02*
X152498286Y-48862542D01*
X152498286Y-48862542D02*
X152498286Y-48291114D01*
X152498286Y-48291114D02*
X152555429Y-48148257D01*
X152555429Y-48148257D02*
X152669715Y-48076828D01*
X152669715Y-48076828D02*
X152898286Y-48076828D01*
X152898286Y-48076828D02*
X153012572Y-48148257D01*
X153012572Y-48148257D02*
X153069715Y-48291114D01*
X153069715Y-48291114D02*
X153069715Y-48433971D01*
X153069715Y-48433971D02*
X152498286Y-48576828D01*
D11*
X121939255Y-47129819D02*
X122034493Y-47129819D01*
X122034493Y-47129819D02*
X122129731Y-47177438D01*
X122129731Y-47177438D02*
X122177350Y-47225057D01*
X122177350Y-47225057D02*
X122224969Y-47320295D01*
X122224969Y-47320295D02*
X122272588Y-47510771D01*
X122272588Y-47510771D02*
X122272588Y-47748866D01*
X122272588Y-47748866D02*
X122224969Y-47939342D01*
X122224969Y-47939342D02*
X122177350Y-48034580D01*
X122177350Y-48034580D02*
X122129731Y-48082200D01*
X122129731Y-48082200D02*
X122034493Y-48129819D01*
X122034493Y-48129819D02*
X121939255Y-48129819D01*
X121939255Y-48129819D02*
X121844017Y-48082200D01*
X121844017Y-48082200D02*
X121796398Y-48034580D01*
X121796398Y-48034580D02*
X121748779Y-47939342D01*
X121748779Y-47939342D02*
X121701160Y-47748866D01*
X121701160Y-47748866D02*
X121701160Y-47510771D01*
X121701160Y-47510771D02*
X121748779Y-47320295D01*
X121748779Y-47320295D02*
X121796398Y-47225057D01*
X121796398Y-47225057D02*
X121844017Y-47177438D01*
X121844017Y-47177438D02*
X121939255Y-47129819D01*
X145021541Y-51701819D02*
X145688207Y-51701819D01*
X145688207Y-51701819D02*
X145259636Y-52701819D01*
D13*
X49370000Y-86570000D02*
X49370000Y-69430000D01*
X49370000Y-86570000D02*
X38450000Y-86570000D01*
X49370000Y-69430000D02*
X38450000Y-69430000D01*
X47020000Y-78000000D02*
G75*
G03*
X47020000Y-78000000I-8570000J0D01*
G01*
X49920000Y-34360500D02*
X49455000Y-34360500D01*
X52545000Y-34360500D02*
X52080000Y-34360500D01*
X49920000Y-34665816D02*
G75*
G03*
X49919571Y-39174979I1080000J-2254684D01*
G01*
X52080827Y-39708314D02*
G75*
G03*
X52544830Y-34360501I-1080827J2787814D01*
G01*
X49455170Y-34360501D02*
G75*
G03*
X49919173Y-39708314I1544830J-2559999D01*
G01*
X52080428Y-39174978D02*
G75*
G03*
X52080000Y-34665817I-1080428J2254478D01*
G01*
%LPC*%
D14*
X51000000Y-73000000D03*
X51000000Y-75540000D03*
X51000000Y-78080000D03*
X51000000Y-80620000D03*
X51000000Y-83160000D03*
D15*
X30000000Y-77000000D03*
X51000000Y-139000000D03*
D16*
X51000000Y-65000000D03*
X30000000Y-45050000D03*
X32000000Y-147000000D03*
X47000000Y-128000000D03*
X37000000Y-174000000D03*
X39922000Y-48000000D03*
X39922000Y-138000000D03*
X39922000Y-156000000D03*
X39922000Y-118000000D03*
X39922000Y-98000000D03*
D17*
X40000000Y-38000000D03*
D18*
X40000000Y-174000000D03*
X39922000Y-156000000D03*
X39922000Y-138000000D03*
X39922000Y-118000000D03*
X39922000Y-98000000D03*
X39922000Y-78000000D03*
X39922000Y-56000000D03*
D19*
X51000000Y-33682000D03*
D20*
X51000000Y-35841000D03*
X51000000Y-38000000D03*
X51000000Y-40159000D03*
D16*
X39922000Y-78000000D03*
X39922000Y-56000000D03*
%LPD*%
M02*
