G04 #@! TF.GenerationSoftware,KiCad,Pcbnew,8.0.7*
G04 #@! TF.CreationDate,2026-01-25T14:12:36-05:00*
G04 #@! TF.ProjectId,ESP32_S3_Adaptor,45535033-325f-4533-935f-41646170746f,rev?*
G04 #@! TF.SameCoordinates,Original*
G04 #@! TF.FileFunction,Copper,L1,Top*
G04 #@! TF.FilePolarity,Positive*
%FSLAX46Y46*%
G04 Gerber Fmt 4.6, Leading zero omitted, Abs format (unit mm)*
G04 Created by KiCad (PCBNEW 8.0.7) date 2026-01-25 14:12:36*
%MOMM*%
%LPD*%
G01*
G04 APERTURE LIST*
G04 Aperture macros list*
%AMFreePoly0*
4,1,11,0.600000,-3.000000,0.580902,-3.058779,0.530902,-3.095106,0.500000,-3.100000,-0.500000,-3.100000,-0.558779,-3.080902,-0.595106,-3.030902,-0.600000,-3.000000,-0.600000,1.000000,0.600000,1.000000,0.600000,-3.000000,0.600000,-3.000000,$1*%
G04 Aperture macros list end*
G04 #@! TA.AperFunction,ComponentPad*
%ADD10C,1.400000*%
G04 #@! TD*
G04 #@! TA.AperFunction,ComponentPad*
%ADD11FreePoly0,270.000000*%
G04 #@! TD*
G04 #@! TA.AperFunction,ComponentPad*
%ADD12FreePoly0,90.000000*%
G04 #@! TD*
G04 #@! TA.AperFunction,ViaPad*
%ADD13C,0.800000*%
G04 #@! TD*
G04 #@! TA.AperFunction,Conductor*
%ADD14C,0.250000*%
G04 #@! TD*
G04 #@! TA.AperFunction,Conductor*
%ADD15C,0.500000*%
G04 #@! TD*
G04 APERTURE END LIST*
D10*
X88020000Y-70790000D03*
X85480000Y-70790000D03*
X88020000Y-68250000D03*
X85480000Y-68250000D03*
X88020000Y-65710000D03*
X85480000Y-65710000D03*
X88020000Y-63170000D03*
X85480000Y-63170000D03*
X88020000Y-60630000D03*
X85480000Y-60630000D03*
X88020000Y-58090000D03*
X85480000Y-58090000D03*
X88020000Y-55550000D03*
X85480000Y-55550000D03*
X88020000Y-53010000D03*
X85480000Y-53010000D03*
X88020000Y-50470000D03*
X85480000Y-50470000D03*
X88020000Y-47930000D03*
X85480000Y-47930000D03*
X62620000Y-70790000D03*
X60080000Y-70790000D03*
X62620000Y-68250000D03*
X60080000Y-68250000D03*
X62620000Y-65710000D03*
X60080000Y-65710000D03*
X62620000Y-63170000D03*
X60080000Y-63170000D03*
X62620000Y-60630000D03*
X60080000Y-60630000D03*
X62620000Y-58090000D03*
X60080000Y-58090000D03*
X62620000Y-55550000D03*
X60080000Y-55550000D03*
X62620000Y-53010000D03*
X60080000Y-53010000D03*
X62620000Y-50470000D03*
X60080000Y-50470000D03*
X62620000Y-47930000D03*
X60080000Y-47930000D03*
D11*
X67480000Y-76060000D03*
X67480000Y-73520000D03*
X67480000Y-70980000D03*
X67480000Y-68440000D03*
X67480000Y-65900000D03*
X67480000Y-63360000D03*
X67480000Y-60820000D03*
X67480000Y-58280000D03*
X67480000Y-55740000D03*
D12*
X80720000Y-55740000D03*
X80720000Y-58280000D03*
X80720000Y-60820000D03*
X80720000Y-63360000D03*
X80720000Y-65900000D03*
X80720000Y-68440000D03*
X80720000Y-70980000D03*
X80720000Y-73520000D03*
X80720000Y-76060000D03*
D13*
X69500000Y-55500000D03*
X70400000Y-51200000D03*
X71600000Y-60900000D03*
X71700000Y-59300000D03*
X72600000Y-66200000D03*
X72400000Y-69900000D03*
X76400000Y-70000000D03*
X87800000Y-76400000D03*
X87800000Y-74700000D03*
X59800000Y-76600000D03*
X59800000Y-75100000D03*
X59900000Y-73300000D03*
X70300000Y-76600000D03*
X72400000Y-76600000D03*
X74600000Y-76700000D03*
X76900000Y-76600000D03*
X75800000Y-66300000D03*
X75600000Y-63100000D03*
X75600000Y-61700000D03*
X75200000Y-59900000D03*
X75200000Y-59900000D03*
X75200000Y-59900000D03*
X76600000Y-55300000D03*
X69275000Y-62100000D03*
X71175000Y-63100000D03*
X71800000Y-64100000D03*
D14*
X86995000Y-54525000D02*
X88020000Y-55550000D01*
X76600000Y-55300000D02*
X77375000Y-54525000D01*
X77375000Y-54525000D02*
X86995000Y-54525000D01*
X70400000Y-51200000D02*
X70600000Y-51400000D01*
X70450000Y-58546912D02*
X70450000Y-69250000D01*
X70600000Y-51400000D02*
X70600000Y-58396912D01*
X70450000Y-69250000D02*
X68720000Y-70980000D01*
X70600000Y-58396912D02*
X70450000Y-58546912D01*
X68720000Y-70980000D02*
X67480000Y-70980000D01*
X67480000Y-55740000D02*
X67480000Y-53020000D01*
X67480000Y-53020000D02*
X70100000Y-50400000D01*
X70100000Y-50400000D02*
X85400000Y-50400000D01*
X60080000Y-55550000D02*
X60400000Y-55870000D01*
X64201732Y-59115000D02*
X64486732Y-59400000D01*
X60400000Y-56960431D02*
X61400000Y-57960431D01*
X60400000Y-55870000D02*
X60400000Y-56960431D01*
X61400000Y-57960431D02*
X61400000Y-58709569D01*
X61400000Y-58709569D02*
X61805431Y-59115000D01*
X61805431Y-59115000D02*
X64201732Y-59115000D01*
X64486732Y-59400000D02*
X69333308Y-59400000D01*
X69333308Y-59400000D02*
X70000000Y-60066692D01*
X70000000Y-60066692D02*
X70000000Y-66000000D01*
X70000000Y-66000000D02*
X67500000Y-68500000D01*
X60080000Y-63170000D02*
X61200000Y-62050000D01*
X61200000Y-62050000D02*
X61200000Y-60469568D01*
X61200000Y-60469568D02*
X62064568Y-59605000D01*
X62064568Y-59605000D02*
X64021732Y-59605000D01*
X64021732Y-59605000D02*
X64301732Y-59885000D01*
X64301732Y-59885000D02*
X68985000Y-59885000D01*
X68985000Y-59885000D02*
X69275000Y-60175000D01*
X69275000Y-60175000D02*
X69275000Y-62100000D01*
X60080000Y-65710000D02*
X61595000Y-64195000D01*
X61595000Y-64195000D02*
X61595000Y-62405000D01*
X61595000Y-62405000D02*
X62345000Y-61655000D01*
X62345000Y-61655000D02*
X63044569Y-61655000D01*
X67500000Y-60900000D02*
X67600000Y-60800000D01*
X63044569Y-61655000D02*
X63799569Y-60900000D01*
X63799569Y-60900000D02*
X67500000Y-60900000D01*
X80720000Y-63360000D02*
X80860000Y-63500000D01*
X80860000Y-63500000D02*
X84360431Y-63500000D01*
X86495000Y-64195000D02*
X88000000Y-65700000D01*
X84360431Y-63500000D02*
X85055431Y-64195000D01*
X85055431Y-64195000D02*
X86495000Y-64195000D01*
X80720000Y-60820000D02*
X80740000Y-60800000D01*
X80740000Y-60800000D02*
X84200431Y-60800000D01*
X84200431Y-60800000D02*
X85055431Y-61655000D01*
X85055431Y-61655000D02*
X86655000Y-61655000D01*
X86655000Y-61655000D02*
X88000000Y-63000000D01*
X80720000Y-58280000D02*
X83980000Y-58280000D01*
X83980000Y-58280000D02*
X85100000Y-59400000D01*
X85100000Y-59400000D02*
X87000000Y-59400000D01*
X87000000Y-59400000D02*
X88100000Y-60500000D01*
X80840000Y-55740000D02*
X80800000Y-55700000D01*
X84100000Y-55740000D02*
X80840000Y-55740000D01*
X84100000Y-55740000D02*
X84935000Y-56575000D01*
X84935000Y-56575000D02*
X87575000Y-56575000D01*
X87575000Y-56575000D02*
X88000000Y-57000000D01*
X88000000Y-57000000D02*
X88000000Y-58000000D01*
X71000000Y-66500000D02*
X71000000Y-63275000D01*
X71000000Y-63275000D02*
X71175000Y-63100000D01*
X71800000Y-64600000D02*
X71800000Y-64100000D01*
X85480000Y-65710000D02*
X84415000Y-64645000D01*
X84415000Y-64645000D02*
X71845000Y-64645000D01*
X71845000Y-64645000D02*
X71800000Y-64600000D01*
X80720000Y-68440000D02*
X72140000Y-68440000D01*
X72140000Y-68440000D02*
X71000000Y-67300000D01*
X71000000Y-67300000D02*
X71000000Y-66500000D01*
X62600000Y-64280431D02*
X62600000Y-63200000D01*
X61500000Y-65380431D02*
X62600000Y-64280431D01*
X61500000Y-74200000D02*
X61500000Y-65380431D01*
X67480000Y-76060000D02*
X63360000Y-76060000D01*
X63360000Y-76060000D02*
X61500000Y-74200000D01*
X67460000Y-73500000D02*
X64200000Y-73500000D01*
X67480000Y-73520000D02*
X67460000Y-73500000D01*
X63800000Y-66900000D02*
X62600000Y-65700000D01*
X63800000Y-73300000D02*
X63800000Y-66900000D01*
X64200000Y-73500000D02*
X64000000Y-73500000D01*
X64000000Y-73500000D02*
X63800000Y-73300000D01*
D15*
X87900000Y-72500000D02*
X88000000Y-72400000D01*
X88000000Y-72400000D02*
X88000000Y-70900000D01*
X87900000Y-73000000D02*
X87900000Y-72500000D01*
X80720000Y-73520000D02*
X87380000Y-73520000D01*
X87380000Y-73520000D02*
X87900000Y-73000000D01*
D14*
X85500000Y-67300000D02*
X85500000Y-68200000D01*
X84600000Y-66400000D02*
X85500000Y-67300000D01*
X80720000Y-65900000D02*
X84100000Y-65900000D01*
X84100000Y-65900000D02*
X84600000Y-66400000D01*
G04 #@! TA.AperFunction,Conductor*
G36*
X86800562Y-68513083D02*
G01*
X86853749Y-68558393D01*
X86869266Y-68592372D01*
X86895769Y-68685523D01*
X86895775Y-68685538D01*
X86994938Y-68884683D01*
X86994943Y-68884691D01*
X87129020Y-69062238D01*
X87293437Y-69212123D01*
X87293439Y-69212125D01*
X87482595Y-69329245D01*
X87482596Y-69329245D01*
X87482599Y-69329247D01*
X87677215Y-69404642D01*
X87732614Y-69447213D01*
X87756205Y-69512980D01*
X87740494Y-69581060D01*
X87690470Y-69629839D01*
X87677213Y-69635893D01*
X87482833Y-69711196D01*
X87482818Y-69711204D01*
X87366672Y-69783117D01*
X87366671Y-69783118D01*
X87973554Y-70390000D01*
X87967339Y-70390000D01*
X87865606Y-70417259D01*
X87774394Y-70469920D01*
X87699920Y-70544394D01*
X87647259Y-70635606D01*
X87620000Y-70737339D01*
X87620000Y-70743553D01*
X87011138Y-70134691D01*
X87011137Y-70134691D01*
X86995369Y-70155571D01*
X86896239Y-70354651D01*
X86896237Y-70354655D01*
X86869525Y-70448540D01*
X86832246Y-70507633D01*
X86768936Y-70537190D01*
X86699697Y-70527828D01*
X86646510Y-70482518D01*
X86630994Y-70448541D01*
X86604229Y-70354472D01*
X86604224Y-70354461D01*
X86505061Y-70155316D01*
X86505056Y-70155308D01*
X86370979Y-69977761D01*
X86206562Y-69827876D01*
X86206560Y-69827874D01*
X86017404Y-69710754D01*
X86017395Y-69710750D01*
X85923821Y-69674500D01*
X85823475Y-69635625D01*
X85768075Y-69593054D01*
X85744484Y-69527288D01*
X85760195Y-69459207D01*
X85810219Y-69410428D01*
X85823466Y-69404377D01*
X86017401Y-69329247D01*
X86206562Y-69212124D01*
X86370981Y-69062236D01*
X86505058Y-68884689D01*
X86604229Y-68685528D01*
X86630734Y-68592371D01*
X86668013Y-68533278D01*
X86731323Y-68503721D01*
X86800562Y-68513083D01*
G37*
G04 #@! TD.AperFunction*
G04 #@! TA.AperFunction,Conductor*
G36*
X71773696Y-65268572D02*
G01*
X71783391Y-65270501D01*
X71783394Y-65270501D01*
X71912721Y-65270501D01*
X71912741Y-65270500D01*
X79090500Y-65270500D01*
X79157539Y-65290185D01*
X79203294Y-65342989D01*
X79214500Y-65394500D01*
X79214500Y-66500002D01*
X79219644Y-66571940D01*
X79260182Y-66709994D01*
X79337967Y-66831030D01*
X79337971Y-66831034D01*
X79427737Y-66908817D01*
X79446706Y-66925254D01*
X79484649Y-66942582D01*
X79577580Y-66985023D01*
X79577583Y-66985023D01*
X79577584Y-66985024D01*
X79720000Y-67005500D01*
X80176355Y-67005500D01*
X80194001Y-67006762D01*
X80220000Y-67010500D01*
X80220003Y-67010500D01*
X83719992Y-67010500D01*
X83720000Y-67010500D01*
X83799076Y-67004277D01*
X83831523Y-66999138D01*
X83922323Y-66975962D01*
X83928481Y-66972713D01*
X84049567Y-66908821D01*
X84049575Y-66908817D01*
X84065052Y-66897571D01*
X84130859Y-66874092D01*
X84198913Y-66889917D01*
X84225619Y-66910209D01*
X84583580Y-67268170D01*
X84617065Y-67329493D01*
X84612081Y-67399185D01*
X84591689Y-67432596D01*
X84592474Y-67433189D01*
X84454943Y-67615308D01*
X84454934Y-67615323D01*
X84454202Y-67616794D01*
X84453666Y-67617371D01*
X84451923Y-67620187D01*
X84451371Y-67619845D01*
X84406692Y-67668025D01*
X84339027Y-67685437D01*
X84272690Y-67663503D01*
X84233539Y-67619373D01*
X84228821Y-67610432D01*
X84228818Y-67610427D01*
X84190673Y-67557925D01*
X84173045Y-67535065D01*
X84173043Y-67535063D01*
X84067043Y-67437777D01*
X84067041Y-67437776D01*
X83937927Y-67374294D01*
X83937913Y-67374289D01*
X83876252Y-67354255D01*
X83876233Y-67354249D01*
X83876208Y-67354241D01*
X83870872Y-67352590D01*
X83862418Y-67349976D01*
X83790554Y-67339644D01*
X83720000Y-67329500D01*
X80220000Y-67329500D01*
X80219992Y-67329500D01*
X80161318Y-67334118D01*
X80151590Y-67334500D01*
X79719997Y-67334500D01*
X79648059Y-67339644D01*
X79510005Y-67380182D01*
X79388969Y-67457967D01*
X79388965Y-67457971D01*
X79294750Y-67566700D01*
X79294744Y-67566709D01*
X79234976Y-67697580D01*
X79234975Y-67697584D01*
X79233457Y-67708148D01*
X79204431Y-67771704D01*
X79145653Y-67809477D01*
X79110719Y-67814500D01*
X72450453Y-67814500D01*
X72383414Y-67794815D01*
X72362772Y-67778181D01*
X71661819Y-67077228D01*
X71628334Y-67015905D01*
X71625500Y-66989547D01*
X71625500Y-65390188D01*
X71645185Y-65323149D01*
X71697989Y-65277394D01*
X71767147Y-65267450D01*
X71773696Y-65268572D01*
G37*
G04 #@! TD.AperFunction*
G04 #@! TA.AperFunction,Conductor*
G36*
X84405772Y-51045185D02*
G01*
X84449734Y-51094231D01*
X84454936Y-51104680D01*
X84454943Y-51104691D01*
X84589020Y-51282238D01*
X84753437Y-51432123D01*
X84753439Y-51432125D01*
X84942595Y-51549245D01*
X84942596Y-51549245D01*
X84942599Y-51549247D01*
X85136524Y-51624374D01*
X85191924Y-51666946D01*
X85215515Y-51732713D01*
X85199804Y-51800793D01*
X85149780Y-51849572D01*
X85136533Y-51855622D01*
X84988488Y-51912975D01*
X84942601Y-51930752D01*
X84942595Y-51930754D01*
X84753439Y-52047874D01*
X84753437Y-52047876D01*
X84589020Y-52197761D01*
X84454943Y-52375308D01*
X84454938Y-52375316D01*
X84355775Y-52574461D01*
X84355769Y-52574476D01*
X84294885Y-52788462D01*
X84294884Y-52788464D01*
X84274357Y-53009999D01*
X84274357Y-53010000D01*
X84294884Y-53231535D01*
X84294885Y-53231537D01*
X84355769Y-53445523D01*
X84355775Y-53445538D01*
X84454938Y-53644683D01*
X84454943Y-53644691D01*
X84497295Y-53700773D01*
X84521987Y-53766134D01*
X84507422Y-53834469D01*
X84458225Y-53884081D01*
X84398341Y-53899500D01*
X77442741Y-53899500D01*
X77442721Y-53899499D01*
X77436607Y-53899499D01*
X77313394Y-53899499D01*
X77212597Y-53919548D01*
X77212592Y-53919548D01*
X77192549Y-53923536D01*
X77192547Y-53923536D01*
X77145397Y-53943067D01*
X77078719Y-53970685D01*
X77078717Y-53970686D01*
X76976266Y-54039141D01*
X76976263Y-54039144D01*
X76652228Y-54363181D01*
X76590905Y-54396666D01*
X76564547Y-54399500D01*
X76505354Y-54399500D01*
X76472897Y-54406398D01*
X76320197Y-54438855D01*
X76320192Y-54438857D01*
X76147270Y-54515848D01*
X76147265Y-54515851D01*
X75994129Y-54627111D01*
X75867466Y-54767785D01*
X75772821Y-54931715D01*
X75772818Y-54931722D01*
X75723408Y-55083792D01*
X75714326Y-55111744D01*
X75694540Y-55300000D01*
X75714326Y-55488256D01*
X75714327Y-55488259D01*
X75772818Y-55668277D01*
X75772821Y-55668284D01*
X75867467Y-55832216D01*
X75994129Y-55972888D01*
X76147265Y-56084148D01*
X76147270Y-56084151D01*
X76320192Y-56161142D01*
X76320197Y-56161144D01*
X76505354Y-56200500D01*
X76505355Y-56200500D01*
X76694644Y-56200500D01*
X76694646Y-56200500D01*
X76879803Y-56161144D01*
X77052730Y-56084151D01*
X77205871Y-55972888D01*
X77332533Y-55832216D01*
X77427179Y-55668284D01*
X77485674Y-55488256D01*
X77503321Y-55320346D01*
X77529904Y-55255735D01*
X77538950Y-55245640D01*
X77597774Y-55186817D01*
X77659098Y-55153333D01*
X77685454Y-55150500D01*
X79090500Y-55150500D01*
X79157539Y-55170185D01*
X79203294Y-55222989D01*
X79214500Y-55274500D01*
X79214500Y-56340002D01*
X79219644Y-56411940D01*
X79260182Y-56549994D01*
X79337967Y-56671030D01*
X79337971Y-56671034D01*
X79439418Y-56758939D01*
X79446706Y-56765254D01*
X79487174Y-56783735D01*
X79577580Y-56825023D01*
X79577583Y-56825023D01*
X79577584Y-56825024D01*
X79720000Y-56845500D01*
X80176355Y-56845500D01*
X80194001Y-56846762D01*
X80220000Y-56850500D01*
X80220003Y-56850500D01*
X83719992Y-56850500D01*
X83720000Y-56850500D01*
X83799076Y-56844277D01*
X83831523Y-56839138D01*
X83922323Y-56815962D01*
X83928989Y-56812445D01*
X84030392Y-56758939D01*
X84049575Y-56748817D01*
X84065049Y-56737573D01*
X84130854Y-56714092D01*
X84198909Y-56729916D01*
X84225618Y-56750209D01*
X84449141Y-56973732D01*
X84449142Y-56973733D01*
X84512656Y-57037247D01*
X84536266Y-57060857D01*
X84572287Y-57084926D01*
X84617091Y-57138539D01*
X84625798Y-57207864D01*
X84595643Y-57270891D01*
X84591246Y-57275321D01*
X84589015Y-57277768D01*
X84454943Y-57455308D01*
X84454934Y-57455323D01*
X84454202Y-57456794D01*
X84453666Y-57457371D01*
X84451923Y-57460187D01*
X84451371Y-57459845D01*
X84406692Y-57508025D01*
X84339027Y-57525437D01*
X84272690Y-57503503D01*
X84233539Y-57459373D01*
X84228821Y-57450432D01*
X84228818Y-57450427D01*
X84216125Y-57432957D01*
X84190673Y-57397925D01*
X84173045Y-57375065D01*
X84067043Y-57277777D01*
X84057305Y-57272989D01*
X83937927Y-57214294D01*
X83937913Y-57214289D01*
X83876252Y-57194255D01*
X83876233Y-57194249D01*
X83876208Y-57194241D01*
X83870872Y-57192590D01*
X83862418Y-57189976D01*
X83790554Y-57179644D01*
X83720000Y-57169500D01*
X80220000Y-57169500D01*
X80219992Y-57169500D01*
X80161318Y-57174118D01*
X80151590Y-57174500D01*
X79719997Y-57174500D01*
X79648059Y-57179644D01*
X79510005Y-57220182D01*
X79388969Y-57297967D01*
X79388965Y-57297971D01*
X79294750Y-57406700D01*
X79294744Y-57406709D01*
X79234976Y-57537580D01*
X79234975Y-57537585D01*
X79214500Y-57679999D01*
X79214500Y-58880002D01*
X79219644Y-58951940D01*
X79235695Y-59006602D01*
X79258427Y-59084020D01*
X79260182Y-59089994D01*
X79337967Y-59211030D01*
X79337971Y-59211034D01*
X79427737Y-59288817D01*
X79446706Y-59305254D01*
X79462831Y-59312618D01*
X79577580Y-59365023D01*
X79577583Y-59365023D01*
X79577584Y-59365024D01*
X79720000Y-59385500D01*
X80176355Y-59385500D01*
X80194001Y-59386762D01*
X80220000Y-59390500D01*
X80220003Y-59390500D01*
X83719992Y-59390500D01*
X83720000Y-59390500D01*
X83799076Y-59384277D01*
X83831523Y-59379138D01*
X83922323Y-59355962D01*
X84004468Y-59312617D01*
X84072945Y-59298742D01*
X84138054Y-59324090D01*
X84150016Y-59334606D01*
X84531717Y-59716307D01*
X84565202Y-59777630D01*
X84560218Y-59847322D01*
X84542991Y-59878714D01*
X84454942Y-59995309D01*
X84454934Y-59995323D01*
X84454202Y-59996794D01*
X84453666Y-59997371D01*
X84451923Y-60000187D01*
X84451371Y-59999845D01*
X84406692Y-60048025D01*
X84339027Y-60065437D01*
X84272690Y-60043503D01*
X84233539Y-59999373D01*
X84228821Y-59990432D01*
X84228818Y-59990427D01*
X84190673Y-59937925D01*
X84173045Y-59915065D01*
X84173043Y-59915063D01*
X84067043Y-59817777D01*
X84067041Y-59817776D01*
X83937927Y-59754294D01*
X83937913Y-59754289D01*
X83876252Y-59734255D01*
X83876233Y-59734249D01*
X83876208Y-59734241D01*
X83869757Y-59732246D01*
X83862418Y-59729976D01*
X83767344Y-59716307D01*
X83720000Y-59709500D01*
X80220000Y-59709500D01*
X80219992Y-59709500D01*
X80161318Y-59714118D01*
X80151590Y-59714500D01*
X79719997Y-59714500D01*
X79648059Y-59719644D01*
X79510005Y-59760182D01*
X79388969Y-59837967D01*
X79388965Y-59837971D01*
X79294750Y-59946700D01*
X79294744Y-59946709D01*
X79234976Y-60077580D01*
X79234975Y-60077585D01*
X79214500Y-60219999D01*
X79214500Y-61420002D01*
X79219644Y-61491940D01*
X79248338Y-61589660D01*
X79258896Y-61625617D01*
X79260182Y-61629994D01*
X79337967Y-61751030D01*
X79337971Y-61751034D01*
X79427737Y-61828817D01*
X79446706Y-61845254D01*
X79487174Y-61863735D01*
X79577580Y-61905023D01*
X79577583Y-61905023D01*
X79577584Y-61905024D01*
X79720000Y-61925500D01*
X80176355Y-61925500D01*
X80194001Y-61926762D01*
X80220000Y-61930500D01*
X80220003Y-61930500D01*
X83719992Y-61930500D01*
X83720000Y-61930500D01*
X83799076Y-61924277D01*
X83831523Y-61919138D01*
X83922323Y-61895962D01*
X83928481Y-61892713D01*
X84049567Y-61828821D01*
X84049575Y-61828817D01*
X84102075Y-61790673D01*
X84124935Y-61773045D01*
X84124936Y-61773043D01*
X84129141Y-61769801D01*
X84130285Y-61771285D01*
X84185579Y-61744087D01*
X84254995Y-61752039D01*
X84294427Y-61778586D01*
X84646060Y-62130221D01*
X84679545Y-62191544D01*
X84674561Y-62261236D01*
X84641919Y-62309538D01*
X84589018Y-62357764D01*
X84454943Y-62535308D01*
X84454934Y-62535323D01*
X84454202Y-62536794D01*
X84453666Y-62537371D01*
X84451923Y-62540187D01*
X84451371Y-62539845D01*
X84406692Y-62588025D01*
X84339027Y-62605437D01*
X84272690Y-62583503D01*
X84233539Y-62539373D01*
X84228821Y-62530432D01*
X84228818Y-62530427D01*
X84216125Y-62512957D01*
X84190673Y-62477925D01*
X84173045Y-62455065D01*
X84067043Y-62357777D01*
X84067010Y-62357761D01*
X83937927Y-62294294D01*
X83937913Y-62294289D01*
X83876252Y-62274255D01*
X83876233Y-62274249D01*
X83876208Y-62274241D01*
X83870872Y-62272590D01*
X83862418Y-62269976D01*
X83790554Y-62259644D01*
X83720000Y-62249500D01*
X80220000Y-62249500D01*
X80219992Y-62249500D01*
X80161318Y-62254118D01*
X80151590Y-62254500D01*
X79719997Y-62254500D01*
X79648059Y-62259644D01*
X79510005Y-62300182D01*
X79388969Y-62377967D01*
X79388965Y-62377971D01*
X79294750Y-62486700D01*
X79294744Y-62486709D01*
X79234976Y-62617580D01*
X79234975Y-62617585D01*
X79214500Y-62759999D01*
X79214500Y-63895500D01*
X79194815Y-63962539D01*
X79142011Y-64008294D01*
X79090500Y-64019500D01*
X72808650Y-64019500D01*
X72741611Y-63999815D01*
X72695856Y-63947011D01*
X72687912Y-63917917D01*
X72687027Y-63918106D01*
X72685675Y-63911747D01*
X72627181Y-63731722D01*
X72627180Y-63731721D01*
X72627179Y-63731716D01*
X72532533Y-63567784D01*
X72405871Y-63427112D01*
X72405870Y-63427111D01*
X72252734Y-63315851D01*
X72252729Y-63315848D01*
X72148790Y-63269571D01*
X72095553Y-63224321D01*
X72075232Y-63157471D01*
X72075904Y-63143343D01*
X72080460Y-63100000D01*
X72060674Y-62911744D01*
X72003076Y-62734476D01*
X72002181Y-62731722D01*
X72002180Y-62731721D01*
X72002179Y-62731716D01*
X71907533Y-62567784D01*
X71780871Y-62427112D01*
X71753129Y-62406956D01*
X71627734Y-62315851D01*
X71627729Y-62315848D01*
X71454807Y-62238857D01*
X71454802Y-62238855D01*
X71303670Y-62206732D01*
X71269646Y-62199500D01*
X71199500Y-62199500D01*
X71132461Y-62179815D01*
X71086706Y-62127011D01*
X71075500Y-62075500D01*
X71075500Y-58848761D01*
X71095185Y-58781722D01*
X71096398Y-58779870D01*
X71113139Y-58754815D01*
X71120084Y-58744421D01*
X71154312Y-58693198D01*
X71201463Y-58579363D01*
X71205178Y-58560689D01*
X71214556Y-58513537D01*
X71225500Y-58458519D01*
X71225500Y-58335305D01*
X71225500Y-51593091D01*
X71231569Y-51554773D01*
X71233364Y-51549249D01*
X71285674Y-51388256D01*
X71305460Y-51200000D01*
X71301514Y-51162459D01*
X71314083Y-51093732D01*
X71361815Y-51042708D01*
X71424835Y-51025500D01*
X84338733Y-51025500D01*
X84405772Y-51045185D01*
G37*
G04 #@! TD.AperFunction*
G04 #@! TA.AperFunction,Conductor*
G36*
X69698933Y-51788169D02*
G01*
X69747748Y-51821378D01*
X69773864Y-51850382D01*
X69794129Y-51872888D01*
X69923387Y-51966799D01*
X69966051Y-52022126D01*
X69974500Y-52067115D01*
X69974500Y-58095061D01*
X69954815Y-58162100D01*
X69953602Y-58163952D01*
X69929915Y-58199402D01*
X69929914Y-58199403D01*
X69895690Y-58250620D01*
X69895688Y-58250625D01*
X69870749Y-58310835D01*
X69870749Y-58310836D01*
X69848538Y-58364457D01*
X69848535Y-58364467D01*
X69824500Y-58485301D01*
X69824500Y-58743932D01*
X69804815Y-58810971D01*
X69752011Y-58856726D01*
X69682853Y-58866670D01*
X69635071Y-58848362D01*
X69634966Y-58848560D01*
X69633397Y-58847721D01*
X69631616Y-58847039D01*
X69631369Y-58846874D01*
X69629594Y-58845688D01*
X69629590Y-58845686D01*
X69629588Y-58845685D01*
X69549100Y-58812347D01*
X69515761Y-58798537D01*
X69501221Y-58795645D01*
X69455337Y-58786518D01*
X69394918Y-58774500D01*
X69394915Y-58774500D01*
X69394914Y-58774500D01*
X69109500Y-58774500D01*
X69042461Y-58754815D01*
X68996706Y-58702011D01*
X68985500Y-58650500D01*
X68985500Y-57680000D01*
X68985500Y-57679999D01*
X68980355Y-57608060D01*
X68980043Y-57606999D01*
X68964929Y-57555524D01*
X68939819Y-57470008D01*
X68878803Y-57375065D01*
X68862032Y-57348969D01*
X68862028Y-57348965D01*
X68753299Y-57254750D01*
X68753297Y-57254748D01*
X68753294Y-57254746D01*
X68753290Y-57254744D01*
X68622419Y-57194976D01*
X68622414Y-57194975D01*
X68480000Y-57174500D01*
X68023645Y-57174500D01*
X68005999Y-57173238D01*
X67980001Y-57169500D01*
X67980000Y-57169500D01*
X64480000Y-57169500D01*
X64479992Y-57169500D01*
X64400936Y-57175721D01*
X64368470Y-57180863D01*
X64312501Y-57195149D01*
X64277677Y-57204038D01*
X64277675Y-57204038D01*
X64277675Y-57204039D01*
X64277668Y-57204041D01*
X64150432Y-57271178D01*
X64150427Y-57271181D01*
X64097925Y-57309326D01*
X64075065Y-57326954D01*
X64075063Y-57326956D01*
X63977777Y-57432955D01*
X63917515Y-57555524D01*
X63870271Y-57606999D01*
X63802697Y-57624761D01*
X63736247Y-57603170D01*
X63695238Y-57556084D01*
X63645061Y-57455316D01*
X63645056Y-57455308D01*
X63510979Y-57277761D01*
X63346562Y-57127876D01*
X63346560Y-57127874D01*
X63157404Y-57010754D01*
X63157398Y-57010751D01*
X63004702Y-56951597D01*
X62962784Y-56935358D01*
X62907385Y-56892786D01*
X62883794Y-56827019D01*
X62899505Y-56758939D01*
X62949529Y-56710160D01*
X62962786Y-56704105D01*
X63157177Y-56628798D01*
X63157178Y-56628797D01*
X63273327Y-56556880D01*
X62666447Y-55950000D01*
X62672661Y-55950000D01*
X62774394Y-55922741D01*
X62865606Y-55870080D01*
X62940080Y-55795606D01*
X62992741Y-55704394D01*
X63020000Y-55602661D01*
X63020000Y-55596446D01*
X63628860Y-56205306D01*
X63647384Y-56180779D01*
X63703495Y-56139145D01*
X63773207Y-56134455D01*
X63834388Y-56168200D01*
X63867613Y-56229664D01*
X63869954Y-56245779D01*
X63873438Y-56290041D01*
X63875723Y-56319076D01*
X63880862Y-56351523D01*
X63880863Y-56351529D01*
X63883596Y-56362236D01*
X63904038Y-56442323D01*
X63904039Y-56442324D01*
X63904041Y-56442331D01*
X63971178Y-56569567D01*
X63971181Y-56569572D01*
X64009326Y-56622074D01*
X64026954Y-56644934D01*
X64026956Y-56644936D01*
X64032450Y-56649978D01*
X64132957Y-56742223D01*
X64146369Y-56748817D01*
X64262072Y-56805705D01*
X64262086Y-56805710D01*
X64293634Y-56815960D01*
X64323792Y-56825759D01*
X64337584Y-56830024D01*
X64480000Y-56850500D01*
X64480003Y-56850500D01*
X67979992Y-56850500D01*
X67980000Y-56850500D01*
X68038682Y-56845882D01*
X68048410Y-56845500D01*
X68480000Y-56845500D01*
X68551940Y-56840355D01*
X68689992Y-56799819D01*
X68811032Y-56722031D01*
X68905254Y-56613294D01*
X68965024Y-56482416D01*
X68985500Y-56340000D01*
X68985500Y-55140000D01*
X68980355Y-55068060D01*
X68980209Y-55067564D01*
X68966852Y-55022075D01*
X68939819Y-54930008D01*
X68862031Y-54808968D01*
X68816283Y-54769327D01*
X68753299Y-54714750D01*
X68753297Y-54714748D01*
X68753294Y-54714746D01*
X68753290Y-54714744D01*
X68622419Y-54654976D01*
X68622414Y-54654975D01*
X68480000Y-54634500D01*
X68229500Y-54634500D01*
X68162461Y-54614815D01*
X68116706Y-54562011D01*
X68105500Y-54510500D01*
X68105500Y-53330451D01*
X68125185Y-53263412D01*
X68141814Y-53242775D01*
X69567920Y-51816668D01*
X69629241Y-51783185D01*
X69698933Y-51788169D01*
G37*
G04 #@! TD.AperFunction*
G04 #@! TA.AperFunction,Conductor*
G36*
X62220000Y-55602661D02*
G01*
X62247259Y-55704394D01*
X62299920Y-55795606D01*
X62374394Y-55870080D01*
X62465606Y-55922741D01*
X62567339Y-55950000D01*
X62573554Y-55950000D01*
X61966671Y-56556880D01*
X62082823Y-56628798D01*
X62082824Y-56628799D01*
X62277213Y-56704105D01*
X62332614Y-56746678D01*
X62356205Y-56812445D01*
X62340494Y-56880525D01*
X62290470Y-56929304D01*
X62277213Y-56935359D01*
X62082601Y-57010751D01*
X62082595Y-57010754D01*
X61893441Y-57127873D01*
X61750030Y-57258609D01*
X61687226Y-57289225D01*
X61617838Y-57281027D01*
X61578811Y-57254652D01*
X61334913Y-57010754D01*
X61061819Y-56737659D01*
X61028334Y-56676336D01*
X61025500Y-56649978D01*
X61025500Y-56331601D01*
X61045185Y-56264562D01*
X61050539Y-56256882D01*
X61105058Y-56184689D01*
X61204229Y-55985528D01*
X61230995Y-55891455D01*
X61268272Y-55832367D01*
X61331581Y-55802809D01*
X61400821Y-55812171D01*
X61454007Y-55857480D01*
X61469525Y-55891460D01*
X61496236Y-55985342D01*
X61496239Y-55985348D01*
X61595364Y-56184419D01*
X61595366Y-56184421D01*
X61611138Y-56205306D01*
X62220000Y-55596445D01*
X62220000Y-55602661D01*
G37*
G04 #@! TD.AperFunction*
G04 #@! TA.AperFunction,Conductor*
G36*
X61400562Y-53273083D02*
G01*
X61453749Y-53318393D01*
X61469266Y-53352372D01*
X61495769Y-53445523D01*
X61495775Y-53445538D01*
X61594938Y-53644683D01*
X61594943Y-53644691D01*
X61729020Y-53822238D01*
X61861564Y-53943067D01*
X61891859Y-53970685D01*
X61893437Y-53972123D01*
X61893439Y-53972125D01*
X62082595Y-54089245D01*
X62082596Y-54089245D01*
X62082599Y-54089247D01*
X62277215Y-54164642D01*
X62332614Y-54207213D01*
X62356205Y-54272980D01*
X62340494Y-54341060D01*
X62290470Y-54389839D01*
X62277213Y-54395893D01*
X62082833Y-54471196D01*
X62082818Y-54471204D01*
X61966672Y-54543117D01*
X61966671Y-54543118D01*
X62573554Y-55150000D01*
X62567339Y-55150000D01*
X62465606Y-55177259D01*
X62374394Y-55229920D01*
X62299920Y-55304394D01*
X62247259Y-55395606D01*
X62220000Y-55497339D01*
X62220000Y-55503553D01*
X61611138Y-54894691D01*
X61611137Y-54894691D01*
X61595369Y-54915571D01*
X61496239Y-55114651D01*
X61496237Y-55114655D01*
X61469525Y-55208540D01*
X61432246Y-55267633D01*
X61368936Y-55297190D01*
X61299697Y-55287828D01*
X61246510Y-55242518D01*
X61230994Y-55208541D01*
X61204229Y-55114472D01*
X61195820Y-55097584D01*
X61105061Y-54915316D01*
X61105056Y-54915308D01*
X60970979Y-54737761D01*
X60806562Y-54587876D01*
X60806560Y-54587874D01*
X60617404Y-54470754D01*
X60617395Y-54470750D01*
X60523956Y-54434552D01*
X60423475Y-54395625D01*
X60368075Y-54353054D01*
X60344484Y-54287288D01*
X60360195Y-54219207D01*
X60410219Y-54170428D01*
X60423466Y-54164377D01*
X60617401Y-54089247D01*
X60806562Y-53972124D01*
X60970981Y-53822236D01*
X61105058Y-53644689D01*
X61204229Y-53445528D01*
X61230734Y-53352371D01*
X61268013Y-53293278D01*
X61331323Y-53263721D01*
X61400562Y-53273083D01*
G37*
G04 #@! TD.AperFunction*
G04 #@! TA.AperFunction,Conductor*
G36*
X89940854Y-46157250D02*
G01*
X89986609Y-46210054D01*
X89997815Y-46261565D01*
X89997815Y-77461122D01*
X89978130Y-77528161D01*
X89925326Y-77573916D01*
X89873815Y-77585122D01*
X58224000Y-77585122D01*
X58156961Y-77565437D01*
X58111206Y-77512633D01*
X58100000Y-77461122D01*
X58100000Y-47929999D01*
X58874357Y-47929999D01*
X58874357Y-47930000D01*
X58894884Y-48151535D01*
X58894885Y-48151537D01*
X58955769Y-48365523D01*
X58955775Y-48365538D01*
X59054938Y-48564683D01*
X59054943Y-48564691D01*
X59189020Y-48742238D01*
X59353437Y-48892123D01*
X59353439Y-48892125D01*
X59542595Y-49009245D01*
X59542596Y-49009245D01*
X59542599Y-49009247D01*
X59736524Y-49084374D01*
X59791924Y-49126946D01*
X59815515Y-49192713D01*
X59799804Y-49260793D01*
X59749780Y-49309572D01*
X59736533Y-49315622D01*
X59588488Y-49372975D01*
X59542601Y-49390752D01*
X59542595Y-49390754D01*
X59353439Y-49507874D01*
X59353437Y-49507876D01*
X59189020Y-49657761D01*
X59054943Y-49835308D01*
X59054938Y-49835316D01*
X58955775Y-50034461D01*
X58955769Y-50034476D01*
X58894885Y-50248462D01*
X58894884Y-50248464D01*
X58874357Y-50469999D01*
X58874357Y-50470000D01*
X58894884Y-50691535D01*
X58894885Y-50691537D01*
X58955769Y-50905523D01*
X58955775Y-50905538D01*
X59054938Y-51104683D01*
X59054943Y-51104691D01*
X59189020Y-51282238D01*
X59353437Y-51432123D01*
X59353439Y-51432125D01*
X59542595Y-51549245D01*
X59542596Y-51549245D01*
X59542599Y-51549247D01*
X59736524Y-51624374D01*
X59791924Y-51666946D01*
X59815515Y-51732713D01*
X59799804Y-51800793D01*
X59749780Y-51849572D01*
X59736533Y-51855622D01*
X59588488Y-51912975D01*
X59542601Y-51930752D01*
X59542595Y-51930754D01*
X59353439Y-52047874D01*
X59353437Y-52047876D01*
X59189020Y-52197761D01*
X59054943Y-52375308D01*
X59054938Y-52375316D01*
X58955775Y-52574461D01*
X58955769Y-52574476D01*
X58894885Y-52788462D01*
X58894884Y-52788464D01*
X58874357Y-53009999D01*
X58874357Y-53010000D01*
X58894884Y-53231535D01*
X58894885Y-53231537D01*
X58955769Y-53445523D01*
X58955775Y-53445538D01*
X59054938Y-53644683D01*
X59054943Y-53644691D01*
X59189020Y-53822238D01*
X59321564Y-53943067D01*
X59351859Y-53970685D01*
X59353437Y-53972123D01*
X59353439Y-53972125D01*
X59542595Y-54089245D01*
X59542596Y-54089245D01*
X59542599Y-54089247D01*
X59736524Y-54164374D01*
X59791924Y-54206946D01*
X59815515Y-54272713D01*
X59799804Y-54340793D01*
X59749780Y-54389572D01*
X59736533Y-54395622D01*
X59624932Y-54438857D01*
X59542601Y-54470752D01*
X59542595Y-54470754D01*
X59353439Y-54587874D01*
X59353437Y-54587876D01*
X59189020Y-54737761D01*
X59054943Y-54915308D01*
X59054938Y-54915316D01*
X58955775Y-55114461D01*
X58955769Y-55114476D01*
X58894885Y-55328462D01*
X58894884Y-55328464D01*
X58874357Y-55549999D01*
X58874357Y-55550000D01*
X58894884Y-55771535D01*
X58894885Y-55771537D01*
X58955769Y-55985523D01*
X58955775Y-55985538D01*
X59054938Y-56184683D01*
X59054943Y-56184691D01*
X59189020Y-56362238D01*
X59353437Y-56512123D01*
X59353439Y-56512125D01*
X59542595Y-56629245D01*
X59542601Y-56629248D01*
X59590616Y-56647849D01*
X59695295Y-56688401D01*
X59750695Y-56730974D01*
X59774286Y-56796741D01*
X59774500Y-56804028D01*
X59774500Y-56835971D01*
X59754815Y-56903010D01*
X59702011Y-56948765D01*
X59695294Y-56951597D01*
X59542610Y-57010747D01*
X59542595Y-57010754D01*
X59353439Y-57127874D01*
X59353437Y-57127876D01*
X59189020Y-57277761D01*
X59054943Y-57455308D01*
X59054938Y-57455316D01*
X58955775Y-57654461D01*
X58955769Y-57654476D01*
X58894885Y-57868462D01*
X58894884Y-57868464D01*
X58874357Y-58089999D01*
X58874357Y-58090000D01*
X58894884Y-58311535D01*
X58894885Y-58311537D01*
X58955769Y-58525523D01*
X58955775Y-58525538D01*
X59054938Y-58724683D01*
X59054943Y-58724691D01*
X59189020Y-58902238D01*
X59353437Y-59052123D01*
X59353439Y-59052125D01*
X59542595Y-59169245D01*
X59542596Y-59169245D01*
X59542599Y-59169247D01*
X59736524Y-59244374D01*
X59791924Y-59286946D01*
X59815515Y-59352713D01*
X59799804Y-59420793D01*
X59749780Y-59469572D01*
X59736533Y-59475622D01*
X59588678Y-59532902D01*
X59542601Y-59550752D01*
X59542595Y-59550754D01*
X59353439Y-59667874D01*
X59353437Y-59667876D01*
X59189020Y-59817761D01*
X59054943Y-59995308D01*
X59054938Y-59995316D01*
X58955775Y-60194461D01*
X58955769Y-60194476D01*
X58894885Y-60408462D01*
X58894884Y-60408464D01*
X58874357Y-60629999D01*
X58874357Y-60630000D01*
X58894884Y-60851535D01*
X58894885Y-60851537D01*
X58955769Y-61065523D01*
X58955775Y-61065538D01*
X59054938Y-61264683D01*
X59054943Y-61264691D01*
X59189020Y-61442238D01*
X59353437Y-61592123D01*
X59353439Y-61592125D01*
X59542595Y-61709245D01*
X59542596Y-61709245D01*
X59542599Y-61709247D01*
X59736524Y-61784374D01*
X59791924Y-61826946D01*
X59815515Y-61892713D01*
X59799804Y-61960793D01*
X59749780Y-62009572D01*
X59736533Y-62015622D01*
X59588488Y-62072975D01*
X59542601Y-62090752D01*
X59542595Y-62090754D01*
X59353439Y-62207874D01*
X59353437Y-62207876D01*
X59189020Y-62357761D01*
X59054943Y-62535308D01*
X59054938Y-62535316D01*
X58955775Y-62734461D01*
X58955769Y-62734476D01*
X58894885Y-62948462D01*
X58894884Y-62948464D01*
X58874357Y-63169999D01*
X58874357Y-63170000D01*
X58894884Y-63391535D01*
X58894885Y-63391537D01*
X58955769Y-63605523D01*
X58955775Y-63605538D01*
X59054938Y-63804683D01*
X59054943Y-63804691D01*
X59189020Y-63982238D01*
X59353437Y-64132123D01*
X59353439Y-64132125D01*
X59542595Y-64249245D01*
X59542596Y-64249245D01*
X59542599Y-64249247D01*
X59736524Y-64324374D01*
X59791924Y-64366946D01*
X59815515Y-64432713D01*
X59799804Y-64500793D01*
X59749780Y-64549572D01*
X59736533Y-64555622D01*
X59588488Y-64612975D01*
X59542601Y-64630752D01*
X59542595Y-64630754D01*
X59353439Y-64747874D01*
X59353437Y-64747876D01*
X59189020Y-64897761D01*
X59054943Y-65075308D01*
X59054938Y-65075316D01*
X58955775Y-65274461D01*
X58955769Y-65274476D01*
X58894885Y-65488462D01*
X58894884Y-65488464D01*
X58874357Y-65709999D01*
X58874357Y-65710000D01*
X58894884Y-65931535D01*
X58894885Y-65931537D01*
X58955769Y-66145523D01*
X58955775Y-66145538D01*
X59054938Y-66344683D01*
X59054943Y-66344691D01*
X59189020Y-66522238D01*
X59353437Y-66672123D01*
X59353439Y-66672125D01*
X59542595Y-66789245D01*
X59542596Y-66789245D01*
X59542599Y-66789247D01*
X59736524Y-66864374D01*
X59791924Y-66906946D01*
X59815515Y-66972713D01*
X59799804Y-67040793D01*
X59749780Y-67089572D01*
X59736533Y-67095622D01*
X59636179Y-67134500D01*
X59542601Y-67170752D01*
X59542595Y-67170754D01*
X59353439Y-67287874D01*
X59353437Y-67287876D01*
X59189020Y-67437761D01*
X59054943Y-67615308D01*
X59054938Y-67615316D01*
X58955775Y-67814461D01*
X58955769Y-67814476D01*
X58894885Y-68028462D01*
X58894884Y-68028464D01*
X58874357Y-68249999D01*
X58874357Y-68250000D01*
X58894884Y-68471535D01*
X58894885Y-68471537D01*
X58955769Y-68685523D01*
X58955775Y-68685538D01*
X59054938Y-68884683D01*
X59054943Y-68884691D01*
X59189020Y-69062238D01*
X59353437Y-69212123D01*
X59353439Y-69212125D01*
X59542595Y-69329245D01*
X59542596Y-69329245D01*
X59542599Y-69329247D01*
X59737215Y-69404642D01*
X59792614Y-69447213D01*
X59816205Y-69512980D01*
X59800494Y-69581060D01*
X59750470Y-69629839D01*
X59737213Y-69635893D01*
X59542833Y-69711196D01*
X59542818Y-69711204D01*
X59426672Y-69783117D01*
X59426671Y-69783118D01*
X60033553Y-70390000D01*
X60027339Y-70390000D01*
X59925606Y-70417259D01*
X59834394Y-70469920D01*
X59759920Y-70544394D01*
X59707259Y-70635606D01*
X59680000Y-70737339D01*
X59680000Y-70743553D01*
X59071138Y-70134691D01*
X59071137Y-70134691D01*
X59055369Y-70155571D01*
X58956240Y-70354649D01*
X58895378Y-70568560D01*
X58874859Y-70789999D01*
X58874859Y-70790000D01*
X58895378Y-71011439D01*
X58956240Y-71225350D01*
X59055364Y-71424419D01*
X59055366Y-71424421D01*
X59071138Y-71445306D01*
X59680000Y-70836445D01*
X59680000Y-70842661D01*
X59707259Y-70944394D01*
X59759920Y-71035606D01*
X59834394Y-71110080D01*
X59925606Y-71162741D01*
X60027339Y-71190000D01*
X60033552Y-71190000D01*
X59426671Y-71796880D01*
X59542823Y-71868798D01*
X59542824Y-71868799D01*
X59750195Y-71949134D01*
X59968807Y-71990000D01*
X60191193Y-71990000D01*
X60409804Y-71949134D01*
X60617177Y-71868798D01*
X60617181Y-71868796D01*
X60685221Y-71826667D01*
X60752582Y-71808110D01*
X60819281Y-71828918D01*
X60864143Y-71882482D01*
X60874500Y-71932093D01*
X60874500Y-74261611D01*
X60898535Y-74382444D01*
X60898540Y-74382461D01*
X60945685Y-74496280D01*
X60945687Y-74496283D01*
X60945688Y-74496286D01*
X60978126Y-74544832D01*
X60979914Y-74547507D01*
X60979915Y-74547509D01*
X61014141Y-74598733D01*
X61105586Y-74690178D01*
X61105608Y-74690198D01*
X62871016Y-76455606D01*
X62871045Y-76455637D01*
X62961263Y-76545855D01*
X62961267Y-76545858D01*
X63063707Y-76614307D01*
X63063713Y-76614310D01*
X63063714Y-76614311D01*
X63177548Y-76661463D01*
X63204116Y-76666747D01*
X63228083Y-76671515D01*
X63228103Y-76671518D01*
X63228125Y-76671523D01*
X63298391Y-76685499D01*
X63298392Y-76685500D01*
X63298393Y-76685500D01*
X63298394Y-76685500D01*
X63789329Y-76685500D01*
X63856368Y-76705185D01*
X63900384Y-76755982D01*
X63900625Y-76755856D01*
X63901170Y-76756889D01*
X63902123Y-76757989D01*
X63903585Y-76761465D01*
X63971178Y-76889567D01*
X63971181Y-76889572D01*
X63971183Y-76889575D01*
X64009327Y-76942075D01*
X64026955Y-76964935D01*
X64132957Y-77062223D01*
X64146369Y-77068817D01*
X64262072Y-77125705D01*
X64262086Y-77125710D01*
X64293634Y-77135960D01*
X64323792Y-77145759D01*
X64337584Y-77150024D01*
X64480000Y-77170500D01*
X64480003Y-77170500D01*
X67979992Y-77170500D01*
X67980000Y-77170500D01*
X68038682Y-77165882D01*
X68048410Y-77165500D01*
X68480000Y-77165500D01*
X68551940Y-77160355D01*
X68689992Y-77119819D01*
X68811032Y-77042031D01*
X68905254Y-76933294D01*
X68965024Y-76802416D01*
X68985500Y-76660000D01*
X68985500Y-75460000D01*
X68985500Y-75459999D01*
X79214500Y-75459999D01*
X79214500Y-76660002D01*
X79219644Y-76731940D01*
X79260182Y-76869994D01*
X79337967Y-76991030D01*
X79337971Y-76991034D01*
X79420126Y-77062222D01*
X79446706Y-77085254D01*
X79487174Y-77103735D01*
X79577580Y-77145023D01*
X79577583Y-77145023D01*
X79577584Y-77145024D01*
X79720000Y-77165500D01*
X80176355Y-77165500D01*
X80194001Y-77166762D01*
X80220000Y-77170500D01*
X80220003Y-77170500D01*
X83719992Y-77170500D01*
X83720000Y-77170500D01*
X83799076Y-77164277D01*
X83831523Y-77159138D01*
X83922323Y-77135962D01*
X83941753Y-77125710D01*
X84049567Y-77068821D01*
X84049575Y-77068817D01*
X84102075Y-77030673D01*
X84124935Y-77013045D01*
X84222223Y-76907043D01*
X84285706Y-76777925D01*
X84305759Y-76716208D01*
X84310024Y-76702416D01*
X84330500Y-76560000D01*
X84330500Y-75560000D01*
X84324277Y-75480924D01*
X84319138Y-75448477D01*
X84295962Y-75357677D01*
X84295958Y-75357671D01*
X84295958Y-75357668D01*
X84228821Y-75230432D01*
X84228818Y-75230427D01*
X84216125Y-75212957D01*
X84190673Y-75177925D01*
X84173045Y-75155065D01*
X84067043Y-75057777D01*
X84067041Y-75057776D01*
X83937927Y-74994294D01*
X83937913Y-74994289D01*
X83876252Y-74974255D01*
X83876233Y-74974249D01*
X83876208Y-74974241D01*
X83870872Y-74972590D01*
X83862418Y-74969976D01*
X83790554Y-74959644D01*
X83720000Y-74949500D01*
X80220000Y-74949500D01*
X80219992Y-74949500D01*
X80161318Y-74954118D01*
X80151590Y-74954500D01*
X79719997Y-74954500D01*
X79648059Y-74959644D01*
X79510005Y-75000182D01*
X79388969Y-75077967D01*
X79388965Y-75077971D01*
X79294750Y-75186700D01*
X79294744Y-75186709D01*
X79234976Y-75317580D01*
X79234975Y-75317585D01*
X79214500Y-75459999D01*
X68985500Y-75459999D01*
X68980355Y-75388060D01*
X68939819Y-75250008D01*
X68878803Y-75155065D01*
X68862032Y-75128969D01*
X68862028Y-75128965D01*
X68753299Y-75034750D01*
X68753297Y-75034748D01*
X68753294Y-75034746D01*
X68753290Y-75034744D01*
X68622419Y-74974976D01*
X68622414Y-74974975D01*
X68480000Y-74954500D01*
X68023645Y-74954500D01*
X68005999Y-74953238D01*
X67980001Y-74949500D01*
X67980000Y-74949500D01*
X64480000Y-74949500D01*
X64479992Y-74949500D01*
X64400936Y-74955721D01*
X64368470Y-74960863D01*
X64312501Y-74975149D01*
X64277677Y-74984038D01*
X64277675Y-74984038D01*
X64277675Y-74984039D01*
X64277668Y-74984041D01*
X64150432Y-75051178D01*
X64150427Y-75051181D01*
X64097925Y-75089326D01*
X64075065Y-75106954D01*
X64075063Y-75106956D01*
X63977777Y-75212956D01*
X63977776Y-75212958D01*
X63914294Y-75342072D01*
X63914293Y-75342075D01*
X63912105Y-75348813D01*
X63872669Y-75406490D01*
X63808312Y-75433691D01*
X63794172Y-75434500D01*
X63670452Y-75434500D01*
X63603413Y-75414815D01*
X63582771Y-75398181D01*
X62161819Y-73977229D01*
X62128334Y-73915906D01*
X62125500Y-73889548D01*
X62125500Y-72066884D01*
X62145185Y-71999845D01*
X62197989Y-71954090D01*
X62267147Y-71944146D01*
X62284373Y-71948662D01*
X62284548Y-71948049D01*
X62290047Y-71949613D01*
X62290060Y-71949618D01*
X62508757Y-71990500D01*
X62508759Y-71990500D01*
X62731241Y-71990500D01*
X62731243Y-71990500D01*
X62949940Y-71949618D01*
X63005709Y-71928012D01*
X63075329Y-71922151D01*
X63137069Y-71954861D01*
X63171324Y-72015757D01*
X63174500Y-72043640D01*
X63174500Y-73361611D01*
X63198535Y-73482444D01*
X63198540Y-73482461D01*
X63245685Y-73596280D01*
X63245686Y-73596282D01*
X63245688Y-73596286D01*
X63262248Y-73621070D01*
X63278696Y-73645686D01*
X63278698Y-73645688D01*
X63314140Y-73698731D01*
X63314141Y-73698732D01*
X63314142Y-73698733D01*
X63401267Y-73785858D01*
X63401269Y-73785859D01*
X63556319Y-73940910D01*
X63601268Y-73985859D01*
X63703710Y-74054309D01*
X63703711Y-74054309D01*
X63703715Y-74054312D01*
X63770396Y-74081931D01*
X63770398Y-74081933D01*
X63822422Y-74103482D01*
X63876826Y-74147323D01*
X63895116Y-74187371D01*
X63904038Y-74222323D01*
X63904039Y-74222326D01*
X63904041Y-74222331D01*
X63971178Y-74349567D01*
X63971181Y-74349572D01*
X63971183Y-74349575D01*
X64009327Y-74402075D01*
X64026955Y-74424935D01*
X64132957Y-74522223D01*
X64184382Y-74547507D01*
X64262072Y-74585705D01*
X64262086Y-74585710D01*
X64292193Y-74595492D01*
X64323792Y-74605759D01*
X64337584Y-74610024D01*
X64480000Y-74630500D01*
X64480003Y-74630500D01*
X67979992Y-74630500D01*
X67980000Y-74630500D01*
X68038682Y-74625882D01*
X68048410Y-74625500D01*
X68480000Y-74625500D01*
X68551940Y-74620355D01*
X68689992Y-74579819D01*
X68811032Y-74502031D01*
X68905254Y-74393294D01*
X68965024Y-74262416D01*
X68985500Y-74120000D01*
X68985500Y-72920001D01*
X79215000Y-72920001D01*
X79215000Y-74120002D01*
X79220140Y-74191870D01*
X79260634Y-74329781D01*
X79338345Y-74450703D01*
X79446976Y-74544832D01*
X79446977Y-74544833D01*
X79577721Y-74604543D01*
X79577725Y-74604544D01*
X79720001Y-74624999D01*
X79720003Y-74625000D01*
X80176355Y-74625000D01*
X80194001Y-74626262D01*
X80219998Y-74629999D01*
X80220003Y-74630000D01*
X80420001Y-74630000D01*
X80420001Y-74629999D01*
X81013552Y-74629999D01*
X81013553Y-74630000D01*
X82526448Y-74630000D01*
X82526448Y-74629999D01*
X81770000Y-73873552D01*
X81769999Y-73873552D01*
X81013552Y-74629999D01*
X80420001Y-74629999D01*
X80426052Y-74615389D01*
X80417421Y-74599581D01*
X80422405Y-74529889D01*
X80450906Y-74485542D01*
X81416448Y-73520000D01*
X81416448Y-73519999D01*
X81416447Y-73519998D01*
X82123551Y-73519998D01*
X82123551Y-73519999D01*
X83089094Y-74485542D01*
X83122579Y-74546865D01*
X83117595Y-74616557D01*
X83115671Y-74619549D01*
X83120000Y-74630000D01*
X83719992Y-74630000D01*
X83720007Y-74629999D01*
X83798985Y-74623784D01*
X83831454Y-74618641D01*
X83922152Y-74595492D01*
X84049280Y-74528412D01*
X84101780Y-74490269D01*
X84124616Y-74472659D01*
X84221810Y-74366760D01*
X84221811Y-74366758D01*
X84285229Y-74237772D01*
X84285235Y-74237758D01*
X84305287Y-74176043D01*
X84309541Y-74162283D01*
X84309544Y-74162270D01*
X84329999Y-74019998D01*
X84330000Y-74019997D01*
X84330000Y-73020007D01*
X84329999Y-73019992D01*
X84323784Y-72941014D01*
X84318641Y-72908545D01*
X84295492Y-72817847D01*
X84228412Y-72690719D01*
X84190269Y-72638219D01*
X84172659Y-72615383D01*
X84066760Y-72518189D01*
X84066758Y-72518188D01*
X83937772Y-72454770D01*
X83937758Y-72454764D01*
X83876043Y-72434712D01*
X83862283Y-72430458D01*
X83862270Y-72430455D01*
X83719998Y-72410000D01*
X83119999Y-72410000D01*
X83113946Y-72424611D01*
X83122578Y-72440418D01*
X83117594Y-72510110D01*
X83089093Y-72554457D01*
X82123551Y-73519998D01*
X81416447Y-73519998D01*
X80450905Y-72554457D01*
X80417420Y-72493134D01*
X80422404Y-72423442D01*
X80424327Y-72420448D01*
X80420000Y-72410000D01*
X81013551Y-72410000D01*
X81769999Y-73166447D01*
X82526447Y-72410000D01*
X81013551Y-72410000D01*
X80420000Y-72410000D01*
X80219992Y-72410000D01*
X80161319Y-72414618D01*
X80151591Y-72415000D01*
X79719997Y-72415000D01*
X79648129Y-72420140D01*
X79510218Y-72460634D01*
X79389296Y-72538345D01*
X79295167Y-72646976D01*
X79295166Y-72646977D01*
X79235456Y-72777721D01*
X79235455Y-72777725D01*
X79215000Y-72920001D01*
X68985500Y-72920001D01*
X68985500Y-72920000D01*
X68980355Y-72848060D01*
X68939819Y-72710008D01*
X68862031Y-72588968D01*
X68803609Y-72538345D01*
X68753299Y-72494750D01*
X68753297Y-72494748D01*
X68753294Y-72494746D01*
X68753290Y-72494744D01*
X68622419Y-72434976D01*
X68622414Y-72434975D01*
X68480000Y-72414500D01*
X68023645Y-72414500D01*
X68005999Y-72413238D01*
X67980001Y-72409500D01*
X67980000Y-72409500D01*
X64549500Y-72409500D01*
X64482461Y-72389815D01*
X64436706Y-72337011D01*
X64425500Y-72285500D01*
X64425500Y-72214500D01*
X64445185Y-72147461D01*
X64497989Y-72101706D01*
X64549500Y-72090500D01*
X67979992Y-72090500D01*
X67980000Y-72090500D01*
X68038682Y-72085882D01*
X68048410Y-72085500D01*
X68480000Y-72085500D01*
X68551940Y-72080355D01*
X68689992Y-72039819D01*
X68811032Y-71962031D01*
X68905254Y-71853294D01*
X68965024Y-71722416D01*
X68981625Y-71606944D01*
X69010649Y-71543391D01*
X69035467Y-71521495D01*
X69083404Y-71489464D01*
X69118733Y-71465858D01*
X69205858Y-71378733D01*
X69205858Y-71378731D01*
X69216066Y-71368524D01*
X69216067Y-71368521D01*
X70935857Y-69648734D01*
X70948120Y-69630382D01*
X71004311Y-69546286D01*
X71051463Y-69432452D01*
X71075500Y-69311606D01*
X71075500Y-68559452D01*
X71095185Y-68492413D01*
X71147989Y-68446658D01*
X71217147Y-68436714D01*
X71280703Y-68465739D01*
X71287181Y-68471771D01*
X71741262Y-68925854D01*
X71741265Y-68925857D01*
X71761754Y-68939547D01*
X71843714Y-68994311D01*
X71957548Y-69041463D01*
X72078388Y-69065499D01*
X72078392Y-69065500D01*
X72078393Y-69065500D01*
X72078394Y-69065500D01*
X79113184Y-69065500D01*
X79180223Y-69085185D01*
X79225978Y-69137989D01*
X79232159Y-69154559D01*
X79249062Y-69212125D01*
X79260182Y-69249994D01*
X79337967Y-69371030D01*
X79337971Y-69371034D01*
X79446700Y-69465249D01*
X79446706Y-69465254D01*
X79487174Y-69483735D01*
X79577580Y-69525023D01*
X79577583Y-69525023D01*
X79577584Y-69525024D01*
X79720000Y-69545500D01*
X80176355Y-69545500D01*
X80194001Y-69546762D01*
X80220000Y-69550500D01*
X80220003Y-69550500D01*
X83719992Y-69550500D01*
X83720000Y-69550500D01*
X83799076Y-69544277D01*
X83831523Y-69539138D01*
X83922323Y-69515962D01*
X83927975Y-69512980D01*
X84049567Y-69448821D01*
X84049575Y-69448817D01*
X84102075Y-69410673D01*
X84124935Y-69393045D01*
X84222223Y-69287043D01*
X84285706Y-69157925D01*
X84305759Y-69096208D01*
X84310024Y-69082416D01*
X84314732Y-69049667D01*
X84343754Y-68986114D01*
X84402531Y-68948339D01*
X84472401Y-68948337D01*
X84531180Y-68986110D01*
X84536423Y-68992588D01*
X84589020Y-69062238D01*
X84753437Y-69212123D01*
X84753439Y-69212125D01*
X84942595Y-69329245D01*
X84942596Y-69329245D01*
X84942599Y-69329247D01*
X85136524Y-69404374D01*
X85191924Y-69446946D01*
X85215515Y-69512713D01*
X85199804Y-69580793D01*
X85149780Y-69629572D01*
X85136533Y-69635622D01*
X85036179Y-69674500D01*
X84942601Y-69710752D01*
X84942595Y-69710754D01*
X84753439Y-69827874D01*
X84753437Y-69827876D01*
X84589020Y-69977761D01*
X84454943Y-70155308D01*
X84454934Y-70155323D01*
X84454202Y-70156794D01*
X84453666Y-70157371D01*
X84451923Y-70160187D01*
X84451371Y-70159845D01*
X84406692Y-70208025D01*
X84339027Y-70225437D01*
X84272690Y-70203503D01*
X84233539Y-70159373D01*
X84228821Y-70150432D01*
X84228818Y-70150427D01*
X84190673Y-70097925D01*
X84173045Y-70075065D01*
X84173043Y-70075063D01*
X84067043Y-69977777D01*
X84067041Y-69977776D01*
X83937927Y-69914294D01*
X83937913Y-69914289D01*
X83876252Y-69894255D01*
X83876233Y-69894249D01*
X83876208Y-69894241D01*
X83870872Y-69892590D01*
X83862418Y-69889976D01*
X83790554Y-69879644D01*
X83720000Y-69869500D01*
X80220000Y-69869500D01*
X80219992Y-69869500D01*
X80161318Y-69874118D01*
X80151590Y-69874500D01*
X79719997Y-69874500D01*
X79648059Y-69879644D01*
X79510005Y-69920182D01*
X79388969Y-69997967D01*
X79388965Y-69997971D01*
X79294750Y-70106700D01*
X79294744Y-70106709D01*
X79234976Y-70237580D01*
X79234975Y-70237585D01*
X79214500Y-70379999D01*
X79214500Y-71580002D01*
X79219644Y-71651940D01*
X79260182Y-71789994D01*
X79337967Y-71911030D01*
X79337971Y-71911034D01*
X79427737Y-71988817D01*
X79446706Y-72005254D01*
X79487174Y-72023735D01*
X79577580Y-72065023D01*
X79577583Y-72065023D01*
X79577584Y-72065024D01*
X79720000Y-72085500D01*
X80176355Y-72085500D01*
X80194001Y-72086762D01*
X80220000Y-72090500D01*
X80220003Y-72090500D01*
X83719992Y-72090500D01*
X83720000Y-72090500D01*
X83799076Y-72084277D01*
X83831523Y-72079138D01*
X83922323Y-72055962D01*
X83945676Y-72043640D01*
X84049567Y-71988821D01*
X84049575Y-71988817D01*
X84102075Y-71950673D01*
X84124935Y-71933045D01*
X84222223Y-71827043D01*
X84285706Y-71697925D01*
X84305759Y-71636208D01*
X84310024Y-71622416D01*
X84314732Y-71589667D01*
X84343754Y-71526114D01*
X84402531Y-71488339D01*
X84472401Y-71488337D01*
X84531180Y-71526110D01*
X84536423Y-71532588D01*
X84589020Y-71602238D01*
X84753437Y-71752123D01*
X84753439Y-71752125D01*
X84942595Y-71869245D01*
X84942596Y-71869245D01*
X84942599Y-71869247D01*
X85150060Y-71949618D01*
X85368757Y-71990500D01*
X85368759Y-71990500D01*
X85591241Y-71990500D01*
X85591243Y-71990500D01*
X85809940Y-71949618D01*
X86017401Y-71869247D01*
X86206562Y-71752124D01*
X86370981Y-71602236D01*
X86505058Y-71424689D01*
X86604229Y-71225528D01*
X86630995Y-71131455D01*
X86668272Y-71072367D01*
X86731581Y-71042809D01*
X86800821Y-71052171D01*
X86854007Y-71097480D01*
X86869525Y-71131460D01*
X86896236Y-71225342D01*
X86896239Y-71225348D01*
X86995364Y-71424419D01*
X86995366Y-71424421D01*
X87011138Y-71445306D01*
X87620000Y-70836445D01*
X87620000Y-70842661D01*
X87647259Y-70944394D01*
X87699920Y-71035606D01*
X87774394Y-71110080D01*
X87865606Y-71162741D01*
X87967339Y-71190000D01*
X87973554Y-71190000D01*
X87366671Y-71796880D01*
X87482823Y-71868798D01*
X87482824Y-71868799D01*
X87690195Y-71949134D01*
X87908807Y-71990000D01*
X88131193Y-71990000D01*
X88349804Y-71949134D01*
X88557177Y-71868798D01*
X88557178Y-71868797D01*
X88673327Y-71796880D01*
X88066447Y-71190000D01*
X88072661Y-71190000D01*
X88174394Y-71162741D01*
X88265606Y-71110080D01*
X88340080Y-71035606D01*
X88392741Y-70944394D01*
X88420000Y-70842661D01*
X88420000Y-70836446D01*
X89028860Y-71445306D01*
X89028861Y-71445306D01*
X89044631Y-71424425D01*
X89044632Y-71424422D01*
X89143759Y-71225350D01*
X89204621Y-71011439D01*
X89225141Y-70790000D01*
X89225141Y-70789999D01*
X89204621Y-70568560D01*
X89143759Y-70354649D01*
X89044633Y-70155577D01*
X89044631Y-70155574D01*
X89028860Y-70134691D01*
X88420000Y-70743552D01*
X88420000Y-70737339D01*
X88392741Y-70635606D01*
X88340080Y-70544394D01*
X88265606Y-70469920D01*
X88174394Y-70417259D01*
X88072661Y-70390000D01*
X88066447Y-70390000D01*
X88673327Y-69783118D01*
X88673326Y-69783117D01*
X88557181Y-69711203D01*
X88557175Y-69711200D01*
X88362786Y-69635894D01*
X88307384Y-69593321D01*
X88283794Y-69527554D01*
X88299505Y-69459474D01*
X88349529Y-69410695D01*
X88362772Y-69404646D01*
X88557401Y-69329247D01*
X88746562Y-69212124D01*
X88910981Y-69062236D01*
X89045058Y-68884689D01*
X89144229Y-68685528D01*
X89205115Y-68471536D01*
X89225643Y-68250000D01*
X89205115Y-68028464D01*
X89144229Y-67814472D01*
X89134441Y-67794815D01*
X89045061Y-67615316D01*
X89045056Y-67615308D01*
X88910979Y-67437761D01*
X88746562Y-67287876D01*
X88746560Y-67287874D01*
X88557404Y-67170754D01*
X88557395Y-67170750D01*
X88420063Y-67117548D01*
X88363475Y-67095625D01*
X88308075Y-67053054D01*
X88284484Y-66987288D01*
X88300195Y-66919207D01*
X88350219Y-66870428D01*
X88363466Y-66864377D01*
X88557401Y-66789247D01*
X88746562Y-66672124D01*
X88910981Y-66522236D01*
X89045058Y-66344689D01*
X89144229Y-66145528D01*
X89205115Y-65931536D01*
X89225643Y-65710000D01*
X89205115Y-65488464D01*
X89144229Y-65274472D01*
X89142252Y-65270501D01*
X89045061Y-65075316D01*
X89045056Y-65075308D01*
X88910979Y-64897761D01*
X88746562Y-64747876D01*
X88746560Y-64747874D01*
X88557404Y-64630754D01*
X88557395Y-64630750D01*
X88463956Y-64594552D01*
X88363475Y-64555625D01*
X88308075Y-64513054D01*
X88284484Y-64447288D01*
X88300195Y-64379207D01*
X88350219Y-64330428D01*
X88363466Y-64324377D01*
X88557401Y-64249247D01*
X88746562Y-64132124D01*
X88910981Y-63982236D01*
X89045058Y-63804689D01*
X89144229Y-63605528D01*
X89205115Y-63391536D01*
X89225643Y-63170000D01*
X89205115Y-62948464D01*
X89144229Y-62734472D01*
X89142857Y-62731716D01*
X89045061Y-62535316D01*
X89045056Y-62535308D01*
X88910979Y-62357761D01*
X88746562Y-62207876D01*
X88746560Y-62207874D01*
X88557404Y-62090754D01*
X88557395Y-62090750D01*
X88443576Y-62046657D01*
X88363475Y-62015625D01*
X88308075Y-61973054D01*
X88284484Y-61907288D01*
X88300195Y-61839207D01*
X88350219Y-61790428D01*
X88363466Y-61784377D01*
X88557401Y-61709247D01*
X88746562Y-61592124D01*
X88910981Y-61442236D01*
X89045058Y-61264689D01*
X89144229Y-61065528D01*
X89205115Y-60851536D01*
X89225643Y-60630000D01*
X89205115Y-60408464D01*
X89144229Y-60194472D01*
X89139337Y-60184647D01*
X89045061Y-59995316D01*
X89045056Y-59995308D01*
X88910979Y-59817761D01*
X88746562Y-59667876D01*
X88746560Y-59667874D01*
X88557404Y-59550754D01*
X88557395Y-59550750D01*
X88463956Y-59514552D01*
X88363475Y-59475625D01*
X88308075Y-59433054D01*
X88284484Y-59367288D01*
X88300195Y-59299207D01*
X88350219Y-59250428D01*
X88363466Y-59244377D01*
X88557401Y-59169247D01*
X88746562Y-59052124D01*
X88910981Y-58902236D01*
X89045058Y-58724689D01*
X89144229Y-58525528D01*
X89205115Y-58311536D01*
X89225643Y-58090000D01*
X89205115Y-57868464D01*
X89144229Y-57654472D01*
X89129435Y-57624761D01*
X89045061Y-57455316D01*
X89045056Y-57455308D01*
X88910979Y-57277761D01*
X88746562Y-57127876D01*
X88746561Y-57127875D01*
X88684221Y-57089275D01*
X88637586Y-57037247D01*
X88625500Y-56983849D01*
X88625500Y-56938396D01*
X88624896Y-56935359D01*
X88623907Y-56930387D01*
X88623907Y-56930381D01*
X88623906Y-56930382D01*
X88607023Y-56845500D01*
X88607023Y-56845499D01*
X88601464Y-56817553D01*
X88601463Y-56817552D01*
X88601463Y-56817548D01*
X88595863Y-56804028D01*
X88573692Y-56750502D01*
X88573692Y-56750503D01*
X88573691Y-56750500D01*
X88570732Y-56743358D01*
X88563262Y-56673891D01*
X88594535Y-56611411D01*
X88620012Y-56590479D01*
X88746562Y-56512124D01*
X88910981Y-56362236D01*
X89045058Y-56184689D01*
X89144229Y-55985528D01*
X89205115Y-55771536D01*
X89225643Y-55550000D01*
X89205115Y-55328464D01*
X89144229Y-55114472D01*
X89135820Y-55097584D01*
X89045061Y-54915316D01*
X89045056Y-54915308D01*
X88910979Y-54737761D01*
X88746562Y-54587876D01*
X88746560Y-54587874D01*
X88557404Y-54470754D01*
X88557395Y-54470750D01*
X88463956Y-54434552D01*
X88363475Y-54395625D01*
X88308075Y-54353054D01*
X88284484Y-54287288D01*
X88300195Y-54219207D01*
X88350219Y-54170428D01*
X88363466Y-54164377D01*
X88557401Y-54089247D01*
X88746562Y-53972124D01*
X88910981Y-53822236D01*
X89045058Y-53644689D01*
X89144229Y-53445528D01*
X89205115Y-53231536D01*
X89225643Y-53010000D01*
X89205115Y-52788464D01*
X89144229Y-52574472D01*
X89124146Y-52534140D01*
X89045061Y-52375316D01*
X89045056Y-52375308D01*
X88910979Y-52197761D01*
X88746562Y-52047876D01*
X88746560Y-52047874D01*
X88557404Y-51930754D01*
X88557395Y-51930750D01*
X88463956Y-51894552D01*
X88363475Y-51855625D01*
X88308075Y-51813054D01*
X88284484Y-51747288D01*
X88300195Y-51679207D01*
X88350219Y-51630428D01*
X88363466Y-51624377D01*
X88557401Y-51549247D01*
X88746562Y-51432124D01*
X88910981Y-51282236D01*
X89045058Y-51104689D01*
X89050266Y-51094231D01*
X89144224Y-50905538D01*
X89144223Y-50905538D01*
X89144229Y-50905528D01*
X89205115Y-50691536D01*
X89225643Y-50470000D01*
X89205115Y-50248464D01*
X89144229Y-50034472D01*
X89144224Y-50034461D01*
X89045061Y-49835316D01*
X89045056Y-49835308D01*
X88910979Y-49657761D01*
X88746562Y-49507876D01*
X88746560Y-49507874D01*
X88557404Y-49390754D01*
X88557395Y-49390750D01*
X88463956Y-49354552D01*
X88363475Y-49315625D01*
X88308075Y-49273054D01*
X88284484Y-49207288D01*
X88300195Y-49139207D01*
X88350219Y-49090428D01*
X88363466Y-49084377D01*
X88557401Y-49009247D01*
X88746562Y-48892124D01*
X88910981Y-48742236D01*
X89045058Y-48564689D01*
X89144229Y-48365528D01*
X89205115Y-48151536D01*
X89225643Y-47930000D01*
X89205115Y-47708464D01*
X89144229Y-47494472D01*
X89144224Y-47494461D01*
X89045061Y-47295316D01*
X89045056Y-47295308D01*
X88910979Y-47117761D01*
X88746562Y-46967876D01*
X88746560Y-46967874D01*
X88557404Y-46850754D01*
X88557398Y-46850752D01*
X88349940Y-46770382D01*
X88131243Y-46729500D01*
X87908757Y-46729500D01*
X87690060Y-46770382D01*
X87558864Y-46821207D01*
X87482601Y-46850752D01*
X87482595Y-46850754D01*
X87293439Y-46967874D01*
X87293437Y-46967876D01*
X87129020Y-47117761D01*
X86994943Y-47295308D01*
X86994938Y-47295316D01*
X86895775Y-47494461D01*
X86895769Y-47494476D01*
X86869266Y-47587627D01*
X86831987Y-47646721D01*
X86768677Y-47676278D01*
X86699438Y-47666916D01*
X86646251Y-47621606D01*
X86630734Y-47587627D01*
X86604230Y-47494476D01*
X86604229Y-47494472D01*
X86604224Y-47494461D01*
X86505061Y-47295316D01*
X86505056Y-47295308D01*
X86370979Y-47117761D01*
X86206562Y-46967876D01*
X86206560Y-46967874D01*
X86017404Y-46850754D01*
X86017398Y-46850752D01*
X85809940Y-46770382D01*
X85591243Y-46729500D01*
X85368757Y-46729500D01*
X85150060Y-46770382D01*
X85018864Y-46821207D01*
X84942601Y-46850752D01*
X84942595Y-46850754D01*
X84753439Y-46967874D01*
X84753437Y-46967876D01*
X84589020Y-47117761D01*
X84454943Y-47295308D01*
X84454938Y-47295316D01*
X84355775Y-47494461D01*
X84355769Y-47494476D01*
X84294885Y-47708462D01*
X84294884Y-47708464D01*
X84274357Y-47929999D01*
X84274357Y-47930000D01*
X84294884Y-48151535D01*
X84294885Y-48151537D01*
X84355769Y-48365523D01*
X84355775Y-48365538D01*
X84454938Y-48564683D01*
X84454943Y-48564691D01*
X84589020Y-48742238D01*
X84753437Y-48892123D01*
X84753439Y-48892125D01*
X84942595Y-49009245D01*
X84942596Y-49009245D01*
X84942599Y-49009247D01*
X85136524Y-49084374D01*
X85191924Y-49126946D01*
X85215515Y-49192713D01*
X85199804Y-49260793D01*
X85149780Y-49309572D01*
X85136533Y-49315622D01*
X84988488Y-49372975D01*
X84942601Y-49390752D01*
X84942595Y-49390754D01*
X84753439Y-49507874D01*
X84753437Y-49507876D01*
X84589020Y-49657761D01*
X84538073Y-49725227D01*
X84481964Y-49766863D01*
X84439119Y-49774500D01*
X70167741Y-49774500D01*
X70167721Y-49774499D01*
X70161607Y-49774499D01*
X70038394Y-49774499D01*
X69937597Y-49794548D01*
X69937592Y-49794548D01*
X69917549Y-49798536D01*
X69917547Y-49798536D01*
X69870397Y-49818067D01*
X69803719Y-49845685D01*
X69803717Y-49845686D01*
X69701266Y-49914141D01*
X69701263Y-49914144D01*
X67081269Y-52534140D01*
X66994144Y-52621264D01*
X66994138Y-52621272D01*
X66925690Y-52723708D01*
X66925688Y-52723713D01*
X66898868Y-52788464D01*
X66878538Y-52837544D01*
X66878535Y-52837556D01*
X66854500Y-52958389D01*
X66854500Y-54505500D01*
X66834815Y-54572539D01*
X66782011Y-54618294D01*
X66730500Y-54629500D01*
X64479992Y-54629500D01*
X64400936Y-54635721D01*
X64368470Y-54640863D01*
X64312501Y-54655149D01*
X64277677Y-54664038D01*
X64277675Y-54664038D01*
X64277675Y-54664039D01*
X64277668Y-54664041D01*
X64150432Y-54731178D01*
X64150427Y-54731181D01*
X64097925Y-54769326D01*
X64075065Y-54786954D01*
X64075063Y-54786956D01*
X63977777Y-54892956D01*
X63917237Y-55016088D01*
X63869993Y-55067564D01*
X63802418Y-55085325D01*
X63735968Y-55063734D01*
X63694959Y-55016647D01*
X63644631Y-54915573D01*
X63628860Y-54894691D01*
X63020000Y-55503552D01*
X63020000Y-55497339D01*
X62992741Y-55395606D01*
X62940080Y-55304394D01*
X62865606Y-55229920D01*
X62774394Y-55177259D01*
X62672661Y-55150000D01*
X62666447Y-55150000D01*
X63273327Y-54543118D01*
X63273326Y-54543117D01*
X63157181Y-54471203D01*
X63157175Y-54471200D01*
X62962786Y-54395894D01*
X62907384Y-54353321D01*
X62883794Y-54287554D01*
X62899505Y-54219474D01*
X62949529Y-54170695D01*
X62962772Y-54164646D01*
X63157401Y-54089247D01*
X63346562Y-53972124D01*
X63510981Y-53822236D01*
X63645058Y-53644689D01*
X63744229Y-53445528D01*
X63805115Y-53231536D01*
X63825643Y-53010000D01*
X63805115Y-52788464D01*
X63744229Y-52574472D01*
X63724146Y-52534140D01*
X63645061Y-52375316D01*
X63645056Y-52375308D01*
X63510979Y-52197761D01*
X63346562Y-52047876D01*
X63346560Y-52047874D01*
X63157404Y-51930754D01*
X63157395Y-51930750D01*
X63063956Y-51894552D01*
X62963475Y-51855625D01*
X62908075Y-51813054D01*
X62884484Y-51747288D01*
X62900195Y-51679207D01*
X62950219Y-51630428D01*
X62963466Y-51624377D01*
X63157401Y-51549247D01*
X63346562Y-51432124D01*
X63510981Y-51282236D01*
X63645058Y-51104689D01*
X63650266Y-51094231D01*
X63744224Y-50905538D01*
X63744223Y-50905538D01*
X63744229Y-50905528D01*
X63805115Y-50691536D01*
X63825643Y-50470000D01*
X63805115Y-50248464D01*
X63744229Y-50034472D01*
X63744224Y-50034461D01*
X63645061Y-49835316D01*
X63645056Y-49835308D01*
X63510979Y-49657761D01*
X63346562Y-49507876D01*
X63346560Y-49507874D01*
X63157404Y-49390754D01*
X63157395Y-49390750D01*
X63063956Y-49354552D01*
X62963475Y-49315625D01*
X62908075Y-49273054D01*
X62884484Y-49207288D01*
X62900195Y-49139207D01*
X62950219Y-49090428D01*
X62963466Y-49084377D01*
X63157401Y-49009247D01*
X63346562Y-48892124D01*
X63510981Y-48742236D01*
X63645058Y-48564689D01*
X63744229Y-48365528D01*
X63805115Y-48151536D01*
X63825643Y-47930000D01*
X63805115Y-47708464D01*
X63744229Y-47494472D01*
X63744224Y-47494461D01*
X63645061Y-47295316D01*
X63645056Y-47295308D01*
X63510979Y-47117761D01*
X63346562Y-46967876D01*
X63346560Y-46967874D01*
X63157404Y-46850754D01*
X63157398Y-46850752D01*
X62949940Y-46770382D01*
X62731243Y-46729500D01*
X62508757Y-46729500D01*
X62290060Y-46770382D01*
X62158864Y-46821207D01*
X62082601Y-46850752D01*
X62082595Y-46850754D01*
X61893439Y-46967874D01*
X61893437Y-46967876D01*
X61729020Y-47117761D01*
X61594943Y-47295308D01*
X61594938Y-47295316D01*
X61495775Y-47494461D01*
X61495769Y-47494476D01*
X61469266Y-47587627D01*
X61431987Y-47646721D01*
X61368677Y-47676278D01*
X61299438Y-47666916D01*
X61246251Y-47621606D01*
X61230734Y-47587627D01*
X61204230Y-47494476D01*
X61204229Y-47494472D01*
X61204224Y-47494461D01*
X61105061Y-47295316D01*
X61105056Y-47295308D01*
X60970979Y-47117761D01*
X60806562Y-46967876D01*
X60806560Y-46967874D01*
X60617404Y-46850754D01*
X60617398Y-46850752D01*
X60409940Y-46770382D01*
X60191243Y-46729500D01*
X59968757Y-46729500D01*
X59750060Y-46770382D01*
X59618864Y-46821207D01*
X59542601Y-46850752D01*
X59542595Y-46850754D01*
X59353439Y-46967874D01*
X59353437Y-46967876D01*
X59189020Y-47117761D01*
X59054943Y-47295308D01*
X59054938Y-47295316D01*
X58955775Y-47494461D01*
X58955769Y-47494476D01*
X58894885Y-47708462D01*
X58894884Y-47708464D01*
X58874357Y-47929999D01*
X58100000Y-47929999D01*
X58100000Y-46261565D01*
X58119685Y-46194526D01*
X58172489Y-46148771D01*
X58224000Y-46137565D01*
X89873815Y-46137565D01*
X89940854Y-46157250D01*
G37*
G04 #@! TD.AperFunction*
M02*
