M48
; DRILL file {KiCad 8.0.7} date 2026-01-25T14:12:38-0500
; FORMAT={-:-/ absolute / metric / decimal}
; #@! TF.CreationDate,2026-01-25T14:12:38-05:00
; #@! TF.GenerationSoftware,Kicad,Pcbnew,8.0.7
; #@! TF.FileFunction,Plated,1,2,PTH
FMAT,2
METRIC
; #@! TA.AperFunction,Plated,PTH,ViaDrill
T1C0.400
; #@! TA.AperFunction,Plated,PTH,ComponentDrill
T2C0.800
%
G90
G05
T1
X59.8Y-75.1
X59.8Y-76.6
X59.9Y-73.3
X69.275Y-62.1
X69.5Y-55.5
X70.3Y-76.6
X70.4Y-51.2
X71.175Y-63.1
X71.6Y-60.9
X71.7Y-59.3
X71.8Y-64.1
X72.4Y-69.9
X72.4Y-76.6
X72.6Y-66.2
X74.6Y-76.7
X75.2Y-59.9
X75.2Y-59.9
X75.2Y-59.9
X75.6Y-61.7
X75.6Y-63.1
X75.8Y-66.3
X76.4Y-70.0
X76.6Y-55.3
X76.9Y-76.6
X87.8Y-74.7
X87.8Y-76.4
T2
X60.08Y-47.93
X60.08Y-50.47
X60.08Y-53.01
X60.08Y-55.55
X60.08Y-58.09
X60.08Y-60.63
X60.08Y-63.17
X60.08Y-65.71
X60.08Y-68.25
X60.08Y-70.79
X62.62Y-47.93
X62.62Y-50.47
X62.62Y-53.01
X62.62Y-55.55
X62.62Y-58.09
X62.62Y-60.63
X62.62Y-63.17
X62.62Y-65.71
X62.62Y-68.25
X62.62Y-70.79
X67.48Y-55.74
X67.48Y-58.28
X67.48Y-60.82
X67.48Y-63.36
X67.48Y-65.9
X67.48Y-68.44
X67.48Y-70.98
X67.48Y-73.52
X67.48Y-76.06
X80.72Y-55.74
X80.72Y-58.28
X80.72Y-60.82
X80.72Y-63.36
X80.72Y-65.9
X80.72Y-68.44
X80.72Y-70.98
X80.72Y-73.52
X80.72Y-76.06
X85.48Y-47.93
X85.48Y-50.47
X85.48Y-53.01
X85.48Y-55.55
X85.48Y-58.09
X85.48Y-60.63
X85.48Y-63.17
X85.48Y-65.71
X85.48Y-68.25
X85.48Y-70.79
X88.02Y-47.93
X88.02Y-50.47
X88.02Y-53.01
X88.02Y-55.55
X88.02Y-58.09
X88.02Y-60.63
X88.02Y-63.17
X88.02Y-65.71
X88.02Y-68.25
X88.02Y-70.79
M30
