G04 #@! TF.GenerationSoftware,KiCad,Pcbnew,8.0.7*
G04 #@! TF.CreationDate,2026-01-25T14:12:36-05:00*
G04 #@! TF.ProjectId,ESP32_S3_Adaptor,45535033-325f-4533-935f-41646170746f,rev?*
G04 #@! TF.SameCoordinates,Original*
G04 #@! TF.FileFunction,Legend,Top*
G04 #@! TF.FilePolarity,Positive*
%FSLAX46Y46*%
G04 Gerber Fmt 4.6, Leading zero omitted, Abs format (unit mm)*
G04 Created by KiCad (PCBNEW 8.0.7) date 2026-01-25 14:12:36*
%MOMM*%
%LPD*%
G01*
G04 APERTURE LIST*
%ADD10C,0.150000*%
%ADD11C,0.300000*%
%ADD12C,0.120000*%
G04 APERTURE END LIST*
D10*
X69700000Y-46900000D02*
X70500000Y-47700000D01*
X69700000Y-46900000D02*
X68800000Y-47800000D01*
X69700000Y-48800000D02*
X69700000Y-46900000D01*
X71641541Y-46808628D02*
X72498684Y-46808628D01*
X72070112Y-48308628D02*
X72070112Y-46808628D01*
X73212969Y-48308628D02*
X73070112Y-48237200D01*
X73070112Y-48237200D02*
X72998683Y-48165771D01*
X72998683Y-48165771D02*
X72927255Y-48022914D01*
X72927255Y-48022914D02*
X72927255Y-47594342D01*
X72927255Y-47594342D02*
X72998683Y-47451485D01*
X72998683Y-47451485D02*
X73070112Y-47380057D01*
X73070112Y-47380057D02*
X73212969Y-47308628D01*
X73212969Y-47308628D02*
X73427255Y-47308628D01*
X73427255Y-47308628D02*
X73570112Y-47380057D01*
X73570112Y-47380057D02*
X73641541Y-47451485D01*
X73641541Y-47451485D02*
X73712969Y-47594342D01*
X73712969Y-47594342D02*
X73712969Y-48022914D01*
X73712969Y-48022914D02*
X73641541Y-48165771D01*
X73641541Y-48165771D02*
X73570112Y-48237200D01*
X73570112Y-48237200D02*
X73427255Y-48308628D01*
X73427255Y-48308628D02*
X73212969Y-48308628D01*
X75498683Y-46808628D02*
X75498683Y-48022914D01*
X75498683Y-48022914D02*
X75570112Y-48165771D01*
X75570112Y-48165771D02*
X75641541Y-48237200D01*
X75641541Y-48237200D02*
X75784398Y-48308628D01*
X75784398Y-48308628D02*
X76070112Y-48308628D01*
X76070112Y-48308628D02*
X76212969Y-48237200D01*
X76212969Y-48237200D02*
X76284398Y-48165771D01*
X76284398Y-48165771D02*
X76355826Y-48022914D01*
X76355826Y-48022914D02*
X76355826Y-46808628D01*
X76998684Y-48237200D02*
X77212970Y-48308628D01*
X77212970Y-48308628D02*
X77570112Y-48308628D01*
X77570112Y-48308628D02*
X77712970Y-48237200D01*
X77712970Y-48237200D02*
X77784398Y-48165771D01*
X77784398Y-48165771D02*
X77855827Y-48022914D01*
X77855827Y-48022914D02*
X77855827Y-47880057D01*
X77855827Y-47880057D02*
X77784398Y-47737200D01*
X77784398Y-47737200D02*
X77712970Y-47665771D01*
X77712970Y-47665771D02*
X77570112Y-47594342D01*
X77570112Y-47594342D02*
X77284398Y-47522914D01*
X77284398Y-47522914D02*
X77141541Y-47451485D01*
X77141541Y-47451485D02*
X77070112Y-47380057D01*
X77070112Y-47380057D02*
X76998684Y-47237200D01*
X76998684Y-47237200D02*
X76998684Y-47094342D01*
X76998684Y-47094342D02*
X77070112Y-46951485D01*
X77070112Y-46951485D02*
X77141541Y-46880057D01*
X77141541Y-46880057D02*
X77284398Y-46808628D01*
X77284398Y-46808628D02*
X77641541Y-46808628D01*
X77641541Y-46808628D02*
X77855827Y-46880057D01*
X78998683Y-47522914D02*
X79212969Y-47594342D01*
X79212969Y-47594342D02*
X79284398Y-47665771D01*
X79284398Y-47665771D02*
X79355826Y-47808628D01*
X79355826Y-47808628D02*
X79355826Y-48022914D01*
X79355826Y-48022914D02*
X79284398Y-48165771D01*
X79284398Y-48165771D02*
X79212969Y-48237200D01*
X79212969Y-48237200D02*
X79070112Y-48308628D01*
X79070112Y-48308628D02*
X78498683Y-48308628D01*
X78498683Y-48308628D02*
X78498683Y-46808628D01*
X78498683Y-46808628D02*
X78998683Y-46808628D01*
X78998683Y-46808628D02*
X79141541Y-46880057D01*
X79141541Y-46880057D02*
X79212969Y-46951485D01*
X79212969Y-46951485D02*
X79284398Y-47094342D01*
X79284398Y-47094342D02*
X79284398Y-47237200D01*
X79284398Y-47237200D02*
X79212969Y-47380057D01*
X79212969Y-47380057D02*
X79141541Y-47451485D01*
X79141541Y-47451485D02*
X78998683Y-47522914D01*
X78998683Y-47522914D02*
X78498683Y-47522914D01*
X59598684Y-73403152D02*
X59598684Y-74069819D01*
X59384398Y-73022200D02*
X59170112Y-73736485D01*
X59170112Y-73736485D02*
X59727255Y-73736485D01*
X60455827Y-73403152D02*
X60455827Y-74069819D01*
X60241541Y-73022200D02*
X60027255Y-73736485D01*
X60027255Y-73736485D02*
X60584398Y-73736485D01*
X61570112Y-73022200D02*
X60798684Y-74307914D01*
X61827255Y-74022200D02*
X61955827Y-74069819D01*
X61955827Y-74069819D02*
X62170112Y-74069819D01*
X62170112Y-74069819D02*
X62255827Y-74022200D01*
X62255827Y-74022200D02*
X62298684Y-73974580D01*
X62298684Y-73974580D02*
X62341541Y-73879342D01*
X62341541Y-73879342D02*
X62341541Y-73784104D01*
X62341541Y-73784104D02*
X62298684Y-73688866D01*
X62298684Y-73688866D02*
X62255827Y-73641247D01*
X62255827Y-73641247D02*
X62170112Y-73593628D01*
X62170112Y-73593628D02*
X61998684Y-73546009D01*
X61998684Y-73546009D02*
X61912969Y-73498390D01*
X61912969Y-73498390D02*
X61870112Y-73450771D01*
X61870112Y-73450771D02*
X61827255Y-73355533D01*
X61827255Y-73355533D02*
X61827255Y-73260295D01*
X61827255Y-73260295D02*
X61870112Y-73165057D01*
X61870112Y-73165057D02*
X61912969Y-73117438D01*
X61912969Y-73117438D02*
X61998684Y-73069819D01*
X61998684Y-73069819D02*
X62212969Y-73069819D01*
X62212969Y-73069819D02*
X62341541Y-73117438D01*
X63241541Y-73974580D02*
X63198684Y-74022200D01*
X63198684Y-74022200D02*
X63070112Y-74069819D01*
X63070112Y-74069819D02*
X62984398Y-74069819D01*
X62984398Y-74069819D02*
X62855827Y-74022200D01*
X62855827Y-74022200D02*
X62770112Y-73926961D01*
X62770112Y-73926961D02*
X62727255Y-73831723D01*
X62727255Y-73831723D02*
X62684398Y-73641247D01*
X62684398Y-73641247D02*
X62684398Y-73498390D01*
X62684398Y-73498390D02*
X62727255Y-73307914D01*
X62727255Y-73307914D02*
X62770112Y-73212676D01*
X62770112Y-73212676D02*
X62855827Y-73117438D01*
X62855827Y-73117438D02*
X62984398Y-73069819D01*
X62984398Y-73069819D02*
X63070112Y-73069819D01*
X63070112Y-73069819D02*
X63198684Y-73117438D01*
X63198684Y-73117438D02*
X63241541Y-73165057D01*
X64055827Y-74069819D02*
X63627255Y-74069819D01*
X63627255Y-74069819D02*
X63627255Y-73069819D01*
X59598684Y-75903152D02*
X59598684Y-76569819D01*
X59384398Y-75522200D02*
X59170112Y-76236485D01*
X59170112Y-76236485D02*
X59727255Y-76236485D01*
X59984398Y-75569819D02*
X60541541Y-75569819D01*
X60541541Y-75569819D02*
X60241541Y-75950771D01*
X60241541Y-75950771D02*
X60370112Y-75950771D01*
X60370112Y-75950771D02*
X60455827Y-75998390D01*
X60455827Y-75998390D02*
X60498684Y-76046009D01*
X60498684Y-76046009D02*
X60541541Y-76141247D01*
X60541541Y-76141247D02*
X60541541Y-76379342D01*
X60541541Y-76379342D02*
X60498684Y-76474580D01*
X60498684Y-76474580D02*
X60455827Y-76522200D01*
X60455827Y-76522200D02*
X60370112Y-76569819D01*
X60370112Y-76569819D02*
X60112969Y-76569819D01*
X60112969Y-76569819D02*
X60027255Y-76522200D01*
X60027255Y-76522200D02*
X59984398Y-76474580D01*
X61570112Y-75522200D02*
X60798684Y-76807914D01*
X61827255Y-76522200D02*
X61955827Y-76569819D01*
X61955827Y-76569819D02*
X62170112Y-76569819D01*
X62170112Y-76569819D02*
X62255827Y-76522200D01*
X62255827Y-76522200D02*
X62298684Y-76474580D01*
X62298684Y-76474580D02*
X62341541Y-76379342D01*
X62341541Y-76379342D02*
X62341541Y-76284104D01*
X62341541Y-76284104D02*
X62298684Y-76188866D01*
X62298684Y-76188866D02*
X62255827Y-76141247D01*
X62255827Y-76141247D02*
X62170112Y-76093628D01*
X62170112Y-76093628D02*
X61998684Y-76046009D01*
X61998684Y-76046009D02*
X61912969Y-75998390D01*
X61912969Y-75998390D02*
X61870112Y-75950771D01*
X61870112Y-75950771D02*
X61827255Y-75855533D01*
X61827255Y-75855533D02*
X61827255Y-75760295D01*
X61827255Y-75760295D02*
X61870112Y-75665057D01*
X61870112Y-75665057D02*
X61912969Y-75617438D01*
X61912969Y-75617438D02*
X61998684Y-75569819D01*
X61998684Y-75569819D02*
X62212969Y-75569819D01*
X62212969Y-75569819D02*
X62341541Y-75617438D01*
X62727255Y-76569819D02*
X62727255Y-75569819D01*
X62727255Y-75569819D02*
X62941541Y-75569819D01*
X62941541Y-75569819D02*
X63070112Y-75617438D01*
X63070112Y-75617438D02*
X63155827Y-75712676D01*
X63155827Y-75712676D02*
X63198684Y-75807914D01*
X63198684Y-75807914D02*
X63241541Y-75998390D01*
X63241541Y-75998390D02*
X63241541Y-76141247D01*
X63241541Y-76141247D02*
X63198684Y-76331723D01*
X63198684Y-76331723D02*
X63155827Y-76426961D01*
X63155827Y-76426961D02*
X63070112Y-76522200D01*
X63070112Y-76522200D02*
X62941541Y-76569819D01*
X62941541Y-76569819D02*
X62727255Y-76569819D01*
X63584398Y-76284104D02*
X64012970Y-76284104D01*
X63498684Y-76569819D02*
X63798684Y-75569819D01*
X63798684Y-75569819D02*
X64098684Y-76569819D01*
X64512969Y-52469819D02*
X64036779Y-52469819D01*
X64036779Y-52469819D02*
X63989160Y-52946009D01*
X63989160Y-52946009D02*
X64036779Y-52898390D01*
X64036779Y-52898390D02*
X64132017Y-52850771D01*
X64132017Y-52850771D02*
X64370112Y-52850771D01*
X64370112Y-52850771D02*
X64465350Y-52898390D01*
X64465350Y-52898390D02*
X64512969Y-52946009D01*
X64512969Y-52946009D02*
X64560588Y-53041247D01*
X64560588Y-53041247D02*
X64560588Y-53279342D01*
X64560588Y-53279342D02*
X64512969Y-53374580D01*
X64512969Y-53374580D02*
X64465350Y-53422200D01*
X64465350Y-53422200D02*
X64370112Y-53469819D01*
X64370112Y-53469819D02*
X64132017Y-53469819D01*
X64132017Y-53469819D02*
X64036779Y-53422200D01*
X64036779Y-53422200D02*
X63989160Y-53374580D01*
X64893922Y-52803152D02*
X65132017Y-53469819D01*
X65132017Y-53469819D02*
X65370112Y-52803152D01*
X81741541Y-52469819D02*
X82360588Y-52469819D01*
X82360588Y-52469819D02*
X82027255Y-52850771D01*
X82027255Y-52850771D02*
X82170112Y-52850771D01*
X82170112Y-52850771D02*
X82265350Y-52898390D01*
X82265350Y-52898390D02*
X82312969Y-52946009D01*
X82312969Y-52946009D02*
X82360588Y-53041247D01*
X82360588Y-53041247D02*
X82360588Y-53279342D01*
X82360588Y-53279342D02*
X82312969Y-53374580D01*
X82312969Y-53374580D02*
X82265350Y-53422200D01*
X82265350Y-53422200D02*
X82170112Y-53469819D01*
X82170112Y-53469819D02*
X81884398Y-53469819D01*
X81884398Y-53469819D02*
X81789160Y-53422200D01*
X81789160Y-53422200D02*
X81741541Y-53374580D01*
X82693922Y-52803152D02*
X82932017Y-53469819D01*
X82932017Y-53469819D02*
X83170112Y-52803152D01*
X83455827Y-52469819D02*
X84074874Y-52469819D01*
X84074874Y-52469819D02*
X83741541Y-52850771D01*
X83741541Y-52850771D02*
X83884398Y-52850771D01*
X83884398Y-52850771D02*
X83979636Y-52898390D01*
X83979636Y-52898390D02*
X84027255Y-52946009D01*
X84027255Y-52946009D02*
X84074874Y-53041247D01*
X84074874Y-53041247D02*
X84074874Y-53279342D01*
X84074874Y-53279342D02*
X84027255Y-53374580D01*
X84027255Y-53374580D02*
X83979636Y-53422200D01*
X83979636Y-53422200D02*
X83884398Y-53469819D01*
X83884398Y-53469819D02*
X83598684Y-53469819D01*
X83598684Y-53469819D02*
X83503446Y-53422200D01*
X83503446Y-53422200D02*
X83455827Y-53374580D01*
X61600000Y-54600000D02*
X63600000Y-54600000D01*
X63600000Y-56600000D01*
X61600000Y-56600000D01*
X61600000Y-54600000D01*
G36*
X61600000Y-54600000D02*
G01*
X63600000Y-54600000D01*
X63600000Y-56600000D01*
X61600000Y-56600000D01*
X61600000Y-54600000D01*
G37*
X59100000Y-69800000D02*
X61100000Y-69800000D01*
X61100000Y-71800000D01*
X59100000Y-71800000D01*
X59100000Y-69800000D01*
G36*
X59100000Y-69800000D02*
G01*
X61100000Y-69800000D01*
X61100000Y-71800000D01*
X59100000Y-71800000D01*
X59100000Y-69800000D01*
G37*
X78700000Y-72600000D02*
X84500000Y-72600000D01*
X84500000Y-74600000D01*
X78700000Y-74600000D01*
X78700000Y-72600000D01*
G36*
X78700000Y-72600000D02*
G01*
X84500000Y-72600000D01*
X84500000Y-74600000D01*
X78700000Y-74600000D01*
X78700000Y-72600000D01*
G37*
X85212969Y-75469819D02*
X84736779Y-75469819D01*
X84736779Y-75469819D02*
X84689160Y-75946009D01*
X84689160Y-75946009D02*
X84736779Y-75898390D01*
X84736779Y-75898390D02*
X84832017Y-75850771D01*
X84832017Y-75850771D02*
X85070112Y-75850771D01*
X85070112Y-75850771D02*
X85165350Y-75898390D01*
X85165350Y-75898390D02*
X85212969Y-75946009D01*
X85212969Y-75946009D02*
X85260588Y-76041247D01*
X85260588Y-76041247D02*
X85260588Y-76279342D01*
X85260588Y-76279342D02*
X85212969Y-76374580D01*
X85212969Y-76374580D02*
X85165350Y-76422200D01*
X85165350Y-76422200D02*
X85070112Y-76469819D01*
X85070112Y-76469819D02*
X84832017Y-76469819D01*
X84832017Y-76469819D02*
X84736779Y-76422200D01*
X84736779Y-76422200D02*
X84689160Y-76374580D01*
X85593922Y-75803152D02*
X85832017Y-76469819D01*
X85832017Y-76469819D02*
X86070112Y-75803152D01*
X202750000Y-48500000D02*
X205750000Y-48500000D01*
X205750000Y-51500000D01*
X202750000Y-51500000D01*
X202750000Y-48500000D01*
G36*
X202750000Y-48500000D02*
G01*
X205750000Y-48500000D01*
X205750000Y-51500000D01*
X202750000Y-51500000D01*
X202750000Y-48500000D01*
G37*
X208000000Y-88500000D02*
X211000000Y-88500000D01*
X211000000Y-91500000D01*
X208000000Y-91500000D01*
X208000000Y-88500000D01*
G36*
X208000000Y-88500000D02*
G01*
X211000000Y-88500000D01*
X211000000Y-91500000D01*
X208000000Y-91500000D01*
X208000000Y-88500000D01*
G37*
X208710000Y-48500000D02*
X211710000Y-48500000D01*
X211710000Y-51500000D01*
X208710000Y-51500000D01*
X208710000Y-48500000D01*
G36*
X208710000Y-48500000D02*
G01*
X211710000Y-48500000D01*
X211710000Y-51500000D01*
X208710000Y-51500000D01*
X208710000Y-48500000D01*
G37*
X189000000Y-55500000D02*
X194000000Y-55500000D01*
X194000000Y-58500000D01*
X189000000Y-58500000D01*
X189000000Y-55500000D01*
G36*
X189000000Y-55500000D02*
G01*
X194000000Y-55500000D01*
X194000000Y-58500000D01*
X189000000Y-58500000D01*
X189000000Y-55500000D01*
G37*
X202500000Y-88750000D02*
X205500000Y-88750000D01*
X205500000Y-91750000D01*
X202500000Y-91750000D01*
X202500000Y-88750000D01*
G36*
X202500000Y-88750000D02*
G01*
X205500000Y-88750000D01*
X205500000Y-91750000D01*
X202500000Y-91750000D01*
X202500000Y-88750000D01*
G37*
X194086779Y-53988866D02*
X194848684Y-53988866D01*
X194467731Y-54369819D02*
X194467731Y-53607914D01*
X195848683Y-54369819D02*
X195277255Y-54369819D01*
X195562969Y-54369819D02*
X195562969Y-53369819D01*
X195562969Y-53369819D02*
X195467731Y-53512676D01*
X195467731Y-53512676D02*
X195372493Y-53607914D01*
X195372493Y-53607914D02*
X195277255Y-53655533D01*
X196229636Y-53465057D02*
X196277255Y-53417438D01*
X196277255Y-53417438D02*
X196372493Y-53369819D01*
X196372493Y-53369819D02*
X196610588Y-53369819D01*
X196610588Y-53369819D02*
X196705826Y-53417438D01*
X196705826Y-53417438D02*
X196753445Y-53465057D01*
X196753445Y-53465057D02*
X196801064Y-53560295D01*
X196801064Y-53560295D02*
X196801064Y-53655533D01*
X196801064Y-53655533D02*
X196753445Y-53798390D01*
X196753445Y-53798390D02*
X196182017Y-54369819D01*
X196182017Y-54369819D02*
X196801064Y-54369819D01*
D11*
X199090225Y-49372257D02*
X198947368Y-49300828D01*
X198947368Y-49300828D02*
X198733082Y-49300828D01*
X198733082Y-49300828D02*
X198518796Y-49372257D01*
X198518796Y-49372257D02*
X198375939Y-49515114D01*
X198375939Y-49515114D02*
X198304510Y-49657971D01*
X198304510Y-49657971D02*
X198233082Y-49943685D01*
X198233082Y-49943685D02*
X198233082Y-50157971D01*
X198233082Y-50157971D02*
X198304510Y-50443685D01*
X198304510Y-50443685D02*
X198375939Y-50586542D01*
X198375939Y-50586542D02*
X198518796Y-50729400D01*
X198518796Y-50729400D02*
X198733082Y-50800828D01*
X198733082Y-50800828D02*
X198875939Y-50800828D01*
X198875939Y-50800828D02*
X199090225Y-50729400D01*
X199090225Y-50729400D02*
X199161653Y-50657971D01*
X199161653Y-50657971D02*
X199161653Y-50157971D01*
X199161653Y-50157971D02*
X198875939Y-50157971D01*
X199804510Y-50800828D02*
X199804510Y-49300828D01*
X199804510Y-49300828D02*
X200661653Y-50800828D01*
X200661653Y-50800828D02*
X200661653Y-49300828D01*
X201375939Y-50800828D02*
X201375939Y-49300828D01*
X201375939Y-49300828D02*
X201733082Y-49300828D01*
X201733082Y-49300828D02*
X201947368Y-49372257D01*
X201947368Y-49372257D02*
X202090225Y-49515114D01*
X202090225Y-49515114D02*
X202161654Y-49657971D01*
X202161654Y-49657971D02*
X202233082Y-49943685D01*
X202233082Y-49943685D02*
X202233082Y-50157971D01*
X202233082Y-50157971D02*
X202161654Y-50443685D01*
X202161654Y-50443685D02*
X202090225Y-50586542D01*
X202090225Y-50586542D02*
X201947368Y-50729400D01*
X201947368Y-50729400D02*
X201733082Y-50800828D01*
X201733082Y-50800828D02*
X201375939Y-50800828D01*
D10*
X189836779Y-61988866D02*
X190598684Y-61988866D01*
X190217731Y-62369819D02*
X190217731Y-61607914D01*
X191598683Y-62369819D02*
X191027255Y-62369819D01*
X191312969Y-62369819D02*
X191312969Y-61369819D01*
X191312969Y-61369819D02*
X191217731Y-61512676D01*
X191217731Y-61512676D02*
X191122493Y-61607914D01*
X191122493Y-61607914D02*
X191027255Y-61655533D01*
X191979636Y-61465057D02*
X192027255Y-61417438D01*
X192027255Y-61417438D02*
X192122493Y-61369819D01*
X192122493Y-61369819D02*
X192360588Y-61369819D01*
X192360588Y-61369819D02*
X192455826Y-61417438D01*
X192455826Y-61417438D02*
X192503445Y-61465057D01*
X192503445Y-61465057D02*
X192551064Y-61560295D01*
X192551064Y-61560295D02*
X192551064Y-61655533D01*
X192551064Y-61655533D02*
X192503445Y-61798390D01*
X192503445Y-61798390D02*
X191932017Y-62369819D01*
X191932017Y-62369819D02*
X192551064Y-62369819D01*
X201086779Y-93988866D02*
X201848684Y-93988866D01*
X201467731Y-94369819D02*
X201467731Y-93607914D01*
X202848683Y-94369819D02*
X202277255Y-94369819D01*
X202562969Y-94369819D02*
X202562969Y-93369819D01*
X202562969Y-93369819D02*
X202467731Y-93512676D01*
X202467731Y-93512676D02*
X202372493Y-93607914D01*
X202372493Y-93607914D02*
X202277255Y-93655533D01*
X203229636Y-93465057D02*
X203277255Y-93417438D01*
X203277255Y-93417438D02*
X203372493Y-93369819D01*
X203372493Y-93369819D02*
X203610588Y-93369819D01*
X203610588Y-93369819D02*
X203705826Y-93417438D01*
X203705826Y-93417438D02*
X203753445Y-93465057D01*
X203753445Y-93465057D02*
X203801064Y-93560295D01*
X203801064Y-93560295D02*
X203801064Y-93655533D01*
X203801064Y-93655533D02*
X203753445Y-93798390D01*
X203753445Y-93798390D02*
X203182017Y-94369819D01*
X203182017Y-94369819D02*
X203801064Y-94369819D01*
D11*
X190622257Y-53909774D02*
X190550828Y-54052632D01*
X190550828Y-54052632D02*
X190550828Y-54266917D01*
X190550828Y-54266917D02*
X190622257Y-54481203D01*
X190622257Y-54481203D02*
X190765114Y-54624060D01*
X190765114Y-54624060D02*
X190907971Y-54695489D01*
X190907971Y-54695489D02*
X191193685Y-54766917D01*
X191193685Y-54766917D02*
X191407971Y-54766917D01*
X191407971Y-54766917D02*
X191693685Y-54695489D01*
X191693685Y-54695489D02*
X191836542Y-54624060D01*
X191836542Y-54624060D02*
X191979400Y-54481203D01*
X191979400Y-54481203D02*
X192050828Y-54266917D01*
X192050828Y-54266917D02*
X192050828Y-54124060D01*
X192050828Y-54124060D02*
X191979400Y-53909774D01*
X191979400Y-53909774D02*
X191907971Y-53838346D01*
X191907971Y-53838346D02*
X191407971Y-53838346D01*
X191407971Y-53838346D02*
X191407971Y-54124060D01*
X192050828Y-53195489D02*
X190550828Y-53195489D01*
X190550828Y-53195489D02*
X192050828Y-52338346D01*
X192050828Y-52338346D02*
X190550828Y-52338346D01*
X192050828Y-51624060D02*
X190550828Y-51624060D01*
X190550828Y-51624060D02*
X190550828Y-51266917D01*
X190550828Y-51266917D02*
X190622257Y-51052631D01*
X190622257Y-51052631D02*
X190765114Y-50909774D01*
X190765114Y-50909774D02*
X190907971Y-50838345D01*
X190907971Y-50838345D02*
X191193685Y-50766917D01*
X191193685Y-50766917D02*
X191407971Y-50766917D01*
X191407971Y-50766917D02*
X191693685Y-50838345D01*
X191693685Y-50838345D02*
X191836542Y-50909774D01*
X191836542Y-50909774D02*
X191979400Y-51052631D01*
X191979400Y-51052631D02*
X192050828Y-51266917D01*
X192050828Y-51266917D02*
X192050828Y-51624060D01*
X199090225Y-89622257D02*
X198947368Y-89550828D01*
X198947368Y-89550828D02*
X198733082Y-89550828D01*
X198733082Y-89550828D02*
X198518796Y-89622257D01*
X198518796Y-89622257D02*
X198375939Y-89765114D01*
X198375939Y-89765114D02*
X198304510Y-89907971D01*
X198304510Y-89907971D02*
X198233082Y-90193685D01*
X198233082Y-90193685D02*
X198233082Y-90407971D01*
X198233082Y-90407971D02*
X198304510Y-90693685D01*
X198304510Y-90693685D02*
X198375939Y-90836542D01*
X198375939Y-90836542D02*
X198518796Y-90979400D01*
X198518796Y-90979400D02*
X198733082Y-91050828D01*
X198733082Y-91050828D02*
X198875939Y-91050828D01*
X198875939Y-91050828D02*
X199090225Y-90979400D01*
X199090225Y-90979400D02*
X199161653Y-90907971D01*
X199161653Y-90907971D02*
X199161653Y-90407971D01*
X199161653Y-90407971D02*
X198875939Y-90407971D01*
X199804510Y-91050828D02*
X199804510Y-89550828D01*
X199804510Y-89550828D02*
X200661653Y-91050828D01*
X200661653Y-91050828D02*
X200661653Y-89550828D01*
X201375939Y-91050828D02*
X201375939Y-89550828D01*
X201375939Y-89550828D02*
X201733082Y-89550828D01*
X201733082Y-89550828D02*
X201947368Y-89622257D01*
X201947368Y-89622257D02*
X202090225Y-89765114D01*
X202090225Y-89765114D02*
X202161654Y-89907971D01*
X202161654Y-89907971D02*
X202233082Y-90193685D01*
X202233082Y-90193685D02*
X202233082Y-90407971D01*
X202233082Y-90407971D02*
X202161654Y-90693685D01*
X202161654Y-90693685D02*
X202090225Y-90836542D01*
X202090225Y-90836542D02*
X201947368Y-90979400D01*
X201947368Y-90979400D02*
X201733082Y-91050828D01*
X201733082Y-91050828D02*
X201375939Y-91050828D01*
D10*
X72239411Y-56237561D02*
X72334649Y-56285180D01*
X72334649Y-56285180D02*
X72477506Y-56285180D01*
X72477506Y-56285180D02*
X72620363Y-56237561D01*
X72620363Y-56237561D02*
X72715601Y-56142323D01*
X72715601Y-56142323D02*
X72763220Y-56047085D01*
X72763220Y-56047085D02*
X72810839Y-55856609D01*
X72810839Y-55856609D02*
X72810839Y-55713752D01*
X72810839Y-55713752D02*
X72763220Y-55523276D01*
X72763220Y-55523276D02*
X72715601Y-55428038D01*
X72715601Y-55428038D02*
X72620363Y-55332800D01*
X72620363Y-55332800D02*
X72477506Y-55285180D01*
X72477506Y-55285180D02*
X72382268Y-55285180D01*
X72382268Y-55285180D02*
X72239411Y-55332800D01*
X72239411Y-55332800D02*
X72191792Y-55380419D01*
X72191792Y-55380419D02*
X72191792Y-55713752D01*
X72191792Y-55713752D02*
X72382268Y-55713752D01*
X71763220Y-55285180D02*
X71763220Y-56285180D01*
X71763220Y-56285180D02*
X71382268Y-56285180D01*
X71382268Y-56285180D02*
X71287030Y-56237561D01*
X71287030Y-56237561D02*
X71239411Y-56189942D01*
X71239411Y-56189942D02*
X71191792Y-56094704D01*
X71191792Y-56094704D02*
X71191792Y-55951847D01*
X71191792Y-55951847D02*
X71239411Y-55856609D01*
X71239411Y-55856609D02*
X71287030Y-55808990D01*
X71287030Y-55808990D02*
X71382268Y-55761371D01*
X71382268Y-55761371D02*
X71763220Y-55761371D01*
X70763220Y-55285180D02*
X70763220Y-56285180D01*
X70096554Y-56285180D02*
X69906078Y-56285180D01*
X69906078Y-56285180D02*
X69810840Y-56237561D01*
X69810840Y-56237561D02*
X69715602Y-56142323D01*
X69715602Y-56142323D02*
X69667983Y-55951847D01*
X69667983Y-55951847D02*
X69667983Y-55618514D01*
X69667983Y-55618514D02*
X69715602Y-55428038D01*
X69715602Y-55428038D02*
X69810840Y-55332800D01*
X69810840Y-55332800D02*
X69906078Y-55285180D01*
X69906078Y-55285180D02*
X70096554Y-55285180D01*
X70096554Y-55285180D02*
X70191792Y-55332800D01*
X70191792Y-55332800D02*
X70287030Y-55428038D01*
X70287030Y-55428038D02*
X70334649Y-55618514D01*
X70334649Y-55618514D02*
X70334649Y-55951847D01*
X70334649Y-55951847D02*
X70287030Y-56142323D01*
X70287030Y-56142323D02*
X70191792Y-56237561D01*
X70191792Y-56237561D02*
X70096554Y-56285180D01*
X69334649Y-56285180D02*
X68667983Y-56285180D01*
X68667983Y-56285180D02*
X69096554Y-55285180D01*
X73239411Y-68937561D02*
X73334649Y-68985180D01*
X73334649Y-68985180D02*
X73477506Y-68985180D01*
X73477506Y-68985180D02*
X73620363Y-68937561D01*
X73620363Y-68937561D02*
X73715601Y-68842323D01*
X73715601Y-68842323D02*
X73763220Y-68747085D01*
X73763220Y-68747085D02*
X73810839Y-68556609D01*
X73810839Y-68556609D02*
X73810839Y-68413752D01*
X73810839Y-68413752D02*
X73763220Y-68223276D01*
X73763220Y-68223276D02*
X73715601Y-68128038D01*
X73715601Y-68128038D02*
X73620363Y-68032800D01*
X73620363Y-68032800D02*
X73477506Y-67985180D01*
X73477506Y-67985180D02*
X73382268Y-67985180D01*
X73382268Y-67985180D02*
X73239411Y-68032800D01*
X73239411Y-68032800D02*
X73191792Y-68080419D01*
X73191792Y-68080419D02*
X73191792Y-68413752D01*
X73191792Y-68413752D02*
X73382268Y-68413752D01*
X72763220Y-67985180D02*
X72763220Y-68985180D01*
X72763220Y-68985180D02*
X72382268Y-68985180D01*
X72382268Y-68985180D02*
X72287030Y-68937561D01*
X72287030Y-68937561D02*
X72239411Y-68889942D01*
X72239411Y-68889942D02*
X72191792Y-68794704D01*
X72191792Y-68794704D02*
X72191792Y-68651847D01*
X72191792Y-68651847D02*
X72239411Y-68556609D01*
X72239411Y-68556609D02*
X72287030Y-68508990D01*
X72287030Y-68508990D02*
X72382268Y-68461371D01*
X72382268Y-68461371D02*
X72763220Y-68461371D01*
X71763220Y-67985180D02*
X71763220Y-68985180D01*
X71096554Y-68985180D02*
X70906078Y-68985180D01*
X70906078Y-68985180D02*
X70810840Y-68937561D01*
X70810840Y-68937561D02*
X70715602Y-68842323D01*
X70715602Y-68842323D02*
X70667983Y-68651847D01*
X70667983Y-68651847D02*
X70667983Y-68318514D01*
X70667983Y-68318514D02*
X70715602Y-68128038D01*
X70715602Y-68128038D02*
X70810840Y-68032800D01*
X70810840Y-68032800D02*
X70906078Y-67985180D01*
X70906078Y-67985180D02*
X71096554Y-67985180D01*
X71096554Y-67985180D02*
X71191792Y-68032800D01*
X71191792Y-68032800D02*
X71287030Y-68128038D01*
X71287030Y-68128038D02*
X71334649Y-68318514D01*
X71334649Y-68318514D02*
X71334649Y-68651847D01*
X71334649Y-68651847D02*
X71287030Y-68842323D01*
X71287030Y-68842323D02*
X71191792Y-68937561D01*
X71191792Y-68937561D02*
X71096554Y-68985180D01*
X69715602Y-67985180D02*
X70287030Y-67985180D01*
X70001316Y-67985180D02*
X70001316Y-68985180D01*
X70001316Y-68985180D02*
X70096554Y-68842323D01*
X70096554Y-68842323D02*
X70191792Y-68747085D01*
X70191792Y-68747085D02*
X70287030Y-68699466D01*
X69334649Y-68889942D02*
X69287030Y-68937561D01*
X69287030Y-68937561D02*
X69191792Y-68985180D01*
X69191792Y-68985180D02*
X68953697Y-68985180D01*
X68953697Y-68985180D02*
X68858459Y-68937561D01*
X68858459Y-68937561D02*
X68810840Y-68889942D01*
X68810840Y-68889942D02*
X68763221Y-68794704D01*
X68763221Y-68794704D02*
X68763221Y-68699466D01*
X68763221Y-68699466D02*
X68810840Y-68556609D01*
X68810840Y-68556609D02*
X69382268Y-67985180D01*
X69382268Y-67985180D02*
X68763221Y-67985180D01*
X73239411Y-63857561D02*
X73334649Y-63905180D01*
X73334649Y-63905180D02*
X73477506Y-63905180D01*
X73477506Y-63905180D02*
X73620363Y-63857561D01*
X73620363Y-63857561D02*
X73715601Y-63762323D01*
X73715601Y-63762323D02*
X73763220Y-63667085D01*
X73763220Y-63667085D02*
X73810839Y-63476609D01*
X73810839Y-63476609D02*
X73810839Y-63333752D01*
X73810839Y-63333752D02*
X73763220Y-63143276D01*
X73763220Y-63143276D02*
X73715601Y-63048038D01*
X73715601Y-63048038D02*
X73620363Y-62952800D01*
X73620363Y-62952800D02*
X73477506Y-62905180D01*
X73477506Y-62905180D02*
X73382268Y-62905180D01*
X73382268Y-62905180D02*
X73239411Y-62952800D01*
X73239411Y-62952800D02*
X73191792Y-63000419D01*
X73191792Y-63000419D02*
X73191792Y-63333752D01*
X73191792Y-63333752D02*
X73382268Y-63333752D01*
X72763220Y-62905180D02*
X72763220Y-63905180D01*
X72763220Y-63905180D02*
X72382268Y-63905180D01*
X72382268Y-63905180D02*
X72287030Y-63857561D01*
X72287030Y-63857561D02*
X72239411Y-63809942D01*
X72239411Y-63809942D02*
X72191792Y-63714704D01*
X72191792Y-63714704D02*
X72191792Y-63571847D01*
X72191792Y-63571847D02*
X72239411Y-63476609D01*
X72239411Y-63476609D02*
X72287030Y-63428990D01*
X72287030Y-63428990D02*
X72382268Y-63381371D01*
X72382268Y-63381371D02*
X72763220Y-63381371D01*
X71763220Y-62905180D02*
X71763220Y-63905180D01*
X71096554Y-63905180D02*
X70906078Y-63905180D01*
X70906078Y-63905180D02*
X70810840Y-63857561D01*
X70810840Y-63857561D02*
X70715602Y-63762323D01*
X70715602Y-63762323D02*
X70667983Y-63571847D01*
X70667983Y-63571847D02*
X70667983Y-63238514D01*
X70667983Y-63238514D02*
X70715602Y-63048038D01*
X70715602Y-63048038D02*
X70810840Y-62952800D01*
X70810840Y-62952800D02*
X70906078Y-62905180D01*
X70906078Y-62905180D02*
X71096554Y-62905180D01*
X71096554Y-62905180D02*
X71191792Y-62952800D01*
X71191792Y-62952800D02*
X71287030Y-63048038D01*
X71287030Y-63048038D02*
X71334649Y-63238514D01*
X71334649Y-63238514D02*
X71334649Y-63571847D01*
X71334649Y-63571847D02*
X71287030Y-63762323D01*
X71287030Y-63762323D02*
X71191792Y-63857561D01*
X71191792Y-63857561D02*
X71096554Y-63905180D01*
X69715602Y-62905180D02*
X70287030Y-62905180D01*
X70001316Y-62905180D02*
X70001316Y-63905180D01*
X70001316Y-63905180D02*
X70096554Y-63762323D01*
X70096554Y-63762323D02*
X70191792Y-63667085D01*
X70191792Y-63667085D02*
X70287030Y-63619466D01*
X69096554Y-63905180D02*
X69001316Y-63905180D01*
X69001316Y-63905180D02*
X68906078Y-63857561D01*
X68906078Y-63857561D02*
X68858459Y-63809942D01*
X68858459Y-63809942D02*
X68810840Y-63714704D01*
X68810840Y-63714704D02*
X68763221Y-63524228D01*
X68763221Y-63524228D02*
X68763221Y-63286133D01*
X68763221Y-63286133D02*
X68810840Y-63095657D01*
X68810840Y-63095657D02*
X68858459Y-63000419D01*
X68858459Y-63000419D02*
X68906078Y-62952800D01*
X68906078Y-62952800D02*
X69001316Y-62905180D01*
X69001316Y-62905180D02*
X69096554Y-62905180D01*
X69096554Y-62905180D02*
X69191792Y-62952800D01*
X69191792Y-62952800D02*
X69239411Y-63000419D01*
X69239411Y-63000419D02*
X69287030Y-63095657D01*
X69287030Y-63095657D02*
X69334649Y-63286133D01*
X69334649Y-63286133D02*
X69334649Y-63524228D01*
X69334649Y-63524228D02*
X69287030Y-63714704D01*
X69287030Y-63714704D02*
X69239411Y-63809942D01*
X69239411Y-63809942D02*
X69191792Y-63857561D01*
X69191792Y-63857561D02*
X69096554Y-63905180D01*
X79359412Y-58777561D02*
X79454650Y-58825180D01*
X79454650Y-58825180D02*
X79597507Y-58825180D01*
X79597507Y-58825180D02*
X79740364Y-58777561D01*
X79740364Y-58777561D02*
X79835602Y-58682323D01*
X79835602Y-58682323D02*
X79883221Y-58587085D01*
X79883221Y-58587085D02*
X79930840Y-58396609D01*
X79930840Y-58396609D02*
X79930840Y-58253752D01*
X79930840Y-58253752D02*
X79883221Y-58063276D01*
X79883221Y-58063276D02*
X79835602Y-57968038D01*
X79835602Y-57968038D02*
X79740364Y-57872800D01*
X79740364Y-57872800D02*
X79597507Y-57825180D01*
X79597507Y-57825180D02*
X79502269Y-57825180D01*
X79502269Y-57825180D02*
X79359412Y-57872800D01*
X79359412Y-57872800D02*
X79311793Y-57920419D01*
X79311793Y-57920419D02*
X79311793Y-58253752D01*
X79311793Y-58253752D02*
X79502269Y-58253752D01*
X78883221Y-57825180D02*
X78883221Y-58825180D01*
X78883221Y-58825180D02*
X78502269Y-58825180D01*
X78502269Y-58825180D02*
X78407031Y-58777561D01*
X78407031Y-58777561D02*
X78359412Y-58729942D01*
X78359412Y-58729942D02*
X78311793Y-58634704D01*
X78311793Y-58634704D02*
X78311793Y-58491847D01*
X78311793Y-58491847D02*
X78359412Y-58396609D01*
X78359412Y-58396609D02*
X78407031Y-58348990D01*
X78407031Y-58348990D02*
X78502269Y-58301371D01*
X78502269Y-58301371D02*
X78883221Y-58301371D01*
X77883221Y-57825180D02*
X77883221Y-58825180D01*
X77216555Y-58825180D02*
X77026079Y-58825180D01*
X77026079Y-58825180D02*
X76930841Y-58777561D01*
X76930841Y-58777561D02*
X76835603Y-58682323D01*
X76835603Y-58682323D02*
X76787984Y-58491847D01*
X76787984Y-58491847D02*
X76787984Y-58158514D01*
X76787984Y-58158514D02*
X76835603Y-57968038D01*
X76835603Y-57968038D02*
X76930841Y-57872800D01*
X76930841Y-57872800D02*
X77026079Y-57825180D01*
X77026079Y-57825180D02*
X77216555Y-57825180D01*
X77216555Y-57825180D02*
X77311793Y-57872800D01*
X77311793Y-57872800D02*
X77407031Y-57968038D01*
X77407031Y-57968038D02*
X77454650Y-58158514D01*
X77454650Y-58158514D02*
X77454650Y-58491847D01*
X77454650Y-58491847D02*
X77407031Y-58682323D01*
X77407031Y-58682323D02*
X77311793Y-58777561D01*
X77311793Y-58777561D02*
X77216555Y-58825180D01*
X75883222Y-58825180D02*
X76359412Y-58825180D01*
X76359412Y-58825180D02*
X76407031Y-58348990D01*
X76407031Y-58348990D02*
X76359412Y-58396609D01*
X76359412Y-58396609D02*
X76264174Y-58444228D01*
X76264174Y-58444228D02*
X76026079Y-58444228D01*
X76026079Y-58444228D02*
X75930841Y-58396609D01*
X75930841Y-58396609D02*
X75883222Y-58348990D01*
X75883222Y-58348990D02*
X75835603Y-58253752D01*
X75835603Y-58253752D02*
X75835603Y-58015657D01*
X75835603Y-58015657D02*
X75883222Y-57920419D01*
X75883222Y-57920419D02*
X75930841Y-57872800D01*
X75930841Y-57872800D02*
X76026079Y-57825180D01*
X76026079Y-57825180D02*
X76264174Y-57825180D01*
X76264174Y-57825180D02*
X76359412Y-57872800D01*
X76359412Y-57872800D02*
X76407031Y-57920419D01*
X79589411Y-68937561D02*
X79684649Y-68985180D01*
X79684649Y-68985180D02*
X79827506Y-68985180D01*
X79827506Y-68985180D02*
X79970363Y-68937561D01*
X79970363Y-68937561D02*
X80065601Y-68842323D01*
X80065601Y-68842323D02*
X80113220Y-68747085D01*
X80113220Y-68747085D02*
X80160839Y-68556609D01*
X80160839Y-68556609D02*
X80160839Y-68413752D01*
X80160839Y-68413752D02*
X80113220Y-68223276D01*
X80113220Y-68223276D02*
X80065601Y-68128038D01*
X80065601Y-68128038D02*
X79970363Y-68032800D01*
X79970363Y-68032800D02*
X79827506Y-67985180D01*
X79827506Y-67985180D02*
X79732268Y-67985180D01*
X79732268Y-67985180D02*
X79589411Y-68032800D01*
X79589411Y-68032800D02*
X79541792Y-68080419D01*
X79541792Y-68080419D02*
X79541792Y-68413752D01*
X79541792Y-68413752D02*
X79732268Y-68413752D01*
X79113220Y-67985180D02*
X79113220Y-68985180D01*
X79113220Y-68985180D02*
X78732268Y-68985180D01*
X78732268Y-68985180D02*
X78637030Y-68937561D01*
X78637030Y-68937561D02*
X78589411Y-68889942D01*
X78589411Y-68889942D02*
X78541792Y-68794704D01*
X78541792Y-68794704D02*
X78541792Y-68651847D01*
X78541792Y-68651847D02*
X78589411Y-68556609D01*
X78589411Y-68556609D02*
X78637030Y-68508990D01*
X78637030Y-68508990D02*
X78732268Y-68461371D01*
X78732268Y-68461371D02*
X79113220Y-68461371D01*
X78113220Y-67985180D02*
X78113220Y-68985180D01*
X77446554Y-68985180D02*
X77256078Y-68985180D01*
X77256078Y-68985180D02*
X77160840Y-68937561D01*
X77160840Y-68937561D02*
X77065602Y-68842323D01*
X77065602Y-68842323D02*
X77017983Y-68651847D01*
X77017983Y-68651847D02*
X77017983Y-68318514D01*
X77017983Y-68318514D02*
X77065602Y-68128038D01*
X77065602Y-68128038D02*
X77160840Y-68032800D01*
X77160840Y-68032800D02*
X77256078Y-67985180D01*
X77256078Y-67985180D02*
X77446554Y-67985180D01*
X77446554Y-67985180D02*
X77541792Y-68032800D01*
X77541792Y-68032800D02*
X77637030Y-68128038D01*
X77637030Y-68128038D02*
X77684649Y-68318514D01*
X77684649Y-68318514D02*
X77684649Y-68651847D01*
X77684649Y-68651847D02*
X77637030Y-68842323D01*
X77637030Y-68842323D02*
X77541792Y-68937561D01*
X77541792Y-68937561D02*
X77446554Y-68985180D01*
X76065602Y-67985180D02*
X76637030Y-67985180D01*
X76351316Y-67985180D02*
X76351316Y-68985180D01*
X76351316Y-68985180D02*
X76446554Y-68842323D01*
X76446554Y-68842323D02*
X76541792Y-68747085D01*
X76541792Y-68747085D02*
X76637030Y-68699466D01*
X73239411Y-71477561D02*
X73334649Y-71525180D01*
X73334649Y-71525180D02*
X73477506Y-71525180D01*
X73477506Y-71525180D02*
X73620363Y-71477561D01*
X73620363Y-71477561D02*
X73715601Y-71382323D01*
X73715601Y-71382323D02*
X73763220Y-71287085D01*
X73763220Y-71287085D02*
X73810839Y-71096609D01*
X73810839Y-71096609D02*
X73810839Y-70953752D01*
X73810839Y-70953752D02*
X73763220Y-70763276D01*
X73763220Y-70763276D02*
X73715601Y-70668038D01*
X73715601Y-70668038D02*
X73620363Y-70572800D01*
X73620363Y-70572800D02*
X73477506Y-70525180D01*
X73477506Y-70525180D02*
X73382268Y-70525180D01*
X73382268Y-70525180D02*
X73239411Y-70572800D01*
X73239411Y-70572800D02*
X73191792Y-70620419D01*
X73191792Y-70620419D02*
X73191792Y-70953752D01*
X73191792Y-70953752D02*
X73382268Y-70953752D01*
X72763220Y-70525180D02*
X72763220Y-71525180D01*
X72763220Y-71525180D02*
X72382268Y-71525180D01*
X72382268Y-71525180D02*
X72287030Y-71477561D01*
X72287030Y-71477561D02*
X72239411Y-71429942D01*
X72239411Y-71429942D02*
X72191792Y-71334704D01*
X72191792Y-71334704D02*
X72191792Y-71191847D01*
X72191792Y-71191847D02*
X72239411Y-71096609D01*
X72239411Y-71096609D02*
X72287030Y-71048990D01*
X72287030Y-71048990D02*
X72382268Y-71001371D01*
X72382268Y-71001371D02*
X72763220Y-71001371D01*
X71763220Y-70525180D02*
X71763220Y-71525180D01*
X71096554Y-71525180D02*
X70906078Y-71525180D01*
X70906078Y-71525180D02*
X70810840Y-71477561D01*
X70810840Y-71477561D02*
X70715602Y-71382323D01*
X70715602Y-71382323D02*
X70667983Y-71191847D01*
X70667983Y-71191847D02*
X70667983Y-70858514D01*
X70667983Y-70858514D02*
X70715602Y-70668038D01*
X70715602Y-70668038D02*
X70810840Y-70572800D01*
X70810840Y-70572800D02*
X70906078Y-70525180D01*
X70906078Y-70525180D02*
X71096554Y-70525180D01*
X71096554Y-70525180D02*
X71191792Y-70572800D01*
X71191792Y-70572800D02*
X71287030Y-70668038D01*
X71287030Y-70668038D02*
X71334649Y-70858514D01*
X71334649Y-70858514D02*
X71334649Y-71191847D01*
X71334649Y-71191847D02*
X71287030Y-71382323D01*
X71287030Y-71382323D02*
X71191792Y-71477561D01*
X71191792Y-71477561D02*
X71096554Y-71525180D01*
X69715602Y-70525180D02*
X70287030Y-70525180D01*
X70001316Y-70525180D02*
X70001316Y-71525180D01*
X70001316Y-71525180D02*
X70096554Y-71382323D01*
X70096554Y-71382323D02*
X70191792Y-71287085D01*
X70191792Y-71287085D02*
X70287030Y-71239466D01*
X69382268Y-71525180D02*
X68763221Y-71525180D01*
X68763221Y-71525180D02*
X69096554Y-71144228D01*
X69096554Y-71144228D02*
X68953697Y-71144228D01*
X68953697Y-71144228D02*
X68858459Y-71096609D01*
X68858459Y-71096609D02*
X68810840Y-71048990D01*
X68810840Y-71048990D02*
X68763221Y-70953752D01*
X68763221Y-70953752D02*
X68763221Y-70715657D01*
X68763221Y-70715657D02*
X68810840Y-70620419D01*
X68810840Y-70620419D02*
X68858459Y-70572800D01*
X68858459Y-70572800D02*
X68953697Y-70525180D01*
X68953697Y-70525180D02*
X69239411Y-70525180D01*
X69239411Y-70525180D02*
X69334649Y-70572800D01*
X69334649Y-70572800D02*
X69382268Y-70620419D01*
X79359412Y-56237561D02*
X79454650Y-56285180D01*
X79454650Y-56285180D02*
X79597507Y-56285180D01*
X79597507Y-56285180D02*
X79740364Y-56237561D01*
X79740364Y-56237561D02*
X79835602Y-56142323D01*
X79835602Y-56142323D02*
X79883221Y-56047085D01*
X79883221Y-56047085D02*
X79930840Y-55856609D01*
X79930840Y-55856609D02*
X79930840Y-55713752D01*
X79930840Y-55713752D02*
X79883221Y-55523276D01*
X79883221Y-55523276D02*
X79835602Y-55428038D01*
X79835602Y-55428038D02*
X79740364Y-55332800D01*
X79740364Y-55332800D02*
X79597507Y-55285180D01*
X79597507Y-55285180D02*
X79502269Y-55285180D01*
X79502269Y-55285180D02*
X79359412Y-55332800D01*
X79359412Y-55332800D02*
X79311793Y-55380419D01*
X79311793Y-55380419D02*
X79311793Y-55713752D01*
X79311793Y-55713752D02*
X79502269Y-55713752D01*
X78883221Y-55285180D02*
X78883221Y-56285180D01*
X78883221Y-56285180D02*
X78502269Y-56285180D01*
X78502269Y-56285180D02*
X78407031Y-56237561D01*
X78407031Y-56237561D02*
X78359412Y-56189942D01*
X78359412Y-56189942D02*
X78311793Y-56094704D01*
X78311793Y-56094704D02*
X78311793Y-55951847D01*
X78311793Y-55951847D02*
X78359412Y-55856609D01*
X78359412Y-55856609D02*
X78407031Y-55808990D01*
X78407031Y-55808990D02*
X78502269Y-55761371D01*
X78502269Y-55761371D02*
X78883221Y-55761371D01*
X77883221Y-55285180D02*
X77883221Y-56285180D01*
X77216555Y-56285180D02*
X77026079Y-56285180D01*
X77026079Y-56285180D02*
X76930841Y-56237561D01*
X76930841Y-56237561D02*
X76835603Y-56142323D01*
X76835603Y-56142323D02*
X76787984Y-55951847D01*
X76787984Y-55951847D02*
X76787984Y-55618514D01*
X76787984Y-55618514D02*
X76835603Y-55428038D01*
X76835603Y-55428038D02*
X76930841Y-55332800D01*
X76930841Y-55332800D02*
X77026079Y-55285180D01*
X77026079Y-55285180D02*
X77216555Y-55285180D01*
X77216555Y-55285180D02*
X77311793Y-55332800D01*
X77311793Y-55332800D02*
X77407031Y-55428038D01*
X77407031Y-55428038D02*
X77454650Y-55618514D01*
X77454650Y-55618514D02*
X77454650Y-55951847D01*
X77454650Y-55951847D02*
X77407031Y-56142323D01*
X77407031Y-56142323D02*
X77311793Y-56237561D01*
X77311793Y-56237561D02*
X77216555Y-56285180D01*
X75930841Y-56285180D02*
X76121317Y-56285180D01*
X76121317Y-56285180D02*
X76216555Y-56237561D01*
X76216555Y-56237561D02*
X76264174Y-56189942D01*
X76264174Y-56189942D02*
X76359412Y-56047085D01*
X76359412Y-56047085D02*
X76407031Y-55856609D01*
X76407031Y-55856609D02*
X76407031Y-55475657D01*
X76407031Y-55475657D02*
X76359412Y-55380419D01*
X76359412Y-55380419D02*
X76311793Y-55332800D01*
X76311793Y-55332800D02*
X76216555Y-55285180D01*
X76216555Y-55285180D02*
X76026079Y-55285180D01*
X76026079Y-55285180D02*
X75930841Y-55332800D01*
X75930841Y-55332800D02*
X75883222Y-55380419D01*
X75883222Y-55380419D02*
X75835603Y-55475657D01*
X75835603Y-55475657D02*
X75835603Y-55713752D01*
X75835603Y-55713752D02*
X75883222Y-55808990D01*
X75883222Y-55808990D02*
X75930841Y-55856609D01*
X75930841Y-55856609D02*
X76026079Y-55904228D01*
X76026079Y-55904228D02*
X76216555Y-55904228D01*
X76216555Y-55904228D02*
X76311793Y-55856609D01*
X76311793Y-55856609D02*
X76359412Y-55808990D01*
X76359412Y-55808990D02*
X76407031Y-55713752D01*
X79637030Y-76605180D02*
X80113220Y-76605180D01*
X80113220Y-76605180D02*
X80160839Y-76128990D01*
X80160839Y-76128990D02*
X80113220Y-76176609D01*
X80113220Y-76176609D02*
X80017982Y-76224228D01*
X80017982Y-76224228D02*
X79779887Y-76224228D01*
X79779887Y-76224228D02*
X79684649Y-76176609D01*
X79684649Y-76176609D02*
X79637030Y-76128990D01*
X79637030Y-76128990D02*
X79589411Y-76033752D01*
X79589411Y-76033752D02*
X79589411Y-75795657D01*
X79589411Y-75795657D02*
X79637030Y-75700419D01*
X79637030Y-75700419D02*
X79684649Y-75652800D01*
X79684649Y-75652800D02*
X79779887Y-75605180D01*
X79779887Y-75605180D02*
X80017982Y-75605180D01*
X80017982Y-75605180D02*
X80113220Y-75652800D01*
X80113220Y-75652800D02*
X80160839Y-75700419D01*
X79303696Y-76605180D02*
X78970363Y-75605180D01*
X78970363Y-75605180D02*
X78637030Y-76605180D01*
X79589411Y-66397561D02*
X79684649Y-66445180D01*
X79684649Y-66445180D02*
X79827506Y-66445180D01*
X79827506Y-66445180D02*
X79970363Y-66397561D01*
X79970363Y-66397561D02*
X80065601Y-66302323D01*
X80065601Y-66302323D02*
X80113220Y-66207085D01*
X80113220Y-66207085D02*
X80160839Y-66016609D01*
X80160839Y-66016609D02*
X80160839Y-65873752D01*
X80160839Y-65873752D02*
X80113220Y-65683276D01*
X80113220Y-65683276D02*
X80065601Y-65588038D01*
X80065601Y-65588038D02*
X79970363Y-65492800D01*
X79970363Y-65492800D02*
X79827506Y-65445180D01*
X79827506Y-65445180D02*
X79732268Y-65445180D01*
X79732268Y-65445180D02*
X79589411Y-65492800D01*
X79589411Y-65492800D02*
X79541792Y-65540419D01*
X79541792Y-65540419D02*
X79541792Y-65873752D01*
X79541792Y-65873752D02*
X79732268Y-65873752D01*
X79113220Y-65445180D02*
X79113220Y-66445180D01*
X79113220Y-66445180D02*
X78732268Y-66445180D01*
X78732268Y-66445180D02*
X78637030Y-66397561D01*
X78637030Y-66397561D02*
X78589411Y-66349942D01*
X78589411Y-66349942D02*
X78541792Y-66254704D01*
X78541792Y-66254704D02*
X78541792Y-66111847D01*
X78541792Y-66111847D02*
X78589411Y-66016609D01*
X78589411Y-66016609D02*
X78637030Y-65968990D01*
X78637030Y-65968990D02*
X78732268Y-65921371D01*
X78732268Y-65921371D02*
X79113220Y-65921371D01*
X78113220Y-65445180D02*
X78113220Y-66445180D01*
X77446554Y-66445180D02*
X77256078Y-66445180D01*
X77256078Y-66445180D02*
X77160840Y-66397561D01*
X77160840Y-66397561D02*
X77065602Y-66302323D01*
X77065602Y-66302323D02*
X77017983Y-66111847D01*
X77017983Y-66111847D02*
X77017983Y-65778514D01*
X77017983Y-65778514D02*
X77065602Y-65588038D01*
X77065602Y-65588038D02*
X77160840Y-65492800D01*
X77160840Y-65492800D02*
X77256078Y-65445180D01*
X77256078Y-65445180D02*
X77446554Y-65445180D01*
X77446554Y-65445180D02*
X77541792Y-65492800D01*
X77541792Y-65492800D02*
X77637030Y-65588038D01*
X77637030Y-65588038D02*
X77684649Y-65778514D01*
X77684649Y-65778514D02*
X77684649Y-66111847D01*
X77684649Y-66111847D02*
X77637030Y-66302323D01*
X77637030Y-66302323D02*
X77541792Y-66397561D01*
X77541792Y-66397561D02*
X77446554Y-66445180D01*
X76637030Y-66349942D02*
X76589411Y-66397561D01*
X76589411Y-66397561D02*
X76494173Y-66445180D01*
X76494173Y-66445180D02*
X76256078Y-66445180D01*
X76256078Y-66445180D02*
X76160840Y-66397561D01*
X76160840Y-66397561D02*
X76113221Y-66349942D01*
X76113221Y-66349942D02*
X76065602Y-66254704D01*
X76065602Y-66254704D02*
X76065602Y-66159466D01*
X76065602Y-66159466D02*
X76113221Y-66016609D01*
X76113221Y-66016609D02*
X76684649Y-65445180D01*
X76684649Y-65445180D02*
X76065602Y-65445180D01*
X73239411Y-66397561D02*
X73334649Y-66445180D01*
X73334649Y-66445180D02*
X73477506Y-66445180D01*
X73477506Y-66445180D02*
X73620363Y-66397561D01*
X73620363Y-66397561D02*
X73715601Y-66302323D01*
X73715601Y-66302323D02*
X73763220Y-66207085D01*
X73763220Y-66207085D02*
X73810839Y-66016609D01*
X73810839Y-66016609D02*
X73810839Y-65873752D01*
X73810839Y-65873752D02*
X73763220Y-65683276D01*
X73763220Y-65683276D02*
X73715601Y-65588038D01*
X73715601Y-65588038D02*
X73620363Y-65492800D01*
X73620363Y-65492800D02*
X73477506Y-65445180D01*
X73477506Y-65445180D02*
X73382268Y-65445180D01*
X73382268Y-65445180D02*
X73239411Y-65492800D01*
X73239411Y-65492800D02*
X73191792Y-65540419D01*
X73191792Y-65540419D02*
X73191792Y-65873752D01*
X73191792Y-65873752D02*
X73382268Y-65873752D01*
X72763220Y-65445180D02*
X72763220Y-66445180D01*
X72763220Y-66445180D02*
X72382268Y-66445180D01*
X72382268Y-66445180D02*
X72287030Y-66397561D01*
X72287030Y-66397561D02*
X72239411Y-66349942D01*
X72239411Y-66349942D02*
X72191792Y-66254704D01*
X72191792Y-66254704D02*
X72191792Y-66111847D01*
X72191792Y-66111847D02*
X72239411Y-66016609D01*
X72239411Y-66016609D02*
X72287030Y-65968990D01*
X72287030Y-65968990D02*
X72382268Y-65921371D01*
X72382268Y-65921371D02*
X72763220Y-65921371D01*
X71763220Y-65445180D02*
X71763220Y-66445180D01*
X71096554Y-66445180D02*
X70906078Y-66445180D01*
X70906078Y-66445180D02*
X70810840Y-66397561D01*
X70810840Y-66397561D02*
X70715602Y-66302323D01*
X70715602Y-66302323D02*
X70667983Y-66111847D01*
X70667983Y-66111847D02*
X70667983Y-65778514D01*
X70667983Y-65778514D02*
X70715602Y-65588038D01*
X70715602Y-65588038D02*
X70810840Y-65492800D01*
X70810840Y-65492800D02*
X70906078Y-65445180D01*
X70906078Y-65445180D02*
X71096554Y-65445180D01*
X71096554Y-65445180D02*
X71191792Y-65492800D01*
X71191792Y-65492800D02*
X71287030Y-65588038D01*
X71287030Y-65588038D02*
X71334649Y-65778514D01*
X71334649Y-65778514D02*
X71334649Y-66111847D01*
X71334649Y-66111847D02*
X71287030Y-66302323D01*
X71287030Y-66302323D02*
X71191792Y-66397561D01*
X71191792Y-66397561D02*
X71096554Y-66445180D01*
X69715602Y-65445180D02*
X70287030Y-65445180D01*
X70001316Y-65445180D02*
X70001316Y-66445180D01*
X70001316Y-66445180D02*
X70096554Y-66302323D01*
X70096554Y-66302323D02*
X70191792Y-66207085D01*
X70191792Y-66207085D02*
X70287030Y-66159466D01*
X68763221Y-65445180D02*
X69334649Y-65445180D01*
X69048935Y-65445180D02*
X69048935Y-66445180D01*
X69048935Y-66445180D02*
X69144173Y-66302323D01*
X69144173Y-66302323D02*
X69239411Y-66207085D01*
X69239411Y-66207085D02*
X69334649Y-66159466D01*
X78065601Y-73022438D02*
X77970363Y-72974819D01*
X77970363Y-72974819D02*
X77827506Y-72974819D01*
X77827506Y-72974819D02*
X77684649Y-73022438D01*
X77684649Y-73022438D02*
X77589411Y-73117676D01*
X77589411Y-73117676D02*
X77541792Y-73212914D01*
X77541792Y-73212914D02*
X77494173Y-73403390D01*
X77494173Y-73403390D02*
X77494173Y-73546247D01*
X77494173Y-73546247D02*
X77541792Y-73736723D01*
X77541792Y-73736723D02*
X77589411Y-73831961D01*
X77589411Y-73831961D02*
X77684649Y-73927200D01*
X77684649Y-73927200D02*
X77827506Y-73974819D01*
X77827506Y-73974819D02*
X77922744Y-73974819D01*
X77922744Y-73974819D02*
X78065601Y-73927200D01*
X78065601Y-73927200D02*
X78113220Y-73879580D01*
X78113220Y-73879580D02*
X78113220Y-73546247D01*
X78113220Y-73546247D02*
X77922744Y-73546247D01*
X78541792Y-73974819D02*
X78541792Y-72974819D01*
X78541792Y-72974819D02*
X79113220Y-73974819D01*
X79113220Y-73974819D02*
X79113220Y-72974819D01*
X79589411Y-73974819D02*
X79589411Y-72974819D01*
X79589411Y-72974819D02*
X79827506Y-72974819D01*
X79827506Y-72974819D02*
X79970363Y-73022438D01*
X79970363Y-73022438D02*
X80065601Y-73117676D01*
X80065601Y-73117676D02*
X80113220Y-73212914D01*
X80113220Y-73212914D02*
X80160839Y-73403390D01*
X80160839Y-73403390D02*
X80160839Y-73546247D01*
X80160839Y-73546247D02*
X80113220Y-73736723D01*
X80113220Y-73736723D02*
X80065601Y-73831961D01*
X80065601Y-73831961D02*
X79970363Y-73927200D01*
X79970363Y-73927200D02*
X79827506Y-73974819D01*
X79827506Y-73974819D02*
X79589411Y-73974819D01*
X70507732Y-76605180D02*
X69936304Y-76605180D01*
X70222018Y-75605180D02*
X70222018Y-76605180D01*
X69698208Y-76605180D02*
X69031542Y-75605180D01*
X69031542Y-76605180D02*
X69698208Y-75605180D01*
X72239411Y-61087562D02*
X72334649Y-61135181D01*
X72334649Y-61135181D02*
X72477506Y-61135181D01*
X72477506Y-61135181D02*
X72620363Y-61087562D01*
X72620363Y-61087562D02*
X72715601Y-60992324D01*
X72715601Y-60992324D02*
X72763220Y-60897086D01*
X72763220Y-60897086D02*
X72810839Y-60706610D01*
X72810839Y-60706610D02*
X72810839Y-60563753D01*
X72810839Y-60563753D02*
X72763220Y-60373277D01*
X72763220Y-60373277D02*
X72715601Y-60278039D01*
X72715601Y-60278039D02*
X72620363Y-60182801D01*
X72620363Y-60182801D02*
X72477506Y-60135181D01*
X72477506Y-60135181D02*
X72382268Y-60135181D01*
X72382268Y-60135181D02*
X72239411Y-60182801D01*
X72239411Y-60182801D02*
X72191792Y-60230420D01*
X72191792Y-60230420D02*
X72191792Y-60563753D01*
X72191792Y-60563753D02*
X72382268Y-60563753D01*
X71763220Y-60135181D02*
X71763220Y-61135181D01*
X71763220Y-61135181D02*
X71382268Y-61135181D01*
X71382268Y-61135181D02*
X71287030Y-61087562D01*
X71287030Y-61087562D02*
X71239411Y-61039943D01*
X71239411Y-61039943D02*
X71191792Y-60944705D01*
X71191792Y-60944705D02*
X71191792Y-60801848D01*
X71191792Y-60801848D02*
X71239411Y-60706610D01*
X71239411Y-60706610D02*
X71287030Y-60658991D01*
X71287030Y-60658991D02*
X71382268Y-60611372D01*
X71382268Y-60611372D02*
X71763220Y-60611372D01*
X70763220Y-60135181D02*
X70763220Y-61135181D01*
X70096554Y-61135181D02*
X69906078Y-61135181D01*
X69906078Y-61135181D02*
X69810840Y-61087562D01*
X69810840Y-61087562D02*
X69715602Y-60992324D01*
X69715602Y-60992324D02*
X69667983Y-60801848D01*
X69667983Y-60801848D02*
X69667983Y-60468515D01*
X69667983Y-60468515D02*
X69715602Y-60278039D01*
X69715602Y-60278039D02*
X69810840Y-60182801D01*
X69810840Y-60182801D02*
X69906078Y-60135181D01*
X69906078Y-60135181D02*
X70096554Y-60135181D01*
X70096554Y-60135181D02*
X70191792Y-60182801D01*
X70191792Y-60182801D02*
X70287030Y-60278039D01*
X70287030Y-60278039D02*
X70334649Y-60468515D01*
X70334649Y-60468515D02*
X70334649Y-60801848D01*
X70334649Y-60801848D02*
X70287030Y-60992324D01*
X70287030Y-60992324D02*
X70191792Y-61087562D01*
X70191792Y-61087562D02*
X70096554Y-61135181D01*
X69191792Y-60135181D02*
X69001316Y-60135181D01*
X69001316Y-60135181D02*
X68906078Y-60182801D01*
X68906078Y-60182801D02*
X68858459Y-60230420D01*
X68858459Y-60230420D02*
X68763221Y-60373277D01*
X68763221Y-60373277D02*
X68715602Y-60563753D01*
X68715602Y-60563753D02*
X68715602Y-60944705D01*
X68715602Y-60944705D02*
X68763221Y-61039943D01*
X68763221Y-61039943D02*
X68810840Y-61087562D01*
X68810840Y-61087562D02*
X68906078Y-61135181D01*
X68906078Y-61135181D02*
X69096554Y-61135181D01*
X69096554Y-61135181D02*
X69191792Y-61087562D01*
X69191792Y-61087562D02*
X69239411Y-61039943D01*
X69239411Y-61039943D02*
X69287030Y-60944705D01*
X69287030Y-60944705D02*
X69287030Y-60706610D01*
X69287030Y-60706610D02*
X69239411Y-60611372D01*
X69239411Y-60611372D02*
X69191792Y-60563753D01*
X69191792Y-60563753D02*
X69096554Y-60516134D01*
X69096554Y-60516134D02*
X68906078Y-60516134D01*
X68906078Y-60516134D02*
X68810840Y-60563753D01*
X68810840Y-60563753D02*
X68763221Y-60611372D01*
X68763221Y-60611372D02*
X68715602Y-60706610D01*
X80208458Y-71525180D02*
X79589411Y-71525180D01*
X79589411Y-71525180D02*
X79922744Y-71144228D01*
X79922744Y-71144228D02*
X79779887Y-71144228D01*
X79779887Y-71144228D02*
X79684649Y-71096609D01*
X79684649Y-71096609D02*
X79637030Y-71048990D01*
X79637030Y-71048990D02*
X79589411Y-70953752D01*
X79589411Y-70953752D02*
X79589411Y-70715657D01*
X79589411Y-70715657D02*
X79637030Y-70620419D01*
X79637030Y-70620419D02*
X79684649Y-70572800D01*
X79684649Y-70572800D02*
X79779887Y-70525180D01*
X79779887Y-70525180D02*
X80065601Y-70525180D01*
X80065601Y-70525180D02*
X80160839Y-70572800D01*
X80160839Y-70572800D02*
X80208458Y-70620419D01*
X79303696Y-71525180D02*
X78970363Y-70525180D01*
X78970363Y-70525180D02*
X78637030Y-71525180D01*
X78398934Y-71525180D02*
X77779887Y-71525180D01*
X77779887Y-71525180D02*
X78113220Y-71144228D01*
X78113220Y-71144228D02*
X77970363Y-71144228D01*
X77970363Y-71144228D02*
X77875125Y-71096609D01*
X77875125Y-71096609D02*
X77827506Y-71048990D01*
X77827506Y-71048990D02*
X77779887Y-70953752D01*
X77779887Y-70953752D02*
X77779887Y-70715657D01*
X77779887Y-70715657D02*
X77827506Y-70620419D01*
X77827506Y-70620419D02*
X77875125Y-70572800D01*
X77875125Y-70572800D02*
X77970363Y-70525180D01*
X77970363Y-70525180D02*
X78256077Y-70525180D01*
X78256077Y-70525180D02*
X78351315Y-70572800D01*
X78351315Y-70572800D02*
X78398934Y-70620419D01*
X72239411Y-58777561D02*
X72334649Y-58825180D01*
X72334649Y-58825180D02*
X72477506Y-58825180D01*
X72477506Y-58825180D02*
X72620363Y-58777561D01*
X72620363Y-58777561D02*
X72715601Y-58682323D01*
X72715601Y-58682323D02*
X72763220Y-58587085D01*
X72763220Y-58587085D02*
X72810839Y-58396609D01*
X72810839Y-58396609D02*
X72810839Y-58253752D01*
X72810839Y-58253752D02*
X72763220Y-58063276D01*
X72763220Y-58063276D02*
X72715601Y-57968038D01*
X72715601Y-57968038D02*
X72620363Y-57872800D01*
X72620363Y-57872800D02*
X72477506Y-57825180D01*
X72477506Y-57825180D02*
X72382268Y-57825180D01*
X72382268Y-57825180D02*
X72239411Y-57872800D01*
X72239411Y-57872800D02*
X72191792Y-57920419D01*
X72191792Y-57920419D02*
X72191792Y-58253752D01*
X72191792Y-58253752D02*
X72382268Y-58253752D01*
X71763220Y-57825180D02*
X71763220Y-58825180D01*
X71763220Y-58825180D02*
X71382268Y-58825180D01*
X71382268Y-58825180D02*
X71287030Y-58777561D01*
X71287030Y-58777561D02*
X71239411Y-58729942D01*
X71239411Y-58729942D02*
X71191792Y-58634704D01*
X71191792Y-58634704D02*
X71191792Y-58491847D01*
X71191792Y-58491847D02*
X71239411Y-58396609D01*
X71239411Y-58396609D02*
X71287030Y-58348990D01*
X71287030Y-58348990D02*
X71382268Y-58301371D01*
X71382268Y-58301371D02*
X71763220Y-58301371D01*
X70763220Y-57825180D02*
X70763220Y-58825180D01*
X70096554Y-58825180D02*
X69906078Y-58825180D01*
X69906078Y-58825180D02*
X69810840Y-58777561D01*
X69810840Y-58777561D02*
X69715602Y-58682323D01*
X69715602Y-58682323D02*
X69667983Y-58491847D01*
X69667983Y-58491847D02*
X69667983Y-58158514D01*
X69667983Y-58158514D02*
X69715602Y-57968038D01*
X69715602Y-57968038D02*
X69810840Y-57872800D01*
X69810840Y-57872800D02*
X69906078Y-57825180D01*
X69906078Y-57825180D02*
X70096554Y-57825180D01*
X70096554Y-57825180D02*
X70191792Y-57872800D01*
X70191792Y-57872800D02*
X70287030Y-57968038D01*
X70287030Y-57968038D02*
X70334649Y-58158514D01*
X70334649Y-58158514D02*
X70334649Y-58491847D01*
X70334649Y-58491847D02*
X70287030Y-58682323D01*
X70287030Y-58682323D02*
X70191792Y-58777561D01*
X70191792Y-58777561D02*
X70096554Y-58825180D01*
X69096554Y-58396609D02*
X69191792Y-58444228D01*
X69191792Y-58444228D02*
X69239411Y-58491847D01*
X69239411Y-58491847D02*
X69287030Y-58587085D01*
X69287030Y-58587085D02*
X69287030Y-58634704D01*
X69287030Y-58634704D02*
X69239411Y-58729942D01*
X69239411Y-58729942D02*
X69191792Y-58777561D01*
X69191792Y-58777561D02*
X69096554Y-58825180D01*
X69096554Y-58825180D02*
X68906078Y-58825180D01*
X68906078Y-58825180D02*
X68810840Y-58777561D01*
X68810840Y-58777561D02*
X68763221Y-58729942D01*
X68763221Y-58729942D02*
X68715602Y-58634704D01*
X68715602Y-58634704D02*
X68715602Y-58587085D01*
X68715602Y-58587085D02*
X68763221Y-58491847D01*
X68763221Y-58491847D02*
X68810840Y-58444228D01*
X68810840Y-58444228D02*
X68906078Y-58396609D01*
X68906078Y-58396609D02*
X69096554Y-58396609D01*
X69096554Y-58396609D02*
X69191792Y-58348990D01*
X69191792Y-58348990D02*
X69239411Y-58301371D01*
X69239411Y-58301371D02*
X69287030Y-58206133D01*
X69287030Y-58206133D02*
X69287030Y-58015657D01*
X69287030Y-58015657D02*
X69239411Y-57920419D01*
X69239411Y-57920419D02*
X69191792Y-57872800D01*
X69191792Y-57872800D02*
X69096554Y-57825180D01*
X69096554Y-57825180D02*
X68906078Y-57825180D01*
X68906078Y-57825180D02*
X68810840Y-57872800D01*
X68810840Y-57872800D02*
X68763221Y-57920419D01*
X68763221Y-57920419D02*
X68715602Y-58015657D01*
X68715602Y-58015657D02*
X68715602Y-58206133D01*
X68715602Y-58206133D02*
X68763221Y-58301371D01*
X68763221Y-58301371D02*
X68810840Y-58348990D01*
X68810840Y-58348990D02*
X68906078Y-58396609D01*
X70031542Y-73065180D02*
X70364875Y-73541371D01*
X70602970Y-73065180D02*
X70602970Y-74065180D01*
X70602970Y-74065180D02*
X70222018Y-74065180D01*
X70222018Y-74065180D02*
X70126780Y-74017561D01*
X70126780Y-74017561D02*
X70079161Y-73969942D01*
X70079161Y-73969942D02*
X70031542Y-73874704D01*
X70031542Y-73874704D02*
X70031542Y-73731847D01*
X70031542Y-73731847D02*
X70079161Y-73636609D01*
X70079161Y-73636609D02*
X70126780Y-73588990D01*
X70126780Y-73588990D02*
X70222018Y-73541371D01*
X70222018Y-73541371D02*
X70602970Y-73541371D01*
X69698208Y-74065180D02*
X69031542Y-73065180D01*
X69031542Y-74065180D02*
X69698208Y-73065180D01*
X79359412Y-63857561D02*
X79454650Y-63905180D01*
X79454650Y-63905180D02*
X79597507Y-63905180D01*
X79597507Y-63905180D02*
X79740364Y-63857561D01*
X79740364Y-63857561D02*
X79835602Y-63762323D01*
X79835602Y-63762323D02*
X79883221Y-63667085D01*
X79883221Y-63667085D02*
X79930840Y-63476609D01*
X79930840Y-63476609D02*
X79930840Y-63333752D01*
X79930840Y-63333752D02*
X79883221Y-63143276D01*
X79883221Y-63143276D02*
X79835602Y-63048038D01*
X79835602Y-63048038D02*
X79740364Y-62952800D01*
X79740364Y-62952800D02*
X79597507Y-62905180D01*
X79597507Y-62905180D02*
X79502269Y-62905180D01*
X79502269Y-62905180D02*
X79359412Y-62952800D01*
X79359412Y-62952800D02*
X79311793Y-63000419D01*
X79311793Y-63000419D02*
X79311793Y-63333752D01*
X79311793Y-63333752D02*
X79502269Y-63333752D01*
X78883221Y-62905180D02*
X78883221Y-63905180D01*
X78883221Y-63905180D02*
X78502269Y-63905180D01*
X78502269Y-63905180D02*
X78407031Y-63857561D01*
X78407031Y-63857561D02*
X78359412Y-63809942D01*
X78359412Y-63809942D02*
X78311793Y-63714704D01*
X78311793Y-63714704D02*
X78311793Y-63571847D01*
X78311793Y-63571847D02*
X78359412Y-63476609D01*
X78359412Y-63476609D02*
X78407031Y-63428990D01*
X78407031Y-63428990D02*
X78502269Y-63381371D01*
X78502269Y-63381371D02*
X78883221Y-63381371D01*
X77883221Y-62905180D02*
X77883221Y-63905180D01*
X77216555Y-63905180D02*
X77026079Y-63905180D01*
X77026079Y-63905180D02*
X76930841Y-63857561D01*
X76930841Y-63857561D02*
X76835603Y-63762323D01*
X76835603Y-63762323D02*
X76787984Y-63571847D01*
X76787984Y-63571847D02*
X76787984Y-63238514D01*
X76787984Y-63238514D02*
X76835603Y-63048038D01*
X76835603Y-63048038D02*
X76930841Y-62952800D01*
X76930841Y-62952800D02*
X77026079Y-62905180D01*
X77026079Y-62905180D02*
X77216555Y-62905180D01*
X77216555Y-62905180D02*
X77311793Y-62952800D01*
X77311793Y-62952800D02*
X77407031Y-63048038D01*
X77407031Y-63048038D02*
X77454650Y-63238514D01*
X77454650Y-63238514D02*
X77454650Y-63571847D01*
X77454650Y-63571847D02*
X77407031Y-63762323D01*
X77407031Y-63762323D02*
X77311793Y-63857561D01*
X77311793Y-63857561D02*
X77216555Y-63905180D01*
X76454650Y-63905180D02*
X75835603Y-63905180D01*
X75835603Y-63905180D02*
X76168936Y-63524228D01*
X76168936Y-63524228D02*
X76026079Y-63524228D01*
X76026079Y-63524228D02*
X75930841Y-63476609D01*
X75930841Y-63476609D02*
X75883222Y-63428990D01*
X75883222Y-63428990D02*
X75835603Y-63333752D01*
X75835603Y-63333752D02*
X75835603Y-63095657D01*
X75835603Y-63095657D02*
X75883222Y-63000419D01*
X75883222Y-63000419D02*
X75930841Y-62952800D01*
X75930841Y-62952800D02*
X76026079Y-62905180D01*
X76026079Y-62905180D02*
X76311793Y-62905180D01*
X76311793Y-62905180D02*
X76407031Y-62952800D01*
X76407031Y-62952800D02*
X76454650Y-63000419D01*
X79359412Y-61317561D02*
X79454650Y-61365180D01*
X79454650Y-61365180D02*
X79597507Y-61365180D01*
X79597507Y-61365180D02*
X79740364Y-61317561D01*
X79740364Y-61317561D02*
X79835602Y-61222323D01*
X79835602Y-61222323D02*
X79883221Y-61127085D01*
X79883221Y-61127085D02*
X79930840Y-60936609D01*
X79930840Y-60936609D02*
X79930840Y-60793752D01*
X79930840Y-60793752D02*
X79883221Y-60603276D01*
X79883221Y-60603276D02*
X79835602Y-60508038D01*
X79835602Y-60508038D02*
X79740364Y-60412800D01*
X79740364Y-60412800D02*
X79597507Y-60365180D01*
X79597507Y-60365180D02*
X79502269Y-60365180D01*
X79502269Y-60365180D02*
X79359412Y-60412800D01*
X79359412Y-60412800D02*
X79311793Y-60460419D01*
X79311793Y-60460419D02*
X79311793Y-60793752D01*
X79311793Y-60793752D02*
X79502269Y-60793752D01*
X78883221Y-60365180D02*
X78883221Y-61365180D01*
X78883221Y-61365180D02*
X78502269Y-61365180D01*
X78502269Y-61365180D02*
X78407031Y-61317561D01*
X78407031Y-61317561D02*
X78359412Y-61269942D01*
X78359412Y-61269942D02*
X78311793Y-61174704D01*
X78311793Y-61174704D02*
X78311793Y-61031847D01*
X78311793Y-61031847D02*
X78359412Y-60936609D01*
X78359412Y-60936609D02*
X78407031Y-60888990D01*
X78407031Y-60888990D02*
X78502269Y-60841371D01*
X78502269Y-60841371D02*
X78883221Y-60841371D01*
X77883221Y-60365180D02*
X77883221Y-61365180D01*
X77216555Y-61365180D02*
X77026079Y-61365180D01*
X77026079Y-61365180D02*
X76930841Y-61317561D01*
X76930841Y-61317561D02*
X76835603Y-61222323D01*
X76835603Y-61222323D02*
X76787984Y-61031847D01*
X76787984Y-61031847D02*
X76787984Y-60698514D01*
X76787984Y-60698514D02*
X76835603Y-60508038D01*
X76835603Y-60508038D02*
X76930841Y-60412800D01*
X76930841Y-60412800D02*
X77026079Y-60365180D01*
X77026079Y-60365180D02*
X77216555Y-60365180D01*
X77216555Y-60365180D02*
X77311793Y-60412800D01*
X77311793Y-60412800D02*
X77407031Y-60508038D01*
X77407031Y-60508038D02*
X77454650Y-60698514D01*
X77454650Y-60698514D02*
X77454650Y-61031847D01*
X77454650Y-61031847D02*
X77407031Y-61222323D01*
X77407031Y-61222323D02*
X77311793Y-61317561D01*
X77311793Y-61317561D02*
X77216555Y-61365180D01*
X75930841Y-61031847D02*
X75930841Y-60365180D01*
X76168936Y-61412800D02*
X76407031Y-60698514D01*
X76407031Y-60698514D02*
X75787984Y-60698514D01*
D12*
X65100000Y-54150000D02*
X65100000Y-77650000D01*
X65100000Y-77650000D02*
X83100000Y-77650000D01*
X71560000Y-78600000D02*
X71560000Y-77650000D01*
X76640000Y-77650000D02*
X76640000Y-78600000D01*
X76640000Y-78600000D02*
X71560000Y-78600000D01*
X83100000Y-54150000D02*
X65100000Y-54150000D01*
X83100000Y-77650000D02*
X83100000Y-54150000D01*
M02*
