G04 #@! TF.GenerationSoftware,KiCad,Pcbnew,8.0.7*
G04 #@! TF.CreationDate,2026-01-25T14:12:36-05:00*
G04 #@! TF.ProjectId,ESP32_S3_Adaptor,45535033-325f-4533-935f-41646170746f,rev?*
G04 #@! TF.SameCoordinates,Original*
G04 #@! TF.FileFunction,Soldermask,Bot*
G04 #@! TF.FilePolarity,Negative*
%FSLAX46Y46*%
G04 Gerber Fmt 4.6, Leading zero omitted, Abs format (unit mm)*
G04 Created by KiCad (PCBNEW 8.0.7) date 2026-01-25 14:12:36*
%MOMM*%
%LPD*%
G01*
G04 APERTURE LIST*
G04 Aperture macros list*
%AMFreePoly0*
4,1,11,0.600000,-3.000000,0.580902,-3.058779,0.530902,-3.095106,0.500000,-3.100000,-0.500000,-3.100000,-0.558779,-3.080902,-0.595106,-3.030902,-0.600000,-3.000000,-0.600000,1.000000,0.600000,1.000000,0.600000,-3.000000,0.600000,-3.000000,$1*%
G04 Aperture macros list end*
%ADD10C,1.400000*%
%ADD11FreePoly0,270.000000*%
%ADD12FreePoly0,90.000000*%
G04 APERTURE END LIST*
D10*
X88020000Y-70790000D03*
X85480000Y-70790000D03*
X88020000Y-68250000D03*
X85480000Y-68250000D03*
X88020000Y-65710000D03*
X85480000Y-65710000D03*
X88020000Y-63170000D03*
X85480000Y-63170000D03*
X88020000Y-60630000D03*
X85480000Y-60630000D03*
X88020000Y-58090000D03*
X85480000Y-58090000D03*
X88020000Y-55550000D03*
X85480000Y-55550000D03*
X88020000Y-53010000D03*
X85480000Y-53010000D03*
X88020000Y-50470000D03*
X85480000Y-50470000D03*
X88020000Y-47930000D03*
X85480000Y-47930000D03*
X62620000Y-70790000D03*
X60080000Y-70790000D03*
X62620000Y-68250000D03*
X60080000Y-68250000D03*
X62620000Y-65710000D03*
X60080000Y-65710000D03*
X62620000Y-63170000D03*
X60080000Y-63170000D03*
X62620000Y-60630000D03*
X60080000Y-60630000D03*
X62620000Y-58090000D03*
X60080000Y-58090000D03*
X62620000Y-55550000D03*
X60080000Y-55550000D03*
X62620000Y-53010000D03*
X60080000Y-53010000D03*
X62620000Y-50470000D03*
X60080000Y-50470000D03*
X62620000Y-47930000D03*
X60080000Y-47930000D03*
D11*
X67480000Y-76060000D03*
X67480000Y-73520000D03*
X67480000Y-70980000D03*
X67480000Y-68440000D03*
X67480000Y-65900000D03*
X67480000Y-63360000D03*
X67480000Y-60820000D03*
X67480000Y-58280000D03*
X67480000Y-55740000D03*
D12*
X80720000Y-55740000D03*
X80720000Y-58280000D03*
X80720000Y-60820000D03*
X80720000Y-63360000D03*
X80720000Y-65900000D03*
X80720000Y-68440000D03*
X80720000Y-70980000D03*
X80720000Y-73520000D03*
X80720000Y-76060000D03*
M02*
