G04 #@! TF.GenerationSoftware,KiCad,Pcbnew,8.0.7*
G04 #@! TF.CreationDate,2025-07-02T22:13:24-04:00*
G04 #@! TF.ProjectId,ESP32_MIDI_Summer25_FRETS_v2_5.kicad_pcb,45535033-325f-44d4-9944-495f53756d6d,rev?*
G04 #@! TF.SameCoordinates,Original*
G04 #@! TF.FileFunction,Soldermask,Bot*
G04 #@! TF.FilePolarity,Negative*
%FSLAX46Y46*%
G04 Gerber Fmt 4.6, Leading zero omitted, Abs format (unit mm)*
G04 Created by KiCad (PCBNEW 8.0.7) date 2025-07-02 22:13:24*
%MOMM*%
%LPD*%
G01*
G04 APERTURE LIST*
%ADD10C,11.000000*%
%ADD11C,6.800000*%
%ADD12C,3.200000*%
%ADD13R,1.700000X1.700000*%
%ADD14O,1.700000X1.700000*%
%ADD15C,1.700000*%
%ADD16C,4.300000*%
G04 APERTURE END LIST*
D10*
X207500000Y-55000000D03*
D11*
X207500000Y-55000000D03*
D10*
X221500000Y-45000000D03*
D11*
X221500000Y-45000000D03*
D10*
X95500000Y-55000000D03*
D11*
X95500000Y-55000000D03*
D10*
X123500000Y-55000000D03*
D11*
X123500000Y-55000000D03*
D10*
X235500000Y-55500000D03*
D11*
X235500000Y-55500000D03*
D12*
X281000000Y-40000000D03*
D10*
X165500000Y-45000000D03*
D11*
X165500000Y-45000000D03*
D10*
X179500000Y-55000000D03*
D11*
X179500000Y-55000000D03*
D13*
X281000000Y-45500000D03*
D14*
X281000000Y-48040000D03*
X281000000Y-50580000D03*
X281000000Y-53120000D03*
D15*
X243030000Y-41110000D03*
X245570000Y-41110000D03*
X248110000Y-41110000D03*
X250650000Y-41110000D03*
X253190000Y-41110000D03*
X255730000Y-41110000D03*
X258270000Y-41110000D03*
X260810000Y-41110000D03*
X263350000Y-41110000D03*
X265890000Y-41110000D03*
X268430000Y-41110000D03*
X270970000Y-41110000D03*
X263350000Y-58890000D03*
X260810000Y-58890000D03*
X258270000Y-58890000D03*
X255730000Y-58890000D03*
X253190000Y-58890000D03*
X250650000Y-58890000D03*
D10*
X137500000Y-45000000D03*
D11*
X137500000Y-45000000D03*
D10*
X193500000Y-45000000D03*
D11*
X193500000Y-45000000D03*
D10*
X151500000Y-55000000D03*
D11*
X151500000Y-55000000D03*
D10*
X81500000Y-45000000D03*
D11*
X81500000Y-45000000D03*
D16*
X109000000Y-59000000D03*
D11*
X109500000Y-46000000D03*
D10*
X109500000Y-46000000D03*
D12*
X281000000Y-59000000D03*
D16*
X150500000Y-40000000D03*
M02*
