G04 #@! TF.GenerationSoftware,KiCad,Pcbnew,8.0.7*
G04 #@! TF.CreationDate,2025-06-17T21:23:16-04:00*
G04 #@! TF.ProjectId,ESP32_MIDI_Summer25_Wand,45535033-325f-44d4-9944-495f53756d6d,rev?*
G04 #@! TF.SameCoordinates,Original*
G04 #@! TF.FileFunction,Copper,L2,Bot*
G04 #@! TF.FilePolarity,Positive*
%FSLAX46Y46*%
G04 Gerber Fmt 4.6, Leading zero omitted, Abs format (unit mm)*
G04 Created by KiCad (PCBNEW 8.0.7) date 2025-06-17 21:23:16*
%MOMM*%
%LPD*%
G01*
G04 APERTURE LIST*
G04 #@! TA.AperFunction,ComponentPad*
%ADD10R,1.600000X1.600000*%
G04 #@! TD*
G04 #@! TA.AperFunction,ComponentPad*
%ADD11C,1.600000*%
G04 #@! TD*
G04 #@! TA.AperFunction,ComponentPad*
%ADD12C,1.800000*%
G04 #@! TD*
G04 #@! TA.AperFunction,SMDPad,CuDef*
%ADD13R,6.000000X2.000000*%
G04 #@! TD*
G04 #@! TA.AperFunction,ComponentPad*
%ADD14R,1.700000X1.700000*%
G04 #@! TD*
G04 #@! TA.AperFunction,ComponentPad*
%ADD15O,1.700000X1.700000*%
G04 #@! TD*
G04 #@! TA.AperFunction,ComponentPad*
%ADD16C,1.400000*%
G04 #@! TD*
G04 #@! TA.AperFunction,ComponentPad*
%ADD17O,1.400000X1.400000*%
G04 #@! TD*
G04 #@! TA.AperFunction,ComponentPad*
%ADD18C,2.200000*%
G04 #@! TD*
G04 #@! TA.AperFunction,ViaPad*
%ADD19C,0.800000*%
G04 #@! TD*
G04 #@! TA.AperFunction,Conductor*
%ADD20C,0.500000*%
G04 #@! TD*
G04 #@! TA.AperFunction,Conductor*
%ADD21C,0.250000*%
G04 #@! TD*
G04 APERTURE END LIST*
D10*
X180044888Y-91500000D03*
D11*
X182044888Y-91500000D03*
X253500000Y-92000000D03*
X253500000Y-87000000D03*
X176000000Y-110500000D03*
X181000000Y-110500000D03*
D12*
X216750000Y-96000000D03*
X214750000Y-96000000D03*
X212750000Y-96000000D03*
X210750000Y-96000000D03*
X208750000Y-96000000D03*
D13*
X38500000Y-97500000D03*
X38500000Y-100000000D03*
X38500000Y-102500000D03*
X169500000Y-97500000D03*
X169500000Y-100000000D03*
X169500000Y-102500000D03*
D14*
X225300000Y-88000000D03*
D15*
X227840000Y-88000000D03*
X230380000Y-88000000D03*
X232920000Y-88000000D03*
X235460000Y-88000000D03*
X238000000Y-88000000D03*
X240540000Y-88000000D03*
D16*
X245000000Y-86000000D03*
D17*
X245000000Y-93620000D03*
D16*
X175500000Y-102310000D03*
D17*
X175500000Y-94690000D03*
D12*
X196250000Y-96000000D03*
X194250000Y-96000000D03*
X192250000Y-96000000D03*
X190250000Y-96000000D03*
X188250000Y-96000000D03*
D16*
X249000000Y-86000000D03*
D17*
X249000000Y-93620000D03*
D18*
X232200000Y-109500000D03*
X225850000Y-106960000D03*
X213150000Y-109500000D03*
X206800000Y-106960000D03*
X187750000Y-106960000D03*
X194100000Y-109500000D03*
X251250000Y-109500000D03*
X244900000Y-106960000D03*
D19*
X182275000Y-103987347D03*
X39000000Y-104500000D03*
X169500000Y-105000000D03*
X173750000Y-103750000D03*
X184500000Y-89000000D03*
X200500000Y-89500000D03*
X205000000Y-89500000D03*
X221000000Y-89000000D03*
X276000000Y-86000000D03*
X46500000Y-97500000D03*
X165500000Y-100000000D03*
D20*
X169500000Y-105000000D02*
X170000000Y-105500000D01*
X170000000Y-105500000D02*
X170500000Y-105500000D01*
X169500000Y-102500000D02*
X172500000Y-102500000D01*
X172500000Y-102500000D02*
X173750000Y-103750000D01*
X276000000Y-86000000D02*
X257500000Y-86000000D01*
X257500000Y-86000000D02*
X253500000Y-90000000D01*
X253500000Y-90000000D02*
X253500000Y-92000000D01*
X45500000Y-98500000D02*
X46500000Y-97500000D01*
X38500000Y-102500000D02*
X41500000Y-102500000D01*
X41500000Y-102500000D02*
X45500000Y-98500000D01*
D21*
X165500000Y-100000000D02*
X169500000Y-100000000D01*
G04 #@! TA.AperFunction,Conductor*
G36*
X255148969Y-84019685D02*
G01*
X255194724Y-84072489D01*
X255205926Y-84122984D01*
X255449795Y-113874984D01*
X255430660Y-113942182D01*
X255378233Y-113988368D01*
X255325799Y-114000000D01*
X172051362Y-114000000D01*
X171984323Y-113980315D01*
X171963681Y-113963681D01*
X166878711Y-108878711D01*
X169649500Y-108878711D01*
X169649500Y-109121288D01*
X169670556Y-109281233D01*
X169681162Y-109361789D01*
X169683326Y-109369866D01*
X169743947Y-109596104D01*
X169794756Y-109718767D01*
X169836776Y-109820212D01*
X169958064Y-110030289D01*
X169958066Y-110030292D01*
X169958067Y-110030293D01*
X170105733Y-110222736D01*
X170105739Y-110222743D01*
X170277256Y-110394260D01*
X170277263Y-110394266D01*
X170390321Y-110481018D01*
X170469711Y-110541936D01*
X170679788Y-110663224D01*
X170903900Y-110756054D01*
X171138211Y-110818838D01*
X171318586Y-110842584D01*
X171378711Y-110850500D01*
X171378712Y-110850500D01*
X171621289Y-110850500D01*
X171669388Y-110844167D01*
X171861789Y-110818838D01*
X172096100Y-110756054D01*
X172320212Y-110663224D01*
X172530289Y-110541936D01*
X172584944Y-110499998D01*
X174694532Y-110499998D01*
X174694532Y-110500001D01*
X174714364Y-110726686D01*
X174714366Y-110726697D01*
X174773258Y-110946488D01*
X174773261Y-110946497D01*
X174869431Y-111152732D01*
X174869432Y-111152734D01*
X174999954Y-111339141D01*
X175160858Y-111500045D01*
X175160861Y-111500047D01*
X175347266Y-111630568D01*
X175553504Y-111726739D01*
X175773308Y-111785635D01*
X175935230Y-111799801D01*
X175999998Y-111805468D01*
X176000000Y-111805468D01*
X176000002Y-111805468D01*
X176056673Y-111800509D01*
X176226692Y-111785635D01*
X176446496Y-111726739D01*
X176652734Y-111630568D01*
X176839139Y-111500047D01*
X177000047Y-111339139D01*
X177130568Y-111152734D01*
X177226739Y-110946496D01*
X177285635Y-110726692D01*
X177305468Y-110500000D01*
X177305468Y-110499997D01*
X179695034Y-110499997D01*
X179695034Y-110500002D01*
X179714858Y-110726599D01*
X179714860Y-110726610D01*
X179773730Y-110946317D01*
X179773735Y-110946331D01*
X179869863Y-111152478D01*
X179920974Y-111225472D01*
X180600000Y-110546446D01*
X180600000Y-110552661D01*
X180627259Y-110654394D01*
X180679920Y-110745606D01*
X180754394Y-110820080D01*
X180845606Y-110872741D01*
X180947339Y-110900000D01*
X180953553Y-110900000D01*
X180274526Y-111579025D01*
X180347513Y-111630132D01*
X180347521Y-111630136D01*
X180553668Y-111726264D01*
X180553682Y-111726269D01*
X180773389Y-111785139D01*
X180773400Y-111785141D01*
X180999998Y-111804966D01*
X181000002Y-111804966D01*
X181226599Y-111785141D01*
X181226610Y-111785139D01*
X181446317Y-111726269D01*
X181446331Y-111726264D01*
X181652478Y-111630136D01*
X181725471Y-111579024D01*
X181046447Y-110900000D01*
X181052661Y-110900000D01*
X181154394Y-110872741D01*
X181245606Y-110820080D01*
X181320080Y-110745606D01*
X181372741Y-110654394D01*
X181400000Y-110552661D01*
X181400000Y-110546447D01*
X182079024Y-111225471D01*
X182130136Y-111152478D01*
X182226264Y-110946331D01*
X182226269Y-110946317D01*
X182285139Y-110726610D01*
X182285141Y-110726599D01*
X182304966Y-110500002D01*
X182304966Y-110499997D01*
X182285141Y-110273400D01*
X182285139Y-110273389D01*
X182226269Y-110053682D01*
X182226264Y-110053668D01*
X182130136Y-109847521D01*
X182130132Y-109847513D01*
X182079025Y-109774526D01*
X181400000Y-110453551D01*
X181400000Y-110447339D01*
X181372741Y-110345606D01*
X181320080Y-110254394D01*
X181245606Y-110179920D01*
X181154394Y-110127259D01*
X181052661Y-110100000D01*
X181046445Y-110100000D01*
X181646446Y-109500000D01*
X192495052Y-109500000D01*
X192514812Y-109751072D01*
X192573603Y-109995956D01*
X192669980Y-110228631D01*
X192801568Y-110443362D01*
X192802266Y-110444179D01*
X193422421Y-109824024D01*
X193435359Y-109855258D01*
X193517437Y-109978097D01*
X193621903Y-110082563D01*
X193744742Y-110164641D01*
X193775974Y-110177577D01*
X193155819Y-110797732D01*
X193155819Y-110797733D01*
X193156634Y-110798429D01*
X193371368Y-110930019D01*
X193604043Y-111026396D01*
X193848927Y-111085187D01*
X194100000Y-111104947D01*
X194351072Y-111085187D01*
X194595956Y-111026396D01*
X194828631Y-110930019D01*
X195043361Y-110798432D01*
X195043363Y-110798430D01*
X195044180Y-110797732D01*
X194424025Y-110177578D01*
X194455258Y-110164641D01*
X194578097Y-110082563D01*
X194682563Y-109978097D01*
X194764641Y-109855258D01*
X194777578Y-109824025D01*
X195397732Y-110444180D01*
X195398430Y-110443363D01*
X195398432Y-110443361D01*
X195530019Y-110228631D01*
X195626396Y-109995956D01*
X195685187Y-109751072D01*
X195704947Y-109500000D01*
X211545052Y-109500000D01*
X211564812Y-109751072D01*
X211623603Y-109995956D01*
X211719980Y-110228631D01*
X211851568Y-110443362D01*
X211852266Y-110444179D01*
X212472421Y-109824024D01*
X212485359Y-109855258D01*
X212567437Y-109978097D01*
X212671903Y-110082563D01*
X212794742Y-110164641D01*
X212825974Y-110177577D01*
X212205819Y-110797732D01*
X212205819Y-110797733D01*
X212206634Y-110798429D01*
X212421368Y-110930019D01*
X212654043Y-111026396D01*
X212898927Y-111085187D01*
X213150000Y-111104947D01*
X213401072Y-111085187D01*
X213645956Y-111026396D01*
X213878631Y-110930019D01*
X214093361Y-110798432D01*
X214093363Y-110798430D01*
X214094180Y-110797732D01*
X213474025Y-110177578D01*
X213505258Y-110164641D01*
X213628097Y-110082563D01*
X213732563Y-109978097D01*
X213814641Y-109855258D01*
X213827578Y-109824025D01*
X214447732Y-110444180D01*
X214448430Y-110443363D01*
X214448432Y-110443361D01*
X214580019Y-110228631D01*
X214676396Y-109995956D01*
X214735187Y-109751072D01*
X214754947Y-109500000D01*
X230595052Y-109500000D01*
X230614812Y-109751072D01*
X230673603Y-109995956D01*
X230769980Y-110228631D01*
X230901568Y-110443362D01*
X230902266Y-110444179D01*
X231522421Y-109824024D01*
X231535359Y-109855258D01*
X231617437Y-109978097D01*
X231721903Y-110082563D01*
X231844742Y-110164641D01*
X231875974Y-110177577D01*
X231255819Y-110797732D01*
X231255819Y-110797733D01*
X231256634Y-110798429D01*
X231471368Y-110930019D01*
X231704043Y-111026396D01*
X231948927Y-111085187D01*
X232200000Y-111104947D01*
X232451072Y-111085187D01*
X232695956Y-111026396D01*
X232928631Y-110930019D01*
X233143361Y-110798432D01*
X233143363Y-110798430D01*
X233144180Y-110797732D01*
X232524025Y-110177578D01*
X232555258Y-110164641D01*
X232678097Y-110082563D01*
X232782563Y-109978097D01*
X232864641Y-109855258D01*
X232877578Y-109824025D01*
X233497732Y-110444180D01*
X233498430Y-110443363D01*
X233498432Y-110443361D01*
X233630019Y-110228631D01*
X233726396Y-109995956D01*
X233785187Y-109751072D01*
X233804947Y-109500000D01*
X249645052Y-109500000D01*
X249664812Y-109751072D01*
X249723603Y-109995956D01*
X249819980Y-110228631D01*
X249951568Y-110443362D01*
X249952266Y-110444179D01*
X250572421Y-109824024D01*
X250585359Y-109855258D01*
X250667437Y-109978097D01*
X250771903Y-110082563D01*
X250894742Y-110164641D01*
X250925974Y-110177577D01*
X250305819Y-110797732D01*
X250305819Y-110797733D01*
X250306634Y-110798429D01*
X250521368Y-110930019D01*
X250754043Y-111026396D01*
X250998927Y-111085187D01*
X251250000Y-111104947D01*
X251501072Y-111085187D01*
X251745956Y-111026396D01*
X251978631Y-110930019D01*
X252193361Y-110798432D01*
X252193363Y-110798430D01*
X252194180Y-110797732D01*
X251574025Y-110177578D01*
X251605258Y-110164641D01*
X251728097Y-110082563D01*
X251832563Y-109978097D01*
X251914641Y-109855258D01*
X251927578Y-109824025D01*
X252547732Y-110444180D01*
X252548430Y-110443363D01*
X252548432Y-110443361D01*
X252680019Y-110228631D01*
X252776396Y-109995956D01*
X252835187Y-109751072D01*
X252854947Y-109500000D01*
X252835187Y-109248927D01*
X252776396Y-109004043D01*
X252680019Y-108771368D01*
X252548429Y-108556634D01*
X252547733Y-108555819D01*
X252547732Y-108555819D01*
X251927577Y-109175973D01*
X251914641Y-109144742D01*
X251832563Y-109021903D01*
X251728097Y-108917437D01*
X251605258Y-108835359D01*
X251574023Y-108822421D01*
X252194179Y-108202266D01*
X252193362Y-108201568D01*
X251978631Y-108069980D01*
X251745956Y-107973603D01*
X251501072Y-107914812D01*
X251250000Y-107895052D01*
X250998927Y-107914812D01*
X250754043Y-107973603D01*
X250521368Y-108069980D01*
X250306637Y-108201567D01*
X250305818Y-108202266D01*
X250925974Y-108822421D01*
X250894742Y-108835359D01*
X250771903Y-108917437D01*
X250667437Y-109021903D01*
X250585359Y-109144742D01*
X250572421Y-109175974D01*
X249952266Y-108555818D01*
X249951567Y-108556637D01*
X249819980Y-108771368D01*
X249723603Y-109004043D01*
X249664812Y-109248927D01*
X249645052Y-109500000D01*
X233804947Y-109500000D01*
X233785187Y-109248927D01*
X233726396Y-109004043D01*
X233630019Y-108771368D01*
X233498429Y-108556634D01*
X233497733Y-108555819D01*
X233497732Y-108555819D01*
X232877577Y-109175973D01*
X232864641Y-109144742D01*
X232782563Y-109021903D01*
X232678097Y-108917437D01*
X232555258Y-108835359D01*
X232524023Y-108822421D01*
X233144179Y-108202266D01*
X233143362Y-108201568D01*
X232928631Y-108069980D01*
X232695956Y-107973603D01*
X232451072Y-107914812D01*
X232200000Y-107895052D01*
X231948927Y-107914812D01*
X231704043Y-107973603D01*
X231471368Y-108069980D01*
X231256637Y-108201567D01*
X231255818Y-108202266D01*
X231875974Y-108822421D01*
X231844742Y-108835359D01*
X231721903Y-108917437D01*
X231617437Y-109021903D01*
X231535359Y-109144742D01*
X231522421Y-109175974D01*
X230902266Y-108555818D01*
X230901567Y-108556637D01*
X230769980Y-108771368D01*
X230673603Y-109004043D01*
X230614812Y-109248927D01*
X230595052Y-109500000D01*
X214754947Y-109500000D01*
X214735187Y-109248927D01*
X214676396Y-109004043D01*
X214580019Y-108771368D01*
X214448429Y-108556634D01*
X214447733Y-108555819D01*
X214447732Y-108555819D01*
X213827577Y-109175973D01*
X213814641Y-109144742D01*
X213732563Y-109021903D01*
X213628097Y-108917437D01*
X213505258Y-108835359D01*
X213474023Y-108822421D01*
X214094179Y-108202266D01*
X214093362Y-108201568D01*
X213878631Y-108069980D01*
X213645956Y-107973603D01*
X213401072Y-107914812D01*
X213150000Y-107895052D01*
X212898927Y-107914812D01*
X212654043Y-107973603D01*
X212421368Y-108069980D01*
X212206637Y-108201567D01*
X212205818Y-108202266D01*
X212825974Y-108822421D01*
X212794742Y-108835359D01*
X212671903Y-108917437D01*
X212567437Y-109021903D01*
X212485359Y-109144742D01*
X212472421Y-109175974D01*
X211852266Y-108555818D01*
X211851567Y-108556637D01*
X211719980Y-108771368D01*
X211623603Y-109004043D01*
X211564812Y-109248927D01*
X211545052Y-109500000D01*
X195704947Y-109500000D01*
X195685187Y-109248927D01*
X195626396Y-109004043D01*
X195530019Y-108771368D01*
X195398429Y-108556634D01*
X195397733Y-108555819D01*
X195397732Y-108555819D01*
X194777577Y-109175973D01*
X194764641Y-109144742D01*
X194682563Y-109021903D01*
X194578097Y-108917437D01*
X194455258Y-108835359D01*
X194424023Y-108822421D01*
X195044179Y-108202266D01*
X195043362Y-108201568D01*
X194828631Y-108069980D01*
X194595956Y-107973603D01*
X194351072Y-107914812D01*
X194100000Y-107895052D01*
X193848927Y-107914812D01*
X193604043Y-107973603D01*
X193371368Y-108069980D01*
X193156637Y-108201567D01*
X193155818Y-108202266D01*
X193775974Y-108822421D01*
X193744742Y-108835359D01*
X193621903Y-108917437D01*
X193517437Y-109021903D01*
X193435359Y-109144742D01*
X193422421Y-109175974D01*
X192802266Y-108555818D01*
X192801567Y-108556637D01*
X192669980Y-108771368D01*
X192573603Y-109004043D01*
X192514812Y-109248927D01*
X192495052Y-109500000D01*
X181646446Y-109500000D01*
X181725472Y-109420974D01*
X181652478Y-109369863D01*
X181446331Y-109273735D01*
X181446317Y-109273730D01*
X181226610Y-109214860D01*
X181226599Y-109214858D01*
X181000002Y-109195034D01*
X180999998Y-109195034D01*
X180773400Y-109214858D01*
X180773389Y-109214860D01*
X180553682Y-109273730D01*
X180553673Y-109273734D01*
X180347516Y-109369866D01*
X180347512Y-109369868D01*
X180274526Y-109420973D01*
X180274526Y-109420974D01*
X180953553Y-110100000D01*
X180947339Y-110100000D01*
X180845606Y-110127259D01*
X180754394Y-110179920D01*
X180679920Y-110254394D01*
X180627259Y-110345606D01*
X180600000Y-110447339D01*
X180600000Y-110453552D01*
X179920974Y-109774526D01*
X179920973Y-109774526D01*
X179869868Y-109847512D01*
X179869866Y-109847516D01*
X179773734Y-110053673D01*
X179773730Y-110053682D01*
X179714860Y-110273389D01*
X179714858Y-110273400D01*
X179695034Y-110499997D01*
X177305468Y-110499997D01*
X177285635Y-110273308D01*
X177226739Y-110053504D01*
X177130568Y-109847266D01*
X177000047Y-109660861D01*
X177000045Y-109660858D01*
X176839141Y-109499954D01*
X176652734Y-109369432D01*
X176652732Y-109369431D01*
X176446497Y-109273261D01*
X176446488Y-109273258D01*
X176226697Y-109214366D01*
X176226693Y-109214365D01*
X176226692Y-109214365D01*
X176226691Y-109214364D01*
X176226686Y-109214364D01*
X176000002Y-109194532D01*
X175999998Y-109194532D01*
X175773313Y-109214364D01*
X175773302Y-109214366D01*
X175553511Y-109273258D01*
X175553502Y-109273261D01*
X175347267Y-109369431D01*
X175347265Y-109369432D01*
X175160858Y-109499954D01*
X174999954Y-109660858D01*
X174869432Y-109847265D01*
X174869431Y-109847267D01*
X174773261Y-110053502D01*
X174773258Y-110053511D01*
X174714366Y-110273302D01*
X174714364Y-110273313D01*
X174694532Y-110499998D01*
X172584944Y-110499998D01*
X172722738Y-110394265D01*
X172894265Y-110222738D01*
X173041936Y-110030289D01*
X173163224Y-109820212D01*
X173256054Y-109596100D01*
X173318838Y-109361789D01*
X173350500Y-109121288D01*
X173350500Y-108878712D01*
X173318838Y-108638211D01*
X173256054Y-108403900D01*
X173250489Y-108390466D01*
X173195968Y-108258839D01*
X173163224Y-108179788D01*
X173041936Y-107969711D01*
X172894265Y-107777262D01*
X172894260Y-107777256D01*
X172722743Y-107605739D01*
X172722736Y-107605733D01*
X172530293Y-107458067D01*
X172530292Y-107458066D01*
X172530289Y-107458064D01*
X172320212Y-107336776D01*
X172320205Y-107336773D01*
X172096104Y-107243947D01*
X171861785Y-107181161D01*
X171621289Y-107149500D01*
X171621288Y-107149500D01*
X171378712Y-107149500D01*
X171378711Y-107149500D01*
X171138214Y-107181161D01*
X170903895Y-107243947D01*
X170679794Y-107336773D01*
X170679785Y-107336777D01*
X170497851Y-107441817D01*
X170473096Y-107456110D01*
X170469706Y-107458067D01*
X170277263Y-107605733D01*
X170277256Y-107605739D01*
X170105739Y-107777256D01*
X170105733Y-107777263D01*
X169958067Y-107969706D01*
X169836777Y-108179785D01*
X169836773Y-108179794D01*
X169743947Y-108403895D01*
X169681161Y-108638214D01*
X169649500Y-108878711D01*
X166878711Y-108878711D01*
X164000000Y-106000000D01*
X34124000Y-106000000D01*
X34056961Y-105980315D01*
X34011206Y-105927511D01*
X34000000Y-105876000D01*
X34000000Y-98952135D01*
X34999500Y-98952135D01*
X34999500Y-101047870D01*
X34999501Y-101047876D01*
X35005909Y-101107484D01*
X35042901Y-101206668D01*
X35047885Y-101276360D01*
X35042901Y-101293332D01*
X35005909Y-101392514D01*
X35005908Y-101392516D01*
X34999501Y-101452116D01*
X34999501Y-101452123D01*
X34999500Y-101452135D01*
X34999500Y-103547870D01*
X34999501Y-103547876D01*
X35005908Y-103607483D01*
X35056202Y-103742328D01*
X35056206Y-103742335D01*
X35142452Y-103857544D01*
X35142455Y-103857547D01*
X35257664Y-103943793D01*
X35257671Y-103943797D01*
X35392517Y-103994091D01*
X35392516Y-103994091D01*
X35399444Y-103994835D01*
X35452127Y-104000500D01*
X41547872Y-104000499D01*
X41607483Y-103994091D01*
X41742331Y-103943796D01*
X41857546Y-103857546D01*
X41943796Y-103742331D01*
X41994091Y-103607483D01*
X42000500Y-103547873D01*
X42000499Y-103112228D01*
X42020183Y-103045190D01*
X42036813Y-103024553D01*
X45061365Y-100000000D01*
X164594540Y-100000000D01*
X164614326Y-100188256D01*
X164614327Y-100188259D01*
X164672818Y-100368277D01*
X164672821Y-100368284D01*
X164767467Y-100532216D01*
X164863409Y-100638770D01*
X164894129Y-100672888D01*
X165047265Y-100784148D01*
X165047270Y-100784151D01*
X165220192Y-100861142D01*
X165220197Y-100861144D01*
X165405354Y-100900500D01*
X165405355Y-100900500D01*
X165594644Y-100900500D01*
X165594646Y-100900500D01*
X165779803Y-100861144D01*
X165825065Y-100840991D01*
X165894312Y-100831706D01*
X165957589Y-100861334D01*
X165994804Y-100920468D01*
X165999500Y-100954270D01*
X165999500Y-101047869D01*
X165999501Y-101047876D01*
X166005909Y-101107484D01*
X166042901Y-101206668D01*
X166047885Y-101276360D01*
X166042901Y-101293332D01*
X166005909Y-101392514D01*
X166005908Y-101392516D01*
X165999501Y-101452116D01*
X165999501Y-101452123D01*
X165999500Y-101452135D01*
X165999500Y-103547870D01*
X165999501Y-103547876D01*
X166005908Y-103607483D01*
X166056202Y-103742328D01*
X166056206Y-103742335D01*
X166142452Y-103857544D01*
X166142455Y-103857547D01*
X166257664Y-103943793D01*
X166257671Y-103943797D01*
X166392517Y-103994091D01*
X166392516Y-103994091D01*
X166399444Y-103994835D01*
X166452127Y-104000500D01*
X172547872Y-104000499D01*
X172607483Y-103994091D01*
X172731478Y-103947843D01*
X172801167Y-103942860D01*
X172862490Y-103976345D01*
X172892740Y-104025707D01*
X172922819Y-104118280D01*
X172922821Y-104118284D01*
X173017467Y-104282216D01*
X173063544Y-104333389D01*
X173144129Y-104422888D01*
X173297265Y-104534148D01*
X173297270Y-104534151D01*
X173470192Y-104611142D01*
X173470197Y-104611144D01*
X173655354Y-104650500D01*
X173655355Y-104650500D01*
X173844644Y-104650500D01*
X173844646Y-104650500D01*
X174029803Y-104611144D01*
X174202730Y-104534151D01*
X174355871Y-104422888D01*
X174436456Y-104333389D01*
X185379500Y-104333389D01*
X185379500Y-104506611D01*
X185406598Y-104677701D01*
X185460127Y-104842445D01*
X185538768Y-104996788D01*
X185640586Y-105136928D01*
X185763072Y-105259414D01*
X185903212Y-105361232D01*
X186057555Y-105439873D01*
X186222299Y-105493402D01*
X186393389Y-105520500D01*
X186393390Y-105520500D01*
X186566609Y-105520500D01*
X186566611Y-105520500D01*
X186628855Y-105510641D01*
X186698145Y-105519595D01*
X186751598Y-105564591D01*
X186772238Y-105631342D01*
X186753514Y-105698656D01*
X186728783Y-105727404D01*
X186614776Y-105824776D01*
X186451161Y-106016343D01*
X186451160Y-106016346D01*
X186319533Y-106231140D01*
X186223126Y-106463889D01*
X186164317Y-106708848D01*
X186144551Y-106960000D01*
X186164317Y-107211151D01*
X186223126Y-107456110D01*
X186319533Y-107688859D01*
X186451160Y-107903653D01*
X186451161Y-107903656D01*
X186506604Y-107968571D01*
X186614776Y-108095224D01*
X186713788Y-108179788D01*
X186806343Y-108258838D01*
X186806346Y-108258839D01*
X187021140Y-108390466D01*
X187253889Y-108486873D01*
X187498852Y-108545683D01*
X187750000Y-108565449D01*
X188001148Y-108545683D01*
X188246111Y-108486873D01*
X188478859Y-108390466D01*
X188693659Y-108258836D01*
X188885224Y-108095224D01*
X189048836Y-107903659D01*
X189180466Y-107688859D01*
X189276873Y-107456111D01*
X189335683Y-107211148D01*
X189355449Y-106960000D01*
X189335683Y-106708852D01*
X189276873Y-106463889D01*
X189180466Y-106231141D01*
X189180466Y-106231140D01*
X189048839Y-106016346D01*
X189048838Y-106016343D01*
X188955490Y-105907047D01*
X188885224Y-105824776D01*
X188758571Y-105716604D01*
X188693656Y-105661161D01*
X188693653Y-105661160D01*
X188478859Y-105529533D01*
X188246110Y-105433126D01*
X188001151Y-105374317D01*
X187750000Y-105354551D01*
X187498852Y-105374317D01*
X187498848Y-105374317D01*
X187498847Y-105374318D01*
X187377859Y-105403364D01*
X187308077Y-105399873D01*
X187251260Y-105359209D01*
X187225447Y-105294282D01*
X187238833Y-105225707D01*
X187261226Y-105195115D01*
X187319414Y-105136928D01*
X187421232Y-104996788D01*
X187499873Y-104842445D01*
X187553402Y-104677701D01*
X187580500Y-104506611D01*
X187580500Y-104333389D01*
X187570854Y-104272486D01*
X189309500Y-104272486D01*
X189309500Y-104567513D01*
X189341571Y-104811113D01*
X189348007Y-104859993D01*
X189422212Y-105136930D01*
X189424361Y-105144951D01*
X189424364Y-105144961D01*
X189537254Y-105417500D01*
X189537258Y-105417510D01*
X189684761Y-105672993D01*
X189864352Y-105907040D01*
X189864358Y-105907047D01*
X190072952Y-106115641D01*
X190072959Y-106115647D01*
X190307006Y-106295238D01*
X190562489Y-106442741D01*
X190562490Y-106442741D01*
X190562493Y-106442743D01*
X190835048Y-106555639D01*
X191120007Y-106631993D01*
X191412494Y-106670500D01*
X191412501Y-106670500D01*
X191707499Y-106670500D01*
X191707506Y-106670500D01*
X191999993Y-106631993D01*
X192284952Y-106555639D01*
X192557507Y-106442743D01*
X192812994Y-106295238D01*
X193047042Y-106115646D01*
X193255646Y-105907042D01*
X193435238Y-105672994D01*
X193582743Y-105417507D01*
X193695639Y-105144952D01*
X193771993Y-104859993D01*
X193810500Y-104567506D01*
X193810500Y-104333389D01*
X195539500Y-104333389D01*
X195539500Y-104506611D01*
X195566598Y-104677701D01*
X195620127Y-104842445D01*
X195698768Y-104996788D01*
X195800586Y-105136928D01*
X195923072Y-105259414D01*
X196063212Y-105361232D01*
X196217555Y-105439873D01*
X196382299Y-105493402D01*
X196553389Y-105520500D01*
X196553390Y-105520500D01*
X196726610Y-105520500D01*
X196726611Y-105520500D01*
X196897701Y-105493402D01*
X197062445Y-105439873D01*
X197216788Y-105361232D01*
X197356928Y-105259414D01*
X197479414Y-105136928D01*
X197581232Y-104996788D01*
X197659873Y-104842445D01*
X197713402Y-104677701D01*
X197740500Y-104506611D01*
X197740500Y-104333389D01*
X204429500Y-104333389D01*
X204429500Y-104506611D01*
X204456598Y-104677701D01*
X204510127Y-104842445D01*
X204588768Y-104996788D01*
X204690586Y-105136928D01*
X204813072Y-105259414D01*
X204953212Y-105361232D01*
X205107555Y-105439873D01*
X205272299Y-105493402D01*
X205443389Y-105520500D01*
X205443390Y-105520500D01*
X205616609Y-105520500D01*
X205616611Y-105520500D01*
X205678855Y-105510641D01*
X205748145Y-105519595D01*
X205801598Y-105564591D01*
X205822238Y-105631342D01*
X205803514Y-105698656D01*
X205778783Y-105727404D01*
X205664776Y-105824776D01*
X205501161Y-106016343D01*
X205501160Y-106016346D01*
X205369533Y-106231140D01*
X205273126Y-106463889D01*
X205214317Y-106708848D01*
X205194551Y-106960000D01*
X205214317Y-107211151D01*
X205273126Y-107456110D01*
X205369533Y-107688859D01*
X205501160Y-107903653D01*
X205501161Y-107903656D01*
X205556604Y-107968571D01*
X205664776Y-108095224D01*
X205763788Y-108179788D01*
X205856343Y-108258838D01*
X205856346Y-108258839D01*
X206071140Y-108390466D01*
X206303889Y-108486873D01*
X206548852Y-108545683D01*
X206800000Y-108565449D01*
X207051148Y-108545683D01*
X207296111Y-108486873D01*
X207528859Y-108390466D01*
X207743659Y-108258836D01*
X207935224Y-108095224D01*
X208098836Y-107903659D01*
X208230466Y-107688859D01*
X208326873Y-107456111D01*
X208385683Y-107211148D01*
X208405449Y-106960000D01*
X208385683Y-106708852D01*
X208326873Y-106463889D01*
X208230466Y-106231141D01*
X208230466Y-106231140D01*
X208098839Y-106016346D01*
X208098838Y-106016343D01*
X208005490Y-105907047D01*
X207935224Y-105824776D01*
X207808571Y-105716604D01*
X207743656Y-105661161D01*
X207743653Y-105661160D01*
X207528859Y-105529533D01*
X207296110Y-105433126D01*
X207051151Y-105374317D01*
X206800000Y-105354551D01*
X206548852Y-105374317D01*
X206548848Y-105374317D01*
X206548847Y-105374318D01*
X206427859Y-105403364D01*
X206358077Y-105399873D01*
X206301260Y-105359209D01*
X206275447Y-105294282D01*
X206288833Y-105225707D01*
X206311226Y-105195115D01*
X206369414Y-105136928D01*
X206471232Y-104996788D01*
X206549873Y-104842445D01*
X206603402Y-104677701D01*
X206630500Y-104506611D01*
X206630500Y-104333389D01*
X206620854Y-104272486D01*
X208359500Y-104272486D01*
X208359500Y-104567513D01*
X208391571Y-104811113D01*
X208398007Y-104859993D01*
X208472212Y-105136930D01*
X208474361Y-105144951D01*
X208474364Y-105144961D01*
X208587254Y-105417500D01*
X208587258Y-105417510D01*
X208734761Y-105672993D01*
X208914352Y-105907040D01*
X208914358Y-105907047D01*
X209122952Y-106115641D01*
X209122959Y-106115647D01*
X209357006Y-106295238D01*
X209612489Y-106442741D01*
X209612490Y-106442741D01*
X209612493Y-106442743D01*
X209885048Y-106555639D01*
X210170007Y-106631993D01*
X210462494Y-106670500D01*
X210462501Y-106670500D01*
X210757499Y-106670500D01*
X210757506Y-106670500D01*
X211049993Y-106631993D01*
X211334952Y-106555639D01*
X211607507Y-106442743D01*
X211862994Y-106295238D01*
X212097042Y-106115646D01*
X212305646Y-105907042D01*
X212485238Y-105672994D01*
X212632743Y-105417507D01*
X212745639Y-105144952D01*
X212821993Y-104859993D01*
X212860500Y-104567506D01*
X212860500Y-104333389D01*
X214589500Y-104333389D01*
X214589500Y-104506611D01*
X214616598Y-104677701D01*
X214670127Y-104842445D01*
X214748768Y-104996788D01*
X214850586Y-105136928D01*
X214973072Y-105259414D01*
X215113212Y-105361232D01*
X215267555Y-105439873D01*
X215432299Y-105493402D01*
X215603389Y-105520500D01*
X215603390Y-105520500D01*
X215776610Y-105520500D01*
X215776611Y-105520500D01*
X215947701Y-105493402D01*
X216112445Y-105439873D01*
X216266788Y-105361232D01*
X216406928Y-105259414D01*
X216529414Y-105136928D01*
X216631232Y-104996788D01*
X216709873Y-104842445D01*
X216763402Y-104677701D01*
X216790500Y-104506611D01*
X216790500Y-104333389D01*
X223479500Y-104333389D01*
X223479500Y-104506611D01*
X223506598Y-104677701D01*
X223560127Y-104842445D01*
X223638768Y-104996788D01*
X223740586Y-105136928D01*
X223863072Y-105259414D01*
X224003212Y-105361232D01*
X224157555Y-105439873D01*
X224322299Y-105493402D01*
X224493389Y-105520500D01*
X224493390Y-105520500D01*
X224666609Y-105520500D01*
X224666611Y-105520500D01*
X224728855Y-105510641D01*
X224798145Y-105519595D01*
X224851598Y-105564591D01*
X224872238Y-105631342D01*
X224853514Y-105698656D01*
X224828783Y-105727404D01*
X224714776Y-105824776D01*
X224551161Y-106016343D01*
X224551160Y-106016346D01*
X224419533Y-106231140D01*
X224323126Y-106463889D01*
X224264317Y-106708848D01*
X224244551Y-106960000D01*
X224264317Y-107211151D01*
X224323126Y-107456110D01*
X224419533Y-107688859D01*
X224551160Y-107903653D01*
X224551161Y-107903656D01*
X224606604Y-107968571D01*
X224714776Y-108095224D01*
X224813788Y-108179788D01*
X224906343Y-108258838D01*
X224906346Y-108258839D01*
X225121140Y-108390466D01*
X225353889Y-108486873D01*
X225598852Y-108545683D01*
X225850000Y-108565449D01*
X226101148Y-108545683D01*
X226346111Y-108486873D01*
X226578859Y-108390466D01*
X226793659Y-108258836D01*
X226985224Y-108095224D01*
X227148836Y-107903659D01*
X227280466Y-107688859D01*
X227376873Y-107456111D01*
X227435683Y-107211148D01*
X227455449Y-106960000D01*
X227435683Y-106708852D01*
X227376873Y-106463889D01*
X227280466Y-106231141D01*
X227280466Y-106231140D01*
X227148839Y-106016346D01*
X227148838Y-106016343D01*
X227055490Y-105907047D01*
X226985224Y-105824776D01*
X226858571Y-105716604D01*
X226793656Y-105661161D01*
X226793653Y-105661160D01*
X226578859Y-105529533D01*
X226346110Y-105433126D01*
X226101151Y-105374317D01*
X225850000Y-105354551D01*
X225598852Y-105374317D01*
X225598848Y-105374317D01*
X225598847Y-105374318D01*
X225477859Y-105403364D01*
X225408077Y-105399873D01*
X225351260Y-105359209D01*
X225325447Y-105294282D01*
X225338833Y-105225707D01*
X225361226Y-105195115D01*
X225419414Y-105136928D01*
X225521232Y-104996788D01*
X225599873Y-104842445D01*
X225653402Y-104677701D01*
X225680500Y-104506611D01*
X225680500Y-104333389D01*
X225670854Y-104272486D01*
X227409500Y-104272486D01*
X227409500Y-104567513D01*
X227441571Y-104811113D01*
X227448007Y-104859993D01*
X227522212Y-105136930D01*
X227524361Y-105144951D01*
X227524364Y-105144961D01*
X227637254Y-105417500D01*
X227637258Y-105417510D01*
X227784761Y-105672993D01*
X227964352Y-105907040D01*
X227964358Y-105907047D01*
X228172952Y-106115641D01*
X228172959Y-106115647D01*
X228407006Y-106295238D01*
X228662489Y-106442741D01*
X228662490Y-106442741D01*
X228662493Y-106442743D01*
X228935048Y-106555639D01*
X229220007Y-106631993D01*
X229512494Y-106670500D01*
X229512501Y-106670500D01*
X229807499Y-106670500D01*
X229807506Y-106670500D01*
X230099993Y-106631993D01*
X230384952Y-106555639D01*
X230657507Y-106442743D01*
X230912994Y-106295238D01*
X231147042Y-106115646D01*
X231355646Y-105907042D01*
X231535238Y-105672994D01*
X231682743Y-105417507D01*
X231795639Y-105144952D01*
X231871993Y-104859993D01*
X231910500Y-104567506D01*
X231910500Y-104333389D01*
X233639500Y-104333389D01*
X233639500Y-104506611D01*
X233666598Y-104677701D01*
X233720127Y-104842445D01*
X233798768Y-104996788D01*
X233900586Y-105136928D01*
X234023072Y-105259414D01*
X234163212Y-105361232D01*
X234317555Y-105439873D01*
X234482299Y-105493402D01*
X234653389Y-105520500D01*
X234653390Y-105520500D01*
X234826610Y-105520500D01*
X234826611Y-105520500D01*
X234997701Y-105493402D01*
X235162445Y-105439873D01*
X235316788Y-105361232D01*
X235456928Y-105259414D01*
X235579414Y-105136928D01*
X235681232Y-104996788D01*
X235759873Y-104842445D01*
X235813402Y-104677701D01*
X235840500Y-104506611D01*
X235840500Y-104333389D01*
X242529500Y-104333389D01*
X242529500Y-104506611D01*
X242556598Y-104677701D01*
X242610127Y-104842445D01*
X242688768Y-104996788D01*
X242790586Y-105136928D01*
X242913072Y-105259414D01*
X243053212Y-105361232D01*
X243207555Y-105439873D01*
X243372299Y-105493402D01*
X243543389Y-105520500D01*
X243543390Y-105520500D01*
X243716609Y-105520500D01*
X243716611Y-105520500D01*
X243778855Y-105510641D01*
X243848145Y-105519595D01*
X243901598Y-105564591D01*
X243922238Y-105631342D01*
X243903514Y-105698656D01*
X243878783Y-105727404D01*
X243764776Y-105824776D01*
X243601161Y-106016343D01*
X243601160Y-106016346D01*
X243469533Y-106231140D01*
X243373126Y-106463889D01*
X243314317Y-106708848D01*
X243294551Y-106960000D01*
X243314317Y-107211151D01*
X243373126Y-107456110D01*
X243469533Y-107688859D01*
X243601160Y-107903653D01*
X243601161Y-107903656D01*
X243656604Y-107968571D01*
X243764776Y-108095224D01*
X243863788Y-108179788D01*
X243956343Y-108258838D01*
X243956346Y-108258839D01*
X244171140Y-108390466D01*
X244403889Y-108486873D01*
X244648852Y-108545683D01*
X244900000Y-108565449D01*
X245151148Y-108545683D01*
X245396111Y-108486873D01*
X245628859Y-108390466D01*
X245843659Y-108258836D01*
X246035224Y-108095224D01*
X246198836Y-107903659D01*
X246330466Y-107688859D01*
X246426873Y-107456111D01*
X246485683Y-107211148D01*
X246505449Y-106960000D01*
X246485683Y-106708852D01*
X246426873Y-106463889D01*
X246330466Y-106231141D01*
X246330466Y-106231140D01*
X246198839Y-106016346D01*
X246198838Y-106016343D01*
X246105490Y-105907047D01*
X246035224Y-105824776D01*
X245908571Y-105716604D01*
X245843656Y-105661161D01*
X245843653Y-105661160D01*
X245628859Y-105529533D01*
X245396110Y-105433126D01*
X245151151Y-105374317D01*
X244900000Y-105354551D01*
X244648852Y-105374317D01*
X244648848Y-105374317D01*
X244648847Y-105374318D01*
X244527859Y-105403364D01*
X244458077Y-105399873D01*
X244401260Y-105359209D01*
X244375447Y-105294282D01*
X244388833Y-105225707D01*
X244411226Y-105195115D01*
X244469414Y-105136928D01*
X244571232Y-104996788D01*
X244649873Y-104842445D01*
X244703402Y-104677701D01*
X244730500Y-104506611D01*
X244730500Y-104333389D01*
X244720854Y-104272486D01*
X246459500Y-104272486D01*
X246459500Y-104567513D01*
X246491571Y-104811113D01*
X246498007Y-104859993D01*
X246572212Y-105136930D01*
X246574361Y-105144951D01*
X246574364Y-105144961D01*
X246687254Y-105417500D01*
X246687258Y-105417510D01*
X246834761Y-105672993D01*
X247014352Y-105907040D01*
X247014358Y-105907047D01*
X247222952Y-106115641D01*
X247222959Y-106115647D01*
X247457006Y-106295238D01*
X247712489Y-106442741D01*
X247712490Y-106442741D01*
X247712493Y-106442743D01*
X247985048Y-106555639D01*
X248270007Y-106631993D01*
X248562494Y-106670500D01*
X248562501Y-106670500D01*
X248857499Y-106670500D01*
X248857506Y-106670500D01*
X249149993Y-106631993D01*
X249434952Y-106555639D01*
X249707507Y-106442743D01*
X249962994Y-106295238D01*
X250197042Y-106115646D01*
X250405646Y-105907042D01*
X250585238Y-105672994D01*
X250732743Y-105417507D01*
X250845639Y-105144952D01*
X250921993Y-104859993D01*
X250960500Y-104567506D01*
X250960500Y-104333389D01*
X252689500Y-104333389D01*
X252689500Y-104506611D01*
X252716598Y-104677701D01*
X252770127Y-104842445D01*
X252848768Y-104996788D01*
X252950586Y-105136928D01*
X253073072Y-105259414D01*
X253213212Y-105361232D01*
X253367555Y-105439873D01*
X253532299Y-105493402D01*
X253703389Y-105520500D01*
X253703390Y-105520500D01*
X253876610Y-105520500D01*
X253876611Y-105520500D01*
X254047701Y-105493402D01*
X254212445Y-105439873D01*
X254366788Y-105361232D01*
X254506928Y-105259414D01*
X254629414Y-105136928D01*
X254731232Y-104996788D01*
X254809873Y-104842445D01*
X254863402Y-104677701D01*
X254890500Y-104506611D01*
X254890500Y-104333389D01*
X254863402Y-104162299D01*
X254809873Y-103997555D01*
X254731232Y-103843212D01*
X254629414Y-103703072D01*
X254506928Y-103580586D01*
X254366788Y-103478768D01*
X254212445Y-103400127D01*
X254047701Y-103346598D01*
X254047699Y-103346597D01*
X254047698Y-103346597D01*
X253916271Y-103325781D01*
X253876611Y-103319500D01*
X253703389Y-103319500D01*
X253663728Y-103325781D01*
X253532302Y-103346597D01*
X253367552Y-103400128D01*
X253213211Y-103478768D01*
X253133256Y-103536859D01*
X253073072Y-103580586D01*
X253073070Y-103580588D01*
X253073069Y-103580588D01*
X252950588Y-103703069D01*
X252950588Y-103703070D01*
X252950586Y-103703072D01*
X252922065Y-103742328D01*
X252848768Y-103843211D01*
X252770128Y-103997552D01*
X252716597Y-104162302D01*
X252699146Y-104272486D01*
X252689500Y-104333389D01*
X250960500Y-104333389D01*
X250960500Y-104272494D01*
X250921993Y-103980007D01*
X250845639Y-103695048D01*
X250732743Y-103422493D01*
X250713548Y-103389247D01*
X250585238Y-103167006D01*
X250405647Y-102932959D01*
X250405641Y-102932952D01*
X250197047Y-102724358D01*
X250197040Y-102724352D01*
X249962993Y-102544761D01*
X249707510Y-102397258D01*
X249707500Y-102397254D01*
X249434961Y-102284364D01*
X249434954Y-102284362D01*
X249434952Y-102284361D01*
X249149993Y-102208007D01*
X249101113Y-102201571D01*
X248857513Y-102169500D01*
X248857506Y-102169500D01*
X248562494Y-102169500D01*
X248562486Y-102169500D01*
X248284085Y-102206153D01*
X248270007Y-102208007D01*
X247985048Y-102284361D01*
X247985038Y-102284364D01*
X247712499Y-102397254D01*
X247712489Y-102397258D01*
X247457006Y-102544761D01*
X247222959Y-102724352D01*
X247222952Y-102724358D01*
X247014358Y-102932952D01*
X247014352Y-102932959D01*
X246834761Y-103167006D01*
X246687258Y-103422489D01*
X246687254Y-103422499D01*
X246574364Y-103695038D01*
X246574361Y-103695048D01*
X246507710Y-103943797D01*
X246498008Y-103980004D01*
X246498006Y-103980015D01*
X246459500Y-104272486D01*
X244720854Y-104272486D01*
X244703402Y-104162299D01*
X244649873Y-103997555D01*
X244571232Y-103843212D01*
X244469414Y-103703072D01*
X244346928Y-103580586D01*
X244206788Y-103478768D01*
X244052445Y-103400127D01*
X243887701Y-103346598D01*
X243887699Y-103346597D01*
X243887698Y-103346597D01*
X243756271Y-103325781D01*
X243716611Y-103319500D01*
X243543389Y-103319500D01*
X243503728Y-103325781D01*
X243372302Y-103346597D01*
X243207552Y-103400128D01*
X243053211Y-103478768D01*
X242973256Y-103536859D01*
X242913072Y-103580586D01*
X242913070Y-103580588D01*
X242913069Y-103580588D01*
X242790588Y-103703069D01*
X242790588Y-103703070D01*
X242790586Y-103703072D01*
X242762065Y-103742328D01*
X242688768Y-103843211D01*
X242610128Y-103997552D01*
X242556597Y-104162302D01*
X242539146Y-104272486D01*
X242529500Y-104333389D01*
X235840500Y-104333389D01*
X235813402Y-104162299D01*
X235759873Y-103997555D01*
X235681232Y-103843212D01*
X235579414Y-103703072D01*
X235456928Y-103580586D01*
X235316788Y-103478768D01*
X235162445Y-103400127D01*
X234997701Y-103346598D01*
X234997699Y-103346597D01*
X234997698Y-103346597D01*
X234866271Y-103325781D01*
X234826611Y-103319500D01*
X234653389Y-103319500D01*
X234613728Y-103325781D01*
X234482302Y-103346597D01*
X234317552Y-103400128D01*
X234163211Y-103478768D01*
X234083256Y-103536859D01*
X234023072Y-103580586D01*
X234023070Y-103580588D01*
X234023069Y-103580588D01*
X233900588Y-103703069D01*
X233900588Y-103703070D01*
X233900586Y-103703072D01*
X233872065Y-103742328D01*
X233798768Y-103843211D01*
X233720128Y-103997552D01*
X233666597Y-104162302D01*
X233649146Y-104272486D01*
X233639500Y-104333389D01*
X231910500Y-104333389D01*
X231910500Y-104272494D01*
X231871993Y-103980007D01*
X231795639Y-103695048D01*
X231682743Y-103422493D01*
X231663548Y-103389247D01*
X231535238Y-103167006D01*
X231355647Y-102932959D01*
X231355641Y-102932952D01*
X231147047Y-102724358D01*
X231147040Y-102724352D01*
X230912993Y-102544761D01*
X230657510Y-102397258D01*
X230657500Y-102397254D01*
X230384961Y-102284364D01*
X230384954Y-102284362D01*
X230384952Y-102284361D01*
X230099993Y-102208007D01*
X230051113Y-102201571D01*
X229807513Y-102169500D01*
X229807506Y-102169500D01*
X229512494Y-102169500D01*
X229512486Y-102169500D01*
X229234085Y-102206153D01*
X229220007Y-102208007D01*
X228935048Y-102284361D01*
X228935038Y-102284364D01*
X228662499Y-102397254D01*
X228662489Y-102397258D01*
X228407006Y-102544761D01*
X228172959Y-102724352D01*
X228172952Y-102724358D01*
X227964358Y-102932952D01*
X227964352Y-102932959D01*
X227784761Y-103167006D01*
X227637258Y-103422489D01*
X227637254Y-103422499D01*
X227524364Y-103695038D01*
X227524361Y-103695048D01*
X227457710Y-103943797D01*
X227448008Y-103980004D01*
X227448006Y-103980015D01*
X227409500Y-104272486D01*
X225670854Y-104272486D01*
X225653402Y-104162299D01*
X225599873Y-103997555D01*
X225521232Y-103843212D01*
X225419414Y-103703072D01*
X225296928Y-103580586D01*
X225156788Y-103478768D01*
X225002445Y-103400127D01*
X224837701Y-103346598D01*
X224837699Y-103346597D01*
X224837698Y-103346597D01*
X224706271Y-103325781D01*
X224666611Y-103319500D01*
X224493389Y-103319500D01*
X224453728Y-103325781D01*
X224322302Y-103346597D01*
X224157552Y-103400128D01*
X224003211Y-103478768D01*
X223923256Y-103536859D01*
X223863072Y-103580586D01*
X223863070Y-103580588D01*
X223863069Y-103580588D01*
X223740588Y-103703069D01*
X223740588Y-103703070D01*
X223740586Y-103703072D01*
X223712065Y-103742328D01*
X223638768Y-103843211D01*
X223560128Y-103997552D01*
X223506597Y-104162302D01*
X223489146Y-104272486D01*
X223479500Y-104333389D01*
X216790500Y-104333389D01*
X216763402Y-104162299D01*
X216709873Y-103997555D01*
X216631232Y-103843212D01*
X216529414Y-103703072D01*
X216406928Y-103580586D01*
X216266788Y-103478768D01*
X216112445Y-103400127D01*
X215947701Y-103346598D01*
X215947699Y-103346597D01*
X215947698Y-103346597D01*
X215816271Y-103325781D01*
X215776611Y-103319500D01*
X215603389Y-103319500D01*
X215563728Y-103325781D01*
X215432302Y-103346597D01*
X215267552Y-103400128D01*
X215113211Y-103478768D01*
X215033256Y-103536859D01*
X214973072Y-103580586D01*
X214973070Y-103580588D01*
X214973069Y-103580588D01*
X214850588Y-103703069D01*
X214850588Y-103703070D01*
X214850586Y-103703072D01*
X214822065Y-103742328D01*
X214748768Y-103843211D01*
X214670128Y-103997552D01*
X214616597Y-104162302D01*
X214599146Y-104272486D01*
X214589500Y-104333389D01*
X212860500Y-104333389D01*
X212860500Y-104272494D01*
X212821993Y-103980007D01*
X212745639Y-103695048D01*
X212632743Y-103422493D01*
X212613548Y-103389247D01*
X212485238Y-103167006D01*
X212305647Y-102932959D01*
X212305641Y-102932952D01*
X212097047Y-102724358D01*
X212097040Y-102724352D01*
X211862993Y-102544761D01*
X211607510Y-102397258D01*
X211607500Y-102397254D01*
X211334961Y-102284364D01*
X211334954Y-102284362D01*
X211334952Y-102284361D01*
X211049993Y-102208007D01*
X211001113Y-102201571D01*
X210757513Y-102169500D01*
X210757506Y-102169500D01*
X210462494Y-102169500D01*
X210462486Y-102169500D01*
X210184085Y-102206153D01*
X210170007Y-102208007D01*
X209885048Y-102284361D01*
X209885038Y-102284364D01*
X209612499Y-102397254D01*
X209612489Y-102397258D01*
X209357006Y-102544761D01*
X209122959Y-102724352D01*
X209122952Y-102724358D01*
X208914358Y-102932952D01*
X208914352Y-102932959D01*
X208734761Y-103167006D01*
X208587258Y-103422489D01*
X208587254Y-103422499D01*
X208474364Y-103695038D01*
X208474361Y-103695048D01*
X208407710Y-103943797D01*
X208398008Y-103980004D01*
X208398006Y-103980015D01*
X208359500Y-104272486D01*
X206620854Y-104272486D01*
X206603402Y-104162299D01*
X206549873Y-103997555D01*
X206471232Y-103843212D01*
X206369414Y-103703072D01*
X206246928Y-103580586D01*
X206106788Y-103478768D01*
X205952445Y-103400127D01*
X205787701Y-103346598D01*
X205787699Y-103346597D01*
X205787698Y-103346597D01*
X205656271Y-103325781D01*
X205616611Y-103319500D01*
X205443389Y-103319500D01*
X205403728Y-103325781D01*
X205272302Y-103346597D01*
X205107552Y-103400128D01*
X204953211Y-103478768D01*
X204873256Y-103536859D01*
X204813072Y-103580586D01*
X204813070Y-103580588D01*
X204813069Y-103580588D01*
X204690588Y-103703069D01*
X204690588Y-103703070D01*
X204690586Y-103703072D01*
X204662065Y-103742328D01*
X204588768Y-103843211D01*
X204510128Y-103997552D01*
X204456597Y-104162302D01*
X204439146Y-104272486D01*
X204429500Y-104333389D01*
X197740500Y-104333389D01*
X197713402Y-104162299D01*
X197659873Y-103997555D01*
X197581232Y-103843212D01*
X197479414Y-103703072D01*
X197356928Y-103580586D01*
X197216788Y-103478768D01*
X197062445Y-103400127D01*
X196897701Y-103346598D01*
X196897699Y-103346597D01*
X196897698Y-103346597D01*
X196766271Y-103325781D01*
X196726611Y-103319500D01*
X196553389Y-103319500D01*
X196513728Y-103325781D01*
X196382302Y-103346597D01*
X196217552Y-103400128D01*
X196063211Y-103478768D01*
X195983256Y-103536859D01*
X195923072Y-103580586D01*
X195923070Y-103580588D01*
X195923069Y-103580588D01*
X195800588Y-103703069D01*
X195800588Y-103703070D01*
X195800586Y-103703072D01*
X195772065Y-103742328D01*
X195698768Y-103843211D01*
X195620128Y-103997552D01*
X195566597Y-104162302D01*
X195549146Y-104272486D01*
X195539500Y-104333389D01*
X193810500Y-104333389D01*
X193810500Y-104272494D01*
X193771993Y-103980007D01*
X193695639Y-103695048D01*
X193582743Y-103422493D01*
X193563548Y-103389247D01*
X193435238Y-103167006D01*
X193255647Y-102932959D01*
X193255641Y-102932952D01*
X193047047Y-102724358D01*
X193047040Y-102724352D01*
X192812993Y-102544761D01*
X192557510Y-102397258D01*
X192557500Y-102397254D01*
X192284961Y-102284364D01*
X192284954Y-102284362D01*
X192284952Y-102284361D01*
X191999993Y-102208007D01*
X191951113Y-102201571D01*
X191707513Y-102169500D01*
X191707506Y-102169500D01*
X191412494Y-102169500D01*
X191412486Y-102169500D01*
X191134085Y-102206153D01*
X191120007Y-102208007D01*
X190835048Y-102284361D01*
X190835038Y-102284364D01*
X190562499Y-102397254D01*
X190562489Y-102397258D01*
X190307006Y-102544761D01*
X190072959Y-102724352D01*
X190072952Y-102724358D01*
X189864358Y-102932952D01*
X189864352Y-102932959D01*
X189684761Y-103167006D01*
X189537258Y-103422489D01*
X189537254Y-103422499D01*
X189424364Y-103695038D01*
X189424361Y-103695048D01*
X189357710Y-103943797D01*
X189348008Y-103980004D01*
X189348006Y-103980015D01*
X189309500Y-104272486D01*
X187570854Y-104272486D01*
X187553402Y-104162299D01*
X187499873Y-103997555D01*
X187421232Y-103843212D01*
X187319414Y-103703072D01*
X187196928Y-103580586D01*
X187056788Y-103478768D01*
X186902445Y-103400127D01*
X186737701Y-103346598D01*
X186737699Y-103346597D01*
X186737698Y-103346597D01*
X186606271Y-103325781D01*
X186566611Y-103319500D01*
X186393389Y-103319500D01*
X186353728Y-103325781D01*
X186222302Y-103346597D01*
X186057552Y-103400128D01*
X185903211Y-103478768D01*
X185823256Y-103536859D01*
X185763072Y-103580586D01*
X185763070Y-103580588D01*
X185763069Y-103580588D01*
X185640588Y-103703069D01*
X185640588Y-103703070D01*
X185640586Y-103703072D01*
X185612065Y-103742328D01*
X185538768Y-103843211D01*
X185460128Y-103997552D01*
X185406597Y-104162302D01*
X185389146Y-104272486D01*
X185379500Y-104333389D01*
X174436456Y-104333389D01*
X174482533Y-104282216D01*
X174577179Y-104118284D01*
X174635674Y-103938256D01*
X174655460Y-103750000D01*
X174635674Y-103561744D01*
X174587783Y-103414354D01*
X174585789Y-103344514D01*
X174621869Y-103284681D01*
X174684570Y-103253853D01*
X174753984Y-103261818D01*
X174770992Y-103270610D01*
X174962595Y-103389245D01*
X174962596Y-103389245D01*
X174962599Y-103389247D01*
X175170060Y-103469618D01*
X175388757Y-103510500D01*
X175388759Y-103510500D01*
X175611241Y-103510500D01*
X175611243Y-103510500D01*
X175829940Y-103469618D01*
X176037401Y-103389247D01*
X176226562Y-103272124D01*
X176390981Y-103122236D01*
X176525058Y-102944689D01*
X176624229Y-102745528D01*
X176685115Y-102531536D01*
X176705643Y-102310000D01*
X176685115Y-102088464D01*
X176624229Y-101874472D01*
X176624224Y-101874461D01*
X176525061Y-101675316D01*
X176525056Y-101675308D01*
X176390979Y-101497761D01*
X176226562Y-101347876D01*
X176226560Y-101347874D01*
X176037404Y-101230754D01*
X176037398Y-101230752D01*
X176019045Y-101223642D01*
X175829940Y-101150382D01*
X175611243Y-101109500D01*
X175388757Y-101109500D01*
X175170060Y-101150382D01*
X175038864Y-101201207D01*
X174962601Y-101230752D01*
X174962595Y-101230754D01*
X174773439Y-101347874D01*
X174773437Y-101347876D01*
X174609020Y-101497761D01*
X174474943Y-101675308D01*
X174474938Y-101675316D01*
X174375775Y-101874461D01*
X174375769Y-101874476D01*
X174314885Y-102088462D01*
X174314884Y-102088464D01*
X174294357Y-102309999D01*
X174294357Y-102310000D01*
X174314884Y-102531535D01*
X174314885Y-102531537D01*
X174375769Y-102745523D01*
X174375775Y-102745538D01*
X174420126Y-102834605D01*
X174432387Y-102903390D01*
X174405514Y-102967885D01*
X174348038Y-103007613D01*
X174278208Y-103009961D01*
X174236242Y-102990196D01*
X174202733Y-102965850D01*
X174202729Y-102965848D01*
X174029807Y-102888857D01*
X174029803Y-102888856D01*
X173964669Y-102875011D01*
X173903188Y-102841818D01*
X173902770Y-102841402D01*
X173036818Y-101975450D01*
X173003333Y-101914127D01*
X173000499Y-101887769D01*
X173000499Y-101452129D01*
X173000498Y-101452123D01*
X173000497Y-101452116D01*
X172994091Y-101392517D01*
X172957096Y-101293330D01*
X172952113Y-101223642D01*
X172957092Y-101206680D01*
X172994091Y-101107483D01*
X173000500Y-101047873D01*
X173000499Y-98952128D01*
X172994091Y-98892517D01*
X172956830Y-98792617D01*
X172951847Y-98722927D01*
X172956831Y-98705951D01*
X172993597Y-98607376D01*
X172993598Y-98607372D01*
X172999999Y-98547844D01*
X173000000Y-98547827D01*
X173000000Y-97750000D01*
X166000000Y-97750000D01*
X166000000Y-98547844D01*
X166006401Y-98607372D01*
X166006403Y-98607380D01*
X166043168Y-98705952D01*
X166048152Y-98775644D01*
X166043168Y-98792617D01*
X166005909Y-98892514D01*
X166005908Y-98892516D01*
X165999501Y-98952116D01*
X165999501Y-98952123D01*
X165999500Y-98952135D01*
X165999500Y-99045728D01*
X165979815Y-99112767D01*
X165927011Y-99158522D01*
X165857853Y-99168466D01*
X165825064Y-99159007D01*
X165779807Y-99138857D01*
X165779802Y-99138855D01*
X165634001Y-99107865D01*
X165594646Y-99099500D01*
X165405354Y-99099500D01*
X165372897Y-99106398D01*
X165220197Y-99138855D01*
X165220192Y-99138857D01*
X165047270Y-99215848D01*
X165047265Y-99215851D01*
X164894129Y-99327111D01*
X164767466Y-99467785D01*
X164672821Y-99631715D01*
X164672818Y-99631722D01*
X164614327Y-99811740D01*
X164614326Y-99811744D01*
X164594540Y-100000000D01*
X45061365Y-100000000D01*
X45968206Y-99093159D01*
X45968211Y-99093156D01*
X45978414Y-99082952D01*
X45978416Y-99082952D01*
X46652770Y-98408595D01*
X46714091Y-98375112D01*
X46714427Y-98375039D01*
X46779803Y-98361144D01*
X46952730Y-98284151D01*
X47105871Y-98172888D01*
X47232533Y-98032216D01*
X47327179Y-97868284D01*
X47385674Y-97688256D01*
X47405460Y-97500000D01*
X47385674Y-97311744D01*
X47327179Y-97131716D01*
X47232533Y-96967784D01*
X47105871Y-96827112D01*
X47105870Y-96827111D01*
X46952734Y-96715851D01*
X46952729Y-96715848D01*
X46779807Y-96638857D01*
X46779802Y-96638855D01*
X46634001Y-96607865D01*
X46594646Y-96599500D01*
X46405354Y-96599500D01*
X46372897Y-96606398D01*
X46220197Y-96638855D01*
X46220192Y-96638857D01*
X46047270Y-96715848D01*
X46047265Y-96715851D01*
X45894129Y-96827111D01*
X45767466Y-96967785D01*
X45672821Y-97131715D01*
X45672819Y-97131719D01*
X45617478Y-97302041D01*
X45587228Y-97351403D01*
X44917048Y-98021584D01*
X44917046Y-98021586D01*
X42212180Y-100726451D01*
X42150857Y-100759936D01*
X42081165Y-100754952D01*
X42025232Y-100713080D01*
X42000815Y-100647616D01*
X42000499Y-100638770D01*
X42000499Y-98952129D01*
X42000498Y-98952123D01*
X42000497Y-98952116D01*
X41994091Y-98892517D01*
X41956830Y-98792617D01*
X41951847Y-98722927D01*
X41956831Y-98705951D01*
X41993597Y-98607376D01*
X41993598Y-98607372D01*
X41999999Y-98547844D01*
X42000000Y-98547827D01*
X42000000Y-97750000D01*
X35000000Y-97750000D01*
X35000000Y-98547844D01*
X35006401Y-98607372D01*
X35006403Y-98607380D01*
X35043168Y-98705952D01*
X35048152Y-98775644D01*
X35043168Y-98792617D01*
X35005909Y-98892514D01*
X35005908Y-98892516D01*
X34999501Y-98952116D01*
X34999501Y-98952123D01*
X34999500Y-98952135D01*
X34000000Y-98952135D01*
X34000000Y-96452155D01*
X35000000Y-96452155D01*
X35000000Y-97250000D01*
X38250000Y-97250000D01*
X38750000Y-97250000D01*
X42000000Y-97250000D01*
X42000000Y-96452172D01*
X41999999Y-96452155D01*
X166000000Y-96452155D01*
X166000000Y-97250000D01*
X169250000Y-97250000D01*
X169750000Y-97250000D01*
X173000000Y-97250000D01*
X173000000Y-96452172D01*
X172999999Y-96452155D01*
X172993598Y-96392627D01*
X172993596Y-96392620D01*
X172943354Y-96257913D01*
X172943350Y-96257906D01*
X172857190Y-96142812D01*
X172857187Y-96142809D01*
X172742093Y-96056649D01*
X172742086Y-96056645D01*
X172607379Y-96006403D01*
X172607372Y-96006401D01*
X172547844Y-96000000D01*
X169750000Y-96000000D01*
X169750000Y-97250000D01*
X169250000Y-97250000D01*
X169250000Y-96000000D01*
X166452155Y-96000000D01*
X166392627Y-96006401D01*
X166392620Y-96006403D01*
X166257913Y-96056645D01*
X166257906Y-96056649D01*
X166142812Y-96142809D01*
X166142809Y-96142812D01*
X166056649Y-96257906D01*
X166056645Y-96257913D01*
X166006403Y-96392620D01*
X166006401Y-96392627D01*
X166000000Y-96452155D01*
X41999999Y-96452155D01*
X41993598Y-96392627D01*
X41993596Y-96392620D01*
X41943354Y-96257913D01*
X41943350Y-96257906D01*
X41857190Y-96142812D01*
X41857187Y-96142809D01*
X41742093Y-96056649D01*
X41742086Y-96056645D01*
X41607379Y-96006403D01*
X41607372Y-96006401D01*
X41547844Y-96000000D01*
X38750000Y-96000000D01*
X38750000Y-97250000D01*
X38250000Y-97250000D01*
X38250000Y-96000000D01*
X35452155Y-96000000D01*
X35392627Y-96006401D01*
X35392620Y-96006403D01*
X35257913Y-96056645D01*
X35257906Y-96056649D01*
X35142812Y-96142809D01*
X35142809Y-96142812D01*
X35056649Y-96257906D01*
X35056645Y-96257913D01*
X35006403Y-96392620D01*
X35006401Y-96392627D01*
X35000000Y-96452155D01*
X34000000Y-96452155D01*
X34000000Y-95999994D01*
X186845202Y-95999994D01*
X186845202Y-96000000D01*
X186864361Y-96231218D01*
X186921317Y-96456135D01*
X187014516Y-96668609D01*
X187098811Y-96797633D01*
X187767037Y-96129408D01*
X187784075Y-96192993D01*
X187849901Y-96307007D01*
X187942993Y-96400099D01*
X188057007Y-96465925D01*
X188120590Y-96482962D01*
X187451201Y-97152351D01*
X187481649Y-97176050D01*
X187685697Y-97286476D01*
X187685706Y-97286479D01*
X187905139Y-97361811D01*
X188133993Y-97400000D01*
X188366007Y-97400000D01*
X188594860Y-97361811D01*
X188814293Y-97286479D01*
X188814301Y-97286476D01*
X189018355Y-97176047D01*
X189048797Y-97152351D01*
X189048798Y-97152350D01*
X188379410Y-96482962D01*
X188442993Y-96465925D01*
X188557007Y-96400099D01*
X188650099Y-96307007D01*
X188715925Y-96192993D01*
X188732962Y-96129409D01*
X188849559Y-96246006D01*
X188882083Y-96303246D01*
X188920841Y-96456293D01*
X188920845Y-96456306D01*
X189014075Y-96668848D01*
X189141016Y-96863147D01*
X189141019Y-96863151D01*
X189141021Y-96863153D01*
X189298216Y-97033913D01*
X189298219Y-97033915D01*
X189298222Y-97033918D01*
X189481365Y-97176464D01*
X189481371Y-97176468D01*
X189481374Y-97176470D01*
X189617245Y-97250000D01*
X189684652Y-97286479D01*
X189685497Y-97286936D01*
X189798652Y-97325782D01*
X189905015Y-97362297D01*
X189905017Y-97362297D01*
X189905019Y-97362298D01*
X190133951Y-97400500D01*
X190133952Y-97400500D01*
X190366048Y-97400500D01*
X190366049Y-97400500D01*
X190594981Y-97362298D01*
X190814503Y-97286936D01*
X191018626Y-97176470D01*
X191173839Y-97055663D01*
X191238831Y-97030021D01*
X191307371Y-97043587D01*
X191326156Y-97055659D01*
X191423873Y-97131715D01*
X191480830Y-97176047D01*
X191481374Y-97176470D01*
X191617245Y-97250000D01*
X191684652Y-97286479D01*
X191685497Y-97286936D01*
X191798652Y-97325782D01*
X191905015Y-97362297D01*
X191905017Y-97362297D01*
X191905019Y-97362298D01*
X192133951Y-97400500D01*
X192133952Y-97400500D01*
X192366048Y-97400500D01*
X192366049Y-97400500D01*
X192594981Y-97362298D01*
X192814503Y-97286936D01*
X193018626Y-97176470D01*
X193019170Y-97176047D01*
X193173838Y-97055664D01*
X193201784Y-97033913D01*
X193358979Y-96863153D01*
X193485924Y-96668849D01*
X193579157Y-96456300D01*
X193617916Y-96303243D01*
X193650440Y-96246004D01*
X193767036Y-96129407D01*
X193784075Y-96192993D01*
X193849901Y-96307007D01*
X193942993Y-96400099D01*
X194057007Y-96465925D01*
X194120590Y-96482962D01*
X193451201Y-97152351D01*
X193481649Y-97176050D01*
X193685697Y-97286476D01*
X193685706Y-97286479D01*
X193905139Y-97361811D01*
X194133993Y-97400000D01*
X194366007Y-97400000D01*
X194594860Y-97361811D01*
X194814293Y-97286479D01*
X194814301Y-97286476D01*
X195018355Y-97176047D01*
X195048797Y-97152351D01*
X195048798Y-97152350D01*
X194379410Y-96482962D01*
X194442993Y-96465925D01*
X194557007Y-96400099D01*
X194650099Y-96307007D01*
X194715925Y-96192993D01*
X194732962Y-96129409D01*
X194849559Y-96246006D01*
X194882083Y-96303246D01*
X194920841Y-96456293D01*
X194920845Y-96456306D01*
X195014075Y-96668848D01*
X195141016Y-96863147D01*
X195141019Y-96863151D01*
X195141021Y-96863153D01*
X195298216Y-97033913D01*
X195298219Y-97033915D01*
X195298222Y-97033918D01*
X195481365Y-97176464D01*
X195481371Y-97176468D01*
X195481374Y-97176470D01*
X195617245Y-97250000D01*
X195684652Y-97286479D01*
X195685497Y-97286936D01*
X195798652Y-97325782D01*
X195905015Y-97362297D01*
X195905017Y-97362297D01*
X195905019Y-97362298D01*
X196133951Y-97400500D01*
X196133952Y-97400500D01*
X196366048Y-97400500D01*
X196366049Y-97400500D01*
X196594981Y-97362298D01*
X196814503Y-97286936D01*
X197018626Y-97176470D01*
X197019170Y-97176047D01*
X197173838Y-97055664D01*
X197201784Y-97033913D01*
X197358979Y-96863153D01*
X197485924Y-96668849D01*
X197579157Y-96456300D01*
X197636134Y-96231305D01*
X197636135Y-96231297D01*
X197655300Y-96000006D01*
X197655300Y-95999994D01*
X207345202Y-95999994D01*
X207345202Y-96000000D01*
X207364361Y-96231218D01*
X207421317Y-96456135D01*
X207514516Y-96668609D01*
X207598811Y-96797633D01*
X208267037Y-96129408D01*
X208284075Y-96192993D01*
X208349901Y-96307007D01*
X208442993Y-96400099D01*
X208557007Y-96465925D01*
X208620590Y-96482962D01*
X207951201Y-97152351D01*
X207981649Y-97176050D01*
X208185697Y-97286476D01*
X208185706Y-97286479D01*
X208405139Y-97361811D01*
X208633993Y-97400000D01*
X208866007Y-97400000D01*
X209094860Y-97361811D01*
X209314293Y-97286479D01*
X209314301Y-97286476D01*
X209518355Y-97176047D01*
X209548797Y-97152351D01*
X209548798Y-97152350D01*
X208879410Y-96482962D01*
X208942993Y-96465925D01*
X209057007Y-96400099D01*
X209150099Y-96307007D01*
X209215925Y-96192993D01*
X209232962Y-96129409D01*
X209349559Y-96246006D01*
X209382083Y-96303246D01*
X209420841Y-96456293D01*
X209420845Y-96456306D01*
X209514075Y-96668848D01*
X209641016Y-96863147D01*
X209641019Y-96863151D01*
X209641021Y-96863153D01*
X209798216Y-97033913D01*
X209798219Y-97033915D01*
X209798222Y-97033918D01*
X209981365Y-97176464D01*
X209981371Y-97176468D01*
X209981374Y-97176470D01*
X210117245Y-97250000D01*
X210184652Y-97286479D01*
X210185497Y-97286936D01*
X210298652Y-97325782D01*
X210405015Y-97362297D01*
X210405017Y-97362297D01*
X210405019Y-97362298D01*
X210633951Y-97400500D01*
X210633952Y-97400500D01*
X210866048Y-97400500D01*
X210866049Y-97400500D01*
X211094981Y-97362298D01*
X211314503Y-97286936D01*
X211518626Y-97176470D01*
X211673839Y-97055663D01*
X211738831Y-97030021D01*
X211807371Y-97043587D01*
X211826156Y-97055659D01*
X211923873Y-97131715D01*
X211980830Y-97176047D01*
X211981374Y-97176470D01*
X212117245Y-97250000D01*
X212184652Y-97286479D01*
X212185497Y-97286936D01*
X212298652Y-97325782D01*
X212405015Y-97362297D01*
X212405017Y-97362297D01*
X212405019Y-97362298D01*
X212633951Y-97400500D01*
X212633952Y-97400500D01*
X212866048Y-97400500D01*
X212866049Y-97400500D01*
X213094981Y-97362298D01*
X213314503Y-97286936D01*
X213518626Y-97176470D01*
X213519170Y-97176047D01*
X213673838Y-97055664D01*
X213701784Y-97033913D01*
X213858979Y-96863153D01*
X213985924Y-96668849D01*
X214079157Y-96456300D01*
X214117916Y-96303243D01*
X214150440Y-96246004D01*
X214267036Y-96129407D01*
X214284075Y-96192993D01*
X214349901Y-96307007D01*
X214442993Y-96400099D01*
X214557007Y-96465925D01*
X214620590Y-96482962D01*
X213951201Y-97152351D01*
X213981649Y-97176050D01*
X214185697Y-97286476D01*
X214185706Y-97286479D01*
X214405139Y-97361811D01*
X214633993Y-97400000D01*
X214866007Y-97400000D01*
X215094860Y-97361811D01*
X215314293Y-97286479D01*
X215314301Y-97286476D01*
X215518355Y-97176047D01*
X215548797Y-97152351D01*
X215548798Y-97152350D01*
X214879410Y-96482962D01*
X214942993Y-96465925D01*
X215057007Y-96400099D01*
X215150099Y-96307007D01*
X215215925Y-96192993D01*
X215232962Y-96129409D01*
X215349559Y-96246006D01*
X215382083Y-96303246D01*
X215420841Y-96456293D01*
X215420845Y-96456306D01*
X215514075Y-96668848D01*
X215641016Y-96863147D01*
X215641019Y-96863151D01*
X215641021Y-96863153D01*
X215798216Y-97033913D01*
X215798219Y-97033915D01*
X215798222Y-97033918D01*
X215981365Y-97176464D01*
X215981371Y-97176468D01*
X215981374Y-97176470D01*
X216117245Y-97250000D01*
X216184652Y-97286479D01*
X216185497Y-97286936D01*
X216298652Y-97325782D01*
X216405015Y-97362297D01*
X216405017Y-97362297D01*
X216405019Y-97362298D01*
X216633951Y-97400500D01*
X216633952Y-97400500D01*
X216866048Y-97400500D01*
X216866049Y-97400500D01*
X217094981Y-97362298D01*
X217314503Y-97286936D01*
X217518626Y-97176470D01*
X217519170Y-97176047D01*
X217673838Y-97055664D01*
X217701784Y-97033913D01*
X217858979Y-96863153D01*
X217985924Y-96668849D01*
X218079157Y-96456300D01*
X218136134Y-96231305D01*
X218136135Y-96231297D01*
X218155300Y-96000006D01*
X218155300Y-95999993D01*
X218136135Y-95768702D01*
X218136133Y-95768691D01*
X218079157Y-95543699D01*
X217985924Y-95331151D01*
X217858983Y-95136852D01*
X217858980Y-95136849D01*
X217858979Y-95136847D01*
X217701784Y-94966087D01*
X217701779Y-94966083D01*
X217701777Y-94966081D01*
X217518634Y-94823535D01*
X217518628Y-94823531D01*
X217314504Y-94713064D01*
X217314495Y-94713061D01*
X217094984Y-94637702D01*
X216923282Y-94609050D01*
X216866049Y-94599500D01*
X216633951Y-94599500D01*
X216588164Y-94607140D01*
X216405015Y-94637702D01*
X216185504Y-94713061D01*
X216185495Y-94713064D01*
X215981371Y-94823531D01*
X215981365Y-94823535D01*
X215798222Y-94966081D01*
X215798219Y-94966084D01*
X215641016Y-95136852D01*
X215514075Y-95331151D01*
X215420845Y-95543693D01*
X215420842Y-95543703D01*
X215382083Y-95696753D01*
X215349560Y-95753992D01*
X215232962Y-95870590D01*
X215215925Y-95807007D01*
X215150099Y-95692993D01*
X215057007Y-95599901D01*
X214942993Y-95534075D01*
X214879409Y-95517037D01*
X215548797Y-94847647D01*
X215548797Y-94847645D01*
X215518360Y-94823955D01*
X215518354Y-94823951D01*
X215314302Y-94713523D01*
X215314293Y-94713520D01*
X215094860Y-94638188D01*
X214866007Y-94600000D01*
X214633993Y-94600000D01*
X214405139Y-94638188D01*
X214185706Y-94713520D01*
X214185697Y-94713523D01*
X213981650Y-94823949D01*
X213951200Y-94847647D01*
X214620591Y-95517037D01*
X214557007Y-95534075D01*
X214442993Y-95599901D01*
X214349901Y-95692993D01*
X214284075Y-95807007D01*
X214267037Y-95870590D01*
X214150440Y-95753993D01*
X214117915Y-95696752D01*
X214106614Y-95652125D01*
X214079157Y-95543700D01*
X213985924Y-95331151D01*
X213858983Y-95136852D01*
X213858980Y-95136849D01*
X213858979Y-95136847D01*
X213701784Y-94966087D01*
X213701779Y-94966083D01*
X213701777Y-94966081D01*
X213518634Y-94823535D01*
X213518628Y-94823531D01*
X213314504Y-94713064D01*
X213314495Y-94713061D01*
X213094984Y-94637702D01*
X212923282Y-94609050D01*
X212866049Y-94599500D01*
X212633951Y-94599500D01*
X212588164Y-94607140D01*
X212405015Y-94637702D01*
X212185504Y-94713061D01*
X212185495Y-94713064D01*
X211981372Y-94823531D01*
X211826162Y-94944335D01*
X211761168Y-94969977D01*
X211692628Y-94956410D01*
X211673838Y-94944335D01*
X211518627Y-94823531D01*
X211518626Y-94823530D01*
X211424970Y-94772845D01*
X211314504Y-94713064D01*
X211314495Y-94713061D01*
X211094984Y-94637702D01*
X210923282Y-94609050D01*
X210866049Y-94599500D01*
X210633951Y-94599500D01*
X210588164Y-94607140D01*
X210405015Y-94637702D01*
X210185504Y-94713061D01*
X210185495Y-94713064D01*
X209981371Y-94823531D01*
X209981365Y-94823535D01*
X209798222Y-94966081D01*
X209798219Y-94966084D01*
X209641016Y-95136852D01*
X209514075Y-95331151D01*
X209420845Y-95543693D01*
X209420842Y-95543703D01*
X209382083Y-95696753D01*
X209349560Y-95753992D01*
X209232962Y-95870590D01*
X209215925Y-95807007D01*
X209150099Y-95692993D01*
X209057007Y-95599901D01*
X208942993Y-95534075D01*
X208879409Y-95517037D01*
X209548797Y-94847647D01*
X209548797Y-94847645D01*
X209518360Y-94823955D01*
X209518354Y-94823951D01*
X209314302Y-94713523D01*
X209314293Y-94713520D01*
X209094860Y-94638188D01*
X208866007Y-94600000D01*
X208633993Y-94600000D01*
X208405139Y-94638188D01*
X208185706Y-94713520D01*
X208185697Y-94713523D01*
X207981650Y-94823949D01*
X207951200Y-94847647D01*
X208620591Y-95517037D01*
X208557007Y-95534075D01*
X208442993Y-95599901D01*
X208349901Y-95692993D01*
X208284075Y-95807007D01*
X208267037Y-95870590D01*
X207598812Y-95202365D01*
X207514516Y-95331391D01*
X207514514Y-95331395D01*
X207421317Y-95543864D01*
X207364361Y-95768781D01*
X207345202Y-95999994D01*
X197655300Y-95999994D01*
X197655300Y-95999993D01*
X197636135Y-95768702D01*
X197636133Y-95768691D01*
X197579157Y-95543699D01*
X197485924Y-95331151D01*
X197358983Y-95136852D01*
X197358980Y-95136849D01*
X197358979Y-95136847D01*
X197201784Y-94966087D01*
X197201779Y-94966083D01*
X197201777Y-94966081D01*
X197018634Y-94823535D01*
X197018628Y-94823531D01*
X196814504Y-94713064D01*
X196814495Y-94713061D01*
X196594984Y-94637702D01*
X196423282Y-94609050D01*
X196366049Y-94599500D01*
X196133951Y-94599500D01*
X196088164Y-94607140D01*
X195905015Y-94637702D01*
X195685504Y-94713061D01*
X195685495Y-94713064D01*
X195481371Y-94823531D01*
X195481365Y-94823535D01*
X195298222Y-94966081D01*
X195298219Y-94966084D01*
X195141016Y-95136852D01*
X195014075Y-95331151D01*
X194920845Y-95543693D01*
X194920842Y-95543703D01*
X194882083Y-95696753D01*
X194849560Y-95753992D01*
X194732962Y-95870590D01*
X194715925Y-95807007D01*
X194650099Y-95692993D01*
X194557007Y-95599901D01*
X194442993Y-95534075D01*
X194379409Y-95517037D01*
X195048797Y-94847647D01*
X195048797Y-94847645D01*
X195018360Y-94823955D01*
X195018354Y-94823951D01*
X194814302Y-94713523D01*
X194814293Y-94713520D01*
X194594860Y-94638188D01*
X194366007Y-94600000D01*
X194133993Y-94600000D01*
X193905139Y-94638188D01*
X193685706Y-94713520D01*
X193685697Y-94713523D01*
X193481650Y-94823949D01*
X193451200Y-94847647D01*
X194120591Y-95517037D01*
X194057007Y-95534075D01*
X193942993Y-95599901D01*
X193849901Y-95692993D01*
X193784075Y-95807007D01*
X193767037Y-95870590D01*
X193650440Y-95753993D01*
X193617915Y-95696752D01*
X193606614Y-95652125D01*
X193579157Y-95543700D01*
X193485924Y-95331151D01*
X193358983Y-95136852D01*
X193358980Y-95136849D01*
X193358979Y-95136847D01*
X193201784Y-94966087D01*
X193201779Y-94966083D01*
X193201777Y-94966081D01*
X193018634Y-94823535D01*
X193018628Y-94823531D01*
X192814504Y-94713064D01*
X192814495Y-94713061D01*
X192594984Y-94637702D01*
X192423282Y-94609050D01*
X192366049Y-94599500D01*
X192133951Y-94599500D01*
X192088164Y-94607140D01*
X191905015Y-94637702D01*
X191685504Y-94713061D01*
X191685495Y-94713064D01*
X191481372Y-94823531D01*
X191326162Y-94944335D01*
X191261168Y-94969977D01*
X191192628Y-94956410D01*
X191173838Y-94944335D01*
X191018627Y-94823531D01*
X191018626Y-94823530D01*
X190924970Y-94772845D01*
X190814504Y-94713064D01*
X190814495Y-94713061D01*
X190594984Y-94637702D01*
X190423282Y-94609050D01*
X190366049Y-94599500D01*
X190133951Y-94599500D01*
X190088164Y-94607140D01*
X189905015Y-94637702D01*
X189685504Y-94713061D01*
X189685495Y-94713064D01*
X189481371Y-94823531D01*
X189481365Y-94823535D01*
X189298222Y-94966081D01*
X189298219Y-94966084D01*
X189141016Y-95136852D01*
X189014075Y-95331151D01*
X188920845Y-95543693D01*
X188920842Y-95543703D01*
X188882083Y-95696753D01*
X188849560Y-95753992D01*
X188732962Y-95870590D01*
X188715925Y-95807007D01*
X188650099Y-95692993D01*
X188557007Y-95599901D01*
X188442993Y-95534075D01*
X188379409Y-95517037D01*
X189048797Y-94847647D01*
X189048797Y-94847645D01*
X189018360Y-94823955D01*
X189018354Y-94823951D01*
X188814302Y-94713523D01*
X188814293Y-94713520D01*
X188594860Y-94638188D01*
X188366007Y-94600000D01*
X188133993Y-94600000D01*
X187905139Y-94638188D01*
X187685706Y-94713520D01*
X187685697Y-94713523D01*
X187481650Y-94823949D01*
X187451200Y-94847647D01*
X188120591Y-95517037D01*
X188057007Y-95534075D01*
X187942993Y-95599901D01*
X187849901Y-95692993D01*
X187784075Y-95807007D01*
X187767037Y-95870590D01*
X187098812Y-95202365D01*
X187014516Y-95331391D01*
X187014514Y-95331395D01*
X186921317Y-95543864D01*
X186864361Y-95768781D01*
X186845202Y-95999994D01*
X34000000Y-95999994D01*
X34000000Y-94689999D01*
X174294357Y-94689999D01*
X174294357Y-94690000D01*
X174314884Y-94911535D01*
X174314885Y-94911537D01*
X174375769Y-95125523D01*
X174375775Y-95125538D01*
X174474938Y-95324683D01*
X174474943Y-95324691D01*
X174609020Y-95502238D01*
X174773437Y-95652123D01*
X174773439Y-95652125D01*
X174962595Y-95769245D01*
X174962596Y-95769245D01*
X174962599Y-95769247D01*
X175170060Y-95849618D01*
X175388757Y-95890500D01*
X175388759Y-95890500D01*
X175611241Y-95890500D01*
X175611243Y-95890500D01*
X175829940Y-95849618D01*
X176037401Y-95769247D01*
X176226562Y-95652124D01*
X176390981Y-95502236D01*
X176525058Y-95324689D01*
X176624229Y-95125528D01*
X176685115Y-94911536D01*
X176705643Y-94690000D01*
X176685115Y-94468464D01*
X176624229Y-94254472D01*
X176624224Y-94254461D01*
X176525061Y-94055316D01*
X176525056Y-94055308D01*
X176390979Y-93877761D01*
X176226562Y-93727876D01*
X176226560Y-93727874D01*
X176052335Y-93619999D01*
X243794357Y-93619999D01*
X243794357Y-93620000D01*
X243814884Y-93841535D01*
X243814885Y-93841537D01*
X243875769Y-94055523D01*
X243875775Y-94055538D01*
X243974938Y-94254683D01*
X243974943Y-94254691D01*
X244109020Y-94432238D01*
X244273437Y-94582123D01*
X244273439Y-94582125D01*
X244462595Y-94699245D01*
X244462596Y-94699245D01*
X244462599Y-94699247D01*
X244670060Y-94779618D01*
X244888757Y-94820500D01*
X244888759Y-94820500D01*
X245111241Y-94820500D01*
X245111243Y-94820500D01*
X245329940Y-94779618D01*
X245537401Y-94699247D01*
X245726562Y-94582124D01*
X245890981Y-94432236D01*
X246025058Y-94254689D01*
X246124229Y-94055528D01*
X246185115Y-93841536D01*
X246205643Y-93620000D01*
X246205643Y-93619999D01*
X247794357Y-93619999D01*
X247794357Y-93620000D01*
X247814884Y-93841535D01*
X247814885Y-93841537D01*
X247875769Y-94055523D01*
X247875775Y-94055538D01*
X247974938Y-94254683D01*
X247974943Y-94254691D01*
X248109020Y-94432238D01*
X248273437Y-94582123D01*
X248273439Y-94582125D01*
X248462595Y-94699245D01*
X248462596Y-94699245D01*
X248462599Y-94699247D01*
X248670060Y-94779618D01*
X248888757Y-94820500D01*
X248888759Y-94820500D01*
X249111241Y-94820500D01*
X249111243Y-94820500D01*
X249329940Y-94779618D01*
X249537401Y-94699247D01*
X249726562Y-94582124D01*
X249890981Y-94432236D01*
X250025058Y-94254689D01*
X250124229Y-94055528D01*
X250185115Y-93841536D01*
X250205643Y-93620000D01*
X250185115Y-93398464D01*
X250124229Y-93184472D01*
X250097171Y-93130132D01*
X250025061Y-92985316D01*
X250025056Y-92985308D01*
X249890979Y-92807761D01*
X249726562Y-92657876D01*
X249726560Y-92657874D01*
X249537404Y-92540754D01*
X249537398Y-92540752D01*
X249329940Y-92460382D01*
X249111243Y-92419500D01*
X248888757Y-92419500D01*
X248670060Y-92460382D01*
X248538864Y-92511207D01*
X248462601Y-92540752D01*
X248462595Y-92540754D01*
X248273439Y-92657874D01*
X248273437Y-92657876D01*
X248109020Y-92807761D01*
X247974943Y-92985308D01*
X247974938Y-92985316D01*
X247875775Y-93184461D01*
X247875769Y-93184476D01*
X247814885Y-93398462D01*
X247814884Y-93398464D01*
X247794357Y-93619999D01*
X246205643Y-93619999D01*
X246185115Y-93398464D01*
X246124229Y-93184472D01*
X246097171Y-93130132D01*
X246025061Y-92985316D01*
X246025056Y-92985308D01*
X245890979Y-92807761D01*
X245726562Y-92657876D01*
X245726560Y-92657874D01*
X245537404Y-92540754D01*
X245537398Y-92540752D01*
X245329940Y-92460382D01*
X245111243Y-92419500D01*
X244888757Y-92419500D01*
X244670060Y-92460382D01*
X244538864Y-92511207D01*
X244462601Y-92540752D01*
X244462595Y-92540754D01*
X244273439Y-92657874D01*
X244273437Y-92657876D01*
X244109020Y-92807761D01*
X243974943Y-92985308D01*
X243974938Y-92985316D01*
X243875775Y-93184461D01*
X243875769Y-93184476D01*
X243814885Y-93398462D01*
X243814884Y-93398464D01*
X243794357Y-93619999D01*
X176052335Y-93619999D01*
X176037404Y-93610754D01*
X176037398Y-93610752D01*
X175829940Y-93530382D01*
X175611243Y-93489500D01*
X175388757Y-93489500D01*
X175170060Y-93530382D01*
X175038864Y-93581207D01*
X174962601Y-93610752D01*
X174962595Y-93610754D01*
X174773439Y-93727874D01*
X174773437Y-93727876D01*
X174609020Y-93877761D01*
X174474943Y-94055308D01*
X174474938Y-94055316D01*
X174375775Y-94254461D01*
X174375769Y-94254476D01*
X174314885Y-94468462D01*
X174314884Y-94468464D01*
X174294357Y-94689999D01*
X34000000Y-94689999D01*
X34000000Y-94124000D01*
X34019685Y-94056961D01*
X34072489Y-94011206D01*
X34124000Y-94000000D01*
X164000000Y-94000000D01*
X167621289Y-90378711D01*
X170649500Y-90378711D01*
X170649500Y-90621288D01*
X170679283Y-90847521D01*
X170681162Y-90861789D01*
X170683326Y-90869866D01*
X170743947Y-91096104D01*
X170809513Y-91254394D01*
X170836776Y-91320212D01*
X170958064Y-91530289D01*
X170958066Y-91530292D01*
X170958067Y-91530293D01*
X171105733Y-91722736D01*
X171105739Y-91722743D01*
X171277256Y-91894260D01*
X171277263Y-91894266D01*
X171390321Y-91981018D01*
X171469711Y-92041936D01*
X171679788Y-92163224D01*
X171903900Y-92256054D01*
X172138211Y-92318838D01*
X172318586Y-92342584D01*
X172378711Y-92350500D01*
X172378712Y-92350500D01*
X172621289Y-92350500D01*
X172669388Y-92344167D01*
X172861789Y-92318838D01*
X173096100Y-92256054D01*
X173320212Y-92163224D01*
X173530289Y-92041936D01*
X173722738Y-91894265D01*
X173894265Y-91722738D01*
X174041936Y-91530289D01*
X174163224Y-91320212D01*
X174256054Y-91096100D01*
X174318838Y-90861789D01*
X174346439Y-90652135D01*
X178744388Y-90652135D01*
X178744388Y-92347870D01*
X178744389Y-92347876D01*
X178750796Y-92407483D01*
X178801090Y-92542328D01*
X178801094Y-92542335D01*
X178887340Y-92657544D01*
X178887343Y-92657547D01*
X179002552Y-92743793D01*
X179002559Y-92743797D01*
X179137405Y-92794091D01*
X179137404Y-92794091D01*
X179144332Y-92794835D01*
X179197015Y-92800500D01*
X180892760Y-92800499D01*
X180952371Y-92794091D01*
X181087219Y-92743796D01*
X181202434Y-92657546D01*
X181209238Y-92648455D01*
X181265168Y-92606584D01*
X181334859Y-92601597D01*
X181379628Y-92621188D01*
X181392400Y-92630130D01*
X181392406Y-92630134D01*
X181598561Y-92726265D01*
X181598570Y-92726269D01*
X181818277Y-92785139D01*
X181818288Y-92785141D01*
X182044886Y-92804966D01*
X182044890Y-92804966D01*
X182271487Y-92785141D01*
X182271498Y-92785139D01*
X182491205Y-92726269D01*
X182491219Y-92726264D01*
X182697366Y-92630136D01*
X182770359Y-92579024D01*
X182091335Y-91900000D01*
X182097549Y-91900000D01*
X182199282Y-91872741D01*
X182290494Y-91820080D01*
X182364968Y-91745606D01*
X182417629Y-91654394D01*
X182444888Y-91552661D01*
X182444888Y-91546447D01*
X183123912Y-92225471D01*
X183175024Y-92152478D01*
X183246127Y-91999997D01*
X252195034Y-91999997D01*
X252195034Y-92000002D01*
X252214858Y-92226599D01*
X252214860Y-92226610D01*
X252273730Y-92446317D01*
X252273735Y-92446331D01*
X252369863Y-92652478D01*
X252420974Y-92725472D01*
X253100000Y-92046446D01*
X253100000Y-92052661D01*
X253127259Y-92154394D01*
X253179920Y-92245606D01*
X253254394Y-92320080D01*
X253345606Y-92372741D01*
X253447339Y-92400000D01*
X253453553Y-92400000D01*
X252774526Y-93079025D01*
X252847513Y-93130132D01*
X252847521Y-93130136D01*
X253053668Y-93226264D01*
X253053682Y-93226269D01*
X253273389Y-93285139D01*
X253273400Y-93285141D01*
X253499998Y-93304966D01*
X253500002Y-93304966D01*
X253726599Y-93285141D01*
X253726610Y-93285139D01*
X253946317Y-93226269D01*
X253946331Y-93226264D01*
X254152478Y-93130136D01*
X254225471Y-93079024D01*
X253546447Y-92400000D01*
X253552661Y-92400000D01*
X253654394Y-92372741D01*
X253745606Y-92320080D01*
X253820080Y-92245606D01*
X253872741Y-92154394D01*
X253900000Y-92052661D01*
X253900000Y-92046447D01*
X254579024Y-92725471D01*
X254630136Y-92652478D01*
X254726264Y-92446331D01*
X254726269Y-92446317D01*
X254785139Y-92226610D01*
X254785141Y-92226599D01*
X254804966Y-92000002D01*
X254804966Y-91999997D01*
X254785141Y-91773400D01*
X254785139Y-91773389D01*
X254726269Y-91553682D01*
X254726264Y-91553668D01*
X254630136Y-91347521D01*
X254630132Y-91347513D01*
X254579025Y-91274526D01*
X253900000Y-91953551D01*
X253900000Y-91947339D01*
X253872741Y-91845606D01*
X253820080Y-91754394D01*
X253745606Y-91679920D01*
X253654394Y-91627259D01*
X253552661Y-91600000D01*
X253546445Y-91600000D01*
X254225472Y-90920974D01*
X254152478Y-90869863D01*
X253946331Y-90773735D01*
X253946317Y-90773730D01*
X253726610Y-90714860D01*
X253726599Y-90714858D01*
X253500002Y-90695034D01*
X253499998Y-90695034D01*
X253273400Y-90714858D01*
X253273389Y-90714860D01*
X253053682Y-90773730D01*
X253053673Y-90773734D01*
X252847516Y-90869866D01*
X252847512Y-90869868D01*
X252774526Y-90920973D01*
X252774526Y-90920974D01*
X253453553Y-91600000D01*
X253447339Y-91600000D01*
X253345606Y-91627259D01*
X253254394Y-91679920D01*
X253179920Y-91754394D01*
X253127259Y-91845606D01*
X253100000Y-91947339D01*
X253100000Y-91953552D01*
X252420974Y-91274526D01*
X252420973Y-91274526D01*
X252369868Y-91347512D01*
X252369866Y-91347516D01*
X252273734Y-91553673D01*
X252273730Y-91553682D01*
X252214860Y-91773389D01*
X252214858Y-91773400D01*
X252195034Y-91999997D01*
X183246127Y-91999997D01*
X183271152Y-91946331D01*
X183271157Y-91946317D01*
X183330027Y-91726610D01*
X183330029Y-91726599D01*
X183349854Y-91500002D01*
X183349854Y-91499997D01*
X183330029Y-91273400D01*
X183330027Y-91273389D01*
X183271157Y-91053682D01*
X183271152Y-91053668D01*
X183175024Y-90847521D01*
X183175020Y-90847513D01*
X183123913Y-90774526D01*
X182444888Y-91453551D01*
X182444888Y-91447339D01*
X182417629Y-91345606D01*
X182364968Y-91254394D01*
X182290494Y-91179920D01*
X182199282Y-91127259D01*
X182097549Y-91100000D01*
X182091334Y-91100000D01*
X182770360Y-90420974D01*
X182697366Y-90369863D01*
X182491219Y-90273735D01*
X182491205Y-90273730D01*
X182271498Y-90214860D01*
X182271487Y-90214858D01*
X182044890Y-90195034D01*
X182044886Y-90195034D01*
X181818288Y-90214858D01*
X181818277Y-90214860D01*
X181598570Y-90273730D01*
X181598561Y-90273734D01*
X181392400Y-90369868D01*
X181392395Y-90369871D01*
X181379624Y-90378813D01*
X181313417Y-90401138D01*
X181245651Y-90384124D01*
X181209240Y-90351546D01*
X181202434Y-90342454D01*
X181202432Y-90342453D01*
X181202432Y-90342452D01*
X181087223Y-90256206D01*
X181087216Y-90256202D01*
X180952370Y-90205908D01*
X180952371Y-90205908D01*
X180892771Y-90199501D01*
X180892769Y-90199500D01*
X180892761Y-90199500D01*
X180892752Y-90199500D01*
X179197017Y-90199500D01*
X179197011Y-90199501D01*
X179137404Y-90205908D01*
X179002559Y-90256202D01*
X179002552Y-90256206D01*
X178887343Y-90342452D01*
X178887340Y-90342455D01*
X178801094Y-90457664D01*
X178801090Y-90457671D01*
X178750796Y-90592517D01*
X178744389Y-90652116D01*
X178744388Y-90652135D01*
X174346439Y-90652135D01*
X174350500Y-90621288D01*
X174350500Y-90378712D01*
X174318838Y-90138211D01*
X174256054Y-89903900D01*
X174163224Y-89679788D01*
X174041936Y-89469711D01*
X173894265Y-89277262D01*
X173894260Y-89277256D01*
X173722743Y-89105739D01*
X173722736Y-89105733D01*
X173530293Y-88958067D01*
X173530292Y-88958066D01*
X173530289Y-88958064D01*
X173320212Y-88836776D01*
X173320205Y-88836773D01*
X173096104Y-88743947D01*
X172879255Y-88685842D01*
X172861789Y-88681162D01*
X172861788Y-88681161D01*
X172861785Y-88681161D01*
X172621289Y-88649500D01*
X172621288Y-88649500D01*
X172378712Y-88649500D01*
X172378711Y-88649500D01*
X172138214Y-88681161D01*
X171903895Y-88743947D01*
X171679794Y-88836773D01*
X171679785Y-88836777D01*
X171561648Y-88904984D01*
X171470718Y-88957483D01*
X171469706Y-88958067D01*
X171277263Y-89105733D01*
X171277256Y-89105739D01*
X171105739Y-89277256D01*
X171105733Y-89277263D01*
X170958067Y-89469706D01*
X170836777Y-89679785D01*
X170836773Y-89679794D01*
X170743947Y-89903895D01*
X170681161Y-90138214D01*
X170649500Y-90378711D01*
X167621289Y-90378711D01*
X170897865Y-87102135D01*
X223949500Y-87102135D01*
X223949500Y-88897870D01*
X223949501Y-88897876D01*
X223955908Y-88957483D01*
X224006202Y-89092328D01*
X224006206Y-89092335D01*
X224092452Y-89207544D01*
X224092455Y-89207547D01*
X224207664Y-89293793D01*
X224207671Y-89293797D01*
X224342517Y-89344091D01*
X224342516Y-89344091D01*
X224349444Y-89344835D01*
X224402127Y-89350500D01*
X226197872Y-89350499D01*
X226257483Y-89344091D01*
X226392331Y-89293796D01*
X226507546Y-89207546D01*
X226593796Y-89092331D01*
X226642810Y-88960916D01*
X226684681Y-88904984D01*
X226750145Y-88880566D01*
X226818418Y-88895417D01*
X226846673Y-88916569D01*
X226968599Y-89038495D01*
X227064625Y-89105733D01*
X227162165Y-89174032D01*
X227162167Y-89174033D01*
X227162170Y-89174035D01*
X227376337Y-89273903D01*
X227376343Y-89273904D01*
X227376344Y-89273905D01*
X227431285Y-89288626D01*
X227604592Y-89335063D01*
X227781034Y-89350500D01*
X227839999Y-89355659D01*
X227840000Y-89355659D01*
X227840001Y-89355659D01*
X227898966Y-89350500D01*
X228075408Y-89335063D01*
X228303663Y-89273903D01*
X228517830Y-89174035D01*
X228711401Y-89038495D01*
X228878495Y-88871401D01*
X229008730Y-88685405D01*
X229063307Y-88641781D01*
X229132805Y-88634587D01*
X229195160Y-88666110D01*
X229211879Y-88685405D01*
X229341890Y-88871078D01*
X229508917Y-89038105D01*
X229702421Y-89173600D01*
X229916507Y-89273429D01*
X229916516Y-89273433D01*
X230130000Y-89330634D01*
X230130000Y-88433012D01*
X230187007Y-88465925D01*
X230314174Y-88500000D01*
X230445826Y-88500000D01*
X230572993Y-88465925D01*
X230630000Y-88433012D01*
X230630000Y-89330633D01*
X230843483Y-89273433D01*
X230843492Y-89273429D01*
X231057578Y-89173600D01*
X231251082Y-89038105D01*
X231418105Y-88871082D01*
X231548119Y-88685405D01*
X231602696Y-88641781D01*
X231672195Y-88634588D01*
X231734549Y-88666110D01*
X231751269Y-88685405D01*
X231881505Y-88871401D01*
X232048599Y-89038495D01*
X232144625Y-89105733D01*
X232242165Y-89174032D01*
X232242167Y-89174033D01*
X232242170Y-89174035D01*
X232456337Y-89273903D01*
X232456343Y-89273904D01*
X232456344Y-89273905D01*
X232511285Y-89288626D01*
X232684592Y-89335063D01*
X232861034Y-89350500D01*
X232919999Y-89355659D01*
X232920000Y-89355659D01*
X232920001Y-89355659D01*
X232978966Y-89350500D01*
X233155408Y-89335063D01*
X233383663Y-89273903D01*
X233597830Y-89174035D01*
X233791401Y-89038495D01*
X233958495Y-88871401D01*
X234088425Y-88685842D01*
X234143002Y-88642217D01*
X234212500Y-88635023D01*
X234274855Y-88666546D01*
X234291575Y-88685842D01*
X234421500Y-88871395D01*
X234421505Y-88871401D01*
X234588599Y-89038495D01*
X234684625Y-89105733D01*
X234782165Y-89174032D01*
X234782167Y-89174033D01*
X234782170Y-89174035D01*
X234996337Y-89273903D01*
X234996343Y-89273904D01*
X234996344Y-89273905D01*
X235051285Y-89288626D01*
X235224592Y-89335063D01*
X235401034Y-89350500D01*
X235459999Y-89355659D01*
X235460000Y-89355659D01*
X235460001Y-89355659D01*
X235518966Y-89350500D01*
X235695408Y-89335063D01*
X235923663Y-89273903D01*
X236137830Y-89174035D01*
X236331401Y-89038495D01*
X236498495Y-88871401D01*
X236628425Y-88685842D01*
X236683002Y-88642217D01*
X236752500Y-88635023D01*
X236814855Y-88666546D01*
X236831575Y-88685842D01*
X236961500Y-88871395D01*
X236961505Y-88871401D01*
X237128599Y-89038495D01*
X237224625Y-89105733D01*
X237322165Y-89174032D01*
X237322167Y-89174033D01*
X237322170Y-89174035D01*
X237536337Y-89273903D01*
X237536343Y-89273904D01*
X237536344Y-89273905D01*
X237591285Y-89288626D01*
X237764592Y-89335063D01*
X237941034Y-89350500D01*
X237999999Y-89355659D01*
X238000000Y-89355659D01*
X238000001Y-89355659D01*
X238058966Y-89350500D01*
X238235408Y-89335063D01*
X238463663Y-89273903D01*
X238677830Y-89174035D01*
X238871401Y-89038495D01*
X239038495Y-88871401D01*
X239168425Y-88685842D01*
X239223002Y-88642217D01*
X239292500Y-88635023D01*
X239354855Y-88666546D01*
X239371575Y-88685842D01*
X239501500Y-88871395D01*
X239501505Y-88871401D01*
X239668599Y-89038495D01*
X239764625Y-89105733D01*
X239862165Y-89174032D01*
X239862167Y-89174033D01*
X239862170Y-89174035D01*
X240076337Y-89273903D01*
X240076343Y-89273904D01*
X240076344Y-89273905D01*
X240131285Y-89288626D01*
X240304592Y-89335063D01*
X240481034Y-89350500D01*
X240539999Y-89355659D01*
X240540000Y-89355659D01*
X240540001Y-89355659D01*
X240598966Y-89350500D01*
X240775408Y-89335063D01*
X241003663Y-89273903D01*
X241217830Y-89174035D01*
X241411401Y-89038495D01*
X241578495Y-88871401D01*
X241714035Y-88677830D01*
X241813903Y-88463663D01*
X241875063Y-88235408D01*
X241895659Y-88000000D01*
X241875063Y-87764592D01*
X241813903Y-87536337D01*
X241714035Y-87322171D01*
X241708731Y-87314595D01*
X241578494Y-87128597D01*
X241411402Y-86961506D01*
X241411395Y-86961501D01*
X241217834Y-86825967D01*
X241217830Y-86825965D01*
X241188388Y-86812236D01*
X241003663Y-86726097D01*
X241003659Y-86726096D01*
X241003655Y-86726094D01*
X240775413Y-86664938D01*
X240775403Y-86664936D01*
X240540001Y-86644341D01*
X240539999Y-86644341D01*
X240304596Y-86664936D01*
X240304586Y-86664938D01*
X240076344Y-86726094D01*
X240076335Y-86726098D01*
X239862171Y-86825964D01*
X239862169Y-86825965D01*
X239668597Y-86961505D01*
X239501505Y-87128597D01*
X239371575Y-87314158D01*
X239316998Y-87357783D01*
X239247500Y-87364977D01*
X239185145Y-87333454D01*
X239168425Y-87314158D01*
X239038494Y-87128597D01*
X238871402Y-86961506D01*
X238871395Y-86961501D01*
X238677834Y-86825967D01*
X238677830Y-86825965D01*
X238648388Y-86812236D01*
X238463663Y-86726097D01*
X238463659Y-86726096D01*
X238463655Y-86726094D01*
X238235413Y-86664938D01*
X238235403Y-86664936D01*
X238000001Y-86644341D01*
X237999999Y-86644341D01*
X237764596Y-86664936D01*
X237764586Y-86664938D01*
X237536344Y-86726094D01*
X237536335Y-86726098D01*
X237322171Y-86825964D01*
X237322169Y-86825965D01*
X237128597Y-86961505D01*
X236961505Y-87128597D01*
X236831575Y-87314158D01*
X236776998Y-87357783D01*
X236707500Y-87364977D01*
X236645145Y-87333454D01*
X236628425Y-87314158D01*
X236498494Y-87128597D01*
X236331402Y-86961506D01*
X236331395Y-86961501D01*
X236137834Y-86825967D01*
X236137830Y-86825965D01*
X236108388Y-86812236D01*
X235923663Y-86726097D01*
X235923659Y-86726096D01*
X235923655Y-86726094D01*
X235695413Y-86664938D01*
X235695403Y-86664936D01*
X235460001Y-86644341D01*
X235459999Y-86644341D01*
X235224596Y-86664936D01*
X235224586Y-86664938D01*
X234996344Y-86726094D01*
X234996335Y-86726098D01*
X234782171Y-86825964D01*
X234782169Y-86825965D01*
X234588597Y-86961505D01*
X234421505Y-87128597D01*
X234291575Y-87314158D01*
X234236998Y-87357783D01*
X234167500Y-87364977D01*
X234105145Y-87333454D01*
X234088425Y-87314158D01*
X233958494Y-87128597D01*
X233791402Y-86961506D01*
X233791395Y-86961501D01*
X233597834Y-86825967D01*
X233597830Y-86825965D01*
X233568388Y-86812236D01*
X233383663Y-86726097D01*
X233383659Y-86726096D01*
X233383655Y-86726094D01*
X233155413Y-86664938D01*
X233155403Y-86664936D01*
X232920001Y-86644341D01*
X232919999Y-86644341D01*
X232684596Y-86664936D01*
X232684586Y-86664938D01*
X232456344Y-86726094D01*
X232456335Y-86726098D01*
X232242171Y-86825964D01*
X232242169Y-86825965D01*
X232048597Y-86961505D01*
X231881508Y-87128594D01*
X231751269Y-87314595D01*
X231696692Y-87358219D01*
X231627193Y-87365412D01*
X231564839Y-87333890D01*
X231548119Y-87314594D01*
X231418113Y-87128926D01*
X231418108Y-87128920D01*
X231251082Y-86961894D01*
X231057578Y-86826399D01*
X230843492Y-86726570D01*
X230843486Y-86726567D01*
X230630000Y-86669364D01*
X230630000Y-87566988D01*
X230572993Y-87534075D01*
X230445826Y-87500000D01*
X230314174Y-87500000D01*
X230187007Y-87534075D01*
X230130000Y-87566988D01*
X230130000Y-86669364D01*
X230129999Y-86669364D01*
X229916513Y-86726567D01*
X229916507Y-86726570D01*
X229702422Y-86826399D01*
X229702420Y-86826400D01*
X229508926Y-86961886D01*
X229508920Y-86961891D01*
X229341891Y-87128920D01*
X229341890Y-87128922D01*
X229211880Y-87314595D01*
X229157303Y-87358219D01*
X229087804Y-87365412D01*
X229025450Y-87333890D01*
X229008730Y-87314594D01*
X228878494Y-87128597D01*
X228711402Y-86961506D01*
X228711395Y-86961501D01*
X228517834Y-86825967D01*
X228517830Y-86825965D01*
X228488388Y-86812236D01*
X228303663Y-86726097D01*
X228303659Y-86726096D01*
X228303655Y-86726094D01*
X228075413Y-86664938D01*
X228075403Y-86664936D01*
X227840001Y-86644341D01*
X227839999Y-86644341D01*
X227604596Y-86664936D01*
X227604586Y-86664938D01*
X227376344Y-86726094D01*
X227376335Y-86726098D01*
X227162171Y-86825964D01*
X227162169Y-86825965D01*
X226968600Y-86961503D01*
X226846673Y-87083430D01*
X226785350Y-87116914D01*
X226715658Y-87111930D01*
X226659725Y-87070058D01*
X226642810Y-87039081D01*
X226593797Y-86907671D01*
X226593793Y-86907664D01*
X226507547Y-86792455D01*
X226507544Y-86792452D01*
X226392335Y-86706206D01*
X226392328Y-86706202D01*
X226257482Y-86655908D01*
X226257483Y-86655908D01*
X226197883Y-86649501D01*
X226197881Y-86649500D01*
X226197873Y-86649500D01*
X226197864Y-86649500D01*
X224402129Y-86649500D01*
X224402123Y-86649501D01*
X224342516Y-86655908D01*
X224207671Y-86706202D01*
X224207664Y-86706206D01*
X224092455Y-86792452D01*
X224092452Y-86792455D01*
X224006206Y-86907664D01*
X224006202Y-86907671D01*
X223955908Y-87042517D01*
X223949501Y-87102116D01*
X223949500Y-87102135D01*
X170897865Y-87102135D01*
X172000001Y-85999999D01*
X243794357Y-85999999D01*
X243794357Y-86000000D01*
X243814884Y-86221535D01*
X243814885Y-86221537D01*
X243875769Y-86435523D01*
X243875775Y-86435538D01*
X243974938Y-86634683D01*
X243974943Y-86634691D01*
X244109020Y-86812238D01*
X244213706Y-86907671D01*
X244273182Y-86961891D01*
X244273437Y-86962123D01*
X244273439Y-86962125D01*
X244462595Y-87079245D01*
X244462596Y-87079245D01*
X244462599Y-87079247D01*
X244670060Y-87159618D01*
X244888757Y-87200500D01*
X244888759Y-87200500D01*
X245111241Y-87200500D01*
X245111243Y-87200500D01*
X245329940Y-87159618D01*
X245537401Y-87079247D01*
X245726562Y-86962124D01*
X245890981Y-86812236D01*
X246025058Y-86634689D01*
X246124229Y-86435528D01*
X246185115Y-86221536D01*
X246205643Y-86000000D01*
X246205643Y-85999999D01*
X247794357Y-85999999D01*
X247794357Y-86000000D01*
X247814884Y-86221535D01*
X247814885Y-86221537D01*
X247875769Y-86435523D01*
X247875775Y-86435538D01*
X247974938Y-86634683D01*
X247974943Y-86634691D01*
X248109020Y-86812238D01*
X248213706Y-86907671D01*
X248273182Y-86961891D01*
X248273437Y-86962123D01*
X248273439Y-86962125D01*
X248462595Y-87079245D01*
X248462596Y-87079245D01*
X248462599Y-87079247D01*
X248670060Y-87159618D01*
X248888757Y-87200500D01*
X248888759Y-87200500D01*
X249111241Y-87200500D01*
X249111243Y-87200500D01*
X249329940Y-87159618D01*
X249537401Y-87079247D01*
X249665393Y-86999998D01*
X252194532Y-86999998D01*
X252194532Y-87000001D01*
X252214364Y-87226686D01*
X252214366Y-87226697D01*
X252273258Y-87446488D01*
X252273261Y-87446497D01*
X252369431Y-87652732D01*
X252369432Y-87652734D01*
X252499954Y-87839141D01*
X252660858Y-88000045D01*
X252660861Y-88000047D01*
X252847266Y-88130568D01*
X253053504Y-88226739D01*
X253053509Y-88226740D01*
X253053511Y-88226741D01*
X253085857Y-88235408D01*
X253273308Y-88285635D01*
X253435230Y-88299801D01*
X253499998Y-88305468D01*
X253500000Y-88305468D01*
X253500002Y-88305468D01*
X253556673Y-88300509D01*
X253726692Y-88285635D01*
X253946496Y-88226739D01*
X254152734Y-88130568D01*
X254339139Y-88000047D01*
X254500047Y-87839139D01*
X254630568Y-87652734D01*
X254726739Y-87446496D01*
X254785635Y-87226692D01*
X254805468Y-87000000D01*
X254802133Y-86961886D01*
X254789041Y-86812238D01*
X254785635Y-86773308D01*
X254726739Y-86553504D01*
X254630568Y-86347266D01*
X254500047Y-86160861D01*
X254500045Y-86160858D01*
X254339141Y-85999954D01*
X254152734Y-85869432D01*
X254152732Y-85869431D01*
X253946497Y-85773261D01*
X253946488Y-85773258D01*
X253726697Y-85714366D01*
X253726693Y-85714365D01*
X253726692Y-85714365D01*
X253726691Y-85714364D01*
X253726686Y-85714364D01*
X253500002Y-85694532D01*
X253499998Y-85694532D01*
X253273313Y-85714364D01*
X253273302Y-85714366D01*
X253053511Y-85773258D01*
X253053502Y-85773261D01*
X252847267Y-85869431D01*
X252847265Y-85869432D01*
X252660858Y-85999954D01*
X252499954Y-86160858D01*
X252369432Y-86347265D01*
X252369431Y-86347267D01*
X252273261Y-86553502D01*
X252273258Y-86553511D01*
X252214366Y-86773302D01*
X252214364Y-86773313D01*
X252194532Y-86999998D01*
X249665393Y-86999998D01*
X249726562Y-86962124D01*
X249890981Y-86812236D01*
X250025058Y-86634689D01*
X250124229Y-86435528D01*
X250185115Y-86221536D01*
X250205643Y-86000000D01*
X250185115Y-85778464D01*
X250124229Y-85564472D01*
X250124224Y-85564461D01*
X250025061Y-85365316D01*
X250025056Y-85365308D01*
X249890979Y-85187761D01*
X249726562Y-85037876D01*
X249726560Y-85037874D01*
X249537404Y-84920754D01*
X249537398Y-84920752D01*
X249329940Y-84840382D01*
X249111243Y-84799500D01*
X248888757Y-84799500D01*
X248670060Y-84840382D01*
X248538864Y-84891207D01*
X248462601Y-84920752D01*
X248462595Y-84920754D01*
X248273439Y-85037874D01*
X248273437Y-85037876D01*
X248109020Y-85187761D01*
X247974943Y-85365308D01*
X247974938Y-85365316D01*
X247875775Y-85564461D01*
X247875769Y-85564476D01*
X247814885Y-85778462D01*
X247814884Y-85778464D01*
X247794357Y-85999999D01*
X246205643Y-85999999D01*
X246185115Y-85778464D01*
X246124229Y-85564472D01*
X246124224Y-85564461D01*
X246025061Y-85365316D01*
X246025056Y-85365308D01*
X245890979Y-85187761D01*
X245726562Y-85037876D01*
X245726560Y-85037874D01*
X245537404Y-84920754D01*
X245537398Y-84920752D01*
X245329940Y-84840382D01*
X245111243Y-84799500D01*
X244888757Y-84799500D01*
X244670060Y-84840382D01*
X244538864Y-84891207D01*
X244462601Y-84920752D01*
X244462595Y-84920754D01*
X244273439Y-85037874D01*
X244273437Y-85037876D01*
X244109020Y-85187761D01*
X243974943Y-85365308D01*
X243974938Y-85365316D01*
X243875775Y-85564461D01*
X243875769Y-85564476D01*
X243814885Y-85778462D01*
X243814884Y-85778464D01*
X243794357Y-85999999D01*
X172000001Y-85999999D01*
X173963681Y-84036319D01*
X174025004Y-84002834D01*
X174051362Y-84000000D01*
X255081930Y-84000000D01*
X255148969Y-84019685D01*
G37*
G04 #@! TD.AperFunction*
M02*
