G04 #@! TF.GenerationSoftware,KiCad,Pcbnew,8.0.7*
G04 #@! TF.CreationDate,2025-06-17T21:23:17-04:00*
G04 #@! TF.ProjectId,ESP32_MIDI_Summer25_Wand,45535033-325f-44d4-9944-495f53756d6d,rev?*
G04 #@! TF.SameCoordinates,Original*
G04 #@! TF.FileFunction,Legend,Bot*
G04 #@! TF.FilePolarity,Positive*
%FSLAX46Y46*%
G04 Gerber Fmt 4.6, Leading zero omitted, Abs format (unit mm)*
G04 Created by KiCad (PCBNEW 8.0.7) date 2025-06-17 21:23:17*
%MOMM*%
%LPD*%
G01*
G04 APERTURE LIST*
%ADD10C,0.200000*%
%ADD11C,0.300000*%
%ADD12C,0.150000*%
%ADD13C,0.120000*%
%ADD14R,1.600000X1.600000*%
%ADD15C,1.600000*%
%ADD16C,1.800000*%
%ADD17R,6.000000X2.000000*%
%ADD18C,3.200000*%
%ADD19R,1.700000X1.700000*%
%ADD20O,1.700000X1.700000*%
%ADD21C,1.400000*%
%ADD22O,1.400000X1.400000*%
%ADD23C,1.700000*%
%ADD24C,4.000000*%
%ADD25C,2.200000*%
G04 APERTURE END LIST*
D10*
X181206000Y-90230000D02*
X183500000Y-90230000D01*
X183500000Y-92770000D01*
X181206000Y-92770000D01*
X181206000Y-90230000D01*
G36*
X181206000Y-90230000D02*
G01*
X183500000Y-90230000D01*
X183500000Y-92770000D01*
X181206000Y-92770000D01*
X181206000Y-90230000D01*
G37*
X179706000Y-109730000D02*
X182000000Y-109730000D01*
X182000000Y-112270000D01*
X179706000Y-112270000D01*
X179706000Y-109730000D01*
G36*
X179706000Y-109730000D02*
G01*
X182000000Y-109730000D01*
X182000000Y-112270000D01*
X179706000Y-112270000D01*
X179706000Y-109730000D01*
G37*
X229206000Y-86730000D02*
X231500000Y-86730000D01*
X231500000Y-89270000D01*
X229206000Y-89270000D01*
X229206000Y-86730000D01*
G36*
X229206000Y-86730000D02*
G01*
X231500000Y-86730000D01*
X231500000Y-89270000D01*
X229206000Y-89270000D01*
X229206000Y-86730000D01*
G37*
D11*
X276326441Y-89019750D02*
X276326441Y-87019750D01*
X274516917Y-89019750D02*
X274516917Y-87972131D01*
X274516917Y-87972131D02*
X274612155Y-87781654D01*
X274612155Y-87781654D02*
X274802631Y-87686416D01*
X274802631Y-87686416D02*
X275183584Y-87686416D01*
X275183584Y-87686416D02*
X275374060Y-87781654D01*
X274516917Y-88924512D02*
X274707393Y-89019750D01*
X274707393Y-89019750D02*
X275183584Y-89019750D01*
X275183584Y-89019750D02*
X275374060Y-88924512D01*
X275374060Y-88924512D02*
X275469298Y-88734035D01*
X275469298Y-88734035D02*
X275469298Y-88543559D01*
X275469298Y-88543559D02*
X275374060Y-88353083D01*
X275374060Y-88353083D02*
X275183584Y-88257845D01*
X275183584Y-88257845D02*
X274707393Y-88257845D01*
X274707393Y-88257845D02*
X274516917Y-88162607D01*
X273564536Y-87686416D02*
X273564536Y-89019750D01*
X273564536Y-87876892D02*
X273469298Y-87781654D01*
X273469298Y-87781654D02*
X273278822Y-87686416D01*
X273278822Y-87686416D02*
X272993107Y-87686416D01*
X272993107Y-87686416D02*
X272802631Y-87781654D01*
X272802631Y-87781654D02*
X272707393Y-87972131D01*
X272707393Y-87972131D02*
X272707393Y-89019750D01*
X270231202Y-89019750D02*
X270231202Y-87019750D01*
X270231202Y-87972131D02*
X269088345Y-87972131D01*
X269088345Y-89019750D02*
X269088345Y-87019750D01*
X267278821Y-89019750D02*
X267278821Y-87972131D01*
X267278821Y-87972131D02*
X267374059Y-87781654D01*
X267374059Y-87781654D02*
X267564535Y-87686416D01*
X267564535Y-87686416D02*
X267945488Y-87686416D01*
X267945488Y-87686416D02*
X268135964Y-87781654D01*
X267278821Y-88924512D02*
X267469297Y-89019750D01*
X267469297Y-89019750D02*
X267945488Y-89019750D01*
X267945488Y-89019750D02*
X268135964Y-88924512D01*
X268135964Y-88924512D02*
X268231202Y-88734035D01*
X268231202Y-88734035D02*
X268231202Y-88543559D01*
X268231202Y-88543559D02*
X268135964Y-88353083D01*
X268135964Y-88353083D02*
X267945488Y-88257845D01*
X267945488Y-88257845D02*
X267469297Y-88257845D01*
X267469297Y-88257845D02*
X267278821Y-88162607D01*
X266612154Y-87686416D02*
X265850250Y-87686416D01*
X266326440Y-87019750D02*
X266326440Y-88734035D01*
X266326440Y-88734035D02*
X266231202Y-88924512D01*
X266231202Y-88924512D02*
X266040726Y-89019750D01*
X266040726Y-89019750D02*
X265850250Y-89019750D01*
X265469297Y-87686416D02*
X264707393Y-87686416D01*
X265183583Y-87019750D02*
X265183583Y-88734035D01*
X265183583Y-88734035D02*
X265088345Y-88924512D01*
X265088345Y-88924512D02*
X264897869Y-89019750D01*
X264897869Y-89019750D02*
X264707393Y-89019750D01*
X264231202Y-87686416D02*
X263850250Y-89019750D01*
X263850250Y-89019750D02*
X263469297Y-88067369D01*
X263469297Y-88067369D02*
X263088345Y-89019750D01*
X263088345Y-89019750D02*
X262707393Y-87686416D01*
X261945488Y-89019750D02*
X261945488Y-87686416D01*
X261945488Y-87019750D02*
X262040726Y-87114988D01*
X262040726Y-87114988D02*
X261945488Y-87210226D01*
X261945488Y-87210226D02*
X261850250Y-87114988D01*
X261850250Y-87114988D02*
X261945488Y-87019750D01*
X261945488Y-87019750D02*
X261945488Y-87210226D01*
X260135964Y-88924512D02*
X260326440Y-89019750D01*
X260326440Y-89019750D02*
X260707393Y-89019750D01*
X260707393Y-89019750D02*
X260897869Y-88924512D01*
X260897869Y-88924512D02*
X260993107Y-88829273D01*
X260993107Y-88829273D02*
X261088345Y-88638797D01*
X261088345Y-88638797D02*
X261088345Y-88067369D01*
X261088345Y-88067369D02*
X260993107Y-87876892D01*
X260993107Y-87876892D02*
X260897869Y-87781654D01*
X260897869Y-87781654D02*
X260707393Y-87686416D01*
X260707393Y-87686416D02*
X260326440Y-87686416D01*
X260326440Y-87686416D02*
X260135964Y-87781654D01*
X259278821Y-89019750D02*
X259278821Y-87019750D01*
X259088345Y-88257845D02*
X258516916Y-89019750D01*
X258516916Y-87686416D02*
X259278821Y-88448321D01*
X275755012Y-90239638D02*
X275755012Y-91668209D01*
X275755012Y-91668209D02*
X275850251Y-91953923D01*
X275850251Y-91953923D02*
X276040727Y-92144400D01*
X276040727Y-92144400D02*
X276326441Y-92239638D01*
X276326441Y-92239638D02*
X276516917Y-92239638D01*
X273945488Y-90906304D02*
X273945488Y-92239638D01*
X274802631Y-90906304D02*
X274802631Y-91953923D01*
X274802631Y-91953923D02*
X274707393Y-92144400D01*
X274707393Y-92144400D02*
X274516917Y-92239638D01*
X274516917Y-92239638D02*
X274231202Y-92239638D01*
X274231202Y-92239638D02*
X274040726Y-92144400D01*
X274040726Y-92144400D02*
X273945488Y-92049161D01*
X272993107Y-90906304D02*
X272993107Y-92239638D01*
X272993107Y-91096780D02*
X272897869Y-91001542D01*
X272897869Y-91001542D02*
X272707393Y-90906304D01*
X272707393Y-90906304D02*
X272421678Y-90906304D01*
X272421678Y-90906304D02*
X272231202Y-91001542D01*
X272231202Y-91001542D02*
X272135964Y-91192019D01*
X272135964Y-91192019D02*
X272135964Y-92239638D01*
X269564535Y-90239638D02*
X269755011Y-90620590D01*
X268802630Y-90430114D02*
X268707392Y-90334876D01*
X268707392Y-90334876D02*
X268516916Y-90239638D01*
X268516916Y-90239638D02*
X268040725Y-90239638D01*
X268040725Y-90239638D02*
X267850249Y-90334876D01*
X267850249Y-90334876D02*
X267755011Y-90430114D01*
X267755011Y-90430114D02*
X267659773Y-90620590D01*
X267659773Y-90620590D02*
X267659773Y-90811066D01*
X267659773Y-90811066D02*
X267755011Y-91096780D01*
X267755011Y-91096780D02*
X268897868Y-92239638D01*
X268897868Y-92239638D02*
X267659773Y-92239638D01*
X265850249Y-90239638D02*
X266802630Y-90239638D01*
X266802630Y-90239638D02*
X266897868Y-91192019D01*
X266897868Y-91192019D02*
X266802630Y-91096780D01*
X266802630Y-91096780D02*
X266612154Y-91001542D01*
X266612154Y-91001542D02*
X266135963Y-91001542D01*
X266135963Y-91001542D02*
X265945487Y-91096780D01*
X265945487Y-91096780D02*
X265850249Y-91192019D01*
X265850249Y-91192019D02*
X265755011Y-91382495D01*
X265755011Y-91382495D02*
X265755011Y-91858685D01*
X265755011Y-91858685D02*
X265850249Y-92049161D01*
X265850249Y-92049161D02*
X265945487Y-92144400D01*
X265945487Y-92144400D02*
X266135963Y-92239638D01*
X266135963Y-92239638D02*
X266612154Y-92239638D01*
X266612154Y-92239638D02*
X266802630Y-92144400D01*
X266802630Y-92144400D02*
X266897868Y-92049161D01*
X247921679Y-92644400D02*
X247635965Y-92739638D01*
X247635965Y-92739638D02*
X247159774Y-92739638D01*
X247159774Y-92739638D02*
X246969298Y-92644400D01*
X246969298Y-92644400D02*
X246874060Y-92549161D01*
X246874060Y-92549161D02*
X246778822Y-92358685D01*
X246778822Y-92358685D02*
X246778822Y-92168209D01*
X246778822Y-92168209D02*
X246874060Y-91977733D01*
X246874060Y-91977733D02*
X246969298Y-91882495D01*
X246969298Y-91882495D02*
X247159774Y-91787257D01*
X247159774Y-91787257D02*
X247540727Y-91692019D01*
X247540727Y-91692019D02*
X247731203Y-91596780D01*
X247731203Y-91596780D02*
X247826441Y-91501542D01*
X247826441Y-91501542D02*
X247921679Y-91311066D01*
X247921679Y-91311066D02*
X247921679Y-91120590D01*
X247921679Y-91120590D02*
X247826441Y-90930114D01*
X247826441Y-90930114D02*
X247731203Y-90834876D01*
X247731203Y-90834876D02*
X247540727Y-90739638D01*
X247540727Y-90739638D02*
X247064536Y-90739638D01*
X247064536Y-90739638D02*
X246778822Y-90834876D01*
X245635965Y-92739638D02*
X245826441Y-92644400D01*
X245826441Y-92644400D02*
X245921679Y-92549161D01*
X245921679Y-92549161D02*
X246016917Y-92358685D01*
X246016917Y-92358685D02*
X246016917Y-91787257D01*
X246016917Y-91787257D02*
X245921679Y-91596780D01*
X245921679Y-91596780D02*
X245826441Y-91501542D01*
X245826441Y-91501542D02*
X245635965Y-91406304D01*
X245635965Y-91406304D02*
X245350250Y-91406304D01*
X245350250Y-91406304D02*
X245159774Y-91501542D01*
X245159774Y-91501542D02*
X245064536Y-91596780D01*
X245064536Y-91596780D02*
X244969298Y-91787257D01*
X244969298Y-91787257D02*
X244969298Y-92358685D01*
X244969298Y-92358685D02*
X245064536Y-92549161D01*
X245064536Y-92549161D02*
X245159774Y-92644400D01*
X245159774Y-92644400D02*
X245350250Y-92739638D01*
X245350250Y-92739638D02*
X245635965Y-92739638D01*
X244112155Y-92739638D02*
X244112155Y-91406304D01*
X244112155Y-91596780D02*
X244016917Y-91501542D01*
X244016917Y-91501542D02*
X243826441Y-91406304D01*
X243826441Y-91406304D02*
X243540726Y-91406304D01*
X243540726Y-91406304D02*
X243350250Y-91501542D01*
X243350250Y-91501542D02*
X243255012Y-91692019D01*
X243255012Y-91692019D02*
X243255012Y-92739638D01*
X243255012Y-91692019D02*
X243159774Y-91501542D01*
X243159774Y-91501542D02*
X242969298Y-91406304D01*
X242969298Y-91406304D02*
X242683584Y-91406304D01*
X242683584Y-91406304D02*
X242493107Y-91501542D01*
X242493107Y-91501542D02*
X242397869Y-91692019D01*
X242397869Y-91692019D02*
X242397869Y-92739638D01*
X240683583Y-92644400D02*
X240874059Y-92739638D01*
X240874059Y-92739638D02*
X241255012Y-92739638D01*
X241255012Y-92739638D02*
X241445488Y-92644400D01*
X241445488Y-92644400D02*
X241540726Y-92453923D01*
X241540726Y-92453923D02*
X241540726Y-91692019D01*
X241540726Y-91692019D02*
X241445488Y-91501542D01*
X241445488Y-91501542D02*
X241255012Y-91406304D01*
X241255012Y-91406304D02*
X240874059Y-91406304D01*
X240874059Y-91406304D02*
X240683583Y-91501542D01*
X240683583Y-91501542D02*
X240588345Y-91692019D01*
X240588345Y-91692019D02*
X240588345Y-91882495D01*
X240588345Y-91882495D02*
X241540726Y-92072971D01*
X239731202Y-92739638D02*
X239731202Y-91406304D01*
X239731202Y-91787257D02*
X239635964Y-91596780D01*
X239635964Y-91596780D02*
X239540726Y-91501542D01*
X239540726Y-91501542D02*
X239350250Y-91406304D01*
X239350250Y-91406304D02*
X239159773Y-91406304D01*
X238683583Y-91406304D02*
X238207393Y-92739638D01*
X238207393Y-92739638D02*
X237731202Y-91406304D01*
X236969297Y-92739638D02*
X236969297Y-91406304D01*
X236969297Y-90739638D02*
X237064535Y-90834876D01*
X237064535Y-90834876D02*
X236969297Y-90930114D01*
X236969297Y-90930114D02*
X236874059Y-90834876D01*
X236874059Y-90834876D02*
X236969297Y-90739638D01*
X236969297Y-90739638D02*
X236969297Y-90930114D01*
X235731202Y-92739638D02*
X235921678Y-92644400D01*
X235921678Y-92644400D02*
X236016916Y-92453923D01*
X236016916Y-92453923D02*
X236016916Y-90739638D01*
X234683583Y-92739638D02*
X234874059Y-92644400D01*
X234874059Y-92644400D02*
X234969297Y-92453923D01*
X234969297Y-92453923D02*
X234969297Y-90739638D01*
X233159773Y-92644400D02*
X233350249Y-92739638D01*
X233350249Y-92739638D02*
X233731202Y-92739638D01*
X233731202Y-92739638D02*
X233921678Y-92644400D01*
X233921678Y-92644400D02*
X234016916Y-92453923D01*
X234016916Y-92453923D02*
X234016916Y-91692019D01*
X234016916Y-91692019D02*
X233921678Y-91501542D01*
X233921678Y-91501542D02*
X233731202Y-91406304D01*
X233731202Y-91406304D02*
X233350249Y-91406304D01*
X233350249Y-91406304D02*
X233159773Y-91501542D01*
X233159773Y-91501542D02*
X233064535Y-91692019D01*
X233064535Y-91692019D02*
X233064535Y-91882495D01*
X233064535Y-91882495D02*
X234016916Y-92072971D01*
X232112154Y-92644400D02*
X232112154Y-92739638D01*
X232112154Y-92739638D02*
X232207392Y-92930114D01*
X232207392Y-92930114D02*
X232302630Y-93025352D01*
X229731201Y-92739638D02*
X229731201Y-90739638D01*
X229731201Y-90739638D02*
X229064534Y-92168209D01*
X229064534Y-92168209D02*
X228397868Y-90739638D01*
X228397868Y-90739638D02*
X228397868Y-92739638D01*
X227540725Y-92168209D02*
X226588344Y-92168209D01*
X227731201Y-92739638D02*
X227064535Y-90739638D01*
X227064535Y-90739638D02*
X226397868Y-92739638D01*
X247826441Y-88739638D02*
X247826441Y-86739638D01*
X247826441Y-86739638D02*
X247159774Y-88168209D01*
X247159774Y-88168209D02*
X246493108Y-86739638D01*
X246493108Y-86739638D02*
X246493108Y-88739638D01*
X245540727Y-88739638D02*
X245540727Y-86739638D01*
X244588346Y-88739638D02*
X244588346Y-86739638D01*
X244588346Y-86739638D02*
X244112156Y-86739638D01*
X244112156Y-86739638D02*
X243826441Y-86834876D01*
X243826441Y-86834876D02*
X243635965Y-87025352D01*
X243635965Y-87025352D02*
X243540727Y-87215828D01*
X243540727Y-87215828D02*
X243445489Y-87596780D01*
X243445489Y-87596780D02*
X243445489Y-87882495D01*
X243445489Y-87882495D02*
X243540727Y-88263447D01*
X243540727Y-88263447D02*
X243635965Y-88453923D01*
X243635965Y-88453923D02*
X243826441Y-88644400D01*
X243826441Y-88644400D02*
X244112156Y-88739638D01*
X244112156Y-88739638D02*
X244588346Y-88739638D01*
X242588346Y-88739638D02*
X242588346Y-86739638D01*
X240302631Y-86739638D02*
X239826441Y-88739638D01*
X239826441Y-88739638D02*
X239445488Y-87311066D01*
X239445488Y-87311066D02*
X239064536Y-88739638D01*
X239064536Y-88739638D02*
X238588346Y-86739638D01*
X237921679Y-88168209D02*
X236969298Y-88168209D01*
X238112155Y-88739638D02*
X237445489Y-86739638D01*
X237445489Y-86739638D02*
X236778822Y-88739638D01*
X236112155Y-88739638D02*
X236112155Y-86739638D01*
X236112155Y-86739638D02*
X234969298Y-88739638D01*
X234969298Y-88739638D02*
X234969298Y-86739638D01*
X234016917Y-88739638D02*
X234016917Y-86739638D01*
X234016917Y-86739638D02*
X233540727Y-86739638D01*
X233540727Y-86739638D02*
X233255012Y-86834876D01*
X233255012Y-86834876D02*
X233064536Y-87025352D01*
X233064536Y-87025352D02*
X232969298Y-87215828D01*
X232969298Y-87215828D02*
X232874060Y-87596780D01*
X232874060Y-87596780D02*
X232874060Y-87882495D01*
X232874060Y-87882495D02*
X232969298Y-88263447D01*
X232969298Y-88263447D02*
X233064536Y-88453923D01*
X233064536Y-88453923D02*
X233255012Y-88644400D01*
X233255012Y-88644400D02*
X233540727Y-88739638D01*
X233540727Y-88739638D02*
X234016917Y-88739638D01*
X230683583Y-87406304D02*
X230207393Y-88739638D01*
X230207393Y-88739638D02*
X229731202Y-87406304D01*
X227921678Y-88739638D02*
X229064535Y-88739638D01*
X228493107Y-88739638D02*
X228493107Y-86739638D01*
X228493107Y-86739638D02*
X228683583Y-87025352D01*
X228683583Y-87025352D02*
X228874059Y-87215828D01*
X228874059Y-87215828D02*
X229064535Y-87311066D01*
X227064535Y-88549161D02*
X226969297Y-88644400D01*
X226969297Y-88644400D02*
X227064535Y-88739638D01*
X227064535Y-88739638D02*
X227159773Y-88644400D01*
X227159773Y-88644400D02*
X227064535Y-88549161D01*
X227064535Y-88549161D02*
X227064535Y-88739638D01*
X225731202Y-86739638D02*
X225540725Y-86739638D01*
X225540725Y-86739638D02*
X225350249Y-86834876D01*
X225350249Y-86834876D02*
X225255011Y-86930114D01*
X225255011Y-86930114D02*
X225159773Y-87120590D01*
X225159773Y-87120590D02*
X225064535Y-87501542D01*
X225064535Y-87501542D02*
X225064535Y-87977733D01*
X225064535Y-87977733D02*
X225159773Y-88358685D01*
X225159773Y-88358685D02*
X225255011Y-88549161D01*
X225255011Y-88549161D02*
X225350249Y-88644400D01*
X225350249Y-88644400D02*
X225540725Y-88739638D01*
X225540725Y-88739638D02*
X225731202Y-88739638D01*
X225731202Y-88739638D02*
X225921678Y-88644400D01*
X225921678Y-88644400D02*
X226016916Y-88549161D01*
X226016916Y-88549161D02*
X226112154Y-88358685D01*
X226112154Y-88358685D02*
X226207392Y-87977733D01*
X226207392Y-87977733D02*
X226207392Y-87501542D01*
X226207392Y-87501542D02*
X226112154Y-87120590D01*
X226112154Y-87120590D02*
X226016916Y-86930114D01*
X226016916Y-86930114D02*
X225921678Y-86834876D01*
X225921678Y-86834876D02*
X225731202Y-86739638D01*
D12*
X43473391Y-99218716D02*
X42473391Y-99218716D01*
X42473391Y-99218716D02*
X42473391Y-99456811D01*
X42473391Y-99456811D02*
X42521010Y-99599668D01*
X42521010Y-99599668D02*
X42616248Y-99694906D01*
X42616248Y-99694906D02*
X42711486Y-99742525D01*
X42711486Y-99742525D02*
X42901962Y-99790144D01*
X42901962Y-99790144D02*
X43044819Y-99790144D01*
X43044819Y-99790144D02*
X43235295Y-99742525D01*
X43235295Y-99742525D02*
X43330533Y-99694906D01*
X43330533Y-99694906D02*
X43425772Y-99599668D01*
X43425772Y-99599668D02*
X43473391Y-99456811D01*
X43473391Y-99456811D02*
X43473391Y-99218716D01*
X42473391Y-100409192D02*
X42473391Y-100599668D01*
X42473391Y-100599668D02*
X42521010Y-100694906D01*
X42521010Y-100694906D02*
X42616248Y-100790144D01*
X42616248Y-100790144D02*
X42806724Y-100837763D01*
X42806724Y-100837763D02*
X43140057Y-100837763D01*
X43140057Y-100837763D02*
X43330533Y-100790144D01*
X43330533Y-100790144D02*
X43425772Y-100694906D01*
X43425772Y-100694906D02*
X43473391Y-100599668D01*
X43473391Y-100599668D02*
X43473391Y-100409192D01*
X43473391Y-100409192D02*
X43425772Y-100313954D01*
X43425772Y-100313954D02*
X43330533Y-100218716D01*
X43330533Y-100218716D02*
X43140057Y-100171097D01*
X43140057Y-100171097D02*
X42806724Y-100171097D01*
X42806724Y-100171097D02*
X42616248Y-100218716D01*
X42616248Y-100218716D02*
X42521010Y-100313954D01*
X42521010Y-100313954D02*
X42473391Y-100409192D01*
X42458737Y-97749804D02*
X42411118Y-97654566D01*
X42411118Y-97654566D02*
X42411118Y-97511709D01*
X42411118Y-97511709D02*
X42458737Y-97368852D01*
X42458737Y-97368852D02*
X42553975Y-97273614D01*
X42553975Y-97273614D02*
X42649213Y-97225995D01*
X42649213Y-97225995D02*
X42839689Y-97178376D01*
X42839689Y-97178376D02*
X42982546Y-97178376D01*
X42982546Y-97178376D02*
X43173022Y-97225995D01*
X43173022Y-97225995D02*
X43268260Y-97273614D01*
X43268260Y-97273614D02*
X43363499Y-97368852D01*
X43363499Y-97368852D02*
X43411118Y-97511709D01*
X43411118Y-97511709D02*
X43411118Y-97606947D01*
X43411118Y-97606947D02*
X43363499Y-97749804D01*
X43363499Y-97749804D02*
X43315879Y-97797423D01*
X43315879Y-97797423D02*
X42982546Y-97797423D01*
X42982546Y-97797423D02*
X42982546Y-97606947D01*
X43112378Y-102135877D02*
X43112378Y-102897782D01*
X43493331Y-102516829D02*
X42731426Y-102516829D01*
X174473391Y-99218716D02*
X173473391Y-99218716D01*
X173473391Y-99218716D02*
X173473391Y-99456811D01*
X173473391Y-99456811D02*
X173521010Y-99599668D01*
X173521010Y-99599668D02*
X173616248Y-99694906D01*
X173616248Y-99694906D02*
X173711486Y-99742525D01*
X173711486Y-99742525D02*
X173901962Y-99790144D01*
X173901962Y-99790144D02*
X174044819Y-99790144D01*
X174044819Y-99790144D02*
X174235295Y-99742525D01*
X174235295Y-99742525D02*
X174330533Y-99694906D01*
X174330533Y-99694906D02*
X174425772Y-99599668D01*
X174425772Y-99599668D02*
X174473391Y-99456811D01*
X174473391Y-99456811D02*
X174473391Y-99218716D01*
X173473391Y-100409192D02*
X173473391Y-100599668D01*
X173473391Y-100599668D02*
X173521010Y-100694906D01*
X173521010Y-100694906D02*
X173616248Y-100790144D01*
X173616248Y-100790144D02*
X173806724Y-100837763D01*
X173806724Y-100837763D02*
X174140057Y-100837763D01*
X174140057Y-100837763D02*
X174330533Y-100790144D01*
X174330533Y-100790144D02*
X174425772Y-100694906D01*
X174425772Y-100694906D02*
X174473391Y-100599668D01*
X174473391Y-100599668D02*
X174473391Y-100409192D01*
X174473391Y-100409192D02*
X174425772Y-100313954D01*
X174425772Y-100313954D02*
X174330533Y-100218716D01*
X174330533Y-100218716D02*
X174140057Y-100171097D01*
X174140057Y-100171097D02*
X173806724Y-100171097D01*
X173806724Y-100171097D02*
X173616248Y-100218716D01*
X173616248Y-100218716D02*
X173521010Y-100313954D01*
X173521010Y-100313954D02*
X173473391Y-100409192D01*
X173458737Y-97360588D02*
X173411118Y-97265350D01*
X173411118Y-97265350D02*
X173411118Y-97122493D01*
X173411118Y-97122493D02*
X173458737Y-96979636D01*
X173458737Y-96979636D02*
X173553975Y-96884398D01*
X173553975Y-96884398D02*
X173649213Y-96836779D01*
X173649213Y-96836779D02*
X173839689Y-96789160D01*
X173839689Y-96789160D02*
X173982546Y-96789160D01*
X173982546Y-96789160D02*
X174173022Y-96836779D01*
X174173022Y-96836779D02*
X174268260Y-96884398D01*
X174268260Y-96884398D02*
X174363499Y-96979636D01*
X174363499Y-96979636D02*
X174411118Y-97122493D01*
X174411118Y-97122493D02*
X174411118Y-97217731D01*
X174411118Y-97217731D02*
X174363499Y-97360588D01*
X174363499Y-97360588D02*
X174315879Y-97408207D01*
X174315879Y-97408207D02*
X173982546Y-97408207D01*
X173982546Y-97408207D02*
X173982546Y-97217731D01*
X174112378Y-102135877D02*
X174112378Y-102897782D01*
X174493331Y-102516829D02*
X173731426Y-102516829D01*
X230993332Y-112701200D02*
X230850475Y-112748819D01*
X230850475Y-112748819D02*
X230612380Y-112748819D01*
X230612380Y-112748819D02*
X230517142Y-112701200D01*
X230517142Y-112701200D02*
X230469523Y-112653580D01*
X230469523Y-112653580D02*
X230421904Y-112558342D01*
X230421904Y-112558342D02*
X230421904Y-112463104D01*
X230421904Y-112463104D02*
X230469523Y-112367866D01*
X230469523Y-112367866D02*
X230517142Y-112320247D01*
X230517142Y-112320247D02*
X230612380Y-112272628D01*
X230612380Y-112272628D02*
X230802856Y-112225009D01*
X230802856Y-112225009D02*
X230898094Y-112177390D01*
X230898094Y-112177390D02*
X230945713Y-112129771D01*
X230945713Y-112129771D02*
X230993332Y-112034533D01*
X230993332Y-112034533D02*
X230993332Y-111939295D01*
X230993332Y-111939295D02*
X230945713Y-111844057D01*
X230945713Y-111844057D02*
X230898094Y-111796438D01*
X230898094Y-111796438D02*
X230802856Y-111748819D01*
X230802856Y-111748819D02*
X230564761Y-111748819D01*
X230564761Y-111748819D02*
X230421904Y-111796438D01*
X230088570Y-111748819D02*
X229850475Y-112748819D01*
X229850475Y-112748819D02*
X229659999Y-112034533D01*
X229659999Y-112034533D02*
X229469523Y-112748819D01*
X229469523Y-112748819D02*
X229231428Y-111748819D01*
X228898094Y-111844057D02*
X228850475Y-111796438D01*
X228850475Y-111796438D02*
X228755237Y-111748819D01*
X228755237Y-111748819D02*
X228517142Y-111748819D01*
X228517142Y-111748819D02*
X228421904Y-111796438D01*
X228421904Y-111796438D02*
X228374285Y-111844057D01*
X228374285Y-111844057D02*
X228326666Y-111939295D01*
X228326666Y-111939295D02*
X228326666Y-112034533D01*
X228326666Y-112034533D02*
X228374285Y-112177390D01*
X228374285Y-112177390D02*
X228945713Y-112748819D01*
X228945713Y-112748819D02*
X228326666Y-112748819D01*
X211943332Y-112701200D02*
X211800475Y-112748819D01*
X211800475Y-112748819D02*
X211562380Y-112748819D01*
X211562380Y-112748819D02*
X211467142Y-112701200D01*
X211467142Y-112701200D02*
X211419523Y-112653580D01*
X211419523Y-112653580D02*
X211371904Y-112558342D01*
X211371904Y-112558342D02*
X211371904Y-112463104D01*
X211371904Y-112463104D02*
X211419523Y-112367866D01*
X211419523Y-112367866D02*
X211467142Y-112320247D01*
X211467142Y-112320247D02*
X211562380Y-112272628D01*
X211562380Y-112272628D02*
X211752856Y-112225009D01*
X211752856Y-112225009D02*
X211848094Y-112177390D01*
X211848094Y-112177390D02*
X211895713Y-112129771D01*
X211895713Y-112129771D02*
X211943332Y-112034533D01*
X211943332Y-112034533D02*
X211943332Y-111939295D01*
X211943332Y-111939295D02*
X211895713Y-111844057D01*
X211895713Y-111844057D02*
X211848094Y-111796438D01*
X211848094Y-111796438D02*
X211752856Y-111748819D01*
X211752856Y-111748819D02*
X211514761Y-111748819D01*
X211514761Y-111748819D02*
X211371904Y-111796438D01*
X211038570Y-111748819D02*
X210800475Y-112748819D01*
X210800475Y-112748819D02*
X210609999Y-112034533D01*
X210609999Y-112034533D02*
X210419523Y-112748819D01*
X210419523Y-112748819D02*
X210181428Y-111748819D01*
X209895713Y-111748819D02*
X209276666Y-111748819D01*
X209276666Y-111748819D02*
X209609999Y-112129771D01*
X209609999Y-112129771D02*
X209467142Y-112129771D01*
X209467142Y-112129771D02*
X209371904Y-112177390D01*
X209371904Y-112177390D02*
X209324285Y-112225009D01*
X209324285Y-112225009D02*
X209276666Y-112320247D01*
X209276666Y-112320247D02*
X209276666Y-112558342D01*
X209276666Y-112558342D02*
X209324285Y-112653580D01*
X209324285Y-112653580D02*
X209371904Y-112701200D01*
X209371904Y-112701200D02*
X209467142Y-112748819D01*
X209467142Y-112748819D02*
X209752856Y-112748819D01*
X209752856Y-112748819D02*
X209848094Y-112701200D01*
X209848094Y-112701200D02*
X209895713Y-112653580D01*
X192893332Y-112701200D02*
X192750475Y-112748819D01*
X192750475Y-112748819D02*
X192512380Y-112748819D01*
X192512380Y-112748819D02*
X192417142Y-112701200D01*
X192417142Y-112701200D02*
X192369523Y-112653580D01*
X192369523Y-112653580D02*
X192321904Y-112558342D01*
X192321904Y-112558342D02*
X192321904Y-112463104D01*
X192321904Y-112463104D02*
X192369523Y-112367866D01*
X192369523Y-112367866D02*
X192417142Y-112320247D01*
X192417142Y-112320247D02*
X192512380Y-112272628D01*
X192512380Y-112272628D02*
X192702856Y-112225009D01*
X192702856Y-112225009D02*
X192798094Y-112177390D01*
X192798094Y-112177390D02*
X192845713Y-112129771D01*
X192845713Y-112129771D02*
X192893332Y-112034533D01*
X192893332Y-112034533D02*
X192893332Y-111939295D01*
X192893332Y-111939295D02*
X192845713Y-111844057D01*
X192845713Y-111844057D02*
X192798094Y-111796438D01*
X192798094Y-111796438D02*
X192702856Y-111748819D01*
X192702856Y-111748819D02*
X192464761Y-111748819D01*
X192464761Y-111748819D02*
X192321904Y-111796438D01*
X191988570Y-111748819D02*
X191750475Y-112748819D01*
X191750475Y-112748819D02*
X191559999Y-112034533D01*
X191559999Y-112034533D02*
X191369523Y-112748819D01*
X191369523Y-112748819D02*
X191131428Y-111748819D01*
X190321904Y-112082152D02*
X190321904Y-112748819D01*
X190559999Y-111701200D02*
X190798094Y-112415485D01*
X190798094Y-112415485D02*
X190179047Y-112415485D01*
X250043332Y-112701200D02*
X249900475Y-112748819D01*
X249900475Y-112748819D02*
X249662380Y-112748819D01*
X249662380Y-112748819D02*
X249567142Y-112701200D01*
X249567142Y-112701200D02*
X249519523Y-112653580D01*
X249519523Y-112653580D02*
X249471904Y-112558342D01*
X249471904Y-112558342D02*
X249471904Y-112463104D01*
X249471904Y-112463104D02*
X249519523Y-112367866D01*
X249519523Y-112367866D02*
X249567142Y-112320247D01*
X249567142Y-112320247D02*
X249662380Y-112272628D01*
X249662380Y-112272628D02*
X249852856Y-112225009D01*
X249852856Y-112225009D02*
X249948094Y-112177390D01*
X249948094Y-112177390D02*
X249995713Y-112129771D01*
X249995713Y-112129771D02*
X250043332Y-112034533D01*
X250043332Y-112034533D02*
X250043332Y-111939295D01*
X250043332Y-111939295D02*
X249995713Y-111844057D01*
X249995713Y-111844057D02*
X249948094Y-111796438D01*
X249948094Y-111796438D02*
X249852856Y-111748819D01*
X249852856Y-111748819D02*
X249614761Y-111748819D01*
X249614761Y-111748819D02*
X249471904Y-111796438D01*
X249138570Y-111748819D02*
X248900475Y-112748819D01*
X248900475Y-112748819D02*
X248709999Y-112034533D01*
X248709999Y-112034533D02*
X248519523Y-112748819D01*
X248519523Y-112748819D02*
X248281428Y-111748819D01*
X247376666Y-112748819D02*
X247948094Y-112748819D01*
X247662380Y-112748819D02*
X247662380Y-111748819D01*
X247662380Y-111748819D02*
X247757618Y-111891676D01*
X247757618Y-111891676D02*
X247852856Y-111986914D01*
X247852856Y-111986914D02*
X247948094Y-112034533D01*
D10*
X37874214Y-90965786D02*
X36460000Y-92380000D01*
X37874214Y-93794214D02*
X36460000Y-92380000D01*
X36460000Y-92380000D02*
X41540000Y-92380000D01*
D13*
X42000000Y-95000000D02*
X35500000Y-95000000D01*
X42000000Y-105000000D02*
X42000000Y-95000000D01*
X35500000Y-95000000D02*
X35500000Y-105000000D01*
X35500000Y-105000000D02*
X42000000Y-105000000D01*
D10*
X168874214Y-90965786D02*
X167460000Y-92380000D01*
X168874214Y-93794214D02*
X167460000Y-92380000D01*
X167460000Y-92380000D02*
X172540000Y-92380000D01*
D13*
X173000000Y-95000000D02*
X166500000Y-95000000D01*
X173000000Y-105000000D02*
X173000000Y-95000000D01*
X166500000Y-95000000D02*
X166500000Y-105000000D01*
X166500000Y-105000000D02*
X173000000Y-105000000D01*
X236645000Y-111405000D02*
X222675000Y-111405000D01*
X222675000Y-111405000D02*
X222675000Y-97435000D01*
X236645000Y-97435000D02*
X236645000Y-111405000D01*
X222675000Y-97435000D02*
X236645000Y-97435000D01*
X217595000Y-111405000D02*
X203625000Y-111405000D01*
X203625000Y-111405000D02*
X203625000Y-97435000D01*
X217595000Y-97435000D02*
X217595000Y-111405000D01*
X203625000Y-97435000D02*
X217595000Y-97435000D01*
X184575000Y-97435000D02*
X198545000Y-97435000D01*
X198545000Y-97435000D02*
X198545000Y-111405000D01*
X184575000Y-111405000D02*
X184575000Y-97435000D01*
X198545000Y-111405000D02*
X184575000Y-111405000D01*
X255695000Y-111405000D02*
X241725000Y-111405000D01*
X241725000Y-111405000D02*
X241725000Y-97435000D01*
X255695000Y-97435000D02*
X255695000Y-111405000D01*
X241725000Y-97435000D02*
X255695000Y-97435000D01*
%LPC*%
D14*
X180044888Y-91500000D03*
D15*
X182044888Y-91500000D03*
X253500000Y-92000000D03*
X253500000Y-87000000D03*
X176000000Y-110500000D03*
X181000000Y-110500000D03*
D16*
X216750000Y-96000000D03*
X214750000Y-96000000D03*
X212750000Y-96000000D03*
X210750000Y-96000000D03*
X208750000Y-96000000D03*
D17*
X38500000Y-97500000D03*
X38500000Y-100000000D03*
X38500000Y-102500000D03*
X169500000Y-97500000D03*
X169500000Y-100000000D03*
X169500000Y-102500000D03*
D18*
X172500000Y-90500000D03*
D19*
X225300000Y-88000000D03*
D20*
X227840000Y-88000000D03*
X230380000Y-88000000D03*
X232920000Y-88000000D03*
X235460000Y-88000000D03*
X238000000Y-88000000D03*
X240540000Y-88000000D03*
D21*
X245000000Y-86000000D03*
D22*
X245000000Y-93620000D03*
D21*
X175500000Y-102310000D03*
D22*
X175500000Y-94690000D03*
D16*
X196250000Y-96000000D03*
X194250000Y-96000000D03*
X192250000Y-96000000D03*
X190250000Y-96000000D03*
X188250000Y-96000000D03*
D21*
X249000000Y-86000000D03*
D22*
X249000000Y-93620000D03*
D18*
X277500000Y-112000000D03*
X171500000Y-109000000D03*
D23*
X224580000Y-104420000D03*
D24*
X229660000Y-104420000D03*
D23*
X234740000Y-104420000D03*
D25*
X232200000Y-109500000D03*
X225850000Y-106960000D03*
D23*
X205530000Y-104420000D03*
D24*
X210610000Y-104420000D03*
D23*
X215690000Y-104420000D03*
D25*
X213150000Y-109500000D03*
X206800000Y-106960000D03*
X187750000Y-106960000D03*
X194100000Y-109500000D03*
D23*
X196640000Y-104420000D03*
D24*
X191560000Y-104420000D03*
D23*
X186480000Y-104420000D03*
X243630000Y-104420000D03*
D24*
X248710000Y-104420000D03*
D23*
X253790000Y-104420000D03*
D25*
X251250000Y-109500000D03*
X244900000Y-106960000D03*
%LPD*%
M02*
