M48
; DRILL file {KiCad 7.0.5-0} date 2024 June 20, Thursday 00:37:04
; FORMAT={-:-/ absolute / metric / decimal}
; #@! TF.CreationDate,2024-06-20T00:37:04-04:00
; #@! TF.GenerationSoftware,Kicad,Pcbnew,7.0.5-0
; #@! TF.FileFunction,Plated,1,2,PTH
FMAT,2
METRIC
; #@! TA.AperFunction,Plated,PTH,ViaDrill
T1C0.400
; #@! TA.AperFunction,Plated,PTH,ComponentDrill
T2C0.700
; #@! TA.AperFunction,Plated,PTH,ComponentDrill
T3C0.800
; #@! TA.AperFunction,Plated,PTH,ComponentDrill
T4C0.900
; #@! TA.AperFunction,Plated,PTH,ComponentDrill
T5C1.000
; #@! TA.AperFunction,Plated,PTH,ComponentDrill
T6C1.800
%
G90
G05
T1
X122.936Y-42.164
X123.66Y-38.608
X125.476Y-42.164
X128.016Y-40.132
X129.032Y-47.244
X129.032Y-49.784
X137.668Y-48.26
T2
X120.142Y-31.496
X120.142Y-35.052
X120.142Y-38.608
X127.762Y-31.496
X127.762Y-35.052
X127.762Y-38.608
T3
X143.322Y-31.668
X143.322Y-34.208
X143.322Y-36.748
X143.322Y-39.288
X143.322Y-41.828
X143.322Y-44.368
X143.322Y-46.908
X143.322Y-49.448
X143.322Y-51.988
X158.562Y-31.668
X158.562Y-34.208
X158.562Y-36.748
X158.562Y-39.288
X158.562Y-41.828
X158.562Y-44.368
X158.562Y-46.908
X158.562Y-49.448
X158.562Y-51.988
T4
X133.096Y-31.812
X133.096Y-33.971
X133.096Y-36.13
X133.096Y-38.289
T5
X119.38Y-45.212
X119.38Y-47.752
X119.38Y-50.292
X119.38Y-52.832
X119.38Y-55.372
X119.38Y-57.912
X119.38Y-60.452
X119.38Y-62.992
X125.715Y-55.569
X126.0Y-44.0
X126.0Y-46.5
X126.0Y-49.0
X128.255Y-55.569
X130.795Y-55.569
X135.875Y-55.372
X138.415Y-55.372
X140.955Y-55.372
X145.781Y-55.372
X148.321Y-55.372
X150.861Y-55.372
X155.433Y-55.372
X157.973Y-55.372
X160.513Y-55.372
X165.085Y-55.372
X166.116Y-33.02
X166.116Y-37.67
X167.625Y-55.372
X168.656Y-33.02
X168.656Y-37.67
X170.165Y-55.372
X171.196Y-33.02
X171.196Y-37.67
X173.736Y-33.02
X173.736Y-37.67
X175.0Y-44.0
X175.0Y-46.5
X175.0Y-49.0
X175.245Y-55.569
X177.785Y-55.569
X180.325Y-55.569
X180.34Y-35.052
X180.34Y-37.592
X180.34Y-40.132
X180.34Y-42.672
X180.34Y-45.212
X180.34Y-47.752
X180.34Y-50.292
T6
X132.85Y-42.1G85X133.15Y-42.1
G05
X132.85Y-50.9G85X133.15Y-50.9
G05
X168.15Y-42.1G85X167.85Y-42.1
G05
X168.15Y-50.9G85X167.85Y-50.9
G05
T0
M30
