G04 #@! TF.GenerationSoftware,KiCad,Pcbnew,8.0.7*
G04 #@! TF.CreationDate,2025-06-18T23:32:32-07:00*
G04 #@! TF.ProjectId,ESP32_MIDI_v3a,45535033-325f-44d4-9944-495f7633612e,rev?*
G04 #@! TF.SameCoordinates,Original*
G04 #@! TF.FileFunction,Legend,Top*
G04 #@! TF.FilePolarity,Positive*
%FSLAX46Y46*%
G04 Gerber Fmt 4.6, Leading zero omitted, Abs format (unit mm)*
G04 Created by KiCad (PCBNEW 8.0.7) date 2025-06-18 23:32:32*
%MOMM*%
%LPD*%
G01*
G04 APERTURE LIST*
G04 Aperture macros list*
%AMRoundRect*
0 Rectangle with rounded corners*
0 $1 Rounding radius*
0 $2 $3 $4 $5 $6 $7 $8 $9 X,Y pos of 4 corners*
0 Add a 4 corners polygon primitive as box body*
4,1,4,$2,$3,$4,$5,$6,$7,$8,$9,$2,$3,0*
0 Add four circle primitives for the rounded corners*
1,1,$1+$1,$2,$3*
1,1,$1+$1,$4,$5*
1,1,$1+$1,$6,$7*
1,1,$1+$1,$8,$9*
0 Add four rect primitives between the rounded corners*
20,1,$1+$1,$2,$3,$4,$5,0*
20,1,$1+$1,$4,$5,$6,$7,0*
20,1,$1+$1,$6,$7,$8,$9,0*
20,1,$1+$1,$8,$9,$2,$3,0*%
%AMOutline4P*
0 Free polygon, 4 corners , with rotation*
0 The origin of the aperture is its center*
0 number of corners: always 4*
0 $1 to $8 corner X, Y*
0 $9 Rotation angle, in degrees counterclockwise*
0 create outline with 4 corners*
4,1,4,$1,$2,$3,$4,$5,$6,$7,$8,$1,$2,$9*%
G04 Aperture macros list end*
%ADD10C,0.120000*%
%ADD11RoundRect,2.500000X2.500000X-5.000000X2.500000X5.000000X-2.500000X5.000000X-2.500000X-5.000000X0*%
%ADD12Outline4P,-5.000000X-4.000000X5.000000X-4.000000X0.000000X4.000000X0.000000X4.000000X0.000000*%
%ADD13Outline4P,-5.000000X-4.000000X5.000000X-4.000000X0.000000X4.000000X0.000000X4.000000X180.000000*%
%ADD14RoundRect,1.500000X1.500000X-6.000000X1.500000X6.000000X-1.500000X6.000000X-1.500000X-6.000000X0*%
%ADD15RoundRect,0.500000X-69.500000X-0.500000X69.500000X-0.500000X69.500000X0.500000X-69.500000X0.500000X0*%
G04 APERTURE END LIST*
D10*
X169500000Y-89500000D02*
X182500000Y-89500000D01*
X169500000Y-107500000D02*
X169500000Y-89500000D01*
X169500000Y-107500000D02*
X182500000Y-107500000D01*
X182500000Y-107500000D02*
X182500000Y-89500000D01*
X37455000Y-94321500D02*
X37920000Y-94321500D01*
X40080000Y-94321500D02*
X40545000Y-94321500D01*
X37455170Y-94321500D02*
G75*
G02*
X37919173Y-88973685I1544830J2560000D01*
G01*
X37920000Y-94016184D02*
G75*
G02*
X37919571Y-89507021I1080000J2254684D01*
G01*
X40080429Y-89507021D02*
G75*
G02*
X40080000Y-94016184I-1080429J-2254479D01*
G01*
X40080827Y-88973685D02*
G75*
G02*
X40544830Y-94321500I-1080827J-2787815D01*
G01*
X37455000Y-103561500D02*
X37920000Y-103561500D01*
X40080000Y-103561500D02*
X40545000Y-103561500D01*
X37455170Y-103561500D02*
G75*
G02*
X37919173Y-98213685I1544830J2560000D01*
G01*
X37920000Y-103256184D02*
G75*
G02*
X37919571Y-98747021I1080000J2254684D01*
G01*
X40080429Y-98747021D02*
G75*
G02*
X40080000Y-103256184I-1080429J-2254479D01*
G01*
X40080827Y-98213685D02*
G75*
G02*
X40544830Y-103561500I-1080827J-2787815D01*
G01*
D11*
X122793423Y-98078000D03*
D12*
X51000000Y-90424000D03*
D11*
X80793423Y-98078000D03*
D13*
X51000000Y-104140000D03*
D11*
X142793423Y-98078000D03*
D14*
X64000000Y-98000000D03*
D11*
X102793423Y-98078000D03*
X180793423Y-98078000D03*
X197000000Y-99000000D03*
D15*
X130556000Y-87000000D03*
D11*
X162793423Y-98078000D03*
M02*
