G04 #@! TF.GenerationSoftware,KiCad,Pcbnew,8.0.7*
G04 #@! TF.CreationDate,2025-06-18T23:32:32-07:00*
G04 #@! TF.ProjectId,ESP32_MIDI_v3a,45535033-325f-44d4-9944-495f7633612e,rev?*
G04 #@! TF.SameCoordinates,Original*
G04 #@! TF.FileFunction,Legend,Bot*
G04 #@! TF.FilePolarity,Positive*
%FSLAX46Y46*%
G04 Gerber Fmt 4.6, Leading zero omitted, Abs format (unit mm)*
G04 Created by KiCad (PCBNEW 8.0.7) date 2025-06-18 23:32:32*
%MOMM*%
%LPD*%
G01*
G04 APERTURE LIST*
G04 Aperture macros list*
%AMRoundRect*
0 Rectangle with rounded corners*
0 $1 Rounding radius*
0 $2 $3 $4 $5 $6 $7 $8 $9 X,Y pos of 4 corners*
0 Add a 4 corners polygon primitive as box body*
4,1,4,$2,$3,$4,$5,$6,$7,$8,$9,$2,$3,0*
0 Add four circle primitives for the rounded corners*
1,1,$1+$1,$2,$3*
1,1,$1+$1,$4,$5*
1,1,$1+$1,$6,$7*
1,1,$1+$1,$8,$9*
0 Add four rect primitives between the rounded corners*
20,1,$1+$1,$2,$3,$4,$5,0*
20,1,$1+$1,$4,$5,$6,$7,0*
20,1,$1+$1,$6,$7,$8,$9,0*
20,1,$1+$1,$8,$9,$2,$3,0*%
G04 Aperture macros list end*
%ADD10C,0.150000*%
%ADD11C,0.120000*%
%ADD12RoundRect,2.500000X-2.500000X5.000000X-2.500000X-5.000000X2.500000X-5.000000X2.500000X5.000000X0*%
G04 APERTURE END LIST*
D10*
G36*
X169557431Y-109625317D02*
G01*
X169589183Y-109701032D01*
X169667341Y-109722526D01*
X169753314Y-109689309D01*
X169784607Y-109596288D01*
X169785554Y-109582819D01*
X169803628Y-109271165D01*
X169803628Y-109246741D01*
X169778227Y-109155394D01*
X169693719Y-109128527D01*
X169605563Y-109179227D01*
X169575505Y-109246252D01*
X169543754Y-109335157D01*
X169486638Y-109415363D01*
X169405051Y-109476464D01*
X169392323Y-109483168D01*
X169293615Y-109518564D01*
X169196803Y-109533127D01*
X169144173Y-109534947D01*
X169039883Y-109526647D01*
X168940261Y-109498342D01*
X168856454Y-109449951D01*
X168784660Y-109373071D01*
X168749467Y-109280551D01*
X168745568Y-109232575D01*
X168762665Y-109133046D01*
X168813956Y-109055254D01*
X168897487Y-109000177D01*
X168996222Y-108971420D01*
X169012281Y-108968792D01*
X169215491Y-108940949D01*
X169316711Y-108923254D01*
X169421170Y-108896317D01*
X169522576Y-108857230D01*
X169613741Y-108802675D01*
X169630704Y-108789030D01*
X169699483Y-108710338D01*
X169742789Y-108614091D01*
X169759984Y-108512459D01*
X169761130Y-108475422D01*
X169750261Y-108372962D01*
X169717655Y-108279050D01*
X169663311Y-108193688D01*
X169587229Y-108116873D01*
X169507057Y-108060343D01*
X169418703Y-108017697D01*
X169322169Y-107988936D01*
X169217453Y-107974060D01*
X169153942Y-107971793D01*
X169056245Y-107978281D01*
X168994696Y-107988401D01*
X168899221Y-108011425D01*
X168804675Y-108040669D01*
X168782693Y-108011360D01*
X168716748Y-108003056D01*
X168633217Y-108020642D01*
X168603907Y-108105150D01*
X168584856Y-108388960D01*
X168584856Y-108402637D01*
X168612700Y-108476887D01*
X168689392Y-108503265D01*
X168773771Y-108448776D01*
X168801744Y-108387983D01*
X168836758Y-108296221D01*
X168840334Y-108289797D01*
X168904116Y-108213702D01*
X168971249Y-108170118D01*
X169068175Y-108137339D01*
X169164689Y-108128108D01*
X169262434Y-108136457D01*
X169355958Y-108164924D01*
X169434822Y-108213593D01*
X169501872Y-108291676D01*
X169534740Y-108387012D01*
X169538381Y-108436831D01*
X169518963Y-108533796D01*
X169460711Y-108607801D01*
X169369972Y-108657726D01*
X169271569Y-108685146D01*
X169223796Y-108693286D01*
X169003977Y-108721618D01*
X168905128Y-108740075D01*
X168806012Y-108771299D01*
X168712168Y-108819346D01*
X168644452Y-108873538D01*
X168580567Y-108955884D01*
X168540343Y-109054544D01*
X168524372Y-109157288D01*
X168523307Y-109194473D01*
X168531535Y-109294467D01*
X168561089Y-109397697D01*
X168612135Y-109489144D01*
X168684675Y-109568805D01*
X168695254Y-109577934D01*
X168775784Y-109634274D01*
X168867346Y-109676776D01*
X168969942Y-109705440D01*
X169083570Y-109720266D01*
X169153454Y-109722526D01*
X169252250Y-109716542D01*
X169350314Y-109698590D01*
X169444237Y-109670812D01*
X169536935Y-109634427D01*
X169557431Y-109625317D01*
G37*
G36*
X167515405Y-108347683D02*
G01*
X167628096Y-108358674D01*
X167732476Y-108382854D01*
X167828543Y-108420223D01*
X167916299Y-108470781D01*
X167995743Y-108534528D01*
X168019995Y-108558401D01*
X168083365Y-108635126D01*
X168132652Y-108719510D01*
X168167858Y-108811553D01*
X168188981Y-108911256D01*
X168196022Y-109018618D01*
X168195239Y-109055201D01*
X168183504Y-109159912D01*
X168157687Y-109257067D01*
X168117788Y-109346666D01*
X168063806Y-109428709D01*
X167995743Y-109503196D01*
X167970185Y-109525969D01*
X167887971Y-109585475D01*
X167797444Y-109631757D01*
X167698606Y-109664816D01*
X167591456Y-109684651D01*
X167475994Y-109691263D01*
X167436467Y-109690528D01*
X167323495Y-109679508D01*
X167218938Y-109655265D01*
X167122796Y-109617799D01*
X167035069Y-109567109D01*
X166955757Y-109503196D01*
X166931445Y-109479206D01*
X166867921Y-109402201D01*
X166818513Y-109317640D01*
X166783222Y-109225522D01*
X166762047Y-109125848D01*
X166755118Y-109020572D01*
X166993859Y-109020572D01*
X166997162Y-109084693D01*
X167019758Y-109190914D01*
X167063760Y-109285311D01*
X167129169Y-109367885D01*
X167182590Y-109414036D01*
X167272767Y-109465358D01*
X167375000Y-109495197D01*
X167475994Y-109503684D01*
X167540220Y-109500381D01*
X167646390Y-109477785D01*
X167740426Y-109433782D01*
X167822330Y-109368374D01*
X167867983Y-109314770D01*
X167918751Y-109224318D01*
X167948268Y-109121810D01*
X167956664Y-109020572D01*
X167953360Y-108956427D01*
X167930765Y-108850043D01*
X167886762Y-108755327D01*
X167821353Y-108672281D01*
X167767984Y-108625467D01*
X167678078Y-108573406D01*
X167576347Y-108543138D01*
X167475994Y-108534528D01*
X167412166Y-108537892D01*
X167306413Y-108560895D01*
X167212406Y-108605692D01*
X167130146Y-108672281D01*
X167083830Y-108726349D01*
X167032322Y-108817174D01*
X167002377Y-108919669D01*
X166993859Y-109020572D01*
X166755118Y-109020572D01*
X166754989Y-109018618D01*
X166755775Y-108982155D01*
X166767568Y-108877781D01*
X166793511Y-108780929D01*
X166833605Y-108691600D01*
X166887850Y-108609792D01*
X166956245Y-108535505D01*
X166981860Y-108512673D01*
X167064200Y-108453012D01*
X167154784Y-108406610D01*
X167253611Y-108373466D01*
X167360681Y-108353579D01*
X167475994Y-108346950D01*
X167515405Y-108347683D01*
G37*
G36*
X165286113Y-108900893D02*
G01*
X165288895Y-108802013D01*
X165301259Y-108701068D01*
X165321284Y-108639553D01*
X165397384Y-108576574D01*
X165441451Y-108571165D01*
X165537550Y-108595980D01*
X165602651Y-108659092D01*
X165643390Y-108748651D01*
X165660151Y-108845509D01*
X165662247Y-108900893D01*
X165662247Y-109472421D01*
X165637334Y-109472421D01*
X165538358Y-109485320D01*
X165525959Y-109491960D01*
X165497627Y-109564256D01*
X165521074Y-109636064D01*
X165592393Y-109660000D01*
X165766782Y-109660000D01*
X165847383Y-109633621D01*
X165868203Y-109534777D01*
X165868387Y-109518827D01*
X165868387Y-109480237D01*
X165868387Y-108900893D01*
X165868387Y-108793914D01*
X165881622Y-108696672D01*
X165915282Y-108631249D01*
X165999908Y-108575918D01*
X166042777Y-108571165D01*
X166140163Y-108597247D01*
X166156594Y-108607801D01*
X166225562Y-108682082D01*
X166245010Y-108715757D01*
X166245010Y-109472421D01*
X166194207Y-109472421D01*
X166095530Y-109485643D01*
X166082833Y-109492449D01*
X166054012Y-109564256D01*
X166077459Y-109639483D01*
X166166852Y-109660000D01*
X166531751Y-109660000D01*
X166610886Y-109637041D01*
X166636287Y-109564256D01*
X166604047Y-109491960D01*
X166506172Y-109472898D01*
X166478506Y-109472421D01*
X166451151Y-109472421D01*
X166451151Y-108565792D01*
X166476064Y-108565792D01*
X166576071Y-108556745D01*
X166607466Y-108544787D01*
X166642149Y-108470537D01*
X166614794Y-108401660D01*
X166532240Y-108378213D01*
X166322191Y-108378213D01*
X166262595Y-108393356D01*
X166245010Y-108457348D01*
X166167703Y-108395809D01*
X166124354Y-108373817D01*
X166027403Y-108349574D01*
X165978297Y-108346950D01*
X165880701Y-108359469D01*
X165819539Y-108386517D01*
X165748804Y-108460086D01*
X165726727Y-108506196D01*
X165660520Y-108431653D01*
X165593859Y-108386029D01*
X165496197Y-108353399D01*
X165420446Y-108346950D01*
X165319228Y-108358351D01*
X165229377Y-108397229D01*
X165162037Y-108463698D01*
X165115314Y-108561106D01*
X165091512Y-108666305D01*
X165081975Y-108763995D01*
X165079972Y-108842274D01*
X165079972Y-109472421D01*
X165057990Y-109472421D01*
X164959005Y-109484645D01*
X164943684Y-109492449D01*
X164914863Y-109564256D01*
X164939776Y-109636064D01*
X165012561Y-109660000D01*
X165178646Y-109660000D01*
X165260223Y-109628248D01*
X165286087Y-109531400D01*
X165286113Y-109527131D01*
X165286113Y-108900893D01*
G37*
G36*
X164139593Y-108347688D02*
G01*
X164252507Y-108358765D01*
X164356938Y-108383134D01*
X164452886Y-108420795D01*
X164540349Y-108471749D01*
X164619330Y-108535994D01*
X164643464Y-108560017D01*
X164706524Y-108637538D01*
X164755571Y-108723233D01*
X164790605Y-108817102D01*
X164811625Y-108919146D01*
X164818632Y-109029364D01*
X164814040Y-109120054D01*
X164796409Y-109221262D01*
X164759126Y-109328833D01*
X164703845Y-109425090D01*
X164630565Y-109510034D01*
X164542111Y-109580650D01*
X164441736Y-109633921D01*
X164346213Y-109665777D01*
X164241930Y-109684891D01*
X164128890Y-109691263D01*
X164038635Y-109687923D01*
X163938913Y-109676536D01*
X163838729Y-109657069D01*
X163748045Y-109632482D01*
X163650385Y-109598715D01*
X163554919Y-109557906D01*
X163543317Y-109552210D01*
X163462595Y-109495380D01*
X163433775Y-109422595D01*
X163461618Y-109358115D01*
X163530006Y-109331737D01*
X163569639Y-109340133D01*
X163664807Y-109376151D01*
X163759595Y-109417711D01*
X163806528Y-109437861D01*
X163908833Y-109473375D01*
X164006580Y-109495288D01*
X164109839Y-109503684D01*
X164161680Y-109502028D01*
X164268051Y-109486190D01*
X164360203Y-109453582D01*
X164445917Y-109397683D01*
X164467928Y-109377030D01*
X164527157Y-109296964D01*
X164564633Y-109199630D01*
X164579762Y-109097264D01*
X163656524Y-109097264D01*
X163636008Y-109097264D01*
X163557383Y-109094640D01*
X163460642Y-109070397D01*
X163451354Y-109060737D01*
X163428401Y-108964884D01*
X163431015Y-108909685D01*
X163678506Y-108909685D01*
X164572923Y-108909685D01*
X164567584Y-108887944D01*
X164530929Y-108788282D01*
X164477673Y-108703693D01*
X164407815Y-108634180D01*
X164383861Y-108616371D01*
X164296697Y-108569659D01*
X164198275Y-108542411D01*
X164100069Y-108534528D01*
X163999634Y-108544594D01*
X163901166Y-108578917D01*
X163815282Y-108637599D01*
X163746667Y-108716252D01*
X163700679Y-108810490D01*
X163678506Y-108909685D01*
X163431015Y-108909685D01*
X163431386Y-108901847D01*
X163450971Y-108797298D01*
X163488834Y-108700089D01*
X163544977Y-108610219D01*
X163619399Y-108527690D01*
X163694493Y-108466266D01*
X163790870Y-108410668D01*
X163896691Y-108372366D01*
X163994911Y-108353304D01*
X164100069Y-108346950D01*
X164139593Y-108347688D01*
G37*
G36*
X162569644Y-109472421D02*
G01*
X162113398Y-109472421D01*
X162034263Y-109494403D01*
X162008862Y-109564256D01*
X162033286Y-109639483D01*
X162121702Y-109660000D01*
X163020027Y-109660000D01*
X163101116Y-109636064D01*
X163128471Y-109564256D01*
X163100628Y-109495380D01*
X163013189Y-109472421D01*
X162774319Y-109472421D01*
X162774319Y-108565792D01*
X162867620Y-108565792D01*
X162970638Y-108561284D01*
X163034193Y-108545275D01*
X163066922Y-108470537D01*
X163040055Y-108401660D01*
X162958478Y-108378213D01*
X162645359Y-108378213D01*
X162589183Y-108392868D01*
X162569644Y-108435366D01*
X162569644Y-108672281D01*
X162503729Y-108595253D01*
X162427895Y-108521223D01*
X162350285Y-108460563D01*
X162297557Y-108427550D01*
X162206872Y-108385046D01*
X162111894Y-108358284D01*
X162012623Y-108347265D01*
X161992254Y-108346950D01*
X161894373Y-108356019D01*
X161799653Y-108391418D01*
X161794905Y-108394333D01*
X161728137Y-108468515D01*
X161719190Y-108516943D01*
X161756803Y-108605359D01*
X161839846Y-108644438D01*
X161933101Y-108609936D01*
X161946824Y-108602428D01*
X162037976Y-108565382D01*
X162080181Y-108560418D01*
X162183400Y-108577699D01*
X162276850Y-108620632D01*
X162306350Y-108639064D01*
X162391017Y-108703649D01*
X162464841Y-108772635D01*
X162533900Y-108846152D01*
X162569644Y-108887215D01*
X162569644Y-109472421D01*
G37*
G36*
X161383600Y-108565792D02*
G01*
X161481517Y-108555863D01*
X161508164Y-108544787D01*
X161541870Y-108470537D01*
X161514515Y-108401660D01*
X161431960Y-108378213D01*
X161047034Y-108378213D01*
X160950275Y-108393921D01*
X160942986Y-108398729D01*
X160916608Y-108470537D01*
X160951290Y-108544787D01*
X161050029Y-108565279D01*
X161077320Y-108565792D01*
X161128122Y-108565792D01*
X160771039Y-109484145D01*
X160373900Y-108565792D01*
X160456454Y-108565792D01*
X160557642Y-108558559D01*
X160599092Y-108545275D01*
X160636217Y-108470537D01*
X160610327Y-108398729D01*
X160510626Y-108378233D01*
X160505792Y-108378213D01*
X160081297Y-108378213D01*
X159998743Y-108401660D01*
X159971388Y-108470537D01*
X160005094Y-108544787D01*
X160102312Y-108565279D01*
X160129169Y-108565792D01*
X160154082Y-108565792D01*
X160607397Y-109597962D01*
X160658871Y-109683966D01*
X160675785Y-109699078D01*
X160773970Y-109722526D01*
X160865317Y-109699567D01*
X160923233Y-109616860D01*
X160931751Y-109597962D01*
X161383600Y-108565792D01*
G37*
G36*
X159200558Y-107987913D02*
G01*
X159196780Y-107887918D01*
X159173691Y-107793007D01*
X159079925Y-107753577D01*
X159058897Y-107752951D01*
X158961271Y-107773524D01*
X158946545Y-107786657D01*
X158920904Y-107882803D01*
X158918702Y-107946392D01*
X158925052Y-108046043D01*
X158944103Y-108098799D01*
X159037549Y-108127650D01*
X159058897Y-108128108D01*
X159156441Y-108112996D01*
X159173691Y-108101242D01*
X159200322Y-108003518D01*
X159200558Y-107987913D01*
G37*
G36*
X158946545Y-109472421D02*
G01*
X158505443Y-109472421D01*
X158426308Y-109494403D01*
X158400907Y-109564256D01*
X158424842Y-109639483D01*
X158513747Y-109660000D01*
X159579623Y-109660000D01*
X159662177Y-109636064D01*
X159689532Y-109564256D01*
X159660711Y-109495380D01*
X159574249Y-109472421D01*
X159155129Y-109472421D01*
X159155129Y-108565792D01*
X159423307Y-108565792D01*
X159509281Y-108541367D01*
X159538590Y-108470537D01*
X159511235Y-108401660D01*
X159428681Y-108378213D01*
X159026168Y-108378213D01*
X158968039Y-108393845D01*
X158946545Y-108435366D01*
X158946545Y-109472421D01*
G37*
G36*
X157485973Y-108065582D02*
G01*
X157719469Y-108065582D01*
X157822244Y-108061182D01*
X157886043Y-108045554D01*
X157919748Y-107971793D01*
X157891905Y-107901451D01*
X157809839Y-107878004D01*
X157356524Y-107878004D01*
X157298883Y-107893147D01*
X157278367Y-107934180D01*
X157278367Y-109472421D01*
X156847034Y-109472421D01*
X156770830Y-109494403D01*
X156746406Y-109564256D01*
X156769853Y-109639483D01*
X156857780Y-109660000D01*
X157871877Y-109660000D01*
X157953942Y-109636064D01*
X157981786Y-109564256D01*
X157952965Y-109495380D01*
X157866503Y-109472421D01*
X157485973Y-109472421D01*
X157485973Y-108065582D01*
G37*
G36*
X155805582Y-108065582D02*
G01*
X156039078Y-108065582D01*
X156141854Y-108061182D01*
X156205652Y-108045554D01*
X156239357Y-107971793D01*
X156211514Y-107901451D01*
X156129448Y-107878004D01*
X155676133Y-107878004D01*
X155618492Y-107893147D01*
X155597976Y-107934180D01*
X155597976Y-109472421D01*
X155166643Y-109472421D01*
X155090439Y-109494403D01*
X155066015Y-109564256D01*
X155089462Y-109639483D01*
X155177390Y-109660000D01*
X156191486Y-109660000D01*
X156273551Y-109636064D01*
X156301395Y-109564256D01*
X156272575Y-109495380D01*
X156186113Y-109472421D01*
X155805582Y-109472421D01*
X155805582Y-108065582D01*
G37*
G36*
X154057248Y-108347688D02*
G01*
X154170163Y-108358765D01*
X154274594Y-108383134D01*
X154370541Y-108420795D01*
X154458005Y-108471749D01*
X154536985Y-108535994D01*
X154561119Y-108560017D01*
X154624180Y-108637538D01*
X154673227Y-108723233D01*
X154708260Y-108817102D01*
X154729280Y-108919146D01*
X154736287Y-109029364D01*
X154731696Y-109120054D01*
X154714064Y-109221262D01*
X154676781Y-109328833D01*
X154621500Y-109425090D01*
X154548220Y-109510034D01*
X154459766Y-109580650D01*
X154359392Y-109633921D01*
X154263868Y-109665777D01*
X154159586Y-109684891D01*
X154046545Y-109691263D01*
X153956290Y-109687923D01*
X153856568Y-109676536D01*
X153756385Y-109657069D01*
X153665700Y-109632482D01*
X153568041Y-109598715D01*
X153472575Y-109557906D01*
X153460973Y-109552210D01*
X153380251Y-109495380D01*
X153351430Y-109422595D01*
X153379274Y-109358115D01*
X153447662Y-109331737D01*
X153487294Y-109340133D01*
X153582462Y-109376151D01*
X153677250Y-109417711D01*
X153724183Y-109437861D01*
X153826489Y-109473375D01*
X153924235Y-109495288D01*
X154027494Y-109503684D01*
X154079335Y-109502028D01*
X154185706Y-109486190D01*
X154277858Y-109453582D01*
X154363572Y-109397683D01*
X154385583Y-109377030D01*
X154444812Y-109296964D01*
X154482288Y-109199630D01*
X154497418Y-109097264D01*
X153574180Y-109097264D01*
X153553663Y-109097264D01*
X153475038Y-109094640D01*
X153378297Y-109070397D01*
X153369009Y-109060737D01*
X153346057Y-108964884D01*
X153348670Y-108909685D01*
X153596161Y-108909685D01*
X154490579Y-108909685D01*
X154485240Y-108887944D01*
X154448584Y-108788282D01*
X154395328Y-108703693D01*
X154325471Y-108634180D01*
X154301517Y-108616371D01*
X154214352Y-108569659D01*
X154115930Y-108542411D01*
X154017725Y-108534528D01*
X153917289Y-108544594D01*
X153818822Y-108578917D01*
X153732937Y-108637599D01*
X153664322Y-108716252D01*
X153618334Y-108810490D01*
X153596161Y-108909685D01*
X153348670Y-108909685D01*
X153349041Y-108901847D01*
X153368626Y-108797298D01*
X153406490Y-108700089D01*
X153462633Y-108610219D01*
X153537055Y-108527690D01*
X153612148Y-108466266D01*
X153708526Y-108410668D01*
X153814347Y-108372366D01*
X153912567Y-108353304D01*
X154017725Y-108346950D01*
X154057248Y-108347688D01*
G37*
G36*
X152514654Y-109265303D02*
G01*
X152485833Y-109204242D01*
X152425261Y-109191053D01*
X152124354Y-109191053D01*
X152091625Y-109199357D01*
X152078925Y-109220362D01*
X152081856Y-109238436D01*
X152090160Y-109258953D01*
X152467759Y-110051765D01*
X152494138Y-110084982D01*
X152529797Y-110097683D01*
X152538590Y-110097683D01*
X152554710Y-110097683D01*
X152650453Y-110061535D01*
X152683670Y-110039064D01*
X152694417Y-110009755D01*
X152694417Y-109987773D01*
X152691974Y-109974584D01*
X152514654Y-109265303D01*
G37*
G36*
X148988764Y-108985401D02*
G01*
X148693230Y-108127620D01*
X148640474Y-108056301D01*
X148543754Y-108034319D01*
X148318562Y-108034319D01*
X148252128Y-108058743D01*
X148229169Y-108128597D01*
X148257501Y-108201870D01*
X148356375Y-108221878D01*
X148361060Y-108221898D01*
X148383042Y-108221898D01*
X148344452Y-109472421D01*
X148313189Y-109472421D01*
X148215221Y-109482515D01*
X148193510Y-109491960D01*
X148163224Y-109564256D01*
X148188136Y-109635575D01*
X148259455Y-109660000D01*
X148645359Y-109660000D01*
X148744033Y-109645046D01*
X148754291Y-109638995D01*
X148783112Y-109564256D01*
X148748918Y-109492449D01*
X148650959Y-109473125D01*
X148616538Y-109472421D01*
X148557431Y-109472421D01*
X148586252Y-108287843D01*
X148858339Y-109077725D01*
X148909141Y-109157348D01*
X149000000Y-109179330D01*
X149087927Y-109156859D01*
X149137264Y-109077725D01*
X149413747Y-108287843D01*
X149438171Y-109472421D01*
X149346336Y-109472421D01*
X149249152Y-109485540D01*
X149232519Y-109493914D01*
X149199302Y-109564256D01*
X149228122Y-109638995D01*
X149328100Y-109659917D01*
X149338032Y-109660000D01*
X149722470Y-109660000D01*
X149794766Y-109636064D01*
X149818702Y-109564256D01*
X149788415Y-109491960D01*
X149690535Y-109472726D01*
X149669225Y-109472421D01*
X149638939Y-109472421D01*
X149598883Y-108221898D01*
X149620865Y-108221898D01*
X149717463Y-108206564D01*
X149725401Y-108201870D01*
X149754221Y-108128597D01*
X149730774Y-108058743D01*
X149663363Y-108034319D01*
X149438171Y-108034319D01*
X149341451Y-108056301D01*
X149289672Y-108127620D01*
X148988764Y-108985401D01*
G37*
G36*
X147744561Y-108035601D02*
G01*
X147846685Y-108054836D01*
X147875994Y-108128108D01*
X147842288Y-108200404D01*
X147822322Y-108209808D01*
X147725052Y-108221898D01*
X147524284Y-108221898D01*
X147991765Y-109472421D01*
X148017655Y-109472421D01*
X148032661Y-109472597D01*
X148129030Y-109492449D01*
X148157850Y-109564256D01*
X148129030Y-109639483D01*
X148110925Y-109648459D01*
X148012281Y-109660000D01*
X147650802Y-109660000D01*
X147621238Y-109659499D01*
X147521353Y-109639483D01*
X147491556Y-109564256D01*
X147524773Y-109492937D01*
X147547742Y-109483020D01*
X147647871Y-109472421D01*
X147781228Y-109472421D01*
X147663014Y-109128527D01*
X146965457Y-109128527D01*
X146832100Y-109472421D01*
X146959595Y-109472421D01*
X146981050Y-109472742D01*
X147081228Y-109492937D01*
X147113468Y-109564256D01*
X147084159Y-109639483D01*
X147047613Y-109652767D01*
X146949825Y-109660000D01*
X146576133Y-109660000D01*
X146478925Y-109639483D01*
X146452547Y-109564256D01*
X146480390Y-109492449D01*
X146483991Y-109490024D01*
X146581507Y-109472421D01*
X146604954Y-109472421D01*
X146817388Y-108940949D01*
X147032379Y-108940949D01*
X147594138Y-108940949D01*
X147327913Y-108212616D01*
X147032379Y-108940949D01*
X146817388Y-108940949D01*
X147142288Y-108128108D01*
X147191137Y-108054347D01*
X147196600Y-108050768D01*
X147293230Y-108034319D01*
X147684996Y-108034319D01*
X147744561Y-108035601D01*
G37*
G36*
X133659595Y-108221898D02*
G01*
X134030355Y-108221898D01*
X134130762Y-108214074D01*
X134163712Y-108201870D01*
X134193998Y-108128108D01*
X134170062Y-108057278D01*
X134092393Y-108034319D01*
X134030355Y-108034319D01*
X133264898Y-108034319D01*
X133200418Y-108034319D01*
X133127145Y-108057766D01*
X133103210Y-108128108D01*
X133133496Y-108201870D01*
X133229321Y-108221194D01*
X133264898Y-108221898D01*
X133442219Y-108221898D01*
X133442219Y-109098729D01*
X133446907Y-109210367D01*
X133460972Y-109309709D01*
X133489232Y-109410068D01*
X133537157Y-109504269D01*
X133575575Y-109552044D01*
X133652451Y-109612952D01*
X133749720Y-109656458D01*
X133851561Y-109680250D01*
X133951281Y-109690039D01*
X134005443Y-109691263D01*
X134108207Y-109686909D01*
X134206941Y-109673849D01*
X134251151Y-109664884D01*
X134345848Y-109638615D01*
X134440222Y-109602671D01*
X134483670Y-109582819D01*
X134546685Y-109535924D01*
X134561828Y-109444577D01*
X134561828Y-109121688D01*
X134552592Y-109023541D01*
X134542288Y-109001521D01*
X134472435Y-108977096D01*
X134416259Y-108990286D01*
X134382065Y-109028387D01*
X134373761Y-109061116D01*
X134370830Y-109129993D01*
X134370830Y-109143670D01*
X134366922Y-109226713D01*
X134354710Y-109301451D01*
X134313437Y-109393028D01*
X134246403Y-109464426D01*
X134235519Y-109472421D01*
X134143556Y-109517301D01*
X134043005Y-109534398D01*
X134019609Y-109534947D01*
X133921266Y-109526446D01*
X133823528Y-109492968D01*
X133745080Y-109427480D01*
X133696410Y-109337214D01*
X133671616Y-109239490D01*
X133660930Y-109134587D01*
X133659595Y-109075771D01*
X133659595Y-108221898D01*
G37*
G36*
X132230787Y-108348286D02*
G01*
X132337117Y-108355979D01*
X132444111Y-108372809D01*
X132547313Y-108401660D01*
X132556629Y-108405073D01*
X132645358Y-108449747D01*
X132698743Y-108534528D01*
X132672854Y-108618060D01*
X132606908Y-108650300D01*
X132524927Y-108629979D01*
X132432519Y-108592658D01*
X132391911Y-108575912D01*
X132292024Y-108545655D01*
X132193649Y-108534528D01*
X132136720Y-108537534D01*
X132040686Y-108561576D01*
X131958688Y-108620013D01*
X131918760Y-108682124D01*
X131890366Y-108779577D01*
X131882972Y-108879888D01*
X131882972Y-108889658D01*
X131951387Y-108873732D01*
X132049057Y-108857418D01*
X132109668Y-108851166D01*
X132209769Y-108847159D01*
X132283248Y-108848983D01*
X132385538Y-108858560D01*
X132492852Y-108880109D01*
X132587216Y-108912830D01*
X132679204Y-108963907D01*
X132735813Y-109010836D01*
X132798766Y-109093723D01*
X132835367Y-109191603D01*
X132845778Y-109291193D01*
X132845287Y-109313159D01*
X132828123Y-109415207D01*
X132786440Y-109504279D01*
X132720237Y-109580376D01*
X132687501Y-109606365D01*
X132594908Y-109656177D01*
X132498441Y-109682491D01*
X132389532Y-109691263D01*
X132319923Y-109687813D01*
X132217341Y-109669701D01*
X132116957Y-109636064D01*
X132036128Y-109596441D01*
X131951624Y-109541726D01*
X131871737Y-109475352D01*
X131860990Y-109564256D01*
X131828262Y-109635575D01*
X131764759Y-109660000D01*
X131548848Y-109660000D01*
X131466782Y-109634110D01*
X131438939Y-109555952D01*
X131472156Y-109477794D01*
X131502334Y-109465279D01*
X131602581Y-109455812D01*
X131669993Y-109455812D01*
X131669993Y-109050858D01*
X131882972Y-109050858D01*
X131882972Y-109195938D01*
X131890102Y-109238116D01*
X131947136Y-109320369D01*
X132031960Y-109383028D01*
X132050683Y-109393853D01*
X132147274Y-109437502D01*
X132248825Y-109463691D01*
X132355338Y-109472421D01*
X132456932Y-109459434D01*
X132549755Y-109413314D01*
X132599094Y-109359653D01*
X132625959Y-109262372D01*
X132624051Y-109233460D01*
X132582906Y-109138635D01*
X132503838Y-109073817D01*
X132463492Y-109053552D01*
X132369707Y-109023327D01*
X132270372Y-109007871D01*
X132170202Y-109003475D01*
X132130635Y-109004402D01*
X132029518Y-109015198D01*
X131980245Y-109024481D01*
X131882972Y-109050858D01*
X131669993Y-109050858D01*
X131669993Y-108833482D01*
X131674337Y-108747478D01*
X131693648Y-108645628D01*
X131733838Y-108548565D01*
X131793579Y-108470048D01*
X131862761Y-108416193D01*
X131958253Y-108373998D01*
X132058836Y-108352840D01*
X132158967Y-108346950D01*
X132230787Y-108348286D01*
G37*
G36*
X131018353Y-109472421D02*
G01*
X131018353Y-108576538D01*
X131044242Y-108576538D01*
X131142096Y-108567071D01*
X131173203Y-108554556D01*
X131207885Y-108475910D01*
X131179064Y-108401172D01*
X131085764Y-108378213D01*
X131021284Y-108378213D01*
X130889392Y-108378213D01*
X130831751Y-108391891D01*
X130811235Y-108428527D01*
X130811235Y-108512547D01*
X130730194Y-108451140D01*
X130643640Y-108401238D01*
X130612909Y-108387494D01*
X130518900Y-108358393D01*
X130415310Y-108346990D01*
X130408722Y-108346950D01*
X130310476Y-108355163D01*
X130213232Y-108384035D01*
X130121679Y-108440497D01*
X130082414Y-108478353D01*
X130024798Y-108559952D01*
X129986037Y-108657470D01*
X129967414Y-108757518D01*
X129963224Y-108840809D01*
X129963224Y-109472421D01*
X129898743Y-109472421D01*
X129801999Y-109493050D01*
X129800069Y-109494403D01*
X129769783Y-109564256D01*
X129802023Y-109638018D01*
X129901781Y-109659806D01*
X129916817Y-109660000D01*
X130220655Y-109660000D01*
X130319581Y-109647775D01*
X130333496Y-109639972D01*
X130357920Y-109564256D01*
X130329099Y-109492449D01*
X130230410Y-109472499D01*
X130220655Y-109472421D01*
X130172295Y-109472421D01*
X130172295Y-108877445D01*
X130180896Y-108771941D01*
X130209896Y-108678175D01*
X130245080Y-108622456D01*
X130327805Y-108559344D01*
X130422942Y-108535902D01*
X130456594Y-108534528D01*
X130557138Y-108548405D01*
X130648477Y-108590033D01*
X130704256Y-108633203D01*
X130769446Y-108713803D01*
X130804549Y-108807592D01*
X130811235Y-108877445D01*
X130811235Y-109472421D01*
X130762875Y-109472421D01*
X130664197Y-109485643D01*
X130651500Y-109492449D01*
X130622679Y-109564256D01*
X130647592Y-109639972D01*
X130745312Y-109659687D01*
X130768248Y-109660000D01*
X131018353Y-109660000D01*
X131092602Y-109660000D01*
X131177599Y-109637041D01*
X131205443Y-109564256D01*
X131173203Y-109491960D01*
X131074980Y-109472898D01*
X131047173Y-109472421D01*
X131018353Y-109472421D01*
G37*
G36*
X129305233Y-109660000D02*
G01*
X129401279Y-109638786D01*
X129413189Y-109630202D01*
X129447871Y-109538367D01*
X129404337Y-109439695D01*
X129334270Y-109353088D01*
X129260081Y-109275190D01*
X129184089Y-109201800D01*
X129144521Y-109163210D01*
X129072821Y-109094448D01*
X129029239Y-109052812D01*
X128944211Y-108970516D01*
X128867546Y-108892522D01*
X128799245Y-108818830D01*
X128721187Y-108727265D01*
X128657996Y-108643349D01*
X128599917Y-108549208D01*
X128560888Y-108452013D01*
X128553454Y-108396775D01*
X128565269Y-108293965D01*
X128604735Y-108200260D01*
X128637473Y-108157418D01*
X128720340Y-108094639D01*
X128821907Y-108067017D01*
X128854361Y-108065582D01*
X128954859Y-108078154D01*
X129020446Y-108101242D01*
X129106733Y-108155548D01*
X129146964Y-108197473D01*
X129173342Y-108234110D01*
X129237975Y-108311197D01*
X129287159Y-108326434D01*
X129357501Y-108296147D01*
X129377837Y-108196321D01*
X129378018Y-108180865D01*
X129368736Y-108109057D01*
X129332588Y-108060209D01*
X129254295Y-107997983D01*
X129162296Y-107947044D01*
X129115212Y-107927341D01*
X129016866Y-107897276D01*
X128916734Y-107881087D01*
X128848988Y-107878004D01*
X128739628Y-107887224D01*
X128639672Y-107914884D01*
X128549118Y-107960985D01*
X128467969Y-108025526D01*
X128400863Y-108103257D01*
X128352930Y-108189413D01*
X128324171Y-108283996D01*
X128314584Y-108387006D01*
X128331002Y-108494373D01*
X128369766Y-108593397D01*
X128417195Y-108678866D01*
X128479217Y-108769893D01*
X128555833Y-108866475D01*
X128622872Y-108942559D01*
X128698120Y-109021768D01*
X128781577Y-109104103D01*
X128857160Y-109175016D01*
X128929221Y-109244237D01*
X128964270Y-109278981D01*
X129133286Y-109441158D01*
X128505582Y-109441158D01*
X128473342Y-109348346D01*
X128401046Y-109316106D01*
X128329727Y-109346880D01*
X128303838Y-109430900D01*
X128305303Y-109445554D01*
X128306280Y-109460209D01*
X128317027Y-109567676D01*
X128341939Y-109635575D01*
X128395673Y-109660000D01*
X129305233Y-109660000D01*
G37*
G36*
X127083600Y-107887773D02*
G01*
X127114863Y-107932714D01*
X127694696Y-108934598D01*
X127705931Y-108952672D01*
X127719378Y-108975564D01*
X127745498Y-109070397D01*
X127745498Y-109166629D01*
X127726448Y-109231109D01*
X127672714Y-109253579D01*
X127031332Y-109253579D01*
X127031332Y-109472421D01*
X127190579Y-109472421D01*
X127268248Y-109494403D01*
X127292184Y-109564256D01*
X127268736Y-109639483D01*
X127179344Y-109660000D01*
X126735799Y-109660000D01*
X126653244Y-109636064D01*
X126625889Y-109564256D01*
X126659106Y-109492937D01*
X126681882Y-109483020D01*
X126779762Y-109472421D01*
X126828122Y-109472421D01*
X126828122Y-109253579D01*
X126712351Y-109253579D01*
X126654221Y-109235017D01*
X126625889Y-109164187D01*
X126615143Y-109105080D01*
X126609769Y-109083098D01*
X126608304Y-109059162D01*
X126627843Y-109007383D01*
X126674249Y-108986866D01*
X126711374Y-109010802D01*
X126758269Y-109034738D01*
X126828122Y-109034738D01*
X127031332Y-109034738D01*
X127552058Y-109034738D01*
X127031332Y-108103684D01*
X127031332Y-109034738D01*
X126828122Y-109034738D01*
X126828122Y-107971793D01*
X126839846Y-107922456D01*
X126870621Y-107900474D01*
X127010816Y-107878004D01*
X127021563Y-107878004D01*
X127050383Y-107878004D01*
X127083600Y-107887773D01*
G37*
X43532449Y-102369635D02*
X43627687Y-102322016D01*
X43627687Y-102322016D02*
X43675306Y-102226777D01*
X43675306Y-102226777D02*
X43675306Y-101369635D01*
X43008639Y-102369635D02*
X43103877Y-102322016D01*
X43103877Y-102322016D02*
X43151496Y-102274396D01*
X43151496Y-102274396D02*
X43199115Y-102179158D01*
X43199115Y-102179158D02*
X43199115Y-101893444D01*
X43199115Y-101893444D02*
X43151496Y-101798206D01*
X43151496Y-101798206D02*
X43103877Y-101750587D01*
X43103877Y-101750587D02*
X43008639Y-101702968D01*
X43008639Y-101702968D02*
X42865782Y-101702968D01*
X42865782Y-101702968D02*
X42770544Y-101750587D01*
X42770544Y-101750587D02*
X42722925Y-101798206D01*
X42722925Y-101798206D02*
X42675306Y-101893444D01*
X42675306Y-101893444D02*
X42675306Y-102179158D01*
X42675306Y-102179158D02*
X42722925Y-102274396D01*
X42722925Y-102274396D02*
X42770544Y-102322016D01*
X42770544Y-102322016D02*
X42865782Y-102369635D01*
X42865782Y-102369635D02*
X43008639Y-102369635D01*
X42246734Y-101702968D02*
X42246734Y-102369635D01*
X42246734Y-101798206D02*
X42199115Y-101750587D01*
X42199115Y-101750587D02*
X42103877Y-101702968D01*
X42103877Y-101702968D02*
X41961020Y-101702968D01*
X41961020Y-101702968D02*
X41865782Y-101750587D01*
X41865782Y-101750587D02*
X41818163Y-101845825D01*
X41818163Y-101845825D02*
X41818163Y-102369635D01*
X40913401Y-101702968D02*
X40913401Y-102512492D01*
X40913401Y-102512492D02*
X40961020Y-102607730D01*
X40961020Y-102607730D02*
X41008639Y-102655349D01*
X41008639Y-102655349D02*
X41103877Y-102702968D01*
X41103877Y-102702968D02*
X41246734Y-102702968D01*
X41246734Y-102702968D02*
X41341972Y-102655349D01*
X40913401Y-102322016D02*
X41008639Y-102369635D01*
X41008639Y-102369635D02*
X41199115Y-102369635D01*
X41199115Y-102369635D02*
X41294353Y-102322016D01*
X41294353Y-102322016D02*
X41341972Y-102274396D01*
X41341972Y-102274396D02*
X41389591Y-102179158D01*
X41389591Y-102179158D02*
X41389591Y-101893444D01*
X41389591Y-101893444D02*
X41341972Y-101798206D01*
X41341972Y-101798206D02*
X41294353Y-101750587D01*
X41294353Y-101750587D02*
X41199115Y-101702968D01*
X41199115Y-101702968D02*
X41008639Y-101702968D01*
X41008639Y-101702968D02*
X40913401Y-101750587D01*
G36*
X181894975Y-84058255D02*
G01*
X181918911Y-84128597D01*
X181888625Y-84202358D01*
X181855675Y-84214265D01*
X181755268Y-84221898D01*
X181675645Y-84221898D01*
X181675645Y-85472421D01*
X181755268Y-85472421D01*
X181800697Y-85472421D01*
X181891556Y-85493914D01*
X181918911Y-85564256D01*
X181894487Y-85635575D01*
X181822679Y-85660000D01*
X181361060Y-85660000D01*
X181351306Y-85659917D01*
X181252616Y-85638995D01*
X181223796Y-85564256D01*
X181257013Y-85493914D01*
X181270935Y-85486610D01*
X181369364Y-85472421D01*
X181462665Y-85472421D01*
X181462665Y-84940949D01*
X181279972Y-84940949D01*
X181234003Y-84943847D01*
X181140753Y-84977585D01*
X181130529Y-84985140D01*
X181063511Y-85057307D01*
X181006908Y-85138297D01*
X180743126Y-85545205D01*
X180730425Y-85559371D01*
X180689839Y-85612437D01*
X180598534Y-85660000D01*
X180443196Y-85660000D01*
X180372854Y-85635575D01*
X180348429Y-85564256D01*
X180377250Y-85492937D01*
X180385211Y-85488129D01*
X180483251Y-85472421D01*
X180528681Y-85472421D01*
X180804675Y-85033761D01*
X180859385Y-84965373D01*
X180922889Y-84915547D01*
X180822253Y-84882050D01*
X180728744Y-84829885D01*
X180653244Y-84761674D01*
X180606254Y-84695548D01*
X180567522Y-84596561D01*
X180556036Y-84494961D01*
X180556122Y-84489099D01*
X180792463Y-84489099D01*
X180793313Y-84513166D01*
X180819760Y-84610379D01*
X180889183Y-84686936D01*
X180975187Y-84727419D01*
X181077679Y-84748115D01*
X181178367Y-84753370D01*
X181462665Y-84753370D01*
X181462665Y-84221898D01*
X181170062Y-84221898D01*
X181081860Y-84226111D01*
X180979625Y-84245663D01*
X180887229Y-84289309D01*
X180865018Y-84307070D01*
X180808103Y-84392028D01*
X180792463Y-84489099D01*
X180556122Y-84489099D01*
X180556244Y-84480730D01*
X180571063Y-84377647D01*
X180609281Y-84281004D01*
X180616028Y-84268701D01*
X180676364Y-84186154D01*
X180753872Y-84120781D01*
X180833374Y-84080359D01*
X180929239Y-84053859D01*
X180942600Y-84051492D01*
X181040236Y-84040502D01*
X181144478Y-84035540D01*
X181242847Y-84034319D01*
X181822679Y-84034319D01*
X181894975Y-84058255D01*
G37*
G36*
X179515405Y-84347683D02*
G01*
X179628096Y-84358674D01*
X179732476Y-84382854D01*
X179828543Y-84420223D01*
X179916299Y-84470781D01*
X179995743Y-84534528D01*
X180019995Y-84558401D01*
X180083365Y-84635126D01*
X180132652Y-84719510D01*
X180167858Y-84811553D01*
X180188981Y-84911256D01*
X180196022Y-85018618D01*
X180195239Y-85055201D01*
X180183504Y-85159912D01*
X180157687Y-85257067D01*
X180117788Y-85346666D01*
X180063806Y-85428709D01*
X179995743Y-85503196D01*
X179970185Y-85525969D01*
X179887971Y-85585475D01*
X179797444Y-85631757D01*
X179698606Y-85664816D01*
X179591456Y-85684651D01*
X179475994Y-85691263D01*
X179436467Y-85690528D01*
X179323495Y-85679508D01*
X179218938Y-85655265D01*
X179122796Y-85617799D01*
X179035069Y-85567109D01*
X178955757Y-85503196D01*
X178931445Y-85479206D01*
X178867921Y-85402201D01*
X178818513Y-85317640D01*
X178783222Y-85225522D01*
X178762047Y-85125848D01*
X178755118Y-85020572D01*
X178993859Y-85020572D01*
X178997162Y-85084693D01*
X179019758Y-85190914D01*
X179063760Y-85285311D01*
X179129169Y-85367885D01*
X179182590Y-85414036D01*
X179272767Y-85465358D01*
X179375000Y-85495197D01*
X179475994Y-85503684D01*
X179540220Y-85500381D01*
X179646390Y-85477785D01*
X179740426Y-85433782D01*
X179822330Y-85368374D01*
X179867983Y-85314770D01*
X179918751Y-85224318D01*
X179948268Y-85121810D01*
X179956664Y-85020572D01*
X179953360Y-84956427D01*
X179930765Y-84850043D01*
X179886762Y-84755327D01*
X179821353Y-84672281D01*
X179767984Y-84625467D01*
X179678078Y-84573406D01*
X179576347Y-84543138D01*
X179475994Y-84534528D01*
X179412166Y-84537892D01*
X179306413Y-84560895D01*
X179212406Y-84605692D01*
X179130146Y-84672281D01*
X179083830Y-84726349D01*
X179032322Y-84817174D01*
X179002377Y-84919669D01*
X178993859Y-85020572D01*
X178755118Y-85020572D01*
X178754989Y-85018618D01*
X178755775Y-84982155D01*
X178767568Y-84877781D01*
X178793511Y-84780929D01*
X178833605Y-84691600D01*
X178887850Y-84609792D01*
X178956245Y-84535505D01*
X178981860Y-84512673D01*
X179064200Y-84453012D01*
X179154784Y-84406610D01*
X179253611Y-84373466D01*
X179360681Y-84353579D01*
X179475994Y-84346950D01*
X179515405Y-84347683D01*
G37*
G36*
X178518562Y-83901451D02*
G01*
X178545917Y-83971793D01*
X178511723Y-84045066D01*
X178484322Y-84055885D01*
X178383740Y-84065582D01*
X178357362Y-84065582D01*
X178357362Y-85500753D01*
X178386182Y-85500753D01*
X178413977Y-85501159D01*
X178511723Y-85517362D01*
X178542986Y-85578911D01*
X178517096Y-85639972D01*
X178437473Y-85660000D01*
X178185903Y-85660000D01*
X178142916Y-85646810D01*
X178129727Y-85602847D01*
X178129727Y-85513454D01*
X178116478Y-85529820D01*
X178040186Y-85599801D01*
X177953872Y-85647299D01*
X177905270Y-85664429D01*
X177805457Y-85685080D01*
X177702302Y-85691263D01*
X177619315Y-85686600D01*
X177509984Y-85664404D01*
X177408648Y-85623928D01*
X177315305Y-85565174D01*
X177241660Y-85500265D01*
X177187199Y-85438538D01*
X177126462Y-85345270D01*
X177083816Y-85244007D01*
X177059262Y-85134750D01*
X177052616Y-85034738D01*
X177052657Y-85033761D01*
X177286113Y-85033761D01*
X177289070Y-85097047D01*
X177309300Y-85201405D01*
X177348696Y-85293475D01*
X177407257Y-85373258D01*
X177430520Y-85396567D01*
X177517302Y-85457704D01*
X177618300Y-85493367D01*
X177721353Y-85503684D01*
X177756556Y-85502525D01*
X177854847Y-85485137D01*
X177951190Y-85441345D01*
X178033984Y-85371793D01*
X178075320Y-85319575D01*
X178121289Y-85231587D01*
X178148015Y-85132008D01*
X178155617Y-85033761D01*
X178152648Y-84971448D01*
X178132336Y-84868361D01*
X178092781Y-84776943D01*
X178033984Y-84697194D01*
X178010568Y-84673711D01*
X177923709Y-84612116D01*
X177823303Y-84576186D01*
X177721353Y-84565792D01*
X177675016Y-84567860D01*
X177578403Y-84587639D01*
X177483473Y-84634179D01*
X177409211Y-84698171D01*
X177373748Y-84741140D01*
X177325062Y-84827320D01*
X177295850Y-84924860D01*
X177286113Y-85033761D01*
X177052657Y-85033761D01*
X177055494Y-84966419D01*
X177074377Y-84853655D01*
X177110885Y-84749540D01*
X177165018Y-84654074D01*
X177236775Y-84567257D01*
X177296567Y-84512796D01*
X177387809Y-84452058D01*
X177487840Y-84409413D01*
X177596660Y-84384859D01*
X177696929Y-84378213D01*
X177759189Y-84380504D01*
X177859287Y-84395090D01*
X177958269Y-84426085D01*
X177986487Y-84438594D01*
X178075752Y-84492837D01*
X178150244Y-84563349D01*
X178150244Y-83931249D01*
X178168806Y-83891193D01*
X178228401Y-83878004D01*
X178437473Y-83878004D01*
X178518562Y-83901451D01*
G37*
G36*
X176241730Y-83987913D02*
G01*
X176237952Y-83887918D01*
X176214863Y-83793007D01*
X176121097Y-83753577D01*
X176100069Y-83752951D01*
X176002444Y-83773524D01*
X175987718Y-83786657D01*
X175962076Y-83882803D01*
X175959874Y-83946392D01*
X175966224Y-84046043D01*
X175985275Y-84098799D01*
X176078721Y-84127650D01*
X176100069Y-84128108D01*
X176197614Y-84112996D01*
X176214863Y-84101242D01*
X176241494Y-84003518D01*
X176241730Y-83987913D01*
G37*
G36*
X175987718Y-85472421D02*
G01*
X175546615Y-85472421D01*
X175467480Y-85494403D01*
X175442079Y-85564256D01*
X175466015Y-85639483D01*
X175554919Y-85660000D01*
X176620795Y-85660000D01*
X176703349Y-85636064D01*
X176730704Y-85564256D01*
X176701884Y-85495380D01*
X176615422Y-85472421D01*
X176196301Y-85472421D01*
X176196301Y-84565792D01*
X176464480Y-84565792D01*
X176550453Y-84541367D01*
X176579762Y-84470537D01*
X176552407Y-84401660D01*
X176469853Y-84378213D01*
X176067341Y-84378213D01*
X176009211Y-84393845D01*
X175987718Y-84435366D01*
X175987718Y-85472421D01*
G37*
G36*
X174945778Y-85472421D02*
G01*
X174945778Y-84576538D01*
X174971667Y-84576538D01*
X175069521Y-84567071D01*
X175100628Y-84554556D01*
X175135310Y-84475910D01*
X175106489Y-84401172D01*
X175013189Y-84378213D01*
X174948709Y-84378213D01*
X174816817Y-84378213D01*
X174759176Y-84391891D01*
X174738660Y-84428527D01*
X174738660Y-84512547D01*
X174657619Y-84451140D01*
X174571065Y-84401238D01*
X174540334Y-84387494D01*
X174446325Y-84358393D01*
X174342735Y-84346990D01*
X174336147Y-84346950D01*
X174237901Y-84355163D01*
X174140657Y-84384035D01*
X174049104Y-84440497D01*
X174009839Y-84478353D01*
X173952222Y-84559952D01*
X173913462Y-84657470D01*
X173894839Y-84757518D01*
X173890648Y-84840809D01*
X173890648Y-85472421D01*
X173826168Y-85472421D01*
X173729424Y-85493050D01*
X173727494Y-85494403D01*
X173697208Y-85564256D01*
X173729448Y-85638018D01*
X173829206Y-85659806D01*
X173844242Y-85660000D01*
X174148080Y-85660000D01*
X174247006Y-85647775D01*
X174260921Y-85639972D01*
X174285345Y-85564256D01*
X174256524Y-85492449D01*
X174157835Y-85472499D01*
X174148080Y-85472421D01*
X174099720Y-85472421D01*
X174099720Y-84877445D01*
X174108321Y-84771941D01*
X174137321Y-84678175D01*
X174172505Y-84622456D01*
X174255230Y-84559344D01*
X174350367Y-84535902D01*
X174384019Y-84534528D01*
X174484563Y-84548405D01*
X174575902Y-84590033D01*
X174631681Y-84633203D01*
X174696871Y-84713803D01*
X174731974Y-84807592D01*
X174738660Y-84877445D01*
X174738660Y-85472421D01*
X174690300Y-85472421D01*
X174591622Y-85485643D01*
X174578925Y-85492449D01*
X174550104Y-85564256D01*
X174575017Y-85639972D01*
X174672737Y-85659687D01*
X174695673Y-85660000D01*
X174945778Y-85660000D01*
X175020027Y-85660000D01*
X175105024Y-85637041D01*
X175132868Y-85564256D01*
X175100628Y-85491960D01*
X175002405Y-85472898D01*
X174974598Y-85472421D01*
X174945778Y-85472421D01*
G37*
G36*
X171703210Y-84565792D02*
G01*
X171801126Y-84555863D01*
X171827773Y-84544787D01*
X171861479Y-84470537D01*
X171834124Y-84401660D01*
X171751570Y-84378213D01*
X171366643Y-84378213D01*
X171269885Y-84393921D01*
X171262595Y-84398729D01*
X171236217Y-84470537D01*
X171270900Y-84544787D01*
X171369638Y-84565279D01*
X171396929Y-84565792D01*
X171447732Y-84565792D01*
X171090648Y-85484145D01*
X170693510Y-84565792D01*
X170776064Y-84565792D01*
X170877251Y-84558559D01*
X170918702Y-84545275D01*
X170955826Y-84470537D01*
X170929937Y-84398729D01*
X170830235Y-84378233D01*
X170825401Y-84378213D01*
X170400907Y-84378213D01*
X170318353Y-84401660D01*
X170290997Y-84470537D01*
X170324703Y-84544787D01*
X170421921Y-84565279D01*
X170448778Y-84565792D01*
X170473691Y-84565792D01*
X170927006Y-85597962D01*
X170978480Y-85683966D01*
X170995394Y-85699078D01*
X171093579Y-85722526D01*
X171184926Y-85699567D01*
X171242842Y-85616860D01*
X171251360Y-85597962D01*
X171703210Y-84565792D01*
G37*
G36*
X169179204Y-84705987D02*
G01*
X169085819Y-84740429D01*
X168999405Y-84794404D01*
X168930076Y-84865233D01*
X168879460Y-84950609D01*
X168849854Y-85048221D01*
X168841172Y-85147578D01*
X168849330Y-85247946D01*
X168878631Y-85352520D01*
X168929243Y-85446287D01*
X169001165Y-85529245D01*
X169011653Y-85538855D01*
X169091031Y-85598240D01*
X169179992Y-85643040D01*
X169278537Y-85673253D01*
X169386665Y-85688881D01*
X169452756Y-85691263D01*
X169554392Y-85686072D01*
X169661798Y-85667826D01*
X169761862Y-85636442D01*
X169824494Y-85608220D01*
X169910274Y-85554840D01*
X169974292Y-85481023D01*
X169987159Y-85426992D01*
X169957850Y-85359092D01*
X169885554Y-85332226D01*
X169788508Y-85368564D01*
X169716050Y-85402568D01*
X169617666Y-85442338D01*
X169515737Y-85466895D01*
X169442986Y-85472421D01*
X169338033Y-85461454D01*
X169239996Y-85424474D01*
X169177739Y-85379609D01*
X169115228Y-85302375D01*
X169081568Y-85209890D01*
X169075157Y-85139762D01*
X169088714Y-85040867D01*
X169133329Y-84950678D01*
X169145987Y-84934598D01*
X169223632Y-84869247D01*
X169317211Y-84832461D01*
X169339916Y-84827620D01*
X169437613Y-84816873D01*
X169530830Y-84783213D01*
X169552896Y-84721130D01*
X169494602Y-84640289D01*
X169440055Y-84627341D01*
X169367271Y-84617571D01*
X169270551Y-84587773D01*
X169194347Y-84530621D01*
X169142891Y-84446816D01*
X169128401Y-84358674D01*
X169141784Y-84261397D01*
X169186130Y-84174309D01*
X169209490Y-84147648D01*
X169295171Y-84088743D01*
X169392570Y-84066303D01*
X169415631Y-84065582D01*
X169517719Y-84079327D01*
X169614691Y-84116703D01*
X169652547Y-84137390D01*
X169741491Y-84186143D01*
X169804466Y-84208709D01*
X169868457Y-84183796D01*
X169893859Y-84121758D01*
X169845172Y-84029503D01*
X169758619Y-83968686D01*
X169739986Y-83958604D01*
X169640571Y-83916100D01*
X169545551Y-83891306D01*
X169445276Y-83879263D01*
X169399023Y-83878004D01*
X169296532Y-83886094D01*
X169191959Y-83914538D01*
X169098747Y-83963460D01*
X169042916Y-84007452D01*
X168973966Y-84084707D01*
X168927580Y-84171389D01*
X168903761Y-84267499D01*
X168900279Y-84324968D01*
X168909827Y-84425306D01*
X168941721Y-84518192D01*
X168968178Y-84561395D01*
X169041989Y-84634752D01*
X169128176Y-84685127D01*
X169179204Y-84705987D01*
G37*
G36*
X167756258Y-84348286D02*
G01*
X167862588Y-84355979D01*
X167969582Y-84372809D01*
X168072784Y-84401660D01*
X168082100Y-84405073D01*
X168170829Y-84449747D01*
X168224214Y-84534528D01*
X168198325Y-84618060D01*
X168132379Y-84650300D01*
X168050398Y-84629979D01*
X167957990Y-84592658D01*
X167917382Y-84575912D01*
X167817495Y-84545655D01*
X167719120Y-84534528D01*
X167662191Y-84537534D01*
X167566157Y-84561576D01*
X167484159Y-84620013D01*
X167444231Y-84682124D01*
X167415837Y-84779577D01*
X167408443Y-84879888D01*
X167408443Y-84889658D01*
X167476858Y-84873732D01*
X167574528Y-84857418D01*
X167635139Y-84851166D01*
X167735240Y-84847159D01*
X167808719Y-84848983D01*
X167911009Y-84858560D01*
X168018323Y-84880109D01*
X168112687Y-84912830D01*
X168204675Y-84963907D01*
X168261284Y-85010836D01*
X168324237Y-85093723D01*
X168360838Y-85191603D01*
X168371249Y-85291193D01*
X168370758Y-85313159D01*
X168353594Y-85415207D01*
X168311911Y-85504279D01*
X168245708Y-85580376D01*
X168212972Y-85606365D01*
X168120379Y-85656177D01*
X168023912Y-85682491D01*
X167915003Y-85691263D01*
X167845394Y-85687813D01*
X167742812Y-85669701D01*
X167642428Y-85636064D01*
X167561599Y-85596441D01*
X167477095Y-85541726D01*
X167397208Y-85475352D01*
X167386461Y-85564256D01*
X167353733Y-85635575D01*
X167290230Y-85660000D01*
X167074319Y-85660000D01*
X166992254Y-85634110D01*
X166964410Y-85555952D01*
X166997627Y-85477794D01*
X167027805Y-85465279D01*
X167128053Y-85455812D01*
X167195464Y-85455812D01*
X167195464Y-85050858D01*
X167408443Y-85050858D01*
X167408443Y-85195938D01*
X167415573Y-85238116D01*
X167472607Y-85320369D01*
X167557431Y-85383028D01*
X167576154Y-85393853D01*
X167672745Y-85437502D01*
X167774296Y-85463691D01*
X167880809Y-85472421D01*
X167982404Y-85459434D01*
X168075226Y-85413314D01*
X168124565Y-85359653D01*
X168151430Y-85262372D01*
X168149522Y-85233460D01*
X168108377Y-85138635D01*
X168029309Y-85073817D01*
X167988963Y-85053552D01*
X167895178Y-85023327D01*
X167795843Y-85007871D01*
X167695673Y-85003475D01*
X167656106Y-85004402D01*
X167554989Y-85015198D01*
X167505716Y-85024481D01*
X167408443Y-85050858D01*
X167195464Y-85050858D01*
X167195464Y-84833482D01*
X167199808Y-84747478D01*
X167219119Y-84645628D01*
X167259309Y-84548565D01*
X167319050Y-84470048D01*
X167388232Y-84416193D01*
X167483725Y-84373998D01*
X167584307Y-84352840D01*
X167684438Y-84346950D01*
X167756258Y-84348286D01*
G37*
G36*
X164143893Y-84221898D02*
G01*
X164514654Y-84221898D01*
X164615061Y-84214074D01*
X164648011Y-84201870D01*
X164678297Y-84128108D01*
X164654361Y-84057278D01*
X164576692Y-84034319D01*
X164514654Y-84034319D01*
X163749197Y-84034319D01*
X163684717Y-84034319D01*
X163611444Y-84057766D01*
X163587508Y-84128108D01*
X163617794Y-84201870D01*
X163713620Y-84221194D01*
X163749197Y-84221898D01*
X163926517Y-84221898D01*
X163926517Y-85098729D01*
X163931206Y-85210367D01*
X163945271Y-85309709D01*
X163973531Y-85410068D01*
X164021456Y-85504269D01*
X164059874Y-85552044D01*
X164136749Y-85612952D01*
X164234019Y-85656458D01*
X164335860Y-85680250D01*
X164435579Y-85690039D01*
X164489741Y-85691263D01*
X164592506Y-85686909D01*
X164691240Y-85673849D01*
X164735450Y-85664884D01*
X164830146Y-85638615D01*
X164924520Y-85602671D01*
X164967969Y-85582819D01*
X165030983Y-85535924D01*
X165046127Y-85444577D01*
X165046127Y-85121688D01*
X165036891Y-85023541D01*
X165026587Y-85001521D01*
X164956734Y-84977096D01*
X164900558Y-84990286D01*
X164866364Y-85028387D01*
X164858060Y-85061116D01*
X164855129Y-85129993D01*
X164855129Y-85143670D01*
X164851221Y-85226713D01*
X164839009Y-85301451D01*
X164797735Y-85393028D01*
X164730702Y-85464426D01*
X164719818Y-85472421D01*
X164627855Y-85517301D01*
X164527303Y-85534398D01*
X164503907Y-85534947D01*
X164405564Y-85526446D01*
X164307826Y-85492968D01*
X164229378Y-85427480D01*
X164180709Y-85337214D01*
X164155915Y-85239490D01*
X164145229Y-85134587D01*
X164143893Y-85075771D01*
X164143893Y-84221898D01*
G37*
G36*
X162715086Y-84348286D02*
G01*
X162821415Y-84355979D01*
X162928409Y-84372809D01*
X163031612Y-84401660D01*
X163040928Y-84405073D01*
X163129657Y-84449747D01*
X163183042Y-84534528D01*
X163157152Y-84618060D01*
X163091207Y-84650300D01*
X163009226Y-84629979D01*
X162916817Y-84592658D01*
X162876210Y-84575912D01*
X162776322Y-84545655D01*
X162677948Y-84534528D01*
X162621018Y-84537534D01*
X162524985Y-84561576D01*
X162442986Y-84620013D01*
X162403058Y-84682124D01*
X162374665Y-84779577D01*
X162367271Y-84879888D01*
X162367271Y-84889658D01*
X162435686Y-84873732D01*
X162533356Y-84857418D01*
X162593966Y-84851166D01*
X162694068Y-84847159D01*
X162767547Y-84848983D01*
X162869837Y-84858560D01*
X162977151Y-84880109D01*
X163071515Y-84912830D01*
X163163503Y-84963907D01*
X163220112Y-85010836D01*
X163283065Y-85093723D01*
X163319665Y-85191603D01*
X163330076Y-85291193D01*
X163329586Y-85313159D01*
X163312422Y-85415207D01*
X163270739Y-85504279D01*
X163204535Y-85580376D01*
X163171799Y-85606365D01*
X163079206Y-85656177D01*
X162982740Y-85682491D01*
X162873831Y-85691263D01*
X162804221Y-85687813D01*
X162701639Y-85669701D01*
X162601256Y-85636064D01*
X162520426Y-85596441D01*
X162435922Y-85541726D01*
X162356036Y-85475352D01*
X162345289Y-85564256D01*
X162312561Y-85635575D01*
X162249057Y-85660000D01*
X162033147Y-85660000D01*
X161951081Y-85634110D01*
X161923237Y-85555952D01*
X161956454Y-85477794D01*
X161986632Y-85465279D01*
X162086880Y-85455812D01*
X162154291Y-85455812D01*
X162154291Y-85050858D01*
X162367271Y-85050858D01*
X162367271Y-85195938D01*
X162374400Y-85238116D01*
X162431435Y-85320369D01*
X162516259Y-85383028D01*
X162534982Y-85393853D01*
X162631572Y-85437502D01*
X162733124Y-85463691D01*
X162839637Y-85472421D01*
X162941231Y-85459434D01*
X163034054Y-85413314D01*
X163083393Y-85359653D01*
X163110258Y-85262372D01*
X163108350Y-85233460D01*
X163067205Y-85138635D01*
X162988136Y-85073817D01*
X162947791Y-85053552D01*
X162854005Y-85023327D01*
X162754671Y-85007871D01*
X162654501Y-85003475D01*
X162614933Y-85004402D01*
X162513817Y-85015198D01*
X162464544Y-85024481D01*
X162367271Y-85050858D01*
X162154291Y-85050858D01*
X162154291Y-84833482D01*
X162158636Y-84747478D01*
X162177946Y-84645628D01*
X162218136Y-84548565D01*
X162277878Y-84470048D01*
X162347060Y-84416193D01*
X162442552Y-84373998D01*
X162543134Y-84352840D01*
X162643265Y-84346950D01*
X162715086Y-84348286D01*
G37*
G36*
X161502651Y-85472421D02*
G01*
X161502651Y-84576538D01*
X161528541Y-84576538D01*
X161626395Y-84567071D01*
X161657501Y-84554556D01*
X161692184Y-84475910D01*
X161663363Y-84401172D01*
X161570062Y-84378213D01*
X161505582Y-84378213D01*
X161373691Y-84378213D01*
X161316050Y-84391891D01*
X161295533Y-84428527D01*
X161295533Y-84512547D01*
X161214492Y-84451140D01*
X161127939Y-84401238D01*
X161097208Y-84387494D01*
X161003199Y-84358393D01*
X160899609Y-84346990D01*
X160893021Y-84346950D01*
X160794774Y-84355163D01*
X160697530Y-84384035D01*
X160605978Y-84440497D01*
X160566713Y-84478353D01*
X160509096Y-84559952D01*
X160470336Y-84657470D01*
X160451712Y-84757518D01*
X160447522Y-84840809D01*
X160447522Y-85472421D01*
X160383042Y-85472421D01*
X160286298Y-85493050D01*
X160284368Y-85494403D01*
X160254082Y-85564256D01*
X160286322Y-85638018D01*
X160386079Y-85659806D01*
X160401116Y-85660000D01*
X160704954Y-85660000D01*
X160803880Y-85647775D01*
X160817794Y-85639972D01*
X160842219Y-85564256D01*
X160813398Y-85492449D01*
X160714709Y-85472499D01*
X160704954Y-85472421D01*
X160656594Y-85472421D01*
X160656594Y-84877445D01*
X160665195Y-84771941D01*
X160694195Y-84678175D01*
X160729378Y-84622456D01*
X160812104Y-84559344D01*
X160907241Y-84535902D01*
X160940893Y-84534528D01*
X161041437Y-84548405D01*
X161132776Y-84590033D01*
X161188555Y-84633203D01*
X161253745Y-84713803D01*
X161288847Y-84807592D01*
X161295533Y-84877445D01*
X161295533Y-85472421D01*
X161247173Y-85472421D01*
X161148495Y-85485643D01*
X161135799Y-85492449D01*
X161106978Y-85564256D01*
X161131891Y-85639972D01*
X161229611Y-85659687D01*
X161252547Y-85660000D01*
X161502651Y-85660000D01*
X161576901Y-85660000D01*
X161661898Y-85637041D01*
X161689741Y-85564256D01*
X161657501Y-85491960D01*
X161559278Y-85472898D01*
X161531472Y-85472421D01*
X161502651Y-85472421D01*
G37*
G36*
X159789532Y-85660000D02*
G01*
X159885578Y-85638786D01*
X159897487Y-85630202D01*
X159932170Y-85538367D01*
X159888635Y-85439695D01*
X159818568Y-85353088D01*
X159744379Y-85275190D01*
X159668387Y-85201800D01*
X159628820Y-85163210D01*
X159557120Y-85094448D01*
X159513538Y-85052812D01*
X159428510Y-84970516D01*
X159351845Y-84892522D01*
X159283544Y-84818830D01*
X159205485Y-84727265D01*
X159142295Y-84643349D01*
X159084216Y-84549208D01*
X159045187Y-84452013D01*
X159037752Y-84396775D01*
X159049568Y-84293965D01*
X159089034Y-84200260D01*
X159121772Y-84157418D01*
X159204639Y-84094639D01*
X159306206Y-84067017D01*
X159338660Y-84065582D01*
X159439158Y-84078154D01*
X159504745Y-84101242D01*
X159591031Y-84155548D01*
X159631263Y-84197473D01*
X159657641Y-84234110D01*
X159722274Y-84311197D01*
X159771458Y-84326434D01*
X159841800Y-84296147D01*
X159862136Y-84196321D01*
X159862316Y-84180865D01*
X159853035Y-84109057D01*
X159816887Y-84060209D01*
X159738593Y-83997983D01*
X159646595Y-83947044D01*
X159599511Y-83927341D01*
X159501165Y-83897276D01*
X159401033Y-83881087D01*
X159333286Y-83878004D01*
X159223927Y-83887224D01*
X159123970Y-83914884D01*
X159033417Y-83960985D01*
X158952267Y-84025526D01*
X158885162Y-84103257D01*
X158837229Y-84189413D01*
X158808469Y-84283996D01*
X158798883Y-84387006D01*
X158815301Y-84494373D01*
X158854065Y-84593397D01*
X158901494Y-84678866D01*
X158963516Y-84769893D01*
X159040132Y-84866475D01*
X159107171Y-84942559D01*
X159182419Y-85021768D01*
X159265875Y-85104103D01*
X159341459Y-85175016D01*
X159413520Y-85244237D01*
X159448569Y-85278981D01*
X159617585Y-85441158D01*
X158989881Y-85441158D01*
X158957641Y-85348346D01*
X158885345Y-85316106D01*
X158814026Y-85346880D01*
X158788136Y-85430900D01*
X158789602Y-85445554D01*
X158790579Y-85460209D01*
X158801325Y-85567676D01*
X158826238Y-85635575D01*
X158879972Y-85660000D01*
X159789532Y-85660000D01*
G37*
G36*
X157567899Y-83887773D02*
G01*
X157599162Y-83932714D01*
X158178995Y-84934598D01*
X158190230Y-84952672D01*
X158203676Y-84975564D01*
X158229797Y-85070397D01*
X158229797Y-85166629D01*
X158210746Y-85231109D01*
X158157013Y-85253579D01*
X157515631Y-85253579D01*
X157515631Y-85472421D01*
X157674877Y-85472421D01*
X157752547Y-85494403D01*
X157776482Y-85564256D01*
X157753035Y-85639483D01*
X157663642Y-85660000D01*
X157220097Y-85660000D01*
X157137543Y-85636064D01*
X157110188Y-85564256D01*
X157143405Y-85492937D01*
X157166181Y-85483020D01*
X157264061Y-85472421D01*
X157312421Y-85472421D01*
X157312421Y-85253579D01*
X157196650Y-85253579D01*
X157138520Y-85235017D01*
X157110188Y-85164187D01*
X157099441Y-85105080D01*
X157094068Y-85083098D01*
X157092602Y-85059162D01*
X157112142Y-85007383D01*
X157158548Y-84986866D01*
X157195673Y-85010802D01*
X157242568Y-85034738D01*
X157312421Y-85034738D01*
X157515631Y-85034738D01*
X158036357Y-85034738D01*
X157515631Y-84103684D01*
X157515631Y-85034738D01*
X157312421Y-85034738D01*
X157312421Y-83971793D01*
X157324145Y-83922456D01*
X157354919Y-83900474D01*
X157495115Y-83878004D01*
X157505861Y-83878004D01*
X157534682Y-83878004D01*
X157567899Y-83887773D01*
G37*
G36*
X153852477Y-85472421D02*
G01*
X153754045Y-85479309D01*
X153717655Y-85491960D01*
X153687857Y-85564256D01*
X153717655Y-85639483D01*
X153815589Y-85659278D01*
X153852477Y-85660000D01*
X154686322Y-85660000D01*
X154750802Y-85660000D01*
X154827006Y-85636064D01*
X154852896Y-85564256D01*
X154822609Y-85491960D01*
X154723411Y-85473108D01*
X154686322Y-85472421D01*
X154376133Y-85472421D01*
X154376133Y-84221898D01*
X154686322Y-84221898D01*
X154787301Y-84214074D01*
X154821144Y-84201870D01*
X154852896Y-84128108D01*
X154827006Y-84057278D01*
X154748360Y-84034319D01*
X154686322Y-84034319D01*
X153852477Y-84034319D01*
X153787997Y-84034319D01*
X153713258Y-84057766D01*
X153687857Y-84128108D01*
X153718632Y-84201870D01*
X153816367Y-84221194D01*
X153852477Y-84221898D01*
X154163154Y-84221898D01*
X154163154Y-85472421D01*
X153852477Y-85472421D01*
G37*
G36*
X152632741Y-84348286D02*
G01*
X152739071Y-84355979D01*
X152846065Y-84372809D01*
X152949267Y-84401660D01*
X152958583Y-84405073D01*
X153047312Y-84449747D01*
X153100697Y-84534528D01*
X153074808Y-84618060D01*
X153008862Y-84650300D01*
X152926881Y-84629979D01*
X152834473Y-84592658D01*
X152793865Y-84575912D01*
X152693978Y-84545655D01*
X152595603Y-84534528D01*
X152538674Y-84537534D01*
X152442640Y-84561576D01*
X152360642Y-84620013D01*
X152320714Y-84682124D01*
X152292320Y-84779577D01*
X152284926Y-84879888D01*
X152284926Y-84889658D01*
X152353341Y-84873732D01*
X152451011Y-84857418D01*
X152511622Y-84851166D01*
X152611723Y-84847159D01*
X152685202Y-84848983D01*
X152787492Y-84858560D01*
X152894806Y-84880109D01*
X152989170Y-84912830D01*
X153081158Y-84963907D01*
X153137767Y-85010836D01*
X153200720Y-85093723D01*
X153237321Y-85191603D01*
X153247732Y-85291193D01*
X153247241Y-85313159D01*
X153230077Y-85415207D01*
X153188394Y-85504279D01*
X153122191Y-85580376D01*
X153089455Y-85606365D01*
X152996862Y-85656177D01*
X152900395Y-85682491D01*
X152791486Y-85691263D01*
X152721877Y-85687813D01*
X152619295Y-85669701D01*
X152518911Y-85636064D01*
X152438082Y-85596441D01*
X152353578Y-85541726D01*
X152273691Y-85475352D01*
X152262944Y-85564256D01*
X152230216Y-85635575D01*
X152166713Y-85660000D01*
X151950802Y-85660000D01*
X151868736Y-85634110D01*
X151840893Y-85555952D01*
X151874110Y-85477794D01*
X151904288Y-85465279D01*
X152004535Y-85455812D01*
X152071946Y-85455812D01*
X152071946Y-85050858D01*
X152284926Y-85050858D01*
X152284926Y-85195938D01*
X152292056Y-85238116D01*
X152349090Y-85320369D01*
X152433914Y-85383028D01*
X152452637Y-85393853D01*
X152549228Y-85437502D01*
X152650779Y-85463691D01*
X152757292Y-85472421D01*
X152858886Y-85459434D01*
X152951709Y-85413314D01*
X153001048Y-85359653D01*
X153027913Y-85262372D01*
X153026005Y-85233460D01*
X152984860Y-85138635D01*
X152905792Y-85073817D01*
X152865446Y-85053552D01*
X152771661Y-85023327D01*
X152672326Y-85007871D01*
X152572156Y-85003475D01*
X152532588Y-85004402D01*
X152431472Y-85015198D01*
X152382199Y-85024481D01*
X152284926Y-85050858D01*
X152071946Y-85050858D01*
X152071946Y-84833482D01*
X152076291Y-84747478D01*
X152095602Y-84645628D01*
X152135792Y-84548565D01*
X152195533Y-84470048D01*
X152264715Y-84416193D01*
X152360207Y-84373998D01*
X152460790Y-84352840D01*
X152560921Y-84346950D01*
X152632741Y-84348286D01*
G37*
G36*
X151420307Y-85472421D02*
G01*
X151420307Y-84576538D01*
X151446196Y-84576538D01*
X151544050Y-84567071D01*
X151575157Y-84554556D01*
X151609839Y-84475910D01*
X151581018Y-84401172D01*
X151487718Y-84378213D01*
X151423237Y-84378213D01*
X151291346Y-84378213D01*
X151233705Y-84391891D01*
X151213189Y-84428527D01*
X151213189Y-84512547D01*
X151132148Y-84451140D01*
X151045594Y-84401238D01*
X151014863Y-84387494D01*
X150920854Y-84358393D01*
X150817264Y-84346990D01*
X150810676Y-84346950D01*
X150712430Y-84355163D01*
X150615186Y-84384035D01*
X150523633Y-84440497D01*
X150484368Y-84478353D01*
X150426751Y-84559952D01*
X150387991Y-84657470D01*
X150369368Y-84757518D01*
X150365177Y-84840809D01*
X150365177Y-85472421D01*
X150300697Y-85472421D01*
X150203953Y-85493050D01*
X150202023Y-85494403D01*
X150171737Y-85564256D01*
X150203977Y-85638018D01*
X150303735Y-85659806D01*
X150318771Y-85660000D01*
X150622609Y-85660000D01*
X150721535Y-85647775D01*
X150735450Y-85639972D01*
X150759874Y-85564256D01*
X150731053Y-85492449D01*
X150632364Y-85472499D01*
X150622609Y-85472421D01*
X150574249Y-85472421D01*
X150574249Y-84877445D01*
X150582850Y-84771941D01*
X150611850Y-84678175D01*
X150647034Y-84622456D01*
X150729759Y-84559344D01*
X150824896Y-84535902D01*
X150858548Y-84534528D01*
X150959092Y-84548405D01*
X151050431Y-84590033D01*
X151106210Y-84633203D01*
X151171400Y-84713803D01*
X151206502Y-84807592D01*
X151213189Y-84877445D01*
X151213189Y-85472421D01*
X151164829Y-85472421D01*
X151066151Y-85485643D01*
X151053454Y-85492449D01*
X151024633Y-85564256D01*
X151049546Y-85639972D01*
X151147266Y-85659687D01*
X151170202Y-85660000D01*
X151420307Y-85660000D01*
X151494556Y-85660000D01*
X151579553Y-85637041D01*
X151607397Y-85564256D01*
X151575157Y-85491960D01*
X151476934Y-85472898D01*
X151449127Y-85472421D01*
X151420307Y-85472421D01*
G37*
G36*
X147876831Y-85472421D02*
G01*
X147784996Y-85472421D01*
X147687812Y-85485540D01*
X147671179Y-85493914D01*
X147637962Y-85564256D01*
X147666782Y-85639483D01*
X147764451Y-85659499D01*
X147793300Y-85660000D01*
X148093719Y-85660000D01*
X148155757Y-85660000D01*
X148231960Y-85636064D01*
X148257362Y-85564256D01*
X148228053Y-85492449D01*
X148131117Y-85472597D01*
X148116189Y-85472421D01*
X148091277Y-85472421D01*
X148091277Y-84221898D01*
X148113258Y-84221898D01*
X148210645Y-84209375D01*
X148226587Y-84201381D01*
X148257362Y-84128108D01*
X148231960Y-84057278D01*
X148152826Y-84034319D01*
X148093719Y-84034319D01*
X147806978Y-84034319D01*
X147708832Y-84040811D01*
X147667759Y-84054836D01*
X147637962Y-84128108D01*
X147675087Y-84201381D01*
X147773344Y-84220916D01*
X147815282Y-84221898D01*
X147876831Y-84221898D01*
X147876831Y-84722107D01*
X147218841Y-84722107D01*
X147218841Y-84221898D01*
X147312142Y-84221898D01*
X147409803Y-84207386D01*
X147424005Y-84199916D01*
X147457711Y-84128108D01*
X147426936Y-84054836D01*
X147329758Y-84035601D01*
X147275017Y-84034319D01*
X147001953Y-84034319D01*
X146939916Y-84034319D01*
X146865177Y-84057766D01*
X146839776Y-84128108D01*
X146868597Y-84200404D01*
X146967071Y-84221877D01*
X146971667Y-84221898D01*
X147004396Y-84221898D01*
X147004396Y-85472421D01*
X146982414Y-85472421D01*
X146883240Y-85485965D01*
X146870062Y-85492937D01*
X146839776Y-85564256D01*
X146868597Y-85639483D01*
X146965414Y-85659278D01*
X147001953Y-85660000D01*
X147286252Y-85660000D01*
X147385497Y-85653508D01*
X147427424Y-85639483D01*
X147457711Y-85564256D01*
X147422051Y-85492449D01*
X147321538Y-85473125D01*
X147286252Y-85472421D01*
X147218841Y-85472421D01*
X147218841Y-84909685D01*
X147876831Y-84909685D01*
X147876831Y-85472421D01*
G37*
G36*
X145911178Y-84348286D02*
G01*
X146017507Y-84355979D01*
X146124501Y-84372809D01*
X146227704Y-84401660D01*
X146237020Y-84405073D01*
X146325749Y-84449747D01*
X146379134Y-84534528D01*
X146353244Y-84618060D01*
X146287299Y-84650300D01*
X146205318Y-84629979D01*
X146112909Y-84592658D01*
X146072302Y-84575912D01*
X145972415Y-84545655D01*
X145874040Y-84534528D01*
X145817110Y-84537534D01*
X145721077Y-84561576D01*
X145639078Y-84620013D01*
X145599150Y-84682124D01*
X145570757Y-84779577D01*
X145563363Y-84879888D01*
X145563363Y-84889658D01*
X145631778Y-84873732D01*
X145729448Y-84857418D01*
X145790059Y-84851166D01*
X145890160Y-84847159D01*
X145963639Y-84848983D01*
X146065929Y-84858560D01*
X146173243Y-84880109D01*
X146267607Y-84912830D01*
X146359595Y-84963907D01*
X146416204Y-85010836D01*
X146479157Y-85093723D01*
X146515758Y-85191603D01*
X146526168Y-85291193D01*
X146525678Y-85313159D01*
X146508514Y-85415207D01*
X146466831Y-85504279D01*
X146400628Y-85580376D01*
X146367891Y-85606365D01*
X146275299Y-85656177D01*
X146178832Y-85682491D01*
X146069923Y-85691263D01*
X146000314Y-85687813D01*
X145897732Y-85669701D01*
X145797348Y-85636064D01*
X145716519Y-85596441D01*
X145632014Y-85541726D01*
X145552128Y-85475352D01*
X145541381Y-85564256D01*
X145508653Y-85635575D01*
X145445150Y-85660000D01*
X145229239Y-85660000D01*
X145147173Y-85634110D01*
X145119330Y-85555952D01*
X145152547Y-85477794D01*
X145182724Y-85465279D01*
X145282972Y-85455812D01*
X145350383Y-85455812D01*
X145350383Y-85050858D01*
X145563363Y-85050858D01*
X145563363Y-85195938D01*
X145570492Y-85238116D01*
X145627527Y-85320369D01*
X145712351Y-85383028D01*
X145731074Y-85393853D01*
X145827664Y-85437502D01*
X145929216Y-85463691D01*
X146035729Y-85472421D01*
X146137323Y-85459434D01*
X146230146Y-85413314D01*
X146279485Y-85359653D01*
X146306350Y-85262372D01*
X146304442Y-85233460D01*
X146263297Y-85138635D01*
X146184228Y-85073817D01*
X146143883Y-85053552D01*
X146050098Y-85023327D01*
X145950763Y-85007871D01*
X145850593Y-85003475D01*
X145811025Y-85004402D01*
X145709909Y-85015198D01*
X145660636Y-85024481D01*
X145563363Y-85050858D01*
X145350383Y-85050858D01*
X145350383Y-84833482D01*
X145354728Y-84747478D01*
X145374039Y-84645628D01*
X145414228Y-84548565D01*
X145473970Y-84470048D01*
X145543152Y-84416193D01*
X145638644Y-84373998D01*
X145739227Y-84352840D01*
X145839357Y-84346950D01*
X145911178Y-84348286D01*
G37*
G36*
X143812630Y-84472002D02*
G01*
X143716404Y-84493549D01*
X143714445Y-84494961D01*
X143683670Y-84566280D01*
X143712491Y-84636622D01*
X143798953Y-84659581D01*
X144355338Y-84659581D01*
X144355338Y-85128039D01*
X144351705Y-85233063D01*
X144336945Y-85336866D01*
X144297208Y-85430900D01*
X144211489Y-85487691D01*
X144114312Y-85503400D01*
X144096929Y-85503684D01*
X143996499Y-85493449D01*
X143892129Y-85466084D01*
X143797976Y-85430900D01*
X143701748Y-85392517D01*
X143606422Y-85361598D01*
X143582065Y-85358115D01*
X143516608Y-85385959D01*
X143489741Y-85452882D01*
X143523447Y-85530551D01*
X143609499Y-85581651D01*
X143638241Y-85593077D01*
X143735579Y-85627332D01*
X143832502Y-85655760D01*
X143881018Y-85667327D01*
X143978978Y-85684507D01*
X144077316Y-85691239D01*
X144083251Y-85691263D01*
X144187680Y-85685144D01*
X144287778Y-85664513D01*
X144353384Y-85639483D01*
X144438134Y-85584212D01*
X144501754Y-85509866D01*
X144516050Y-85485122D01*
X144551083Y-85390170D01*
X144555129Y-85369839D01*
X144564608Y-85272380D01*
X144566841Y-85173733D01*
X144566852Y-85165163D01*
X144566852Y-85122177D01*
X144566852Y-84659581D01*
X144800348Y-84659581D01*
X144884368Y-84637599D01*
X144910258Y-84566280D01*
X144874598Y-84492030D01*
X144775497Y-84473254D01*
X144722191Y-84472002D01*
X144566852Y-84472002D01*
X144566852Y-84191123D01*
X144566852Y-84118339D01*
X144541451Y-84031388D01*
X144462316Y-84003056D01*
X144378785Y-84037250D01*
X144356803Y-84138000D01*
X144355338Y-84193565D01*
X144355338Y-84472002D01*
X143812630Y-84472002D01*
G37*
G36*
X142132240Y-84472002D02*
G01*
X142036013Y-84493549D01*
X142034054Y-84494961D01*
X142003279Y-84566280D01*
X142032100Y-84636622D01*
X142118562Y-84659581D01*
X142674947Y-84659581D01*
X142674947Y-85128039D01*
X142671314Y-85233063D01*
X142656555Y-85336866D01*
X142616817Y-85430900D01*
X142531099Y-85487691D01*
X142433921Y-85503400D01*
X142416538Y-85503684D01*
X142316109Y-85493449D01*
X142211738Y-85466084D01*
X142117585Y-85430900D01*
X142021357Y-85392517D01*
X141926031Y-85361598D01*
X141901674Y-85358115D01*
X141836217Y-85385959D01*
X141809351Y-85452882D01*
X141843056Y-85530551D01*
X141929108Y-85581651D01*
X141957850Y-85593077D01*
X142055189Y-85627332D01*
X142152111Y-85655760D01*
X142200628Y-85667327D01*
X142298587Y-85684507D01*
X142396925Y-85691239D01*
X142402861Y-85691263D01*
X142507289Y-85685144D01*
X142607387Y-85664513D01*
X142672993Y-85639483D01*
X142757744Y-85584212D01*
X142821363Y-85509866D01*
X142835659Y-85485122D01*
X142870693Y-85390170D01*
X142874738Y-85369839D01*
X142884217Y-85272380D01*
X142886450Y-85173733D01*
X142886461Y-85165163D01*
X142886461Y-85122177D01*
X142886461Y-84659581D01*
X143119958Y-84659581D01*
X143203977Y-84637599D01*
X143229867Y-84566280D01*
X143194207Y-84492030D01*
X143095106Y-84473254D01*
X143041800Y-84472002D01*
X142886461Y-84472002D01*
X142886461Y-84191123D01*
X142886461Y-84118339D01*
X142861060Y-84031388D01*
X142781926Y-84003056D01*
X142698394Y-84037250D01*
X142676413Y-84138000D01*
X142674947Y-84193565D01*
X142674947Y-84472002D01*
X142132240Y-84472002D01*
G37*
G36*
X140835310Y-84961465D02*
G01*
X141012630Y-85627271D01*
X141053663Y-85701521D01*
X141136217Y-85722526D01*
X141213398Y-85695659D01*
X141259966Y-85606644D01*
X141262735Y-85597962D01*
X141577320Y-84565792D01*
X141589532Y-84565792D01*
X141672575Y-84544298D01*
X141697976Y-84470537D01*
X141671109Y-84402149D01*
X141591974Y-84378213D01*
X141225610Y-84378213D01*
X141128896Y-84396245D01*
X141125471Y-84398729D01*
X141099092Y-84470537D01*
X141114235Y-84525736D01*
X141152826Y-84554068D01*
X141207048Y-84563349D01*
X141281786Y-84565792D01*
X141361409Y-84565792D01*
X141124982Y-85418199D01*
X140947662Y-84819316D01*
X140905163Y-84746531D01*
X140824075Y-84726015D01*
X140746894Y-84752882D01*
X140699353Y-84838405D01*
X140696580Y-84846671D01*
X140524633Y-85418199D01*
X140297976Y-84565792D01*
X140331193Y-84565792D01*
X140390300Y-84565792D01*
X140488173Y-84556956D01*
X140518283Y-84545275D01*
X140551011Y-84470537D01*
X140526587Y-84398241D01*
X140429867Y-84378213D01*
X140061549Y-84378213D01*
X139998046Y-84402149D01*
X139976552Y-84470537D01*
X140001465Y-84542344D01*
X140094766Y-84565792D01*
X140403977Y-85626294D01*
X140448429Y-85701032D01*
X140529030Y-85722526D01*
X140607187Y-85695170D01*
X140653069Y-85607815D01*
X140655547Y-85599427D01*
X140835310Y-84961465D01*
G37*
G36*
X139273133Y-83987913D02*
G01*
X139269355Y-83887918D01*
X139246266Y-83793007D01*
X139152500Y-83753577D01*
X139131472Y-83752951D01*
X139033846Y-83773524D01*
X139019120Y-83786657D01*
X138993479Y-83882803D01*
X138991277Y-83946392D01*
X138997627Y-84046043D01*
X139016678Y-84098799D01*
X139110124Y-84127650D01*
X139131472Y-84128108D01*
X139229016Y-84112996D01*
X139246266Y-84101242D01*
X139272897Y-84003518D01*
X139273133Y-83987913D01*
G37*
G36*
X139019120Y-85472421D02*
G01*
X138578018Y-85472421D01*
X138498883Y-85494403D01*
X138473482Y-85564256D01*
X138497418Y-85639483D01*
X138586322Y-85660000D01*
X139652198Y-85660000D01*
X139734752Y-85636064D01*
X139762107Y-85564256D01*
X139733286Y-85495380D01*
X139646824Y-85472421D01*
X139227704Y-85472421D01*
X139227704Y-84565792D01*
X139495882Y-84565792D01*
X139581856Y-84541367D01*
X139611165Y-84470537D01*
X139583810Y-84401660D01*
X139501256Y-84378213D01*
X139098743Y-84378213D01*
X139040614Y-84393845D01*
X139019120Y-84435366D01*
X139019120Y-85472421D01*
G37*
G36*
X137052965Y-84465163D02*
G01*
X137052965Y-84459790D01*
X137027076Y-84398241D01*
X136945498Y-84378213D01*
X136868318Y-84411430D01*
X136847580Y-84512167D01*
X136846824Y-84548695D01*
X136846824Y-84807103D01*
X136873203Y-84884284D01*
X136950872Y-84909685D01*
X137014863Y-84888192D01*
X137073188Y-84809435D01*
X137080321Y-84796845D01*
X137138577Y-84713243D01*
X137211774Y-84643947D01*
X137240544Y-84624410D01*
X137334697Y-84582335D01*
X137433806Y-84566307D01*
X137456454Y-84565792D01*
X137558670Y-84573607D01*
X137661693Y-84601085D01*
X137752042Y-84648346D01*
X137805233Y-84690844D01*
X137869934Y-84766746D01*
X137913460Y-84854317D01*
X137935811Y-84953557D01*
X137939078Y-85013733D01*
X137928916Y-85121654D01*
X137898429Y-85217907D01*
X137847618Y-85302490D01*
X137810607Y-85344438D01*
X137732507Y-85406305D01*
X137642737Y-85447924D01*
X137541299Y-85469296D01*
X137479902Y-85472421D01*
X137379369Y-85464384D01*
X137305024Y-85447020D01*
X137214143Y-85410406D01*
X137147732Y-85370816D01*
X137077390Y-85320013D01*
X136993301Y-85263222D01*
X136937194Y-85247229D01*
X136867829Y-85274096D01*
X136840963Y-85343461D01*
X136880326Y-85440500D01*
X136956642Y-85512446D01*
X137046615Y-85571584D01*
X137137613Y-85618216D01*
X137231089Y-85653395D01*
X137327043Y-85677121D01*
X137425474Y-85689393D01*
X137482833Y-85691263D01*
X137591088Y-85684513D01*
X137692370Y-85664266D01*
X137786680Y-85630521D01*
X137874018Y-85583277D01*
X137954384Y-85522535D01*
X137979623Y-85499288D01*
X138047022Y-85423931D01*
X138100477Y-85341843D01*
X138145216Y-85237564D01*
X138168458Y-85140890D01*
X138177754Y-85037484D01*
X138177948Y-85019595D01*
X138170993Y-84915215D01*
X138150127Y-84817499D01*
X138108203Y-84711918D01*
X138047345Y-84615407D01*
X137980111Y-84539902D01*
X137902436Y-84474328D01*
X137817789Y-84422322D01*
X137726169Y-84383882D01*
X137627577Y-84359009D01*
X137522013Y-84347704D01*
X137485275Y-84346950D01*
X137387516Y-84353283D01*
X137289328Y-84372281D01*
X137276203Y-84375771D01*
X137181542Y-84407066D01*
X137089456Y-84447010D01*
X137052965Y-84465163D01*
G37*
G36*
X136035938Y-85132435D02*
G01*
X136035938Y-85537878D01*
X136058897Y-85626782D01*
X136117027Y-85660000D01*
X136371039Y-85660000D01*
X136452128Y-85636064D01*
X136479483Y-85564256D01*
X136447243Y-85491960D01*
X136346481Y-85473108D01*
X136309490Y-85472421D01*
X136243545Y-85472421D01*
X136243545Y-84047020D01*
X136299720Y-84047020D01*
X136401610Y-84040954D01*
X136452128Y-84025526D01*
X136486322Y-83946880D01*
X136458478Y-83872142D01*
X136376413Y-83846741D01*
X136114096Y-83846741D01*
X136056454Y-83861884D01*
X136035938Y-83903405D01*
X136035938Y-84896985D01*
X135638799Y-84561395D01*
X135705722Y-84518408D01*
X135726727Y-84462233D01*
X135696441Y-84399218D01*
X135608513Y-84378213D01*
X135236287Y-84378213D01*
X135156664Y-84402149D01*
X135129309Y-84473468D01*
X135186741Y-84553229D01*
X135262665Y-84571165D01*
X135303698Y-84576538D01*
X135398330Y-84606174D01*
X135427285Y-84620990D01*
X135511930Y-84676518D01*
X135563084Y-84719176D01*
X135762386Y-84896496D01*
X135241660Y-85472421D01*
X135123935Y-85472421D01*
X135038939Y-85493914D01*
X135013538Y-85564256D01*
X135041870Y-85635575D01*
X135123447Y-85660000D01*
X135496161Y-85660000D01*
X135584089Y-85639483D01*
X135611444Y-85572561D01*
X135584577Y-85508569D01*
X135504466Y-85464605D01*
X135912351Y-85019595D01*
X136035938Y-85132435D01*
G37*
X43488104Y-93190315D02*
X43583342Y-93142696D01*
X43583342Y-93142696D02*
X43630961Y-93047457D01*
X43630961Y-93047457D02*
X43630961Y-92190315D01*
X42964294Y-93190315D02*
X43059532Y-93142696D01*
X43059532Y-93142696D02*
X43107151Y-93095076D01*
X43107151Y-93095076D02*
X43154770Y-92999838D01*
X43154770Y-92999838D02*
X43154770Y-92714124D01*
X43154770Y-92714124D02*
X43107151Y-92618886D01*
X43107151Y-92618886D02*
X43059532Y-92571267D01*
X43059532Y-92571267D02*
X42964294Y-92523648D01*
X42964294Y-92523648D02*
X42821437Y-92523648D01*
X42821437Y-92523648D02*
X42726199Y-92571267D01*
X42726199Y-92571267D02*
X42678580Y-92618886D01*
X42678580Y-92618886D02*
X42630961Y-92714124D01*
X42630961Y-92714124D02*
X42630961Y-92999838D01*
X42630961Y-92999838D02*
X42678580Y-93095076D01*
X42678580Y-93095076D02*
X42726199Y-93142696D01*
X42726199Y-93142696D02*
X42821437Y-93190315D01*
X42821437Y-93190315D02*
X42964294Y-93190315D01*
X42202389Y-92523648D02*
X42202389Y-93190315D01*
X42202389Y-92618886D02*
X42154770Y-92571267D01*
X42154770Y-92571267D02*
X42059532Y-92523648D01*
X42059532Y-92523648D02*
X41916675Y-92523648D01*
X41916675Y-92523648D02*
X41821437Y-92571267D01*
X41821437Y-92571267D02*
X41773818Y-92666505D01*
X41773818Y-92666505D02*
X41773818Y-93190315D01*
X40869056Y-92523648D02*
X40869056Y-93333172D01*
X40869056Y-93333172D02*
X40916675Y-93428410D01*
X40916675Y-93428410D02*
X40964294Y-93476029D01*
X40964294Y-93476029D02*
X41059532Y-93523648D01*
X41059532Y-93523648D02*
X41202389Y-93523648D01*
X41202389Y-93523648D02*
X41297627Y-93476029D01*
X40869056Y-93142696D02*
X40964294Y-93190315D01*
X40964294Y-93190315D02*
X41154770Y-93190315D01*
X41154770Y-93190315D02*
X41250008Y-93142696D01*
X41250008Y-93142696D02*
X41297627Y-93095076D01*
X41297627Y-93095076D02*
X41345246Y-92999838D01*
X41345246Y-92999838D02*
X41345246Y-92714124D01*
X41345246Y-92714124D02*
X41297627Y-92618886D01*
X41297627Y-92618886D02*
X41250008Y-92571267D01*
X41250008Y-92571267D02*
X41154770Y-92523648D01*
X41154770Y-92523648D02*
X40964294Y-92523648D01*
X40964294Y-92523648D02*
X40869056Y-92571267D01*
X198617561Y-102869411D02*
X198665180Y-102964649D01*
X198665180Y-102964649D02*
X198665180Y-103107506D01*
X198665180Y-103107506D02*
X198617561Y-103250363D01*
X198617561Y-103250363D02*
X198522323Y-103345601D01*
X198522323Y-103345601D02*
X198427085Y-103393220D01*
X198427085Y-103393220D02*
X198236609Y-103440839D01*
X198236609Y-103440839D02*
X198093752Y-103440839D01*
X198093752Y-103440839D02*
X197903276Y-103393220D01*
X197903276Y-103393220D02*
X197808038Y-103345601D01*
X197808038Y-103345601D02*
X197712800Y-103250363D01*
X197712800Y-103250363D02*
X197665180Y-103107506D01*
X197665180Y-103107506D02*
X197665180Y-103012268D01*
X197665180Y-103012268D02*
X197712800Y-102869411D01*
X197712800Y-102869411D02*
X197760419Y-102821792D01*
X197760419Y-102821792D02*
X198093752Y-102821792D01*
X198093752Y-102821792D02*
X198093752Y-103012268D01*
X197665180Y-102393220D02*
X198665180Y-102393220D01*
X198665180Y-102393220D02*
X198665180Y-102012268D01*
X198665180Y-102012268D02*
X198617561Y-101917030D01*
X198617561Y-101917030D02*
X198569942Y-101869411D01*
X198569942Y-101869411D02*
X198474704Y-101821792D01*
X198474704Y-101821792D02*
X198331847Y-101821792D01*
X198331847Y-101821792D02*
X198236609Y-101869411D01*
X198236609Y-101869411D02*
X198188990Y-101917030D01*
X198188990Y-101917030D02*
X198141371Y-102012268D01*
X198141371Y-102012268D02*
X198141371Y-102393220D01*
X197665180Y-101393220D02*
X198665180Y-101393220D01*
X198665180Y-100726554D02*
X198665180Y-100536078D01*
X198665180Y-100536078D02*
X198617561Y-100440840D01*
X198617561Y-100440840D02*
X198522323Y-100345602D01*
X198522323Y-100345602D02*
X198331847Y-100297983D01*
X198331847Y-100297983D02*
X197998514Y-100297983D01*
X197998514Y-100297983D02*
X197808038Y-100345602D01*
X197808038Y-100345602D02*
X197712800Y-100440840D01*
X197712800Y-100440840D02*
X197665180Y-100536078D01*
X197665180Y-100536078D02*
X197665180Y-100726554D01*
X197665180Y-100726554D02*
X197712800Y-100821792D01*
X197712800Y-100821792D02*
X197808038Y-100917030D01*
X197808038Y-100917030D02*
X197998514Y-100964649D01*
X197998514Y-100964649D02*
X198331847Y-100964649D01*
X198331847Y-100964649D02*
X198522323Y-100917030D01*
X198522323Y-100917030D02*
X198617561Y-100821792D01*
X198617561Y-100821792D02*
X198665180Y-100726554D01*
X197665180Y-99345602D02*
X197665180Y-99917030D01*
X197665180Y-99631316D02*
X198665180Y-99631316D01*
X198665180Y-99631316D02*
X198522323Y-99726554D01*
X198522323Y-99726554D02*
X198427085Y-99821792D01*
X198427085Y-99821792D02*
X198379466Y-99917030D01*
X196077561Y-96519411D02*
X196125180Y-96614649D01*
X196125180Y-96614649D02*
X196125180Y-96757506D01*
X196125180Y-96757506D02*
X196077561Y-96900363D01*
X196077561Y-96900363D02*
X195982323Y-96995601D01*
X195982323Y-96995601D02*
X195887085Y-97043220D01*
X195887085Y-97043220D02*
X195696609Y-97090839D01*
X195696609Y-97090839D02*
X195553752Y-97090839D01*
X195553752Y-97090839D02*
X195363276Y-97043220D01*
X195363276Y-97043220D02*
X195268038Y-96995601D01*
X195268038Y-96995601D02*
X195172800Y-96900363D01*
X195172800Y-96900363D02*
X195125180Y-96757506D01*
X195125180Y-96757506D02*
X195125180Y-96662268D01*
X195125180Y-96662268D02*
X195172800Y-96519411D01*
X195172800Y-96519411D02*
X195220419Y-96471792D01*
X195220419Y-96471792D02*
X195553752Y-96471792D01*
X195553752Y-96471792D02*
X195553752Y-96662268D01*
X195125180Y-96043220D02*
X196125180Y-96043220D01*
X196125180Y-96043220D02*
X196125180Y-95662268D01*
X196125180Y-95662268D02*
X196077561Y-95567030D01*
X196077561Y-95567030D02*
X196029942Y-95519411D01*
X196029942Y-95519411D02*
X195934704Y-95471792D01*
X195934704Y-95471792D02*
X195791847Y-95471792D01*
X195791847Y-95471792D02*
X195696609Y-95519411D01*
X195696609Y-95519411D02*
X195648990Y-95567030D01*
X195648990Y-95567030D02*
X195601371Y-95662268D01*
X195601371Y-95662268D02*
X195601371Y-96043220D01*
X195125180Y-95043220D02*
X196125180Y-95043220D01*
X196125180Y-94376554D02*
X196125180Y-94186078D01*
X196125180Y-94186078D02*
X196077561Y-94090840D01*
X196077561Y-94090840D02*
X195982323Y-93995602D01*
X195982323Y-93995602D02*
X195791847Y-93947983D01*
X195791847Y-93947983D02*
X195458514Y-93947983D01*
X195458514Y-93947983D02*
X195268038Y-93995602D01*
X195268038Y-93995602D02*
X195172800Y-94090840D01*
X195172800Y-94090840D02*
X195125180Y-94186078D01*
X195125180Y-94186078D02*
X195125180Y-94376554D01*
X195125180Y-94376554D02*
X195172800Y-94471792D01*
X195172800Y-94471792D02*
X195268038Y-94567030D01*
X195268038Y-94567030D02*
X195458514Y-94614649D01*
X195458514Y-94614649D02*
X195791847Y-94614649D01*
X195791847Y-94614649D02*
X195982323Y-94567030D01*
X195982323Y-94567030D02*
X196077561Y-94471792D01*
X196077561Y-94471792D02*
X196125180Y-94376554D01*
X195125180Y-92995602D02*
X195125180Y-93567030D01*
X195125180Y-93281316D02*
X196125180Y-93281316D01*
X196125180Y-93281316D02*
X195982323Y-93376554D01*
X195982323Y-93376554D02*
X195887085Y-93471792D01*
X195887085Y-93471792D02*
X195839466Y-93567030D01*
X195125180Y-92043221D02*
X195125180Y-92614649D01*
X195125180Y-92328935D02*
X196125180Y-92328935D01*
X196125180Y-92328935D02*
X195982323Y-92424173D01*
X195982323Y-92424173D02*
X195887085Y-92519411D01*
X195887085Y-92519411D02*
X195839466Y-92614649D01*
X201205180Y-103488458D02*
X201205180Y-102869411D01*
X201205180Y-102869411D02*
X200824228Y-103202744D01*
X200824228Y-103202744D02*
X200824228Y-103059887D01*
X200824228Y-103059887D02*
X200776609Y-102964649D01*
X200776609Y-102964649D02*
X200728990Y-102917030D01*
X200728990Y-102917030D02*
X200633752Y-102869411D01*
X200633752Y-102869411D02*
X200395657Y-102869411D01*
X200395657Y-102869411D02*
X200300419Y-102917030D01*
X200300419Y-102917030D02*
X200252800Y-102964649D01*
X200252800Y-102964649D02*
X200205180Y-103059887D01*
X200205180Y-103059887D02*
X200205180Y-103345601D01*
X200205180Y-103345601D02*
X200252800Y-103440839D01*
X200252800Y-103440839D02*
X200300419Y-103488458D01*
X201205180Y-102583696D02*
X200205180Y-102250363D01*
X200205180Y-102250363D02*
X201205180Y-101917030D01*
X201205180Y-101678934D02*
X201205180Y-101059887D01*
X201205180Y-101059887D02*
X200824228Y-101393220D01*
X200824228Y-101393220D02*
X200824228Y-101250363D01*
X200824228Y-101250363D02*
X200776609Y-101155125D01*
X200776609Y-101155125D02*
X200728990Y-101107506D01*
X200728990Y-101107506D02*
X200633752Y-101059887D01*
X200633752Y-101059887D02*
X200395657Y-101059887D01*
X200395657Y-101059887D02*
X200300419Y-101107506D01*
X200300419Y-101107506D02*
X200252800Y-101155125D01*
X200252800Y-101155125D02*
X200205180Y-101250363D01*
X200205180Y-101250363D02*
X200205180Y-101536077D01*
X200205180Y-101536077D02*
X200252800Y-101631315D01*
X200252800Y-101631315D02*
X200300419Y-101678934D01*
X188457561Y-95519411D02*
X188505180Y-95614649D01*
X188505180Y-95614649D02*
X188505180Y-95757506D01*
X188505180Y-95757506D02*
X188457561Y-95900363D01*
X188457561Y-95900363D02*
X188362323Y-95995601D01*
X188362323Y-95995601D02*
X188267085Y-96043220D01*
X188267085Y-96043220D02*
X188076609Y-96090839D01*
X188076609Y-96090839D02*
X187933752Y-96090839D01*
X187933752Y-96090839D02*
X187743276Y-96043220D01*
X187743276Y-96043220D02*
X187648038Y-95995601D01*
X187648038Y-95995601D02*
X187552800Y-95900363D01*
X187552800Y-95900363D02*
X187505180Y-95757506D01*
X187505180Y-95757506D02*
X187505180Y-95662268D01*
X187505180Y-95662268D02*
X187552800Y-95519411D01*
X187552800Y-95519411D02*
X187600419Y-95471792D01*
X187600419Y-95471792D02*
X187933752Y-95471792D01*
X187933752Y-95471792D02*
X187933752Y-95662268D01*
X187505180Y-95043220D02*
X188505180Y-95043220D01*
X188505180Y-95043220D02*
X188505180Y-94662268D01*
X188505180Y-94662268D02*
X188457561Y-94567030D01*
X188457561Y-94567030D02*
X188409942Y-94519411D01*
X188409942Y-94519411D02*
X188314704Y-94471792D01*
X188314704Y-94471792D02*
X188171847Y-94471792D01*
X188171847Y-94471792D02*
X188076609Y-94519411D01*
X188076609Y-94519411D02*
X188028990Y-94567030D01*
X188028990Y-94567030D02*
X187981371Y-94662268D01*
X187981371Y-94662268D02*
X187981371Y-95043220D01*
X187505180Y-94043220D02*
X188505180Y-94043220D01*
X188505180Y-93376554D02*
X188505180Y-93186078D01*
X188505180Y-93186078D02*
X188457561Y-93090840D01*
X188457561Y-93090840D02*
X188362323Y-92995602D01*
X188362323Y-92995602D02*
X188171847Y-92947983D01*
X188171847Y-92947983D02*
X187838514Y-92947983D01*
X187838514Y-92947983D02*
X187648038Y-92995602D01*
X187648038Y-92995602D02*
X187552800Y-93090840D01*
X187552800Y-93090840D02*
X187505180Y-93186078D01*
X187505180Y-93186078D02*
X187505180Y-93376554D01*
X187505180Y-93376554D02*
X187552800Y-93471792D01*
X187552800Y-93471792D02*
X187648038Y-93567030D01*
X187648038Y-93567030D02*
X187838514Y-93614649D01*
X187838514Y-93614649D02*
X188171847Y-93614649D01*
X188171847Y-93614649D02*
X188362323Y-93567030D01*
X188362323Y-93567030D02*
X188457561Y-93471792D01*
X188457561Y-93471792D02*
X188505180Y-93376554D01*
X188076609Y-92376554D02*
X188124228Y-92471792D01*
X188124228Y-92471792D02*
X188171847Y-92519411D01*
X188171847Y-92519411D02*
X188267085Y-92567030D01*
X188267085Y-92567030D02*
X188314704Y-92567030D01*
X188314704Y-92567030D02*
X188409942Y-92519411D01*
X188409942Y-92519411D02*
X188457561Y-92471792D01*
X188457561Y-92471792D02*
X188505180Y-92376554D01*
X188505180Y-92376554D02*
X188505180Y-92186078D01*
X188505180Y-92186078D02*
X188457561Y-92090840D01*
X188457561Y-92090840D02*
X188409942Y-92043221D01*
X188409942Y-92043221D02*
X188314704Y-91995602D01*
X188314704Y-91995602D02*
X188267085Y-91995602D01*
X188267085Y-91995602D02*
X188171847Y-92043221D01*
X188171847Y-92043221D02*
X188124228Y-92090840D01*
X188124228Y-92090840D02*
X188076609Y-92186078D01*
X188076609Y-92186078D02*
X188076609Y-92376554D01*
X188076609Y-92376554D02*
X188028990Y-92471792D01*
X188028990Y-92471792D02*
X187981371Y-92519411D01*
X187981371Y-92519411D02*
X187886133Y-92567030D01*
X187886133Y-92567030D02*
X187695657Y-92567030D01*
X187695657Y-92567030D02*
X187600419Y-92519411D01*
X187600419Y-92519411D02*
X187552800Y-92471792D01*
X187552800Y-92471792D02*
X187505180Y-92376554D01*
X187505180Y-92376554D02*
X187505180Y-92186078D01*
X187505180Y-92186078D02*
X187552800Y-92090840D01*
X187552800Y-92090840D02*
X187600419Y-92043221D01*
X187600419Y-92043221D02*
X187695657Y-91995602D01*
X187695657Y-91995602D02*
X187886133Y-91995602D01*
X187886133Y-91995602D02*
X187981371Y-92043221D01*
X187981371Y-92043221D02*
X188028990Y-92090840D01*
X188028990Y-92090840D02*
X188076609Y-92186078D01*
X202745180Y-93311542D02*
X203221371Y-93644875D01*
X202745180Y-93882970D02*
X203745180Y-93882970D01*
X203745180Y-93882970D02*
X203745180Y-93502018D01*
X203745180Y-93502018D02*
X203697561Y-93406780D01*
X203697561Y-93406780D02*
X203649942Y-93359161D01*
X203649942Y-93359161D02*
X203554704Y-93311542D01*
X203554704Y-93311542D02*
X203411847Y-93311542D01*
X203411847Y-93311542D02*
X203316609Y-93359161D01*
X203316609Y-93359161D02*
X203268990Y-93406780D01*
X203268990Y-93406780D02*
X203221371Y-93502018D01*
X203221371Y-93502018D02*
X203221371Y-93882970D01*
X203745180Y-92978208D02*
X202745180Y-92311542D01*
X203745180Y-92311542D02*
X202745180Y-92978208D01*
X185917561Y-102639412D02*
X185965180Y-102734650D01*
X185965180Y-102734650D02*
X185965180Y-102877507D01*
X185965180Y-102877507D02*
X185917561Y-103020364D01*
X185917561Y-103020364D02*
X185822323Y-103115602D01*
X185822323Y-103115602D02*
X185727085Y-103163221D01*
X185727085Y-103163221D02*
X185536609Y-103210840D01*
X185536609Y-103210840D02*
X185393752Y-103210840D01*
X185393752Y-103210840D02*
X185203276Y-103163221D01*
X185203276Y-103163221D02*
X185108038Y-103115602D01*
X185108038Y-103115602D02*
X185012800Y-103020364D01*
X185012800Y-103020364D02*
X184965180Y-102877507D01*
X184965180Y-102877507D02*
X184965180Y-102782269D01*
X184965180Y-102782269D02*
X185012800Y-102639412D01*
X185012800Y-102639412D02*
X185060419Y-102591793D01*
X185060419Y-102591793D02*
X185393752Y-102591793D01*
X185393752Y-102591793D02*
X185393752Y-102782269D01*
X184965180Y-102163221D02*
X185965180Y-102163221D01*
X185965180Y-102163221D02*
X185965180Y-101782269D01*
X185965180Y-101782269D02*
X185917561Y-101687031D01*
X185917561Y-101687031D02*
X185869942Y-101639412D01*
X185869942Y-101639412D02*
X185774704Y-101591793D01*
X185774704Y-101591793D02*
X185631847Y-101591793D01*
X185631847Y-101591793D02*
X185536609Y-101639412D01*
X185536609Y-101639412D02*
X185488990Y-101687031D01*
X185488990Y-101687031D02*
X185441371Y-101782269D01*
X185441371Y-101782269D02*
X185441371Y-102163221D01*
X184965180Y-101163221D02*
X185965180Y-101163221D01*
X185965180Y-100496555D02*
X185965180Y-100306079D01*
X185965180Y-100306079D02*
X185917561Y-100210841D01*
X185917561Y-100210841D02*
X185822323Y-100115603D01*
X185822323Y-100115603D02*
X185631847Y-100067984D01*
X185631847Y-100067984D02*
X185298514Y-100067984D01*
X185298514Y-100067984D02*
X185108038Y-100115603D01*
X185108038Y-100115603D02*
X185012800Y-100210841D01*
X185012800Y-100210841D02*
X184965180Y-100306079D01*
X184965180Y-100306079D02*
X184965180Y-100496555D01*
X184965180Y-100496555D02*
X185012800Y-100591793D01*
X185012800Y-100591793D02*
X185108038Y-100687031D01*
X185108038Y-100687031D02*
X185298514Y-100734650D01*
X185298514Y-100734650D02*
X185631847Y-100734650D01*
X185631847Y-100734650D02*
X185822323Y-100687031D01*
X185822323Y-100687031D02*
X185917561Y-100591793D01*
X185917561Y-100591793D02*
X185965180Y-100496555D01*
X185965180Y-99210841D02*
X185965180Y-99401317D01*
X185965180Y-99401317D02*
X185917561Y-99496555D01*
X185917561Y-99496555D02*
X185869942Y-99544174D01*
X185869942Y-99544174D02*
X185727085Y-99639412D01*
X185727085Y-99639412D02*
X185536609Y-99687031D01*
X185536609Y-99687031D02*
X185155657Y-99687031D01*
X185155657Y-99687031D02*
X185060419Y-99639412D01*
X185060419Y-99639412D02*
X185012800Y-99591793D01*
X185012800Y-99591793D02*
X184965180Y-99496555D01*
X184965180Y-99496555D02*
X184965180Y-99306079D01*
X184965180Y-99306079D02*
X185012800Y-99210841D01*
X185012800Y-99210841D02*
X185060419Y-99163222D01*
X185060419Y-99163222D02*
X185155657Y-99115603D01*
X185155657Y-99115603D02*
X185393752Y-99115603D01*
X185393752Y-99115603D02*
X185488990Y-99163222D01*
X185488990Y-99163222D02*
X185536609Y-99210841D01*
X185536609Y-99210841D02*
X185584228Y-99306079D01*
X185584228Y-99306079D02*
X185584228Y-99496555D01*
X185584228Y-99496555D02*
X185536609Y-99591793D01*
X185536609Y-99591793D02*
X185488990Y-99639412D01*
X185488990Y-99639412D02*
X185393752Y-99687031D01*
X193537561Y-102639412D02*
X193585180Y-102734650D01*
X193585180Y-102734650D02*
X193585180Y-102877507D01*
X193585180Y-102877507D02*
X193537561Y-103020364D01*
X193537561Y-103020364D02*
X193442323Y-103115602D01*
X193442323Y-103115602D02*
X193347085Y-103163221D01*
X193347085Y-103163221D02*
X193156609Y-103210840D01*
X193156609Y-103210840D02*
X193013752Y-103210840D01*
X193013752Y-103210840D02*
X192823276Y-103163221D01*
X192823276Y-103163221D02*
X192728038Y-103115602D01*
X192728038Y-103115602D02*
X192632800Y-103020364D01*
X192632800Y-103020364D02*
X192585180Y-102877507D01*
X192585180Y-102877507D02*
X192585180Y-102782269D01*
X192585180Y-102782269D02*
X192632800Y-102639412D01*
X192632800Y-102639412D02*
X192680419Y-102591793D01*
X192680419Y-102591793D02*
X193013752Y-102591793D01*
X193013752Y-102591793D02*
X193013752Y-102782269D01*
X192585180Y-102163221D02*
X193585180Y-102163221D01*
X193585180Y-102163221D02*
X193585180Y-101782269D01*
X193585180Y-101782269D02*
X193537561Y-101687031D01*
X193537561Y-101687031D02*
X193489942Y-101639412D01*
X193489942Y-101639412D02*
X193394704Y-101591793D01*
X193394704Y-101591793D02*
X193251847Y-101591793D01*
X193251847Y-101591793D02*
X193156609Y-101639412D01*
X193156609Y-101639412D02*
X193108990Y-101687031D01*
X193108990Y-101687031D02*
X193061371Y-101782269D01*
X193061371Y-101782269D02*
X193061371Y-102163221D01*
X192585180Y-101163221D02*
X193585180Y-101163221D01*
X193585180Y-100496555D02*
X193585180Y-100306079D01*
X193585180Y-100306079D02*
X193537561Y-100210841D01*
X193537561Y-100210841D02*
X193442323Y-100115603D01*
X193442323Y-100115603D02*
X193251847Y-100067984D01*
X193251847Y-100067984D02*
X192918514Y-100067984D01*
X192918514Y-100067984D02*
X192728038Y-100115603D01*
X192728038Y-100115603D02*
X192632800Y-100210841D01*
X192632800Y-100210841D02*
X192585180Y-100306079D01*
X192585180Y-100306079D02*
X192585180Y-100496555D01*
X192585180Y-100496555D02*
X192632800Y-100591793D01*
X192632800Y-100591793D02*
X192728038Y-100687031D01*
X192728038Y-100687031D02*
X192918514Y-100734650D01*
X192918514Y-100734650D02*
X193251847Y-100734650D01*
X193251847Y-100734650D02*
X193442323Y-100687031D01*
X193442323Y-100687031D02*
X193537561Y-100591793D01*
X193537561Y-100591793D02*
X193585180Y-100496555D01*
X193585180Y-99734650D02*
X193585180Y-99115603D01*
X193585180Y-99115603D02*
X193204228Y-99448936D01*
X193204228Y-99448936D02*
X193204228Y-99306079D01*
X193204228Y-99306079D02*
X193156609Y-99210841D01*
X193156609Y-99210841D02*
X193108990Y-99163222D01*
X193108990Y-99163222D02*
X193013752Y-99115603D01*
X193013752Y-99115603D02*
X192775657Y-99115603D01*
X192775657Y-99115603D02*
X192680419Y-99163222D01*
X192680419Y-99163222D02*
X192632800Y-99210841D01*
X192632800Y-99210841D02*
X192585180Y-99306079D01*
X192585180Y-99306079D02*
X192585180Y-99591793D01*
X192585180Y-99591793D02*
X192632800Y-99687031D01*
X192632800Y-99687031D02*
X192680419Y-99734650D01*
X196077561Y-102869411D02*
X196125180Y-102964649D01*
X196125180Y-102964649D02*
X196125180Y-103107506D01*
X196125180Y-103107506D02*
X196077561Y-103250363D01*
X196077561Y-103250363D02*
X195982323Y-103345601D01*
X195982323Y-103345601D02*
X195887085Y-103393220D01*
X195887085Y-103393220D02*
X195696609Y-103440839D01*
X195696609Y-103440839D02*
X195553752Y-103440839D01*
X195553752Y-103440839D02*
X195363276Y-103393220D01*
X195363276Y-103393220D02*
X195268038Y-103345601D01*
X195268038Y-103345601D02*
X195172800Y-103250363D01*
X195172800Y-103250363D02*
X195125180Y-103107506D01*
X195125180Y-103107506D02*
X195125180Y-103012268D01*
X195125180Y-103012268D02*
X195172800Y-102869411D01*
X195172800Y-102869411D02*
X195220419Y-102821792D01*
X195220419Y-102821792D02*
X195553752Y-102821792D01*
X195553752Y-102821792D02*
X195553752Y-103012268D01*
X195125180Y-102393220D02*
X196125180Y-102393220D01*
X196125180Y-102393220D02*
X196125180Y-102012268D01*
X196125180Y-102012268D02*
X196077561Y-101917030D01*
X196077561Y-101917030D02*
X196029942Y-101869411D01*
X196029942Y-101869411D02*
X195934704Y-101821792D01*
X195934704Y-101821792D02*
X195791847Y-101821792D01*
X195791847Y-101821792D02*
X195696609Y-101869411D01*
X195696609Y-101869411D02*
X195648990Y-101917030D01*
X195648990Y-101917030D02*
X195601371Y-102012268D01*
X195601371Y-102012268D02*
X195601371Y-102393220D01*
X195125180Y-101393220D02*
X196125180Y-101393220D01*
X196125180Y-100726554D02*
X196125180Y-100536078D01*
X196125180Y-100536078D02*
X196077561Y-100440840D01*
X196077561Y-100440840D02*
X195982323Y-100345602D01*
X195982323Y-100345602D02*
X195791847Y-100297983D01*
X195791847Y-100297983D02*
X195458514Y-100297983D01*
X195458514Y-100297983D02*
X195268038Y-100345602D01*
X195268038Y-100345602D02*
X195172800Y-100440840D01*
X195172800Y-100440840D02*
X195125180Y-100536078D01*
X195125180Y-100536078D02*
X195125180Y-100726554D01*
X195125180Y-100726554D02*
X195172800Y-100821792D01*
X195172800Y-100821792D02*
X195268038Y-100917030D01*
X195268038Y-100917030D02*
X195458514Y-100964649D01*
X195458514Y-100964649D02*
X195791847Y-100964649D01*
X195791847Y-100964649D02*
X195982323Y-100917030D01*
X195982323Y-100917030D02*
X196077561Y-100821792D01*
X196077561Y-100821792D02*
X196125180Y-100726554D01*
X196029942Y-99917030D02*
X196077561Y-99869411D01*
X196077561Y-99869411D02*
X196125180Y-99774173D01*
X196125180Y-99774173D02*
X196125180Y-99536078D01*
X196125180Y-99536078D02*
X196077561Y-99440840D01*
X196077561Y-99440840D02*
X196029942Y-99393221D01*
X196029942Y-99393221D02*
X195934704Y-99345602D01*
X195934704Y-99345602D02*
X195839466Y-99345602D01*
X195839466Y-99345602D02*
X195696609Y-99393221D01*
X195696609Y-99393221D02*
X195125180Y-99964649D01*
X195125180Y-99964649D02*
X195125180Y-99345602D01*
X193537561Y-96519411D02*
X193585180Y-96614649D01*
X193585180Y-96614649D02*
X193585180Y-96757506D01*
X193585180Y-96757506D02*
X193537561Y-96900363D01*
X193537561Y-96900363D02*
X193442323Y-96995601D01*
X193442323Y-96995601D02*
X193347085Y-97043220D01*
X193347085Y-97043220D02*
X193156609Y-97090839D01*
X193156609Y-97090839D02*
X193013752Y-97090839D01*
X193013752Y-97090839D02*
X192823276Y-97043220D01*
X192823276Y-97043220D02*
X192728038Y-96995601D01*
X192728038Y-96995601D02*
X192632800Y-96900363D01*
X192632800Y-96900363D02*
X192585180Y-96757506D01*
X192585180Y-96757506D02*
X192585180Y-96662268D01*
X192585180Y-96662268D02*
X192632800Y-96519411D01*
X192632800Y-96519411D02*
X192680419Y-96471792D01*
X192680419Y-96471792D02*
X193013752Y-96471792D01*
X193013752Y-96471792D02*
X193013752Y-96662268D01*
X192585180Y-96043220D02*
X193585180Y-96043220D01*
X193585180Y-96043220D02*
X193585180Y-95662268D01*
X193585180Y-95662268D02*
X193537561Y-95567030D01*
X193537561Y-95567030D02*
X193489942Y-95519411D01*
X193489942Y-95519411D02*
X193394704Y-95471792D01*
X193394704Y-95471792D02*
X193251847Y-95471792D01*
X193251847Y-95471792D02*
X193156609Y-95519411D01*
X193156609Y-95519411D02*
X193108990Y-95567030D01*
X193108990Y-95567030D02*
X193061371Y-95662268D01*
X193061371Y-95662268D02*
X193061371Y-96043220D01*
X192585180Y-95043220D02*
X193585180Y-95043220D01*
X193585180Y-94376554D02*
X193585180Y-94186078D01*
X193585180Y-94186078D02*
X193537561Y-94090840D01*
X193537561Y-94090840D02*
X193442323Y-93995602D01*
X193442323Y-93995602D02*
X193251847Y-93947983D01*
X193251847Y-93947983D02*
X192918514Y-93947983D01*
X192918514Y-93947983D02*
X192728038Y-93995602D01*
X192728038Y-93995602D02*
X192632800Y-94090840D01*
X192632800Y-94090840D02*
X192585180Y-94186078D01*
X192585180Y-94186078D02*
X192585180Y-94376554D01*
X192585180Y-94376554D02*
X192632800Y-94471792D01*
X192632800Y-94471792D02*
X192728038Y-94567030D01*
X192728038Y-94567030D02*
X192918514Y-94614649D01*
X192918514Y-94614649D02*
X193251847Y-94614649D01*
X193251847Y-94614649D02*
X193442323Y-94567030D01*
X193442323Y-94567030D02*
X193537561Y-94471792D01*
X193537561Y-94471792D02*
X193585180Y-94376554D01*
X192585180Y-92995602D02*
X192585180Y-93567030D01*
X192585180Y-93281316D02*
X193585180Y-93281316D01*
X193585180Y-93281316D02*
X193442323Y-93376554D01*
X193442323Y-93376554D02*
X193347085Y-93471792D01*
X193347085Y-93471792D02*
X193299466Y-93567030D01*
X193585180Y-92376554D02*
X193585180Y-92281316D01*
X193585180Y-92281316D02*
X193537561Y-92186078D01*
X193537561Y-92186078D02*
X193489942Y-92138459D01*
X193489942Y-92138459D02*
X193394704Y-92090840D01*
X193394704Y-92090840D02*
X193204228Y-92043221D01*
X193204228Y-92043221D02*
X192966133Y-92043221D01*
X192966133Y-92043221D02*
X192775657Y-92090840D01*
X192775657Y-92090840D02*
X192680419Y-92138459D01*
X192680419Y-92138459D02*
X192632800Y-92186078D01*
X192632800Y-92186078D02*
X192585180Y-92281316D01*
X192585180Y-92281316D02*
X192585180Y-92376554D01*
X192585180Y-92376554D02*
X192632800Y-92471792D01*
X192632800Y-92471792D02*
X192680419Y-92519411D01*
X192680419Y-92519411D02*
X192775657Y-92567030D01*
X192775657Y-92567030D02*
X192966133Y-92614649D01*
X192966133Y-92614649D02*
X193204228Y-92614649D01*
X193204228Y-92614649D02*
X193394704Y-92567030D01*
X193394704Y-92567030D02*
X193489942Y-92519411D01*
X193489942Y-92519411D02*
X193537561Y-92471792D01*
X193537561Y-92471792D02*
X193585180Y-92376554D01*
X206285180Y-93787732D02*
X206285180Y-93216304D01*
X205285180Y-93502018D02*
X206285180Y-93502018D01*
X206285180Y-92978208D02*
X205285180Y-92311542D01*
X206285180Y-92311542D02*
X205285180Y-92978208D01*
X188457561Y-102639412D02*
X188505180Y-102734650D01*
X188505180Y-102734650D02*
X188505180Y-102877507D01*
X188505180Y-102877507D02*
X188457561Y-103020364D01*
X188457561Y-103020364D02*
X188362323Y-103115602D01*
X188362323Y-103115602D02*
X188267085Y-103163221D01*
X188267085Y-103163221D02*
X188076609Y-103210840D01*
X188076609Y-103210840D02*
X187933752Y-103210840D01*
X187933752Y-103210840D02*
X187743276Y-103163221D01*
X187743276Y-103163221D02*
X187648038Y-103115602D01*
X187648038Y-103115602D02*
X187552800Y-103020364D01*
X187552800Y-103020364D02*
X187505180Y-102877507D01*
X187505180Y-102877507D02*
X187505180Y-102782269D01*
X187505180Y-102782269D02*
X187552800Y-102639412D01*
X187552800Y-102639412D02*
X187600419Y-102591793D01*
X187600419Y-102591793D02*
X187933752Y-102591793D01*
X187933752Y-102591793D02*
X187933752Y-102782269D01*
X187505180Y-102163221D02*
X188505180Y-102163221D01*
X188505180Y-102163221D02*
X188505180Y-101782269D01*
X188505180Y-101782269D02*
X188457561Y-101687031D01*
X188457561Y-101687031D02*
X188409942Y-101639412D01*
X188409942Y-101639412D02*
X188314704Y-101591793D01*
X188314704Y-101591793D02*
X188171847Y-101591793D01*
X188171847Y-101591793D02*
X188076609Y-101639412D01*
X188076609Y-101639412D02*
X188028990Y-101687031D01*
X188028990Y-101687031D02*
X187981371Y-101782269D01*
X187981371Y-101782269D02*
X187981371Y-102163221D01*
X187505180Y-101163221D02*
X188505180Y-101163221D01*
X188505180Y-100496555D02*
X188505180Y-100306079D01*
X188505180Y-100306079D02*
X188457561Y-100210841D01*
X188457561Y-100210841D02*
X188362323Y-100115603D01*
X188362323Y-100115603D02*
X188171847Y-100067984D01*
X188171847Y-100067984D02*
X187838514Y-100067984D01*
X187838514Y-100067984D02*
X187648038Y-100115603D01*
X187648038Y-100115603D02*
X187552800Y-100210841D01*
X187552800Y-100210841D02*
X187505180Y-100306079D01*
X187505180Y-100306079D02*
X187505180Y-100496555D01*
X187505180Y-100496555D02*
X187552800Y-100591793D01*
X187552800Y-100591793D02*
X187648038Y-100687031D01*
X187648038Y-100687031D02*
X187838514Y-100734650D01*
X187838514Y-100734650D02*
X188171847Y-100734650D01*
X188171847Y-100734650D02*
X188362323Y-100687031D01*
X188362323Y-100687031D02*
X188457561Y-100591793D01*
X188457561Y-100591793D02*
X188505180Y-100496555D01*
X188505180Y-99163222D02*
X188505180Y-99639412D01*
X188505180Y-99639412D02*
X188028990Y-99687031D01*
X188028990Y-99687031D02*
X188076609Y-99639412D01*
X188076609Y-99639412D02*
X188124228Y-99544174D01*
X188124228Y-99544174D02*
X188124228Y-99306079D01*
X188124228Y-99306079D02*
X188076609Y-99210841D01*
X188076609Y-99210841D02*
X188028990Y-99163222D01*
X188028990Y-99163222D02*
X187933752Y-99115603D01*
X187933752Y-99115603D02*
X187695657Y-99115603D01*
X187695657Y-99115603D02*
X187600419Y-99163222D01*
X187600419Y-99163222D02*
X187552800Y-99210841D01*
X187552800Y-99210841D02*
X187505180Y-99306079D01*
X187505180Y-99306079D02*
X187505180Y-99544174D01*
X187505180Y-99544174D02*
X187552800Y-99639412D01*
X187552800Y-99639412D02*
X187600419Y-99687031D01*
X202702438Y-101345601D02*
X202654819Y-101250363D01*
X202654819Y-101250363D02*
X202654819Y-101107506D01*
X202654819Y-101107506D02*
X202702438Y-100964649D01*
X202702438Y-100964649D02*
X202797676Y-100869411D01*
X202797676Y-100869411D02*
X202892914Y-100821792D01*
X202892914Y-100821792D02*
X203083390Y-100774173D01*
X203083390Y-100774173D02*
X203226247Y-100774173D01*
X203226247Y-100774173D02*
X203416723Y-100821792D01*
X203416723Y-100821792D02*
X203511961Y-100869411D01*
X203511961Y-100869411D02*
X203607200Y-100964649D01*
X203607200Y-100964649D02*
X203654819Y-101107506D01*
X203654819Y-101107506D02*
X203654819Y-101202744D01*
X203654819Y-101202744D02*
X203607200Y-101345601D01*
X203607200Y-101345601D02*
X203559580Y-101393220D01*
X203559580Y-101393220D02*
X203226247Y-101393220D01*
X203226247Y-101393220D02*
X203226247Y-101202744D01*
X203654819Y-101821792D02*
X202654819Y-101821792D01*
X202654819Y-101821792D02*
X203654819Y-102393220D01*
X203654819Y-102393220D02*
X202654819Y-102393220D01*
X203654819Y-102869411D02*
X202654819Y-102869411D01*
X202654819Y-102869411D02*
X202654819Y-103107506D01*
X202654819Y-103107506D02*
X202702438Y-103250363D01*
X202702438Y-103250363D02*
X202797676Y-103345601D01*
X202797676Y-103345601D02*
X202892914Y-103393220D01*
X202892914Y-103393220D02*
X203083390Y-103440839D01*
X203083390Y-103440839D02*
X203226247Y-103440839D01*
X203226247Y-103440839D02*
X203416723Y-103393220D01*
X203416723Y-103393220D02*
X203511961Y-103345601D01*
X203511961Y-103345601D02*
X203607200Y-103250363D01*
X203607200Y-103250363D02*
X203654819Y-103107506D01*
X203654819Y-103107506D02*
X203654819Y-102869411D01*
X201157561Y-96519411D02*
X201205180Y-96614649D01*
X201205180Y-96614649D02*
X201205180Y-96757506D01*
X201205180Y-96757506D02*
X201157561Y-96900363D01*
X201157561Y-96900363D02*
X201062323Y-96995601D01*
X201062323Y-96995601D02*
X200967085Y-97043220D01*
X200967085Y-97043220D02*
X200776609Y-97090839D01*
X200776609Y-97090839D02*
X200633752Y-97090839D01*
X200633752Y-97090839D02*
X200443276Y-97043220D01*
X200443276Y-97043220D02*
X200348038Y-96995601D01*
X200348038Y-96995601D02*
X200252800Y-96900363D01*
X200252800Y-96900363D02*
X200205180Y-96757506D01*
X200205180Y-96757506D02*
X200205180Y-96662268D01*
X200205180Y-96662268D02*
X200252800Y-96519411D01*
X200252800Y-96519411D02*
X200300419Y-96471792D01*
X200300419Y-96471792D02*
X200633752Y-96471792D01*
X200633752Y-96471792D02*
X200633752Y-96662268D01*
X200205180Y-96043220D02*
X201205180Y-96043220D01*
X201205180Y-96043220D02*
X201205180Y-95662268D01*
X201205180Y-95662268D02*
X201157561Y-95567030D01*
X201157561Y-95567030D02*
X201109942Y-95519411D01*
X201109942Y-95519411D02*
X201014704Y-95471792D01*
X201014704Y-95471792D02*
X200871847Y-95471792D01*
X200871847Y-95471792D02*
X200776609Y-95519411D01*
X200776609Y-95519411D02*
X200728990Y-95567030D01*
X200728990Y-95567030D02*
X200681371Y-95662268D01*
X200681371Y-95662268D02*
X200681371Y-96043220D01*
X200205180Y-95043220D02*
X201205180Y-95043220D01*
X201205180Y-94376554D02*
X201205180Y-94186078D01*
X201205180Y-94186078D02*
X201157561Y-94090840D01*
X201157561Y-94090840D02*
X201062323Y-93995602D01*
X201062323Y-93995602D02*
X200871847Y-93947983D01*
X200871847Y-93947983D02*
X200538514Y-93947983D01*
X200538514Y-93947983D02*
X200348038Y-93995602D01*
X200348038Y-93995602D02*
X200252800Y-94090840D01*
X200252800Y-94090840D02*
X200205180Y-94186078D01*
X200205180Y-94186078D02*
X200205180Y-94376554D01*
X200205180Y-94376554D02*
X200252800Y-94471792D01*
X200252800Y-94471792D02*
X200348038Y-94567030D01*
X200348038Y-94567030D02*
X200538514Y-94614649D01*
X200538514Y-94614649D02*
X200871847Y-94614649D01*
X200871847Y-94614649D02*
X201062323Y-94567030D01*
X201062323Y-94567030D02*
X201157561Y-94471792D01*
X201157561Y-94471792D02*
X201205180Y-94376554D01*
X200205180Y-92995602D02*
X200205180Y-93567030D01*
X200205180Y-93281316D02*
X201205180Y-93281316D01*
X201205180Y-93281316D02*
X201062323Y-93376554D01*
X201062323Y-93376554D02*
X200967085Y-93471792D01*
X200967085Y-93471792D02*
X200919466Y-93567030D01*
X201205180Y-92662268D02*
X201205180Y-92043221D01*
X201205180Y-92043221D02*
X200824228Y-92376554D01*
X200824228Y-92376554D02*
X200824228Y-92233697D01*
X200824228Y-92233697D02*
X200776609Y-92138459D01*
X200776609Y-92138459D02*
X200728990Y-92090840D01*
X200728990Y-92090840D02*
X200633752Y-92043221D01*
X200633752Y-92043221D02*
X200395657Y-92043221D01*
X200395657Y-92043221D02*
X200300419Y-92090840D01*
X200300419Y-92090840D02*
X200252800Y-92138459D01*
X200252800Y-92138459D02*
X200205180Y-92233697D01*
X200205180Y-92233697D02*
X200205180Y-92519411D01*
X200205180Y-92519411D02*
X200252800Y-92614649D01*
X200252800Y-92614649D02*
X200300419Y-92662268D01*
X206285180Y-102917030D02*
X206285180Y-103393220D01*
X206285180Y-103393220D02*
X205808990Y-103440839D01*
X205808990Y-103440839D02*
X205856609Y-103393220D01*
X205856609Y-103393220D02*
X205904228Y-103297982D01*
X205904228Y-103297982D02*
X205904228Y-103059887D01*
X205904228Y-103059887D02*
X205856609Y-102964649D01*
X205856609Y-102964649D02*
X205808990Y-102917030D01*
X205808990Y-102917030D02*
X205713752Y-102869411D01*
X205713752Y-102869411D02*
X205475657Y-102869411D01*
X205475657Y-102869411D02*
X205380419Y-102917030D01*
X205380419Y-102917030D02*
X205332800Y-102964649D01*
X205332800Y-102964649D02*
X205285180Y-103059887D01*
X205285180Y-103059887D02*
X205285180Y-103297982D01*
X205285180Y-103297982D02*
X205332800Y-103393220D01*
X205332800Y-103393220D02*
X205380419Y-103440839D01*
X206285180Y-102583696D02*
X205285180Y-102250363D01*
X205285180Y-102250363D02*
X206285180Y-101917030D01*
X190767562Y-95519411D02*
X190815181Y-95614649D01*
X190815181Y-95614649D02*
X190815181Y-95757506D01*
X190815181Y-95757506D02*
X190767562Y-95900363D01*
X190767562Y-95900363D02*
X190672324Y-95995601D01*
X190672324Y-95995601D02*
X190577086Y-96043220D01*
X190577086Y-96043220D02*
X190386610Y-96090839D01*
X190386610Y-96090839D02*
X190243753Y-96090839D01*
X190243753Y-96090839D02*
X190053277Y-96043220D01*
X190053277Y-96043220D02*
X189958039Y-95995601D01*
X189958039Y-95995601D02*
X189862801Y-95900363D01*
X189862801Y-95900363D02*
X189815181Y-95757506D01*
X189815181Y-95757506D02*
X189815181Y-95662268D01*
X189815181Y-95662268D02*
X189862801Y-95519411D01*
X189862801Y-95519411D02*
X189910420Y-95471792D01*
X189910420Y-95471792D02*
X190243753Y-95471792D01*
X190243753Y-95471792D02*
X190243753Y-95662268D01*
X189815181Y-95043220D02*
X190815181Y-95043220D01*
X190815181Y-95043220D02*
X190815181Y-94662268D01*
X190815181Y-94662268D02*
X190767562Y-94567030D01*
X190767562Y-94567030D02*
X190719943Y-94519411D01*
X190719943Y-94519411D02*
X190624705Y-94471792D01*
X190624705Y-94471792D02*
X190481848Y-94471792D01*
X190481848Y-94471792D02*
X190386610Y-94519411D01*
X190386610Y-94519411D02*
X190338991Y-94567030D01*
X190338991Y-94567030D02*
X190291372Y-94662268D01*
X190291372Y-94662268D02*
X190291372Y-95043220D01*
X189815181Y-94043220D02*
X190815181Y-94043220D01*
X190815181Y-93376554D02*
X190815181Y-93186078D01*
X190815181Y-93186078D02*
X190767562Y-93090840D01*
X190767562Y-93090840D02*
X190672324Y-92995602D01*
X190672324Y-92995602D02*
X190481848Y-92947983D01*
X190481848Y-92947983D02*
X190148515Y-92947983D01*
X190148515Y-92947983D02*
X189958039Y-92995602D01*
X189958039Y-92995602D02*
X189862801Y-93090840D01*
X189862801Y-93090840D02*
X189815181Y-93186078D01*
X189815181Y-93186078D02*
X189815181Y-93376554D01*
X189815181Y-93376554D02*
X189862801Y-93471792D01*
X189862801Y-93471792D02*
X189958039Y-93567030D01*
X189958039Y-93567030D02*
X190148515Y-93614649D01*
X190148515Y-93614649D02*
X190481848Y-93614649D01*
X190481848Y-93614649D02*
X190672324Y-93567030D01*
X190672324Y-93567030D02*
X190767562Y-93471792D01*
X190767562Y-93471792D02*
X190815181Y-93376554D01*
X189815181Y-92471792D02*
X189815181Y-92281316D01*
X189815181Y-92281316D02*
X189862801Y-92186078D01*
X189862801Y-92186078D02*
X189910420Y-92138459D01*
X189910420Y-92138459D02*
X190053277Y-92043221D01*
X190053277Y-92043221D02*
X190243753Y-91995602D01*
X190243753Y-91995602D02*
X190624705Y-91995602D01*
X190624705Y-91995602D02*
X190719943Y-92043221D01*
X190719943Y-92043221D02*
X190767562Y-92090840D01*
X190767562Y-92090840D02*
X190815181Y-92186078D01*
X190815181Y-92186078D02*
X190815181Y-92376554D01*
X190815181Y-92376554D02*
X190767562Y-92471792D01*
X190767562Y-92471792D02*
X190719943Y-92519411D01*
X190719943Y-92519411D02*
X190624705Y-92567030D01*
X190624705Y-92567030D02*
X190386610Y-92567030D01*
X190386610Y-92567030D02*
X190291372Y-92519411D01*
X190291372Y-92519411D02*
X190243753Y-92471792D01*
X190243753Y-92471792D02*
X190196134Y-92376554D01*
X190196134Y-92376554D02*
X190196134Y-92186078D01*
X190196134Y-92186078D02*
X190243753Y-92090840D01*
X190243753Y-92090840D02*
X190291372Y-92043221D01*
X190291372Y-92043221D02*
X190386610Y-91995602D01*
X190997561Y-102639412D02*
X191045180Y-102734650D01*
X191045180Y-102734650D02*
X191045180Y-102877507D01*
X191045180Y-102877507D02*
X190997561Y-103020364D01*
X190997561Y-103020364D02*
X190902323Y-103115602D01*
X190902323Y-103115602D02*
X190807085Y-103163221D01*
X190807085Y-103163221D02*
X190616609Y-103210840D01*
X190616609Y-103210840D02*
X190473752Y-103210840D01*
X190473752Y-103210840D02*
X190283276Y-103163221D01*
X190283276Y-103163221D02*
X190188038Y-103115602D01*
X190188038Y-103115602D02*
X190092800Y-103020364D01*
X190092800Y-103020364D02*
X190045180Y-102877507D01*
X190045180Y-102877507D02*
X190045180Y-102782269D01*
X190045180Y-102782269D02*
X190092800Y-102639412D01*
X190092800Y-102639412D02*
X190140419Y-102591793D01*
X190140419Y-102591793D02*
X190473752Y-102591793D01*
X190473752Y-102591793D02*
X190473752Y-102782269D01*
X190045180Y-102163221D02*
X191045180Y-102163221D01*
X191045180Y-102163221D02*
X191045180Y-101782269D01*
X191045180Y-101782269D02*
X190997561Y-101687031D01*
X190997561Y-101687031D02*
X190949942Y-101639412D01*
X190949942Y-101639412D02*
X190854704Y-101591793D01*
X190854704Y-101591793D02*
X190711847Y-101591793D01*
X190711847Y-101591793D02*
X190616609Y-101639412D01*
X190616609Y-101639412D02*
X190568990Y-101687031D01*
X190568990Y-101687031D02*
X190521371Y-101782269D01*
X190521371Y-101782269D02*
X190521371Y-102163221D01*
X190045180Y-101163221D02*
X191045180Y-101163221D01*
X191045180Y-100496555D02*
X191045180Y-100306079D01*
X191045180Y-100306079D02*
X190997561Y-100210841D01*
X190997561Y-100210841D02*
X190902323Y-100115603D01*
X190902323Y-100115603D02*
X190711847Y-100067984D01*
X190711847Y-100067984D02*
X190378514Y-100067984D01*
X190378514Y-100067984D02*
X190188038Y-100115603D01*
X190188038Y-100115603D02*
X190092800Y-100210841D01*
X190092800Y-100210841D02*
X190045180Y-100306079D01*
X190045180Y-100306079D02*
X190045180Y-100496555D01*
X190045180Y-100496555D02*
X190092800Y-100591793D01*
X190092800Y-100591793D02*
X190188038Y-100687031D01*
X190188038Y-100687031D02*
X190378514Y-100734650D01*
X190378514Y-100734650D02*
X190711847Y-100734650D01*
X190711847Y-100734650D02*
X190902323Y-100687031D01*
X190902323Y-100687031D02*
X190997561Y-100591793D01*
X190997561Y-100591793D02*
X191045180Y-100496555D01*
X190711847Y-99210841D02*
X190045180Y-99210841D01*
X191092800Y-99448936D02*
X190378514Y-99687031D01*
X190378514Y-99687031D02*
X190378514Y-99067984D01*
X185917561Y-95519411D02*
X185965180Y-95614649D01*
X185965180Y-95614649D02*
X185965180Y-95757506D01*
X185965180Y-95757506D02*
X185917561Y-95900363D01*
X185917561Y-95900363D02*
X185822323Y-95995601D01*
X185822323Y-95995601D02*
X185727085Y-96043220D01*
X185727085Y-96043220D02*
X185536609Y-96090839D01*
X185536609Y-96090839D02*
X185393752Y-96090839D01*
X185393752Y-96090839D02*
X185203276Y-96043220D01*
X185203276Y-96043220D02*
X185108038Y-95995601D01*
X185108038Y-95995601D02*
X185012800Y-95900363D01*
X185012800Y-95900363D02*
X184965180Y-95757506D01*
X184965180Y-95757506D02*
X184965180Y-95662268D01*
X184965180Y-95662268D02*
X185012800Y-95519411D01*
X185012800Y-95519411D02*
X185060419Y-95471792D01*
X185060419Y-95471792D02*
X185393752Y-95471792D01*
X185393752Y-95471792D02*
X185393752Y-95662268D01*
X184965180Y-95043220D02*
X185965180Y-95043220D01*
X185965180Y-95043220D02*
X185965180Y-94662268D01*
X185965180Y-94662268D02*
X185917561Y-94567030D01*
X185917561Y-94567030D02*
X185869942Y-94519411D01*
X185869942Y-94519411D02*
X185774704Y-94471792D01*
X185774704Y-94471792D02*
X185631847Y-94471792D01*
X185631847Y-94471792D02*
X185536609Y-94519411D01*
X185536609Y-94519411D02*
X185488990Y-94567030D01*
X185488990Y-94567030D02*
X185441371Y-94662268D01*
X185441371Y-94662268D02*
X185441371Y-95043220D01*
X184965180Y-94043220D02*
X185965180Y-94043220D01*
X185965180Y-93376554D02*
X185965180Y-93186078D01*
X185965180Y-93186078D02*
X185917561Y-93090840D01*
X185917561Y-93090840D02*
X185822323Y-92995602D01*
X185822323Y-92995602D02*
X185631847Y-92947983D01*
X185631847Y-92947983D02*
X185298514Y-92947983D01*
X185298514Y-92947983D02*
X185108038Y-92995602D01*
X185108038Y-92995602D02*
X185012800Y-93090840D01*
X185012800Y-93090840D02*
X184965180Y-93186078D01*
X184965180Y-93186078D02*
X184965180Y-93376554D01*
X184965180Y-93376554D02*
X185012800Y-93471792D01*
X185012800Y-93471792D02*
X185108038Y-93567030D01*
X185108038Y-93567030D02*
X185298514Y-93614649D01*
X185298514Y-93614649D02*
X185631847Y-93614649D01*
X185631847Y-93614649D02*
X185822323Y-93567030D01*
X185822323Y-93567030D02*
X185917561Y-93471792D01*
X185917561Y-93471792D02*
X185965180Y-93376554D01*
X185965180Y-92614649D02*
X185965180Y-91947983D01*
X185965180Y-91947983D02*
X184965180Y-92376554D01*
X198617561Y-96519411D02*
X198665180Y-96614649D01*
X198665180Y-96614649D02*
X198665180Y-96757506D01*
X198665180Y-96757506D02*
X198617561Y-96900363D01*
X198617561Y-96900363D02*
X198522323Y-96995601D01*
X198522323Y-96995601D02*
X198427085Y-97043220D01*
X198427085Y-97043220D02*
X198236609Y-97090839D01*
X198236609Y-97090839D02*
X198093752Y-97090839D01*
X198093752Y-97090839D02*
X197903276Y-97043220D01*
X197903276Y-97043220D02*
X197808038Y-96995601D01*
X197808038Y-96995601D02*
X197712800Y-96900363D01*
X197712800Y-96900363D02*
X197665180Y-96757506D01*
X197665180Y-96757506D02*
X197665180Y-96662268D01*
X197665180Y-96662268D02*
X197712800Y-96519411D01*
X197712800Y-96519411D02*
X197760419Y-96471792D01*
X197760419Y-96471792D02*
X198093752Y-96471792D01*
X198093752Y-96471792D02*
X198093752Y-96662268D01*
X197665180Y-96043220D02*
X198665180Y-96043220D01*
X198665180Y-96043220D02*
X198665180Y-95662268D01*
X198665180Y-95662268D02*
X198617561Y-95567030D01*
X198617561Y-95567030D02*
X198569942Y-95519411D01*
X198569942Y-95519411D02*
X198474704Y-95471792D01*
X198474704Y-95471792D02*
X198331847Y-95471792D01*
X198331847Y-95471792D02*
X198236609Y-95519411D01*
X198236609Y-95519411D02*
X198188990Y-95567030D01*
X198188990Y-95567030D02*
X198141371Y-95662268D01*
X198141371Y-95662268D02*
X198141371Y-96043220D01*
X197665180Y-95043220D02*
X198665180Y-95043220D01*
X198665180Y-94376554D02*
X198665180Y-94186078D01*
X198665180Y-94186078D02*
X198617561Y-94090840D01*
X198617561Y-94090840D02*
X198522323Y-93995602D01*
X198522323Y-93995602D02*
X198331847Y-93947983D01*
X198331847Y-93947983D02*
X197998514Y-93947983D01*
X197998514Y-93947983D02*
X197808038Y-93995602D01*
X197808038Y-93995602D02*
X197712800Y-94090840D01*
X197712800Y-94090840D02*
X197665180Y-94186078D01*
X197665180Y-94186078D02*
X197665180Y-94376554D01*
X197665180Y-94376554D02*
X197712800Y-94471792D01*
X197712800Y-94471792D02*
X197808038Y-94567030D01*
X197808038Y-94567030D02*
X197998514Y-94614649D01*
X197998514Y-94614649D02*
X198331847Y-94614649D01*
X198331847Y-94614649D02*
X198522323Y-94567030D01*
X198522323Y-94567030D02*
X198617561Y-94471792D01*
X198617561Y-94471792D02*
X198665180Y-94376554D01*
X197665180Y-92995602D02*
X197665180Y-93567030D01*
X197665180Y-93281316D02*
X198665180Y-93281316D01*
X198665180Y-93281316D02*
X198522323Y-93376554D01*
X198522323Y-93376554D02*
X198427085Y-93471792D01*
X198427085Y-93471792D02*
X198379466Y-93567030D01*
X198569942Y-92614649D02*
X198617561Y-92567030D01*
X198617561Y-92567030D02*
X198665180Y-92471792D01*
X198665180Y-92471792D02*
X198665180Y-92233697D01*
X198665180Y-92233697D02*
X198617561Y-92138459D01*
X198617561Y-92138459D02*
X198569942Y-92090840D01*
X198569942Y-92090840D02*
X198474704Y-92043221D01*
X198474704Y-92043221D02*
X198379466Y-92043221D01*
X198379466Y-92043221D02*
X198236609Y-92090840D01*
X198236609Y-92090840D02*
X197665180Y-92662268D01*
X197665180Y-92662268D02*
X197665180Y-92043221D01*
D11*
X183830000Y-88380000D02*
X207330000Y-88380000D01*
X183830000Y-106380000D02*
X183830000Y-88380000D01*
X207330000Y-88380000D02*
X207330000Y-106380000D01*
X207330000Y-99920000D02*
X208280000Y-99920000D01*
X207330000Y-106380000D02*
X183830000Y-106380000D01*
X208280000Y-94840000D02*
X207330000Y-94840000D01*
X208280000Y-99920000D02*
X208280000Y-94840000D01*
X90432000Y-98108000D02*
G75*
G02*
X76432000Y-98108000I-7000000J0D01*
G01*
X76432000Y-98108000D02*
G75*
G02*
X90432000Y-98108000I7000000J0D01*
G01*
D12*
X67564000Y-98044000D03*
M02*
