G04 #@! TF.GenerationSoftware,KiCad,Pcbnew,8.0.7*
G04 #@! TF.CreationDate,2025-07-02T14:54:47-04:00*
G04 #@! TF.ProjectId,Sum25_Wand_v2,53756d32-355f-4576-916e-645f76322e6b,rev?*
G04 #@! TF.SameCoordinates,Original*
G04 #@! TF.FileFunction,Copper,L1,Top*
G04 #@! TF.FilePolarity,Positive*
%FSLAX46Y46*%
G04 Gerber Fmt 4.6, Leading zero omitted, Abs format (unit mm)*
G04 Created by KiCad (PCBNEW 8.0.7) date 2025-07-02 14:54:47*
%MOMM*%
%LPD*%
G01*
G04 APERTURE LIST*
G04 Aperture macros list*
%AMRoundRect*
0 Rectangle with rounded corners*
0 $1 Rounding radius*
0 $2 $3 $4 $5 $6 $7 $8 $9 X,Y pos of 4 corners*
0 Add a 4 corners polygon primitive as box body*
4,1,4,$2,$3,$4,$5,$6,$7,$8,$9,$2,$3,0*
0 Add four circle primitives for the rounded corners*
1,1,$1+$1,$2,$3*
1,1,$1+$1,$4,$5*
1,1,$1+$1,$6,$7*
1,1,$1+$1,$8,$9*
0 Add four rect primitives between the rounded corners*
20,1,$1+$1,$2,$3,$4,$5,0*
20,1,$1+$1,$4,$5,$6,$7,0*
20,1,$1+$1,$6,$7,$8,$9,0*
20,1,$1+$1,$8,$9,$2,$3,0*%
%AMFreePoly0*
4,1,11,0.600000,-3.000000,0.580902,-3.058779,0.530902,-3.095106,0.500000,-3.100000,-0.500000,-3.100000,-0.558779,-3.080902,-0.595106,-3.030902,-0.600000,-3.000000,-0.600000,1.000000,0.600000,1.000000,0.600000,-3.000000,0.600000,-3.000000,$1*%
G04 Aperture macros list end*
G04 #@! TA.AperFunction,ComponentPad*
%ADD10C,1.400000*%
G04 #@! TD*
G04 #@! TA.AperFunction,ComponentPad*
%ADD11O,1.400000X1.400000*%
G04 #@! TD*
G04 #@! TA.AperFunction,ComponentPad*
%ADD12C,1.800000*%
G04 #@! TD*
G04 #@! TA.AperFunction,ComponentPad*
%ADD13C,2.600000*%
G04 #@! TD*
G04 #@! TA.AperFunction,SMDPad,CuDef*
%ADD14RoundRect,0.162500X0.837500X0.162500X-0.837500X0.162500X-0.837500X-0.162500X0.837500X-0.162500X0*%
G04 #@! TD*
G04 #@! TA.AperFunction,SMDPad,CuDef*
%ADD15R,6.000000X2.000000*%
G04 #@! TD*
G04 #@! TA.AperFunction,ComponentPad*
%ADD16R,1.700000X1.700000*%
G04 #@! TD*
G04 #@! TA.AperFunction,ComponentPad*
%ADD17O,1.700000X1.700000*%
G04 #@! TD*
G04 #@! TA.AperFunction,SMDPad,CuDef*
%ADD18FreePoly0,180.000000*%
G04 #@! TD*
G04 #@! TA.AperFunction,SMDPad,CuDef*
%ADD19FreePoly0,0.000000*%
G04 #@! TD*
G04 #@! TA.AperFunction,ComponentPad*
%ADD20C,1.600000*%
G04 #@! TD*
G04 #@! TA.AperFunction,ComponentPad*
%ADD21R,1.600000X1.600000*%
G04 #@! TD*
G04 #@! TA.AperFunction,ComponentPad*
%ADD22C,2.200000*%
G04 #@! TD*
G04 #@! TA.AperFunction,ViaPad*
%ADD23C,0.800000*%
G04 #@! TD*
G04 #@! TA.AperFunction,Conductor*
%ADD24C,0.250000*%
G04 #@! TD*
G04 #@! TA.AperFunction,Conductor*
%ADD25C,0.500000*%
G04 #@! TD*
G04 APERTURE END LIST*
D10*
X185310000Y-92000000D03*
D11*
X177690000Y-92000000D03*
D12*
X198000000Y-102500000D03*
X200000000Y-102500000D03*
X202000000Y-102500000D03*
X204000000Y-102500000D03*
X206000000Y-102500000D03*
D13*
X206850000Y-112500000D03*
X197150000Y-112500000D03*
D14*
X191710000Y-92450000D03*
X191710000Y-91500000D03*
X191710000Y-90550000D03*
X188290000Y-90550000D03*
X188290000Y-92450000D03*
D15*
X169500000Y-103250000D03*
X169500000Y-100000000D03*
X169500000Y-96750000D03*
D16*
X240500000Y-89600000D03*
D17*
X237960000Y-89600000D03*
X235420000Y-89600000D03*
X232880000Y-89600000D03*
X230340000Y-89600000D03*
X227800000Y-89600000D03*
X225260000Y-89600000D03*
D10*
X248500000Y-85880000D03*
D11*
X248500000Y-93500000D03*
D18*
X278660000Y-91380000D03*
X276120000Y-91380000D03*
X273580000Y-91380000D03*
X271040000Y-91380000D03*
X268500000Y-91380000D03*
X265960000Y-91380000D03*
X263420000Y-91380000D03*
X260880000Y-91380000D03*
X258340000Y-91380000D03*
D19*
X258340000Y-106620000D03*
X260880000Y-106620000D03*
X263420000Y-106620000D03*
X265960000Y-106620000D03*
X268500000Y-106620000D03*
X271040000Y-106620000D03*
X273580000Y-106620000D03*
X276120000Y-106620000D03*
X278660000Y-106620000D03*
D20*
X253500000Y-92000000D03*
X253500000Y-87000000D03*
D12*
X178000000Y-102500000D03*
X180000000Y-102500000D03*
X182000000Y-102500000D03*
X184000000Y-102500000D03*
X186000000Y-102500000D03*
D13*
X186850000Y-112500000D03*
X177150000Y-112500000D03*
D10*
X244000000Y-86000000D03*
D11*
X244000000Y-93620000D03*
D15*
X38500000Y-103250000D03*
X38500000Y-100000000D03*
X38500000Y-96750000D03*
D21*
X176500000Y-97044888D03*
D20*
X176500000Y-99044888D03*
X195500000Y-88000000D03*
X195500000Y-93000000D03*
D22*
X231300000Y-109150000D03*
X224950000Y-106610000D03*
X207100000Y-99000000D03*
X213450000Y-101540000D03*
X188000000Y-99000000D03*
X194350000Y-101540000D03*
X245300000Y-99000000D03*
X251650000Y-101540000D03*
D23*
X174000000Y-100500000D03*
X165000000Y-103000000D03*
X193500000Y-92500000D03*
X193500000Y-90500000D03*
X201500000Y-93000000D03*
X201500000Y-97000000D03*
X276000000Y-86000000D03*
X43000000Y-104000000D03*
X169500000Y-106000000D03*
X46500000Y-97000000D03*
D24*
X172000000Y-100500000D02*
X174000000Y-100500000D01*
X174000000Y-100500000D02*
X178000000Y-100500000D01*
D25*
X169500000Y-96750000D02*
X175250000Y-96750000D01*
X175250000Y-96750000D02*
X175500000Y-97000000D01*
X175500000Y-97000000D02*
X176500000Y-97000000D01*
X165000000Y-96500000D02*
X48500000Y-96500000D01*
X165000000Y-103000000D02*
X165000000Y-96500000D01*
X169500000Y-96500000D02*
X165000000Y-96500000D01*
X169500000Y-102500000D02*
X169500000Y-106000000D01*
X193450000Y-92450000D02*
X193500000Y-92500000D01*
X191710000Y-92450000D02*
X193450000Y-92450000D01*
X193450000Y-90550000D02*
X193500000Y-90500000D01*
X191710000Y-90550000D02*
X193450000Y-90550000D01*
X178000000Y-102500000D02*
X178000000Y-104000000D01*
X178000000Y-104000000D02*
X179000000Y-105000000D01*
X179000000Y-105000000D02*
X186000000Y-105000000D01*
X186000000Y-105000000D02*
X194000000Y-97000000D01*
X194000000Y-97000000D02*
X201500000Y-97000000D01*
X201500000Y-97000000D02*
X198000000Y-100500000D01*
X208500000Y-86000000D02*
X201500000Y-93000000D01*
X245000000Y-86000000D02*
X208500000Y-86000000D01*
X198000000Y-100500000D02*
X198000000Y-102500000D01*
D24*
X186950000Y-90550000D02*
X185500000Y-92000000D01*
X188290000Y-90550000D02*
X186950000Y-90550000D01*
X178500000Y-100000000D02*
X178500000Y-93000000D01*
X169669888Y-100169888D02*
X171669888Y-100169888D01*
X169500000Y-100000000D02*
X169669888Y-100169888D01*
X171669888Y-100169888D02*
X172000000Y-100500000D01*
X178500000Y-93000000D02*
X177500000Y-92000000D01*
X178000000Y-100500000D02*
X178500000Y-100000000D01*
D25*
X176500000Y-97044888D02*
X176500000Y-94500000D01*
X176500000Y-94500000D02*
X175500000Y-93500000D01*
X175500000Y-93500000D02*
X175500000Y-91000000D01*
X178500000Y-88000000D02*
X191000000Y-88000000D01*
X175500000Y-91000000D02*
X178500000Y-88000000D01*
X195500000Y-88000000D02*
X191000000Y-88000000D01*
X189500000Y-91500000D02*
X188500000Y-92500000D01*
X199500000Y-85500000D02*
X197000000Y-88000000D01*
X191000000Y-88000000D02*
X190000000Y-89000000D01*
X197000000Y-88000000D02*
X195500000Y-88000000D01*
X190000000Y-89000000D02*
X190000000Y-91000000D01*
X190000000Y-91000000D02*
X189500000Y-91500000D01*
X200000000Y-85000000D02*
X199500000Y-85500000D01*
X241000000Y-85000000D02*
X200000000Y-85000000D01*
X250500000Y-85000000D02*
X250230000Y-84730000D01*
X250230000Y-84730000D02*
X241270000Y-84730000D01*
X241270000Y-84730000D02*
X241000000Y-85000000D01*
X255500000Y-85000000D02*
X250500000Y-85000000D01*
X277500000Y-85000000D02*
X277000000Y-85000000D01*
X277000000Y-85000000D02*
X255500000Y-85000000D01*
X278660000Y-86160000D02*
X278500000Y-86000000D01*
X278500000Y-86000000D02*
X277500000Y-85000000D01*
X278660000Y-91380000D02*
X278660000Y-86160000D01*
D24*
X263420000Y-91380000D02*
X263420000Y-93580000D01*
X261500000Y-95500000D02*
X200000000Y-95500000D01*
X263420000Y-93580000D02*
X261500000Y-95500000D01*
X200000000Y-95500000D02*
X196000000Y-91500000D01*
X196000000Y-91500000D02*
X191710000Y-91500000D01*
X184000000Y-102500000D02*
X184000000Y-97000000D01*
X184000000Y-97000000D02*
X185000000Y-96000000D01*
X185000000Y-96000000D02*
X263880000Y-96000000D01*
X263880000Y-96000000D02*
X268500000Y-91380000D01*
X271040000Y-91380000D02*
X265920000Y-96500000D01*
X265920000Y-96500000D02*
X205000000Y-96500000D01*
X205000000Y-96500000D02*
X204000000Y-97500000D01*
X204000000Y-97500000D02*
X204000000Y-98500000D01*
X194350000Y-101540000D02*
X202810000Y-110000000D01*
X202810000Y-110000000D02*
X221273604Y-110000000D01*
X221273604Y-110000000D02*
X223673604Y-112400000D01*
X264100000Y-112400000D02*
X266000000Y-110500000D01*
X223673604Y-112400000D02*
X264100000Y-112400000D01*
X266000000Y-110500000D02*
X266000000Y-107500000D01*
X266000000Y-107500000D02*
X265500000Y-107000000D01*
X223860000Y-111950000D02*
X230000000Y-111950000D01*
X262050000Y-111950000D02*
X263500000Y-110500000D01*
X213450000Y-101540000D02*
X223860000Y-111950000D01*
X263500000Y-110500000D02*
X263500000Y-107000000D01*
X230000000Y-111950000D02*
X262050000Y-111950000D01*
X228000000Y-111500000D02*
X259000000Y-111500000D01*
X224950000Y-108450000D02*
X227500000Y-111000000D01*
X224950000Y-106610000D02*
X224950000Y-108450000D01*
X227500000Y-111000000D02*
X228000000Y-111500000D01*
X259000000Y-111500000D02*
X243000000Y-111500000D01*
X261000000Y-110500000D02*
X261000000Y-107000000D01*
X243000000Y-111500000D02*
X260000000Y-111500000D01*
X260000000Y-111500000D02*
X261000000Y-110500000D01*
X254000000Y-107500000D02*
X258500000Y-107500000D01*
X251650000Y-101540000D02*
X251650000Y-105150000D01*
X251650000Y-105150000D02*
X254000000Y-107500000D01*
X204000000Y-98500000D02*
X204000000Y-102500000D01*
X251500000Y-89500000D02*
X255075000Y-89500000D01*
X255075000Y-89500000D02*
X257000000Y-87575000D01*
X248500000Y-93500000D02*
X248500000Y-92500000D01*
X260000000Y-87575000D02*
X261000000Y-88575000D01*
X248500000Y-92500000D02*
X251500000Y-89500000D01*
X261000000Y-88575000D02*
X261000000Y-91000000D01*
X257000000Y-87575000D02*
X260000000Y-87575000D01*
X258500000Y-92000000D02*
X258500000Y-90000000D01*
X243500000Y-92000000D02*
X245000000Y-93500000D01*
X246025000Y-94525000D02*
X255975000Y-94525000D01*
X256000000Y-94500000D02*
X258500000Y-92000000D01*
X230340000Y-89600000D02*
X232740000Y-92000000D01*
X232740000Y-92000000D02*
X243500000Y-92000000D01*
X245000000Y-93500000D02*
X246025000Y-94525000D01*
X255975000Y-94525000D02*
X256000000Y-94500000D01*
X233000000Y-91000000D02*
X233000000Y-89500000D01*
X246500000Y-91500000D02*
X235000000Y-91500000D01*
X233500000Y-91500000D02*
X233000000Y-91000000D01*
X248500000Y-93500000D02*
X246500000Y-91500000D01*
X235000000Y-91500000D02*
X233500000Y-91500000D01*
D25*
X244000000Y-86000000D02*
X240500000Y-89500000D01*
X245000000Y-86000000D02*
X244000000Y-86000000D01*
X249500000Y-87000000D02*
X248500000Y-86000000D01*
X253500000Y-87000000D02*
X249500000Y-87000000D01*
X248500000Y-86000000D02*
X245000000Y-86000000D01*
X43000000Y-104000000D02*
X40000000Y-104000000D01*
X40000000Y-104000000D02*
X38500000Y-102500000D01*
X46500000Y-97000000D02*
X39000000Y-97000000D01*
X39000000Y-97000000D02*
X38500000Y-97500000D01*
X46500000Y-97000000D02*
X47000000Y-96500000D01*
X47000000Y-96500000D02*
X48500000Y-96500000D01*
X170500000Y-97500000D02*
X169500000Y-96500000D01*
X273580000Y-91380000D02*
X273580000Y-88580000D01*
X273580000Y-88580000D02*
X272000000Y-87000000D01*
X253500000Y-87000000D02*
X272000000Y-87000000D01*
X276120000Y-91380000D02*
X276120000Y-86120000D01*
X276120000Y-86120000D02*
X276000000Y-86000000D01*
M02*
