G04 #@! TF.GenerationSoftware,KiCad,Pcbnew,8.0.7*
G04 #@! TF.CreationDate,2025-07-02T14:54:47-04:00*
G04 #@! TF.ProjectId,Sum25_Wand_v2,53756d32-355f-4576-916e-645f76322e6b,rev?*
G04 #@! TF.SameCoordinates,Original*
G04 #@! TF.FileFunction,Copper,L2,Bot*
G04 #@! TF.FilePolarity,Positive*
%FSLAX46Y46*%
G04 Gerber Fmt 4.6, Leading zero omitted, Abs format (unit mm)*
G04 Created by KiCad (PCBNEW 8.0.7) date 2025-07-02 14:54:47*
%MOMM*%
%LPD*%
G01*
G04 APERTURE LIST*
G04 #@! TA.AperFunction,ComponentPad*
%ADD10C,1.400000*%
G04 #@! TD*
G04 #@! TA.AperFunction,ComponentPad*
%ADD11O,1.400000X1.400000*%
G04 #@! TD*
G04 #@! TA.AperFunction,ComponentPad*
%ADD12C,1.800000*%
G04 #@! TD*
G04 #@! TA.AperFunction,ComponentPad*
%ADD13C,2.600000*%
G04 #@! TD*
G04 #@! TA.AperFunction,ComponentPad*
%ADD14R,1.700000X1.700000*%
G04 #@! TD*
G04 #@! TA.AperFunction,ComponentPad*
%ADD15O,1.700000X1.700000*%
G04 #@! TD*
G04 #@! TA.AperFunction,ComponentPad*
%ADD16C,1.600000*%
G04 #@! TD*
G04 #@! TA.AperFunction,ComponentPad*
%ADD17R,1.600000X1.600000*%
G04 #@! TD*
G04 #@! TA.AperFunction,SMDPad,CuDef*
%ADD18R,6.000000X2.000000*%
G04 #@! TD*
G04 #@! TA.AperFunction,ComponentPad*
%ADD19C,2.200000*%
G04 #@! TD*
G04 #@! TA.AperFunction,ViaPad*
%ADD20C,0.800000*%
G04 #@! TD*
G04 #@! TA.AperFunction,Conductor*
%ADD21C,0.250000*%
G04 #@! TD*
G04 #@! TA.AperFunction,Conductor*
%ADD22C,0.500000*%
G04 #@! TD*
G04 APERTURE END LIST*
D10*
X185310000Y-92000000D03*
D11*
X177690000Y-92000000D03*
D12*
X198000000Y-102500000D03*
X200000000Y-102500000D03*
X202000000Y-102500000D03*
X204000000Y-102500000D03*
X206000000Y-102500000D03*
D13*
X206850000Y-112500000D03*
X197150000Y-112500000D03*
D14*
X240500000Y-89600000D03*
D15*
X237960000Y-89600000D03*
X235420000Y-89600000D03*
X232880000Y-89600000D03*
X230340000Y-89600000D03*
X227800000Y-89600000D03*
X225260000Y-89600000D03*
D10*
X248500000Y-85880000D03*
D11*
X248500000Y-93500000D03*
D16*
X253500000Y-92000000D03*
X253500000Y-87000000D03*
D12*
X178000000Y-102500000D03*
X180000000Y-102500000D03*
X182000000Y-102500000D03*
X184000000Y-102500000D03*
X186000000Y-102500000D03*
D13*
X186850000Y-112500000D03*
X177150000Y-112500000D03*
D10*
X244000000Y-86000000D03*
D11*
X244000000Y-93620000D03*
D17*
X176500000Y-97044888D03*
D16*
X176500000Y-99044888D03*
X195500000Y-88000000D03*
X195500000Y-93000000D03*
D18*
X38500000Y-96750000D03*
X38500000Y-100000000D03*
X38500000Y-103250000D03*
X169500000Y-96750000D03*
X169500000Y-100000000D03*
X169500000Y-103250000D03*
D19*
X231300000Y-109150000D03*
X224950000Y-106610000D03*
X207100000Y-99000000D03*
X213450000Y-101540000D03*
X188000000Y-99000000D03*
X194350000Y-101540000D03*
X245300000Y-99000000D03*
X251650000Y-101540000D03*
D20*
X174000000Y-100500000D03*
X165000000Y-103000000D03*
X193500000Y-92500000D03*
X193500000Y-90500000D03*
X201500000Y-93000000D03*
X201500000Y-97000000D03*
X276000000Y-86000000D03*
X43000000Y-104000000D03*
X169500000Y-106000000D03*
X46500000Y-97000000D03*
D21*
X169500000Y-100000000D02*
X173500000Y-100000000D01*
X173500000Y-100000000D02*
X174000000Y-100500000D01*
D22*
X165250000Y-103250000D02*
X165000000Y-103000000D01*
X169500000Y-103250000D02*
X165250000Y-103250000D01*
X201500000Y-93000000D02*
X201500000Y-97000000D01*
X46500000Y-97000000D02*
X46500000Y-98500000D01*
X46500000Y-98500000D02*
X42000000Y-103000000D01*
X42000000Y-103000000D02*
X38500000Y-103000000D01*
X253500000Y-90000000D02*
X253500000Y-92000000D01*
X276000000Y-86000000D02*
X257500000Y-86000000D01*
X257500000Y-86000000D02*
X253500000Y-90000000D01*
G04 #@! TA.AperFunction,Conductor*
G36*
X255148969Y-84019685D02*
G01*
X255194724Y-84072489D01*
X255205926Y-84122984D01*
X255449795Y-113874984D01*
X255430660Y-113942182D01*
X255378233Y-113988368D01*
X255325799Y-114000000D01*
X208054767Y-114000000D01*
X208054767Y-113997169D01*
X208028379Y-114000000D01*
X208027677Y-114000000D01*
X207965329Y-113968772D01*
X207962165Y-113965718D01*
X207212293Y-113215847D01*
X207228942Y-113208951D01*
X207359970Y-113121401D01*
X207471401Y-113009970D01*
X207558951Y-112878942D01*
X207565847Y-112862293D01*
X208287703Y-113584150D01*
X208287704Y-113584149D01*
X208341400Y-113516818D01*
X208476290Y-113283181D01*
X208574851Y-113032052D01*
X208574857Y-113032033D01*
X208634886Y-112769028D01*
X208634886Y-112769026D01*
X208655047Y-112500004D01*
X208655047Y-112499995D01*
X208634886Y-112230973D01*
X208634886Y-112230971D01*
X208574857Y-111967966D01*
X208574851Y-111967947D01*
X208476290Y-111716818D01*
X208476291Y-111716818D01*
X208341400Y-111483182D01*
X208341393Y-111483171D01*
X208287704Y-111415849D01*
X208287703Y-111415848D01*
X207565846Y-112137705D01*
X207558951Y-112121058D01*
X207471401Y-111990030D01*
X207359970Y-111878599D01*
X207228942Y-111791049D01*
X207212293Y-111784152D01*
X207935150Y-111061295D01*
X207752524Y-110936783D01*
X207752516Y-110936778D01*
X207509460Y-110819730D01*
X207509462Y-110819730D01*
X207251662Y-110740209D01*
X207251656Y-110740207D01*
X206984898Y-110700000D01*
X206715101Y-110700000D01*
X206448343Y-110740207D01*
X206448337Y-110740209D01*
X206190538Y-110819730D01*
X205947482Y-110936780D01*
X205947469Y-110936787D01*
X205764848Y-111061294D01*
X206487706Y-111784152D01*
X206471058Y-111791049D01*
X206340030Y-111878599D01*
X206228599Y-111990030D01*
X206141049Y-112121058D01*
X206134152Y-112137706D01*
X205412294Y-111415848D01*
X205358602Y-111483177D01*
X205223709Y-111716818D01*
X205125148Y-111967947D01*
X205125142Y-111967966D01*
X205065113Y-112230971D01*
X205065113Y-112230973D01*
X205044953Y-112499995D01*
X205044953Y-112500004D01*
X205065113Y-112769026D01*
X205065113Y-112769028D01*
X205125142Y-113032033D01*
X205125148Y-113032052D01*
X205223709Y-113283181D01*
X205223708Y-113283181D01*
X205358600Y-113516818D01*
X205412294Y-113584150D01*
X206134152Y-112862291D01*
X206141049Y-112878942D01*
X206228599Y-113009970D01*
X206340030Y-113121401D01*
X206471058Y-113208951D01*
X206487706Y-113215846D01*
X205737833Y-113965718D01*
X205676510Y-113999203D01*
X205645233Y-113996966D01*
X205645233Y-114000000D01*
X198354767Y-114000000D01*
X198354767Y-113997169D01*
X198328379Y-114000000D01*
X198327677Y-114000000D01*
X198265329Y-113968772D01*
X198262165Y-113965718D01*
X197512293Y-113215847D01*
X197528942Y-113208951D01*
X197659970Y-113121401D01*
X197771401Y-113009970D01*
X197858951Y-112878942D01*
X197865847Y-112862293D01*
X198587703Y-113584150D01*
X198587704Y-113584149D01*
X198641400Y-113516818D01*
X198776290Y-113283181D01*
X198874851Y-113032052D01*
X198874857Y-113032033D01*
X198934886Y-112769028D01*
X198934886Y-112769026D01*
X198955047Y-112500004D01*
X198955047Y-112499995D01*
X198934886Y-112230973D01*
X198934886Y-112230971D01*
X198874857Y-111967966D01*
X198874851Y-111967947D01*
X198776290Y-111716818D01*
X198776291Y-111716818D01*
X198641400Y-111483182D01*
X198641393Y-111483171D01*
X198587704Y-111415849D01*
X198587703Y-111415848D01*
X197865846Y-112137705D01*
X197858951Y-112121058D01*
X197771401Y-111990030D01*
X197659970Y-111878599D01*
X197528942Y-111791049D01*
X197512293Y-111784152D01*
X198235150Y-111061295D01*
X198052524Y-110936783D01*
X198052516Y-110936778D01*
X197809460Y-110819730D01*
X197809462Y-110819730D01*
X197551662Y-110740209D01*
X197551656Y-110740207D01*
X197284898Y-110700000D01*
X197015101Y-110700000D01*
X196748343Y-110740207D01*
X196748337Y-110740209D01*
X196490538Y-110819730D01*
X196247482Y-110936780D01*
X196247469Y-110936787D01*
X196064848Y-111061294D01*
X196787706Y-111784152D01*
X196771058Y-111791049D01*
X196640030Y-111878599D01*
X196528599Y-111990030D01*
X196441049Y-112121058D01*
X196434152Y-112137706D01*
X195712294Y-111415848D01*
X195658602Y-111483177D01*
X195523709Y-111716818D01*
X195425148Y-111967947D01*
X195425142Y-111967966D01*
X195365113Y-112230971D01*
X195365113Y-112230973D01*
X195344953Y-112499995D01*
X195344953Y-112500004D01*
X195365113Y-112769026D01*
X195365113Y-112769028D01*
X195425142Y-113032033D01*
X195425148Y-113032052D01*
X195523709Y-113283181D01*
X195523708Y-113283181D01*
X195658600Y-113516818D01*
X195712294Y-113584150D01*
X196434152Y-112862291D01*
X196441049Y-112878942D01*
X196528599Y-113009970D01*
X196640030Y-113121401D01*
X196771058Y-113208951D01*
X196787706Y-113215846D01*
X196037833Y-113965718D01*
X195976510Y-113999203D01*
X195945233Y-113996966D01*
X195945233Y-114000000D01*
X188054767Y-114000000D01*
X188054767Y-113997169D01*
X188028379Y-114000000D01*
X188027677Y-114000000D01*
X187965329Y-113968772D01*
X187962165Y-113965718D01*
X187212293Y-113215847D01*
X187228942Y-113208951D01*
X187359970Y-113121401D01*
X187471401Y-113009970D01*
X187558951Y-112878942D01*
X187565847Y-112862293D01*
X188287703Y-113584150D01*
X188287704Y-113584149D01*
X188341400Y-113516818D01*
X188476290Y-113283181D01*
X188574851Y-113032052D01*
X188574857Y-113032033D01*
X188634886Y-112769028D01*
X188634886Y-112769026D01*
X188655047Y-112500004D01*
X188655047Y-112499995D01*
X188634886Y-112230973D01*
X188634886Y-112230971D01*
X188574857Y-111967966D01*
X188574851Y-111967947D01*
X188476290Y-111716818D01*
X188476291Y-111716818D01*
X188341400Y-111483182D01*
X188341393Y-111483171D01*
X188287704Y-111415849D01*
X188287703Y-111415848D01*
X187565846Y-112137705D01*
X187558951Y-112121058D01*
X187471401Y-111990030D01*
X187359970Y-111878599D01*
X187228942Y-111791049D01*
X187212293Y-111784152D01*
X187935150Y-111061295D01*
X187752524Y-110936783D01*
X187752516Y-110936778D01*
X187509460Y-110819730D01*
X187509462Y-110819730D01*
X187251662Y-110740209D01*
X187251656Y-110740207D01*
X186984898Y-110700000D01*
X186715101Y-110700000D01*
X186448343Y-110740207D01*
X186448337Y-110740209D01*
X186190538Y-110819730D01*
X185947482Y-110936780D01*
X185947469Y-110936787D01*
X185764848Y-111061294D01*
X186487706Y-111784152D01*
X186471058Y-111791049D01*
X186340030Y-111878599D01*
X186228599Y-111990030D01*
X186141049Y-112121058D01*
X186134152Y-112137706D01*
X185412294Y-111415848D01*
X185358602Y-111483177D01*
X185223709Y-111716818D01*
X185125148Y-111967947D01*
X185125142Y-111967966D01*
X185065113Y-112230971D01*
X185065113Y-112230973D01*
X185044953Y-112499995D01*
X185044953Y-112500004D01*
X185065113Y-112769026D01*
X185065113Y-112769028D01*
X185125142Y-113032033D01*
X185125148Y-113032052D01*
X185223709Y-113283181D01*
X185223708Y-113283181D01*
X185358600Y-113516818D01*
X185412294Y-113584150D01*
X186134152Y-112862291D01*
X186141049Y-112878942D01*
X186228599Y-113009970D01*
X186340030Y-113121401D01*
X186471058Y-113208951D01*
X186487706Y-113215846D01*
X185737833Y-113965718D01*
X185676510Y-113999203D01*
X185645233Y-113996966D01*
X185645233Y-114000000D01*
X178354767Y-114000000D01*
X178354767Y-113997169D01*
X178328379Y-114000000D01*
X178327677Y-114000000D01*
X178265329Y-113968772D01*
X178262165Y-113965718D01*
X177512293Y-113215847D01*
X177528942Y-113208951D01*
X177659970Y-113121401D01*
X177771401Y-113009970D01*
X177858951Y-112878942D01*
X177865847Y-112862293D01*
X178587703Y-113584150D01*
X178587704Y-113584149D01*
X178641400Y-113516818D01*
X178776290Y-113283181D01*
X178874851Y-113032052D01*
X178874857Y-113032033D01*
X178934886Y-112769028D01*
X178934886Y-112769026D01*
X178955047Y-112500004D01*
X178955047Y-112499995D01*
X178934886Y-112230973D01*
X178934886Y-112230971D01*
X178874857Y-111967966D01*
X178874851Y-111967947D01*
X178776290Y-111716818D01*
X178776291Y-111716818D01*
X178641400Y-111483182D01*
X178641393Y-111483171D01*
X178587704Y-111415849D01*
X178587703Y-111415848D01*
X177865846Y-112137705D01*
X177858951Y-112121058D01*
X177771401Y-111990030D01*
X177659970Y-111878599D01*
X177528942Y-111791049D01*
X177512293Y-111784152D01*
X178235150Y-111061295D01*
X178052524Y-110936783D01*
X178052516Y-110936778D01*
X177809460Y-110819730D01*
X177809462Y-110819730D01*
X177551662Y-110740209D01*
X177551656Y-110740207D01*
X177284898Y-110700000D01*
X177015101Y-110700000D01*
X176748343Y-110740207D01*
X176748337Y-110740209D01*
X176490538Y-110819730D01*
X176247482Y-110936780D01*
X176247469Y-110936787D01*
X176064848Y-111061294D01*
X176787706Y-111784152D01*
X176771058Y-111791049D01*
X176640030Y-111878599D01*
X176528599Y-111990030D01*
X176441049Y-112121058D01*
X176434152Y-112137706D01*
X175712294Y-111415848D01*
X175658602Y-111483177D01*
X175523709Y-111716818D01*
X175425148Y-111967947D01*
X175425142Y-111967966D01*
X175365113Y-112230971D01*
X175365113Y-112230973D01*
X175344953Y-112499995D01*
X175344953Y-112500004D01*
X175365113Y-112769026D01*
X175365113Y-112769028D01*
X175425142Y-113032033D01*
X175425148Y-113032052D01*
X175523709Y-113283181D01*
X175523708Y-113283181D01*
X175658600Y-113516818D01*
X175712294Y-113584150D01*
X176434152Y-112862291D01*
X176441049Y-112878942D01*
X176528599Y-113009970D01*
X176640030Y-113121401D01*
X176771058Y-113208951D01*
X176787706Y-113215846D01*
X176037833Y-113965718D01*
X175976510Y-113999203D01*
X175945233Y-113996966D01*
X175945233Y-114000000D01*
X172051362Y-114000000D01*
X171984323Y-113980315D01*
X171963681Y-113963681D01*
X166878711Y-108878711D01*
X169649500Y-108878711D01*
X169649500Y-109121288D01*
X169681161Y-109361785D01*
X169743947Y-109596104D01*
X169834468Y-109814641D01*
X169836776Y-109820212D01*
X169958064Y-110030289D01*
X169958066Y-110030292D01*
X169958067Y-110030293D01*
X170105733Y-110222736D01*
X170105739Y-110222743D01*
X170277256Y-110394260D01*
X170277262Y-110394265D01*
X170469711Y-110541936D01*
X170679788Y-110663224D01*
X170903900Y-110756054D01*
X171138211Y-110818838D01*
X171318586Y-110842584D01*
X171378711Y-110850500D01*
X171378712Y-110850500D01*
X171621289Y-110850500D01*
X171669388Y-110844167D01*
X171861789Y-110818838D01*
X172096100Y-110756054D01*
X172320212Y-110663224D01*
X172530289Y-110541936D01*
X172722738Y-110394265D01*
X172894265Y-110222738D01*
X173041936Y-110030289D01*
X173163224Y-109820212D01*
X173256054Y-109596100D01*
X173318838Y-109361789D01*
X173346720Y-109150000D01*
X229695052Y-109150000D01*
X229714812Y-109401072D01*
X229773603Y-109645956D01*
X229869980Y-109878631D01*
X230001568Y-110093362D01*
X230002266Y-110094179D01*
X230622421Y-109474024D01*
X230635359Y-109505258D01*
X230717437Y-109628097D01*
X230821903Y-109732563D01*
X230944742Y-109814641D01*
X230975974Y-109827577D01*
X230355819Y-110447732D01*
X230355819Y-110447733D01*
X230356634Y-110448429D01*
X230571368Y-110580019D01*
X230804043Y-110676396D01*
X231048927Y-110735187D01*
X231300000Y-110754947D01*
X231551072Y-110735187D01*
X231795956Y-110676396D01*
X232028631Y-110580019D01*
X232243361Y-110448432D01*
X232243363Y-110448430D01*
X232244180Y-110447732D01*
X231624025Y-109827578D01*
X231655258Y-109814641D01*
X231778097Y-109732563D01*
X231882563Y-109628097D01*
X231964641Y-109505258D01*
X231977578Y-109474025D01*
X232597732Y-110094180D01*
X232598430Y-110093363D01*
X232598432Y-110093361D01*
X232730019Y-109878631D01*
X232826396Y-109645956D01*
X232885187Y-109401072D01*
X232904947Y-109150000D01*
X232885187Y-108898927D01*
X232826396Y-108654043D01*
X232730019Y-108421368D01*
X232598429Y-108206634D01*
X232597733Y-108205819D01*
X232597732Y-108205819D01*
X231977577Y-108825973D01*
X231964641Y-108794742D01*
X231882563Y-108671903D01*
X231778097Y-108567437D01*
X231655258Y-108485359D01*
X231624023Y-108472421D01*
X232244179Y-107852266D01*
X232243362Y-107851568D01*
X232028631Y-107719980D01*
X231795956Y-107623603D01*
X231551072Y-107564812D01*
X231300000Y-107545052D01*
X231048927Y-107564812D01*
X230804043Y-107623603D01*
X230571368Y-107719980D01*
X230356637Y-107851567D01*
X230355818Y-107852266D01*
X230975974Y-108472421D01*
X230944742Y-108485359D01*
X230821903Y-108567437D01*
X230717437Y-108671903D01*
X230635359Y-108794742D01*
X230622421Y-108825974D01*
X230002266Y-108205818D01*
X230001567Y-108206637D01*
X229869980Y-108421368D01*
X229773603Y-108654043D01*
X229714812Y-108898927D01*
X229695052Y-109150000D01*
X173346720Y-109150000D01*
X173350500Y-109121288D01*
X173350500Y-108878712D01*
X173318838Y-108638211D01*
X173256054Y-108403900D01*
X173163224Y-108179788D01*
X173041936Y-107969711D01*
X172981018Y-107890321D01*
X172894266Y-107777263D01*
X172894260Y-107777256D01*
X172722743Y-107605739D01*
X172722736Y-107605733D01*
X172530293Y-107458067D01*
X172530292Y-107458066D01*
X172530289Y-107458064D01*
X172320212Y-107336776D01*
X172320205Y-107336773D01*
X172096104Y-107243947D01*
X171861785Y-107181161D01*
X171621289Y-107149500D01*
X171621288Y-107149500D01*
X171378712Y-107149500D01*
X171378711Y-107149500D01*
X171138214Y-107181161D01*
X170903895Y-107243947D01*
X170679794Y-107336773D01*
X170679785Y-107336777D01*
X170469706Y-107458067D01*
X170277263Y-107605733D01*
X170277256Y-107605739D01*
X170105739Y-107777256D01*
X170105733Y-107777263D01*
X169958067Y-107969706D01*
X169836777Y-108179785D01*
X169836773Y-108179794D01*
X169743947Y-108403895D01*
X169681161Y-108638214D01*
X169649500Y-108878711D01*
X166878711Y-108878711D01*
X164610000Y-106610000D01*
X223344551Y-106610000D01*
X223364317Y-106861151D01*
X223423126Y-107106110D01*
X223519533Y-107338859D01*
X223651160Y-107553653D01*
X223651161Y-107553656D01*
X223706604Y-107618571D01*
X223814776Y-107745224D01*
X223939288Y-107851567D01*
X224006343Y-107908838D01*
X224006346Y-107908839D01*
X224221140Y-108040466D01*
X224453889Y-108136873D01*
X224698852Y-108195683D01*
X224950000Y-108215449D01*
X225201148Y-108195683D01*
X225446111Y-108136873D01*
X225678859Y-108040466D01*
X225893659Y-107908836D01*
X226085224Y-107745224D01*
X226248836Y-107553659D01*
X226380466Y-107338859D01*
X226476873Y-107106111D01*
X226535683Y-106861148D01*
X226555449Y-106610000D01*
X226535683Y-106358852D01*
X226476873Y-106113889D01*
X226380466Y-105881141D01*
X226380466Y-105881140D01*
X226248839Y-105666346D01*
X226248838Y-105666343D01*
X226164031Y-105567047D01*
X226085224Y-105474776D01*
X225919219Y-105332994D01*
X225893656Y-105311161D01*
X225893653Y-105311160D01*
X225678859Y-105179533D01*
X225446110Y-105083126D01*
X225201151Y-105024317D01*
X224950000Y-105004551D01*
X224698848Y-105024317D01*
X224453889Y-105083126D01*
X224221140Y-105179533D01*
X224006346Y-105311160D01*
X224006343Y-105311161D01*
X223814776Y-105474776D01*
X223651161Y-105666343D01*
X223651160Y-105666346D01*
X223519533Y-105881140D01*
X223423126Y-106113889D01*
X223364317Y-106358848D01*
X223344551Y-106610000D01*
X164610000Y-106610000D01*
X164000000Y-106000000D01*
X35124000Y-106000000D01*
X35056961Y-105980315D01*
X35011206Y-105927511D01*
X35000000Y-105876000D01*
X35000000Y-104748627D01*
X35019685Y-104681588D01*
X35072489Y-104635833D01*
X35141647Y-104625889D01*
X35198311Y-104649360D01*
X35257665Y-104693793D01*
X35257668Y-104693795D01*
X35257671Y-104693797D01*
X35392517Y-104744091D01*
X35392516Y-104744091D01*
X35399444Y-104744835D01*
X35452127Y-104750500D01*
X41547872Y-104750499D01*
X41607483Y-104744091D01*
X41742331Y-104693796D01*
X41857546Y-104607546D01*
X41943796Y-104492331D01*
X41994091Y-104357483D01*
X42000500Y-104297873D01*
X42000500Y-103866868D01*
X42020185Y-103799829D01*
X42072989Y-103754074D01*
X42100308Y-103745251D01*
X42181803Y-103729039D01*
X42218913Y-103721658D01*
X42355495Y-103665084D01*
X42407992Y-103630007D01*
X42478416Y-103582952D01*
X43061368Y-103000000D01*
X164094540Y-103000000D01*
X164114326Y-103188256D01*
X164114327Y-103188259D01*
X164172818Y-103368277D01*
X164172821Y-103368284D01*
X164267467Y-103532216D01*
X164375637Y-103652351D01*
X164394129Y-103672888D01*
X164547265Y-103784148D01*
X164547270Y-103784151D01*
X164720197Y-103861144D01*
X164834136Y-103885361D01*
X164877240Y-103903548D01*
X164894505Y-103915084D01*
X164894507Y-103915084D01*
X164894511Y-103915087D01*
X165031082Y-103971656D01*
X165031087Y-103971658D01*
X165031091Y-103971658D01*
X165031092Y-103971659D01*
X165176079Y-104000500D01*
X165176082Y-104000500D01*
X165875501Y-104000500D01*
X165942540Y-104020185D01*
X165988295Y-104072989D01*
X165999501Y-104124500D01*
X165999501Y-104297876D01*
X166005908Y-104357483D01*
X166056202Y-104492328D01*
X166056206Y-104492335D01*
X166142452Y-104607544D01*
X166142455Y-104607547D01*
X166257664Y-104693793D01*
X166257671Y-104693797D01*
X166392517Y-104744091D01*
X166392516Y-104744091D01*
X166399444Y-104744835D01*
X166452127Y-104750500D01*
X172547872Y-104750499D01*
X172607483Y-104744091D01*
X172742331Y-104693796D01*
X172857546Y-104607546D01*
X172943796Y-104492331D01*
X172994091Y-104357483D01*
X173000500Y-104297873D01*
X173000500Y-103932486D01*
X188289500Y-103932486D01*
X188289500Y-104227513D01*
X188306612Y-104357483D01*
X188328007Y-104519993D01*
X188401682Y-104794952D01*
X188404361Y-104804951D01*
X188404364Y-104804961D01*
X188517254Y-105077500D01*
X188517258Y-105077510D01*
X188664761Y-105332993D01*
X188844352Y-105567040D01*
X188844358Y-105567047D01*
X189052952Y-105775641D01*
X189052959Y-105775647D01*
X189287006Y-105955238D01*
X189542489Y-106102741D01*
X189542490Y-106102741D01*
X189542493Y-106102743D01*
X189815048Y-106215639D01*
X190100007Y-106291993D01*
X190392494Y-106330500D01*
X190392501Y-106330500D01*
X190687499Y-106330500D01*
X190687506Y-106330500D01*
X190979993Y-106291993D01*
X191264952Y-106215639D01*
X191537507Y-106102743D01*
X191792994Y-105955238D01*
X192027042Y-105775646D01*
X192235646Y-105567042D01*
X192415238Y-105332994D01*
X192562743Y-105077507D01*
X192675639Y-104804952D01*
X192751993Y-104519993D01*
X192790500Y-104227506D01*
X192790500Y-103932494D01*
X192790499Y-103932486D01*
X207389500Y-103932486D01*
X207389500Y-104227513D01*
X207406612Y-104357483D01*
X207428007Y-104519993D01*
X207501682Y-104794952D01*
X207504361Y-104804951D01*
X207504364Y-104804961D01*
X207617254Y-105077500D01*
X207617258Y-105077510D01*
X207764761Y-105332993D01*
X207944352Y-105567040D01*
X207944358Y-105567047D01*
X208152952Y-105775641D01*
X208152959Y-105775647D01*
X208387006Y-105955238D01*
X208642489Y-106102741D01*
X208642490Y-106102741D01*
X208642493Y-106102743D01*
X208915048Y-106215639D01*
X209200007Y-106291993D01*
X209492494Y-106330500D01*
X209492501Y-106330500D01*
X209787499Y-106330500D01*
X209787506Y-106330500D01*
X210079993Y-106291993D01*
X210364952Y-106215639D01*
X210637507Y-106102743D01*
X210892994Y-105955238D01*
X211127042Y-105775646D01*
X211335646Y-105567042D01*
X211515238Y-105332994D01*
X211662743Y-105077507D01*
X211775639Y-104804952D01*
X211851993Y-104519993D01*
X211890500Y-104227506D01*
X211890500Y-103932494D01*
X211889182Y-103922486D01*
X226509500Y-103922486D01*
X226509500Y-104217513D01*
X226527928Y-104357482D01*
X226548007Y-104509993D01*
X226624361Y-104794951D01*
X226624364Y-104794961D01*
X226737254Y-105067500D01*
X226737258Y-105067510D01*
X226884761Y-105322993D01*
X227064352Y-105557040D01*
X227064358Y-105557047D01*
X227272952Y-105765641D01*
X227272959Y-105765647D01*
X227507006Y-105945238D01*
X227762489Y-106092741D01*
X227762490Y-106092741D01*
X227762493Y-106092743D01*
X228035048Y-106205639D01*
X228320007Y-106281993D01*
X228612494Y-106320500D01*
X228612501Y-106320500D01*
X228907499Y-106320500D01*
X228907506Y-106320500D01*
X229199993Y-106281993D01*
X229484952Y-106205639D01*
X229757507Y-106092743D01*
X230012994Y-105945238D01*
X230247042Y-105765646D01*
X230455646Y-105557042D01*
X230635238Y-105322994D01*
X230782743Y-105067507D01*
X230895639Y-104794952D01*
X230971993Y-104509993D01*
X231010500Y-104217506D01*
X231010500Y-103932486D01*
X245589500Y-103932486D01*
X245589500Y-104227513D01*
X245606612Y-104357483D01*
X245628007Y-104519993D01*
X245701682Y-104794952D01*
X245704361Y-104804951D01*
X245704364Y-104804961D01*
X245817254Y-105077500D01*
X245817258Y-105077510D01*
X245964761Y-105332993D01*
X246144352Y-105567040D01*
X246144358Y-105567047D01*
X246352952Y-105775641D01*
X246352959Y-105775647D01*
X246587006Y-105955238D01*
X246842489Y-106102741D01*
X246842490Y-106102741D01*
X246842493Y-106102743D01*
X247115048Y-106215639D01*
X247400007Y-106291993D01*
X247692494Y-106330500D01*
X247692501Y-106330500D01*
X247987499Y-106330500D01*
X247987506Y-106330500D01*
X248279993Y-106291993D01*
X248564952Y-106215639D01*
X248837507Y-106102743D01*
X249092994Y-105955238D01*
X249327042Y-105775646D01*
X249535646Y-105567042D01*
X249715238Y-105332994D01*
X249862743Y-105077507D01*
X249975639Y-104804952D01*
X250051993Y-104519993D01*
X250090500Y-104227506D01*
X250090500Y-103932494D01*
X250051993Y-103640007D01*
X249975639Y-103355048D01*
X249862743Y-103082493D01*
X249856967Y-103072489D01*
X249715238Y-102827006D01*
X249535647Y-102592959D01*
X249535641Y-102592952D01*
X249327047Y-102384358D01*
X249327040Y-102384352D01*
X249092993Y-102204761D01*
X248837510Y-102057258D01*
X248837500Y-102057254D01*
X248564961Y-101944364D01*
X248564954Y-101944362D01*
X248564952Y-101944361D01*
X248279993Y-101868007D01*
X248220724Y-101860204D01*
X247987513Y-101829500D01*
X247987506Y-101829500D01*
X247692494Y-101829500D01*
X247692486Y-101829500D01*
X247414085Y-101866153D01*
X247400007Y-101868007D01*
X247177448Y-101927641D01*
X247115048Y-101944361D01*
X247115038Y-101944364D01*
X246842499Y-102057254D01*
X246842489Y-102057258D01*
X246587006Y-102204761D01*
X246352959Y-102384352D01*
X246352952Y-102384358D01*
X246144358Y-102592952D01*
X246144352Y-102592959D01*
X245964761Y-102827006D01*
X245817258Y-103082489D01*
X245817254Y-103082499D01*
X245704364Y-103355038D01*
X245704361Y-103355048D01*
X245630685Y-103630015D01*
X245628008Y-103640004D01*
X245628006Y-103640015D01*
X245589500Y-103932486D01*
X231010500Y-103932486D01*
X231010500Y-103922494D01*
X230971993Y-103630007D01*
X230895639Y-103345048D01*
X230875999Y-103297634D01*
X230830695Y-103188259D01*
X230782743Y-103072493D01*
X230779498Y-103066873D01*
X230635238Y-102817006D01*
X230455647Y-102582959D01*
X230455641Y-102582952D01*
X230247047Y-102374358D01*
X230247040Y-102374352D01*
X230012993Y-102194761D01*
X229757510Y-102047258D01*
X229757500Y-102047254D01*
X229484961Y-101934364D01*
X229484954Y-101934362D01*
X229484952Y-101934361D01*
X229199993Y-101858007D01*
X229144028Y-101850639D01*
X228907513Y-101819500D01*
X228907506Y-101819500D01*
X228612494Y-101819500D01*
X228612486Y-101819500D01*
X228334085Y-101856153D01*
X228320007Y-101858007D01*
X228060128Y-101927641D01*
X228035048Y-101934361D01*
X228035038Y-101934364D01*
X227762499Y-102047254D01*
X227762489Y-102047258D01*
X227507006Y-102194761D01*
X227272959Y-102374352D01*
X227272952Y-102374358D01*
X227064358Y-102582952D01*
X227064352Y-102582959D01*
X226884761Y-102817006D01*
X226737258Y-103072489D01*
X226737254Y-103072499D01*
X226624364Y-103345038D01*
X226624361Y-103345048D01*
X226574211Y-103532214D01*
X226548008Y-103630004D01*
X226548006Y-103630015D01*
X226509500Y-103922486D01*
X211889182Y-103922486D01*
X211851993Y-103640007D01*
X211775639Y-103355048D01*
X211662743Y-103082493D01*
X211656967Y-103072489D01*
X211515238Y-102827006D01*
X211335647Y-102592959D01*
X211335641Y-102592952D01*
X211127047Y-102384358D01*
X211127040Y-102384352D01*
X210892993Y-102204761D01*
X210637510Y-102057258D01*
X210637500Y-102057254D01*
X210364961Y-101944364D01*
X210364954Y-101944362D01*
X210364952Y-101944361D01*
X210079993Y-101868007D01*
X210020724Y-101860204D01*
X209787513Y-101829500D01*
X209787506Y-101829500D01*
X209492494Y-101829500D01*
X209492486Y-101829500D01*
X209214085Y-101866153D01*
X209200007Y-101868007D01*
X208977448Y-101927641D01*
X208915048Y-101944361D01*
X208915038Y-101944364D01*
X208642499Y-102057254D01*
X208642489Y-102057258D01*
X208387006Y-102204761D01*
X208152959Y-102384352D01*
X208152952Y-102384358D01*
X207944358Y-102592952D01*
X207944352Y-102592959D01*
X207764761Y-102827006D01*
X207617258Y-103082489D01*
X207617254Y-103082499D01*
X207504364Y-103355038D01*
X207504361Y-103355048D01*
X207430685Y-103630015D01*
X207428008Y-103640004D01*
X207428006Y-103640015D01*
X207389500Y-103932486D01*
X192790499Y-103932486D01*
X192751993Y-103640007D01*
X192675639Y-103355048D01*
X192562743Y-103082493D01*
X192556967Y-103072489D01*
X192415238Y-102827006D01*
X192235647Y-102592959D01*
X192235641Y-102592952D01*
X192027047Y-102384358D01*
X192027040Y-102384352D01*
X191792993Y-102204761D01*
X191537510Y-102057258D01*
X191537500Y-102057254D01*
X191264961Y-101944364D01*
X191264954Y-101944362D01*
X191264952Y-101944361D01*
X190979993Y-101868007D01*
X190920724Y-101860204D01*
X190687513Y-101829500D01*
X190687506Y-101829500D01*
X190392494Y-101829500D01*
X190392486Y-101829500D01*
X190114085Y-101866153D01*
X190100007Y-101868007D01*
X189877448Y-101927641D01*
X189815048Y-101944361D01*
X189815038Y-101944364D01*
X189542499Y-102057254D01*
X189542489Y-102057258D01*
X189287006Y-102204761D01*
X189052959Y-102384352D01*
X189052952Y-102384358D01*
X188844358Y-102592952D01*
X188844352Y-102592959D01*
X188664761Y-102827006D01*
X188517258Y-103082489D01*
X188517254Y-103082499D01*
X188404364Y-103355038D01*
X188404361Y-103355048D01*
X188330685Y-103630015D01*
X188328008Y-103640004D01*
X188328006Y-103640015D01*
X188289500Y-103932486D01*
X173000500Y-103932486D01*
X173000499Y-102499993D01*
X176594700Y-102499993D01*
X176594700Y-102500006D01*
X176613864Y-102731297D01*
X176613866Y-102731308D01*
X176670842Y-102956300D01*
X176764075Y-103168848D01*
X176891016Y-103363147D01*
X176891019Y-103363151D01*
X176891021Y-103363153D01*
X177048216Y-103533913D01*
X177048219Y-103533915D01*
X177048222Y-103533918D01*
X177231365Y-103676464D01*
X177231371Y-103676468D01*
X177231374Y-103676470D01*
X177398860Y-103767109D01*
X177434652Y-103786479D01*
X177435497Y-103786936D01*
X177549487Y-103826068D01*
X177655015Y-103862297D01*
X177655017Y-103862297D01*
X177655019Y-103862298D01*
X177883951Y-103900500D01*
X177883952Y-103900500D01*
X178116048Y-103900500D01*
X178116049Y-103900500D01*
X178344981Y-103862298D01*
X178348343Y-103861144D01*
X178353439Y-103859394D01*
X178564503Y-103786936D01*
X178768626Y-103676470D01*
X178769170Y-103676047D01*
X178923838Y-103555664D01*
X178951784Y-103533913D01*
X179108979Y-103363153D01*
X179235924Y-103168849D01*
X179329157Y-102956300D01*
X179367916Y-102803243D01*
X179400440Y-102746004D01*
X179517036Y-102629407D01*
X179534075Y-102692993D01*
X179599901Y-102807007D01*
X179692993Y-102900099D01*
X179807007Y-102965925D01*
X179870590Y-102982962D01*
X179201201Y-103652351D01*
X179231649Y-103676050D01*
X179435697Y-103786476D01*
X179435706Y-103786479D01*
X179655139Y-103861811D01*
X179883993Y-103900000D01*
X180116007Y-103900000D01*
X180344860Y-103861811D01*
X180564293Y-103786479D01*
X180564301Y-103786476D01*
X180768355Y-103676047D01*
X180798797Y-103652351D01*
X180798798Y-103652350D01*
X180129410Y-102982962D01*
X180192993Y-102965925D01*
X180307007Y-102900099D01*
X180400099Y-102807007D01*
X180465925Y-102692993D01*
X180482962Y-102629409D01*
X180599559Y-102746006D01*
X180632083Y-102803246D01*
X180670841Y-102956293D01*
X180670845Y-102956306D01*
X180764075Y-103168848D01*
X180891016Y-103363147D01*
X180891019Y-103363151D01*
X180891021Y-103363153D01*
X181048216Y-103533913D01*
X181048219Y-103533915D01*
X181048222Y-103533918D01*
X181231365Y-103676464D01*
X181231371Y-103676468D01*
X181231374Y-103676470D01*
X181398860Y-103767109D01*
X181434652Y-103786479D01*
X181435497Y-103786936D01*
X181549487Y-103826068D01*
X181655015Y-103862297D01*
X181655017Y-103862297D01*
X181655019Y-103862298D01*
X181883951Y-103900500D01*
X181883952Y-103900500D01*
X182116048Y-103900500D01*
X182116049Y-103900500D01*
X182344981Y-103862298D01*
X182348343Y-103861144D01*
X182353439Y-103859394D01*
X182564503Y-103786936D01*
X182768626Y-103676470D01*
X182923839Y-103555663D01*
X182988831Y-103530021D01*
X183057371Y-103543587D01*
X183076156Y-103555659D01*
X183184522Y-103640004D01*
X183230830Y-103676047D01*
X183231374Y-103676470D01*
X183398860Y-103767109D01*
X183434652Y-103786479D01*
X183435497Y-103786936D01*
X183549487Y-103826068D01*
X183655015Y-103862297D01*
X183655017Y-103862297D01*
X183655019Y-103862298D01*
X183883951Y-103900500D01*
X183883952Y-103900500D01*
X184116048Y-103900500D01*
X184116049Y-103900500D01*
X184344981Y-103862298D01*
X184348343Y-103861144D01*
X184353439Y-103859394D01*
X184564503Y-103786936D01*
X184768626Y-103676470D01*
X184769170Y-103676047D01*
X184923838Y-103555664D01*
X184951784Y-103533913D01*
X185108979Y-103363153D01*
X185235924Y-103168849D01*
X185329157Y-102956300D01*
X185367916Y-102803243D01*
X185400440Y-102746004D01*
X185517036Y-102629407D01*
X185534075Y-102692993D01*
X185599901Y-102807007D01*
X185692993Y-102900099D01*
X185807007Y-102965925D01*
X185870590Y-102982962D01*
X185201201Y-103652351D01*
X185231649Y-103676050D01*
X185435697Y-103786476D01*
X185435706Y-103786479D01*
X185655139Y-103861811D01*
X185883993Y-103900000D01*
X186116007Y-103900000D01*
X186344860Y-103861811D01*
X186564293Y-103786479D01*
X186564301Y-103786476D01*
X186768355Y-103676047D01*
X186798797Y-103652351D01*
X186798798Y-103652350D01*
X186129410Y-102982962D01*
X186192993Y-102965925D01*
X186307007Y-102900099D01*
X186400099Y-102807007D01*
X186465925Y-102692993D01*
X186482962Y-102629409D01*
X187151186Y-103297634D01*
X187235484Y-103168606D01*
X187328682Y-102956135D01*
X187385638Y-102731218D01*
X187404798Y-102500005D01*
X187404798Y-102499994D01*
X187385638Y-102268781D01*
X187328682Y-102043864D01*
X187235483Y-101831390D01*
X187151186Y-101702364D01*
X186482962Y-102370589D01*
X186465925Y-102307007D01*
X186400099Y-102192993D01*
X186307007Y-102099901D01*
X186192993Y-102034075D01*
X186129409Y-102017037D01*
X186606445Y-101540000D01*
X192744551Y-101540000D01*
X192764317Y-101791151D01*
X192823126Y-102036110D01*
X192919533Y-102268859D01*
X193051160Y-102483653D01*
X193051161Y-102483656D01*
X193106604Y-102548571D01*
X193214776Y-102675224D01*
X193363066Y-102801875D01*
X193406343Y-102838838D01*
X193406346Y-102838839D01*
X193621140Y-102970466D01*
X193853889Y-103066873D01*
X194098852Y-103125683D01*
X194350000Y-103145449D01*
X194601148Y-103125683D01*
X194846111Y-103066873D01*
X195078859Y-102970466D01*
X195293659Y-102838836D01*
X195485224Y-102675224D01*
X195634885Y-102499993D01*
X196594700Y-102499993D01*
X196594700Y-102500006D01*
X196613864Y-102731297D01*
X196613866Y-102731308D01*
X196670842Y-102956300D01*
X196764075Y-103168848D01*
X196891016Y-103363147D01*
X196891019Y-103363151D01*
X196891021Y-103363153D01*
X197048216Y-103533913D01*
X197048219Y-103533915D01*
X197048222Y-103533918D01*
X197231365Y-103676464D01*
X197231371Y-103676468D01*
X197231374Y-103676470D01*
X197398860Y-103767109D01*
X197434652Y-103786479D01*
X197435497Y-103786936D01*
X197549487Y-103826068D01*
X197655015Y-103862297D01*
X197655017Y-103862297D01*
X197655019Y-103862298D01*
X197883951Y-103900500D01*
X197883952Y-103900500D01*
X198116048Y-103900500D01*
X198116049Y-103900500D01*
X198344981Y-103862298D01*
X198348343Y-103861144D01*
X198353439Y-103859394D01*
X198564503Y-103786936D01*
X198768626Y-103676470D01*
X198769170Y-103676047D01*
X198923838Y-103555664D01*
X198951784Y-103533913D01*
X199108979Y-103363153D01*
X199235924Y-103168849D01*
X199329157Y-102956300D01*
X199367916Y-102803243D01*
X199400440Y-102746004D01*
X199517036Y-102629407D01*
X199534075Y-102692993D01*
X199599901Y-102807007D01*
X199692993Y-102900099D01*
X199807007Y-102965925D01*
X199870590Y-102982962D01*
X199201201Y-103652351D01*
X199231649Y-103676050D01*
X199435697Y-103786476D01*
X199435706Y-103786479D01*
X199655139Y-103861811D01*
X199883993Y-103900000D01*
X200116007Y-103900000D01*
X200344860Y-103861811D01*
X200564293Y-103786479D01*
X200564301Y-103786476D01*
X200768355Y-103676047D01*
X200798797Y-103652351D01*
X200798798Y-103652350D01*
X200129410Y-102982962D01*
X200192993Y-102965925D01*
X200307007Y-102900099D01*
X200400099Y-102807007D01*
X200465925Y-102692993D01*
X200482962Y-102629409D01*
X200599559Y-102746006D01*
X200632083Y-102803246D01*
X200670841Y-102956293D01*
X200670845Y-102956306D01*
X200764075Y-103168848D01*
X200891016Y-103363147D01*
X200891019Y-103363151D01*
X200891021Y-103363153D01*
X201048216Y-103533913D01*
X201048219Y-103533915D01*
X201048222Y-103533918D01*
X201231365Y-103676464D01*
X201231371Y-103676468D01*
X201231374Y-103676470D01*
X201398860Y-103767109D01*
X201434652Y-103786479D01*
X201435497Y-103786936D01*
X201549487Y-103826068D01*
X201655015Y-103862297D01*
X201655017Y-103862297D01*
X201655019Y-103862298D01*
X201883951Y-103900500D01*
X201883952Y-103900500D01*
X202116048Y-103900500D01*
X202116049Y-103900500D01*
X202344981Y-103862298D01*
X202348343Y-103861144D01*
X202353439Y-103859394D01*
X202564503Y-103786936D01*
X202768626Y-103676470D01*
X202923839Y-103555663D01*
X202988831Y-103530021D01*
X203057371Y-103543587D01*
X203076156Y-103555659D01*
X203184522Y-103640004D01*
X203230830Y-103676047D01*
X203231374Y-103676470D01*
X203398860Y-103767109D01*
X203434652Y-103786479D01*
X203435497Y-103786936D01*
X203549487Y-103826068D01*
X203655015Y-103862297D01*
X203655017Y-103862297D01*
X203655019Y-103862298D01*
X203883951Y-103900500D01*
X203883952Y-103900500D01*
X204116048Y-103900500D01*
X204116049Y-103900500D01*
X204344981Y-103862298D01*
X204348343Y-103861144D01*
X204353439Y-103859394D01*
X204564503Y-103786936D01*
X204768626Y-103676470D01*
X204769170Y-103676047D01*
X204923838Y-103555664D01*
X204951784Y-103533913D01*
X205108979Y-103363153D01*
X205235924Y-103168849D01*
X205329157Y-102956300D01*
X205367916Y-102803243D01*
X205400440Y-102746004D01*
X205517036Y-102629407D01*
X205534075Y-102692993D01*
X205599901Y-102807007D01*
X205692993Y-102900099D01*
X205807007Y-102965925D01*
X205870590Y-102982962D01*
X205201201Y-103652351D01*
X205231649Y-103676050D01*
X205435697Y-103786476D01*
X205435706Y-103786479D01*
X205655139Y-103861811D01*
X205883993Y-103900000D01*
X206116007Y-103900000D01*
X206344860Y-103861811D01*
X206564293Y-103786479D01*
X206564301Y-103786476D01*
X206768355Y-103676047D01*
X206798797Y-103652351D01*
X206798798Y-103652350D01*
X206129410Y-102982962D01*
X206192993Y-102965925D01*
X206307007Y-102900099D01*
X206400099Y-102807007D01*
X206465925Y-102692993D01*
X206482962Y-102629409D01*
X207151186Y-103297634D01*
X207235484Y-103168606D01*
X207328682Y-102956135D01*
X207385638Y-102731218D01*
X207404798Y-102500005D01*
X207404798Y-102499994D01*
X207385638Y-102268781D01*
X207328682Y-102043864D01*
X207235483Y-101831390D01*
X207151186Y-101702364D01*
X206482962Y-102370589D01*
X206465925Y-102307007D01*
X206400099Y-102192993D01*
X206307007Y-102099901D01*
X206192993Y-102034075D01*
X206129409Y-102017037D01*
X206606445Y-101540000D01*
X211844551Y-101540000D01*
X211864317Y-101791151D01*
X211923126Y-102036110D01*
X212019533Y-102268859D01*
X212151160Y-102483653D01*
X212151161Y-102483656D01*
X212206604Y-102548571D01*
X212314776Y-102675224D01*
X212463066Y-102801875D01*
X212506343Y-102838838D01*
X212506346Y-102838839D01*
X212721140Y-102970466D01*
X212953889Y-103066873D01*
X213198852Y-103125683D01*
X213450000Y-103145449D01*
X213701148Y-103125683D01*
X213946111Y-103066873D01*
X214178859Y-102970466D01*
X214393659Y-102838836D01*
X214585224Y-102675224D01*
X214748836Y-102483659D01*
X214880466Y-102268859D01*
X214976873Y-102036111D01*
X215035683Y-101791148D01*
X215055449Y-101540000D01*
X250044551Y-101540000D01*
X250064317Y-101791151D01*
X250123126Y-102036110D01*
X250219533Y-102268859D01*
X250351160Y-102483653D01*
X250351161Y-102483656D01*
X250406604Y-102548571D01*
X250514776Y-102675224D01*
X250663066Y-102801875D01*
X250706343Y-102838838D01*
X250706346Y-102838839D01*
X250921140Y-102970466D01*
X251153889Y-103066873D01*
X251398852Y-103125683D01*
X251650000Y-103145449D01*
X251901148Y-103125683D01*
X252146111Y-103066873D01*
X252378859Y-102970466D01*
X252593659Y-102838836D01*
X252785224Y-102675224D01*
X252948836Y-102483659D01*
X253080466Y-102268859D01*
X253176873Y-102036111D01*
X253235683Y-101791148D01*
X253255449Y-101540000D01*
X253235683Y-101288852D01*
X253176873Y-101043889D01*
X253144424Y-100965550D01*
X253080466Y-100811140D01*
X252948839Y-100596346D01*
X252948838Y-100596343D01*
X252866553Y-100500000D01*
X252785224Y-100404776D01*
X252658571Y-100296604D01*
X252593656Y-100241161D01*
X252593653Y-100241160D01*
X252378859Y-100109533D01*
X252146110Y-100013126D01*
X251901151Y-99954317D01*
X251650000Y-99934551D01*
X251398848Y-99954317D01*
X251153889Y-100013126D01*
X250921140Y-100109533D01*
X250706346Y-100241160D01*
X250706343Y-100241161D01*
X250514776Y-100404776D01*
X250351161Y-100596343D01*
X250351160Y-100596346D01*
X250219533Y-100811140D01*
X250123126Y-101043889D01*
X250064317Y-101288848D01*
X250044551Y-101540000D01*
X215055449Y-101540000D01*
X215035683Y-101288852D01*
X214976873Y-101043889D01*
X214944424Y-100965550D01*
X214880466Y-100811140D01*
X214748839Y-100596346D01*
X214748838Y-100596343D01*
X214666553Y-100500000D01*
X214585224Y-100404776D01*
X214458571Y-100296604D01*
X214393656Y-100241161D01*
X214393653Y-100241160D01*
X214178859Y-100109533D01*
X213946110Y-100013126D01*
X213701151Y-99954317D01*
X213450000Y-99934551D01*
X213198848Y-99954317D01*
X212953889Y-100013126D01*
X212721140Y-100109533D01*
X212506346Y-100241160D01*
X212506343Y-100241161D01*
X212314776Y-100404776D01*
X212151161Y-100596343D01*
X212151160Y-100596346D01*
X212019533Y-100811140D01*
X211923126Y-101043889D01*
X211864317Y-101288848D01*
X211844551Y-101540000D01*
X206606445Y-101540000D01*
X206798797Y-101347647D01*
X206798797Y-101347645D01*
X206768360Y-101323955D01*
X206768354Y-101323951D01*
X206564302Y-101213523D01*
X206564293Y-101213520D01*
X206344860Y-101138188D01*
X206116007Y-101100000D01*
X205883993Y-101100000D01*
X205655139Y-101138188D01*
X205435706Y-101213520D01*
X205435697Y-101213523D01*
X205231650Y-101323949D01*
X205201200Y-101347647D01*
X205870591Y-102017037D01*
X205807007Y-102034075D01*
X205692993Y-102099901D01*
X205599901Y-102192993D01*
X205534075Y-102307007D01*
X205517037Y-102370590D01*
X205400440Y-102253993D01*
X205367915Y-102196752D01*
X205354181Y-102142517D01*
X205329157Y-102043700D01*
X205235924Y-101831151D01*
X205186766Y-101755909D01*
X205108983Y-101636852D01*
X205108980Y-101636849D01*
X205108979Y-101636847D01*
X204951784Y-101466087D01*
X204951779Y-101466083D01*
X204951777Y-101466081D01*
X204768634Y-101323535D01*
X204768628Y-101323531D01*
X204564504Y-101213064D01*
X204564495Y-101213061D01*
X204344984Y-101137702D01*
X204163882Y-101107482D01*
X204116049Y-101099500D01*
X203883951Y-101099500D01*
X203838164Y-101107140D01*
X203655015Y-101137702D01*
X203435504Y-101213061D01*
X203435495Y-101213064D01*
X203231372Y-101323531D01*
X203076162Y-101444335D01*
X203011168Y-101469977D01*
X202942628Y-101456410D01*
X202923838Y-101444335D01*
X202768627Y-101323531D01*
X202768626Y-101323530D01*
X202674970Y-101272845D01*
X202564504Y-101213064D01*
X202564495Y-101213061D01*
X202344984Y-101137702D01*
X202163882Y-101107482D01*
X202116049Y-101099500D01*
X201883951Y-101099500D01*
X201838164Y-101107140D01*
X201655015Y-101137702D01*
X201435504Y-101213061D01*
X201435495Y-101213064D01*
X201231371Y-101323531D01*
X201231365Y-101323535D01*
X201048222Y-101466081D01*
X201048219Y-101466084D01*
X200891016Y-101636852D01*
X200764075Y-101831151D01*
X200670845Y-102043693D01*
X200670842Y-102043703D01*
X200632083Y-102196753D01*
X200599560Y-102253992D01*
X200482962Y-102370589D01*
X200465925Y-102307007D01*
X200400099Y-102192993D01*
X200307007Y-102099901D01*
X200192993Y-102034075D01*
X200129409Y-102017037D01*
X200798797Y-101347647D01*
X200798797Y-101347645D01*
X200768360Y-101323955D01*
X200768354Y-101323951D01*
X200564302Y-101213523D01*
X200564293Y-101213520D01*
X200344860Y-101138188D01*
X200116007Y-101100000D01*
X199883993Y-101100000D01*
X199655139Y-101138188D01*
X199435706Y-101213520D01*
X199435697Y-101213523D01*
X199231650Y-101323949D01*
X199201200Y-101347647D01*
X199870591Y-102017037D01*
X199807007Y-102034075D01*
X199692993Y-102099901D01*
X199599901Y-102192993D01*
X199534075Y-102307007D01*
X199517037Y-102370590D01*
X199400440Y-102253993D01*
X199367915Y-102196752D01*
X199354181Y-102142517D01*
X199329157Y-102043700D01*
X199235924Y-101831151D01*
X199186766Y-101755909D01*
X199108983Y-101636852D01*
X199108980Y-101636849D01*
X199108979Y-101636847D01*
X198951784Y-101466087D01*
X198951779Y-101466083D01*
X198951777Y-101466081D01*
X198768634Y-101323535D01*
X198768628Y-101323531D01*
X198564504Y-101213064D01*
X198564495Y-101213061D01*
X198344984Y-101137702D01*
X198163882Y-101107482D01*
X198116049Y-101099500D01*
X197883951Y-101099500D01*
X197838164Y-101107140D01*
X197655015Y-101137702D01*
X197435504Y-101213061D01*
X197435495Y-101213064D01*
X197231371Y-101323531D01*
X197231365Y-101323535D01*
X197048222Y-101466081D01*
X197048219Y-101466084D01*
X196891016Y-101636852D01*
X196764075Y-101831151D01*
X196670842Y-102043699D01*
X196613866Y-102268691D01*
X196613864Y-102268702D01*
X196594700Y-102499993D01*
X195634885Y-102499993D01*
X195648836Y-102483659D01*
X195780466Y-102268859D01*
X195876873Y-102036111D01*
X195935683Y-101791148D01*
X195955449Y-101540000D01*
X195935683Y-101288852D01*
X195876873Y-101043889D01*
X195844424Y-100965550D01*
X195780466Y-100811140D01*
X195648839Y-100596346D01*
X195648838Y-100596343D01*
X195566553Y-100500000D01*
X195485224Y-100404776D01*
X195358571Y-100296604D01*
X195293656Y-100241161D01*
X195293653Y-100241160D01*
X195078859Y-100109533D01*
X194846110Y-100013126D01*
X194601151Y-99954317D01*
X194350000Y-99934551D01*
X194098848Y-99954317D01*
X193853889Y-100013126D01*
X193621140Y-100109533D01*
X193406346Y-100241160D01*
X193406343Y-100241161D01*
X193214776Y-100404776D01*
X193051161Y-100596343D01*
X193051160Y-100596346D01*
X192919533Y-100811140D01*
X192823126Y-101043889D01*
X192764317Y-101288848D01*
X192744551Y-101540000D01*
X186606445Y-101540000D01*
X186798797Y-101347647D01*
X186798797Y-101347645D01*
X186768360Y-101323955D01*
X186768354Y-101323951D01*
X186564302Y-101213523D01*
X186564293Y-101213520D01*
X186344860Y-101138188D01*
X186116007Y-101100000D01*
X185883993Y-101100000D01*
X185655139Y-101138188D01*
X185435706Y-101213520D01*
X185435697Y-101213523D01*
X185231650Y-101323949D01*
X185201200Y-101347647D01*
X185870591Y-102017037D01*
X185807007Y-102034075D01*
X185692993Y-102099901D01*
X185599901Y-102192993D01*
X185534075Y-102307007D01*
X185517037Y-102370590D01*
X185400440Y-102253993D01*
X185367915Y-102196752D01*
X185354181Y-102142517D01*
X185329157Y-102043700D01*
X185235924Y-101831151D01*
X185186766Y-101755909D01*
X185108983Y-101636852D01*
X185108980Y-101636849D01*
X185108979Y-101636847D01*
X184951784Y-101466087D01*
X184951779Y-101466083D01*
X184951777Y-101466081D01*
X184768634Y-101323535D01*
X184768628Y-101323531D01*
X184564504Y-101213064D01*
X184564495Y-101213061D01*
X184344984Y-101137702D01*
X184163882Y-101107482D01*
X184116049Y-101099500D01*
X183883951Y-101099500D01*
X183838164Y-101107140D01*
X183655015Y-101137702D01*
X183435504Y-101213061D01*
X183435495Y-101213064D01*
X183231372Y-101323531D01*
X183076162Y-101444335D01*
X183011168Y-101469977D01*
X182942628Y-101456410D01*
X182923838Y-101444335D01*
X182768627Y-101323531D01*
X182768626Y-101323530D01*
X182674970Y-101272845D01*
X182564504Y-101213064D01*
X182564495Y-101213061D01*
X182344984Y-101137702D01*
X182163882Y-101107482D01*
X182116049Y-101099500D01*
X181883951Y-101099500D01*
X181838164Y-101107140D01*
X181655015Y-101137702D01*
X181435504Y-101213061D01*
X181435495Y-101213064D01*
X181231371Y-101323531D01*
X181231365Y-101323535D01*
X181048222Y-101466081D01*
X181048219Y-101466084D01*
X180891016Y-101636852D01*
X180764075Y-101831151D01*
X180670845Y-102043693D01*
X180670842Y-102043703D01*
X180632083Y-102196753D01*
X180599560Y-102253992D01*
X180482962Y-102370590D01*
X180465925Y-102307007D01*
X180400099Y-102192993D01*
X180307007Y-102099901D01*
X180192993Y-102034075D01*
X180129409Y-102017037D01*
X180798797Y-101347647D01*
X180798797Y-101347645D01*
X180768360Y-101323955D01*
X180768354Y-101323951D01*
X180564302Y-101213523D01*
X180564293Y-101213520D01*
X180344860Y-101138188D01*
X180116007Y-101100000D01*
X179883993Y-101100000D01*
X179655139Y-101138188D01*
X179435706Y-101213520D01*
X179435697Y-101213523D01*
X179231650Y-101323949D01*
X179201200Y-101347647D01*
X179870591Y-102017037D01*
X179807007Y-102034075D01*
X179692993Y-102099901D01*
X179599901Y-102192993D01*
X179534075Y-102307007D01*
X179517037Y-102370590D01*
X179400440Y-102253993D01*
X179367915Y-102196752D01*
X179354181Y-102142517D01*
X179329157Y-102043700D01*
X179235924Y-101831151D01*
X179186766Y-101755909D01*
X179108983Y-101636852D01*
X179108980Y-101636849D01*
X179108979Y-101636847D01*
X178951784Y-101466087D01*
X178951779Y-101466083D01*
X178951777Y-101466081D01*
X178768634Y-101323535D01*
X178768628Y-101323531D01*
X178564504Y-101213064D01*
X178564495Y-101213061D01*
X178344984Y-101137702D01*
X178163882Y-101107482D01*
X178116049Y-101099500D01*
X177883951Y-101099500D01*
X177838164Y-101107140D01*
X177655015Y-101137702D01*
X177435504Y-101213061D01*
X177435495Y-101213064D01*
X177231371Y-101323531D01*
X177231365Y-101323535D01*
X177048222Y-101466081D01*
X177048219Y-101466084D01*
X176891016Y-101636852D01*
X176764075Y-101831151D01*
X176670842Y-102043699D01*
X176613866Y-102268691D01*
X176613864Y-102268702D01*
X176594700Y-102499993D01*
X173000499Y-102499993D01*
X173000499Y-102202128D01*
X172994091Y-102142517D01*
X172992725Y-102138855D01*
X172943797Y-102007671D01*
X172943793Y-102007664D01*
X172857547Y-101892455D01*
X172857544Y-101892452D01*
X172742335Y-101806206D01*
X172742328Y-101806202D01*
X172607482Y-101755908D01*
X172607483Y-101755908D01*
X172547883Y-101749501D01*
X172547881Y-101749500D01*
X172547873Y-101749500D01*
X172547864Y-101749500D01*
X166452129Y-101749500D01*
X166452123Y-101749501D01*
X166392516Y-101755908D01*
X166257671Y-101806202D01*
X166257664Y-101806206D01*
X166142455Y-101892452D01*
X166142452Y-101892455D01*
X166056206Y-102007664D01*
X166056202Y-102007671D01*
X166005908Y-102142517D01*
X166000482Y-102192993D01*
X165999501Y-102202123D01*
X165999500Y-102202135D01*
X165999500Y-102375500D01*
X165979815Y-102442539D01*
X165927011Y-102488294D01*
X165875500Y-102499500D01*
X165816298Y-102499500D01*
X165749259Y-102479815D01*
X165724148Y-102458472D01*
X165657415Y-102384358D01*
X165605871Y-102327112D01*
X165578199Y-102307007D01*
X165452734Y-102215851D01*
X165452729Y-102215848D01*
X165279807Y-102138857D01*
X165279802Y-102138855D01*
X165134001Y-102107865D01*
X165094646Y-102099500D01*
X164905354Y-102099500D01*
X164872897Y-102106398D01*
X164720197Y-102138855D01*
X164720192Y-102138857D01*
X164547270Y-102215848D01*
X164547265Y-102215851D01*
X164394129Y-102327111D01*
X164267466Y-102467785D01*
X164172821Y-102631715D01*
X164172818Y-102631722D01*
X164117087Y-102803246D01*
X164114326Y-102811744D01*
X164094540Y-103000000D01*
X43061368Y-103000000D01*
X47082952Y-98978416D01*
X47100512Y-98952135D01*
X165999500Y-98952135D01*
X165999500Y-101047870D01*
X165999501Y-101047876D01*
X166005908Y-101107483D01*
X166056202Y-101242328D01*
X166056206Y-101242335D01*
X166142452Y-101357544D01*
X166142455Y-101357547D01*
X166257664Y-101443793D01*
X166257671Y-101443797D01*
X166392517Y-101494091D01*
X166392516Y-101494091D01*
X166399444Y-101494835D01*
X166452127Y-101500500D01*
X172547872Y-101500499D01*
X172607483Y-101494091D01*
X172742331Y-101443796D01*
X172857546Y-101357546D01*
X172943796Y-101242331D01*
X172994091Y-101107483D01*
X173000500Y-101047873D01*
X173000500Y-101032589D01*
X173020185Y-100965550D01*
X173072989Y-100919795D01*
X173142147Y-100909851D01*
X173205703Y-100938876D01*
X173231885Y-100970587D01*
X173267466Y-101032214D01*
X173267467Y-101032216D01*
X173394129Y-101172888D01*
X173547265Y-101284148D01*
X173547270Y-101284151D01*
X173720192Y-101361142D01*
X173720197Y-101361144D01*
X173905354Y-101400500D01*
X173905355Y-101400500D01*
X174094644Y-101400500D01*
X174094646Y-101400500D01*
X174279803Y-101361144D01*
X174452730Y-101284151D01*
X174605871Y-101172888D01*
X174732533Y-101032216D01*
X174827179Y-100868284D01*
X174885674Y-100688256D01*
X174905460Y-100500000D01*
X174885674Y-100311744D01*
X174827179Y-100131716D01*
X174732533Y-99967784D01*
X174605871Y-99827112D01*
X174605870Y-99827111D01*
X174452734Y-99715851D01*
X174452729Y-99715848D01*
X174279807Y-99638857D01*
X174279802Y-99638855D01*
X174134001Y-99607865D01*
X174094646Y-99599500D01*
X174094645Y-99599500D01*
X174035453Y-99599500D01*
X173968414Y-99579815D01*
X173947771Y-99563180D01*
X173898736Y-99514144D01*
X173898733Y-99514141D01*
X173847509Y-99479915D01*
X173796287Y-99445689D01*
X173796286Y-99445688D01*
X173796283Y-99445686D01*
X173796280Y-99445685D01*
X173715792Y-99412347D01*
X173682453Y-99398537D01*
X173672427Y-99396543D01*
X173622029Y-99386518D01*
X173561610Y-99374500D01*
X173561607Y-99374500D01*
X173561606Y-99374500D01*
X173124499Y-99374500D01*
X173057460Y-99354815D01*
X173011705Y-99302011D01*
X173000499Y-99250500D01*
X173000499Y-99044885D01*
X175195034Y-99044885D01*
X175195034Y-99044888D01*
X175214858Y-99271487D01*
X175214860Y-99271498D01*
X175273730Y-99491205D01*
X175273735Y-99491219D01*
X175369863Y-99697366D01*
X175420974Y-99770360D01*
X176100000Y-99091334D01*
X176100000Y-99097549D01*
X176127259Y-99199282D01*
X176179920Y-99290494D01*
X176254394Y-99364968D01*
X176345606Y-99417629D01*
X176447339Y-99444888D01*
X176453553Y-99444888D01*
X175774526Y-100123913D01*
X175847513Y-100175020D01*
X175847521Y-100175024D01*
X176053668Y-100271152D01*
X176053682Y-100271157D01*
X176273389Y-100330027D01*
X176273400Y-100330029D01*
X176499998Y-100349854D01*
X176500002Y-100349854D01*
X176726599Y-100330029D01*
X176726610Y-100330027D01*
X176946317Y-100271157D01*
X176946331Y-100271152D01*
X177152478Y-100175024D01*
X177225471Y-100123912D01*
X176546447Y-99444888D01*
X176552661Y-99444888D01*
X176654394Y-99417629D01*
X176745606Y-99364968D01*
X176820080Y-99290494D01*
X176872741Y-99199282D01*
X176900000Y-99097549D01*
X176900000Y-99091335D01*
X177579024Y-99770359D01*
X177630136Y-99697366D01*
X177726264Y-99491219D01*
X177726269Y-99491205D01*
X177785139Y-99271498D01*
X177785141Y-99271487D01*
X177804966Y-99044888D01*
X177804966Y-99044885D01*
X177801039Y-99000000D01*
X186395052Y-99000000D01*
X186414812Y-99251072D01*
X186473603Y-99495956D01*
X186569980Y-99728631D01*
X186701568Y-99943362D01*
X186702266Y-99944179D01*
X187322421Y-99324024D01*
X187335359Y-99355258D01*
X187417437Y-99478097D01*
X187521903Y-99582563D01*
X187644742Y-99664641D01*
X187675974Y-99677577D01*
X187055819Y-100297732D01*
X187055819Y-100297733D01*
X187056634Y-100298429D01*
X187271368Y-100430019D01*
X187504043Y-100526396D01*
X187748927Y-100585187D01*
X188000000Y-100604947D01*
X188251072Y-100585187D01*
X188495956Y-100526396D01*
X188728631Y-100430019D01*
X188943361Y-100298432D01*
X188943363Y-100298430D01*
X188944180Y-100297732D01*
X188324025Y-99677578D01*
X188355258Y-99664641D01*
X188478097Y-99582563D01*
X188582563Y-99478097D01*
X188664641Y-99355258D01*
X188677578Y-99324025D01*
X189297732Y-99944180D01*
X189298430Y-99943363D01*
X189298432Y-99943361D01*
X189430019Y-99728631D01*
X189526396Y-99495956D01*
X189585187Y-99251072D01*
X189604947Y-99000000D01*
X205495052Y-99000000D01*
X205514812Y-99251072D01*
X205573603Y-99495956D01*
X205669980Y-99728631D01*
X205801568Y-99943362D01*
X205802266Y-99944179D01*
X206422421Y-99324024D01*
X206435359Y-99355258D01*
X206517437Y-99478097D01*
X206621903Y-99582563D01*
X206744742Y-99664641D01*
X206775974Y-99677577D01*
X206155819Y-100297732D01*
X206155819Y-100297733D01*
X206156634Y-100298429D01*
X206371368Y-100430019D01*
X206604043Y-100526396D01*
X206848927Y-100585187D01*
X207100000Y-100604947D01*
X207351072Y-100585187D01*
X207595956Y-100526396D01*
X207828631Y-100430019D01*
X208043361Y-100298432D01*
X208043363Y-100298430D01*
X208044180Y-100297732D01*
X207424025Y-99677578D01*
X207455258Y-99664641D01*
X207578097Y-99582563D01*
X207682563Y-99478097D01*
X207764641Y-99355258D01*
X207777578Y-99324025D01*
X208397732Y-99944180D01*
X208398430Y-99943363D01*
X208398432Y-99943361D01*
X208530019Y-99728631D01*
X208626396Y-99495956D01*
X208685187Y-99251072D01*
X208704947Y-99000000D01*
X243695052Y-99000000D01*
X243714812Y-99251072D01*
X243773603Y-99495956D01*
X243869980Y-99728631D01*
X244001568Y-99943362D01*
X244002266Y-99944179D01*
X244622421Y-99324024D01*
X244635359Y-99355258D01*
X244717437Y-99478097D01*
X244821903Y-99582563D01*
X244944742Y-99664641D01*
X244975974Y-99677577D01*
X244355819Y-100297732D01*
X244355819Y-100297733D01*
X244356634Y-100298429D01*
X244571368Y-100430019D01*
X244804043Y-100526396D01*
X245048927Y-100585187D01*
X245300000Y-100604947D01*
X245551072Y-100585187D01*
X245795956Y-100526396D01*
X246028631Y-100430019D01*
X246243361Y-100298432D01*
X246243363Y-100298430D01*
X246244180Y-100297732D01*
X245624025Y-99677578D01*
X245655258Y-99664641D01*
X245778097Y-99582563D01*
X245882563Y-99478097D01*
X245964641Y-99355258D01*
X245977578Y-99324025D01*
X246597732Y-99944180D01*
X246598430Y-99943363D01*
X246598432Y-99943361D01*
X246730019Y-99728631D01*
X246826396Y-99495956D01*
X246885187Y-99251072D01*
X246904947Y-99000000D01*
X246885187Y-98748927D01*
X246826396Y-98504043D01*
X246730019Y-98271368D01*
X246598429Y-98056634D01*
X246597733Y-98055819D01*
X246597732Y-98055819D01*
X245977577Y-98675973D01*
X245964641Y-98644742D01*
X245882563Y-98521903D01*
X245778097Y-98417437D01*
X245655258Y-98335359D01*
X245624023Y-98322421D01*
X246244179Y-97702266D01*
X246243362Y-97701568D01*
X246028631Y-97569980D01*
X245795956Y-97473603D01*
X245551072Y-97414812D01*
X245300000Y-97395052D01*
X245048927Y-97414812D01*
X244804043Y-97473603D01*
X244571368Y-97569980D01*
X244356637Y-97701567D01*
X244355818Y-97702266D01*
X244975974Y-98322421D01*
X244944742Y-98335359D01*
X244821903Y-98417437D01*
X244717437Y-98521903D01*
X244635359Y-98644742D01*
X244622421Y-98675974D01*
X244002266Y-98055818D01*
X244001567Y-98056637D01*
X243869980Y-98271368D01*
X243773603Y-98504043D01*
X243714812Y-98748927D01*
X243695052Y-99000000D01*
X208704947Y-99000000D01*
X208685187Y-98748927D01*
X208626396Y-98504043D01*
X208530019Y-98271368D01*
X208398429Y-98056634D01*
X208397733Y-98055819D01*
X208397732Y-98055819D01*
X207777577Y-98675973D01*
X207764641Y-98644742D01*
X207682563Y-98521903D01*
X207578097Y-98417437D01*
X207455258Y-98335359D01*
X207424023Y-98322421D01*
X208044179Y-97702266D01*
X208043362Y-97701568D01*
X207828631Y-97569980D01*
X207595956Y-97473603D01*
X207351072Y-97414812D01*
X207100000Y-97395052D01*
X206848927Y-97414812D01*
X206604043Y-97473603D01*
X206371368Y-97569980D01*
X206156637Y-97701567D01*
X206155818Y-97702266D01*
X206775974Y-98322421D01*
X206744742Y-98335359D01*
X206621903Y-98417437D01*
X206517437Y-98521903D01*
X206435359Y-98644742D01*
X206422421Y-98675974D01*
X205802266Y-98055818D01*
X205801567Y-98056637D01*
X205669980Y-98271368D01*
X205573603Y-98504043D01*
X205514812Y-98748927D01*
X205495052Y-99000000D01*
X189604947Y-99000000D01*
X189585187Y-98748927D01*
X189526396Y-98504043D01*
X189430019Y-98271368D01*
X189298429Y-98056634D01*
X189297733Y-98055819D01*
X189297732Y-98055819D01*
X188677577Y-98675973D01*
X188664641Y-98644742D01*
X188582563Y-98521903D01*
X188478097Y-98417437D01*
X188355258Y-98335359D01*
X188324023Y-98322421D01*
X188944179Y-97702266D01*
X188943362Y-97701568D01*
X188728631Y-97569980D01*
X188495956Y-97473603D01*
X188251072Y-97414812D01*
X188000000Y-97395052D01*
X187748927Y-97414812D01*
X187504043Y-97473603D01*
X187271368Y-97569980D01*
X187056637Y-97701567D01*
X187055818Y-97702266D01*
X187675974Y-98322421D01*
X187644742Y-98335359D01*
X187521903Y-98417437D01*
X187417437Y-98521903D01*
X187335359Y-98644742D01*
X187322422Y-98675974D01*
X186702266Y-98055818D01*
X186701567Y-98056637D01*
X186569980Y-98271368D01*
X186473603Y-98504043D01*
X186414812Y-98748927D01*
X186395052Y-99000000D01*
X177801039Y-99000000D01*
X177785141Y-98818288D01*
X177785139Y-98818277D01*
X177726269Y-98598570D01*
X177726265Y-98598561D01*
X177630134Y-98392406D01*
X177630130Y-98392400D01*
X177621188Y-98379628D01*
X177598861Y-98313422D01*
X177615873Y-98245655D01*
X177648454Y-98209239D01*
X177657546Y-98202434D01*
X177743796Y-98087219D01*
X177794091Y-97952371D01*
X177800500Y-97892761D01*
X177800499Y-96197016D01*
X177794091Y-96137405D01*
X177779953Y-96099500D01*
X177743797Y-96002559D01*
X177743793Y-96002552D01*
X177657547Y-95887343D01*
X177657544Y-95887340D01*
X177542335Y-95801094D01*
X177542328Y-95801090D01*
X177407482Y-95750796D01*
X177407483Y-95750796D01*
X177347883Y-95744389D01*
X177347881Y-95744388D01*
X177347873Y-95744388D01*
X177347864Y-95744388D01*
X175652129Y-95744388D01*
X175652123Y-95744389D01*
X175592516Y-95750796D01*
X175457671Y-95801090D01*
X175457664Y-95801094D01*
X175342455Y-95887340D01*
X175342452Y-95887343D01*
X175256206Y-96002552D01*
X175256202Y-96002559D01*
X175205908Y-96137405D01*
X175199501Y-96197004D01*
X175199501Y-96197011D01*
X175199500Y-96197023D01*
X175199500Y-97892758D01*
X175199501Y-97892764D01*
X175205908Y-97952371D01*
X175256202Y-98087216D01*
X175256206Y-98087223D01*
X175342452Y-98202432D01*
X175342453Y-98202432D01*
X175342454Y-98202434D01*
X175351545Y-98209239D01*
X175393416Y-98265170D01*
X175398402Y-98334862D01*
X175378813Y-98379624D01*
X175369871Y-98392395D01*
X175369868Y-98392400D01*
X175273734Y-98598561D01*
X175273730Y-98598570D01*
X175214860Y-98818277D01*
X175214858Y-98818288D01*
X175195034Y-99044885D01*
X173000499Y-99044885D01*
X173000499Y-98952129D01*
X173000498Y-98952123D01*
X173000497Y-98952116D01*
X172994091Y-98892517D01*
X172993336Y-98890494D01*
X172943797Y-98757671D01*
X172943793Y-98757664D01*
X172857547Y-98642455D01*
X172857544Y-98642452D01*
X172742335Y-98556206D01*
X172742328Y-98556202D01*
X172607482Y-98505908D01*
X172607483Y-98505908D01*
X172547883Y-98499501D01*
X172547881Y-98499500D01*
X172547873Y-98499500D01*
X172547864Y-98499500D01*
X166452129Y-98499500D01*
X166452123Y-98499501D01*
X166392516Y-98505908D01*
X166257671Y-98556202D01*
X166257664Y-98556206D01*
X166142455Y-98642452D01*
X166142452Y-98642455D01*
X166056206Y-98757664D01*
X166056202Y-98757671D01*
X166005909Y-98892516D01*
X166005908Y-98892516D01*
X166002170Y-98927291D01*
X165999501Y-98952123D01*
X165999500Y-98952135D01*
X47100512Y-98952135D01*
X47140347Y-98892517D01*
X47165084Y-98855495D01*
X47221658Y-98718913D01*
X47236867Y-98642454D01*
X47250500Y-98573920D01*
X47250500Y-97797844D01*
X166000000Y-97797844D01*
X166006401Y-97857372D01*
X166006403Y-97857379D01*
X166056645Y-97992086D01*
X166056649Y-97992093D01*
X166142809Y-98107187D01*
X166142812Y-98107190D01*
X166257906Y-98193350D01*
X166257913Y-98193354D01*
X166392620Y-98243596D01*
X166392627Y-98243598D01*
X166452155Y-98249999D01*
X166452172Y-98250000D01*
X169250000Y-98250000D01*
X169750000Y-98250000D01*
X172547828Y-98250000D01*
X172547844Y-98249999D01*
X172607372Y-98243598D01*
X172607379Y-98243596D01*
X172742086Y-98193354D01*
X172742093Y-98193350D01*
X172857187Y-98107190D01*
X172857190Y-98107187D01*
X172943350Y-97992093D01*
X172943354Y-97992086D01*
X172993596Y-97857379D01*
X172993598Y-97857372D01*
X172999999Y-97797844D01*
X173000000Y-97797827D01*
X173000000Y-97000000D01*
X169750000Y-97000000D01*
X169750000Y-98250000D01*
X169250000Y-98250000D01*
X169250000Y-97000000D01*
X166000000Y-97000000D01*
X166000000Y-97797844D01*
X47250500Y-97797844D01*
X47250500Y-97534321D01*
X47267113Y-97472321D01*
X47327179Y-97368284D01*
X47385674Y-97188256D01*
X47405460Y-97000000D01*
X47385674Y-96811744D01*
X47327179Y-96631716D01*
X47232533Y-96467784D01*
X47105871Y-96327112D01*
X47105870Y-96327111D01*
X46952734Y-96215851D01*
X46952729Y-96215848D01*
X46779807Y-96138857D01*
X46779802Y-96138855D01*
X46634001Y-96107865D01*
X46594646Y-96099500D01*
X46405354Y-96099500D01*
X46372897Y-96106398D01*
X46220197Y-96138855D01*
X46220192Y-96138857D01*
X46047270Y-96215848D01*
X46047265Y-96215851D01*
X45894129Y-96327111D01*
X45767466Y-96467785D01*
X45672821Y-96631715D01*
X45672818Y-96631722D01*
X45614327Y-96811740D01*
X45614326Y-96811744D01*
X45594540Y-97000000D01*
X45614326Y-97188256D01*
X45614327Y-97188259D01*
X45672818Y-97368277D01*
X45672821Y-97368284D01*
X45732887Y-97472321D01*
X45749500Y-97534321D01*
X45749500Y-98137769D01*
X45729815Y-98204808D01*
X45713181Y-98225450D01*
X42039490Y-101899140D01*
X41978167Y-101932625D01*
X41908475Y-101927641D01*
X41866402Y-101896145D01*
X41863820Y-101898728D01*
X41857548Y-101892457D01*
X41857546Y-101892454D01*
X41857542Y-101892451D01*
X41742335Y-101806206D01*
X41742328Y-101806202D01*
X41607482Y-101755908D01*
X41607483Y-101755908D01*
X41547883Y-101749501D01*
X41547881Y-101749500D01*
X41547873Y-101749500D01*
X41547864Y-101749500D01*
X35452129Y-101749500D01*
X35452123Y-101749501D01*
X35392516Y-101755908D01*
X35257671Y-101806202D01*
X35257668Y-101806204D01*
X35198311Y-101850639D01*
X35132846Y-101875056D01*
X35064573Y-101860204D01*
X35015168Y-101810799D01*
X35000000Y-101751372D01*
X35000000Y-101498627D01*
X35019685Y-101431588D01*
X35072489Y-101385833D01*
X35141647Y-101375889D01*
X35198311Y-101399360D01*
X35257665Y-101443793D01*
X35257668Y-101443795D01*
X35257671Y-101443797D01*
X35392517Y-101494091D01*
X35392516Y-101494091D01*
X35399444Y-101494835D01*
X35452127Y-101500500D01*
X41547872Y-101500499D01*
X41607483Y-101494091D01*
X41742331Y-101443796D01*
X41857546Y-101357546D01*
X41943796Y-101242331D01*
X41994091Y-101107483D01*
X42000500Y-101047873D01*
X42000499Y-98952128D01*
X41994091Y-98892517D01*
X41993336Y-98890494D01*
X41943797Y-98757671D01*
X41943793Y-98757664D01*
X41857547Y-98642455D01*
X41857544Y-98642452D01*
X41742335Y-98556206D01*
X41742328Y-98556202D01*
X41607482Y-98505908D01*
X41607483Y-98505908D01*
X41547883Y-98499501D01*
X41547881Y-98499500D01*
X41547873Y-98499500D01*
X41547864Y-98499500D01*
X35452129Y-98499500D01*
X35452123Y-98499501D01*
X35392516Y-98505908D01*
X35257671Y-98556202D01*
X35257668Y-98556204D01*
X35198311Y-98600639D01*
X35132846Y-98625056D01*
X35064573Y-98610204D01*
X35015168Y-98560799D01*
X35000000Y-98501372D01*
X35000000Y-98248002D01*
X35019685Y-98180963D01*
X35072489Y-98135208D01*
X35141647Y-98125264D01*
X35198312Y-98148736D01*
X35257910Y-98193352D01*
X35257913Y-98193354D01*
X35392620Y-98243596D01*
X35392627Y-98243598D01*
X35452155Y-98249999D01*
X35452172Y-98250000D01*
X38250000Y-98250000D01*
X38750000Y-98250000D01*
X41547828Y-98250000D01*
X41547844Y-98249999D01*
X41607372Y-98243598D01*
X41607379Y-98243596D01*
X41742086Y-98193354D01*
X41742093Y-98193350D01*
X41857187Y-98107190D01*
X41857190Y-98107187D01*
X41943350Y-97992093D01*
X41943354Y-97992086D01*
X41993596Y-97857379D01*
X41993598Y-97857372D01*
X41999999Y-97797844D01*
X42000000Y-97797827D01*
X42000000Y-97000000D01*
X38750000Y-97000000D01*
X38750000Y-98250000D01*
X38250000Y-98250000D01*
X38250000Y-96500000D01*
X38750000Y-96500000D01*
X42000000Y-96500000D01*
X42000000Y-95702172D01*
X41999999Y-95702155D01*
X166000000Y-95702155D01*
X166000000Y-96500000D01*
X169250000Y-96500000D01*
X169750000Y-96500000D01*
X173000000Y-96500000D01*
X173000000Y-95702172D01*
X172999999Y-95702155D01*
X172993598Y-95642627D01*
X172993596Y-95642620D01*
X172943354Y-95507913D01*
X172943350Y-95507906D01*
X172857190Y-95392812D01*
X172857187Y-95392809D01*
X172742093Y-95306649D01*
X172742086Y-95306645D01*
X172607379Y-95256403D01*
X172607372Y-95256401D01*
X172547844Y-95250000D01*
X169750000Y-95250000D01*
X169750000Y-96500000D01*
X169250000Y-96500000D01*
X169250000Y-95250000D01*
X166452155Y-95250000D01*
X166392627Y-95256401D01*
X166392620Y-95256403D01*
X166257913Y-95306645D01*
X166257906Y-95306649D01*
X166142812Y-95392809D01*
X166142809Y-95392812D01*
X166056649Y-95507906D01*
X166056645Y-95507913D01*
X166006403Y-95642620D01*
X166006401Y-95642627D01*
X166000000Y-95702155D01*
X41999999Y-95702155D01*
X41993598Y-95642627D01*
X41993596Y-95642620D01*
X41943354Y-95507913D01*
X41943350Y-95507906D01*
X41857190Y-95392812D01*
X41857187Y-95392809D01*
X41742093Y-95306649D01*
X41742086Y-95306645D01*
X41607379Y-95256403D01*
X41607372Y-95256401D01*
X41547844Y-95250000D01*
X38750000Y-95250000D01*
X38750000Y-96500000D01*
X38250000Y-96500000D01*
X38250000Y-95250000D01*
X35452155Y-95250000D01*
X35392627Y-95256401D01*
X35392620Y-95256403D01*
X35257913Y-95306645D01*
X35257906Y-95306649D01*
X35198311Y-95351263D01*
X35132847Y-95375681D01*
X35064574Y-95360830D01*
X35015168Y-95311425D01*
X35000000Y-95251997D01*
X35000000Y-94124000D01*
X35019685Y-94056961D01*
X35072489Y-94011206D01*
X35124000Y-94000000D01*
X164000000Y-94000000D01*
X167621289Y-90378711D01*
X170649500Y-90378711D01*
X170649500Y-90621288D01*
X170678343Y-90840382D01*
X170681162Y-90861789D01*
X170696962Y-90920754D01*
X170743947Y-91096104D01*
X170781913Y-91187761D01*
X170836776Y-91320212D01*
X170958064Y-91530289D01*
X170958066Y-91530292D01*
X170958067Y-91530293D01*
X171105733Y-91722736D01*
X171105739Y-91722743D01*
X171277256Y-91894260D01*
X171277263Y-91894266D01*
X171390321Y-91981018D01*
X171469711Y-92041936D01*
X171679788Y-92163224D01*
X171903900Y-92256054D01*
X172138211Y-92318838D01*
X172301857Y-92340382D01*
X172378711Y-92350500D01*
X172378712Y-92350500D01*
X172621289Y-92350500D01*
X172698143Y-92340382D01*
X172861789Y-92318838D01*
X173096100Y-92256054D01*
X173320212Y-92163224D01*
X173530289Y-92041936D01*
X173584942Y-91999999D01*
X176484357Y-91999999D01*
X176484357Y-92000000D01*
X176504884Y-92221535D01*
X176504885Y-92221537D01*
X176565769Y-92435523D01*
X176565775Y-92435538D01*
X176664938Y-92634683D01*
X176664943Y-92634691D01*
X176799020Y-92812238D01*
X176963437Y-92962123D01*
X176963439Y-92962125D01*
X177152595Y-93079245D01*
X177152596Y-93079245D01*
X177152599Y-93079247D01*
X177360060Y-93159618D01*
X177578757Y-93200500D01*
X177578759Y-93200500D01*
X177801241Y-93200500D01*
X177801243Y-93200500D01*
X178019940Y-93159618D01*
X178227401Y-93079247D01*
X178416562Y-92962124D01*
X178580981Y-92812236D01*
X178715058Y-92634689D01*
X178814229Y-92435528D01*
X178875115Y-92221536D01*
X178895643Y-92000000D01*
X178895643Y-91999999D01*
X184104357Y-91999999D01*
X184104357Y-92000000D01*
X184124884Y-92221535D01*
X184124885Y-92221537D01*
X184185769Y-92435523D01*
X184185775Y-92435538D01*
X184284938Y-92634683D01*
X184284943Y-92634691D01*
X184419020Y-92812238D01*
X184583437Y-92962123D01*
X184583439Y-92962125D01*
X184772595Y-93079245D01*
X184772596Y-93079245D01*
X184772599Y-93079247D01*
X184980060Y-93159618D01*
X185198757Y-93200500D01*
X185198759Y-93200500D01*
X185421241Y-93200500D01*
X185421243Y-93200500D01*
X185639940Y-93159618D01*
X185847401Y-93079247D01*
X185975395Y-92999997D01*
X194195034Y-92999997D01*
X194195034Y-93000002D01*
X194214858Y-93226599D01*
X194214860Y-93226610D01*
X194273730Y-93446317D01*
X194273735Y-93446331D01*
X194369863Y-93652478D01*
X194420974Y-93725472D01*
X195100000Y-93046446D01*
X195100000Y-93052661D01*
X195127259Y-93154394D01*
X195179920Y-93245606D01*
X195254394Y-93320080D01*
X195345606Y-93372741D01*
X195447339Y-93400000D01*
X195453553Y-93400000D01*
X194774526Y-94079025D01*
X194847513Y-94130132D01*
X194847521Y-94130136D01*
X195053668Y-94226264D01*
X195053682Y-94226269D01*
X195273389Y-94285139D01*
X195273400Y-94285141D01*
X195499998Y-94304966D01*
X195500002Y-94304966D01*
X195726599Y-94285141D01*
X195726610Y-94285139D01*
X195946317Y-94226269D01*
X195946331Y-94226264D01*
X196152478Y-94130136D01*
X196225471Y-94079024D01*
X195546447Y-93400000D01*
X195552661Y-93400000D01*
X195654394Y-93372741D01*
X195745606Y-93320080D01*
X195820080Y-93245606D01*
X195872741Y-93154394D01*
X195900000Y-93052661D01*
X195900000Y-93046447D01*
X196579024Y-93725471D01*
X196630136Y-93652478D01*
X196726264Y-93446331D01*
X196726269Y-93446317D01*
X196785139Y-93226610D01*
X196785141Y-93226599D01*
X196804966Y-93000002D01*
X196804966Y-93000000D01*
X200594540Y-93000000D01*
X200614326Y-93188256D01*
X200614327Y-93188259D01*
X200672818Y-93368277D01*
X200672821Y-93368284D01*
X200717881Y-93446331D01*
X200732887Y-93472321D01*
X200749500Y-93534321D01*
X200749500Y-96465677D01*
X200732887Y-96527677D01*
X200672821Y-96631714D01*
X200614327Y-96811740D01*
X200614326Y-96811744D01*
X200594540Y-97000000D01*
X200614326Y-97188256D01*
X200614327Y-97188259D01*
X200672818Y-97368277D01*
X200672821Y-97368284D01*
X200767467Y-97532216D01*
X200894129Y-97672888D01*
X201047265Y-97784148D01*
X201047270Y-97784151D01*
X201220192Y-97861142D01*
X201220197Y-97861144D01*
X201405354Y-97900500D01*
X201405355Y-97900500D01*
X201594644Y-97900500D01*
X201594646Y-97900500D01*
X201779803Y-97861144D01*
X201952730Y-97784151D01*
X202105871Y-97672888D01*
X202232533Y-97532216D01*
X202327179Y-97368284D01*
X202385674Y-97188256D01*
X202405460Y-97000000D01*
X202385674Y-96811744D01*
X202327179Y-96631716D01*
X202267113Y-96527677D01*
X202250500Y-96465677D01*
X202250500Y-93619999D01*
X242794357Y-93619999D01*
X242794357Y-93620000D01*
X242814884Y-93841535D01*
X242814885Y-93841537D01*
X242875769Y-94055523D01*
X242875775Y-94055538D01*
X242974938Y-94254683D01*
X242974943Y-94254691D01*
X243109020Y-94432238D01*
X243273437Y-94582123D01*
X243273439Y-94582125D01*
X243462595Y-94699245D01*
X243462596Y-94699245D01*
X243462599Y-94699247D01*
X243670060Y-94779618D01*
X243888757Y-94820500D01*
X243888759Y-94820500D01*
X244111241Y-94820500D01*
X244111243Y-94820500D01*
X244329940Y-94779618D01*
X244537401Y-94699247D01*
X244726562Y-94582124D01*
X244890981Y-94432236D01*
X245025058Y-94254689D01*
X245124229Y-94055528D01*
X245185115Y-93841536D01*
X245205643Y-93620000D01*
X245194523Y-93499999D01*
X247294357Y-93499999D01*
X247294357Y-93500000D01*
X247314884Y-93721535D01*
X247314885Y-93721537D01*
X247375769Y-93935523D01*
X247375775Y-93935538D01*
X247474938Y-94134683D01*
X247474943Y-94134691D01*
X247609020Y-94312238D01*
X247773437Y-94462123D01*
X247773439Y-94462125D01*
X247962595Y-94579245D01*
X247962596Y-94579245D01*
X247962599Y-94579247D01*
X248170060Y-94659618D01*
X248388757Y-94700500D01*
X248388759Y-94700500D01*
X248611241Y-94700500D01*
X248611243Y-94700500D01*
X248829940Y-94659618D01*
X249037401Y-94579247D01*
X249226562Y-94462124D01*
X249390981Y-94312236D01*
X249525058Y-94134689D01*
X249624229Y-93935528D01*
X249685115Y-93721536D01*
X249705643Y-93500000D01*
X249696234Y-93398464D01*
X249685115Y-93278464D01*
X249685114Y-93278462D01*
X249670262Y-93226264D01*
X249624229Y-93064472D01*
X249592126Y-93000000D01*
X249525061Y-92865316D01*
X249525056Y-92865308D01*
X249390979Y-92687761D01*
X249226562Y-92537876D01*
X249226560Y-92537874D01*
X249037404Y-92420754D01*
X249037398Y-92420752D01*
X248829940Y-92340382D01*
X248611243Y-92299500D01*
X248388757Y-92299500D01*
X248170060Y-92340382D01*
X248086532Y-92372741D01*
X247962601Y-92420752D01*
X247962595Y-92420754D01*
X247773439Y-92537874D01*
X247773437Y-92537876D01*
X247609020Y-92687761D01*
X247474943Y-92865308D01*
X247474938Y-92865316D01*
X247375775Y-93064461D01*
X247375769Y-93064476D01*
X247314885Y-93278462D01*
X247314884Y-93278464D01*
X247294357Y-93499999D01*
X245194523Y-93499999D01*
X245185115Y-93398464D01*
X245124229Y-93184472D01*
X245124224Y-93184461D01*
X245025061Y-92985316D01*
X245025056Y-92985308D01*
X244890979Y-92807761D01*
X244726562Y-92657876D01*
X244726560Y-92657874D01*
X244537404Y-92540754D01*
X244537398Y-92540752D01*
X244329940Y-92460382D01*
X244111243Y-92419500D01*
X243888757Y-92419500D01*
X243670060Y-92460382D01*
X243538864Y-92511207D01*
X243462601Y-92540752D01*
X243462595Y-92540754D01*
X243273439Y-92657874D01*
X243273437Y-92657876D01*
X243109020Y-92807761D01*
X242974943Y-92985308D01*
X242974938Y-92985316D01*
X242875775Y-93184461D01*
X242875769Y-93184476D01*
X242814885Y-93398462D01*
X242814884Y-93398464D01*
X242794357Y-93619999D01*
X202250500Y-93619999D01*
X202250500Y-93534321D01*
X202267113Y-93472321D01*
X202327179Y-93368284D01*
X202385674Y-93188256D01*
X202405460Y-93000000D01*
X202385674Y-92811744D01*
X202327179Y-92631716D01*
X202232533Y-92467784D01*
X202105871Y-92327112D01*
X202105870Y-92327111D01*
X201952734Y-92215851D01*
X201952729Y-92215848D01*
X201779807Y-92138857D01*
X201779802Y-92138855D01*
X201634001Y-92107865D01*
X201594646Y-92099500D01*
X201405354Y-92099500D01*
X201372897Y-92106398D01*
X201220197Y-92138855D01*
X201220192Y-92138857D01*
X201047270Y-92215848D01*
X201047265Y-92215851D01*
X200894129Y-92327111D01*
X200767466Y-92467785D01*
X200672821Y-92631715D01*
X200672818Y-92631722D01*
X200615620Y-92807761D01*
X200614326Y-92811744D01*
X200594540Y-93000000D01*
X196804966Y-93000000D01*
X196804966Y-92999997D01*
X196785141Y-92773400D01*
X196785139Y-92773389D01*
X196726269Y-92553682D01*
X196726264Y-92553668D01*
X196630136Y-92347521D01*
X196630132Y-92347513D01*
X196579025Y-92274526D01*
X195900000Y-92953551D01*
X195900000Y-92947339D01*
X195872741Y-92845606D01*
X195820080Y-92754394D01*
X195745606Y-92679920D01*
X195654394Y-92627259D01*
X195552661Y-92600000D01*
X195546445Y-92600000D01*
X196146449Y-91999997D01*
X252195034Y-91999997D01*
X252195034Y-92000002D01*
X252214858Y-92226599D01*
X252214860Y-92226610D01*
X252273730Y-92446317D01*
X252273735Y-92446331D01*
X252369863Y-92652478D01*
X252420974Y-92725472D01*
X253100000Y-92046446D01*
X253100000Y-92052661D01*
X253127259Y-92154394D01*
X253179920Y-92245606D01*
X253254394Y-92320080D01*
X253345606Y-92372741D01*
X253447339Y-92400000D01*
X253453553Y-92400000D01*
X252774526Y-93079025D01*
X252847513Y-93130132D01*
X252847521Y-93130136D01*
X253053668Y-93226264D01*
X253053682Y-93226269D01*
X253273389Y-93285139D01*
X253273400Y-93285141D01*
X253499998Y-93304966D01*
X253500002Y-93304966D01*
X253726599Y-93285141D01*
X253726610Y-93285139D01*
X253946317Y-93226269D01*
X253946331Y-93226264D01*
X254152478Y-93130136D01*
X254225471Y-93079024D01*
X253546447Y-92400000D01*
X253552661Y-92400000D01*
X253654394Y-92372741D01*
X253745606Y-92320080D01*
X253820080Y-92245606D01*
X253872741Y-92154394D01*
X253900000Y-92052661D01*
X253900000Y-92046447D01*
X254579024Y-92725471D01*
X254630136Y-92652478D01*
X254726264Y-92446331D01*
X254726269Y-92446317D01*
X254785139Y-92226610D01*
X254785141Y-92226599D01*
X254804966Y-92000002D01*
X254804966Y-91999997D01*
X254785141Y-91773400D01*
X254785139Y-91773389D01*
X254726269Y-91553682D01*
X254726264Y-91553668D01*
X254630136Y-91347521D01*
X254630132Y-91347513D01*
X254579025Y-91274526D01*
X253900000Y-91953551D01*
X253900000Y-91947339D01*
X253872741Y-91845606D01*
X253820080Y-91754394D01*
X253745606Y-91679920D01*
X253654394Y-91627259D01*
X253552661Y-91600000D01*
X253546445Y-91600000D01*
X254225472Y-90920974D01*
X254152478Y-90869863D01*
X253946331Y-90773735D01*
X253946317Y-90773730D01*
X253726610Y-90714860D01*
X253726599Y-90714858D01*
X253500002Y-90695034D01*
X253499998Y-90695034D01*
X253273400Y-90714858D01*
X253273389Y-90714860D01*
X253053682Y-90773730D01*
X253053673Y-90773734D01*
X252847516Y-90869866D01*
X252847512Y-90869868D01*
X252774526Y-90920973D01*
X252774526Y-90920974D01*
X253453553Y-91600000D01*
X253447339Y-91600000D01*
X253345606Y-91627259D01*
X253254394Y-91679920D01*
X253179920Y-91754394D01*
X253127259Y-91845606D01*
X253100000Y-91947339D01*
X253100000Y-91953552D01*
X252420974Y-91274526D01*
X252420973Y-91274526D01*
X252369868Y-91347512D01*
X252369866Y-91347516D01*
X252273734Y-91553673D01*
X252273730Y-91553682D01*
X252214860Y-91773389D01*
X252214858Y-91773400D01*
X252195034Y-91999997D01*
X196146449Y-91999997D01*
X196225472Y-91920974D01*
X196152478Y-91869863D01*
X195946331Y-91773735D01*
X195946317Y-91773730D01*
X195726610Y-91714860D01*
X195726599Y-91714858D01*
X195500002Y-91695034D01*
X195499998Y-91695034D01*
X195273400Y-91714858D01*
X195273389Y-91714860D01*
X195053682Y-91773730D01*
X195053673Y-91773734D01*
X194847516Y-91869866D01*
X194847512Y-91869868D01*
X194774526Y-91920973D01*
X194774526Y-91920974D01*
X195453553Y-92600000D01*
X195447339Y-92600000D01*
X195345606Y-92627259D01*
X195254394Y-92679920D01*
X195179920Y-92754394D01*
X195127259Y-92845606D01*
X195100000Y-92947339D01*
X195100000Y-92953552D01*
X194420974Y-92274526D01*
X194420973Y-92274526D01*
X194369868Y-92347512D01*
X194369866Y-92347516D01*
X194273734Y-92553673D01*
X194273730Y-92553682D01*
X194214860Y-92773389D01*
X194214858Y-92773400D01*
X194195034Y-92999997D01*
X185975395Y-92999997D01*
X186036562Y-92962124D01*
X186200981Y-92812236D01*
X186335058Y-92634689D01*
X186434229Y-92435528D01*
X186495115Y-92221536D01*
X186515643Y-92000000D01*
X186505845Y-91894266D01*
X186495115Y-91778464D01*
X186495114Y-91778462D01*
X186479259Y-91722738D01*
X186434229Y-91564472D01*
X186434224Y-91564461D01*
X186335061Y-91365316D01*
X186335056Y-91365308D01*
X186200979Y-91187761D01*
X186036562Y-91037876D01*
X186036560Y-91037874D01*
X185847404Y-90920754D01*
X185847398Y-90920752D01*
X185639940Y-90840382D01*
X185421243Y-90799500D01*
X185198757Y-90799500D01*
X184980060Y-90840382D01*
X184848864Y-90891207D01*
X184772601Y-90920752D01*
X184772595Y-90920754D01*
X184583439Y-91037874D01*
X184583437Y-91037876D01*
X184419020Y-91187761D01*
X184284943Y-91365308D01*
X184284938Y-91365316D01*
X184185775Y-91564461D01*
X184185769Y-91564476D01*
X184124885Y-91778462D01*
X184124884Y-91778464D01*
X184104357Y-91999999D01*
X178895643Y-91999999D01*
X178885845Y-91894266D01*
X178875115Y-91778464D01*
X178875114Y-91778462D01*
X178859259Y-91722738D01*
X178814229Y-91564472D01*
X178814224Y-91564461D01*
X178715061Y-91365316D01*
X178715056Y-91365308D01*
X178580979Y-91187761D01*
X178416562Y-91037876D01*
X178416560Y-91037874D01*
X178227404Y-90920754D01*
X178227398Y-90920752D01*
X178019940Y-90840382D01*
X177801243Y-90799500D01*
X177578757Y-90799500D01*
X177360060Y-90840382D01*
X177228864Y-90891207D01*
X177152601Y-90920752D01*
X177152595Y-90920754D01*
X176963439Y-91037874D01*
X176963437Y-91037876D01*
X176799020Y-91187761D01*
X176664943Y-91365308D01*
X176664938Y-91365316D01*
X176565775Y-91564461D01*
X176565769Y-91564476D01*
X176504885Y-91778462D01*
X176504884Y-91778464D01*
X176484357Y-91999999D01*
X173584942Y-91999999D01*
X173722738Y-91894265D01*
X173894265Y-91722738D01*
X174041936Y-91530289D01*
X174163224Y-91320212D01*
X174256054Y-91096100D01*
X174318838Y-90861789D01*
X174350500Y-90621288D01*
X174350500Y-90378712D01*
X174318838Y-90138211D01*
X174256054Y-89903900D01*
X174163224Y-89679788D01*
X174117158Y-89599999D01*
X223904341Y-89599999D01*
X223904341Y-89600000D01*
X223924936Y-89835403D01*
X223924938Y-89835413D01*
X223986094Y-90063655D01*
X223986096Y-90063659D01*
X223986097Y-90063663D01*
X224065801Y-90234588D01*
X224085965Y-90277830D01*
X224085967Y-90277834D01*
X224156603Y-90378712D01*
X224221505Y-90471401D01*
X224388599Y-90638495D01*
X224469345Y-90695034D01*
X224582165Y-90774032D01*
X224582167Y-90774033D01*
X224582170Y-90774035D01*
X224796337Y-90873903D01*
X225024592Y-90935063D01*
X225201034Y-90950500D01*
X225259999Y-90955659D01*
X225260000Y-90955659D01*
X225260001Y-90955659D01*
X225318966Y-90950500D01*
X225495408Y-90935063D01*
X225723663Y-90873903D01*
X225937830Y-90774035D01*
X226131401Y-90638495D01*
X226298495Y-90471401D01*
X226428425Y-90285842D01*
X226483002Y-90242217D01*
X226552500Y-90235023D01*
X226614855Y-90266546D01*
X226631575Y-90285842D01*
X226761500Y-90471395D01*
X226761505Y-90471401D01*
X226928599Y-90638495D01*
X227009345Y-90695034D01*
X227122165Y-90774032D01*
X227122167Y-90774033D01*
X227122170Y-90774035D01*
X227336337Y-90873903D01*
X227564592Y-90935063D01*
X227741034Y-90950500D01*
X227799999Y-90955659D01*
X227800000Y-90955659D01*
X227800001Y-90955659D01*
X227858966Y-90950500D01*
X228035408Y-90935063D01*
X228263663Y-90873903D01*
X228477830Y-90774035D01*
X228671401Y-90638495D01*
X228838495Y-90471401D01*
X228968425Y-90285842D01*
X229023002Y-90242217D01*
X229092500Y-90235023D01*
X229154855Y-90266546D01*
X229171575Y-90285842D01*
X229301500Y-90471395D01*
X229301505Y-90471401D01*
X229468599Y-90638495D01*
X229549345Y-90695034D01*
X229662165Y-90774032D01*
X229662167Y-90774033D01*
X229662170Y-90774035D01*
X229876337Y-90873903D01*
X230104592Y-90935063D01*
X230281034Y-90950500D01*
X230339999Y-90955659D01*
X230340000Y-90955659D01*
X230340001Y-90955659D01*
X230398966Y-90950500D01*
X230575408Y-90935063D01*
X230803663Y-90873903D01*
X231017830Y-90774035D01*
X231211401Y-90638495D01*
X231378495Y-90471401D01*
X231508425Y-90285842D01*
X231563002Y-90242217D01*
X231632500Y-90235023D01*
X231694855Y-90266546D01*
X231711575Y-90285842D01*
X231841500Y-90471395D01*
X231841505Y-90471401D01*
X232008599Y-90638495D01*
X232089345Y-90695034D01*
X232202165Y-90774032D01*
X232202167Y-90774033D01*
X232202170Y-90774035D01*
X232416337Y-90873903D01*
X232644592Y-90935063D01*
X232821034Y-90950500D01*
X232879999Y-90955659D01*
X232880000Y-90955659D01*
X232880001Y-90955659D01*
X232938966Y-90950500D01*
X233115408Y-90935063D01*
X233343663Y-90873903D01*
X233557830Y-90774035D01*
X233751401Y-90638495D01*
X233918495Y-90471401D01*
X234048730Y-90285405D01*
X234103307Y-90241781D01*
X234172805Y-90234587D01*
X234235160Y-90266110D01*
X234251879Y-90285405D01*
X234381890Y-90471078D01*
X234548917Y-90638105D01*
X234742421Y-90773600D01*
X234956507Y-90873429D01*
X234956516Y-90873433D01*
X235170000Y-90930634D01*
X235170000Y-90033012D01*
X235227007Y-90065925D01*
X235354174Y-90100000D01*
X235485826Y-90100000D01*
X235612993Y-90065925D01*
X235670000Y-90033012D01*
X235670000Y-90930633D01*
X235883483Y-90873433D01*
X235883492Y-90873429D01*
X236097578Y-90773600D01*
X236291082Y-90638105D01*
X236458105Y-90471082D01*
X236588119Y-90285405D01*
X236642696Y-90241781D01*
X236712195Y-90234588D01*
X236774549Y-90266110D01*
X236791269Y-90285405D01*
X236921505Y-90471401D01*
X237088599Y-90638495D01*
X237169345Y-90695034D01*
X237282165Y-90774032D01*
X237282167Y-90774033D01*
X237282170Y-90774035D01*
X237496337Y-90873903D01*
X237724592Y-90935063D01*
X237901034Y-90950500D01*
X237959999Y-90955659D01*
X237960000Y-90955659D01*
X237960001Y-90955659D01*
X238018966Y-90950500D01*
X238195408Y-90935063D01*
X238423663Y-90873903D01*
X238637830Y-90774035D01*
X238831401Y-90638495D01*
X238953329Y-90516566D01*
X239014648Y-90483084D01*
X239084340Y-90488068D01*
X239140274Y-90529939D01*
X239157189Y-90560917D01*
X239206202Y-90692328D01*
X239206206Y-90692335D01*
X239292452Y-90807544D01*
X239292455Y-90807547D01*
X239407664Y-90893793D01*
X239407671Y-90893797D01*
X239542517Y-90944091D01*
X239542516Y-90944091D01*
X239549444Y-90944835D01*
X239602127Y-90950500D01*
X241397872Y-90950499D01*
X241457483Y-90944091D01*
X241592331Y-90893796D01*
X241707546Y-90807546D01*
X241793796Y-90692331D01*
X241844091Y-90557483D01*
X241850500Y-90497873D01*
X241850499Y-88702128D01*
X241844091Y-88642517D01*
X241842810Y-88639083D01*
X241793797Y-88507671D01*
X241793793Y-88507664D01*
X241707547Y-88392455D01*
X241707544Y-88392452D01*
X241592335Y-88306206D01*
X241592328Y-88306202D01*
X241457482Y-88255908D01*
X241457483Y-88255908D01*
X241397883Y-88249501D01*
X241397881Y-88249500D01*
X241397873Y-88249500D01*
X241397864Y-88249500D01*
X239602129Y-88249500D01*
X239602123Y-88249501D01*
X239542516Y-88255908D01*
X239407671Y-88306202D01*
X239407664Y-88306206D01*
X239292455Y-88392452D01*
X239292452Y-88392455D01*
X239206206Y-88507664D01*
X239206203Y-88507669D01*
X239157189Y-88639083D01*
X239115317Y-88695016D01*
X239049853Y-88719433D01*
X238981580Y-88704581D01*
X238953326Y-88683430D01*
X238831402Y-88561506D01*
X238831395Y-88561501D01*
X238637834Y-88425967D01*
X238637830Y-88425965D01*
X238637828Y-88425964D01*
X238423663Y-88326097D01*
X238423659Y-88326096D01*
X238423655Y-88326094D01*
X238195413Y-88264938D01*
X238195403Y-88264936D01*
X237960001Y-88244341D01*
X237959999Y-88244341D01*
X237724596Y-88264936D01*
X237724586Y-88264938D01*
X237496344Y-88326094D01*
X237496335Y-88326098D01*
X237282171Y-88425964D01*
X237282169Y-88425965D01*
X237088597Y-88561505D01*
X236921508Y-88728594D01*
X236791269Y-88914595D01*
X236736692Y-88958219D01*
X236667193Y-88965412D01*
X236604839Y-88933890D01*
X236588119Y-88914594D01*
X236458113Y-88728926D01*
X236458108Y-88728920D01*
X236291082Y-88561894D01*
X236097578Y-88426399D01*
X235883492Y-88326570D01*
X235883486Y-88326567D01*
X235670000Y-88269364D01*
X235670000Y-89166988D01*
X235612993Y-89134075D01*
X235485826Y-89100000D01*
X235354174Y-89100000D01*
X235227007Y-89134075D01*
X235170000Y-89166988D01*
X235170000Y-88269364D01*
X235169999Y-88269364D01*
X234956513Y-88326567D01*
X234956507Y-88326570D01*
X234742422Y-88426399D01*
X234742420Y-88426400D01*
X234548926Y-88561886D01*
X234548920Y-88561891D01*
X234381891Y-88728920D01*
X234381890Y-88728922D01*
X234251880Y-88914595D01*
X234197303Y-88958219D01*
X234127804Y-88965412D01*
X234065450Y-88933890D01*
X234048730Y-88914594D01*
X233918494Y-88728597D01*
X233751402Y-88561506D01*
X233751395Y-88561501D01*
X233557834Y-88425967D01*
X233557830Y-88425965D01*
X233557828Y-88425964D01*
X233343663Y-88326097D01*
X233343659Y-88326096D01*
X233343655Y-88326094D01*
X233115413Y-88264938D01*
X233115403Y-88264936D01*
X232880001Y-88244341D01*
X232879999Y-88244341D01*
X232644596Y-88264936D01*
X232644586Y-88264938D01*
X232416344Y-88326094D01*
X232416335Y-88326098D01*
X232202171Y-88425964D01*
X232202169Y-88425965D01*
X232008597Y-88561505D01*
X231841505Y-88728597D01*
X231711575Y-88914158D01*
X231656998Y-88957783D01*
X231587500Y-88964977D01*
X231525145Y-88933454D01*
X231508425Y-88914158D01*
X231378494Y-88728597D01*
X231211402Y-88561506D01*
X231211395Y-88561501D01*
X231017834Y-88425967D01*
X231017830Y-88425965D01*
X231017828Y-88425964D01*
X230803663Y-88326097D01*
X230803659Y-88326096D01*
X230803655Y-88326094D01*
X230575413Y-88264938D01*
X230575403Y-88264936D01*
X230340001Y-88244341D01*
X230339999Y-88244341D01*
X230104596Y-88264936D01*
X230104586Y-88264938D01*
X229876344Y-88326094D01*
X229876335Y-88326098D01*
X229662171Y-88425964D01*
X229662169Y-88425965D01*
X229468597Y-88561505D01*
X229301505Y-88728597D01*
X229171575Y-88914158D01*
X229116998Y-88957783D01*
X229047500Y-88964977D01*
X228985145Y-88933454D01*
X228968425Y-88914158D01*
X228838494Y-88728597D01*
X228671402Y-88561506D01*
X228671395Y-88561501D01*
X228477834Y-88425967D01*
X228477830Y-88425965D01*
X228477828Y-88425964D01*
X228263663Y-88326097D01*
X228263659Y-88326096D01*
X228263655Y-88326094D01*
X228035413Y-88264938D01*
X228035403Y-88264936D01*
X227800001Y-88244341D01*
X227799999Y-88244341D01*
X227564596Y-88264936D01*
X227564586Y-88264938D01*
X227336344Y-88326094D01*
X227336335Y-88326098D01*
X227122171Y-88425964D01*
X227122169Y-88425965D01*
X226928597Y-88561505D01*
X226761505Y-88728597D01*
X226631575Y-88914158D01*
X226576998Y-88957783D01*
X226507500Y-88964977D01*
X226445145Y-88933454D01*
X226428425Y-88914158D01*
X226298494Y-88728597D01*
X226131402Y-88561506D01*
X226131395Y-88561501D01*
X225937834Y-88425967D01*
X225937830Y-88425965D01*
X225937828Y-88425964D01*
X225723663Y-88326097D01*
X225723659Y-88326096D01*
X225723655Y-88326094D01*
X225495413Y-88264938D01*
X225495403Y-88264936D01*
X225260001Y-88244341D01*
X225259999Y-88244341D01*
X225024596Y-88264936D01*
X225024586Y-88264938D01*
X224796344Y-88326094D01*
X224796335Y-88326098D01*
X224582171Y-88425964D01*
X224582169Y-88425965D01*
X224388597Y-88561505D01*
X224221505Y-88728597D01*
X224085965Y-88922169D01*
X224085964Y-88922171D01*
X223986098Y-89136335D01*
X223986094Y-89136344D01*
X223924938Y-89364586D01*
X223924936Y-89364596D01*
X223904341Y-89599999D01*
X174117158Y-89599999D01*
X174041936Y-89469711D01*
X173894265Y-89277262D01*
X173894260Y-89277256D01*
X173722743Y-89105739D01*
X173722736Y-89105733D01*
X173530293Y-88958067D01*
X173530292Y-88958066D01*
X173530289Y-88958064D01*
X173358661Y-88858974D01*
X173320214Y-88836777D01*
X173320205Y-88836773D01*
X173096104Y-88743947D01*
X172861785Y-88681161D01*
X172621289Y-88649500D01*
X172621288Y-88649500D01*
X172378712Y-88649500D01*
X172378711Y-88649500D01*
X172138214Y-88681161D01*
X171903895Y-88743947D01*
X171679794Y-88836773D01*
X171679785Y-88836777D01*
X171469706Y-88958067D01*
X171277263Y-89105733D01*
X171277256Y-89105739D01*
X171105739Y-89277256D01*
X171105733Y-89277263D01*
X170958067Y-89469706D01*
X170836777Y-89679785D01*
X170836773Y-89679794D01*
X170743947Y-89903895D01*
X170681161Y-90138214D01*
X170649500Y-90378711D01*
X167621289Y-90378711D01*
X170000002Y-87999998D01*
X194194532Y-87999998D01*
X194194532Y-88000001D01*
X194214364Y-88226686D01*
X194214366Y-88226697D01*
X194273258Y-88446488D01*
X194273261Y-88446497D01*
X194369431Y-88652732D01*
X194369432Y-88652734D01*
X194499954Y-88839141D01*
X194660858Y-89000045D01*
X194660861Y-89000047D01*
X194847266Y-89130568D01*
X195053504Y-89226739D01*
X195273308Y-89285635D01*
X195435230Y-89299801D01*
X195499998Y-89305468D01*
X195500000Y-89305468D01*
X195500002Y-89305468D01*
X195556673Y-89300509D01*
X195726692Y-89285635D01*
X195946496Y-89226739D01*
X196152734Y-89130568D01*
X196339139Y-89000047D01*
X196500047Y-88839139D01*
X196630568Y-88652734D01*
X196726739Y-88446496D01*
X196785635Y-88226692D01*
X196805468Y-88000000D01*
X196785635Y-87773308D01*
X196726739Y-87553504D01*
X196630568Y-87347266D01*
X196500047Y-87160861D01*
X196500045Y-87160858D01*
X196339141Y-86999954D01*
X196152734Y-86869432D01*
X196152732Y-86869431D01*
X195946497Y-86773261D01*
X195946488Y-86773258D01*
X195726697Y-86714366D01*
X195726693Y-86714365D01*
X195726692Y-86714365D01*
X195726691Y-86714364D01*
X195726686Y-86714364D01*
X195500002Y-86694532D01*
X195499998Y-86694532D01*
X195273313Y-86714364D01*
X195273302Y-86714366D01*
X195053511Y-86773258D01*
X195053502Y-86773261D01*
X194847267Y-86869431D01*
X194847265Y-86869432D01*
X194660858Y-86999954D01*
X194499954Y-87160858D01*
X194369432Y-87347265D01*
X194369431Y-87347267D01*
X194273261Y-87553502D01*
X194273258Y-87553511D01*
X194214366Y-87773302D01*
X194214364Y-87773313D01*
X194194532Y-87999998D01*
X170000002Y-87999998D01*
X172000001Y-85999999D01*
X242794357Y-85999999D01*
X242794357Y-86000000D01*
X242814884Y-86221535D01*
X242814885Y-86221537D01*
X242875769Y-86435523D01*
X242875775Y-86435538D01*
X242974938Y-86634683D01*
X242974943Y-86634691D01*
X243109020Y-86812238D01*
X243273437Y-86962123D01*
X243273439Y-86962125D01*
X243462595Y-87079245D01*
X243462596Y-87079245D01*
X243462599Y-87079247D01*
X243670060Y-87159618D01*
X243888757Y-87200500D01*
X243888759Y-87200500D01*
X244111241Y-87200500D01*
X244111243Y-87200500D01*
X244329940Y-87159618D01*
X244537401Y-87079247D01*
X244726562Y-86962124D01*
X244890981Y-86812236D01*
X245025058Y-86634689D01*
X245124229Y-86435528D01*
X245185115Y-86221536D01*
X245205643Y-86000000D01*
X245194523Y-85879999D01*
X247294357Y-85879999D01*
X247294357Y-85880000D01*
X247314884Y-86101535D01*
X247314885Y-86101537D01*
X247375769Y-86315523D01*
X247375775Y-86315538D01*
X247474938Y-86514683D01*
X247474943Y-86514691D01*
X247609020Y-86692238D01*
X247773437Y-86842123D01*
X247773439Y-86842125D01*
X247962595Y-86959245D01*
X247962596Y-86959245D01*
X247962599Y-86959247D01*
X248170060Y-87039618D01*
X248388757Y-87080500D01*
X248388759Y-87080500D01*
X248611241Y-87080500D01*
X248611243Y-87080500D01*
X248829940Y-87039618D01*
X248932211Y-86999998D01*
X252194532Y-86999998D01*
X252194532Y-87000001D01*
X252214364Y-87226686D01*
X252214366Y-87226697D01*
X252273258Y-87446488D01*
X252273261Y-87446497D01*
X252369431Y-87652732D01*
X252369432Y-87652734D01*
X252499954Y-87839141D01*
X252660858Y-88000045D01*
X252660861Y-88000047D01*
X252847266Y-88130568D01*
X253053504Y-88226739D01*
X253273308Y-88285635D01*
X253435230Y-88299801D01*
X253499998Y-88305468D01*
X253500000Y-88305468D01*
X253500002Y-88305468D01*
X253556673Y-88300509D01*
X253726692Y-88285635D01*
X253946496Y-88226739D01*
X254152734Y-88130568D01*
X254339139Y-88000047D01*
X254500047Y-87839139D01*
X254630568Y-87652734D01*
X254726739Y-87446496D01*
X254785635Y-87226692D01*
X254805468Y-87000000D01*
X254785635Y-86773308D01*
X254726739Y-86553504D01*
X254630568Y-86347266D01*
X254500047Y-86160861D01*
X254500045Y-86160858D01*
X254339141Y-85999954D01*
X254152734Y-85869432D01*
X254152732Y-85869431D01*
X253946497Y-85773261D01*
X253946488Y-85773258D01*
X253726697Y-85714366D01*
X253726693Y-85714365D01*
X253726692Y-85714365D01*
X253726691Y-85714364D01*
X253726686Y-85714364D01*
X253500002Y-85694532D01*
X253499998Y-85694532D01*
X253273313Y-85714364D01*
X253273302Y-85714366D01*
X253053511Y-85773258D01*
X253053502Y-85773261D01*
X252847267Y-85869431D01*
X252847265Y-85869432D01*
X252660858Y-85999954D01*
X252499954Y-86160858D01*
X252369432Y-86347265D01*
X252369431Y-86347267D01*
X252273261Y-86553502D01*
X252273258Y-86553511D01*
X252214366Y-86773302D01*
X252214364Y-86773313D01*
X252194532Y-86999998D01*
X248932211Y-86999998D01*
X249037401Y-86959247D01*
X249226562Y-86842124D01*
X249366708Y-86714364D01*
X249390979Y-86692238D01*
X249434437Y-86634691D01*
X249525058Y-86514689D01*
X249624229Y-86315528D01*
X249685115Y-86101536D01*
X249705643Y-85880000D01*
X249696234Y-85778464D01*
X249685115Y-85658464D01*
X249685114Y-85658462D01*
X249624230Y-85444476D01*
X249624229Y-85444472D01*
X249584814Y-85365316D01*
X249525061Y-85245316D01*
X249525056Y-85245308D01*
X249390979Y-85067761D01*
X249226562Y-84917876D01*
X249226560Y-84917874D01*
X249037404Y-84800754D01*
X249037398Y-84800752D01*
X248829940Y-84720382D01*
X248611243Y-84679500D01*
X248388757Y-84679500D01*
X248170060Y-84720382D01*
X248038864Y-84771207D01*
X247962601Y-84800752D01*
X247962595Y-84800754D01*
X247773439Y-84917874D01*
X247773437Y-84917876D01*
X247609020Y-85067761D01*
X247474943Y-85245308D01*
X247474938Y-85245316D01*
X247375775Y-85444461D01*
X247375769Y-85444476D01*
X247314885Y-85658462D01*
X247314884Y-85658464D01*
X247294357Y-85879999D01*
X245194523Y-85879999D01*
X245185115Y-85778464D01*
X245124229Y-85564472D01*
X245064476Y-85444472D01*
X245025061Y-85365316D01*
X245025056Y-85365308D01*
X244890979Y-85187761D01*
X244726562Y-85037876D01*
X244726560Y-85037874D01*
X244537404Y-84920754D01*
X244537398Y-84920752D01*
X244329940Y-84840382D01*
X244111243Y-84799500D01*
X243888757Y-84799500D01*
X243670060Y-84840382D01*
X243538864Y-84891207D01*
X243462601Y-84920752D01*
X243462595Y-84920754D01*
X243273439Y-85037874D01*
X243273437Y-85037876D01*
X243109020Y-85187761D01*
X242974943Y-85365308D01*
X242974938Y-85365316D01*
X242875775Y-85564461D01*
X242875769Y-85564476D01*
X242814885Y-85778462D01*
X242814884Y-85778464D01*
X242794357Y-85999999D01*
X172000001Y-85999999D01*
X173963681Y-84036319D01*
X174025004Y-84002834D01*
X174051362Y-84000000D01*
X255081930Y-84000000D01*
X255148969Y-84019685D01*
G37*
G04 #@! TD.AperFunction*
M02*
