G04 #@! TF.GenerationSoftware,KiCad,Pcbnew,8.0.7*
G04 #@! TF.CreationDate,2025-07-02T14:54:47-04:00*
G04 #@! TF.ProjectId,Sum25_Wand_v2,53756d32-355f-4576-916e-645f76322e6b,rev?*
G04 #@! TF.SameCoordinates,Original*
G04 #@! TF.FileFunction,Legend,Top*
G04 #@! TF.FilePolarity,Positive*
%FSLAX46Y46*%
G04 Gerber Fmt 4.6, Leading zero omitted, Abs format (unit mm)*
G04 Created by KiCad (PCBNEW 8.0.7) date 2025-07-02 14:54:47*
%MOMM*%
%LPD*%
G01*
G04 APERTURE LIST*
G04 Aperture macros list*
%AMRoundRect*
0 Rectangle with rounded corners*
0 $1 Rounding radius*
0 $2 $3 $4 $5 $6 $7 $8 $9 X,Y pos of 4 corners*
0 Add a 4 corners polygon primitive as box body*
4,1,4,$2,$3,$4,$5,$6,$7,$8,$9,$2,$3,0*
0 Add four circle primitives for the rounded corners*
1,1,$1+$1,$2,$3*
1,1,$1+$1,$4,$5*
1,1,$1+$1,$6,$7*
1,1,$1+$1,$8,$9*
0 Add four rect primitives between the rounded corners*
20,1,$1+$1,$2,$3,$4,$5,0*
20,1,$1+$1,$4,$5,$6,$7,0*
20,1,$1+$1,$6,$7,$8,$9,0*
20,1,$1+$1,$8,$9,$2,$3,0*%
%AMFreePoly0*
4,1,11,0.600000,-3.000000,0.580902,-3.058779,0.530902,-3.095106,0.500000,-3.100000,-0.500000,-3.100000,-0.558779,-3.080902,-0.595106,-3.030902,-0.600000,-3.000000,-0.600000,1.000000,0.600000,1.000000,0.600000,-3.000000,0.600000,-3.000000,$1*%
G04 Aperture macros list end*
%ADD10C,0.150000*%
%ADD11C,0.200000*%
%ADD12C,0.120000*%
%ADD13C,1.400000*%
%ADD14O,1.400000X1.400000*%
%ADD15C,1.800000*%
%ADD16C,2.600000*%
%ADD17RoundRect,0.162500X0.837500X0.162500X-0.837500X0.162500X-0.837500X-0.162500X0.837500X-0.162500X0*%
%ADD18R,6.000000X2.000000*%
%ADD19C,3.200000*%
%ADD20R,1.700000X1.700000*%
%ADD21O,1.700000X1.700000*%
%ADD22FreePoly0,180.000000*%
%ADD23FreePoly0,0.000000*%
%ADD24C,1.600000*%
%ADD25R,1.600000X1.600000*%
%ADD26C,4.000000*%
%ADD27C,2.200000*%
G04 APERTURE END LIST*
D10*
X229977800Y-84789160D02*
X229930180Y-84932017D01*
X229930180Y-84932017D02*
X229930180Y-85170112D01*
X229930180Y-85170112D02*
X229977800Y-85265350D01*
X229977800Y-85265350D02*
X230025419Y-85312969D01*
X230025419Y-85312969D02*
X230120657Y-85360588D01*
X230120657Y-85360588D02*
X230215895Y-85360588D01*
X230215895Y-85360588D02*
X230311133Y-85312969D01*
X230311133Y-85312969D02*
X230358752Y-85265350D01*
X230358752Y-85265350D02*
X230406371Y-85170112D01*
X230406371Y-85170112D02*
X230453990Y-84979636D01*
X230453990Y-84979636D02*
X230501609Y-84884398D01*
X230501609Y-84884398D02*
X230549228Y-84836779D01*
X230549228Y-84836779D02*
X230644466Y-84789160D01*
X230644466Y-84789160D02*
X230739704Y-84789160D01*
X230739704Y-84789160D02*
X230834942Y-84836779D01*
X230834942Y-84836779D02*
X230882561Y-84884398D01*
X230882561Y-84884398D02*
X230930180Y-84979636D01*
X230930180Y-84979636D02*
X230930180Y-85217731D01*
X230930180Y-85217731D02*
X230882561Y-85360588D01*
X229930180Y-85789160D02*
X230930180Y-85789160D01*
X230930180Y-85789160D02*
X230930180Y-86027255D01*
X230930180Y-86027255D02*
X230882561Y-86170112D01*
X230882561Y-86170112D02*
X230787323Y-86265350D01*
X230787323Y-86265350D02*
X230692085Y-86312969D01*
X230692085Y-86312969D02*
X230501609Y-86360588D01*
X230501609Y-86360588D02*
X230358752Y-86360588D01*
X230358752Y-86360588D02*
X230168276Y-86312969D01*
X230168276Y-86312969D02*
X230073038Y-86265350D01*
X230073038Y-86265350D02*
X229977800Y-86170112D01*
X229977800Y-86170112D02*
X229930180Y-86027255D01*
X229930180Y-86027255D02*
X229930180Y-85789160D01*
X230215895Y-86741541D02*
X230215895Y-87217731D01*
X229930180Y-86646303D02*
X230930180Y-86979636D01*
X230930180Y-86979636D02*
X229930180Y-87312969D01*
X232377800Y-84789160D02*
X232330180Y-84932017D01*
X232330180Y-84932017D02*
X232330180Y-85170112D01*
X232330180Y-85170112D02*
X232377800Y-85265350D01*
X232377800Y-85265350D02*
X232425419Y-85312969D01*
X232425419Y-85312969D02*
X232520657Y-85360588D01*
X232520657Y-85360588D02*
X232615895Y-85360588D01*
X232615895Y-85360588D02*
X232711133Y-85312969D01*
X232711133Y-85312969D02*
X232758752Y-85265350D01*
X232758752Y-85265350D02*
X232806371Y-85170112D01*
X232806371Y-85170112D02*
X232853990Y-84979636D01*
X232853990Y-84979636D02*
X232901609Y-84884398D01*
X232901609Y-84884398D02*
X232949228Y-84836779D01*
X232949228Y-84836779D02*
X233044466Y-84789160D01*
X233044466Y-84789160D02*
X233139704Y-84789160D01*
X233139704Y-84789160D02*
X233234942Y-84836779D01*
X233234942Y-84836779D02*
X233282561Y-84884398D01*
X233282561Y-84884398D02*
X233330180Y-84979636D01*
X233330180Y-84979636D02*
X233330180Y-85217731D01*
X233330180Y-85217731D02*
X233282561Y-85360588D01*
X232425419Y-86360588D02*
X232377800Y-86312969D01*
X232377800Y-86312969D02*
X232330180Y-86170112D01*
X232330180Y-86170112D02*
X232330180Y-86074874D01*
X232330180Y-86074874D02*
X232377800Y-85932017D01*
X232377800Y-85932017D02*
X232473038Y-85836779D01*
X232473038Y-85836779D02*
X232568276Y-85789160D01*
X232568276Y-85789160D02*
X232758752Y-85741541D01*
X232758752Y-85741541D02*
X232901609Y-85741541D01*
X232901609Y-85741541D02*
X233092085Y-85789160D01*
X233092085Y-85789160D02*
X233187323Y-85836779D01*
X233187323Y-85836779D02*
X233282561Y-85932017D01*
X233282561Y-85932017D02*
X233330180Y-86074874D01*
X233330180Y-86074874D02*
X233330180Y-86170112D01*
X233330180Y-86170112D02*
X233282561Y-86312969D01*
X233282561Y-86312969D02*
X233234942Y-86360588D01*
X232330180Y-87265350D02*
X232330180Y-86789160D01*
X232330180Y-86789160D02*
X233330180Y-86789160D01*
X241130180Y-84741541D02*
X241130180Y-85360588D01*
X241130180Y-85360588D02*
X240749228Y-85027255D01*
X240749228Y-85027255D02*
X240749228Y-85170112D01*
X240749228Y-85170112D02*
X240701609Y-85265350D01*
X240701609Y-85265350D02*
X240653990Y-85312969D01*
X240653990Y-85312969D02*
X240558752Y-85360588D01*
X240558752Y-85360588D02*
X240320657Y-85360588D01*
X240320657Y-85360588D02*
X240225419Y-85312969D01*
X240225419Y-85312969D02*
X240177800Y-85265350D01*
X240177800Y-85265350D02*
X240130180Y-85170112D01*
X240130180Y-85170112D02*
X240130180Y-84884398D01*
X240130180Y-84884398D02*
X240177800Y-84789160D01*
X240177800Y-84789160D02*
X240225419Y-84741541D01*
X240225419Y-85789160D02*
X240177800Y-85836779D01*
X240177800Y-85836779D02*
X240130180Y-85789160D01*
X240130180Y-85789160D02*
X240177800Y-85741541D01*
X240177800Y-85741541D02*
X240225419Y-85789160D01*
X240225419Y-85789160D02*
X240130180Y-85789160D01*
X241130180Y-86170112D02*
X241130180Y-86789159D01*
X241130180Y-86789159D02*
X240749228Y-86455826D01*
X240749228Y-86455826D02*
X240749228Y-86598683D01*
X240749228Y-86598683D02*
X240701609Y-86693921D01*
X240701609Y-86693921D02*
X240653990Y-86741540D01*
X240653990Y-86741540D02*
X240558752Y-86789159D01*
X240558752Y-86789159D02*
X240320657Y-86789159D01*
X240320657Y-86789159D02*
X240225419Y-86741540D01*
X240225419Y-86741540D02*
X240177800Y-86693921D01*
X240177800Y-86693921D02*
X240130180Y-86598683D01*
X240130180Y-86598683D02*
X240130180Y-86312969D01*
X240130180Y-86312969D02*
X240177800Y-86217731D01*
X240177800Y-86217731D02*
X240225419Y-86170112D01*
X240796847Y-87122493D02*
X240130180Y-87360588D01*
X240130180Y-87360588D02*
X240796847Y-87598683D01*
X235882561Y-85360588D02*
X235930180Y-85265350D01*
X235930180Y-85265350D02*
X235930180Y-85122493D01*
X235930180Y-85122493D02*
X235882561Y-84979636D01*
X235882561Y-84979636D02*
X235787323Y-84884398D01*
X235787323Y-84884398D02*
X235692085Y-84836779D01*
X235692085Y-84836779D02*
X235501609Y-84789160D01*
X235501609Y-84789160D02*
X235358752Y-84789160D01*
X235358752Y-84789160D02*
X235168276Y-84836779D01*
X235168276Y-84836779D02*
X235073038Y-84884398D01*
X235073038Y-84884398D02*
X234977800Y-84979636D01*
X234977800Y-84979636D02*
X234930180Y-85122493D01*
X234930180Y-85122493D02*
X234930180Y-85217731D01*
X234930180Y-85217731D02*
X234977800Y-85360588D01*
X234977800Y-85360588D02*
X235025419Y-85408207D01*
X235025419Y-85408207D02*
X235358752Y-85408207D01*
X235358752Y-85408207D02*
X235358752Y-85217731D01*
X234930180Y-85836779D02*
X235930180Y-85836779D01*
X235930180Y-85836779D02*
X234930180Y-86408207D01*
X234930180Y-86408207D02*
X235930180Y-86408207D01*
X234930180Y-86884398D02*
X235930180Y-86884398D01*
X235930180Y-86884398D02*
X235930180Y-87122493D01*
X235930180Y-87122493D02*
X235882561Y-87265350D01*
X235882561Y-87265350D02*
X235787323Y-87360588D01*
X235787323Y-87360588D02*
X235692085Y-87408207D01*
X235692085Y-87408207D02*
X235501609Y-87455826D01*
X235501609Y-87455826D02*
X235358752Y-87455826D01*
X235358752Y-87455826D02*
X235168276Y-87408207D01*
X235168276Y-87408207D02*
X235073038Y-87360588D01*
X235073038Y-87360588D02*
X234977800Y-87265350D01*
X234977800Y-87265350D02*
X234930180Y-87122493D01*
X234930180Y-87122493D02*
X234930180Y-86884398D01*
D11*
X187706000Y-78270000D02*
X189000000Y-78270000D01*
X189000000Y-80810000D01*
X187706000Y-80810000D01*
X187706000Y-78270000D01*
G36*
X187706000Y-78270000D02*
G01*
X189000000Y-78270000D01*
X189000000Y-80810000D01*
X187706000Y-80810000D01*
X187706000Y-78270000D01*
G37*
X206559000Y-76770000D02*
X207853000Y-76770000D01*
X207853000Y-79310000D01*
X206559000Y-79310000D01*
X206559000Y-76770000D01*
G36*
X206559000Y-76770000D02*
G01*
X207853000Y-76770000D01*
X207853000Y-79310000D01*
X206559000Y-79310000D01*
X206559000Y-76770000D01*
G37*
X223000000Y-88000000D02*
X241400000Y-88000000D01*
X241400000Y-101200000D01*
X223000000Y-101200000D01*
X223000000Y-88000000D01*
X211706000Y-108000000D02*
X214500000Y-108000000D01*
X214500000Y-110540000D01*
X211706000Y-110540000D01*
X211706000Y-108000000D01*
G36*
X211706000Y-108000000D02*
G01*
X214500000Y-108000000D01*
X214500000Y-110540000D01*
X211706000Y-110540000D01*
X211706000Y-108000000D01*
G37*
X193853000Y-78000000D02*
X195147000Y-78000000D01*
X195147000Y-80540000D01*
X193853000Y-80540000D01*
X193853000Y-78000000D01*
G36*
X193853000Y-78000000D02*
G01*
X195147000Y-78000000D01*
X195147000Y-80540000D01*
X193853000Y-80540000D01*
X193853000Y-78000000D01*
G37*
X229706000Y-107730000D02*
X232500000Y-107730000D01*
X232500000Y-110270000D01*
X229706000Y-110270000D01*
X229706000Y-107730000D01*
G36*
X229706000Y-107730000D02*
G01*
X232500000Y-107730000D01*
X232500000Y-110270000D01*
X229706000Y-110270000D01*
X229706000Y-107730000D01*
G37*
X212706000Y-76500000D02*
X214000000Y-76500000D01*
X214000000Y-79040000D01*
X212706000Y-79040000D01*
X212706000Y-76500000D01*
G36*
X212706000Y-76500000D02*
G01*
X214000000Y-76500000D01*
X214000000Y-79040000D01*
X212706000Y-79040000D01*
X212706000Y-76500000D01*
G37*
X250000000Y-108230000D02*
X252794000Y-108230000D01*
X252794000Y-110770000D01*
X250000000Y-110770000D01*
X250000000Y-108230000D01*
G36*
X250000000Y-108230000D02*
G01*
X252794000Y-108230000D01*
X252794000Y-110770000D01*
X250000000Y-110770000D01*
X250000000Y-108230000D01*
G37*
X193000000Y-108230000D02*
X195794000Y-108230000D01*
X195794000Y-110770000D01*
X193000000Y-110770000D01*
X193000000Y-108230000D01*
G36*
X193000000Y-108230000D02*
G01*
X195794000Y-108230000D01*
X195794000Y-110770000D01*
X193000000Y-110770000D01*
X193000000Y-108230000D01*
G37*
D10*
X269422942Y-87321160D02*
X269470561Y-87368779D01*
X269470561Y-87368779D02*
X269518180Y-87464017D01*
X269518180Y-87464017D02*
X269518180Y-87702112D01*
X269518180Y-87702112D02*
X269470561Y-87797350D01*
X269470561Y-87797350D02*
X269422942Y-87844969D01*
X269422942Y-87844969D02*
X269327704Y-87892588D01*
X269327704Y-87892588D02*
X269232466Y-87892588D01*
X269232466Y-87892588D02*
X269089609Y-87844969D01*
X269089609Y-87844969D02*
X268518180Y-87273541D01*
X268518180Y-87273541D02*
X268518180Y-87892588D01*
X264104847Y-87797350D02*
X263438180Y-87797350D01*
X264485800Y-87559255D02*
X263771514Y-87321160D01*
X263771514Y-87321160D02*
X263771514Y-87940207D01*
X266978180Y-87273541D02*
X266978180Y-87892588D01*
X266978180Y-87892588D02*
X266597228Y-87559255D01*
X266597228Y-87559255D02*
X266597228Y-87702112D01*
X266597228Y-87702112D02*
X266549609Y-87797350D01*
X266549609Y-87797350D02*
X266501990Y-87844969D01*
X266501990Y-87844969D02*
X266406752Y-87892588D01*
X266406752Y-87892588D02*
X266168657Y-87892588D01*
X266168657Y-87892588D02*
X266073419Y-87844969D01*
X266073419Y-87844969D02*
X266025800Y-87797350D01*
X266025800Y-87797350D02*
X265978180Y-87702112D01*
X265978180Y-87702112D02*
X265978180Y-87416398D01*
X265978180Y-87416398D02*
X266025800Y-87321160D01*
X266025800Y-87321160D02*
X266073419Y-87273541D01*
X279170180Y-86812969D02*
X279170180Y-86336779D01*
X279170180Y-86336779D02*
X278693990Y-86289160D01*
X278693990Y-86289160D02*
X278741609Y-86336779D01*
X278741609Y-86336779D02*
X278789228Y-86432017D01*
X278789228Y-86432017D02*
X278789228Y-86670112D01*
X278789228Y-86670112D02*
X278741609Y-86765350D01*
X278741609Y-86765350D02*
X278693990Y-86812969D01*
X278693990Y-86812969D02*
X278598752Y-86860588D01*
X278598752Y-86860588D02*
X278360657Y-86860588D01*
X278360657Y-86860588D02*
X278265419Y-86812969D01*
X278265419Y-86812969D02*
X278217800Y-86765350D01*
X278217800Y-86765350D02*
X278170180Y-86670112D01*
X278170180Y-86670112D02*
X278170180Y-86432017D01*
X278170180Y-86432017D02*
X278217800Y-86336779D01*
X278217800Y-86336779D02*
X278265419Y-86289160D01*
X279170180Y-87146303D02*
X278170180Y-87479636D01*
X278170180Y-87479636D02*
X279170180Y-87812969D01*
X270510180Y-111360588D02*
X270510180Y-110789160D01*
X270510180Y-111074874D02*
X271510180Y-111074874D01*
X271510180Y-111074874D02*
X271367323Y-110979636D01*
X271367323Y-110979636D02*
X271272085Y-110884398D01*
X271272085Y-110884398D02*
X271224466Y-110789160D01*
X271414942Y-111741541D02*
X271462561Y-111789160D01*
X271462561Y-111789160D02*
X271510180Y-111884398D01*
X271510180Y-111884398D02*
X271510180Y-112122493D01*
X271510180Y-112122493D02*
X271462561Y-112217731D01*
X271462561Y-112217731D02*
X271414942Y-112265350D01*
X271414942Y-112265350D02*
X271319704Y-112312969D01*
X271319704Y-112312969D02*
X271224466Y-112312969D01*
X271224466Y-112312969D02*
X271081609Y-112265350D01*
X271081609Y-112265350D02*
X270510180Y-111693922D01*
X270510180Y-111693922D02*
X270510180Y-112312969D01*
X267970180Y-110852588D02*
X267970180Y-110281160D01*
X267970180Y-110566874D02*
X268970180Y-110566874D01*
X268970180Y-110566874D02*
X268827323Y-110471636D01*
X268827323Y-110471636D02*
X268732085Y-110376398D01*
X268732085Y-110376398D02*
X268684466Y-110281160D01*
X267970180Y-111804969D02*
X267970180Y-111233541D01*
X267970180Y-111519255D02*
X268970180Y-111519255D01*
X268970180Y-111519255D02*
X268827323Y-111424017D01*
X268827323Y-111424017D02*
X268732085Y-111328779D01*
X268732085Y-111328779D02*
X268684466Y-111233541D01*
X276582561Y-85860588D02*
X276630180Y-85765350D01*
X276630180Y-85765350D02*
X276630180Y-85622493D01*
X276630180Y-85622493D02*
X276582561Y-85479636D01*
X276582561Y-85479636D02*
X276487323Y-85384398D01*
X276487323Y-85384398D02*
X276392085Y-85336779D01*
X276392085Y-85336779D02*
X276201609Y-85289160D01*
X276201609Y-85289160D02*
X276058752Y-85289160D01*
X276058752Y-85289160D02*
X275868276Y-85336779D01*
X275868276Y-85336779D02*
X275773038Y-85384398D01*
X275773038Y-85384398D02*
X275677800Y-85479636D01*
X275677800Y-85479636D02*
X275630180Y-85622493D01*
X275630180Y-85622493D02*
X275630180Y-85717731D01*
X275630180Y-85717731D02*
X275677800Y-85860588D01*
X275677800Y-85860588D02*
X275725419Y-85908207D01*
X275725419Y-85908207D02*
X276058752Y-85908207D01*
X276058752Y-85908207D02*
X276058752Y-85717731D01*
X275630180Y-86336779D02*
X276630180Y-86336779D01*
X276630180Y-86336779D02*
X275630180Y-86908207D01*
X275630180Y-86908207D02*
X276630180Y-86908207D01*
X275630180Y-87384398D02*
X276630180Y-87384398D01*
X276630180Y-87384398D02*
X276630180Y-87622493D01*
X276630180Y-87622493D02*
X276582561Y-87765350D01*
X276582561Y-87765350D02*
X276487323Y-87860588D01*
X276487323Y-87860588D02*
X276392085Y-87908207D01*
X276392085Y-87908207D02*
X276201609Y-87955826D01*
X276201609Y-87955826D02*
X276058752Y-87955826D01*
X276058752Y-87955826D02*
X275868276Y-87908207D01*
X275868276Y-87908207D02*
X275773038Y-87860588D01*
X275773038Y-87860588D02*
X275677800Y-87765350D01*
X275677800Y-87765350D02*
X275630180Y-87622493D01*
X275630180Y-87622493D02*
X275630180Y-87384398D01*
X273050180Y-111360588D02*
X273050180Y-110789160D01*
X273050180Y-111074874D02*
X274050180Y-111074874D01*
X274050180Y-111074874D02*
X273907323Y-110979636D01*
X273907323Y-110979636D02*
X273812085Y-110884398D01*
X273812085Y-110884398D02*
X273764466Y-110789160D01*
X274050180Y-111693922D02*
X274050180Y-112312969D01*
X274050180Y-112312969D02*
X273669228Y-111979636D01*
X273669228Y-111979636D02*
X273669228Y-112122493D01*
X273669228Y-112122493D02*
X273621609Y-112217731D01*
X273621609Y-112217731D02*
X273573990Y-112265350D01*
X273573990Y-112265350D02*
X273478752Y-112312969D01*
X273478752Y-112312969D02*
X273240657Y-112312969D01*
X273240657Y-112312969D02*
X273145419Y-112265350D01*
X273145419Y-112265350D02*
X273097800Y-112217731D01*
X273097800Y-112217731D02*
X273050180Y-112122493D01*
X273050180Y-112122493D02*
X273050180Y-111836779D01*
X273050180Y-111836779D02*
X273097800Y-111741541D01*
X273097800Y-111741541D02*
X273145419Y-111693922D01*
X274090180Y-85241541D02*
X274090180Y-85860588D01*
X274090180Y-85860588D02*
X273709228Y-85527255D01*
X273709228Y-85527255D02*
X273709228Y-85670112D01*
X273709228Y-85670112D02*
X273661609Y-85765350D01*
X273661609Y-85765350D02*
X273613990Y-85812969D01*
X273613990Y-85812969D02*
X273518752Y-85860588D01*
X273518752Y-85860588D02*
X273280657Y-85860588D01*
X273280657Y-85860588D02*
X273185419Y-85812969D01*
X273185419Y-85812969D02*
X273137800Y-85765350D01*
X273137800Y-85765350D02*
X273090180Y-85670112D01*
X273090180Y-85670112D02*
X273090180Y-85384398D01*
X273090180Y-85384398D02*
X273137800Y-85289160D01*
X273137800Y-85289160D02*
X273185419Y-85241541D01*
X273185419Y-86289160D02*
X273137800Y-86336779D01*
X273137800Y-86336779D02*
X273090180Y-86289160D01*
X273090180Y-86289160D02*
X273137800Y-86241541D01*
X273137800Y-86241541D02*
X273185419Y-86289160D01*
X273185419Y-86289160D02*
X273090180Y-86289160D01*
X274090180Y-86670112D02*
X274090180Y-87289159D01*
X274090180Y-87289159D02*
X273709228Y-86955826D01*
X273709228Y-86955826D02*
X273709228Y-87098683D01*
X273709228Y-87098683D02*
X273661609Y-87193921D01*
X273661609Y-87193921D02*
X273613990Y-87241540D01*
X273613990Y-87241540D02*
X273518752Y-87289159D01*
X273518752Y-87289159D02*
X273280657Y-87289159D01*
X273280657Y-87289159D02*
X273185419Y-87241540D01*
X273185419Y-87241540D02*
X273137800Y-87193921D01*
X273137800Y-87193921D02*
X273090180Y-87098683D01*
X273090180Y-87098683D02*
X273090180Y-86812969D01*
X273090180Y-86812969D02*
X273137800Y-86717731D01*
X273137800Y-86717731D02*
X273185419Y-86670112D01*
X273756847Y-87622493D02*
X273090180Y-87860588D01*
X273090180Y-87860588D02*
X273756847Y-88098683D01*
X270550180Y-87892588D02*
X270550180Y-87321160D01*
X270550180Y-87606874D02*
X271550180Y-87606874D01*
X271550180Y-87606874D02*
X271407323Y-87511636D01*
X271407323Y-87511636D02*
X271312085Y-87416398D01*
X271312085Y-87416398D02*
X271264466Y-87321160D01*
X265430180Y-110852588D02*
X265430180Y-110281160D01*
X265430180Y-110566874D02*
X266430180Y-110566874D01*
X266430180Y-110566874D02*
X266287323Y-110471636D01*
X266287323Y-110471636D02*
X266192085Y-110376398D01*
X266192085Y-110376398D02*
X266144466Y-110281160D01*
X266430180Y-111471636D02*
X266430180Y-111566874D01*
X266430180Y-111566874D02*
X266382561Y-111662112D01*
X266382561Y-111662112D02*
X266334942Y-111709731D01*
X266334942Y-111709731D02*
X266239704Y-111757350D01*
X266239704Y-111757350D02*
X266049228Y-111804969D01*
X266049228Y-111804969D02*
X265811133Y-111804969D01*
X265811133Y-111804969D02*
X265620657Y-111757350D01*
X265620657Y-111757350D02*
X265525419Y-111709731D01*
X265525419Y-111709731D02*
X265477800Y-111662112D01*
X265477800Y-111662112D02*
X265430180Y-111566874D01*
X265430180Y-111566874D02*
X265430180Y-111471636D01*
X265430180Y-111471636D02*
X265477800Y-111376398D01*
X265477800Y-111376398D02*
X265525419Y-111328779D01*
X265525419Y-111328779D02*
X265620657Y-111281160D01*
X265620657Y-111281160D02*
X265811133Y-111233541D01*
X265811133Y-111233541D02*
X266049228Y-111233541D01*
X266049228Y-111233541D02*
X266239704Y-111281160D01*
X266239704Y-111281160D02*
X266334942Y-111328779D01*
X266334942Y-111328779D02*
X266382561Y-111376398D01*
X266382561Y-111376398D02*
X266430180Y-111471636D01*
X262890180Y-110376398D02*
X262890180Y-110566874D01*
X262890180Y-110566874D02*
X262937800Y-110662112D01*
X262937800Y-110662112D02*
X262985419Y-110709731D01*
X262985419Y-110709731D02*
X263128276Y-110804969D01*
X263128276Y-110804969D02*
X263318752Y-110852588D01*
X263318752Y-110852588D02*
X263699704Y-110852588D01*
X263699704Y-110852588D02*
X263794942Y-110804969D01*
X263794942Y-110804969D02*
X263842561Y-110757350D01*
X263842561Y-110757350D02*
X263890180Y-110662112D01*
X263890180Y-110662112D02*
X263890180Y-110471636D01*
X263890180Y-110471636D02*
X263842561Y-110376398D01*
X263842561Y-110376398D02*
X263794942Y-110328779D01*
X263794942Y-110328779D02*
X263699704Y-110281160D01*
X263699704Y-110281160D02*
X263461609Y-110281160D01*
X263461609Y-110281160D02*
X263366371Y-110328779D01*
X263366371Y-110328779D02*
X263318752Y-110376398D01*
X263318752Y-110376398D02*
X263271133Y-110471636D01*
X263271133Y-110471636D02*
X263271133Y-110662112D01*
X263271133Y-110662112D02*
X263318752Y-110757350D01*
X263318752Y-110757350D02*
X263366371Y-110804969D01*
X263366371Y-110804969D02*
X263461609Y-110852588D01*
X260921609Y-110471636D02*
X260969228Y-110376398D01*
X260969228Y-110376398D02*
X261016847Y-110328779D01*
X261016847Y-110328779D02*
X261112085Y-110281160D01*
X261112085Y-110281160D02*
X261159704Y-110281160D01*
X261159704Y-110281160D02*
X261254942Y-110328779D01*
X261254942Y-110328779D02*
X261302561Y-110376398D01*
X261302561Y-110376398D02*
X261350180Y-110471636D01*
X261350180Y-110471636D02*
X261350180Y-110662112D01*
X261350180Y-110662112D02*
X261302561Y-110757350D01*
X261302561Y-110757350D02*
X261254942Y-110804969D01*
X261254942Y-110804969D02*
X261159704Y-110852588D01*
X261159704Y-110852588D02*
X261112085Y-110852588D01*
X261112085Y-110852588D02*
X261016847Y-110804969D01*
X261016847Y-110804969D02*
X260969228Y-110757350D01*
X260969228Y-110757350D02*
X260921609Y-110662112D01*
X260921609Y-110662112D02*
X260921609Y-110471636D01*
X260921609Y-110471636D02*
X260873990Y-110376398D01*
X260873990Y-110376398D02*
X260826371Y-110328779D01*
X260826371Y-110328779D02*
X260731133Y-110281160D01*
X260731133Y-110281160D02*
X260540657Y-110281160D01*
X260540657Y-110281160D02*
X260445419Y-110328779D01*
X260445419Y-110328779D02*
X260397800Y-110376398D01*
X260397800Y-110376398D02*
X260350180Y-110471636D01*
X260350180Y-110471636D02*
X260350180Y-110662112D01*
X260350180Y-110662112D02*
X260397800Y-110757350D01*
X260397800Y-110757350D02*
X260445419Y-110804969D01*
X260445419Y-110804969D02*
X260540657Y-110852588D01*
X260540657Y-110852588D02*
X260731133Y-110852588D01*
X260731133Y-110852588D02*
X260826371Y-110804969D01*
X260826371Y-110804969D02*
X260873990Y-110757350D01*
X260873990Y-110757350D02*
X260921609Y-110662112D01*
X258850180Y-87797350D02*
X258850180Y-87606874D01*
X258850180Y-87606874D02*
X258802561Y-87511636D01*
X258802561Y-87511636D02*
X258754942Y-87464017D01*
X258754942Y-87464017D02*
X258612085Y-87368779D01*
X258612085Y-87368779D02*
X258421609Y-87321160D01*
X258421609Y-87321160D02*
X258040657Y-87321160D01*
X258040657Y-87321160D02*
X257945419Y-87368779D01*
X257945419Y-87368779D02*
X257897800Y-87416398D01*
X257897800Y-87416398D02*
X257850180Y-87511636D01*
X257850180Y-87511636D02*
X257850180Y-87702112D01*
X257850180Y-87702112D02*
X257897800Y-87797350D01*
X257897800Y-87797350D02*
X257945419Y-87844969D01*
X257945419Y-87844969D02*
X258040657Y-87892588D01*
X258040657Y-87892588D02*
X258278752Y-87892588D01*
X258278752Y-87892588D02*
X258373990Y-87844969D01*
X258373990Y-87844969D02*
X258421609Y-87797350D01*
X258421609Y-87797350D02*
X258469228Y-87702112D01*
X258469228Y-87702112D02*
X258469228Y-87511636D01*
X258469228Y-87511636D02*
X258421609Y-87416398D01*
X258421609Y-87416398D02*
X258373990Y-87368779D01*
X258373990Y-87368779D02*
X258278752Y-87321160D01*
X261898180Y-87844969D02*
X261898180Y-87368779D01*
X261898180Y-87368779D02*
X261421990Y-87321160D01*
X261421990Y-87321160D02*
X261469609Y-87368779D01*
X261469609Y-87368779D02*
X261517228Y-87464017D01*
X261517228Y-87464017D02*
X261517228Y-87702112D01*
X261517228Y-87702112D02*
X261469609Y-87797350D01*
X261469609Y-87797350D02*
X261421990Y-87844969D01*
X261421990Y-87844969D02*
X261326752Y-87892588D01*
X261326752Y-87892588D02*
X261088657Y-87892588D01*
X261088657Y-87892588D02*
X260993419Y-87844969D01*
X260993419Y-87844969D02*
X260945800Y-87797350D01*
X260945800Y-87797350D02*
X260898180Y-87702112D01*
X260898180Y-87702112D02*
X260898180Y-87464017D01*
X260898180Y-87464017D02*
X260945800Y-87368779D01*
X260945800Y-87368779D02*
X260993419Y-87321160D01*
X258810180Y-110233541D02*
X258810180Y-110900207D01*
X258810180Y-110900207D02*
X257810180Y-110471636D01*
X210074819Y-110595238D02*
X209598628Y-110928571D01*
X210074819Y-111166666D02*
X209074819Y-111166666D01*
X209074819Y-111166666D02*
X209074819Y-110785714D01*
X209074819Y-110785714D02*
X209122438Y-110690476D01*
X209122438Y-110690476D02*
X209170057Y-110642857D01*
X209170057Y-110642857D02*
X209265295Y-110595238D01*
X209265295Y-110595238D02*
X209408152Y-110595238D01*
X209408152Y-110595238D02*
X209503390Y-110642857D01*
X209503390Y-110642857D02*
X209551009Y-110690476D01*
X209551009Y-110690476D02*
X209598628Y-110785714D01*
X209598628Y-110785714D02*
X209598628Y-111166666D01*
X209074819Y-110309523D02*
X210074819Y-109976190D01*
X210074819Y-109976190D02*
X209074819Y-109642857D01*
X209170057Y-109357142D02*
X209122438Y-109309523D01*
X209122438Y-109309523D02*
X209074819Y-109214285D01*
X209074819Y-109214285D02*
X209074819Y-108976190D01*
X209074819Y-108976190D02*
X209122438Y-108880952D01*
X209122438Y-108880952D02*
X209170057Y-108833333D01*
X209170057Y-108833333D02*
X209265295Y-108785714D01*
X209265295Y-108785714D02*
X209360533Y-108785714D01*
X209360533Y-108785714D02*
X209503390Y-108833333D01*
X209503390Y-108833333D02*
X210074819Y-109404761D01*
X210074819Y-109404761D02*
X210074819Y-108785714D01*
X189238095Y-88454819D02*
X189238095Y-89264342D01*
X189238095Y-89264342D02*
X189285714Y-89359580D01*
X189285714Y-89359580D02*
X189333333Y-89407200D01*
X189333333Y-89407200D02*
X189428571Y-89454819D01*
X189428571Y-89454819D02*
X189619047Y-89454819D01*
X189619047Y-89454819D02*
X189714285Y-89407200D01*
X189714285Y-89407200D02*
X189761904Y-89359580D01*
X189761904Y-89359580D02*
X189809523Y-89264342D01*
X189809523Y-89264342D02*
X189809523Y-88454819D01*
X190809523Y-89454819D02*
X190238095Y-89454819D01*
X190523809Y-89454819D02*
X190523809Y-88454819D01*
X190523809Y-88454819D02*
X190428571Y-88597676D01*
X190428571Y-88597676D02*
X190333333Y-88692914D01*
X190333333Y-88692914D02*
X190238095Y-88740533D01*
X174369819Y-100781283D02*
X173369819Y-100781283D01*
X173369819Y-100781283D02*
X173369819Y-100543188D01*
X173369819Y-100543188D02*
X173417438Y-100400331D01*
X173417438Y-100400331D02*
X173512676Y-100305093D01*
X173512676Y-100305093D02*
X173607914Y-100257474D01*
X173607914Y-100257474D02*
X173798390Y-100209855D01*
X173798390Y-100209855D02*
X173941247Y-100209855D01*
X173941247Y-100209855D02*
X174131723Y-100257474D01*
X174131723Y-100257474D02*
X174226961Y-100305093D01*
X174226961Y-100305093D02*
X174322200Y-100400331D01*
X174322200Y-100400331D02*
X174369819Y-100543188D01*
X174369819Y-100543188D02*
X174369819Y-100781283D01*
X173369819Y-99590807D02*
X173369819Y-99400331D01*
X173369819Y-99400331D02*
X173417438Y-99305093D01*
X173417438Y-99305093D02*
X173512676Y-99209855D01*
X173512676Y-99209855D02*
X173703152Y-99162236D01*
X173703152Y-99162236D02*
X174036485Y-99162236D01*
X174036485Y-99162236D02*
X174226961Y-99209855D01*
X174226961Y-99209855D02*
X174322200Y-99305093D01*
X174322200Y-99305093D02*
X174369819Y-99400331D01*
X174369819Y-99400331D02*
X174369819Y-99590807D01*
X174369819Y-99590807D02*
X174322200Y-99686045D01*
X174322200Y-99686045D02*
X174226961Y-99781283D01*
X174226961Y-99781283D02*
X174036485Y-99828902D01*
X174036485Y-99828902D02*
X173703152Y-99828902D01*
X173703152Y-99828902D02*
X173512676Y-99781283D01*
X173512676Y-99781283D02*
X173417438Y-99686045D01*
X173417438Y-99686045D02*
X173369819Y-99590807D01*
X173458737Y-102639411D02*
X173411118Y-102734649D01*
X173411118Y-102734649D02*
X173411118Y-102877506D01*
X173411118Y-102877506D02*
X173458737Y-103020363D01*
X173458737Y-103020363D02*
X173553975Y-103115601D01*
X173553975Y-103115601D02*
X173649213Y-103163220D01*
X173649213Y-103163220D02*
X173839689Y-103210839D01*
X173839689Y-103210839D02*
X173982546Y-103210839D01*
X173982546Y-103210839D02*
X174173022Y-103163220D01*
X174173022Y-103163220D02*
X174268260Y-103115601D01*
X174268260Y-103115601D02*
X174363499Y-103020363D01*
X174363499Y-103020363D02*
X174411118Y-102877506D01*
X174411118Y-102877506D02*
X174411118Y-102782268D01*
X174411118Y-102782268D02*
X174363499Y-102639411D01*
X174363499Y-102639411D02*
X174315879Y-102591792D01*
X174315879Y-102591792D02*
X173982546Y-102591792D01*
X173982546Y-102591792D02*
X173982546Y-102782268D01*
X173988866Y-96663220D02*
X173988866Y-95901316D01*
X174369819Y-96282268D02*
X173607914Y-96282268D01*
X242954819Y-94071427D02*
X241954819Y-94071427D01*
X242954819Y-93595237D02*
X241954819Y-93595237D01*
X241954819Y-93595237D02*
X242669104Y-93261904D01*
X242669104Y-93261904D02*
X241954819Y-92928571D01*
X241954819Y-92928571D02*
X242954819Y-92928571D01*
X241954819Y-92452380D02*
X242764342Y-92452380D01*
X242764342Y-92452380D02*
X242859580Y-92404761D01*
X242859580Y-92404761D02*
X242907200Y-92357142D01*
X242907200Y-92357142D02*
X242954819Y-92261904D01*
X242954819Y-92261904D02*
X242954819Y-92071428D01*
X242954819Y-92071428D02*
X242907200Y-91976190D01*
X242907200Y-91976190D02*
X242859580Y-91928571D01*
X242859580Y-91928571D02*
X242764342Y-91880952D01*
X242764342Y-91880952D02*
X241954819Y-91880952D01*
X242954819Y-90880952D02*
X242954819Y-91452380D01*
X242954819Y-91166666D02*
X241954819Y-91166666D01*
X241954819Y-91166666D02*
X242097676Y-91261904D01*
X242097676Y-91261904D02*
X242192914Y-91357142D01*
X242192914Y-91357142D02*
X242240533Y-91452380D01*
X285785180Y-98238095D02*
X284975657Y-98238095D01*
X284975657Y-98238095D02*
X284880419Y-98285714D01*
X284880419Y-98285714D02*
X284832800Y-98333333D01*
X284832800Y-98333333D02*
X284785180Y-98428571D01*
X284785180Y-98428571D02*
X284785180Y-98619047D01*
X284785180Y-98619047D02*
X284832800Y-98714285D01*
X284832800Y-98714285D02*
X284880419Y-98761904D01*
X284880419Y-98761904D02*
X284975657Y-98809523D01*
X284975657Y-98809523D02*
X285785180Y-98809523D01*
X285689942Y-99238095D02*
X285737561Y-99285714D01*
X285737561Y-99285714D02*
X285785180Y-99380952D01*
X285785180Y-99380952D02*
X285785180Y-99619047D01*
X285785180Y-99619047D02*
X285737561Y-99714285D01*
X285737561Y-99714285D02*
X285689942Y-99761904D01*
X285689942Y-99761904D02*
X285594704Y-99809523D01*
X285594704Y-99809523D02*
X285499466Y-99809523D01*
X285499466Y-99809523D02*
X285356609Y-99761904D01*
X285356609Y-99761904D02*
X284785180Y-99190476D01*
X284785180Y-99190476D02*
X284785180Y-99809523D01*
X274077561Y-99860588D02*
X274125180Y-99765350D01*
X274125180Y-99765350D02*
X274125180Y-99622493D01*
X274125180Y-99622493D02*
X274077561Y-99479636D01*
X274077561Y-99479636D02*
X273982323Y-99384398D01*
X273982323Y-99384398D02*
X273887085Y-99336779D01*
X273887085Y-99336779D02*
X273696609Y-99289160D01*
X273696609Y-99289160D02*
X273553752Y-99289160D01*
X273553752Y-99289160D02*
X273363276Y-99336779D01*
X273363276Y-99336779D02*
X273268038Y-99384398D01*
X273268038Y-99384398D02*
X273172800Y-99479636D01*
X273172800Y-99479636D02*
X273125180Y-99622493D01*
X273125180Y-99622493D02*
X273125180Y-99717731D01*
X273125180Y-99717731D02*
X273172800Y-99860588D01*
X273172800Y-99860588D02*
X273220419Y-99908207D01*
X273220419Y-99908207D02*
X273553752Y-99908207D01*
X273553752Y-99908207D02*
X273553752Y-99717731D01*
X273125180Y-100336779D02*
X274125180Y-100336779D01*
X274125180Y-100336779D02*
X274125180Y-100717731D01*
X274125180Y-100717731D02*
X274077561Y-100812969D01*
X274077561Y-100812969D02*
X274029942Y-100860588D01*
X274029942Y-100860588D02*
X273934704Y-100908207D01*
X273934704Y-100908207D02*
X273791847Y-100908207D01*
X273791847Y-100908207D02*
X273696609Y-100860588D01*
X273696609Y-100860588D02*
X273648990Y-100812969D01*
X273648990Y-100812969D02*
X273601371Y-100717731D01*
X273601371Y-100717731D02*
X273601371Y-100336779D01*
X273125180Y-101336779D02*
X274125180Y-101336779D01*
X274125180Y-102003445D02*
X274125180Y-102193921D01*
X274125180Y-102193921D02*
X274077561Y-102289159D01*
X274077561Y-102289159D02*
X273982323Y-102384397D01*
X273982323Y-102384397D02*
X273791847Y-102432016D01*
X273791847Y-102432016D02*
X273458514Y-102432016D01*
X273458514Y-102432016D02*
X273268038Y-102384397D01*
X273268038Y-102384397D02*
X273172800Y-102289159D01*
X273172800Y-102289159D02*
X273125180Y-102193921D01*
X273125180Y-102193921D02*
X273125180Y-102003445D01*
X273125180Y-102003445D02*
X273172800Y-101908207D01*
X273172800Y-101908207D02*
X273268038Y-101812969D01*
X273268038Y-101812969D02*
X273458514Y-101765350D01*
X273458514Y-101765350D02*
X273791847Y-101765350D01*
X273791847Y-101765350D02*
X273982323Y-101812969D01*
X273982323Y-101812969D02*
X274077561Y-101908207D01*
X274077561Y-101908207D02*
X274125180Y-102003445D01*
X273125180Y-103384397D02*
X273125180Y-102812969D01*
X273125180Y-103098683D02*
X274125180Y-103098683D01*
X274125180Y-103098683D02*
X273982323Y-103003445D01*
X273982323Y-103003445D02*
X273887085Y-102908207D01*
X273887085Y-102908207D02*
X273839466Y-102812969D01*
X274125180Y-103717731D02*
X274125180Y-104336778D01*
X274125180Y-104336778D02*
X273744228Y-104003445D01*
X273744228Y-104003445D02*
X273744228Y-104146302D01*
X273744228Y-104146302D02*
X273696609Y-104241540D01*
X273696609Y-104241540D02*
X273648990Y-104289159D01*
X273648990Y-104289159D02*
X273553752Y-104336778D01*
X273553752Y-104336778D02*
X273315657Y-104336778D01*
X273315657Y-104336778D02*
X273220419Y-104289159D01*
X273220419Y-104289159D02*
X273172800Y-104241540D01*
X273172800Y-104241540D02*
X273125180Y-104146302D01*
X273125180Y-104146302D02*
X273125180Y-103860588D01*
X273125180Y-103860588D02*
X273172800Y-103765350D01*
X273172800Y-103765350D02*
X273220419Y-103717731D01*
X279205180Y-93462969D02*
X279205180Y-92986779D01*
X279205180Y-92986779D02*
X278728990Y-92939160D01*
X278728990Y-92939160D02*
X278776609Y-92986779D01*
X278776609Y-92986779D02*
X278824228Y-93082017D01*
X278824228Y-93082017D02*
X278824228Y-93320112D01*
X278824228Y-93320112D02*
X278776609Y-93415350D01*
X278776609Y-93415350D02*
X278728990Y-93462969D01*
X278728990Y-93462969D02*
X278633752Y-93510588D01*
X278633752Y-93510588D02*
X278395657Y-93510588D01*
X278395657Y-93510588D02*
X278300419Y-93462969D01*
X278300419Y-93462969D02*
X278252800Y-93415350D01*
X278252800Y-93415350D02*
X278205180Y-93320112D01*
X278205180Y-93320112D02*
X278205180Y-93082017D01*
X278205180Y-93082017D02*
X278252800Y-92986779D01*
X278252800Y-92986779D02*
X278300419Y-92939160D01*
X279205180Y-93796303D02*
X278205180Y-94129636D01*
X278205180Y-94129636D02*
X279205180Y-94462969D01*
X266457561Y-93740587D02*
X266505180Y-93645349D01*
X266505180Y-93645349D02*
X266505180Y-93502492D01*
X266505180Y-93502492D02*
X266457561Y-93359635D01*
X266457561Y-93359635D02*
X266362323Y-93264397D01*
X266362323Y-93264397D02*
X266267085Y-93216778D01*
X266267085Y-93216778D02*
X266076609Y-93169159D01*
X266076609Y-93169159D02*
X265933752Y-93169159D01*
X265933752Y-93169159D02*
X265743276Y-93216778D01*
X265743276Y-93216778D02*
X265648038Y-93264397D01*
X265648038Y-93264397D02*
X265552800Y-93359635D01*
X265552800Y-93359635D02*
X265505180Y-93502492D01*
X265505180Y-93502492D02*
X265505180Y-93597730D01*
X265505180Y-93597730D02*
X265552800Y-93740587D01*
X265552800Y-93740587D02*
X265600419Y-93788206D01*
X265600419Y-93788206D02*
X265933752Y-93788206D01*
X265933752Y-93788206D02*
X265933752Y-93597730D01*
X265505180Y-94216778D02*
X266505180Y-94216778D01*
X266505180Y-94216778D02*
X266505180Y-94597730D01*
X266505180Y-94597730D02*
X266457561Y-94692968D01*
X266457561Y-94692968D02*
X266409942Y-94740587D01*
X266409942Y-94740587D02*
X266314704Y-94788206D01*
X266314704Y-94788206D02*
X266171847Y-94788206D01*
X266171847Y-94788206D02*
X266076609Y-94740587D01*
X266076609Y-94740587D02*
X266028990Y-94692968D01*
X266028990Y-94692968D02*
X265981371Y-94597730D01*
X265981371Y-94597730D02*
X265981371Y-94216778D01*
X265505180Y-95216778D02*
X266505180Y-95216778D01*
X266505180Y-95883444D02*
X266505180Y-96073920D01*
X266505180Y-96073920D02*
X266457561Y-96169158D01*
X266457561Y-96169158D02*
X266362323Y-96264396D01*
X266362323Y-96264396D02*
X266171847Y-96312015D01*
X266171847Y-96312015D02*
X265838514Y-96312015D01*
X265838514Y-96312015D02*
X265648038Y-96264396D01*
X265648038Y-96264396D02*
X265552800Y-96169158D01*
X265552800Y-96169158D02*
X265505180Y-96073920D01*
X265505180Y-96073920D02*
X265505180Y-95883444D01*
X265505180Y-95883444D02*
X265552800Y-95788206D01*
X265552800Y-95788206D02*
X265648038Y-95692968D01*
X265648038Y-95692968D02*
X265838514Y-95645349D01*
X265838514Y-95645349D02*
X266171847Y-95645349D01*
X266171847Y-95645349D02*
X266362323Y-95692968D01*
X266362323Y-95692968D02*
X266457561Y-95788206D01*
X266457561Y-95788206D02*
X266505180Y-95883444D01*
X266505180Y-96645349D02*
X266505180Y-97264396D01*
X266505180Y-97264396D02*
X266124228Y-96931063D01*
X266124228Y-96931063D02*
X266124228Y-97073920D01*
X266124228Y-97073920D02*
X266076609Y-97169158D01*
X266076609Y-97169158D02*
X266028990Y-97216777D01*
X266028990Y-97216777D02*
X265933752Y-97264396D01*
X265933752Y-97264396D02*
X265695657Y-97264396D01*
X265695657Y-97264396D02*
X265600419Y-97216777D01*
X265600419Y-97216777D02*
X265552800Y-97169158D01*
X265552800Y-97169158D02*
X265505180Y-97073920D01*
X265505180Y-97073920D02*
X265505180Y-96788206D01*
X265505180Y-96788206D02*
X265552800Y-96692968D01*
X265552800Y-96692968D02*
X265600419Y-96645349D01*
X268997561Y-93510588D02*
X269045180Y-93415350D01*
X269045180Y-93415350D02*
X269045180Y-93272493D01*
X269045180Y-93272493D02*
X268997561Y-93129636D01*
X268997561Y-93129636D02*
X268902323Y-93034398D01*
X268902323Y-93034398D02*
X268807085Y-92986779D01*
X268807085Y-92986779D02*
X268616609Y-92939160D01*
X268616609Y-92939160D02*
X268473752Y-92939160D01*
X268473752Y-92939160D02*
X268283276Y-92986779D01*
X268283276Y-92986779D02*
X268188038Y-93034398D01*
X268188038Y-93034398D02*
X268092800Y-93129636D01*
X268092800Y-93129636D02*
X268045180Y-93272493D01*
X268045180Y-93272493D02*
X268045180Y-93367731D01*
X268045180Y-93367731D02*
X268092800Y-93510588D01*
X268092800Y-93510588D02*
X268140419Y-93558207D01*
X268140419Y-93558207D02*
X268473752Y-93558207D01*
X268473752Y-93558207D02*
X268473752Y-93367731D01*
X268045180Y-93986779D02*
X269045180Y-93986779D01*
X269045180Y-93986779D02*
X269045180Y-94367731D01*
X269045180Y-94367731D02*
X268997561Y-94462969D01*
X268997561Y-94462969D02*
X268949942Y-94510588D01*
X268949942Y-94510588D02*
X268854704Y-94558207D01*
X268854704Y-94558207D02*
X268711847Y-94558207D01*
X268711847Y-94558207D02*
X268616609Y-94510588D01*
X268616609Y-94510588D02*
X268568990Y-94462969D01*
X268568990Y-94462969D02*
X268521371Y-94367731D01*
X268521371Y-94367731D02*
X268521371Y-93986779D01*
X268045180Y-94986779D02*
X269045180Y-94986779D01*
X269045180Y-95653445D02*
X269045180Y-95843921D01*
X269045180Y-95843921D02*
X268997561Y-95939159D01*
X268997561Y-95939159D02*
X268902323Y-96034397D01*
X268902323Y-96034397D02*
X268711847Y-96082016D01*
X268711847Y-96082016D02*
X268378514Y-96082016D01*
X268378514Y-96082016D02*
X268188038Y-96034397D01*
X268188038Y-96034397D02*
X268092800Y-95939159D01*
X268092800Y-95939159D02*
X268045180Y-95843921D01*
X268045180Y-95843921D02*
X268045180Y-95653445D01*
X268045180Y-95653445D02*
X268092800Y-95558207D01*
X268092800Y-95558207D02*
X268188038Y-95462969D01*
X268188038Y-95462969D02*
X268378514Y-95415350D01*
X268378514Y-95415350D02*
X268711847Y-95415350D01*
X268711847Y-95415350D02*
X268902323Y-95462969D01*
X268902323Y-95462969D02*
X268997561Y-95558207D01*
X268997561Y-95558207D02*
X269045180Y-95653445D01*
X268949942Y-96462969D02*
X268997561Y-96510588D01*
X268997561Y-96510588D02*
X269045180Y-96605826D01*
X269045180Y-96605826D02*
X269045180Y-96843921D01*
X269045180Y-96843921D02*
X268997561Y-96939159D01*
X268997561Y-96939159D02*
X268949942Y-96986778D01*
X268949942Y-96986778D02*
X268854704Y-97034397D01*
X268854704Y-97034397D02*
X268759466Y-97034397D01*
X268759466Y-97034397D02*
X268616609Y-96986778D01*
X268616609Y-96986778D02*
X268045180Y-96415350D01*
X268045180Y-96415350D02*
X268045180Y-97034397D01*
X271537561Y-99860588D02*
X271585180Y-99765350D01*
X271585180Y-99765350D02*
X271585180Y-99622493D01*
X271585180Y-99622493D02*
X271537561Y-99479636D01*
X271537561Y-99479636D02*
X271442323Y-99384398D01*
X271442323Y-99384398D02*
X271347085Y-99336779D01*
X271347085Y-99336779D02*
X271156609Y-99289160D01*
X271156609Y-99289160D02*
X271013752Y-99289160D01*
X271013752Y-99289160D02*
X270823276Y-99336779D01*
X270823276Y-99336779D02*
X270728038Y-99384398D01*
X270728038Y-99384398D02*
X270632800Y-99479636D01*
X270632800Y-99479636D02*
X270585180Y-99622493D01*
X270585180Y-99622493D02*
X270585180Y-99717731D01*
X270585180Y-99717731D02*
X270632800Y-99860588D01*
X270632800Y-99860588D02*
X270680419Y-99908207D01*
X270680419Y-99908207D02*
X271013752Y-99908207D01*
X271013752Y-99908207D02*
X271013752Y-99717731D01*
X270585180Y-100336779D02*
X271585180Y-100336779D01*
X271585180Y-100336779D02*
X271585180Y-100717731D01*
X271585180Y-100717731D02*
X271537561Y-100812969D01*
X271537561Y-100812969D02*
X271489942Y-100860588D01*
X271489942Y-100860588D02*
X271394704Y-100908207D01*
X271394704Y-100908207D02*
X271251847Y-100908207D01*
X271251847Y-100908207D02*
X271156609Y-100860588D01*
X271156609Y-100860588D02*
X271108990Y-100812969D01*
X271108990Y-100812969D02*
X271061371Y-100717731D01*
X271061371Y-100717731D02*
X271061371Y-100336779D01*
X270585180Y-101336779D02*
X271585180Y-101336779D01*
X271585180Y-102003445D02*
X271585180Y-102193921D01*
X271585180Y-102193921D02*
X271537561Y-102289159D01*
X271537561Y-102289159D02*
X271442323Y-102384397D01*
X271442323Y-102384397D02*
X271251847Y-102432016D01*
X271251847Y-102432016D02*
X270918514Y-102432016D01*
X270918514Y-102432016D02*
X270728038Y-102384397D01*
X270728038Y-102384397D02*
X270632800Y-102289159D01*
X270632800Y-102289159D02*
X270585180Y-102193921D01*
X270585180Y-102193921D02*
X270585180Y-102003445D01*
X270585180Y-102003445D02*
X270632800Y-101908207D01*
X270632800Y-101908207D02*
X270728038Y-101812969D01*
X270728038Y-101812969D02*
X270918514Y-101765350D01*
X270918514Y-101765350D02*
X271251847Y-101765350D01*
X271251847Y-101765350D02*
X271442323Y-101812969D01*
X271442323Y-101812969D02*
X271537561Y-101908207D01*
X271537561Y-101908207D02*
X271585180Y-102003445D01*
X270585180Y-103384397D02*
X270585180Y-102812969D01*
X270585180Y-103098683D02*
X271585180Y-103098683D01*
X271585180Y-103098683D02*
X271442323Y-103003445D01*
X271442323Y-103003445D02*
X271347085Y-102908207D01*
X271347085Y-102908207D02*
X271299466Y-102812969D01*
X271489942Y-103765350D02*
X271537561Y-103812969D01*
X271537561Y-103812969D02*
X271585180Y-103908207D01*
X271585180Y-103908207D02*
X271585180Y-104146302D01*
X271585180Y-104146302D02*
X271537561Y-104241540D01*
X271537561Y-104241540D02*
X271489942Y-104289159D01*
X271489942Y-104289159D02*
X271394704Y-104336778D01*
X271394704Y-104336778D02*
X271299466Y-104336778D01*
X271299466Y-104336778D02*
X271156609Y-104289159D01*
X271156609Y-104289159D02*
X270585180Y-103717731D01*
X270585180Y-103717731D02*
X270585180Y-104336778D01*
X261377561Y-93740587D02*
X261425180Y-93645349D01*
X261425180Y-93645349D02*
X261425180Y-93502492D01*
X261425180Y-93502492D02*
X261377561Y-93359635D01*
X261377561Y-93359635D02*
X261282323Y-93264397D01*
X261282323Y-93264397D02*
X261187085Y-93216778D01*
X261187085Y-93216778D02*
X260996609Y-93169159D01*
X260996609Y-93169159D02*
X260853752Y-93169159D01*
X260853752Y-93169159D02*
X260663276Y-93216778D01*
X260663276Y-93216778D02*
X260568038Y-93264397D01*
X260568038Y-93264397D02*
X260472800Y-93359635D01*
X260472800Y-93359635D02*
X260425180Y-93502492D01*
X260425180Y-93502492D02*
X260425180Y-93597730D01*
X260425180Y-93597730D02*
X260472800Y-93740587D01*
X260472800Y-93740587D02*
X260520419Y-93788206D01*
X260520419Y-93788206D02*
X260853752Y-93788206D01*
X260853752Y-93788206D02*
X260853752Y-93597730D01*
X260425180Y-94216778D02*
X261425180Y-94216778D01*
X261425180Y-94216778D02*
X261425180Y-94597730D01*
X261425180Y-94597730D02*
X261377561Y-94692968D01*
X261377561Y-94692968D02*
X261329942Y-94740587D01*
X261329942Y-94740587D02*
X261234704Y-94788206D01*
X261234704Y-94788206D02*
X261091847Y-94788206D01*
X261091847Y-94788206D02*
X260996609Y-94740587D01*
X260996609Y-94740587D02*
X260948990Y-94692968D01*
X260948990Y-94692968D02*
X260901371Y-94597730D01*
X260901371Y-94597730D02*
X260901371Y-94216778D01*
X260425180Y-95216778D02*
X261425180Y-95216778D01*
X261425180Y-95883444D02*
X261425180Y-96073920D01*
X261425180Y-96073920D02*
X261377561Y-96169158D01*
X261377561Y-96169158D02*
X261282323Y-96264396D01*
X261282323Y-96264396D02*
X261091847Y-96312015D01*
X261091847Y-96312015D02*
X260758514Y-96312015D01*
X260758514Y-96312015D02*
X260568038Y-96264396D01*
X260568038Y-96264396D02*
X260472800Y-96169158D01*
X260472800Y-96169158D02*
X260425180Y-96073920D01*
X260425180Y-96073920D02*
X260425180Y-95883444D01*
X260425180Y-95883444D02*
X260472800Y-95788206D01*
X260472800Y-95788206D02*
X260568038Y-95692968D01*
X260568038Y-95692968D02*
X260758514Y-95645349D01*
X260758514Y-95645349D02*
X261091847Y-95645349D01*
X261091847Y-95645349D02*
X261282323Y-95692968D01*
X261282323Y-95692968D02*
X261377561Y-95788206D01*
X261377561Y-95788206D02*
X261425180Y-95883444D01*
X261425180Y-97216777D02*
X261425180Y-96740587D01*
X261425180Y-96740587D02*
X260948990Y-96692968D01*
X260948990Y-96692968D02*
X260996609Y-96740587D01*
X260996609Y-96740587D02*
X261044228Y-96835825D01*
X261044228Y-96835825D02*
X261044228Y-97073920D01*
X261044228Y-97073920D02*
X260996609Y-97169158D01*
X260996609Y-97169158D02*
X260948990Y-97216777D01*
X260948990Y-97216777D02*
X260853752Y-97264396D01*
X260853752Y-97264396D02*
X260615657Y-97264396D01*
X260615657Y-97264396D02*
X260520419Y-97216777D01*
X260520419Y-97216777D02*
X260472800Y-97169158D01*
X260472800Y-97169158D02*
X260425180Y-97073920D01*
X260425180Y-97073920D02*
X260425180Y-96835825D01*
X260425180Y-96835825D02*
X260472800Y-96740587D01*
X260472800Y-96740587D02*
X260520419Y-96692968D01*
X263917561Y-93740587D02*
X263965180Y-93645349D01*
X263965180Y-93645349D02*
X263965180Y-93502492D01*
X263965180Y-93502492D02*
X263917561Y-93359635D01*
X263917561Y-93359635D02*
X263822323Y-93264397D01*
X263822323Y-93264397D02*
X263727085Y-93216778D01*
X263727085Y-93216778D02*
X263536609Y-93169159D01*
X263536609Y-93169159D02*
X263393752Y-93169159D01*
X263393752Y-93169159D02*
X263203276Y-93216778D01*
X263203276Y-93216778D02*
X263108038Y-93264397D01*
X263108038Y-93264397D02*
X263012800Y-93359635D01*
X263012800Y-93359635D02*
X262965180Y-93502492D01*
X262965180Y-93502492D02*
X262965180Y-93597730D01*
X262965180Y-93597730D02*
X263012800Y-93740587D01*
X263012800Y-93740587D02*
X263060419Y-93788206D01*
X263060419Y-93788206D02*
X263393752Y-93788206D01*
X263393752Y-93788206D02*
X263393752Y-93597730D01*
X262965180Y-94216778D02*
X263965180Y-94216778D01*
X263965180Y-94216778D02*
X263965180Y-94597730D01*
X263965180Y-94597730D02*
X263917561Y-94692968D01*
X263917561Y-94692968D02*
X263869942Y-94740587D01*
X263869942Y-94740587D02*
X263774704Y-94788206D01*
X263774704Y-94788206D02*
X263631847Y-94788206D01*
X263631847Y-94788206D02*
X263536609Y-94740587D01*
X263536609Y-94740587D02*
X263488990Y-94692968D01*
X263488990Y-94692968D02*
X263441371Y-94597730D01*
X263441371Y-94597730D02*
X263441371Y-94216778D01*
X262965180Y-95216778D02*
X263965180Y-95216778D01*
X263965180Y-95883444D02*
X263965180Y-96073920D01*
X263965180Y-96073920D02*
X263917561Y-96169158D01*
X263917561Y-96169158D02*
X263822323Y-96264396D01*
X263822323Y-96264396D02*
X263631847Y-96312015D01*
X263631847Y-96312015D02*
X263298514Y-96312015D01*
X263298514Y-96312015D02*
X263108038Y-96264396D01*
X263108038Y-96264396D02*
X263012800Y-96169158D01*
X263012800Y-96169158D02*
X262965180Y-96073920D01*
X262965180Y-96073920D02*
X262965180Y-95883444D01*
X262965180Y-95883444D02*
X263012800Y-95788206D01*
X263012800Y-95788206D02*
X263108038Y-95692968D01*
X263108038Y-95692968D02*
X263298514Y-95645349D01*
X263298514Y-95645349D02*
X263631847Y-95645349D01*
X263631847Y-95645349D02*
X263822323Y-95692968D01*
X263822323Y-95692968D02*
X263917561Y-95788206D01*
X263917561Y-95788206D02*
X263965180Y-95883444D01*
X263631847Y-97169158D02*
X262965180Y-97169158D01*
X264012800Y-96931063D02*
X263298514Y-96692968D01*
X263298514Y-96692968D02*
X263298514Y-97312015D01*
X263687562Y-100860588D02*
X263735181Y-100765350D01*
X263735181Y-100765350D02*
X263735181Y-100622493D01*
X263735181Y-100622493D02*
X263687562Y-100479636D01*
X263687562Y-100479636D02*
X263592324Y-100384398D01*
X263592324Y-100384398D02*
X263497086Y-100336779D01*
X263497086Y-100336779D02*
X263306610Y-100289160D01*
X263306610Y-100289160D02*
X263163753Y-100289160D01*
X263163753Y-100289160D02*
X262973277Y-100336779D01*
X262973277Y-100336779D02*
X262878039Y-100384398D01*
X262878039Y-100384398D02*
X262782801Y-100479636D01*
X262782801Y-100479636D02*
X262735181Y-100622493D01*
X262735181Y-100622493D02*
X262735181Y-100717731D01*
X262735181Y-100717731D02*
X262782801Y-100860588D01*
X262782801Y-100860588D02*
X262830420Y-100908207D01*
X262830420Y-100908207D02*
X263163753Y-100908207D01*
X263163753Y-100908207D02*
X263163753Y-100717731D01*
X262735181Y-101336779D02*
X263735181Y-101336779D01*
X263735181Y-101336779D02*
X263735181Y-101717731D01*
X263735181Y-101717731D02*
X263687562Y-101812969D01*
X263687562Y-101812969D02*
X263639943Y-101860588D01*
X263639943Y-101860588D02*
X263544705Y-101908207D01*
X263544705Y-101908207D02*
X263401848Y-101908207D01*
X263401848Y-101908207D02*
X263306610Y-101860588D01*
X263306610Y-101860588D02*
X263258991Y-101812969D01*
X263258991Y-101812969D02*
X263211372Y-101717731D01*
X263211372Y-101717731D02*
X263211372Y-101336779D01*
X262735181Y-102336779D02*
X263735181Y-102336779D01*
X263735181Y-103003445D02*
X263735181Y-103193921D01*
X263735181Y-103193921D02*
X263687562Y-103289159D01*
X263687562Y-103289159D02*
X263592324Y-103384397D01*
X263592324Y-103384397D02*
X263401848Y-103432016D01*
X263401848Y-103432016D02*
X263068515Y-103432016D01*
X263068515Y-103432016D02*
X262878039Y-103384397D01*
X262878039Y-103384397D02*
X262782801Y-103289159D01*
X262782801Y-103289159D02*
X262735181Y-103193921D01*
X262735181Y-103193921D02*
X262735181Y-103003445D01*
X262735181Y-103003445D02*
X262782801Y-102908207D01*
X262782801Y-102908207D02*
X262878039Y-102812969D01*
X262878039Y-102812969D02*
X263068515Y-102765350D01*
X263068515Y-102765350D02*
X263401848Y-102765350D01*
X263401848Y-102765350D02*
X263592324Y-102812969D01*
X263592324Y-102812969D02*
X263687562Y-102908207D01*
X263687562Y-102908207D02*
X263735181Y-103003445D01*
X262735181Y-103908207D02*
X262735181Y-104098683D01*
X262735181Y-104098683D02*
X262782801Y-104193921D01*
X262782801Y-104193921D02*
X262830420Y-104241540D01*
X262830420Y-104241540D02*
X262973277Y-104336778D01*
X262973277Y-104336778D02*
X263163753Y-104384397D01*
X263163753Y-104384397D02*
X263544705Y-104384397D01*
X263544705Y-104384397D02*
X263639943Y-104336778D01*
X263639943Y-104336778D02*
X263687562Y-104289159D01*
X263687562Y-104289159D02*
X263735181Y-104193921D01*
X263735181Y-104193921D02*
X263735181Y-104003445D01*
X263735181Y-104003445D02*
X263687562Y-103908207D01*
X263687562Y-103908207D02*
X263639943Y-103860588D01*
X263639943Y-103860588D02*
X263544705Y-103812969D01*
X263544705Y-103812969D02*
X263306610Y-103812969D01*
X263306610Y-103812969D02*
X263211372Y-103860588D01*
X263211372Y-103860588D02*
X263163753Y-103908207D01*
X263163753Y-103908207D02*
X263116134Y-104003445D01*
X263116134Y-104003445D02*
X263116134Y-104193921D01*
X263116134Y-104193921D02*
X263163753Y-104289159D01*
X263163753Y-104289159D02*
X263211372Y-104336778D01*
X263211372Y-104336778D02*
X263306610Y-104384397D01*
X279205180Y-102592267D02*
X279205180Y-103163695D01*
X278205180Y-102877981D02*
X279205180Y-102877981D01*
X279205180Y-103401791D02*
X278205180Y-104068457D01*
X279205180Y-104068457D02*
X278205180Y-103401791D01*
X271537561Y-93510588D02*
X271585180Y-93415350D01*
X271585180Y-93415350D02*
X271585180Y-93272493D01*
X271585180Y-93272493D02*
X271537561Y-93129636D01*
X271537561Y-93129636D02*
X271442323Y-93034398D01*
X271442323Y-93034398D02*
X271347085Y-92986779D01*
X271347085Y-92986779D02*
X271156609Y-92939160D01*
X271156609Y-92939160D02*
X271013752Y-92939160D01*
X271013752Y-92939160D02*
X270823276Y-92986779D01*
X270823276Y-92986779D02*
X270728038Y-93034398D01*
X270728038Y-93034398D02*
X270632800Y-93129636D01*
X270632800Y-93129636D02*
X270585180Y-93272493D01*
X270585180Y-93272493D02*
X270585180Y-93367731D01*
X270585180Y-93367731D02*
X270632800Y-93510588D01*
X270632800Y-93510588D02*
X270680419Y-93558207D01*
X270680419Y-93558207D02*
X271013752Y-93558207D01*
X271013752Y-93558207D02*
X271013752Y-93367731D01*
X270585180Y-93986779D02*
X271585180Y-93986779D01*
X271585180Y-93986779D02*
X271585180Y-94367731D01*
X271585180Y-94367731D02*
X271537561Y-94462969D01*
X271537561Y-94462969D02*
X271489942Y-94510588D01*
X271489942Y-94510588D02*
X271394704Y-94558207D01*
X271394704Y-94558207D02*
X271251847Y-94558207D01*
X271251847Y-94558207D02*
X271156609Y-94510588D01*
X271156609Y-94510588D02*
X271108990Y-94462969D01*
X271108990Y-94462969D02*
X271061371Y-94367731D01*
X271061371Y-94367731D02*
X271061371Y-93986779D01*
X270585180Y-94986779D02*
X271585180Y-94986779D01*
X271585180Y-95653445D02*
X271585180Y-95843921D01*
X271585180Y-95843921D02*
X271537561Y-95939159D01*
X271537561Y-95939159D02*
X271442323Y-96034397D01*
X271442323Y-96034397D02*
X271251847Y-96082016D01*
X271251847Y-96082016D02*
X270918514Y-96082016D01*
X270918514Y-96082016D02*
X270728038Y-96034397D01*
X270728038Y-96034397D02*
X270632800Y-95939159D01*
X270632800Y-95939159D02*
X270585180Y-95843921D01*
X270585180Y-95843921D02*
X270585180Y-95653445D01*
X270585180Y-95653445D02*
X270632800Y-95558207D01*
X270632800Y-95558207D02*
X270728038Y-95462969D01*
X270728038Y-95462969D02*
X270918514Y-95415350D01*
X270918514Y-95415350D02*
X271251847Y-95415350D01*
X271251847Y-95415350D02*
X271442323Y-95462969D01*
X271442323Y-95462969D02*
X271537561Y-95558207D01*
X271537561Y-95558207D02*
X271585180Y-95653445D01*
X270585180Y-97034397D02*
X270585180Y-96462969D01*
X270585180Y-96748683D02*
X271585180Y-96748683D01*
X271585180Y-96748683D02*
X271442323Y-96653445D01*
X271442323Y-96653445D02*
X271347085Y-96558207D01*
X271347085Y-96558207D02*
X271299466Y-96462969D01*
X261377561Y-100860588D02*
X261425180Y-100765350D01*
X261425180Y-100765350D02*
X261425180Y-100622493D01*
X261425180Y-100622493D02*
X261377561Y-100479636D01*
X261377561Y-100479636D02*
X261282323Y-100384398D01*
X261282323Y-100384398D02*
X261187085Y-100336779D01*
X261187085Y-100336779D02*
X260996609Y-100289160D01*
X260996609Y-100289160D02*
X260853752Y-100289160D01*
X260853752Y-100289160D02*
X260663276Y-100336779D01*
X260663276Y-100336779D02*
X260568038Y-100384398D01*
X260568038Y-100384398D02*
X260472800Y-100479636D01*
X260472800Y-100479636D02*
X260425180Y-100622493D01*
X260425180Y-100622493D02*
X260425180Y-100717731D01*
X260425180Y-100717731D02*
X260472800Y-100860588D01*
X260472800Y-100860588D02*
X260520419Y-100908207D01*
X260520419Y-100908207D02*
X260853752Y-100908207D01*
X260853752Y-100908207D02*
X260853752Y-100717731D01*
X260425180Y-101336779D02*
X261425180Y-101336779D01*
X261425180Y-101336779D02*
X261425180Y-101717731D01*
X261425180Y-101717731D02*
X261377561Y-101812969D01*
X261377561Y-101812969D02*
X261329942Y-101860588D01*
X261329942Y-101860588D02*
X261234704Y-101908207D01*
X261234704Y-101908207D02*
X261091847Y-101908207D01*
X261091847Y-101908207D02*
X260996609Y-101860588D01*
X260996609Y-101860588D02*
X260948990Y-101812969D01*
X260948990Y-101812969D02*
X260901371Y-101717731D01*
X260901371Y-101717731D02*
X260901371Y-101336779D01*
X260425180Y-102336779D02*
X261425180Y-102336779D01*
X261425180Y-103003445D02*
X261425180Y-103193921D01*
X261425180Y-103193921D02*
X261377561Y-103289159D01*
X261377561Y-103289159D02*
X261282323Y-103384397D01*
X261282323Y-103384397D02*
X261091847Y-103432016D01*
X261091847Y-103432016D02*
X260758514Y-103432016D01*
X260758514Y-103432016D02*
X260568038Y-103384397D01*
X260568038Y-103384397D02*
X260472800Y-103289159D01*
X260472800Y-103289159D02*
X260425180Y-103193921D01*
X260425180Y-103193921D02*
X260425180Y-103003445D01*
X260425180Y-103003445D02*
X260472800Y-102908207D01*
X260472800Y-102908207D02*
X260568038Y-102812969D01*
X260568038Y-102812969D02*
X260758514Y-102765350D01*
X260758514Y-102765350D02*
X261091847Y-102765350D01*
X261091847Y-102765350D02*
X261282323Y-102812969D01*
X261282323Y-102812969D02*
X261377561Y-102908207D01*
X261377561Y-102908207D02*
X261425180Y-103003445D01*
X260996609Y-104003445D02*
X261044228Y-103908207D01*
X261044228Y-103908207D02*
X261091847Y-103860588D01*
X261091847Y-103860588D02*
X261187085Y-103812969D01*
X261187085Y-103812969D02*
X261234704Y-103812969D01*
X261234704Y-103812969D02*
X261329942Y-103860588D01*
X261329942Y-103860588D02*
X261377561Y-103908207D01*
X261377561Y-103908207D02*
X261425180Y-104003445D01*
X261425180Y-104003445D02*
X261425180Y-104193921D01*
X261425180Y-104193921D02*
X261377561Y-104289159D01*
X261377561Y-104289159D02*
X261329942Y-104336778D01*
X261329942Y-104336778D02*
X261234704Y-104384397D01*
X261234704Y-104384397D02*
X261187085Y-104384397D01*
X261187085Y-104384397D02*
X261091847Y-104336778D01*
X261091847Y-104336778D02*
X261044228Y-104289159D01*
X261044228Y-104289159D02*
X260996609Y-104193921D01*
X260996609Y-104193921D02*
X260996609Y-104003445D01*
X260996609Y-104003445D02*
X260948990Y-103908207D01*
X260948990Y-103908207D02*
X260901371Y-103860588D01*
X260901371Y-103860588D02*
X260806133Y-103812969D01*
X260806133Y-103812969D02*
X260615657Y-103812969D01*
X260615657Y-103812969D02*
X260520419Y-103860588D01*
X260520419Y-103860588D02*
X260472800Y-103908207D01*
X260472800Y-103908207D02*
X260425180Y-104003445D01*
X260425180Y-104003445D02*
X260425180Y-104193921D01*
X260425180Y-104193921D02*
X260472800Y-104289159D01*
X260472800Y-104289159D02*
X260520419Y-104336778D01*
X260520419Y-104336778D02*
X260615657Y-104384397D01*
X260615657Y-104384397D02*
X260806133Y-104384397D01*
X260806133Y-104384397D02*
X260901371Y-104336778D01*
X260901371Y-104336778D02*
X260948990Y-104289159D01*
X260948990Y-104289159D02*
X260996609Y-104193921D01*
X268997561Y-99860588D02*
X269045180Y-99765350D01*
X269045180Y-99765350D02*
X269045180Y-99622493D01*
X269045180Y-99622493D02*
X268997561Y-99479636D01*
X268997561Y-99479636D02*
X268902323Y-99384398D01*
X268902323Y-99384398D02*
X268807085Y-99336779D01*
X268807085Y-99336779D02*
X268616609Y-99289160D01*
X268616609Y-99289160D02*
X268473752Y-99289160D01*
X268473752Y-99289160D02*
X268283276Y-99336779D01*
X268283276Y-99336779D02*
X268188038Y-99384398D01*
X268188038Y-99384398D02*
X268092800Y-99479636D01*
X268092800Y-99479636D02*
X268045180Y-99622493D01*
X268045180Y-99622493D02*
X268045180Y-99717731D01*
X268045180Y-99717731D02*
X268092800Y-99860588D01*
X268092800Y-99860588D02*
X268140419Y-99908207D01*
X268140419Y-99908207D02*
X268473752Y-99908207D01*
X268473752Y-99908207D02*
X268473752Y-99717731D01*
X268045180Y-100336779D02*
X269045180Y-100336779D01*
X269045180Y-100336779D02*
X269045180Y-100717731D01*
X269045180Y-100717731D02*
X268997561Y-100812969D01*
X268997561Y-100812969D02*
X268949942Y-100860588D01*
X268949942Y-100860588D02*
X268854704Y-100908207D01*
X268854704Y-100908207D02*
X268711847Y-100908207D01*
X268711847Y-100908207D02*
X268616609Y-100860588D01*
X268616609Y-100860588D02*
X268568990Y-100812969D01*
X268568990Y-100812969D02*
X268521371Y-100717731D01*
X268521371Y-100717731D02*
X268521371Y-100336779D01*
X268045180Y-101336779D02*
X269045180Y-101336779D01*
X269045180Y-102003445D02*
X269045180Y-102193921D01*
X269045180Y-102193921D02*
X268997561Y-102289159D01*
X268997561Y-102289159D02*
X268902323Y-102384397D01*
X268902323Y-102384397D02*
X268711847Y-102432016D01*
X268711847Y-102432016D02*
X268378514Y-102432016D01*
X268378514Y-102432016D02*
X268188038Y-102384397D01*
X268188038Y-102384397D02*
X268092800Y-102289159D01*
X268092800Y-102289159D02*
X268045180Y-102193921D01*
X268045180Y-102193921D02*
X268045180Y-102003445D01*
X268045180Y-102003445D02*
X268092800Y-101908207D01*
X268092800Y-101908207D02*
X268188038Y-101812969D01*
X268188038Y-101812969D02*
X268378514Y-101765350D01*
X268378514Y-101765350D02*
X268711847Y-101765350D01*
X268711847Y-101765350D02*
X268902323Y-101812969D01*
X268902323Y-101812969D02*
X268997561Y-101908207D01*
X268997561Y-101908207D02*
X269045180Y-102003445D01*
X268045180Y-103384397D02*
X268045180Y-102812969D01*
X268045180Y-103098683D02*
X269045180Y-103098683D01*
X269045180Y-103098683D02*
X268902323Y-103003445D01*
X268902323Y-103003445D02*
X268807085Y-102908207D01*
X268807085Y-102908207D02*
X268759466Y-102812969D01*
X268045180Y-104336778D02*
X268045180Y-103765350D01*
X268045180Y-104051064D02*
X269045180Y-104051064D01*
X269045180Y-104051064D02*
X268902323Y-103955826D01*
X268902323Y-103955826D02*
X268807085Y-103860588D01*
X268807085Y-103860588D02*
X268759466Y-103765350D01*
X258837561Y-93740587D02*
X258885180Y-93645349D01*
X258885180Y-93645349D02*
X258885180Y-93502492D01*
X258885180Y-93502492D02*
X258837561Y-93359635D01*
X258837561Y-93359635D02*
X258742323Y-93264397D01*
X258742323Y-93264397D02*
X258647085Y-93216778D01*
X258647085Y-93216778D02*
X258456609Y-93169159D01*
X258456609Y-93169159D02*
X258313752Y-93169159D01*
X258313752Y-93169159D02*
X258123276Y-93216778D01*
X258123276Y-93216778D02*
X258028038Y-93264397D01*
X258028038Y-93264397D02*
X257932800Y-93359635D01*
X257932800Y-93359635D02*
X257885180Y-93502492D01*
X257885180Y-93502492D02*
X257885180Y-93597730D01*
X257885180Y-93597730D02*
X257932800Y-93740587D01*
X257932800Y-93740587D02*
X257980419Y-93788206D01*
X257980419Y-93788206D02*
X258313752Y-93788206D01*
X258313752Y-93788206D02*
X258313752Y-93597730D01*
X257885180Y-94216778D02*
X258885180Y-94216778D01*
X258885180Y-94216778D02*
X258885180Y-94597730D01*
X258885180Y-94597730D02*
X258837561Y-94692968D01*
X258837561Y-94692968D02*
X258789942Y-94740587D01*
X258789942Y-94740587D02*
X258694704Y-94788206D01*
X258694704Y-94788206D02*
X258551847Y-94788206D01*
X258551847Y-94788206D02*
X258456609Y-94740587D01*
X258456609Y-94740587D02*
X258408990Y-94692968D01*
X258408990Y-94692968D02*
X258361371Y-94597730D01*
X258361371Y-94597730D02*
X258361371Y-94216778D01*
X257885180Y-95216778D02*
X258885180Y-95216778D01*
X258885180Y-95883444D02*
X258885180Y-96073920D01*
X258885180Y-96073920D02*
X258837561Y-96169158D01*
X258837561Y-96169158D02*
X258742323Y-96264396D01*
X258742323Y-96264396D02*
X258551847Y-96312015D01*
X258551847Y-96312015D02*
X258218514Y-96312015D01*
X258218514Y-96312015D02*
X258028038Y-96264396D01*
X258028038Y-96264396D02*
X257932800Y-96169158D01*
X257932800Y-96169158D02*
X257885180Y-96073920D01*
X257885180Y-96073920D02*
X257885180Y-95883444D01*
X257885180Y-95883444D02*
X257932800Y-95788206D01*
X257932800Y-95788206D02*
X258028038Y-95692968D01*
X258028038Y-95692968D02*
X258218514Y-95645349D01*
X258218514Y-95645349D02*
X258551847Y-95645349D01*
X258551847Y-95645349D02*
X258742323Y-95692968D01*
X258742323Y-95692968D02*
X258837561Y-95788206D01*
X258837561Y-95788206D02*
X258885180Y-95883444D01*
X258885180Y-97169158D02*
X258885180Y-96978682D01*
X258885180Y-96978682D02*
X258837561Y-96883444D01*
X258837561Y-96883444D02*
X258789942Y-96835825D01*
X258789942Y-96835825D02*
X258647085Y-96740587D01*
X258647085Y-96740587D02*
X258456609Y-96692968D01*
X258456609Y-96692968D02*
X258075657Y-96692968D01*
X258075657Y-96692968D02*
X257980419Y-96740587D01*
X257980419Y-96740587D02*
X257932800Y-96788206D01*
X257932800Y-96788206D02*
X257885180Y-96883444D01*
X257885180Y-96883444D02*
X257885180Y-97073920D01*
X257885180Y-97073920D02*
X257932800Y-97169158D01*
X257932800Y-97169158D02*
X257980419Y-97216777D01*
X257980419Y-97216777D02*
X258075657Y-97264396D01*
X258075657Y-97264396D02*
X258313752Y-97264396D01*
X258313752Y-97264396D02*
X258408990Y-97216777D01*
X258408990Y-97216777D02*
X258456609Y-97169158D01*
X258456609Y-97169158D02*
X258504228Y-97073920D01*
X258504228Y-97073920D02*
X258504228Y-96883444D01*
X258504228Y-96883444D02*
X258456609Y-96788206D01*
X258456609Y-96788206D02*
X258408990Y-96740587D01*
X258408990Y-96740587D02*
X258313752Y-96692968D01*
X274125180Y-92891541D02*
X274125180Y-93510588D01*
X274125180Y-93510588D02*
X273744228Y-93177255D01*
X273744228Y-93177255D02*
X273744228Y-93320112D01*
X273744228Y-93320112D02*
X273696609Y-93415350D01*
X273696609Y-93415350D02*
X273648990Y-93462969D01*
X273648990Y-93462969D02*
X273553752Y-93510588D01*
X273553752Y-93510588D02*
X273315657Y-93510588D01*
X273315657Y-93510588D02*
X273220419Y-93462969D01*
X273220419Y-93462969D02*
X273172800Y-93415350D01*
X273172800Y-93415350D02*
X273125180Y-93320112D01*
X273125180Y-93320112D02*
X273125180Y-93034398D01*
X273125180Y-93034398D02*
X273172800Y-92939160D01*
X273172800Y-92939160D02*
X273220419Y-92891541D01*
X274125180Y-93796303D02*
X273125180Y-94129636D01*
X273125180Y-94129636D02*
X274125180Y-94462969D01*
X274125180Y-94701065D02*
X274125180Y-95320112D01*
X274125180Y-95320112D02*
X273744228Y-94986779D01*
X273744228Y-94986779D02*
X273744228Y-95129636D01*
X273744228Y-95129636D02*
X273696609Y-95224874D01*
X273696609Y-95224874D02*
X273648990Y-95272493D01*
X273648990Y-95272493D02*
X273553752Y-95320112D01*
X273553752Y-95320112D02*
X273315657Y-95320112D01*
X273315657Y-95320112D02*
X273220419Y-95272493D01*
X273220419Y-95272493D02*
X273172800Y-95224874D01*
X273172800Y-95224874D02*
X273125180Y-95129636D01*
X273125180Y-95129636D02*
X273125180Y-94843922D01*
X273125180Y-94843922D02*
X273172800Y-94748684D01*
X273172800Y-94748684D02*
X273220419Y-94701065D01*
X275622438Y-95034398D02*
X275574819Y-95129636D01*
X275574819Y-95129636D02*
X275574819Y-95272493D01*
X275574819Y-95272493D02*
X275622438Y-95415350D01*
X275622438Y-95415350D02*
X275717676Y-95510588D01*
X275717676Y-95510588D02*
X275812914Y-95558207D01*
X275812914Y-95558207D02*
X276003390Y-95605826D01*
X276003390Y-95605826D02*
X276146247Y-95605826D01*
X276146247Y-95605826D02*
X276336723Y-95558207D01*
X276336723Y-95558207D02*
X276431961Y-95510588D01*
X276431961Y-95510588D02*
X276527200Y-95415350D01*
X276527200Y-95415350D02*
X276574819Y-95272493D01*
X276574819Y-95272493D02*
X276574819Y-95177255D01*
X276574819Y-95177255D02*
X276527200Y-95034398D01*
X276527200Y-95034398D02*
X276479580Y-94986779D01*
X276479580Y-94986779D02*
X276146247Y-94986779D01*
X276146247Y-94986779D02*
X276146247Y-95177255D01*
X276574819Y-94558207D02*
X275574819Y-94558207D01*
X275574819Y-94558207D02*
X276574819Y-93986779D01*
X276574819Y-93986779D02*
X275574819Y-93986779D01*
X276574819Y-93510588D02*
X275574819Y-93510588D01*
X275574819Y-93510588D02*
X275574819Y-93272493D01*
X275574819Y-93272493D02*
X275622438Y-93129636D01*
X275622438Y-93129636D02*
X275717676Y-93034398D01*
X275717676Y-93034398D02*
X275812914Y-92986779D01*
X275812914Y-92986779D02*
X276003390Y-92939160D01*
X276003390Y-92939160D02*
X276146247Y-92939160D01*
X276146247Y-92939160D02*
X276336723Y-92986779D01*
X276336723Y-92986779D02*
X276431961Y-93034398D01*
X276431961Y-93034398D02*
X276527200Y-93129636D01*
X276527200Y-93129636D02*
X276574819Y-93272493D01*
X276574819Y-93272493D02*
X276574819Y-93510588D01*
X275665180Y-103068457D02*
X276141371Y-102735124D01*
X275665180Y-102497029D02*
X276665180Y-102497029D01*
X276665180Y-102497029D02*
X276665180Y-102877981D01*
X276665180Y-102877981D02*
X276617561Y-102973219D01*
X276617561Y-102973219D02*
X276569942Y-103020838D01*
X276569942Y-103020838D02*
X276474704Y-103068457D01*
X276474704Y-103068457D02*
X276331847Y-103068457D01*
X276331847Y-103068457D02*
X276236609Y-103020838D01*
X276236609Y-103020838D02*
X276188990Y-102973219D01*
X276188990Y-102973219D02*
X276141371Y-102877981D01*
X276141371Y-102877981D02*
X276141371Y-102497029D01*
X276665180Y-103401791D02*
X275665180Y-104068457D01*
X276665180Y-104068457D02*
X275665180Y-103401791D01*
X266457561Y-99860588D02*
X266505180Y-99765350D01*
X266505180Y-99765350D02*
X266505180Y-99622493D01*
X266505180Y-99622493D02*
X266457561Y-99479636D01*
X266457561Y-99479636D02*
X266362323Y-99384398D01*
X266362323Y-99384398D02*
X266267085Y-99336779D01*
X266267085Y-99336779D02*
X266076609Y-99289160D01*
X266076609Y-99289160D02*
X265933752Y-99289160D01*
X265933752Y-99289160D02*
X265743276Y-99336779D01*
X265743276Y-99336779D02*
X265648038Y-99384398D01*
X265648038Y-99384398D02*
X265552800Y-99479636D01*
X265552800Y-99479636D02*
X265505180Y-99622493D01*
X265505180Y-99622493D02*
X265505180Y-99717731D01*
X265505180Y-99717731D02*
X265552800Y-99860588D01*
X265552800Y-99860588D02*
X265600419Y-99908207D01*
X265600419Y-99908207D02*
X265933752Y-99908207D01*
X265933752Y-99908207D02*
X265933752Y-99717731D01*
X265505180Y-100336779D02*
X266505180Y-100336779D01*
X266505180Y-100336779D02*
X266505180Y-100717731D01*
X266505180Y-100717731D02*
X266457561Y-100812969D01*
X266457561Y-100812969D02*
X266409942Y-100860588D01*
X266409942Y-100860588D02*
X266314704Y-100908207D01*
X266314704Y-100908207D02*
X266171847Y-100908207D01*
X266171847Y-100908207D02*
X266076609Y-100860588D01*
X266076609Y-100860588D02*
X266028990Y-100812969D01*
X266028990Y-100812969D02*
X265981371Y-100717731D01*
X265981371Y-100717731D02*
X265981371Y-100336779D01*
X265505180Y-101336779D02*
X266505180Y-101336779D01*
X266505180Y-102003445D02*
X266505180Y-102193921D01*
X266505180Y-102193921D02*
X266457561Y-102289159D01*
X266457561Y-102289159D02*
X266362323Y-102384397D01*
X266362323Y-102384397D02*
X266171847Y-102432016D01*
X266171847Y-102432016D02*
X265838514Y-102432016D01*
X265838514Y-102432016D02*
X265648038Y-102384397D01*
X265648038Y-102384397D02*
X265552800Y-102289159D01*
X265552800Y-102289159D02*
X265505180Y-102193921D01*
X265505180Y-102193921D02*
X265505180Y-102003445D01*
X265505180Y-102003445D02*
X265552800Y-101908207D01*
X265552800Y-101908207D02*
X265648038Y-101812969D01*
X265648038Y-101812969D02*
X265838514Y-101765350D01*
X265838514Y-101765350D02*
X266171847Y-101765350D01*
X266171847Y-101765350D02*
X266362323Y-101812969D01*
X266362323Y-101812969D02*
X266457561Y-101908207D01*
X266457561Y-101908207D02*
X266505180Y-102003445D01*
X265505180Y-103384397D02*
X265505180Y-102812969D01*
X265505180Y-103098683D02*
X266505180Y-103098683D01*
X266505180Y-103098683D02*
X266362323Y-103003445D01*
X266362323Y-103003445D02*
X266267085Y-102908207D01*
X266267085Y-102908207D02*
X266219466Y-102812969D01*
X266505180Y-104003445D02*
X266505180Y-104098683D01*
X266505180Y-104098683D02*
X266457561Y-104193921D01*
X266457561Y-104193921D02*
X266409942Y-104241540D01*
X266409942Y-104241540D02*
X266314704Y-104289159D01*
X266314704Y-104289159D02*
X266124228Y-104336778D01*
X266124228Y-104336778D02*
X265886133Y-104336778D01*
X265886133Y-104336778D02*
X265695657Y-104289159D01*
X265695657Y-104289159D02*
X265600419Y-104241540D01*
X265600419Y-104241540D02*
X265552800Y-104193921D01*
X265552800Y-104193921D02*
X265505180Y-104098683D01*
X265505180Y-104098683D02*
X265505180Y-104003445D01*
X265505180Y-104003445D02*
X265552800Y-103908207D01*
X265552800Y-103908207D02*
X265600419Y-103860588D01*
X265600419Y-103860588D02*
X265695657Y-103812969D01*
X265695657Y-103812969D02*
X265886133Y-103765350D01*
X265886133Y-103765350D02*
X266124228Y-103765350D01*
X266124228Y-103765350D02*
X266314704Y-103812969D01*
X266314704Y-103812969D02*
X266409942Y-103860588D01*
X266409942Y-103860588D02*
X266457561Y-103908207D01*
X266457561Y-103908207D02*
X266505180Y-104003445D01*
X258837561Y-100860588D02*
X258885180Y-100765350D01*
X258885180Y-100765350D02*
X258885180Y-100622493D01*
X258885180Y-100622493D02*
X258837561Y-100479636D01*
X258837561Y-100479636D02*
X258742323Y-100384398D01*
X258742323Y-100384398D02*
X258647085Y-100336779D01*
X258647085Y-100336779D02*
X258456609Y-100289160D01*
X258456609Y-100289160D02*
X258313752Y-100289160D01*
X258313752Y-100289160D02*
X258123276Y-100336779D01*
X258123276Y-100336779D02*
X258028038Y-100384398D01*
X258028038Y-100384398D02*
X257932800Y-100479636D01*
X257932800Y-100479636D02*
X257885180Y-100622493D01*
X257885180Y-100622493D02*
X257885180Y-100717731D01*
X257885180Y-100717731D02*
X257932800Y-100860588D01*
X257932800Y-100860588D02*
X257980419Y-100908207D01*
X257980419Y-100908207D02*
X258313752Y-100908207D01*
X258313752Y-100908207D02*
X258313752Y-100717731D01*
X257885180Y-101336779D02*
X258885180Y-101336779D01*
X258885180Y-101336779D02*
X258885180Y-101717731D01*
X258885180Y-101717731D02*
X258837561Y-101812969D01*
X258837561Y-101812969D02*
X258789942Y-101860588D01*
X258789942Y-101860588D02*
X258694704Y-101908207D01*
X258694704Y-101908207D02*
X258551847Y-101908207D01*
X258551847Y-101908207D02*
X258456609Y-101860588D01*
X258456609Y-101860588D02*
X258408990Y-101812969D01*
X258408990Y-101812969D02*
X258361371Y-101717731D01*
X258361371Y-101717731D02*
X258361371Y-101336779D01*
X257885180Y-102336779D02*
X258885180Y-102336779D01*
X258885180Y-103003445D02*
X258885180Y-103193921D01*
X258885180Y-103193921D02*
X258837561Y-103289159D01*
X258837561Y-103289159D02*
X258742323Y-103384397D01*
X258742323Y-103384397D02*
X258551847Y-103432016D01*
X258551847Y-103432016D02*
X258218514Y-103432016D01*
X258218514Y-103432016D02*
X258028038Y-103384397D01*
X258028038Y-103384397D02*
X257932800Y-103289159D01*
X257932800Y-103289159D02*
X257885180Y-103193921D01*
X257885180Y-103193921D02*
X257885180Y-103003445D01*
X257885180Y-103003445D02*
X257932800Y-102908207D01*
X257932800Y-102908207D02*
X258028038Y-102812969D01*
X258028038Y-102812969D02*
X258218514Y-102765350D01*
X258218514Y-102765350D02*
X258551847Y-102765350D01*
X258551847Y-102765350D02*
X258742323Y-102812969D01*
X258742323Y-102812969D02*
X258837561Y-102908207D01*
X258837561Y-102908207D02*
X258885180Y-103003445D01*
X258885180Y-103765350D02*
X258885180Y-104432016D01*
X258885180Y-104432016D02*
X257885180Y-104003445D01*
X190074819Y-110595238D02*
X189598628Y-110928571D01*
X190074819Y-111166666D02*
X189074819Y-111166666D01*
X189074819Y-111166666D02*
X189074819Y-110785714D01*
X189074819Y-110785714D02*
X189122438Y-110690476D01*
X189122438Y-110690476D02*
X189170057Y-110642857D01*
X189170057Y-110642857D02*
X189265295Y-110595238D01*
X189265295Y-110595238D02*
X189408152Y-110595238D01*
X189408152Y-110595238D02*
X189503390Y-110642857D01*
X189503390Y-110642857D02*
X189551009Y-110690476D01*
X189551009Y-110690476D02*
X189598628Y-110785714D01*
X189598628Y-110785714D02*
X189598628Y-111166666D01*
X189074819Y-110309523D02*
X190074819Y-109976190D01*
X190074819Y-109976190D02*
X189074819Y-109642857D01*
X190074819Y-108785714D02*
X190074819Y-109357142D01*
X190074819Y-109071428D02*
X189074819Y-109071428D01*
X189074819Y-109071428D02*
X189217676Y-109166666D01*
X189217676Y-109166666D02*
X189312914Y-109261904D01*
X189312914Y-109261904D02*
X189360533Y-109357142D01*
X43473391Y-100781283D02*
X42473391Y-100781283D01*
X42473391Y-100781283D02*
X42473391Y-100543188D01*
X42473391Y-100543188D02*
X42521010Y-100400331D01*
X42521010Y-100400331D02*
X42616248Y-100305093D01*
X42616248Y-100305093D02*
X42711486Y-100257474D01*
X42711486Y-100257474D02*
X42901962Y-100209855D01*
X42901962Y-100209855D02*
X43044819Y-100209855D01*
X43044819Y-100209855D02*
X43235295Y-100257474D01*
X43235295Y-100257474D02*
X43330533Y-100305093D01*
X43330533Y-100305093D02*
X43425772Y-100400331D01*
X43425772Y-100400331D02*
X43473391Y-100543188D01*
X43473391Y-100543188D02*
X43473391Y-100781283D01*
X42473391Y-99590807D02*
X42473391Y-99400331D01*
X42473391Y-99400331D02*
X42521010Y-99305093D01*
X42521010Y-99305093D02*
X42616248Y-99209855D01*
X42616248Y-99209855D02*
X42806724Y-99162236D01*
X42806724Y-99162236D02*
X43140057Y-99162236D01*
X43140057Y-99162236D02*
X43330533Y-99209855D01*
X43330533Y-99209855D02*
X43425772Y-99305093D01*
X43425772Y-99305093D02*
X43473391Y-99400331D01*
X43473391Y-99400331D02*
X43473391Y-99590807D01*
X43473391Y-99590807D02*
X43425772Y-99686045D01*
X43425772Y-99686045D02*
X43330533Y-99781283D01*
X43330533Y-99781283D02*
X43140057Y-99828902D01*
X43140057Y-99828902D02*
X42806724Y-99828902D01*
X42806724Y-99828902D02*
X42616248Y-99781283D01*
X42616248Y-99781283D02*
X42521010Y-99686045D01*
X42521010Y-99686045D02*
X42473391Y-99590807D01*
X42458737Y-102250195D02*
X42411118Y-102345433D01*
X42411118Y-102345433D02*
X42411118Y-102488290D01*
X42411118Y-102488290D02*
X42458737Y-102631147D01*
X42458737Y-102631147D02*
X42553975Y-102726385D01*
X42553975Y-102726385D02*
X42649213Y-102774004D01*
X42649213Y-102774004D02*
X42839689Y-102821623D01*
X42839689Y-102821623D02*
X42982546Y-102821623D01*
X42982546Y-102821623D02*
X43173022Y-102774004D01*
X43173022Y-102774004D02*
X43268260Y-102726385D01*
X43268260Y-102726385D02*
X43363499Y-102631147D01*
X43363499Y-102631147D02*
X43411118Y-102488290D01*
X43411118Y-102488290D02*
X43411118Y-102393052D01*
X43411118Y-102393052D02*
X43363499Y-102250195D01*
X43363499Y-102250195D02*
X43315879Y-102202576D01*
X43315879Y-102202576D02*
X42982546Y-102202576D01*
X42982546Y-102202576D02*
X42982546Y-102393052D01*
X43112378Y-97864122D02*
X43112378Y-97102218D01*
X43493331Y-97483170D02*
X42731426Y-97483170D01*
X276738095Y-108254819D02*
X276738095Y-107254819D01*
X276738095Y-107731009D02*
X277309523Y-107731009D01*
X277309523Y-108254819D02*
X277309523Y-107254819D01*
X277738095Y-107350057D02*
X277785714Y-107302438D01*
X277785714Y-107302438D02*
X277880952Y-107254819D01*
X277880952Y-107254819D02*
X278119047Y-107254819D01*
X278119047Y-107254819D02*
X278214285Y-107302438D01*
X278214285Y-107302438D02*
X278261904Y-107350057D01*
X278261904Y-107350057D02*
X278309523Y-107445295D01*
X278309523Y-107445295D02*
X278309523Y-107540533D01*
X278309523Y-107540533D02*
X278261904Y-107683390D01*
X278261904Y-107683390D02*
X277690476Y-108254819D01*
X277690476Y-108254819D02*
X278309523Y-108254819D01*
D12*
X208000000Y-102500000D02*
X196000000Y-102500000D01*
X208000000Y-102500000D02*
X208000000Y-117500000D01*
X196000000Y-102500000D02*
X196000000Y-117500000D01*
X209000000Y-110000000D02*
G75*
G02*
X195000000Y-110000000I-7000000J0D01*
G01*
X195000000Y-110000000D02*
G75*
G02*
X209000000Y-110000000I7000000J0D01*
G01*
X190880000Y-89940000D02*
X189120000Y-89940000D01*
X189920000Y-93010000D02*
X190720000Y-93010000D01*
X189920000Y-93010000D02*
X189120000Y-93010000D01*
X191460000Y-93290000D02*
X190980000Y-93290000D01*
X191220000Y-92960000D01*
X191460000Y-93290000D01*
G36*
X191460000Y-93290000D02*
G01*
X190980000Y-93290000D01*
X191220000Y-92960000D01*
X191460000Y-93290000D01*
G37*
D11*
X167460000Y-107620000D02*
X168874214Y-109034214D01*
X167460000Y-107620000D02*
X168874214Y-106205786D01*
X172540000Y-107620000D02*
X167460000Y-107620000D01*
D12*
X166500000Y-105000000D02*
X173000000Y-105000000D01*
X173000000Y-105000000D02*
X173000000Y-95000000D01*
X166500000Y-95000000D02*
X166500000Y-105000000D01*
X173000000Y-95000000D02*
X166500000Y-95000000D01*
X241830000Y-88270000D02*
X241830000Y-89600000D01*
X240500000Y-88270000D02*
X241830000Y-88270000D01*
X239230000Y-88270000D02*
X223930000Y-88270000D01*
X239230000Y-88270000D02*
X239230000Y-90930000D01*
X223930000Y-88270000D02*
X223930000Y-90930000D01*
X239230000Y-90930000D02*
X223930000Y-90930000D01*
X280250000Y-90000000D02*
X256750000Y-90000000D01*
X256750000Y-90000000D02*
X256750000Y-108000000D01*
X281200000Y-96460000D02*
X281200000Y-101540000D01*
X280250000Y-96460000D02*
X281200000Y-96460000D01*
X281200000Y-101540000D02*
X280250000Y-101540000D01*
X280250000Y-108000000D02*
X280250000Y-90000000D01*
X256750000Y-108000000D02*
X280250000Y-108000000D01*
X188000000Y-102500000D02*
X176000000Y-102500000D01*
X188000000Y-102500000D02*
X188000000Y-117500000D01*
X176000000Y-102500000D02*
X176000000Y-117500000D01*
X189000000Y-110000000D02*
G75*
G02*
X175000000Y-110000000I-7000000J0D01*
G01*
X175000000Y-110000000D02*
G75*
G02*
X189000000Y-110000000I7000000J0D01*
G01*
D11*
X36460000Y-107620000D02*
X37874214Y-109034214D01*
X36460000Y-107620000D02*
X37874214Y-106205786D01*
X41540000Y-107620000D02*
X36460000Y-107620000D01*
D12*
X35500000Y-105000000D02*
X42000000Y-105000000D01*
X42000000Y-105000000D02*
X42000000Y-95000000D01*
X35500000Y-95000000D02*
X35500000Y-105000000D01*
X42000000Y-95000000D02*
X35500000Y-95000000D01*
%LPC*%
D13*
X185310000Y-92000000D03*
D14*
X177690000Y-92000000D03*
D15*
X198000000Y-102500000D03*
X200000000Y-102500000D03*
X202000000Y-102500000D03*
X204000000Y-102500000D03*
X206000000Y-102500000D03*
D16*
X206850000Y-112500000D03*
X197150000Y-112500000D03*
D17*
X191710000Y-92450000D03*
X191710000Y-91500000D03*
X191710000Y-90550000D03*
X188290000Y-90550000D03*
X188290000Y-92450000D03*
D18*
X169500000Y-103250000D03*
X169500000Y-100000000D03*
X169500000Y-96750000D03*
D19*
X172500000Y-90500000D03*
D20*
X240500000Y-89600000D03*
D21*
X237960000Y-89600000D03*
X235420000Y-89600000D03*
X232880000Y-89600000D03*
X230340000Y-89600000D03*
X227800000Y-89600000D03*
X225260000Y-89600000D03*
D13*
X248500000Y-85880000D03*
D14*
X248500000Y-93500000D03*
D22*
X278660000Y-91380000D03*
X276120000Y-91380000D03*
X273580000Y-91380000D03*
X271040000Y-91380000D03*
X268500000Y-91380000D03*
X265960000Y-91380000D03*
X263420000Y-91380000D03*
X260880000Y-91380000D03*
X258340000Y-91380000D03*
D23*
X258340000Y-106620000D03*
X260880000Y-106620000D03*
X263420000Y-106620000D03*
X265960000Y-106620000D03*
X268500000Y-106620000D03*
X271040000Y-106620000D03*
X273580000Y-106620000D03*
X276120000Y-106620000D03*
X278660000Y-106620000D03*
D24*
X253500000Y-92000000D03*
X253500000Y-87000000D03*
D15*
X178000000Y-102500000D03*
X180000000Y-102500000D03*
X182000000Y-102500000D03*
X184000000Y-102500000D03*
X186000000Y-102500000D03*
D16*
X186850000Y-112500000D03*
X177150000Y-112500000D03*
D13*
X244000000Y-86000000D03*
D14*
X244000000Y-93620000D03*
D18*
X38500000Y-103250000D03*
X38500000Y-100000000D03*
X38500000Y-96750000D03*
D25*
X176500000Y-97044888D03*
D24*
X176500000Y-99044888D03*
D19*
X277500000Y-112000000D03*
D24*
X195500000Y-88000000D03*
X195500000Y-93000000D03*
D19*
X171500000Y-109000000D03*
D26*
X228760000Y-104070000D03*
D27*
X231300000Y-109150000D03*
X224950000Y-106610000D03*
D26*
X209640000Y-104080000D03*
D27*
X207100000Y-99000000D03*
X213450000Y-101540000D03*
D26*
X190540000Y-104080000D03*
D27*
X188000000Y-99000000D03*
X194350000Y-101540000D03*
D26*
X247840000Y-104080000D03*
D27*
X245300000Y-99000000D03*
X251650000Y-101540000D03*
%LPD*%
M02*
