G04 #@! TF.GenerationSoftware,KiCad,Pcbnew,8.0.7*
G04 #@! TF.CreationDate,2025-07-02T14:54:47-04:00*
G04 #@! TF.ProjectId,Sum25_Wand_v2,53756d32-355f-4576-916e-645f76322e6b,rev?*
G04 #@! TF.SameCoordinates,Original*
G04 #@! TF.FileFunction,Legend,Bot*
G04 #@! TF.FilePolarity,Positive*
%FSLAX46Y46*%
G04 Gerber Fmt 4.6, Leading zero omitted, Abs format (unit mm)*
G04 Created by KiCad (PCBNEW 8.0.7) date 2025-07-02 14:54:47*
%MOMM*%
%LPD*%
G01*
G04 APERTURE LIST*
%ADD10C,0.200000*%
%ADD11C,0.300000*%
%ADD12C,0.150000*%
%ADD13C,0.120000*%
%ADD14C,1.400000*%
%ADD15O,1.400000X1.400000*%
%ADD16C,1.800000*%
%ADD17C,2.600000*%
%ADD18C,3.200000*%
%ADD19R,1.700000X1.700000*%
%ADD20O,1.700000X1.700000*%
%ADD21C,1.600000*%
%ADD22R,1.600000X1.600000*%
%ADD23R,6.000000X2.000000*%
%ADD24C,4.000000*%
%ADD25C,2.200000*%
G04 APERTURE END LIST*
D10*
X204853000Y-101000000D02*
X207147000Y-101000000D01*
X207147000Y-103540000D01*
X204853000Y-103540000D01*
X204853000Y-101000000D01*
G36*
X204853000Y-101000000D02*
G01*
X207147000Y-101000000D01*
X207147000Y-103540000D01*
X204853000Y-103540000D01*
X204853000Y-101000000D01*
G37*
X252353000Y-90500000D02*
X254647000Y-90500000D01*
X254647000Y-93040000D01*
X252353000Y-93040000D01*
X252353000Y-90500000D01*
G36*
X252353000Y-90500000D02*
G01*
X254647000Y-90500000D01*
X254647000Y-93040000D01*
X252353000Y-93040000D01*
X252353000Y-90500000D01*
G37*
X194353000Y-92000000D02*
X196647000Y-92000000D01*
X196647000Y-94540000D01*
X194353000Y-94540000D01*
X194353000Y-92000000D01*
G36*
X194353000Y-92000000D02*
G01*
X196647000Y-92000000D01*
X196647000Y-94540000D01*
X194353000Y-94540000D01*
X194353000Y-92000000D01*
G37*
X175500000Y-111000000D02*
X179000000Y-111000000D01*
X179000000Y-114000000D01*
X175500000Y-114000000D01*
X175500000Y-111000000D01*
G36*
X175500000Y-111000000D02*
G01*
X179000000Y-111000000D01*
X179000000Y-114000000D01*
X175500000Y-114000000D01*
X175500000Y-111000000D01*
G37*
X185000000Y-111000000D02*
X188500000Y-111000000D01*
X188500000Y-114000000D01*
X185000000Y-114000000D01*
X185000000Y-111000000D01*
G36*
X185000000Y-111000000D02*
G01*
X188500000Y-111000000D01*
X188500000Y-114000000D01*
X185000000Y-114000000D01*
X185000000Y-111000000D01*
G37*
X195500000Y-111000000D02*
X199000000Y-111000000D01*
X199000000Y-114000000D01*
X195500000Y-114000000D01*
X195500000Y-111000000D01*
G36*
X195500000Y-111000000D02*
G01*
X199000000Y-111000000D01*
X199000000Y-114000000D01*
X195500000Y-114000000D01*
X195500000Y-111000000D01*
G37*
X205000000Y-111000000D02*
X208500000Y-111000000D01*
X208500000Y-114000000D01*
X205000000Y-114000000D01*
X205000000Y-111000000D01*
G36*
X205000000Y-111000000D02*
G01*
X208500000Y-111000000D01*
X208500000Y-114000000D01*
X205000000Y-114000000D01*
X205000000Y-111000000D01*
G37*
X243500000Y-97500000D02*
X247000000Y-97500000D01*
X247000000Y-100500000D01*
X243500000Y-100500000D01*
X243500000Y-97500000D01*
G36*
X243500000Y-97500000D02*
G01*
X247000000Y-97500000D01*
X247000000Y-100500000D01*
X243500000Y-100500000D01*
X243500000Y-97500000D01*
G37*
X229500000Y-107500000D02*
X233000000Y-107500000D01*
X233000000Y-110500000D01*
X229500000Y-110500000D01*
X229500000Y-107500000D01*
G36*
X229500000Y-107500000D02*
G01*
X233000000Y-107500000D01*
X233000000Y-110500000D01*
X229500000Y-110500000D01*
X229500000Y-107500000D01*
G37*
X205500000Y-97500000D02*
X209000000Y-97500000D01*
X209000000Y-100500000D01*
X205500000Y-100500000D01*
X205500000Y-97500000D01*
G36*
X205500000Y-97500000D02*
G01*
X209000000Y-97500000D01*
X209000000Y-100500000D01*
X205500000Y-100500000D01*
X205500000Y-97500000D01*
G37*
D11*
X178659774Y-94800828D02*
X179516917Y-94800828D01*
X179088346Y-94800828D02*
X179088346Y-93300828D01*
X179088346Y-93300828D02*
X179231203Y-93515114D01*
X179231203Y-93515114D02*
X179374060Y-93657971D01*
X179374060Y-93657971D02*
X179516917Y-93729400D01*
X177731203Y-93300828D02*
X177588346Y-93300828D01*
X177588346Y-93300828D02*
X177445489Y-93372257D01*
X177445489Y-93372257D02*
X177374061Y-93443685D01*
X177374061Y-93443685D02*
X177302632Y-93586542D01*
X177302632Y-93586542D02*
X177231203Y-93872257D01*
X177231203Y-93872257D02*
X177231203Y-94229400D01*
X177231203Y-94229400D02*
X177302632Y-94515114D01*
X177302632Y-94515114D02*
X177374061Y-94657971D01*
X177374061Y-94657971D02*
X177445489Y-94729400D01*
X177445489Y-94729400D02*
X177588346Y-94800828D01*
X177588346Y-94800828D02*
X177731203Y-94800828D01*
X177731203Y-94800828D02*
X177874061Y-94729400D01*
X177874061Y-94729400D02*
X177945489Y-94657971D01*
X177945489Y-94657971D02*
X178016918Y-94515114D01*
X178016918Y-94515114D02*
X178088346Y-94229400D01*
X178088346Y-94229400D02*
X178088346Y-93872257D01*
X178088346Y-93872257D02*
X178016918Y-93586542D01*
X178016918Y-93586542D02*
X177945489Y-93443685D01*
X177945489Y-93443685D02*
X177874061Y-93372257D01*
X177874061Y-93372257D02*
X177731203Y-93300828D01*
X176302632Y-93300828D02*
X176159775Y-93300828D01*
X176159775Y-93300828D02*
X176016918Y-93372257D01*
X176016918Y-93372257D02*
X175945490Y-93443685D01*
X175945490Y-93443685D02*
X175874061Y-93586542D01*
X175874061Y-93586542D02*
X175802632Y-93872257D01*
X175802632Y-93872257D02*
X175802632Y-94229400D01*
X175802632Y-94229400D02*
X175874061Y-94515114D01*
X175874061Y-94515114D02*
X175945490Y-94657971D01*
X175945490Y-94657971D02*
X176016918Y-94729400D01*
X176016918Y-94729400D02*
X176159775Y-94800828D01*
X176159775Y-94800828D02*
X176302632Y-94800828D01*
X176302632Y-94800828D02*
X176445490Y-94729400D01*
X176445490Y-94729400D02*
X176516918Y-94657971D01*
X176516918Y-94657971D02*
X176588347Y-94515114D01*
X176588347Y-94515114D02*
X176659775Y-94229400D01*
X176659775Y-94229400D02*
X176659775Y-93872257D01*
X176659775Y-93872257D02*
X176588347Y-93586542D01*
X176588347Y-93586542D02*
X176516918Y-93443685D01*
X176516918Y-93443685D02*
X176445490Y-93372257D01*
X176445490Y-93372257D02*
X176302632Y-93300828D01*
X174516919Y-93800828D02*
X174516919Y-94800828D01*
X175159776Y-93800828D02*
X175159776Y-94586542D01*
X175159776Y-94586542D02*
X175088347Y-94729400D01*
X175088347Y-94729400D02*
X174945490Y-94800828D01*
X174945490Y-94800828D02*
X174731204Y-94800828D01*
X174731204Y-94800828D02*
X174588347Y-94729400D01*
X174588347Y-94729400D02*
X174516919Y-94657971D01*
X173302633Y-94015114D02*
X173802633Y-94015114D01*
X173802633Y-94800828D02*
X173802633Y-93300828D01*
X173802633Y-93300828D02*
X173088347Y-93300828D01*
X242016917Y-85943685D02*
X241945489Y-85872257D01*
X241945489Y-85872257D02*
X241802632Y-85800828D01*
X241802632Y-85800828D02*
X241445489Y-85800828D01*
X241445489Y-85800828D02*
X241302632Y-85872257D01*
X241302632Y-85872257D02*
X241231203Y-85943685D01*
X241231203Y-85943685D02*
X241159774Y-86086542D01*
X241159774Y-86086542D02*
X241159774Y-86229400D01*
X241159774Y-86229400D02*
X241231203Y-86443685D01*
X241231203Y-86443685D02*
X242088346Y-87300828D01*
X242088346Y-87300828D02*
X241159774Y-87300828D01*
X240516918Y-87157971D02*
X240445489Y-87229400D01*
X240445489Y-87229400D02*
X240516918Y-87300828D01*
X240516918Y-87300828D02*
X240588346Y-87229400D01*
X240588346Y-87229400D02*
X240516918Y-87157971D01*
X240516918Y-87157971D02*
X240516918Y-87300828D01*
X239874060Y-85943685D02*
X239802632Y-85872257D01*
X239802632Y-85872257D02*
X239659775Y-85800828D01*
X239659775Y-85800828D02*
X239302632Y-85800828D01*
X239302632Y-85800828D02*
X239159775Y-85872257D01*
X239159775Y-85872257D02*
X239088346Y-85943685D01*
X239088346Y-85943685D02*
X239016917Y-86086542D01*
X239016917Y-86086542D02*
X239016917Y-86229400D01*
X239016917Y-86229400D02*
X239088346Y-86443685D01*
X239088346Y-86443685D02*
X239945489Y-87300828D01*
X239945489Y-87300828D02*
X239016917Y-87300828D01*
X238374061Y-87300828D02*
X238374061Y-85800828D01*
X238231204Y-86729400D02*
X237802632Y-87300828D01*
X237802632Y-86300828D02*
X238374061Y-86872257D01*
X245443685Y-87483082D02*
X245372257Y-87554510D01*
X245372257Y-87554510D02*
X245300828Y-87697368D01*
X245300828Y-87697368D02*
X245300828Y-88054510D01*
X245300828Y-88054510D02*
X245372257Y-88197368D01*
X245372257Y-88197368D02*
X245443685Y-88268796D01*
X245443685Y-88268796D02*
X245586542Y-88340225D01*
X245586542Y-88340225D02*
X245729400Y-88340225D01*
X245729400Y-88340225D02*
X245943685Y-88268796D01*
X245943685Y-88268796D02*
X246800828Y-87411653D01*
X246800828Y-87411653D02*
X246800828Y-88340225D01*
X246657971Y-88983081D02*
X246729400Y-89054510D01*
X246729400Y-89054510D02*
X246800828Y-88983081D01*
X246800828Y-88983081D02*
X246729400Y-88911653D01*
X246729400Y-88911653D02*
X246657971Y-88983081D01*
X246657971Y-88983081D02*
X246800828Y-88983081D01*
X245443685Y-89625939D02*
X245372257Y-89697367D01*
X245372257Y-89697367D02*
X245300828Y-89840225D01*
X245300828Y-89840225D02*
X245300828Y-90197367D01*
X245300828Y-90197367D02*
X245372257Y-90340225D01*
X245372257Y-90340225D02*
X245443685Y-90411653D01*
X245443685Y-90411653D02*
X245586542Y-90483082D01*
X245586542Y-90483082D02*
X245729400Y-90483082D01*
X245729400Y-90483082D02*
X245943685Y-90411653D01*
X245943685Y-90411653D02*
X246800828Y-89554510D01*
X246800828Y-89554510D02*
X246800828Y-90483082D01*
X246800828Y-91125938D02*
X245300828Y-91125938D01*
X246229400Y-91268796D02*
X246800828Y-91697367D01*
X245800828Y-91697367D02*
X246372257Y-91125938D01*
X249800828Y-86840225D02*
X249800828Y-86983082D01*
X249800828Y-86983082D02*
X249872257Y-87125939D01*
X249872257Y-87125939D02*
X249943685Y-87197368D01*
X249943685Y-87197368D02*
X250086542Y-87268796D01*
X250086542Y-87268796D02*
X250372257Y-87340225D01*
X250372257Y-87340225D02*
X250729400Y-87340225D01*
X250729400Y-87340225D02*
X251015114Y-87268796D01*
X251015114Y-87268796D02*
X251157971Y-87197368D01*
X251157971Y-87197368D02*
X251229400Y-87125939D01*
X251229400Y-87125939D02*
X251300828Y-86983082D01*
X251300828Y-86983082D02*
X251300828Y-86840225D01*
X251300828Y-86840225D02*
X251229400Y-86697368D01*
X251229400Y-86697368D02*
X251157971Y-86625939D01*
X251157971Y-86625939D02*
X251015114Y-86554510D01*
X251015114Y-86554510D02*
X250729400Y-86483082D01*
X250729400Y-86483082D02*
X250372257Y-86483082D01*
X250372257Y-86483082D02*
X250086542Y-86554510D01*
X250086542Y-86554510D02*
X249943685Y-86625939D01*
X249943685Y-86625939D02*
X249872257Y-86697368D01*
X249872257Y-86697368D02*
X249800828Y-86840225D01*
X251157971Y-87983081D02*
X251229400Y-88054510D01*
X251229400Y-88054510D02*
X251300828Y-87983081D01*
X251300828Y-87983081D02*
X251229400Y-87911653D01*
X251229400Y-87911653D02*
X251157971Y-87983081D01*
X251157971Y-87983081D02*
X251300828Y-87983081D01*
X251300828Y-89483082D02*
X251300828Y-88625939D01*
X251300828Y-89054510D02*
X249800828Y-89054510D01*
X249800828Y-89054510D02*
X250015114Y-88911653D01*
X250015114Y-88911653D02*
X250157971Y-88768796D01*
X250157971Y-88768796D02*
X250229400Y-88625939D01*
X250300828Y-90768796D02*
X251300828Y-90768796D01*
X250300828Y-90125938D02*
X251086542Y-90125938D01*
X251086542Y-90125938D02*
X251229400Y-90197367D01*
X251229400Y-90197367D02*
X251300828Y-90340224D01*
X251300828Y-90340224D02*
X251300828Y-90554510D01*
X251300828Y-90554510D02*
X251229400Y-90697367D01*
X251229400Y-90697367D02*
X251157971Y-90768796D01*
X250515114Y-91983081D02*
X250515114Y-91483081D01*
X251300828Y-91483081D02*
X249800828Y-91483081D01*
X249800828Y-91483081D02*
X249800828Y-92197367D01*
X197800828Y-88340225D02*
X197800828Y-88483082D01*
X197800828Y-88483082D02*
X197872257Y-88625939D01*
X197872257Y-88625939D02*
X197943685Y-88697368D01*
X197943685Y-88697368D02*
X198086542Y-88768796D01*
X198086542Y-88768796D02*
X198372257Y-88840225D01*
X198372257Y-88840225D02*
X198729400Y-88840225D01*
X198729400Y-88840225D02*
X199015114Y-88768796D01*
X199015114Y-88768796D02*
X199157971Y-88697368D01*
X199157971Y-88697368D02*
X199229400Y-88625939D01*
X199229400Y-88625939D02*
X199300828Y-88483082D01*
X199300828Y-88483082D02*
X199300828Y-88340225D01*
X199300828Y-88340225D02*
X199229400Y-88197368D01*
X199229400Y-88197368D02*
X199157971Y-88125939D01*
X199157971Y-88125939D02*
X199015114Y-88054510D01*
X199015114Y-88054510D02*
X198729400Y-87983082D01*
X198729400Y-87983082D02*
X198372257Y-87983082D01*
X198372257Y-87983082D02*
X198086542Y-88054510D01*
X198086542Y-88054510D02*
X197943685Y-88125939D01*
X197943685Y-88125939D02*
X197872257Y-88197368D01*
X197872257Y-88197368D02*
X197800828Y-88340225D01*
X199157971Y-89483081D02*
X199229400Y-89554510D01*
X199229400Y-89554510D02*
X199300828Y-89483081D01*
X199300828Y-89483081D02*
X199229400Y-89411653D01*
X199229400Y-89411653D02*
X199157971Y-89483081D01*
X199157971Y-89483081D02*
X199300828Y-89483081D01*
X199300828Y-90983082D02*
X199300828Y-90125939D01*
X199300828Y-90554510D02*
X197800828Y-90554510D01*
X197800828Y-90554510D02*
X198015114Y-90411653D01*
X198015114Y-90411653D02*
X198157971Y-90268796D01*
X198157971Y-90268796D02*
X198229400Y-90125939D01*
X198300828Y-92268796D02*
X199300828Y-92268796D01*
X198300828Y-91625938D02*
X199086542Y-91625938D01*
X199086542Y-91625938D02*
X199229400Y-91697367D01*
X199229400Y-91697367D02*
X199300828Y-91840224D01*
X199300828Y-91840224D02*
X199300828Y-92054510D01*
X199300828Y-92054510D02*
X199229400Y-92197367D01*
X199229400Y-92197367D02*
X199157971Y-92268796D01*
X198515114Y-93483081D02*
X198515114Y-92983081D01*
X199300828Y-92983081D02*
X197800828Y-92983081D01*
X197800828Y-92983081D02*
X197800828Y-93697367D01*
X183516917Y-88943685D02*
X183445489Y-88872257D01*
X183445489Y-88872257D02*
X183302632Y-88800828D01*
X183302632Y-88800828D02*
X182945489Y-88800828D01*
X182945489Y-88800828D02*
X182802632Y-88872257D01*
X182802632Y-88872257D02*
X182731203Y-88943685D01*
X182731203Y-88943685D02*
X182659774Y-89086542D01*
X182659774Y-89086542D02*
X182659774Y-89229400D01*
X182659774Y-89229400D02*
X182731203Y-89443685D01*
X182731203Y-89443685D02*
X183588346Y-90300828D01*
X183588346Y-90300828D02*
X182659774Y-90300828D01*
X182088346Y-88943685D02*
X182016918Y-88872257D01*
X182016918Y-88872257D02*
X181874061Y-88800828D01*
X181874061Y-88800828D02*
X181516918Y-88800828D01*
X181516918Y-88800828D02*
X181374061Y-88872257D01*
X181374061Y-88872257D02*
X181302632Y-88943685D01*
X181302632Y-88943685D02*
X181231203Y-89086542D01*
X181231203Y-89086542D02*
X181231203Y-89229400D01*
X181231203Y-89229400D02*
X181302632Y-89443685D01*
X181302632Y-89443685D02*
X182159775Y-90300828D01*
X182159775Y-90300828D02*
X181231203Y-90300828D01*
X180302632Y-88800828D02*
X180159775Y-88800828D01*
X180159775Y-88800828D02*
X180016918Y-88872257D01*
X180016918Y-88872257D02*
X179945490Y-88943685D01*
X179945490Y-88943685D02*
X179874061Y-89086542D01*
X179874061Y-89086542D02*
X179802632Y-89372257D01*
X179802632Y-89372257D02*
X179802632Y-89729400D01*
X179802632Y-89729400D02*
X179874061Y-90015114D01*
X179874061Y-90015114D02*
X179945490Y-90157971D01*
X179945490Y-90157971D02*
X180016918Y-90229400D01*
X180016918Y-90229400D02*
X180159775Y-90300828D01*
X180159775Y-90300828D02*
X180302632Y-90300828D01*
X180302632Y-90300828D02*
X180445490Y-90229400D01*
X180445490Y-90229400D02*
X180516918Y-90157971D01*
X180516918Y-90157971D02*
X180588347Y-90015114D01*
X180588347Y-90015114D02*
X180659775Y-89729400D01*
X180659775Y-89729400D02*
X180659775Y-89372257D01*
X180659775Y-89372257D02*
X180588347Y-89086542D01*
X180588347Y-89086542D02*
X180516918Y-88943685D01*
X180516918Y-88943685D02*
X180445490Y-88872257D01*
X180445490Y-88872257D02*
X180302632Y-88800828D01*
X178302633Y-90300828D02*
X178802633Y-89586542D01*
X179159776Y-90300828D02*
X179159776Y-88800828D01*
X179159776Y-88800828D02*
X178588347Y-88800828D01*
X178588347Y-88800828D02*
X178445490Y-88872257D01*
X178445490Y-88872257D02*
X178374061Y-88943685D01*
X178374061Y-88943685D02*
X178302633Y-89086542D01*
X178302633Y-89086542D02*
X178302633Y-89300828D01*
X178302633Y-89300828D02*
X178374061Y-89443685D01*
X178374061Y-89443685D02*
X178445490Y-89515114D01*
X178445490Y-89515114D02*
X178588347Y-89586542D01*
X178588347Y-89586542D02*
X179159776Y-89586542D01*
D10*
X184853000Y-101000000D02*
X187147000Y-101000000D01*
X187147000Y-103540000D01*
X184853000Y-103540000D01*
X184853000Y-101000000D01*
G36*
X184853000Y-101000000D02*
G01*
X187147000Y-101000000D01*
X187147000Y-103540000D01*
X184853000Y-103540000D01*
X184853000Y-101000000D01*
G37*
X218353000Y-77000000D02*
X220647000Y-77000000D01*
X220647000Y-79540000D01*
X218353000Y-79540000D01*
X218353000Y-77000000D01*
G36*
X218353000Y-77000000D02*
G01*
X220647000Y-77000000D01*
X220647000Y-79540000D01*
X218353000Y-79540000D01*
X218353000Y-77000000D01*
G37*
X186853000Y-97460000D02*
X189147000Y-97460000D01*
X189147000Y-100000000D01*
X186853000Y-100000000D01*
X186853000Y-97460000D01*
G36*
X186853000Y-97460000D02*
G01*
X189147000Y-97460000D01*
X189147000Y-100000000D01*
X186853000Y-100000000D01*
X186853000Y-97460000D01*
G37*
D11*
X276326441Y-88019750D02*
X276326441Y-86019750D01*
X274516917Y-88019750D02*
X274516917Y-86972131D01*
X274516917Y-86972131D02*
X274612155Y-86781654D01*
X274612155Y-86781654D02*
X274802631Y-86686416D01*
X274802631Y-86686416D02*
X275183584Y-86686416D01*
X275183584Y-86686416D02*
X275374060Y-86781654D01*
X274516917Y-87924512D02*
X274707393Y-88019750D01*
X274707393Y-88019750D02*
X275183584Y-88019750D01*
X275183584Y-88019750D02*
X275374060Y-87924512D01*
X275374060Y-87924512D02*
X275469298Y-87734035D01*
X275469298Y-87734035D02*
X275469298Y-87543559D01*
X275469298Y-87543559D02*
X275374060Y-87353083D01*
X275374060Y-87353083D02*
X275183584Y-87257845D01*
X275183584Y-87257845D02*
X274707393Y-87257845D01*
X274707393Y-87257845D02*
X274516917Y-87162607D01*
X273564536Y-86686416D02*
X273564536Y-88019750D01*
X273564536Y-86876892D02*
X273469298Y-86781654D01*
X273469298Y-86781654D02*
X273278822Y-86686416D01*
X273278822Y-86686416D02*
X272993107Y-86686416D01*
X272993107Y-86686416D02*
X272802631Y-86781654D01*
X272802631Y-86781654D02*
X272707393Y-86972131D01*
X272707393Y-86972131D02*
X272707393Y-88019750D01*
X270231202Y-88019750D02*
X270231202Y-86019750D01*
X270231202Y-86972131D02*
X269088345Y-86972131D01*
X269088345Y-88019750D02*
X269088345Y-86019750D01*
X267278821Y-88019750D02*
X267278821Y-86972131D01*
X267278821Y-86972131D02*
X267374059Y-86781654D01*
X267374059Y-86781654D02*
X267564535Y-86686416D01*
X267564535Y-86686416D02*
X267945488Y-86686416D01*
X267945488Y-86686416D02*
X268135964Y-86781654D01*
X267278821Y-87924512D02*
X267469297Y-88019750D01*
X267469297Y-88019750D02*
X267945488Y-88019750D01*
X267945488Y-88019750D02*
X268135964Y-87924512D01*
X268135964Y-87924512D02*
X268231202Y-87734035D01*
X268231202Y-87734035D02*
X268231202Y-87543559D01*
X268231202Y-87543559D02*
X268135964Y-87353083D01*
X268135964Y-87353083D02*
X267945488Y-87257845D01*
X267945488Y-87257845D02*
X267469297Y-87257845D01*
X267469297Y-87257845D02*
X267278821Y-87162607D01*
X266612154Y-86686416D02*
X265850250Y-86686416D01*
X266326440Y-86019750D02*
X266326440Y-87734035D01*
X266326440Y-87734035D02*
X266231202Y-87924512D01*
X266231202Y-87924512D02*
X266040726Y-88019750D01*
X266040726Y-88019750D02*
X265850250Y-88019750D01*
X265469297Y-86686416D02*
X264707393Y-86686416D01*
X265183583Y-86019750D02*
X265183583Y-87734035D01*
X265183583Y-87734035D02*
X265088345Y-87924512D01*
X265088345Y-87924512D02*
X264897869Y-88019750D01*
X264897869Y-88019750D02*
X264707393Y-88019750D01*
X264231202Y-86686416D02*
X263850250Y-88019750D01*
X263850250Y-88019750D02*
X263469297Y-87067369D01*
X263469297Y-87067369D02*
X263088345Y-88019750D01*
X263088345Y-88019750D02*
X262707393Y-86686416D01*
X261945488Y-88019750D02*
X261945488Y-86686416D01*
X261945488Y-86019750D02*
X262040726Y-86114988D01*
X262040726Y-86114988D02*
X261945488Y-86210226D01*
X261945488Y-86210226D02*
X261850250Y-86114988D01*
X261850250Y-86114988D02*
X261945488Y-86019750D01*
X261945488Y-86019750D02*
X261945488Y-86210226D01*
X260135964Y-87924512D02*
X260326440Y-88019750D01*
X260326440Y-88019750D02*
X260707393Y-88019750D01*
X260707393Y-88019750D02*
X260897869Y-87924512D01*
X260897869Y-87924512D02*
X260993107Y-87829273D01*
X260993107Y-87829273D02*
X261088345Y-87638797D01*
X261088345Y-87638797D02*
X261088345Y-87067369D01*
X261088345Y-87067369D02*
X260993107Y-86876892D01*
X260993107Y-86876892D02*
X260897869Y-86781654D01*
X260897869Y-86781654D02*
X260707393Y-86686416D01*
X260707393Y-86686416D02*
X260326440Y-86686416D01*
X260326440Y-86686416D02*
X260135964Y-86781654D01*
X259278821Y-88019750D02*
X259278821Y-86019750D01*
X259088345Y-87257845D02*
X258516916Y-88019750D01*
X258516916Y-86686416D02*
X259278821Y-87448321D01*
X275755012Y-89239638D02*
X275755012Y-90668209D01*
X275755012Y-90668209D02*
X275850251Y-90953923D01*
X275850251Y-90953923D02*
X276040727Y-91144400D01*
X276040727Y-91144400D02*
X276326441Y-91239638D01*
X276326441Y-91239638D02*
X276516917Y-91239638D01*
X273945488Y-89906304D02*
X273945488Y-91239638D01*
X274802631Y-89906304D02*
X274802631Y-90953923D01*
X274802631Y-90953923D02*
X274707393Y-91144400D01*
X274707393Y-91144400D02*
X274516917Y-91239638D01*
X274516917Y-91239638D02*
X274231202Y-91239638D01*
X274231202Y-91239638D02*
X274040726Y-91144400D01*
X274040726Y-91144400D02*
X273945488Y-91049161D01*
X272993107Y-89906304D02*
X272993107Y-91239638D01*
X272993107Y-90096780D02*
X272897869Y-90001542D01*
X272897869Y-90001542D02*
X272707393Y-89906304D01*
X272707393Y-89906304D02*
X272421678Y-89906304D01*
X272421678Y-89906304D02*
X272231202Y-90001542D01*
X272231202Y-90001542D02*
X272135964Y-90192019D01*
X272135964Y-90192019D02*
X272135964Y-91239638D01*
X269564535Y-89239638D02*
X269755011Y-89620590D01*
X268802630Y-89430114D02*
X268707392Y-89334876D01*
X268707392Y-89334876D02*
X268516916Y-89239638D01*
X268516916Y-89239638D02*
X268040725Y-89239638D01*
X268040725Y-89239638D02*
X267850249Y-89334876D01*
X267850249Y-89334876D02*
X267755011Y-89430114D01*
X267755011Y-89430114D02*
X267659773Y-89620590D01*
X267659773Y-89620590D02*
X267659773Y-89811066D01*
X267659773Y-89811066D02*
X267755011Y-90096780D01*
X267755011Y-90096780D02*
X268897868Y-91239638D01*
X268897868Y-91239638D02*
X267659773Y-91239638D01*
X265850249Y-89239638D02*
X266802630Y-89239638D01*
X266802630Y-89239638D02*
X266897868Y-90192019D01*
X266897868Y-90192019D02*
X266802630Y-90096780D01*
X266802630Y-90096780D02*
X266612154Y-90001542D01*
X266612154Y-90001542D02*
X266135963Y-90001542D01*
X266135963Y-90001542D02*
X265945487Y-90096780D01*
X265945487Y-90096780D02*
X265850249Y-90192019D01*
X265850249Y-90192019D02*
X265755011Y-90382495D01*
X265755011Y-90382495D02*
X265755011Y-90858685D01*
X265755011Y-90858685D02*
X265850249Y-91049161D01*
X265850249Y-91049161D02*
X265945487Y-91144400D01*
X265945487Y-91144400D02*
X266135963Y-91239638D01*
X266135963Y-91239638D02*
X266612154Y-91239638D01*
X266612154Y-91239638D02*
X266802630Y-91144400D01*
X266802630Y-91144400D02*
X266897868Y-91049161D01*
X232421679Y-92144400D02*
X232135965Y-92239638D01*
X232135965Y-92239638D02*
X231659774Y-92239638D01*
X231659774Y-92239638D02*
X231469298Y-92144400D01*
X231469298Y-92144400D02*
X231374060Y-92049161D01*
X231374060Y-92049161D02*
X231278822Y-91858685D01*
X231278822Y-91858685D02*
X231278822Y-91668209D01*
X231278822Y-91668209D02*
X231374060Y-91477733D01*
X231374060Y-91477733D02*
X231469298Y-91382495D01*
X231469298Y-91382495D02*
X231659774Y-91287257D01*
X231659774Y-91287257D02*
X232040727Y-91192019D01*
X232040727Y-91192019D02*
X232231203Y-91096780D01*
X232231203Y-91096780D02*
X232326441Y-91001542D01*
X232326441Y-91001542D02*
X232421679Y-90811066D01*
X232421679Y-90811066D02*
X232421679Y-90620590D01*
X232421679Y-90620590D02*
X232326441Y-90430114D01*
X232326441Y-90430114D02*
X232231203Y-90334876D01*
X232231203Y-90334876D02*
X232040727Y-90239638D01*
X232040727Y-90239638D02*
X231564536Y-90239638D01*
X231564536Y-90239638D02*
X231278822Y-90334876D01*
X230135965Y-92239638D02*
X230326441Y-92144400D01*
X230326441Y-92144400D02*
X230421679Y-92049161D01*
X230421679Y-92049161D02*
X230516917Y-91858685D01*
X230516917Y-91858685D02*
X230516917Y-91287257D01*
X230516917Y-91287257D02*
X230421679Y-91096780D01*
X230421679Y-91096780D02*
X230326441Y-91001542D01*
X230326441Y-91001542D02*
X230135965Y-90906304D01*
X230135965Y-90906304D02*
X229850250Y-90906304D01*
X229850250Y-90906304D02*
X229659774Y-91001542D01*
X229659774Y-91001542D02*
X229564536Y-91096780D01*
X229564536Y-91096780D02*
X229469298Y-91287257D01*
X229469298Y-91287257D02*
X229469298Y-91858685D01*
X229469298Y-91858685D02*
X229564536Y-92049161D01*
X229564536Y-92049161D02*
X229659774Y-92144400D01*
X229659774Y-92144400D02*
X229850250Y-92239638D01*
X229850250Y-92239638D02*
X230135965Y-92239638D01*
X228612155Y-92239638D02*
X228612155Y-90906304D01*
X228612155Y-91096780D02*
X228516917Y-91001542D01*
X228516917Y-91001542D02*
X228326441Y-90906304D01*
X228326441Y-90906304D02*
X228040726Y-90906304D01*
X228040726Y-90906304D02*
X227850250Y-91001542D01*
X227850250Y-91001542D02*
X227755012Y-91192019D01*
X227755012Y-91192019D02*
X227755012Y-92239638D01*
X227755012Y-91192019D02*
X227659774Y-91001542D01*
X227659774Y-91001542D02*
X227469298Y-90906304D01*
X227469298Y-90906304D02*
X227183584Y-90906304D01*
X227183584Y-90906304D02*
X226993107Y-91001542D01*
X226993107Y-91001542D02*
X226897869Y-91192019D01*
X226897869Y-91192019D02*
X226897869Y-92239638D01*
X225183583Y-92144400D02*
X225374059Y-92239638D01*
X225374059Y-92239638D02*
X225755012Y-92239638D01*
X225755012Y-92239638D02*
X225945488Y-92144400D01*
X225945488Y-92144400D02*
X226040726Y-91953923D01*
X226040726Y-91953923D02*
X226040726Y-91192019D01*
X226040726Y-91192019D02*
X225945488Y-91001542D01*
X225945488Y-91001542D02*
X225755012Y-90906304D01*
X225755012Y-90906304D02*
X225374059Y-90906304D01*
X225374059Y-90906304D02*
X225183583Y-91001542D01*
X225183583Y-91001542D02*
X225088345Y-91192019D01*
X225088345Y-91192019D02*
X225088345Y-91382495D01*
X225088345Y-91382495D02*
X226040726Y-91572971D01*
X224231202Y-92239638D02*
X224231202Y-90906304D01*
X224231202Y-91287257D02*
X224135964Y-91096780D01*
X224135964Y-91096780D02*
X224040726Y-91001542D01*
X224040726Y-91001542D02*
X223850250Y-90906304D01*
X223850250Y-90906304D02*
X223659773Y-90906304D01*
X223183583Y-90906304D02*
X222707393Y-92239638D01*
X222707393Y-92239638D02*
X222231202Y-90906304D01*
X221469297Y-92239638D02*
X221469297Y-90906304D01*
X221469297Y-90239638D02*
X221564535Y-90334876D01*
X221564535Y-90334876D02*
X221469297Y-90430114D01*
X221469297Y-90430114D02*
X221374059Y-90334876D01*
X221374059Y-90334876D02*
X221469297Y-90239638D01*
X221469297Y-90239638D02*
X221469297Y-90430114D01*
X220231202Y-92239638D02*
X220421678Y-92144400D01*
X220421678Y-92144400D02*
X220516916Y-91953923D01*
X220516916Y-91953923D02*
X220516916Y-90239638D01*
X219183583Y-92239638D02*
X219374059Y-92144400D01*
X219374059Y-92144400D02*
X219469297Y-91953923D01*
X219469297Y-91953923D02*
X219469297Y-90239638D01*
X217659773Y-92144400D02*
X217850249Y-92239638D01*
X217850249Y-92239638D02*
X218231202Y-92239638D01*
X218231202Y-92239638D02*
X218421678Y-92144400D01*
X218421678Y-92144400D02*
X218516916Y-91953923D01*
X218516916Y-91953923D02*
X218516916Y-91192019D01*
X218516916Y-91192019D02*
X218421678Y-91001542D01*
X218421678Y-91001542D02*
X218231202Y-90906304D01*
X218231202Y-90906304D02*
X217850249Y-90906304D01*
X217850249Y-90906304D02*
X217659773Y-91001542D01*
X217659773Y-91001542D02*
X217564535Y-91192019D01*
X217564535Y-91192019D02*
X217564535Y-91382495D01*
X217564535Y-91382495D02*
X218516916Y-91572971D01*
X216612154Y-92144400D02*
X216612154Y-92239638D01*
X216612154Y-92239638D02*
X216707392Y-92430114D01*
X216707392Y-92430114D02*
X216802630Y-92525352D01*
X214231201Y-92239638D02*
X214231201Y-90239638D01*
X214231201Y-90239638D02*
X213564534Y-91668209D01*
X213564534Y-91668209D02*
X212897868Y-90239638D01*
X212897868Y-90239638D02*
X212897868Y-92239638D01*
X212040725Y-91668209D02*
X211088344Y-91668209D01*
X212231201Y-92239638D02*
X211564535Y-90239638D01*
X211564535Y-90239638D02*
X210897868Y-92239638D01*
X232326441Y-88239638D02*
X232326441Y-86239638D01*
X232326441Y-86239638D02*
X231659774Y-87668209D01*
X231659774Y-87668209D02*
X230993108Y-86239638D01*
X230993108Y-86239638D02*
X230993108Y-88239638D01*
X230040727Y-88239638D02*
X230040727Y-86239638D01*
X229088346Y-88239638D02*
X229088346Y-86239638D01*
X229088346Y-86239638D02*
X228612156Y-86239638D01*
X228612156Y-86239638D02*
X228326441Y-86334876D01*
X228326441Y-86334876D02*
X228135965Y-86525352D01*
X228135965Y-86525352D02*
X228040727Y-86715828D01*
X228040727Y-86715828D02*
X227945489Y-87096780D01*
X227945489Y-87096780D02*
X227945489Y-87382495D01*
X227945489Y-87382495D02*
X228040727Y-87763447D01*
X228040727Y-87763447D02*
X228135965Y-87953923D01*
X228135965Y-87953923D02*
X228326441Y-88144400D01*
X228326441Y-88144400D02*
X228612156Y-88239638D01*
X228612156Y-88239638D02*
X229088346Y-88239638D01*
X227088346Y-88239638D02*
X227088346Y-86239638D01*
X224802631Y-86239638D02*
X224326441Y-88239638D01*
X224326441Y-88239638D02*
X223945488Y-86811066D01*
X223945488Y-86811066D02*
X223564536Y-88239638D01*
X223564536Y-88239638D02*
X223088346Y-86239638D01*
X222421679Y-87668209D02*
X221469298Y-87668209D01*
X222612155Y-88239638D02*
X221945489Y-86239638D01*
X221945489Y-86239638D02*
X221278822Y-88239638D01*
X220612155Y-88239638D02*
X220612155Y-86239638D01*
X220612155Y-86239638D02*
X219469298Y-88239638D01*
X219469298Y-88239638D02*
X219469298Y-86239638D01*
X218516917Y-88239638D02*
X218516917Y-86239638D01*
X218516917Y-86239638D02*
X218040727Y-86239638D01*
X218040727Y-86239638D02*
X217755012Y-86334876D01*
X217755012Y-86334876D02*
X217564536Y-86525352D01*
X217564536Y-86525352D02*
X217469298Y-86715828D01*
X217469298Y-86715828D02*
X217374060Y-87096780D01*
X217374060Y-87096780D02*
X217374060Y-87382495D01*
X217374060Y-87382495D02*
X217469298Y-87763447D01*
X217469298Y-87763447D02*
X217564536Y-87953923D01*
X217564536Y-87953923D02*
X217755012Y-88144400D01*
X217755012Y-88144400D02*
X218040727Y-88239638D01*
X218040727Y-88239638D02*
X218516917Y-88239638D01*
X215183583Y-86906304D02*
X214707393Y-88239638D01*
X214707393Y-88239638D02*
X214231202Y-86906304D01*
X213564535Y-86430114D02*
X213469297Y-86334876D01*
X213469297Y-86334876D02*
X213278821Y-86239638D01*
X213278821Y-86239638D02*
X212802630Y-86239638D01*
X212802630Y-86239638D02*
X212612154Y-86334876D01*
X212612154Y-86334876D02*
X212516916Y-86430114D01*
X212516916Y-86430114D02*
X212421678Y-86620590D01*
X212421678Y-86620590D02*
X212421678Y-86811066D01*
X212421678Y-86811066D02*
X212516916Y-87096780D01*
X212516916Y-87096780D02*
X213659773Y-88239638D01*
X213659773Y-88239638D02*
X212421678Y-88239638D01*
X211564535Y-88049161D02*
X211469297Y-88144400D01*
X211469297Y-88144400D02*
X211564535Y-88239638D01*
X211564535Y-88239638D02*
X211659773Y-88144400D01*
X211659773Y-88144400D02*
X211564535Y-88049161D01*
X211564535Y-88049161D02*
X211564535Y-88239638D01*
X210231202Y-86239638D02*
X210040725Y-86239638D01*
X210040725Y-86239638D02*
X209850249Y-86334876D01*
X209850249Y-86334876D02*
X209755011Y-86430114D01*
X209755011Y-86430114D02*
X209659773Y-86620590D01*
X209659773Y-86620590D02*
X209564535Y-87001542D01*
X209564535Y-87001542D02*
X209564535Y-87477733D01*
X209564535Y-87477733D02*
X209659773Y-87858685D01*
X209659773Y-87858685D02*
X209755011Y-88049161D01*
X209755011Y-88049161D02*
X209850249Y-88144400D01*
X209850249Y-88144400D02*
X210040725Y-88239638D01*
X210040725Y-88239638D02*
X210231202Y-88239638D01*
X210231202Y-88239638D02*
X210421678Y-88144400D01*
X210421678Y-88144400D02*
X210516916Y-88049161D01*
X210516916Y-88049161D02*
X210612154Y-87858685D01*
X210612154Y-87858685D02*
X210707392Y-87477733D01*
X210707392Y-87477733D02*
X210707392Y-87001542D01*
X210707392Y-87001542D02*
X210612154Y-86620590D01*
X210612154Y-86620590D02*
X210516916Y-86430114D01*
X210516916Y-86430114D02*
X210421678Y-86334876D01*
X210421678Y-86334876D02*
X210231202Y-86239638D01*
D12*
X181666666Y-92454819D02*
X181999999Y-91978628D01*
X182238094Y-92454819D02*
X182238094Y-91454819D01*
X182238094Y-91454819D02*
X181857142Y-91454819D01*
X181857142Y-91454819D02*
X181761904Y-91502438D01*
X181761904Y-91502438D02*
X181714285Y-91550057D01*
X181714285Y-91550057D02*
X181666666Y-91645295D01*
X181666666Y-91645295D02*
X181666666Y-91788152D01*
X181666666Y-91788152D02*
X181714285Y-91883390D01*
X181714285Y-91883390D02*
X181761904Y-91931009D01*
X181761904Y-91931009D02*
X181857142Y-91978628D01*
X181857142Y-91978628D02*
X182238094Y-91978628D01*
X180714285Y-92454819D02*
X181285713Y-92454819D01*
X180999999Y-92454819D02*
X180999999Y-91454819D01*
X180999999Y-91454819D02*
X181095237Y-91597676D01*
X181095237Y-91597676D02*
X181190475Y-91692914D01*
X181190475Y-91692914D02*
X181285713Y-91740533D01*
X248954819Y-89213333D02*
X248478628Y-88880000D01*
X248954819Y-88641905D02*
X247954819Y-88641905D01*
X247954819Y-88641905D02*
X247954819Y-89022857D01*
X247954819Y-89022857D02*
X248002438Y-89118095D01*
X248002438Y-89118095D02*
X248050057Y-89165714D01*
X248050057Y-89165714D02*
X248145295Y-89213333D01*
X248145295Y-89213333D02*
X248288152Y-89213333D01*
X248288152Y-89213333D02*
X248383390Y-89165714D01*
X248383390Y-89165714D02*
X248431009Y-89118095D01*
X248431009Y-89118095D02*
X248478628Y-89022857D01*
X248478628Y-89022857D02*
X248478628Y-88641905D01*
X247954819Y-89546667D02*
X247954819Y-90165714D01*
X247954819Y-90165714D02*
X248335771Y-89832381D01*
X248335771Y-89832381D02*
X248335771Y-89975238D01*
X248335771Y-89975238D02*
X248383390Y-90070476D01*
X248383390Y-90070476D02*
X248431009Y-90118095D01*
X248431009Y-90118095D02*
X248526247Y-90165714D01*
X248526247Y-90165714D02*
X248764342Y-90165714D01*
X248764342Y-90165714D02*
X248859580Y-90118095D01*
X248859580Y-90118095D02*
X248907200Y-90070476D01*
X248907200Y-90070476D02*
X248954819Y-89975238D01*
X248954819Y-89975238D02*
X248954819Y-89689524D01*
X248954819Y-89689524D02*
X248907200Y-89594286D01*
X248907200Y-89594286D02*
X248859580Y-89546667D01*
X253859580Y-89333333D02*
X253907200Y-89285714D01*
X253907200Y-89285714D02*
X253954819Y-89142857D01*
X253954819Y-89142857D02*
X253954819Y-89047619D01*
X253954819Y-89047619D02*
X253907200Y-88904762D01*
X253907200Y-88904762D02*
X253811961Y-88809524D01*
X253811961Y-88809524D02*
X253716723Y-88761905D01*
X253716723Y-88761905D02*
X253526247Y-88714286D01*
X253526247Y-88714286D02*
X253383390Y-88714286D01*
X253383390Y-88714286D02*
X253192914Y-88761905D01*
X253192914Y-88761905D02*
X253097676Y-88809524D01*
X253097676Y-88809524D02*
X253002438Y-88904762D01*
X253002438Y-88904762D02*
X252954819Y-89047619D01*
X252954819Y-89047619D02*
X252954819Y-89142857D01*
X252954819Y-89142857D02*
X253002438Y-89285714D01*
X253002438Y-89285714D02*
X253050057Y-89333333D01*
X253050057Y-89714286D02*
X253002438Y-89761905D01*
X253002438Y-89761905D02*
X252954819Y-89857143D01*
X252954819Y-89857143D02*
X252954819Y-90095238D01*
X252954819Y-90095238D02*
X253002438Y-90190476D01*
X253002438Y-90190476D02*
X253050057Y-90238095D01*
X253050057Y-90238095D02*
X253145295Y-90285714D01*
X253145295Y-90285714D02*
X253240533Y-90285714D01*
X253240533Y-90285714D02*
X253383390Y-90238095D01*
X253383390Y-90238095D02*
X253954819Y-89666667D01*
X253954819Y-89666667D02*
X253954819Y-90285714D01*
X244454819Y-89643333D02*
X243978628Y-89310000D01*
X244454819Y-89071905D02*
X243454819Y-89071905D01*
X243454819Y-89071905D02*
X243454819Y-89452857D01*
X243454819Y-89452857D02*
X243502438Y-89548095D01*
X243502438Y-89548095D02*
X243550057Y-89595714D01*
X243550057Y-89595714D02*
X243645295Y-89643333D01*
X243645295Y-89643333D02*
X243788152Y-89643333D01*
X243788152Y-89643333D02*
X243883390Y-89595714D01*
X243883390Y-89595714D02*
X243931009Y-89548095D01*
X243931009Y-89548095D02*
X243978628Y-89452857D01*
X243978628Y-89452857D02*
X243978628Y-89071905D01*
X243550057Y-90024286D02*
X243502438Y-90071905D01*
X243502438Y-90071905D02*
X243454819Y-90167143D01*
X243454819Y-90167143D02*
X243454819Y-90405238D01*
X243454819Y-90405238D02*
X243502438Y-90500476D01*
X243502438Y-90500476D02*
X243550057Y-90548095D01*
X243550057Y-90548095D02*
X243645295Y-90595714D01*
X243645295Y-90595714D02*
X243740533Y-90595714D01*
X243740533Y-90595714D02*
X243883390Y-90548095D01*
X243883390Y-90548095D02*
X244454819Y-89976667D01*
X244454819Y-89976667D02*
X244454819Y-90595714D01*
X175859580Y-101833333D02*
X175907200Y-101785714D01*
X175907200Y-101785714D02*
X175954819Y-101642857D01*
X175954819Y-101642857D02*
X175954819Y-101547619D01*
X175954819Y-101547619D02*
X175907200Y-101404762D01*
X175907200Y-101404762D02*
X175811961Y-101309524D01*
X175811961Y-101309524D02*
X175716723Y-101261905D01*
X175716723Y-101261905D02*
X175526247Y-101214286D01*
X175526247Y-101214286D02*
X175383390Y-101214286D01*
X175383390Y-101214286D02*
X175192914Y-101261905D01*
X175192914Y-101261905D02*
X175097676Y-101309524D01*
X175097676Y-101309524D02*
X175002438Y-101404762D01*
X175002438Y-101404762D02*
X174954819Y-101547619D01*
X174954819Y-101547619D02*
X174954819Y-101642857D01*
X174954819Y-101642857D02*
X175002438Y-101785714D01*
X175002438Y-101785714D02*
X175050057Y-101833333D01*
X174954819Y-102166667D02*
X174954819Y-102785714D01*
X174954819Y-102785714D02*
X175335771Y-102452381D01*
X175335771Y-102452381D02*
X175335771Y-102595238D01*
X175335771Y-102595238D02*
X175383390Y-102690476D01*
X175383390Y-102690476D02*
X175431009Y-102738095D01*
X175431009Y-102738095D02*
X175526247Y-102785714D01*
X175526247Y-102785714D02*
X175764342Y-102785714D01*
X175764342Y-102785714D02*
X175859580Y-102738095D01*
X175859580Y-102738095D02*
X175907200Y-102690476D01*
X175907200Y-102690476D02*
X175954819Y-102595238D01*
X175954819Y-102595238D02*
X175954819Y-102309524D01*
X175954819Y-102309524D02*
X175907200Y-102214286D01*
X175907200Y-102214286D02*
X175859580Y-102166667D01*
X195859580Y-90333333D02*
X195907200Y-90285714D01*
X195907200Y-90285714D02*
X195954819Y-90142857D01*
X195954819Y-90142857D02*
X195954819Y-90047619D01*
X195954819Y-90047619D02*
X195907200Y-89904762D01*
X195907200Y-89904762D02*
X195811961Y-89809524D01*
X195811961Y-89809524D02*
X195716723Y-89761905D01*
X195716723Y-89761905D02*
X195526247Y-89714286D01*
X195526247Y-89714286D02*
X195383390Y-89714286D01*
X195383390Y-89714286D02*
X195192914Y-89761905D01*
X195192914Y-89761905D02*
X195097676Y-89809524D01*
X195097676Y-89809524D02*
X195002438Y-89904762D01*
X195002438Y-89904762D02*
X194954819Y-90047619D01*
X194954819Y-90047619D02*
X194954819Y-90142857D01*
X194954819Y-90142857D02*
X195002438Y-90285714D01*
X195002438Y-90285714D02*
X195050057Y-90333333D01*
X195954819Y-91285714D02*
X195954819Y-90714286D01*
X195954819Y-91000000D02*
X194954819Y-91000000D01*
X194954819Y-91000000D02*
X195097676Y-90904762D01*
X195097676Y-90904762D02*
X195192914Y-90809524D01*
X195192914Y-90809524D02*
X195240533Y-90714286D01*
X43473391Y-99218716D02*
X42473391Y-99218716D01*
X42473391Y-99218716D02*
X42473391Y-99456811D01*
X42473391Y-99456811D02*
X42521010Y-99599668D01*
X42521010Y-99599668D02*
X42616248Y-99694906D01*
X42616248Y-99694906D02*
X42711486Y-99742525D01*
X42711486Y-99742525D02*
X42901962Y-99790144D01*
X42901962Y-99790144D02*
X43044819Y-99790144D01*
X43044819Y-99790144D02*
X43235295Y-99742525D01*
X43235295Y-99742525D02*
X43330533Y-99694906D01*
X43330533Y-99694906D02*
X43425772Y-99599668D01*
X43425772Y-99599668D02*
X43473391Y-99456811D01*
X43473391Y-99456811D02*
X43473391Y-99218716D01*
X42473391Y-100409192D02*
X42473391Y-100599668D01*
X42473391Y-100599668D02*
X42521010Y-100694906D01*
X42521010Y-100694906D02*
X42616248Y-100790144D01*
X42616248Y-100790144D02*
X42806724Y-100837763D01*
X42806724Y-100837763D02*
X43140057Y-100837763D01*
X43140057Y-100837763D02*
X43330533Y-100790144D01*
X43330533Y-100790144D02*
X43425772Y-100694906D01*
X43425772Y-100694906D02*
X43473391Y-100599668D01*
X43473391Y-100599668D02*
X43473391Y-100409192D01*
X43473391Y-100409192D02*
X43425772Y-100313954D01*
X43425772Y-100313954D02*
X43330533Y-100218716D01*
X43330533Y-100218716D02*
X43140057Y-100171097D01*
X43140057Y-100171097D02*
X42806724Y-100171097D01*
X42806724Y-100171097D02*
X42616248Y-100218716D01*
X42616248Y-100218716D02*
X42521010Y-100313954D01*
X42521010Y-100313954D02*
X42473391Y-100409192D01*
X42458737Y-97749804D02*
X42411118Y-97654566D01*
X42411118Y-97654566D02*
X42411118Y-97511709D01*
X42411118Y-97511709D02*
X42458737Y-97368852D01*
X42458737Y-97368852D02*
X42553975Y-97273614D01*
X42553975Y-97273614D02*
X42649213Y-97225995D01*
X42649213Y-97225995D02*
X42839689Y-97178376D01*
X42839689Y-97178376D02*
X42982546Y-97178376D01*
X42982546Y-97178376D02*
X43173022Y-97225995D01*
X43173022Y-97225995D02*
X43268260Y-97273614D01*
X43268260Y-97273614D02*
X43363499Y-97368852D01*
X43363499Y-97368852D02*
X43411118Y-97511709D01*
X43411118Y-97511709D02*
X43411118Y-97606947D01*
X43411118Y-97606947D02*
X43363499Y-97749804D01*
X43363499Y-97749804D02*
X43315879Y-97797423D01*
X43315879Y-97797423D02*
X42982546Y-97797423D01*
X42982546Y-97797423D02*
X42982546Y-97606947D01*
X43112378Y-102135877D02*
X43112378Y-102897782D01*
X43493331Y-102516829D02*
X42731426Y-102516829D01*
X165349879Y-99218716D02*
X164349879Y-99218716D01*
X164349879Y-99218716D02*
X164349879Y-99456811D01*
X164349879Y-99456811D02*
X164397498Y-99599668D01*
X164397498Y-99599668D02*
X164492736Y-99694906D01*
X164492736Y-99694906D02*
X164587974Y-99742525D01*
X164587974Y-99742525D02*
X164778450Y-99790144D01*
X164778450Y-99790144D02*
X164921307Y-99790144D01*
X164921307Y-99790144D02*
X165111783Y-99742525D01*
X165111783Y-99742525D02*
X165207021Y-99694906D01*
X165207021Y-99694906D02*
X165302260Y-99599668D01*
X165302260Y-99599668D02*
X165349879Y-99456811D01*
X165349879Y-99456811D02*
X165349879Y-99218716D01*
X164349879Y-100409192D02*
X164349879Y-100599668D01*
X164349879Y-100599668D02*
X164397498Y-100694906D01*
X164397498Y-100694906D02*
X164492736Y-100790144D01*
X164492736Y-100790144D02*
X164683212Y-100837763D01*
X164683212Y-100837763D02*
X165016545Y-100837763D01*
X165016545Y-100837763D02*
X165207021Y-100790144D01*
X165207021Y-100790144D02*
X165302260Y-100694906D01*
X165302260Y-100694906D02*
X165349879Y-100599668D01*
X165349879Y-100599668D02*
X165349879Y-100409192D01*
X165349879Y-100409192D02*
X165302260Y-100313954D01*
X165302260Y-100313954D02*
X165207021Y-100218716D01*
X165207021Y-100218716D02*
X165016545Y-100171097D01*
X165016545Y-100171097D02*
X164683212Y-100171097D01*
X164683212Y-100171097D02*
X164492736Y-100218716D01*
X164492736Y-100218716D02*
X164397498Y-100313954D01*
X164397498Y-100313954D02*
X164349879Y-100409192D01*
X164335225Y-97360588D02*
X164287606Y-97265350D01*
X164287606Y-97265350D02*
X164287606Y-97122493D01*
X164287606Y-97122493D02*
X164335225Y-96979636D01*
X164335225Y-96979636D02*
X164430463Y-96884398D01*
X164430463Y-96884398D02*
X164525701Y-96836779D01*
X164525701Y-96836779D02*
X164716177Y-96789160D01*
X164716177Y-96789160D02*
X164859034Y-96789160D01*
X164859034Y-96789160D02*
X165049510Y-96836779D01*
X165049510Y-96836779D02*
X165144748Y-96884398D01*
X165144748Y-96884398D02*
X165239987Y-96979636D01*
X165239987Y-96979636D02*
X165287606Y-97122493D01*
X165287606Y-97122493D02*
X165287606Y-97217731D01*
X165287606Y-97217731D02*
X165239987Y-97360588D01*
X165239987Y-97360588D02*
X165192367Y-97408207D01*
X165192367Y-97408207D02*
X164859034Y-97408207D01*
X164859034Y-97408207D02*
X164859034Y-97217731D01*
X164988866Y-102135877D02*
X164988866Y-102897782D01*
X165369819Y-102516829D02*
X164607914Y-102516829D01*
X230093332Y-112351200D02*
X229950475Y-112398819D01*
X229950475Y-112398819D02*
X229712380Y-112398819D01*
X229712380Y-112398819D02*
X229617142Y-112351200D01*
X229617142Y-112351200D02*
X229569523Y-112303580D01*
X229569523Y-112303580D02*
X229521904Y-112208342D01*
X229521904Y-112208342D02*
X229521904Y-112113104D01*
X229521904Y-112113104D02*
X229569523Y-112017866D01*
X229569523Y-112017866D02*
X229617142Y-111970247D01*
X229617142Y-111970247D02*
X229712380Y-111922628D01*
X229712380Y-111922628D02*
X229902856Y-111875009D01*
X229902856Y-111875009D02*
X229998094Y-111827390D01*
X229998094Y-111827390D02*
X230045713Y-111779771D01*
X230045713Y-111779771D02*
X230093332Y-111684533D01*
X230093332Y-111684533D02*
X230093332Y-111589295D01*
X230093332Y-111589295D02*
X230045713Y-111494057D01*
X230045713Y-111494057D02*
X229998094Y-111446438D01*
X229998094Y-111446438D02*
X229902856Y-111398819D01*
X229902856Y-111398819D02*
X229664761Y-111398819D01*
X229664761Y-111398819D02*
X229521904Y-111446438D01*
X229188570Y-111398819D02*
X228950475Y-112398819D01*
X228950475Y-112398819D02*
X228759999Y-111684533D01*
X228759999Y-111684533D02*
X228569523Y-112398819D01*
X228569523Y-112398819D02*
X228331428Y-111398819D01*
X227998094Y-111494057D02*
X227950475Y-111446438D01*
X227950475Y-111446438D02*
X227855237Y-111398819D01*
X227855237Y-111398819D02*
X227617142Y-111398819D01*
X227617142Y-111398819D02*
X227521904Y-111446438D01*
X227521904Y-111446438D02*
X227474285Y-111494057D01*
X227474285Y-111494057D02*
X227426666Y-111589295D01*
X227426666Y-111589295D02*
X227426666Y-111684533D01*
X227426666Y-111684533D02*
X227474285Y-111827390D01*
X227474285Y-111827390D02*
X228045713Y-112398819D01*
X228045713Y-112398819D02*
X227426666Y-112398819D01*
X210973332Y-96613200D02*
X210830475Y-96660819D01*
X210830475Y-96660819D02*
X210592380Y-96660819D01*
X210592380Y-96660819D02*
X210497142Y-96613200D01*
X210497142Y-96613200D02*
X210449523Y-96565580D01*
X210449523Y-96565580D02*
X210401904Y-96470342D01*
X210401904Y-96470342D02*
X210401904Y-96375104D01*
X210401904Y-96375104D02*
X210449523Y-96279866D01*
X210449523Y-96279866D02*
X210497142Y-96232247D01*
X210497142Y-96232247D02*
X210592380Y-96184628D01*
X210592380Y-96184628D02*
X210782856Y-96137009D01*
X210782856Y-96137009D02*
X210878094Y-96089390D01*
X210878094Y-96089390D02*
X210925713Y-96041771D01*
X210925713Y-96041771D02*
X210973332Y-95946533D01*
X210973332Y-95946533D02*
X210973332Y-95851295D01*
X210973332Y-95851295D02*
X210925713Y-95756057D01*
X210925713Y-95756057D02*
X210878094Y-95708438D01*
X210878094Y-95708438D02*
X210782856Y-95660819D01*
X210782856Y-95660819D02*
X210544761Y-95660819D01*
X210544761Y-95660819D02*
X210401904Y-95708438D01*
X210068570Y-95660819D02*
X209830475Y-96660819D01*
X209830475Y-96660819D02*
X209639999Y-95946533D01*
X209639999Y-95946533D02*
X209449523Y-96660819D01*
X209449523Y-96660819D02*
X209211428Y-95660819D01*
X208925713Y-95660819D02*
X208306666Y-95660819D01*
X208306666Y-95660819D02*
X208639999Y-96041771D01*
X208639999Y-96041771D02*
X208497142Y-96041771D01*
X208497142Y-96041771D02*
X208401904Y-96089390D01*
X208401904Y-96089390D02*
X208354285Y-96137009D01*
X208354285Y-96137009D02*
X208306666Y-96232247D01*
X208306666Y-96232247D02*
X208306666Y-96470342D01*
X208306666Y-96470342D02*
X208354285Y-96565580D01*
X208354285Y-96565580D02*
X208401904Y-96613200D01*
X208401904Y-96613200D02*
X208497142Y-96660819D01*
X208497142Y-96660819D02*
X208782856Y-96660819D01*
X208782856Y-96660819D02*
X208878094Y-96613200D01*
X208878094Y-96613200D02*
X208925713Y-96565580D01*
X191873332Y-96613200D02*
X191730475Y-96660819D01*
X191730475Y-96660819D02*
X191492380Y-96660819D01*
X191492380Y-96660819D02*
X191397142Y-96613200D01*
X191397142Y-96613200D02*
X191349523Y-96565580D01*
X191349523Y-96565580D02*
X191301904Y-96470342D01*
X191301904Y-96470342D02*
X191301904Y-96375104D01*
X191301904Y-96375104D02*
X191349523Y-96279866D01*
X191349523Y-96279866D02*
X191397142Y-96232247D01*
X191397142Y-96232247D02*
X191492380Y-96184628D01*
X191492380Y-96184628D02*
X191682856Y-96137009D01*
X191682856Y-96137009D02*
X191778094Y-96089390D01*
X191778094Y-96089390D02*
X191825713Y-96041771D01*
X191825713Y-96041771D02*
X191873332Y-95946533D01*
X191873332Y-95946533D02*
X191873332Y-95851295D01*
X191873332Y-95851295D02*
X191825713Y-95756057D01*
X191825713Y-95756057D02*
X191778094Y-95708438D01*
X191778094Y-95708438D02*
X191682856Y-95660819D01*
X191682856Y-95660819D02*
X191444761Y-95660819D01*
X191444761Y-95660819D02*
X191301904Y-95708438D01*
X190968570Y-95660819D02*
X190730475Y-96660819D01*
X190730475Y-96660819D02*
X190539999Y-95946533D01*
X190539999Y-95946533D02*
X190349523Y-96660819D01*
X190349523Y-96660819D02*
X190111428Y-95660819D01*
X189301904Y-95994152D02*
X189301904Y-96660819D01*
X189539999Y-95613200D02*
X189778094Y-96327485D01*
X189778094Y-96327485D02*
X189159047Y-96327485D01*
X249173332Y-96613200D02*
X249030475Y-96660819D01*
X249030475Y-96660819D02*
X248792380Y-96660819D01*
X248792380Y-96660819D02*
X248697142Y-96613200D01*
X248697142Y-96613200D02*
X248649523Y-96565580D01*
X248649523Y-96565580D02*
X248601904Y-96470342D01*
X248601904Y-96470342D02*
X248601904Y-96375104D01*
X248601904Y-96375104D02*
X248649523Y-96279866D01*
X248649523Y-96279866D02*
X248697142Y-96232247D01*
X248697142Y-96232247D02*
X248792380Y-96184628D01*
X248792380Y-96184628D02*
X248982856Y-96137009D01*
X248982856Y-96137009D02*
X249078094Y-96089390D01*
X249078094Y-96089390D02*
X249125713Y-96041771D01*
X249125713Y-96041771D02*
X249173332Y-95946533D01*
X249173332Y-95946533D02*
X249173332Y-95851295D01*
X249173332Y-95851295D02*
X249125713Y-95756057D01*
X249125713Y-95756057D02*
X249078094Y-95708438D01*
X249078094Y-95708438D02*
X248982856Y-95660819D01*
X248982856Y-95660819D02*
X248744761Y-95660819D01*
X248744761Y-95660819D02*
X248601904Y-95708438D01*
X248268570Y-95660819D02*
X248030475Y-96660819D01*
X248030475Y-96660819D02*
X247839999Y-95946533D01*
X247839999Y-95946533D02*
X247649523Y-96660819D01*
X247649523Y-96660819D02*
X247411428Y-95660819D01*
X246506666Y-96660819D02*
X247078094Y-96660819D01*
X246792380Y-96660819D02*
X246792380Y-95660819D01*
X246792380Y-95660819D02*
X246887618Y-95803676D01*
X246887618Y-95803676D02*
X246982856Y-95898914D01*
X246982856Y-95898914D02*
X247078094Y-95946533D01*
D13*
X183420000Y-92000000D02*
X184370000Y-92000000D01*
X183420000Y-92920000D02*
X183420000Y-91080000D01*
X179580000Y-92920000D02*
X183420000Y-92920000D01*
X183420000Y-91080000D02*
X179580000Y-91080000D01*
X179580000Y-91080000D02*
X179580000Y-92920000D01*
X179580000Y-92000000D02*
X178630000Y-92000000D01*
X248500000Y-87770000D02*
X248500000Y-86820000D01*
X249420000Y-87770000D02*
X247580000Y-87770000D01*
X249420000Y-91610000D02*
X249420000Y-87770000D01*
X247580000Y-87770000D02*
X247580000Y-91610000D01*
X247580000Y-91610000D02*
X249420000Y-91610000D01*
X248500000Y-91610000D02*
X248500000Y-92560000D01*
X254555000Y-92170000D02*
X255221000Y-92170000D01*
X255221000Y-86830000D02*
X255221000Y-92170000D01*
X251779000Y-92170000D02*
X252445000Y-92170000D01*
X251779000Y-86830000D02*
X251779000Y-92170000D01*
X254555000Y-86830000D02*
X255221000Y-86830000D01*
X251779000Y-86830000D02*
X252445000Y-86830000D01*
X244000000Y-87890000D02*
X244000000Y-86940000D01*
X244920000Y-87890000D02*
X243080000Y-87890000D01*
X244920000Y-91730000D02*
X244920000Y-87890000D01*
X243080000Y-87890000D02*
X243080000Y-91730000D01*
X243080000Y-91730000D02*
X244920000Y-91730000D01*
X244000000Y-91730000D02*
X244000000Y-92680000D01*
X175025000Y-95740113D02*
X175025000Y-95240113D01*
X175275000Y-95490113D02*
X174775000Y-95490113D01*
X175460000Y-98044888D02*
X173920000Y-98044888D01*
X179080000Y-98044888D02*
X177540000Y-98044888D01*
X175460000Y-98084888D02*
X173920000Y-98084888D01*
X179080000Y-98084888D02*
X177540000Y-98084888D01*
X175460000Y-98124888D02*
X173921000Y-98124888D01*
X179079000Y-98124888D02*
X177540000Y-98124888D01*
X175460000Y-98164888D02*
X173922000Y-98164888D01*
X179078000Y-98164888D02*
X177540000Y-98164888D01*
X175460000Y-98204888D02*
X173924000Y-98204888D01*
X179076000Y-98204888D02*
X177540000Y-98204888D01*
X175460000Y-98244888D02*
X173927000Y-98244888D01*
X179073000Y-98244888D02*
X177540000Y-98244888D01*
X175460000Y-98284888D02*
X173931000Y-98284888D01*
X179069000Y-98284888D02*
X177540000Y-98284888D01*
X175460000Y-98324888D02*
X173935000Y-98324888D01*
X179065000Y-98324888D02*
X177540000Y-98324888D01*
X175460000Y-98364888D02*
X173939000Y-98364888D01*
X179061000Y-98364888D02*
X177540000Y-98364888D01*
X175460000Y-98404888D02*
X173944000Y-98404888D01*
X179056000Y-98404888D02*
X177540000Y-98404888D01*
X175460000Y-98444888D02*
X173950000Y-98444888D01*
X179050000Y-98444888D02*
X177540000Y-98444888D01*
X175460000Y-98484888D02*
X173957000Y-98484888D01*
X179043000Y-98484888D02*
X177540000Y-98484888D01*
X175460000Y-98524888D02*
X173964000Y-98524888D01*
X179036000Y-98524888D02*
X177540000Y-98524888D01*
X175460000Y-98564888D02*
X173972000Y-98564888D01*
X179028000Y-98564888D02*
X177540000Y-98564888D01*
X175460000Y-98604888D02*
X173980000Y-98604888D01*
X179020000Y-98604888D02*
X177540000Y-98604888D01*
X175460000Y-98644888D02*
X173989000Y-98644888D01*
X179011000Y-98644888D02*
X177540000Y-98644888D01*
X175460000Y-98684888D02*
X173999000Y-98684888D01*
X179001000Y-98684888D02*
X177540000Y-98684888D01*
X175460000Y-98724888D02*
X174009000Y-98724888D01*
X178991000Y-98724888D02*
X177540000Y-98724888D01*
X175460000Y-98765888D02*
X174020000Y-98765888D01*
X178980000Y-98765888D02*
X177540000Y-98765888D01*
X175460000Y-98805888D02*
X174032000Y-98805888D01*
X178968000Y-98805888D02*
X177540000Y-98805888D01*
X175460000Y-98845888D02*
X174045000Y-98845888D01*
X178955000Y-98845888D02*
X177540000Y-98845888D01*
X175460000Y-98885888D02*
X174058000Y-98885888D01*
X178942000Y-98885888D02*
X177540000Y-98885888D01*
X175460000Y-98925888D02*
X174072000Y-98925888D01*
X178928000Y-98925888D02*
X177540000Y-98925888D01*
X175460000Y-98965888D02*
X174086000Y-98965888D01*
X178914000Y-98965888D02*
X177540000Y-98965888D01*
X175460000Y-99005888D02*
X174102000Y-99005888D01*
X178898000Y-99005888D02*
X177540000Y-99005888D01*
X175460000Y-99045888D02*
X174118000Y-99045888D01*
X178882000Y-99045888D02*
X177540000Y-99045888D01*
X175460000Y-99085888D02*
X174135000Y-99085888D01*
X178865000Y-99085888D02*
X177540000Y-99085888D01*
X175460000Y-99125888D02*
X174152000Y-99125888D01*
X178848000Y-99125888D02*
X177540000Y-99125888D01*
X175460000Y-99165888D02*
X174171000Y-99165888D01*
X178829000Y-99165888D02*
X177540000Y-99165888D01*
X175460000Y-99205888D02*
X174190000Y-99205888D01*
X178810000Y-99205888D02*
X177540000Y-99205888D01*
X175460000Y-99245888D02*
X174210000Y-99245888D01*
X178790000Y-99245888D02*
X177540000Y-99245888D01*
X175460000Y-99285888D02*
X174232000Y-99285888D01*
X178768000Y-99285888D02*
X177540000Y-99285888D01*
X175460000Y-99325888D02*
X174253000Y-99325888D01*
X178747000Y-99325888D02*
X177540000Y-99325888D01*
X175460000Y-99365888D02*
X174276000Y-99365888D01*
X178724000Y-99365888D02*
X177540000Y-99365888D01*
X175460000Y-99405888D02*
X174300000Y-99405888D01*
X178700000Y-99405888D02*
X177540000Y-99405888D01*
X175460000Y-99445888D02*
X174325000Y-99445888D01*
X178675000Y-99445888D02*
X177540000Y-99445888D01*
X175460000Y-99485888D02*
X174351000Y-99485888D01*
X178649000Y-99485888D02*
X177540000Y-99485888D01*
X175460000Y-99525888D02*
X174378000Y-99525888D01*
X178622000Y-99525888D02*
X177540000Y-99525888D01*
X175460000Y-99565888D02*
X174405000Y-99565888D01*
X178595000Y-99565888D02*
X177540000Y-99565888D01*
X175460000Y-99605888D02*
X174435000Y-99605888D01*
X178565000Y-99605888D02*
X177540000Y-99605888D01*
X175460000Y-99645888D02*
X174465000Y-99645888D01*
X178535000Y-99645888D02*
X177540000Y-99645888D01*
X175460000Y-99685888D02*
X174496000Y-99685888D01*
X178504000Y-99685888D02*
X177540000Y-99685888D01*
X175460000Y-99725888D02*
X174529000Y-99725888D01*
X178471000Y-99725888D02*
X177540000Y-99725888D01*
X175460000Y-99765888D02*
X174563000Y-99765888D01*
X178437000Y-99765888D02*
X177540000Y-99765888D01*
X175460000Y-99805888D02*
X174599000Y-99805888D01*
X178401000Y-99805888D02*
X177540000Y-99805888D01*
X175460000Y-99845888D02*
X174636000Y-99845888D01*
X178364000Y-99845888D02*
X177540000Y-99845888D01*
X175460000Y-99885888D02*
X174674000Y-99885888D01*
X178326000Y-99885888D02*
X177540000Y-99885888D01*
X175460000Y-99925888D02*
X174715000Y-99925888D01*
X178285000Y-99925888D02*
X177540000Y-99925888D01*
X175460000Y-99965888D02*
X174757000Y-99965888D01*
X178243000Y-99965888D02*
X177540000Y-99965888D01*
X175460000Y-100005888D02*
X174801000Y-100005888D01*
X178199000Y-100005888D02*
X177540000Y-100005888D01*
X175460000Y-100045888D02*
X174847000Y-100045888D01*
X178153000Y-100045888D02*
X177540000Y-100045888D01*
X178105000Y-100085888D02*
X174895000Y-100085888D01*
X178054000Y-100125888D02*
X174946000Y-100125888D01*
X178000000Y-100165888D02*
X175000000Y-100165888D01*
X177943000Y-100205888D02*
X175057000Y-100205888D01*
X177883000Y-100245888D02*
X175117000Y-100245888D01*
X177819000Y-100285888D02*
X175181000Y-100285888D01*
X177751000Y-100325888D02*
X175249000Y-100325888D01*
X177678000Y-100365888D02*
X175322000Y-100365888D01*
X177598000Y-100405888D02*
X175402000Y-100405888D01*
X177511000Y-100445888D02*
X175489000Y-100445888D01*
X177415000Y-100485888D02*
X175585000Y-100485888D01*
X177305000Y-100525888D02*
X175695000Y-100525888D01*
X177177000Y-100565888D02*
X175823000Y-100565888D01*
X177018000Y-100605888D02*
X175982000Y-100605888D01*
X176784000Y-100645888D02*
X176216000Y-100645888D01*
X179120000Y-98044888D02*
G75*
G02*
X173880000Y-98044888I-2620000J0D01*
G01*
X173880000Y-98044888D02*
G75*
G02*
X179120000Y-98044888I2620000J0D01*
G01*
X194445000Y-87830000D02*
X193779000Y-87830000D01*
X193779000Y-93170000D02*
X193779000Y-87830000D01*
X197221000Y-87830000D02*
X196555000Y-87830000D01*
X197221000Y-93170000D02*
X197221000Y-87830000D01*
X194445000Y-93170000D02*
X193779000Y-93170000D01*
X197221000Y-93170000D02*
X196555000Y-93170000D01*
D10*
X37874214Y-90965786D02*
X36460000Y-92380000D01*
X37874214Y-93794214D02*
X36460000Y-92380000D01*
X36460000Y-92380000D02*
X41540000Y-92380000D01*
D13*
X42000000Y-95000000D02*
X35500000Y-95000000D01*
X42000000Y-105000000D02*
X42000000Y-95000000D01*
X35500000Y-95000000D02*
X35500000Y-105000000D01*
X35500000Y-105000000D02*
X42000000Y-105000000D01*
D10*
X168874214Y-90965786D02*
X167460000Y-92380000D01*
X168874214Y-93794214D02*
X167460000Y-92380000D01*
X167460000Y-92380000D02*
X172540000Y-92380000D01*
D13*
X173000000Y-95000000D02*
X166500000Y-95000000D01*
X173000000Y-105000000D02*
X173000000Y-95000000D01*
X166500000Y-95000000D02*
X166500000Y-105000000D01*
X166500000Y-105000000D02*
X173000000Y-105000000D01*
X235745000Y-111055000D02*
X221775000Y-111055000D01*
X221775000Y-111055000D02*
X221775000Y-97085000D01*
X235745000Y-97085000D02*
X235745000Y-111055000D01*
X221775000Y-97085000D02*
X235745000Y-97085000D01*
X202655000Y-97095000D02*
X216625000Y-97095000D01*
X216625000Y-97095000D02*
X216625000Y-111065000D01*
X202655000Y-111065000D02*
X202655000Y-97095000D01*
X216625000Y-111065000D02*
X202655000Y-111065000D01*
X183555000Y-97095000D02*
X197525000Y-97095000D01*
X197525000Y-97095000D02*
X197525000Y-111065000D01*
X183555000Y-111065000D02*
X183555000Y-97095000D01*
X197525000Y-111065000D02*
X183555000Y-111065000D01*
X240855000Y-97095000D02*
X254825000Y-97095000D01*
X254825000Y-97095000D02*
X254825000Y-111065000D01*
X240855000Y-111065000D02*
X240855000Y-97095000D01*
X254825000Y-111065000D02*
X240855000Y-111065000D01*
%LPC*%
D14*
X185310000Y-92000000D03*
D15*
X177690000Y-92000000D03*
D16*
X198000000Y-102500000D03*
X200000000Y-102500000D03*
X202000000Y-102500000D03*
X204000000Y-102500000D03*
X206000000Y-102500000D03*
D17*
X206850000Y-112500000D03*
X197150000Y-112500000D03*
D18*
X172500000Y-90500000D03*
D19*
X240500000Y-89600000D03*
D20*
X237960000Y-89600000D03*
X235420000Y-89600000D03*
X232880000Y-89600000D03*
X230340000Y-89600000D03*
X227800000Y-89600000D03*
X225260000Y-89600000D03*
D14*
X248500000Y-85880000D03*
D15*
X248500000Y-93500000D03*
D21*
X253500000Y-92000000D03*
X253500000Y-87000000D03*
D16*
X178000000Y-102500000D03*
X180000000Y-102500000D03*
X182000000Y-102500000D03*
X184000000Y-102500000D03*
X186000000Y-102500000D03*
D17*
X186850000Y-112500000D03*
X177150000Y-112500000D03*
D14*
X244000000Y-86000000D03*
D15*
X244000000Y-93620000D03*
D22*
X176500000Y-97044888D03*
D21*
X176500000Y-99044888D03*
D18*
X277500000Y-112000000D03*
D21*
X195500000Y-88000000D03*
X195500000Y-93000000D03*
D18*
X171500000Y-109000000D03*
D23*
X38500000Y-96750000D03*
X38500000Y-100000000D03*
X38500000Y-103250000D03*
X169500000Y-96750000D03*
X169500000Y-100000000D03*
X169500000Y-103250000D03*
D24*
X228760000Y-104070000D03*
D25*
X231300000Y-109150000D03*
X224950000Y-106610000D03*
D24*
X209640000Y-104080000D03*
D25*
X207100000Y-99000000D03*
X213450000Y-101540000D03*
D24*
X190540000Y-104080000D03*
D25*
X188000000Y-99000000D03*
X194350000Y-101540000D03*
D24*
X247840000Y-104080000D03*
D25*
X245300000Y-99000000D03*
X251650000Y-101540000D03*
%LPD*%
M02*
