G04 #@! TF.GenerationSoftware,KiCad,Pcbnew,8.0.7*
G04 #@! TF.CreationDate,2025-06-17T21:23:16-04:00*
G04 #@! TF.ProjectId,ESP32_MIDI_Summer25_Wand,45535033-325f-44d4-9944-495f53756d6d,rev?*
G04 #@! TF.SameCoordinates,Original*
G04 #@! TF.FileFunction,Copper,L1,Top*
G04 #@! TF.FilePolarity,Positive*
%FSLAX46Y46*%
G04 Gerber Fmt 4.6, Leading zero omitted, Abs format (unit mm)*
G04 Created by KiCad (PCBNEW 8.0.7) date 2025-06-17 21:23:16*
%MOMM*%
%LPD*%
G01*
G04 APERTURE LIST*
G04 Aperture macros list*
%AMRoundRect*
0 Rectangle with rounded corners*
0 $1 Rounding radius*
0 $2 $3 $4 $5 $6 $7 $8 $9 X,Y pos of 4 corners*
0 Add a 4 corners polygon primitive as box body*
4,1,4,$2,$3,$4,$5,$6,$7,$8,$9,$2,$3,0*
0 Add four circle primitives for the rounded corners*
1,1,$1+$1,$2,$3*
1,1,$1+$1,$4,$5*
1,1,$1+$1,$6,$7*
1,1,$1+$1,$8,$9*
0 Add four rect primitives between the rounded corners*
20,1,$1+$1,$2,$3,$4,$5,0*
20,1,$1+$1,$4,$5,$6,$7,0*
20,1,$1+$1,$6,$7,$8,$9,0*
20,1,$1+$1,$8,$9,$2,$3,0*%
%AMFreePoly0*
4,1,11,0.600000,-3.000000,0.580902,-3.058779,0.530902,-3.095106,0.500000,-3.100000,-0.500000,-3.100000,-0.558779,-3.080902,-0.595106,-3.030902,-0.600000,-3.000000,-0.600000,1.000000,0.600000,1.000000,0.600000,-3.000000,0.600000,-3.000000,$1*%
G04 Aperture macros list end*
G04 #@! TA.AperFunction,ComponentPad*
%ADD10R,1.600000X1.600000*%
G04 #@! TD*
G04 #@! TA.AperFunction,ComponentPad*
%ADD11C,1.600000*%
G04 #@! TD*
G04 #@! TA.AperFunction,ComponentPad*
%ADD12C,1.800000*%
G04 #@! TD*
G04 #@! TA.AperFunction,SMDPad,CuDef*
%ADD13R,5.000000X2.600000*%
G04 #@! TD*
G04 #@! TA.AperFunction,SMDPad,CuDef*
%ADD14RoundRect,0.162500X0.837500X0.162500X-0.837500X0.162500X-0.837500X-0.162500X0.837500X-0.162500X0*%
G04 #@! TD*
G04 #@! TA.AperFunction,SMDPad,CuDef*
%ADD15R,6.000000X2.000000*%
G04 #@! TD*
G04 #@! TA.AperFunction,ComponentPad*
%ADD16R,1.700000X1.700000*%
G04 #@! TD*
G04 #@! TA.AperFunction,ComponentPad*
%ADD17O,1.700000X1.700000*%
G04 #@! TD*
G04 #@! TA.AperFunction,ComponentPad*
%ADD18C,1.400000*%
G04 #@! TD*
G04 #@! TA.AperFunction,ComponentPad*
%ADD19O,1.400000X1.400000*%
G04 #@! TD*
G04 #@! TA.AperFunction,SMDPad,CuDef*
%ADD20FreePoly0,180.000000*%
G04 #@! TD*
G04 #@! TA.AperFunction,SMDPad,CuDef*
%ADD21FreePoly0,0.000000*%
G04 #@! TD*
G04 #@! TA.AperFunction,ComponentPad*
%ADD22C,2.200000*%
G04 #@! TD*
G04 #@! TA.AperFunction,ViaPad*
%ADD23C,0.800000*%
G04 #@! TD*
G04 #@! TA.AperFunction,Conductor*
%ADD24C,0.500000*%
G04 #@! TD*
G04 #@! TA.AperFunction,Conductor*
%ADD25C,0.250000*%
G04 #@! TD*
G04 APERTURE END LIST*
D10*
X180044888Y-91500000D03*
D11*
X182044888Y-91500000D03*
X253500000Y-92000000D03*
X253500000Y-87000000D03*
X176000000Y-110500000D03*
X181000000Y-110500000D03*
D12*
X216750000Y-96000000D03*
X214750000Y-96000000D03*
X212750000Y-96000000D03*
X210750000Y-96000000D03*
X208750000Y-96000000D03*
D13*
X205400000Y-86000000D03*
X220100000Y-86000000D03*
D14*
X180420000Y-105950000D03*
X180420000Y-105000000D03*
X180420000Y-104050000D03*
X177000000Y-104050000D03*
X177000000Y-105950000D03*
D15*
X169500000Y-102500000D03*
X169500000Y-100000000D03*
X169500000Y-97500000D03*
D16*
X225300000Y-88000000D03*
D17*
X227840000Y-88000000D03*
X230380000Y-88000000D03*
X232920000Y-88000000D03*
X235460000Y-88000000D03*
X238000000Y-88000000D03*
X240540000Y-88000000D03*
D18*
X245000000Y-86000000D03*
D19*
X245000000Y-93620000D03*
D20*
X278660000Y-91380000D03*
X276120000Y-91380000D03*
X273580000Y-91380000D03*
X271040000Y-91380000D03*
X268500000Y-91380000D03*
X265960000Y-91380000D03*
X263420000Y-91380000D03*
X260880000Y-91380000D03*
X258340000Y-91380000D03*
D21*
X258340000Y-106620000D03*
X260880000Y-106620000D03*
X263420000Y-106620000D03*
X265960000Y-106620000D03*
X268500000Y-106620000D03*
X271040000Y-106620000D03*
X273580000Y-106620000D03*
X276120000Y-106620000D03*
X278660000Y-106620000D03*
D18*
X175500000Y-102310000D03*
D19*
X175500000Y-94690000D03*
D12*
X196250000Y-96000000D03*
X194250000Y-96000000D03*
X192250000Y-96000000D03*
X190250000Y-96000000D03*
X188250000Y-96000000D03*
D13*
X184900000Y-86000000D03*
X199600000Y-86000000D03*
D18*
X249000000Y-86000000D03*
D19*
X249000000Y-93620000D03*
D15*
X38500000Y-102500000D03*
X38500000Y-100000000D03*
X38500000Y-97500000D03*
D22*
X232200000Y-109500000D03*
X225850000Y-106960000D03*
X213150000Y-109500000D03*
X206800000Y-106960000D03*
X187750000Y-106960000D03*
X194100000Y-109500000D03*
X251250000Y-109500000D03*
X244900000Y-106960000D03*
D23*
X182275000Y-103987347D03*
X39000000Y-104500000D03*
X169500000Y-105000000D03*
X173750000Y-103750000D03*
X184500000Y-89000000D03*
X200500000Y-89500000D03*
X205000000Y-89500000D03*
X221000000Y-89000000D03*
X276000000Y-86000000D03*
X46500000Y-97500000D03*
X165500000Y-100000000D03*
D24*
X182212347Y-104050000D02*
X182275000Y-103987347D01*
X180420000Y-104050000D02*
X182212347Y-104050000D01*
X38500000Y-104000000D02*
X39000000Y-104500000D01*
X38500000Y-102500000D02*
X38500000Y-104000000D01*
X169500000Y-102500000D02*
X169500000Y-105000000D01*
X173750000Y-103750000D02*
X173500000Y-103500000D01*
X175500000Y-105500000D02*
X173750000Y-103750000D01*
X184900000Y-88600000D02*
X184500000Y-89000000D01*
X184900000Y-86000000D02*
X184900000Y-88600000D01*
X199600000Y-88600000D02*
X200500000Y-89500000D01*
X199600000Y-86000000D02*
X199600000Y-88600000D01*
X205400000Y-89100000D02*
X205000000Y-89500000D01*
X205400000Y-86000000D02*
X205400000Y-89100000D01*
X220100000Y-88100000D02*
X221000000Y-89000000D01*
X220100000Y-86000000D02*
X220100000Y-88100000D01*
X276120000Y-86120000D02*
X276000000Y-86000000D01*
X276120000Y-91380000D02*
X276120000Y-86120000D01*
X170500000Y-97500000D02*
X47500000Y-97500000D01*
X47500000Y-97500000D02*
X38500000Y-97500000D01*
X46500000Y-97500000D02*
X47500000Y-97500000D01*
X217000000Y-96000000D02*
X216500000Y-96000000D01*
X225000000Y-88000000D02*
X225500000Y-88000000D01*
X216500000Y-94500000D02*
X217000000Y-95000000D01*
X196250000Y-96000000D02*
X198250000Y-94000000D01*
X216500000Y-96000000D02*
X224500000Y-88000000D01*
X198250000Y-94000000D02*
X203500000Y-94000000D01*
X203500000Y-94000000D02*
X216000000Y-94000000D01*
X216000000Y-94000000D02*
X216500000Y-94500000D01*
X217000000Y-95000000D02*
X217000000Y-96000000D01*
X224500000Y-88000000D02*
X225000000Y-88000000D01*
X273580000Y-91380000D02*
X273580000Y-88580000D01*
X273580000Y-88580000D02*
X272000000Y-87000000D01*
X253500000Y-87000000D02*
X272000000Y-87000000D01*
X245000000Y-86000000D02*
X249000000Y-86000000D01*
X226500000Y-86000000D02*
X245000000Y-86000000D01*
X252500000Y-86000000D02*
X253500000Y-87000000D01*
X225300000Y-87200000D02*
X226500000Y-86000000D01*
X225300000Y-88000000D02*
X225300000Y-87200000D01*
X249000000Y-86000000D02*
X252500000Y-86000000D01*
D25*
X258000000Y-93500000D02*
X249000000Y-93500000D01*
X258340000Y-91380000D02*
X258340000Y-93160000D01*
X258340000Y-93160000D02*
X258000000Y-93500000D01*
X260880000Y-91380000D02*
X260880000Y-93620000D01*
X260880000Y-93620000D02*
X259500000Y-95000000D01*
X259500000Y-95000000D02*
X246380000Y-95000000D01*
X246380000Y-95000000D02*
X245000000Y-93620000D01*
X268500000Y-91380000D02*
X268500000Y-94500000D01*
X268500000Y-94500000D02*
X267000000Y-96000000D01*
X267000000Y-96000000D02*
X223863604Y-96000000D01*
X223863604Y-96000000D02*
X221863604Y-98000000D01*
X221863604Y-98000000D02*
X211000000Y-98000000D01*
X211000000Y-98000000D02*
X210750000Y-97750000D01*
X210750000Y-97750000D02*
X210750000Y-96000000D01*
X271000000Y-95000000D02*
X271000000Y-90500000D01*
X269500000Y-96500000D02*
X271000000Y-95000000D01*
X260000000Y-96500000D02*
X269500000Y-96500000D01*
X245500000Y-92000000D02*
X247500000Y-92000000D01*
X235460000Y-91460000D02*
X236000000Y-92000000D01*
X247500000Y-92000000D02*
X249000000Y-93500000D01*
X235460000Y-88000000D02*
X235460000Y-91460000D01*
X236000000Y-92000000D02*
X245500000Y-92000000D01*
X234500000Y-93500000D02*
X245000000Y-93500000D01*
X232920000Y-88000000D02*
X232920000Y-91920000D01*
X232920000Y-91920000D02*
X234500000Y-93500000D01*
X190250000Y-97750000D02*
X190250000Y-96000000D01*
X260000000Y-96500000D02*
X224000000Y-96500000D01*
X224000000Y-96500000D02*
X222000000Y-98500000D01*
X222000000Y-98500000D02*
X191000000Y-98500000D01*
X191000000Y-98500000D02*
X190250000Y-97750000D01*
D24*
X182500000Y-106500000D02*
X182000000Y-106000000D01*
X182500000Y-108000000D02*
X182500000Y-106500000D01*
X181000000Y-110500000D02*
X181000000Y-109500000D01*
X181000000Y-109500000D02*
X182500000Y-108000000D01*
X182000000Y-106000000D02*
X180500000Y-106000000D01*
X175950000Y-105950000D02*
X175500000Y-105500000D01*
X176000000Y-106000000D02*
X175500000Y-105500000D01*
X176000000Y-110500000D02*
X176000000Y-106000000D01*
X173500000Y-103500000D02*
X173500000Y-101500000D01*
X177000000Y-105950000D02*
X175950000Y-105950000D01*
X173500000Y-101500000D02*
X175500000Y-99500000D01*
X175500000Y-99500000D02*
X180000000Y-99500000D01*
D25*
X169500000Y-100000000D02*
X165500000Y-100000000D01*
X175500000Y-95000000D02*
X175500000Y-94500000D01*
X174000000Y-100000000D02*
X175500000Y-98500000D01*
X169500000Y-100000000D02*
X174000000Y-100000000D01*
X175500000Y-98500000D02*
X175500000Y-95000000D01*
X175000000Y-103500000D02*
X175000000Y-103000000D01*
X175000000Y-103000000D02*
X175500000Y-102500000D01*
X175550000Y-104050000D02*
X175500000Y-104000000D01*
X175500000Y-104000000D02*
X175000000Y-103500000D01*
X177000000Y-104050000D02*
X175550000Y-104050000D01*
D24*
X224500000Y-97500000D02*
X222500000Y-99500000D01*
X278660000Y-95340000D02*
X276500000Y-97500000D01*
X276500000Y-97500000D02*
X224500000Y-97500000D01*
X176500000Y-91500000D02*
X170500000Y-97500000D01*
X222500000Y-99500000D02*
X180000000Y-99500000D01*
X278660000Y-91380000D02*
X278660000Y-95340000D01*
X180000000Y-99500000D02*
X180000000Y-91500000D01*
X180000000Y-91500000D02*
X176500000Y-91500000D01*
D25*
X182500000Y-105000000D02*
X180500000Y-105000000D01*
X183000000Y-104500000D02*
X182500000Y-105000000D01*
X184000000Y-101500000D02*
X183000000Y-102500000D01*
X183000000Y-102500000D02*
X183000000Y-104500000D01*
X225500000Y-101500000D02*
X184000000Y-101500000D01*
X257000000Y-104500000D02*
X255000000Y-102500000D01*
X257000000Y-104500000D02*
X254000000Y-101500000D01*
X251000000Y-101500000D02*
X225500000Y-101500000D01*
X267500000Y-104500000D02*
X257000000Y-104500000D01*
X254000000Y-101500000D02*
X251000000Y-101500000D01*
X268500000Y-105500000D02*
X267500000Y-104500000D01*
X268500000Y-106620000D02*
X268500000Y-105500000D01*
X265960000Y-106620000D02*
X266000000Y-106660000D01*
X262500000Y-113000000D02*
X254000000Y-113000000D01*
X266000000Y-109500000D02*
X262500000Y-113000000D01*
X266000000Y-106660000D02*
X266000000Y-109500000D01*
X263420000Y-106620000D02*
X263420000Y-110080000D01*
X263420000Y-110080000D02*
X261000000Y-112500000D01*
X261000000Y-112500000D02*
X209000000Y-112500000D01*
X209000000Y-112500000D02*
X206800000Y-110300000D01*
X206800000Y-110300000D02*
X206800000Y-106960000D01*
X260880000Y-106620000D02*
X260880000Y-110120000D01*
X260880000Y-110120000D02*
X258950000Y-112050000D01*
X258950000Y-112050000D02*
X227050000Y-112050000D01*
X227050000Y-112050000D02*
X227000000Y-112000000D01*
X227000000Y-112000000D02*
X226500000Y-112000000D01*
X226500000Y-112000000D02*
X225850000Y-111350000D01*
X225850000Y-111350000D02*
X225850000Y-106960000D01*
X258340000Y-106620000D02*
X258340000Y-108660000D01*
X258340000Y-108660000D02*
X255500000Y-111500000D01*
X244900000Y-110400000D02*
X244900000Y-106960000D01*
X255500000Y-111500000D02*
X246000000Y-111500000D01*
X246000000Y-111500000D02*
X244900000Y-110400000D01*
X244500000Y-113000000D02*
X201500000Y-113000000D01*
X201500000Y-113000000D02*
X254000000Y-113000000D01*
X187750000Y-108750000D02*
X192000000Y-113000000D01*
X192000000Y-113000000D02*
X244500000Y-113000000D01*
X187750000Y-106960000D02*
X187750000Y-108750000D01*
M02*
