M48
; DRILL file {KiCad 8.0.7} date 2025-07-02T14:54:44-0400
; FORMAT={-:-/ absolute / metric / decimal}
; #@! TF.CreationDate,2025-07-02T14:54:44-04:00
; #@! TF.GenerationSoftware,Kicad,Pcbnew,8.0.7
; #@! TF.FileFunction,Plated,1,2,PTH
FMAT,2
METRIC
; #@! TA.AperFunction,Plated,PTH,ViaDrill
T1C0.400
; #@! TA.AperFunction,Plated,PTH,ComponentDrill
T2C0.700
; #@! TA.AperFunction,Plated,PTH,ComponentDrill
T3C0.800
; #@! TA.AperFunction,Plated,PTH,ComponentDrill
T4C1.000
; #@! TA.AperFunction,Plated,PTH,ComponentDrill
T5C1.500
; #@! TA.AperFunction,Plated,PTH,ComponentDrill
T6C1.600
%
G90
G05
T1
X43.0Y-104.0
X46.5Y-97.0
X165.0Y-103.0
X169.5Y-106.0
X174.0Y-100.5
X193.5Y-90.5
X193.5Y-92.5
X201.5Y-93.0
X201.5Y-97.0
X276.0Y-86.0
T2
X177.69Y-92.0
X185.31Y-92.0
X244.0Y-86.0
X244.0Y-93.62
X248.5Y-85.88
X248.5Y-93.5
T3
X176.5Y-97.045
X176.5Y-99.045
X195.5Y-88.0
X195.5Y-93.0
X253.5Y-87.0
X253.5Y-92.0
T4
X178.0Y-102.5
X180.0Y-102.5
X182.0Y-102.5
X184.0Y-102.5
X186.0Y-102.5
X198.0Y-102.5
X200.0Y-102.5
X202.0Y-102.5
X204.0Y-102.5
X206.0Y-102.5
X225.26Y-89.6
X227.8Y-89.6
X230.34Y-89.6
X232.88Y-89.6
X235.42Y-89.6
X237.96Y-89.6
X240.5Y-89.6
T5
X188.0Y-99.0
X194.35Y-101.54
X207.1Y-99.0
X213.45Y-101.54
X224.95Y-106.61
X231.3Y-109.15
X245.3Y-99.0
X251.65Y-101.54
T6
X177.15Y-112.5
X186.85Y-112.5
X197.15Y-112.5
X206.85Y-112.5
M30
