G04 #@! TF.GenerationSoftware,KiCad,Pcbnew,8.0.7*
G04 #@! TF.CreationDate,2025-07-02T14:54:47-04:00*
G04 #@! TF.ProjectId,Sum25_Wand_v2,53756d32-355f-4576-916e-645f76322e6b,rev?*
G04 #@! TF.SameCoordinates,Original*
G04 #@! TF.FileFunction,Soldermask,Bot*
G04 #@! TF.FilePolarity,Negative*
%FSLAX46Y46*%
G04 Gerber Fmt 4.6, Leading zero omitted, Abs format (unit mm)*
G04 Created by KiCad (PCBNEW 8.0.7) date 2025-07-02 14:54:47*
%MOMM*%
%LPD*%
G01*
G04 APERTURE LIST*
%ADD10C,1.400000*%
%ADD11O,1.400000X1.400000*%
%ADD12C,1.800000*%
%ADD13C,2.600000*%
%ADD14C,3.200000*%
%ADD15R,1.700000X1.700000*%
%ADD16O,1.700000X1.700000*%
%ADD17C,1.600000*%
%ADD18R,1.600000X1.600000*%
%ADD19R,6.000000X2.000000*%
%ADD20C,4.000000*%
%ADD21C,2.200000*%
G04 APERTURE END LIST*
D10*
X185310000Y-92000000D03*
D11*
X177690000Y-92000000D03*
D12*
X198000000Y-102500000D03*
X200000000Y-102500000D03*
X202000000Y-102500000D03*
X204000000Y-102500000D03*
X206000000Y-102500000D03*
D13*
X206850000Y-112500000D03*
X197150000Y-112500000D03*
D14*
X172500000Y-90500000D03*
D15*
X240500000Y-89600000D03*
D16*
X237960000Y-89600000D03*
X235420000Y-89600000D03*
X232880000Y-89600000D03*
X230340000Y-89600000D03*
X227800000Y-89600000D03*
X225260000Y-89600000D03*
D10*
X248500000Y-85880000D03*
D11*
X248500000Y-93500000D03*
D17*
X253500000Y-92000000D03*
X253500000Y-87000000D03*
D12*
X178000000Y-102500000D03*
X180000000Y-102500000D03*
X182000000Y-102500000D03*
X184000000Y-102500000D03*
X186000000Y-102500000D03*
D13*
X186850000Y-112500000D03*
X177150000Y-112500000D03*
D10*
X244000000Y-86000000D03*
D11*
X244000000Y-93620000D03*
D18*
X176500000Y-97044888D03*
D17*
X176500000Y-99044888D03*
D14*
X277500000Y-112000000D03*
D17*
X195500000Y-88000000D03*
X195500000Y-93000000D03*
D14*
X171500000Y-109000000D03*
D19*
X38500000Y-96750000D03*
X38500000Y-100000000D03*
X38500000Y-103250000D03*
X169500000Y-96750000D03*
X169500000Y-100000000D03*
X169500000Y-103250000D03*
D20*
X228760000Y-104070000D03*
D21*
X231300000Y-109150000D03*
X224950000Y-106610000D03*
D20*
X209640000Y-104080000D03*
D21*
X207100000Y-99000000D03*
X213450000Y-101540000D03*
D20*
X190540000Y-104080000D03*
D21*
X188000000Y-99000000D03*
X194350000Y-101540000D03*
D20*
X247840000Y-104080000D03*
D21*
X245300000Y-99000000D03*
X251650000Y-101540000D03*
M02*
