G04 #@! TF.GenerationSoftware,KiCad,Pcbnew,8.0.7*
G04 #@! TF.CreationDate,2025-07-02T14:54:47-04:00*
G04 #@! TF.ProjectId,Sum25_Wand_v2,53756d32-355f-4576-916e-645f76322e6b,rev?*
G04 #@! TF.SameCoordinates,Original*
G04 #@! TF.FileFunction,Soldermask,Top*
G04 #@! TF.FilePolarity,Negative*
%FSLAX46Y46*%
G04 Gerber Fmt 4.6, Leading zero omitted, Abs format (unit mm)*
G04 Created by KiCad (PCBNEW 8.0.7) date 2025-07-02 14:54:47*
%MOMM*%
%LPD*%
G01*
G04 APERTURE LIST*
G04 Aperture macros list*
%AMRoundRect*
0 Rectangle with rounded corners*
0 $1 Rounding radius*
0 $2 $3 $4 $5 $6 $7 $8 $9 X,Y pos of 4 corners*
0 Add a 4 corners polygon primitive as box body*
4,1,4,$2,$3,$4,$5,$6,$7,$8,$9,$2,$3,0*
0 Add four circle primitives for the rounded corners*
1,1,$1+$1,$2,$3*
1,1,$1+$1,$4,$5*
1,1,$1+$1,$6,$7*
1,1,$1+$1,$8,$9*
0 Add four rect primitives between the rounded corners*
20,1,$1+$1,$2,$3,$4,$5,0*
20,1,$1+$1,$4,$5,$6,$7,0*
20,1,$1+$1,$6,$7,$8,$9,0*
20,1,$1+$1,$8,$9,$2,$3,0*%
%AMFreePoly0*
4,1,11,0.600000,-3.000000,0.580902,-3.058779,0.530902,-3.095106,0.500000,-3.100000,-0.500000,-3.100000,-0.558779,-3.080902,-0.595106,-3.030902,-0.600000,-3.000000,-0.600000,1.000000,0.600000,1.000000,0.600000,-3.000000,0.600000,-3.000000,$1*%
G04 Aperture macros list end*
%ADD10C,1.400000*%
%ADD11O,1.400000X1.400000*%
%ADD12C,1.800000*%
%ADD13C,2.600000*%
%ADD14RoundRect,0.162500X0.837500X0.162500X-0.837500X0.162500X-0.837500X-0.162500X0.837500X-0.162500X0*%
%ADD15R,6.000000X2.000000*%
%ADD16C,3.200000*%
%ADD17R,1.700000X1.700000*%
%ADD18O,1.700000X1.700000*%
%ADD19FreePoly0,180.000000*%
%ADD20FreePoly0,0.000000*%
%ADD21C,1.600000*%
%ADD22R,1.600000X1.600000*%
%ADD23C,4.000000*%
%ADD24C,2.200000*%
G04 APERTURE END LIST*
D10*
X185310000Y-92000000D03*
D11*
X177690000Y-92000000D03*
D12*
X198000000Y-102500000D03*
X200000000Y-102500000D03*
X202000000Y-102500000D03*
X204000000Y-102500000D03*
X206000000Y-102500000D03*
D13*
X206850000Y-112500000D03*
X197150000Y-112500000D03*
D14*
X191710000Y-92450000D03*
X191710000Y-91500000D03*
X191710000Y-90550000D03*
X188290000Y-90550000D03*
X188290000Y-92450000D03*
D15*
X169500000Y-103250000D03*
X169500000Y-100000000D03*
X169500000Y-96750000D03*
D16*
X172500000Y-90500000D03*
D17*
X240500000Y-89600000D03*
D18*
X237960000Y-89600000D03*
X235420000Y-89600000D03*
X232880000Y-89600000D03*
X230340000Y-89600000D03*
X227800000Y-89600000D03*
X225260000Y-89600000D03*
D10*
X248500000Y-85880000D03*
D11*
X248500000Y-93500000D03*
D19*
X278660000Y-91380000D03*
X276120000Y-91380000D03*
X273580000Y-91380000D03*
X271040000Y-91380000D03*
X268500000Y-91380000D03*
X265960000Y-91380000D03*
X263420000Y-91380000D03*
X260880000Y-91380000D03*
X258340000Y-91380000D03*
D20*
X258340000Y-106620000D03*
X260880000Y-106620000D03*
X263420000Y-106620000D03*
X265960000Y-106620000D03*
X268500000Y-106620000D03*
X271040000Y-106620000D03*
X273580000Y-106620000D03*
X276120000Y-106620000D03*
X278660000Y-106620000D03*
D21*
X253500000Y-92000000D03*
X253500000Y-87000000D03*
D12*
X178000000Y-102500000D03*
X180000000Y-102500000D03*
X182000000Y-102500000D03*
X184000000Y-102500000D03*
X186000000Y-102500000D03*
D13*
X186850000Y-112500000D03*
X177150000Y-112500000D03*
D10*
X244000000Y-86000000D03*
D11*
X244000000Y-93620000D03*
D15*
X38500000Y-103250000D03*
X38500000Y-100000000D03*
X38500000Y-96750000D03*
D22*
X176500000Y-97044888D03*
D21*
X176500000Y-99044888D03*
D16*
X277500000Y-112000000D03*
D21*
X195500000Y-88000000D03*
X195500000Y-93000000D03*
D16*
X171500000Y-109000000D03*
D23*
X228760000Y-104070000D03*
D24*
X231300000Y-109150000D03*
X224950000Y-106610000D03*
D23*
X209640000Y-104080000D03*
D24*
X207100000Y-99000000D03*
X213450000Y-101540000D03*
D23*
X190540000Y-104080000D03*
D24*
X188000000Y-99000000D03*
X194350000Y-101540000D03*
D23*
X247840000Y-104080000D03*
D24*
X245300000Y-99000000D03*
X251650000Y-101540000D03*
M02*
