G04 #@! TF.GenerationSoftware,KiCad,Pcbnew,8.0.7*
G04 #@! TF.CreationDate,2025-06-17T21:23:17-04:00*
G04 #@! TF.ProjectId,ESP32_MIDI_Summer25_Wand,45535033-325f-44d4-9944-495f53756d6d,rev?*
G04 #@! TF.SameCoordinates,Original*
G04 #@! TF.FileFunction,Soldermask,Bot*
G04 #@! TF.FilePolarity,Negative*
%FSLAX46Y46*%
G04 Gerber Fmt 4.6, Leading zero omitted, Abs format (unit mm)*
G04 Created by KiCad (PCBNEW 8.0.7) date 2025-06-17 21:23:17*
%MOMM*%
%LPD*%
G01*
G04 APERTURE LIST*
%ADD10R,1.600000X1.600000*%
%ADD11C,1.600000*%
%ADD12C,1.800000*%
%ADD13R,6.000000X2.000000*%
%ADD14C,3.200000*%
%ADD15R,1.700000X1.700000*%
%ADD16O,1.700000X1.700000*%
%ADD17C,1.400000*%
%ADD18O,1.400000X1.400000*%
%ADD19C,1.700000*%
%ADD20C,4.000000*%
%ADD21C,2.200000*%
G04 APERTURE END LIST*
D10*
X180044888Y-91500000D03*
D11*
X182044888Y-91500000D03*
X253500000Y-92000000D03*
X253500000Y-87000000D03*
X176000000Y-110500000D03*
X181000000Y-110500000D03*
D12*
X216750000Y-96000000D03*
X214750000Y-96000000D03*
X212750000Y-96000000D03*
X210750000Y-96000000D03*
X208750000Y-96000000D03*
D13*
X38500000Y-97500000D03*
X38500000Y-100000000D03*
X38500000Y-102500000D03*
X169500000Y-97500000D03*
X169500000Y-100000000D03*
X169500000Y-102500000D03*
D14*
X172500000Y-90500000D03*
D15*
X225300000Y-88000000D03*
D16*
X227840000Y-88000000D03*
X230380000Y-88000000D03*
X232920000Y-88000000D03*
X235460000Y-88000000D03*
X238000000Y-88000000D03*
X240540000Y-88000000D03*
D17*
X245000000Y-86000000D03*
D18*
X245000000Y-93620000D03*
D17*
X175500000Y-102310000D03*
D18*
X175500000Y-94690000D03*
D12*
X196250000Y-96000000D03*
X194250000Y-96000000D03*
X192250000Y-96000000D03*
X190250000Y-96000000D03*
X188250000Y-96000000D03*
D17*
X249000000Y-86000000D03*
D18*
X249000000Y-93620000D03*
D14*
X277500000Y-112000000D03*
X171500000Y-109000000D03*
D19*
X224580000Y-104420000D03*
D20*
X229660000Y-104420000D03*
D19*
X234740000Y-104420000D03*
D21*
X232200000Y-109500000D03*
X225850000Y-106960000D03*
D19*
X205530000Y-104420000D03*
D20*
X210610000Y-104420000D03*
D19*
X215690000Y-104420000D03*
D21*
X213150000Y-109500000D03*
X206800000Y-106960000D03*
X187750000Y-106960000D03*
X194100000Y-109500000D03*
D19*
X196640000Y-104420000D03*
D20*
X191560000Y-104420000D03*
D19*
X186480000Y-104420000D03*
X243630000Y-104420000D03*
D20*
X248710000Y-104420000D03*
D19*
X253790000Y-104420000D03*
D21*
X251250000Y-109500000D03*
X244900000Y-106960000D03*
M02*
