G04 #@! TF.GenerationSoftware,KiCad,Pcbnew,8.0.7*
G04 #@! TF.CreationDate,2025-06-18T23:26:36-07:00*
G04 #@! TF.ProjectId,ESP32_MIDI_Summer25_GTR.kicad_pro,45535033-325f-44d4-9944-495f53756d6d,rev?*
G04 #@! TF.SameCoordinates,Original*
G04 #@! TF.FileFunction,Copper,L1,Top*
G04 #@! TF.FilePolarity,Positive*
%FSLAX46Y46*%
G04 Gerber Fmt 4.6, Leading zero omitted, Abs format (unit mm)*
G04 Created by KiCad (PCBNEW 8.0.7) date 2025-06-18 23:26:36*
%MOMM*%
%LPD*%
G01*
G04 APERTURE LIST*
G04 Aperture macros list*
%AMRoundRect*
0 Rectangle with rounded corners*
0 $1 Rounding radius*
0 $2 $3 $4 $5 $6 $7 $8 $9 X,Y pos of 4 corners*
0 Add a 4 corners polygon primitive as box body*
4,1,4,$2,$3,$4,$5,$6,$7,$8,$9,$2,$3,0*
0 Add four circle primitives for the rounded corners*
1,1,$1+$1,$2,$3*
1,1,$1+$1,$4,$5*
1,1,$1+$1,$6,$7*
1,1,$1+$1,$8,$9*
0 Add four rect primitives between the rounded corners*
20,1,$1+$1,$2,$3,$4,$5,0*
20,1,$1+$1,$4,$5,$6,$7,0*
20,1,$1+$1,$6,$7,$8,$9,0*
20,1,$1+$1,$8,$9,$2,$3,0*%
G04 Aperture macros list end*
G04 #@! TA.AperFunction,ComponentPad*
%ADD10R,1.800000X1.800000*%
G04 #@! TD*
G04 #@! TA.AperFunction,ComponentPad*
%ADD11C,1.800000*%
G04 #@! TD*
G04 #@! TA.AperFunction,ComponentPad*
%ADD12RoundRect,0.750000X0.750000X-1.250000X0.750000X1.250000X-0.750000X1.250000X-0.750000X-1.250000X0*%
G04 #@! TD*
G04 #@! TA.AperFunction,ComponentPad*
%ADD13RoundRect,0.249900X0.400100X-0.275100X0.400100X0.275100X-0.400100X0.275100X-0.400100X-0.275100X0*%
G04 #@! TD*
G04 #@! TA.AperFunction,ComponentPad*
%ADD14O,1.300000X1.050000*%
G04 #@! TD*
G04 #@! TA.AperFunction,ComponentPad*
%ADD15RoundRect,0.249900X-0.400100X0.275100X-0.400100X-0.275100X0.400100X-0.275100X0.400100X0.275100X0*%
G04 #@! TD*
G04 #@! TA.AperFunction,ComponentPad*
%ADD16C,6.800000*%
G04 #@! TD*
G04 #@! TA.AperFunction,ConnectorPad*
%ADD17C,11.000000*%
G04 #@! TD*
G04 #@! TA.AperFunction,ComponentPad*
%ADD18C,1.600000*%
G04 #@! TD*
G04 #@! TA.AperFunction,ComponentPad*
%ADD19RoundRect,0.250000X0.600000X-0.600000X0.600000X0.600000X-0.600000X0.600000X-0.600000X-0.600000X0*%
G04 #@! TD*
G04 #@! TA.AperFunction,ComponentPad*
%ADD20C,1.700000*%
G04 #@! TD*
G04 #@! TA.AperFunction,ComponentPad*
%ADD21C,1.400000*%
G04 #@! TD*
G04 #@! TA.AperFunction,ComponentPad*
%ADD22O,1.400000X1.400000*%
G04 #@! TD*
G04 #@! TA.AperFunction,ViaPad*
%ADD23C,0.800000*%
G04 #@! TD*
G04 #@! TA.AperFunction,Conductor*
%ADD24C,0.500000*%
G04 #@! TD*
G04 APERTURE END LIST*
D10*
X56500000Y-112000000D03*
D11*
X59000000Y-112000000D03*
X61500000Y-112000000D03*
D12*
X54600000Y-105000000D03*
X63400000Y-105000000D03*
D13*
X98000000Y-83300000D03*
D14*
X98000000Y-82000000D03*
X98000000Y-80700000D03*
D15*
X208000000Y-80700000D03*
D14*
X208000000Y-82000000D03*
X208000000Y-83300000D03*
D16*
X78000000Y-105000000D03*
D17*
X78000000Y-105000000D03*
D10*
X56500000Y-90000000D03*
D11*
X59000000Y-90000000D03*
X61500000Y-90000000D03*
D12*
X63400000Y-83000000D03*
X54600000Y-82950000D03*
D16*
X78000000Y-83000000D03*
D17*
X78000000Y-83000000D03*
D18*
X209500000Y-86500000D03*
X214500000Y-86500000D03*
D19*
X174000000Y-108000000D03*
D20*
X174000000Y-105460000D03*
X171460000Y-108000000D03*
X171460000Y-105460000D03*
X168920000Y-108000000D03*
X168920000Y-105460000D03*
X166380000Y-108000000D03*
X166380000Y-105460000D03*
X163840000Y-108000000D03*
X163840000Y-105460000D03*
D21*
X189310000Y-105500000D03*
D22*
X181690000Y-105500000D03*
D18*
X96500000Y-88500000D03*
X91500000Y-88500000D03*
D21*
X189310000Y-108500000D03*
D22*
X181690000Y-108500000D03*
D23*
X125500000Y-79000000D03*
X128000000Y-76500000D03*
D24*
X116000000Y-79000000D02*
X125500000Y-79000000D01*
X98000000Y-95300000D02*
X99700000Y-95300000D01*
X99700000Y-95300000D02*
X116000000Y-79000000D01*
X61500000Y-91000000D02*
X64500000Y-94000000D01*
X64500000Y-94000000D02*
X98000000Y-94000000D01*
X58000000Y-108500000D02*
X58000000Y-96500000D01*
X61500000Y-112000000D02*
X58000000Y-108500000D01*
X61500000Y-90000000D02*
X61500000Y-91000000D01*
X61500000Y-93000000D02*
X61500000Y-90000000D01*
X58000000Y-96500000D02*
X61500000Y-93000000D01*
G04 #@! TA.AperFunction,Conductor*
G36*
X164954925Y-106221371D02*
G01*
X165008120Y-106145404D01*
X165062697Y-106101780D01*
X165132196Y-106094588D01*
X165194550Y-106126111D01*
X165211268Y-106145404D01*
X165341505Y-106331401D01*
X165341506Y-106331402D01*
X165508597Y-106498493D01*
X165508603Y-106498498D01*
X165694158Y-106628425D01*
X165737783Y-106683002D01*
X165744977Y-106752500D01*
X165713454Y-106814855D01*
X165694158Y-106831575D01*
X165508597Y-106961505D01*
X165341508Y-107128594D01*
X165211269Y-107314595D01*
X165156692Y-107358219D01*
X165087193Y-107365412D01*
X165024839Y-107333890D01*
X165008119Y-107314595D01*
X164954925Y-107238626D01*
X164322962Y-107870590D01*
X164305925Y-107807007D01*
X164240099Y-107692993D01*
X164147007Y-107599901D01*
X164032993Y-107534075D01*
X163969409Y-107517037D01*
X164601372Y-106885073D01*
X164524969Y-106831575D01*
X164481344Y-106776998D01*
X164474152Y-106707499D01*
X164505674Y-106645144D01*
X164524968Y-106628426D01*
X164601371Y-106574925D01*
X163969408Y-105942962D01*
X164032993Y-105925925D01*
X164147007Y-105860099D01*
X164240099Y-105767007D01*
X164305925Y-105652993D01*
X164322962Y-105589408D01*
X164954925Y-106221371D01*
G37*
G04 #@! TD.AperFunction*
G04 #@! TA.AperFunction,Conductor*
G36*
X225943039Y-70019685D02*
G01*
X225988794Y-70072489D01*
X226000000Y-70124000D01*
X226000000Y-117876000D01*
X225980315Y-117943039D01*
X225927511Y-117988794D01*
X225876000Y-118000000D01*
X90108239Y-118000000D01*
X90041200Y-117980315D01*
X89995445Y-117927511D01*
X89984245Y-117877204D01*
X89945425Y-113878712D01*
X152149500Y-113878712D01*
X152149500Y-114121288D01*
X152181162Y-114361789D01*
X152192133Y-114402732D01*
X152243947Y-114596104D01*
X152336773Y-114820205D01*
X152336776Y-114820212D01*
X152458064Y-115030289D01*
X152458066Y-115030292D01*
X152458067Y-115030293D01*
X152605733Y-115222736D01*
X152605739Y-115222743D01*
X152777256Y-115394260D01*
X152777262Y-115394265D01*
X152969711Y-115541936D01*
X153179788Y-115663224D01*
X153403900Y-115756054D01*
X153638211Y-115818838D01*
X153818586Y-115842584D01*
X153878711Y-115850500D01*
X153878712Y-115850500D01*
X154121289Y-115850500D01*
X154169388Y-115844167D01*
X154361789Y-115818838D01*
X154596100Y-115756054D01*
X154820212Y-115663224D01*
X155030289Y-115541936D01*
X155222738Y-115394265D01*
X155394265Y-115222738D01*
X155541936Y-115030289D01*
X155663224Y-114820212D01*
X155756054Y-114596100D01*
X155818838Y-114361789D01*
X155850500Y-114121288D01*
X155850500Y-113878712D01*
X182149500Y-113878712D01*
X182149500Y-114121288D01*
X182181162Y-114361789D01*
X182192133Y-114402732D01*
X182243947Y-114596104D01*
X182336773Y-114820205D01*
X182336776Y-114820212D01*
X182458064Y-115030289D01*
X182458066Y-115030292D01*
X182458067Y-115030293D01*
X182605733Y-115222736D01*
X182605739Y-115222743D01*
X182777256Y-115394260D01*
X182777262Y-115394265D01*
X182969711Y-115541936D01*
X183179788Y-115663224D01*
X183403900Y-115756054D01*
X183638211Y-115818838D01*
X183818586Y-115842584D01*
X183878711Y-115850500D01*
X183878712Y-115850500D01*
X184121289Y-115850500D01*
X184169388Y-115844167D01*
X184361789Y-115818838D01*
X184596100Y-115756054D01*
X184820212Y-115663224D01*
X185030289Y-115541936D01*
X185222738Y-115394265D01*
X185394265Y-115222738D01*
X185541936Y-115030289D01*
X185663224Y-114820212D01*
X185756054Y-114596100D01*
X185818838Y-114361789D01*
X185850500Y-114121288D01*
X185850500Y-113878712D01*
X185848719Y-113865186D01*
X219599500Y-113865186D01*
X219599500Y-114134813D01*
X219629686Y-114402719D01*
X219629688Y-114402731D01*
X219689684Y-114665594D01*
X219689687Y-114665602D01*
X219778734Y-114920082D01*
X219895714Y-115162994D01*
X219895716Y-115162997D01*
X220039162Y-115391289D01*
X220207266Y-115602085D01*
X220397915Y-115792734D01*
X220608711Y-115960838D01*
X220837003Y-116104284D01*
X221079921Y-116221267D01*
X221271049Y-116288145D01*
X221334397Y-116310312D01*
X221334405Y-116310315D01*
X221334408Y-116310315D01*
X221334409Y-116310316D01*
X221597268Y-116370312D01*
X221865187Y-116400499D01*
X221865188Y-116400500D01*
X221865191Y-116400500D01*
X222134812Y-116400500D01*
X222134812Y-116400499D01*
X222402732Y-116370312D01*
X222665591Y-116310316D01*
X222920079Y-116221267D01*
X223162997Y-116104284D01*
X223391289Y-115960838D01*
X223602085Y-115792734D01*
X223792734Y-115602085D01*
X223960838Y-115391289D01*
X224104284Y-115162997D01*
X224221267Y-114920079D01*
X224310316Y-114665591D01*
X224370312Y-114402732D01*
X224400500Y-114134809D01*
X224400500Y-113865191D01*
X224370312Y-113597268D01*
X224310316Y-113334409D01*
X224221267Y-113079921D01*
X224104284Y-112837003D01*
X223960838Y-112608711D01*
X223792734Y-112397915D01*
X223602085Y-112207266D01*
X223391289Y-112039162D01*
X223162997Y-111895716D01*
X223162994Y-111895714D01*
X222920082Y-111778734D01*
X222665602Y-111689687D01*
X222665594Y-111689684D01*
X222468446Y-111644687D01*
X222402732Y-111629688D01*
X222402728Y-111629687D01*
X222402719Y-111629686D01*
X222134813Y-111599500D01*
X222134809Y-111599500D01*
X221865191Y-111599500D01*
X221865186Y-111599500D01*
X221597280Y-111629686D01*
X221597268Y-111629688D01*
X221334405Y-111689684D01*
X221334397Y-111689687D01*
X221079917Y-111778734D01*
X220837005Y-111895714D01*
X220608712Y-112039161D01*
X220397915Y-112207265D01*
X220207265Y-112397915D01*
X220039161Y-112608712D01*
X219895714Y-112837005D01*
X219778734Y-113079917D01*
X219689687Y-113334397D01*
X219689684Y-113334405D01*
X219629688Y-113597268D01*
X219629686Y-113597280D01*
X219599500Y-113865186D01*
X185848719Y-113865186D01*
X185818838Y-113638211D01*
X185756054Y-113403900D01*
X185663224Y-113179788D01*
X185541936Y-112969711D01*
X185394265Y-112777262D01*
X185394260Y-112777256D01*
X185222743Y-112605739D01*
X185222736Y-112605733D01*
X185030293Y-112458067D01*
X185030292Y-112458066D01*
X185030289Y-112458064D01*
X184820212Y-112336776D01*
X184820205Y-112336773D01*
X184596104Y-112243947D01*
X184361785Y-112181161D01*
X184121289Y-112149500D01*
X184121288Y-112149500D01*
X183878712Y-112149500D01*
X183878711Y-112149500D01*
X183638214Y-112181161D01*
X183403895Y-112243947D01*
X183179794Y-112336773D01*
X183179785Y-112336777D01*
X182969706Y-112458067D01*
X182777263Y-112605733D01*
X182777256Y-112605739D01*
X182605739Y-112777256D01*
X182605733Y-112777263D01*
X182458067Y-112969706D01*
X182336777Y-113179785D01*
X182336773Y-113179794D01*
X182243947Y-113403895D01*
X182181161Y-113638214D01*
X182151281Y-113865186D01*
X182149500Y-113878712D01*
X155850500Y-113878712D01*
X155818838Y-113638211D01*
X155756054Y-113403900D01*
X155663224Y-113179788D01*
X155541936Y-112969711D01*
X155394265Y-112777262D01*
X155394260Y-112777256D01*
X155222743Y-112605739D01*
X155222736Y-112605733D01*
X155030293Y-112458067D01*
X155030292Y-112458066D01*
X155030289Y-112458064D01*
X154820212Y-112336776D01*
X154820205Y-112336773D01*
X154596104Y-112243947D01*
X154361785Y-112181161D01*
X154121289Y-112149500D01*
X154121288Y-112149500D01*
X153878712Y-112149500D01*
X153878711Y-112149500D01*
X153638214Y-112181161D01*
X153403895Y-112243947D01*
X153179794Y-112336773D01*
X153179785Y-112336777D01*
X152969706Y-112458067D01*
X152777263Y-112605733D01*
X152777256Y-112605739D01*
X152605739Y-112777256D01*
X152605733Y-112777263D01*
X152458067Y-112969706D01*
X152336777Y-113179785D01*
X152336773Y-113179794D01*
X152243947Y-113403895D01*
X152181161Y-113638214D01*
X152151281Y-113865186D01*
X152149500Y-113878712D01*
X89945425Y-113878712D01*
X89848337Y-103878711D01*
X151149500Y-103878711D01*
X151149500Y-104121288D01*
X151178343Y-104340382D01*
X151181162Y-104361789D01*
X151196962Y-104420754D01*
X151243947Y-104596104D01*
X151325873Y-104793890D01*
X151336776Y-104820212D01*
X151458064Y-105030289D01*
X151458066Y-105030292D01*
X151458067Y-105030293D01*
X151605733Y-105222736D01*
X151605739Y-105222743D01*
X151777256Y-105394260D01*
X151777262Y-105394265D01*
X151969711Y-105541936D01*
X152179788Y-105663224D01*
X152403900Y-105756054D01*
X152638211Y-105818838D01*
X152818586Y-105842584D01*
X152878711Y-105850500D01*
X152878712Y-105850500D01*
X153121289Y-105850500D01*
X153169388Y-105844167D01*
X153361789Y-105818838D01*
X153596100Y-105756054D01*
X153820212Y-105663224D01*
X154030289Y-105541936D01*
X154137073Y-105459998D01*
X162484843Y-105459998D01*
X162484843Y-105460001D01*
X162505430Y-105695315D01*
X162505432Y-105695326D01*
X162566566Y-105923483D01*
X162566570Y-105923492D01*
X162666398Y-106137576D01*
X162725073Y-106221372D01*
X163357037Y-105589408D01*
X163374075Y-105652993D01*
X163439901Y-105767007D01*
X163532993Y-105860099D01*
X163647007Y-105925925D01*
X163710591Y-105942962D01*
X163078626Y-106574926D01*
X163155031Y-106628426D01*
X163198656Y-106683003D01*
X163205848Y-106752501D01*
X163174326Y-106814856D01*
X163155030Y-106831575D01*
X163078627Y-106885072D01*
X163078626Y-106885073D01*
X163710591Y-107517037D01*
X163647007Y-107534075D01*
X163532993Y-107599901D01*
X163439901Y-107692993D01*
X163374075Y-107807007D01*
X163357037Y-107870590D01*
X162725073Y-107238626D01*
X162725073Y-107238627D01*
X162666400Y-107322421D01*
X162666399Y-107322423D01*
X162566570Y-107536507D01*
X162566566Y-107536516D01*
X162505432Y-107764673D01*
X162505430Y-107764684D01*
X162484843Y-107999998D01*
X162484843Y-108000001D01*
X162505430Y-108235315D01*
X162505432Y-108235326D01*
X162566566Y-108463483D01*
X162566570Y-108463492D01*
X162666398Y-108677576D01*
X162725073Y-108761372D01*
X163357037Y-108129408D01*
X163374075Y-108192993D01*
X163439901Y-108307007D01*
X163532993Y-108400099D01*
X163647007Y-108465925D01*
X163710591Y-108482962D01*
X163078626Y-109114926D01*
X163162417Y-109173598D01*
X163162421Y-109173600D01*
X163376507Y-109273429D01*
X163376516Y-109273433D01*
X163604673Y-109334567D01*
X163604684Y-109334569D01*
X163839998Y-109355157D01*
X163840002Y-109355157D01*
X164075315Y-109334569D01*
X164075326Y-109334567D01*
X164303483Y-109273433D01*
X164303492Y-109273429D01*
X164517580Y-109173599D01*
X164601371Y-109114925D01*
X163969408Y-108482962D01*
X164032993Y-108465925D01*
X164147007Y-108400099D01*
X164240099Y-108307007D01*
X164305925Y-108192993D01*
X164322962Y-108129408D01*
X164954925Y-108761371D01*
X165008120Y-108685404D01*
X165062697Y-108641780D01*
X165132196Y-108634588D01*
X165194550Y-108666111D01*
X165211268Y-108685404D01*
X165341505Y-108871401D01*
X165508599Y-109038495D01*
X165551675Y-109068657D01*
X165702165Y-109174032D01*
X165702167Y-109174033D01*
X165702170Y-109174035D01*
X165916337Y-109273903D01*
X166144592Y-109335063D01*
X166321034Y-109350500D01*
X166379999Y-109355659D01*
X166380000Y-109355659D01*
X166380001Y-109355659D01*
X166438966Y-109350500D01*
X166615408Y-109335063D01*
X166843663Y-109273903D01*
X167057830Y-109174035D01*
X167251401Y-109038495D01*
X167418495Y-108871401D01*
X167548425Y-108685842D01*
X167603002Y-108642217D01*
X167672500Y-108635023D01*
X167734855Y-108666546D01*
X167751575Y-108685842D01*
X167879109Y-108867980D01*
X167881505Y-108871401D01*
X168048599Y-109038495D01*
X168091675Y-109068657D01*
X168242165Y-109174032D01*
X168242167Y-109174033D01*
X168242170Y-109174035D01*
X168456337Y-109273903D01*
X168684592Y-109335063D01*
X168861034Y-109350500D01*
X168919999Y-109355659D01*
X168920000Y-109355659D01*
X168920001Y-109355659D01*
X168978966Y-109350500D01*
X169155408Y-109335063D01*
X169383663Y-109273903D01*
X169597830Y-109174035D01*
X169791401Y-109038495D01*
X169958495Y-108871401D01*
X170088425Y-108685842D01*
X170143002Y-108642217D01*
X170212500Y-108635023D01*
X170274855Y-108666546D01*
X170291575Y-108685842D01*
X170419109Y-108867980D01*
X170421505Y-108871401D01*
X170588599Y-109038495D01*
X170631675Y-109068657D01*
X170782165Y-109174032D01*
X170782167Y-109174033D01*
X170782170Y-109174035D01*
X170996337Y-109273903D01*
X171224592Y-109335063D01*
X171401034Y-109350500D01*
X171459999Y-109355659D01*
X171460000Y-109355659D01*
X171460001Y-109355659D01*
X171518966Y-109350500D01*
X171695408Y-109335063D01*
X171923663Y-109273903D01*
X172137830Y-109174035D01*
X172331401Y-109038495D01*
X172498495Y-108871401D01*
X172498504Y-108871388D01*
X172499636Y-108870040D01*
X172500293Y-108869602D01*
X172502323Y-108867573D01*
X172502730Y-108867980D01*
X172557805Y-108831334D01*
X172627666Y-108830220D01*
X172687038Y-108867053D01*
X172712337Y-108910735D01*
X172715185Y-108919331D01*
X172715187Y-108919336D01*
X172750069Y-108975888D01*
X172807288Y-109068656D01*
X172931344Y-109192712D01*
X173080666Y-109284814D01*
X173247203Y-109339999D01*
X173349991Y-109350500D01*
X174650008Y-109350499D01*
X174752797Y-109339999D01*
X174919334Y-109284814D01*
X175068656Y-109192712D01*
X175192712Y-109068656D01*
X175284814Y-108919334D01*
X175339999Y-108752797D01*
X175350500Y-108650009D01*
X175350500Y-108499999D01*
X180484357Y-108499999D01*
X180484357Y-108500000D01*
X180504884Y-108721535D01*
X180504885Y-108721537D01*
X180565769Y-108935523D01*
X180565775Y-108935538D01*
X180664938Y-109134683D01*
X180664943Y-109134691D01*
X180799020Y-109312238D01*
X180963437Y-109462123D01*
X180963439Y-109462125D01*
X181152595Y-109579245D01*
X181152596Y-109579245D01*
X181152599Y-109579247D01*
X181360060Y-109659618D01*
X181578757Y-109700500D01*
X181578759Y-109700500D01*
X181801241Y-109700500D01*
X181801243Y-109700500D01*
X182019940Y-109659618D01*
X182227401Y-109579247D01*
X182416562Y-109462124D01*
X182580981Y-109312236D01*
X182715058Y-109134689D01*
X182814229Y-108935528D01*
X182875115Y-108721536D01*
X182895643Y-108500000D01*
X182895643Y-108499999D01*
X188104357Y-108499999D01*
X188104357Y-108500000D01*
X188124884Y-108721535D01*
X188124885Y-108721537D01*
X188185769Y-108935523D01*
X188185775Y-108935538D01*
X188284938Y-109134683D01*
X188284943Y-109134691D01*
X188419020Y-109312238D01*
X188583437Y-109462123D01*
X188583439Y-109462125D01*
X188772595Y-109579245D01*
X188772596Y-109579245D01*
X188772599Y-109579247D01*
X188980060Y-109659618D01*
X189198757Y-109700500D01*
X189198759Y-109700500D01*
X189421241Y-109700500D01*
X189421243Y-109700500D01*
X189639940Y-109659618D01*
X189847401Y-109579247D01*
X190036562Y-109462124D01*
X190200981Y-109312236D01*
X190335058Y-109134689D01*
X190434229Y-108935528D01*
X190495115Y-108721536D01*
X190515643Y-108500000D01*
X190513051Y-108472032D01*
X190495115Y-108278464D01*
X190495114Y-108278462D01*
X190482864Y-108235408D01*
X190434229Y-108064472D01*
X190434224Y-108064461D01*
X190335061Y-107865316D01*
X190335056Y-107865308D01*
X190200979Y-107687761D01*
X190036562Y-107537876D01*
X190036560Y-107537874D01*
X189847404Y-107420754D01*
X189847398Y-107420752D01*
X189639940Y-107340382D01*
X189421243Y-107299500D01*
X189198757Y-107299500D01*
X188980060Y-107340382D01*
X188848864Y-107391207D01*
X188772601Y-107420752D01*
X188772595Y-107420754D01*
X188583439Y-107537874D01*
X188583437Y-107537876D01*
X188419020Y-107687761D01*
X188284943Y-107865308D01*
X188284938Y-107865316D01*
X188185775Y-108064461D01*
X188185769Y-108064476D01*
X188124885Y-108278462D01*
X188124884Y-108278464D01*
X188104357Y-108499999D01*
X182895643Y-108499999D01*
X182893051Y-108472032D01*
X182875115Y-108278464D01*
X182875114Y-108278462D01*
X182862864Y-108235408D01*
X182814229Y-108064472D01*
X182814224Y-108064461D01*
X182715061Y-107865316D01*
X182715056Y-107865308D01*
X182580979Y-107687761D01*
X182416562Y-107537876D01*
X182416560Y-107537874D01*
X182227404Y-107420754D01*
X182227398Y-107420752D01*
X182019940Y-107340382D01*
X181801243Y-107299500D01*
X181578757Y-107299500D01*
X181360060Y-107340382D01*
X181228864Y-107391207D01*
X181152601Y-107420752D01*
X181152595Y-107420754D01*
X180963439Y-107537874D01*
X180963437Y-107537876D01*
X180799020Y-107687761D01*
X180664943Y-107865308D01*
X180664938Y-107865316D01*
X180565775Y-108064461D01*
X180565769Y-108064476D01*
X180504885Y-108278462D01*
X180504884Y-108278464D01*
X180484357Y-108499999D01*
X175350500Y-108499999D01*
X175350499Y-107349992D01*
X175339999Y-107247203D01*
X175284814Y-107080666D01*
X175192712Y-106931344D01*
X175068656Y-106807288D01*
X174975888Y-106750069D01*
X174919336Y-106715187D01*
X174919331Y-106715185D01*
X174919215Y-106715146D01*
X174910733Y-106712336D01*
X174853290Y-106672564D01*
X174826467Y-106608048D01*
X174838782Y-106539272D01*
X174867767Y-106502517D01*
X174867573Y-106502323D01*
X174869219Y-106500676D01*
X174870040Y-106499636D01*
X174871388Y-106498504D01*
X174871401Y-106498495D01*
X175038495Y-106331401D01*
X175174035Y-106137830D01*
X175273903Y-105923663D01*
X175335063Y-105695408D01*
X175352159Y-105499999D01*
X180484357Y-105499999D01*
X180484357Y-105500000D01*
X180504884Y-105721535D01*
X180504885Y-105721537D01*
X180565769Y-105935523D01*
X180565775Y-105935538D01*
X180664938Y-106134683D01*
X180664943Y-106134691D01*
X180799020Y-106312238D01*
X180963437Y-106462123D01*
X180963439Y-106462125D01*
X181152595Y-106579245D01*
X181152596Y-106579245D01*
X181152599Y-106579247D01*
X181360060Y-106659618D01*
X181578757Y-106700500D01*
X181578759Y-106700500D01*
X181801241Y-106700500D01*
X181801243Y-106700500D01*
X182019940Y-106659618D01*
X182227401Y-106579247D01*
X182416562Y-106462124D01*
X182580981Y-106312236D01*
X182715058Y-106134689D01*
X182814229Y-105935528D01*
X182875115Y-105721536D01*
X182895643Y-105500000D01*
X182895643Y-105499999D01*
X188104357Y-105499999D01*
X188104357Y-105500000D01*
X188124884Y-105721535D01*
X188124885Y-105721537D01*
X188185769Y-105935523D01*
X188185775Y-105935538D01*
X188284938Y-106134683D01*
X188284943Y-106134691D01*
X188419020Y-106312238D01*
X188583437Y-106462123D01*
X188583439Y-106462125D01*
X188772595Y-106579245D01*
X188772596Y-106579245D01*
X188772599Y-106579247D01*
X188980060Y-106659618D01*
X189198757Y-106700500D01*
X189198759Y-106700500D01*
X189421241Y-106700500D01*
X189421243Y-106700500D01*
X189639940Y-106659618D01*
X189847401Y-106579247D01*
X190036562Y-106462124D01*
X190200981Y-106312236D01*
X190335058Y-106134689D01*
X190434229Y-105935528D01*
X190495115Y-105721536D01*
X190515643Y-105500000D01*
X190505845Y-105394266D01*
X190495115Y-105278464D01*
X190495114Y-105278462D01*
X190479259Y-105222738D01*
X190434229Y-105064472D01*
X190400391Y-104996516D01*
X190335061Y-104865316D01*
X190335056Y-104865308D01*
X190200979Y-104687761D01*
X190036562Y-104537876D01*
X190036560Y-104537874D01*
X189847404Y-104420754D01*
X189847398Y-104420752D01*
X189639940Y-104340382D01*
X189421243Y-104299500D01*
X189198757Y-104299500D01*
X188980060Y-104340382D01*
X188848864Y-104391207D01*
X188772601Y-104420752D01*
X188772595Y-104420754D01*
X188583439Y-104537874D01*
X188583437Y-104537876D01*
X188419020Y-104687761D01*
X188284943Y-104865308D01*
X188284938Y-104865316D01*
X188185775Y-105064461D01*
X188185769Y-105064476D01*
X188124885Y-105278462D01*
X188124884Y-105278464D01*
X188104357Y-105499999D01*
X182895643Y-105499999D01*
X182885845Y-105394266D01*
X182875115Y-105278464D01*
X182875114Y-105278462D01*
X182859259Y-105222738D01*
X182814229Y-105064472D01*
X182780391Y-104996516D01*
X182715061Y-104865316D01*
X182715056Y-104865308D01*
X182580979Y-104687761D01*
X182416562Y-104537876D01*
X182416560Y-104537874D01*
X182227404Y-104420754D01*
X182227398Y-104420752D01*
X182019940Y-104340382D01*
X181801243Y-104299500D01*
X181578757Y-104299500D01*
X181360060Y-104340382D01*
X181228864Y-104391207D01*
X181152601Y-104420752D01*
X181152595Y-104420754D01*
X180963439Y-104537874D01*
X180963437Y-104537876D01*
X180799020Y-104687761D01*
X180664943Y-104865308D01*
X180664938Y-104865316D01*
X180565775Y-105064461D01*
X180565769Y-105064476D01*
X180504885Y-105278462D01*
X180504884Y-105278464D01*
X180484357Y-105499999D01*
X175352159Y-105499999D01*
X175355659Y-105460000D01*
X175335063Y-105224592D01*
X175273903Y-104996337D01*
X175174035Y-104782171D01*
X175168731Y-104774595D01*
X175038494Y-104588597D01*
X174871402Y-104421506D01*
X174871395Y-104421501D01*
X174870325Y-104420752D01*
X174762245Y-104345073D01*
X174677834Y-104285967D01*
X174677830Y-104285965D01*
X174677828Y-104285964D01*
X174463663Y-104186097D01*
X174463659Y-104186096D01*
X174463655Y-104186094D01*
X174235413Y-104124938D01*
X174235403Y-104124936D01*
X174000001Y-104104341D01*
X173999999Y-104104341D01*
X173764596Y-104124936D01*
X173764586Y-104124938D01*
X173536344Y-104186094D01*
X173536335Y-104186098D01*
X173322171Y-104285964D01*
X173322169Y-104285965D01*
X173128597Y-104421505D01*
X172961505Y-104588597D01*
X172831575Y-104774158D01*
X172776998Y-104817783D01*
X172707500Y-104824977D01*
X172645145Y-104793454D01*
X172628425Y-104774158D01*
X172498494Y-104588597D01*
X172331402Y-104421506D01*
X172331395Y-104421501D01*
X172330325Y-104420752D01*
X172222245Y-104345073D01*
X172137834Y-104285967D01*
X172137830Y-104285965D01*
X172137828Y-104285964D01*
X171923663Y-104186097D01*
X171923659Y-104186096D01*
X171923655Y-104186094D01*
X171695413Y-104124938D01*
X171695403Y-104124936D01*
X171460001Y-104104341D01*
X171459999Y-104104341D01*
X171224596Y-104124936D01*
X171224586Y-104124938D01*
X170996344Y-104186094D01*
X170996335Y-104186098D01*
X170782171Y-104285964D01*
X170782169Y-104285965D01*
X170588597Y-104421505D01*
X170421505Y-104588597D01*
X170291575Y-104774158D01*
X170236998Y-104817783D01*
X170167500Y-104824977D01*
X170105145Y-104793454D01*
X170088425Y-104774158D01*
X169958494Y-104588597D01*
X169791402Y-104421506D01*
X169791395Y-104421501D01*
X169790325Y-104420752D01*
X169682245Y-104345073D01*
X169597834Y-104285967D01*
X169597830Y-104285965D01*
X169597828Y-104285964D01*
X169383663Y-104186097D01*
X169383659Y-104186096D01*
X169383655Y-104186094D01*
X169155413Y-104124938D01*
X169155403Y-104124936D01*
X168920001Y-104104341D01*
X168919999Y-104104341D01*
X168684596Y-104124936D01*
X168684586Y-104124938D01*
X168456344Y-104186094D01*
X168456335Y-104186098D01*
X168242171Y-104285964D01*
X168242169Y-104285965D01*
X168048597Y-104421505D01*
X167881505Y-104588597D01*
X167751575Y-104774158D01*
X167696998Y-104817783D01*
X167627500Y-104824977D01*
X167565145Y-104793454D01*
X167548425Y-104774158D01*
X167418494Y-104588597D01*
X167251402Y-104421506D01*
X167251395Y-104421501D01*
X167250325Y-104420752D01*
X167142245Y-104345073D01*
X167057834Y-104285967D01*
X167057830Y-104285965D01*
X167057828Y-104285964D01*
X166843663Y-104186097D01*
X166843659Y-104186096D01*
X166843655Y-104186094D01*
X166615413Y-104124938D01*
X166615403Y-104124936D01*
X166380001Y-104104341D01*
X166379999Y-104104341D01*
X166144596Y-104124936D01*
X166144586Y-104124938D01*
X165916344Y-104186094D01*
X165916335Y-104186098D01*
X165702171Y-104285964D01*
X165702169Y-104285965D01*
X165508597Y-104421505D01*
X165341508Y-104588594D01*
X165211269Y-104774595D01*
X165156692Y-104818219D01*
X165087193Y-104825412D01*
X165024839Y-104793890D01*
X165008119Y-104774595D01*
X164954925Y-104698626D01*
X164322962Y-105330590D01*
X164305925Y-105267007D01*
X164240099Y-105152993D01*
X164147007Y-105059901D01*
X164032993Y-104994075D01*
X163969409Y-104977037D01*
X164601372Y-104345073D01*
X164517576Y-104286398D01*
X164303492Y-104186570D01*
X164303483Y-104186566D01*
X164075326Y-104125432D01*
X164075315Y-104125430D01*
X163840002Y-104104843D01*
X163839998Y-104104843D01*
X163604684Y-104125430D01*
X163604673Y-104125432D01*
X163376516Y-104186566D01*
X163376507Y-104186570D01*
X163162423Y-104286399D01*
X163162421Y-104286400D01*
X163078627Y-104345073D01*
X163078626Y-104345073D01*
X163710591Y-104977037D01*
X163647007Y-104994075D01*
X163532993Y-105059901D01*
X163439901Y-105152993D01*
X163374075Y-105267007D01*
X163357037Y-105330590D01*
X162725073Y-104698626D01*
X162725073Y-104698627D01*
X162666400Y-104782421D01*
X162666399Y-104782423D01*
X162566570Y-104996507D01*
X162566566Y-104996516D01*
X162505432Y-105224673D01*
X162505430Y-105224684D01*
X162484843Y-105459998D01*
X154137073Y-105459998D01*
X154222738Y-105394265D01*
X154394265Y-105222738D01*
X154541936Y-105030289D01*
X154663224Y-104820212D01*
X154756054Y-104596100D01*
X154818838Y-104361789D01*
X154850500Y-104121288D01*
X154850500Y-103878712D01*
X154818838Y-103638211D01*
X154756054Y-103403900D01*
X154663224Y-103179788D01*
X154541936Y-102969711D01*
X154394265Y-102777262D01*
X154394260Y-102777256D01*
X154222743Y-102605739D01*
X154222736Y-102605733D01*
X154030293Y-102458067D01*
X154030292Y-102458066D01*
X154030289Y-102458064D01*
X153820212Y-102336776D01*
X153820205Y-102336773D01*
X153596104Y-102243947D01*
X153361785Y-102181161D01*
X153121289Y-102149500D01*
X153121288Y-102149500D01*
X152878712Y-102149500D01*
X152878711Y-102149500D01*
X152638214Y-102181161D01*
X152403895Y-102243947D01*
X152179794Y-102336773D01*
X152179785Y-102336777D01*
X151969706Y-102458067D01*
X151777263Y-102605733D01*
X151777256Y-102605739D01*
X151605739Y-102777256D01*
X151605733Y-102777263D01*
X151458067Y-102969706D01*
X151336777Y-103179785D01*
X151336773Y-103179794D01*
X151243947Y-103403895D01*
X151181161Y-103638214D01*
X151149500Y-103878711D01*
X89848337Y-103878711D01*
X89765766Y-95373920D01*
X97249499Y-95373920D01*
X97278340Y-95518907D01*
X97278343Y-95518917D01*
X97334912Y-95655488D01*
X97334919Y-95655501D01*
X97417048Y-95778415D01*
X97417051Y-95778419D01*
X97521580Y-95882948D01*
X97521584Y-95882951D01*
X97644498Y-95965080D01*
X97644511Y-95965087D01*
X97781082Y-96021656D01*
X97781087Y-96021658D01*
X97781091Y-96021658D01*
X97781092Y-96021659D01*
X97926079Y-96050500D01*
X97926082Y-96050500D01*
X99773920Y-96050500D01*
X99871462Y-96031096D01*
X99918913Y-96021658D01*
X100055495Y-95965084D01*
X100104729Y-95932186D01*
X100178416Y-95882952D01*
X109561370Y-86499998D01*
X208194532Y-86499998D01*
X208194532Y-86500001D01*
X208214364Y-86726686D01*
X208214366Y-86726697D01*
X208273258Y-86946488D01*
X208273261Y-86946497D01*
X208369431Y-87152732D01*
X208369432Y-87152734D01*
X208499954Y-87339141D01*
X208660858Y-87500045D01*
X208660861Y-87500047D01*
X208847266Y-87630568D01*
X209053504Y-87726739D01*
X209273308Y-87785635D01*
X209435230Y-87799801D01*
X209499998Y-87805468D01*
X209500000Y-87805468D01*
X209500002Y-87805468D01*
X209556673Y-87800509D01*
X209726692Y-87785635D01*
X209946496Y-87726739D01*
X210152734Y-87630568D01*
X210339139Y-87500047D01*
X210500047Y-87339139D01*
X210630568Y-87152734D01*
X210726739Y-86946496D01*
X210785635Y-86726692D01*
X210805468Y-86500000D01*
X210805468Y-86499997D01*
X213195034Y-86499997D01*
X213195034Y-86500002D01*
X213214858Y-86726599D01*
X213214860Y-86726610D01*
X213273730Y-86946317D01*
X213273735Y-86946331D01*
X213369863Y-87152478D01*
X213420974Y-87225472D01*
X214100000Y-86546446D01*
X214100000Y-86552661D01*
X214127259Y-86654394D01*
X214179920Y-86745606D01*
X214254394Y-86820080D01*
X214345606Y-86872741D01*
X214447339Y-86900000D01*
X214453553Y-86900000D01*
X213774526Y-87579025D01*
X213847513Y-87630132D01*
X213847521Y-87630136D01*
X214053668Y-87726264D01*
X214053682Y-87726269D01*
X214273389Y-87785139D01*
X214273400Y-87785141D01*
X214499998Y-87804966D01*
X214500002Y-87804966D01*
X214726599Y-87785141D01*
X214726610Y-87785139D01*
X214946317Y-87726269D01*
X214946331Y-87726264D01*
X215152478Y-87630136D01*
X215225471Y-87579024D01*
X214546447Y-86900000D01*
X214552661Y-86900000D01*
X214654394Y-86872741D01*
X214745606Y-86820080D01*
X214820080Y-86745606D01*
X214872741Y-86654394D01*
X214900000Y-86552661D01*
X214900000Y-86546447D01*
X215579024Y-87225471D01*
X215630136Y-87152478D01*
X215726264Y-86946331D01*
X215726269Y-86946317D01*
X215785139Y-86726610D01*
X215785141Y-86726599D01*
X215804966Y-86500002D01*
X215804966Y-86499997D01*
X215785141Y-86273400D01*
X215785139Y-86273389D01*
X215726269Y-86053682D01*
X215726264Y-86053668D01*
X215630136Y-85847521D01*
X215630132Y-85847513D01*
X215579025Y-85774526D01*
X214900000Y-86453551D01*
X214900000Y-86447339D01*
X214872741Y-86345606D01*
X214820080Y-86254394D01*
X214745606Y-86179920D01*
X214654394Y-86127259D01*
X214552661Y-86100000D01*
X214546445Y-86100000D01*
X215225472Y-85420974D01*
X215152478Y-85369863D01*
X214946331Y-85273735D01*
X214946317Y-85273730D01*
X214726610Y-85214860D01*
X214726599Y-85214858D01*
X214500002Y-85195034D01*
X214499998Y-85195034D01*
X214273400Y-85214858D01*
X214273389Y-85214860D01*
X214053682Y-85273730D01*
X214053673Y-85273734D01*
X213847516Y-85369866D01*
X213847512Y-85369868D01*
X213774526Y-85420973D01*
X213774526Y-85420974D01*
X214453553Y-86100000D01*
X214447339Y-86100000D01*
X214345606Y-86127259D01*
X214254394Y-86179920D01*
X214179920Y-86254394D01*
X214127259Y-86345606D01*
X214100000Y-86447339D01*
X214100000Y-86453552D01*
X213420974Y-85774526D01*
X213420973Y-85774526D01*
X213369868Y-85847512D01*
X213369866Y-85847516D01*
X213273734Y-86053673D01*
X213273730Y-86053682D01*
X213214860Y-86273389D01*
X213214858Y-86273400D01*
X213195034Y-86499997D01*
X210805468Y-86499997D01*
X210785635Y-86273308D01*
X210726739Y-86053504D01*
X210630568Y-85847266D01*
X210500047Y-85660861D01*
X210500045Y-85660858D01*
X210339141Y-85499954D01*
X210152734Y-85369432D01*
X210152732Y-85369431D01*
X209946497Y-85273261D01*
X209946488Y-85273258D01*
X209726697Y-85214366D01*
X209726693Y-85214365D01*
X209726692Y-85214365D01*
X209726691Y-85214364D01*
X209726686Y-85214364D01*
X209500002Y-85194532D01*
X209499998Y-85194532D01*
X209273313Y-85214364D01*
X209273302Y-85214366D01*
X209053511Y-85273258D01*
X209053502Y-85273261D01*
X208847267Y-85369431D01*
X208847265Y-85369432D01*
X208660858Y-85499954D01*
X208499954Y-85660858D01*
X208369432Y-85847265D01*
X208369431Y-85847267D01*
X208273261Y-86053502D01*
X208273258Y-86053511D01*
X208214366Y-86273302D01*
X208214364Y-86273313D01*
X208194532Y-86499998D01*
X109561370Y-86499998D01*
X112182657Y-83878711D01*
X151149500Y-83878711D01*
X151149500Y-84121288D01*
X151181161Y-84361785D01*
X151243947Y-84596104D01*
X151336773Y-84820205D01*
X151336776Y-84820212D01*
X151458064Y-85030289D01*
X151458066Y-85030292D01*
X151458067Y-85030293D01*
X151605733Y-85222736D01*
X151605739Y-85222743D01*
X151777256Y-85394260D01*
X151777263Y-85394266D01*
X151812070Y-85420974D01*
X151969711Y-85541936D01*
X152179788Y-85663224D01*
X152403900Y-85756054D01*
X152638211Y-85818838D01*
X152818586Y-85842584D01*
X152878711Y-85850500D01*
X152878712Y-85850500D01*
X153121289Y-85850500D01*
X153169388Y-85844167D01*
X153361789Y-85818838D01*
X153596100Y-85756054D01*
X153820212Y-85663224D01*
X154030289Y-85541936D01*
X154222738Y-85394265D01*
X154394265Y-85222738D01*
X154541936Y-85030289D01*
X154663224Y-84820212D01*
X154756054Y-84596100D01*
X154818838Y-84361789D01*
X154850500Y-84121288D01*
X154850500Y-83878712D01*
X154818838Y-83638211D01*
X154756054Y-83403900D01*
X154754854Y-83401004D01*
X154744195Y-83375269D01*
X154663224Y-83179788D01*
X154541936Y-82969711D01*
X154394265Y-82777262D01*
X154394260Y-82777256D01*
X154222743Y-82605739D01*
X154222736Y-82605733D01*
X154030293Y-82458067D01*
X154030292Y-82458066D01*
X154030289Y-82458064D01*
X153820212Y-82336776D01*
X153820205Y-82336773D01*
X153596104Y-82243947D01*
X153478944Y-82212554D01*
X153361789Y-82181162D01*
X153361788Y-82181161D01*
X153361785Y-82181161D01*
X153121289Y-82149500D01*
X153121288Y-82149500D01*
X152878712Y-82149500D01*
X152878711Y-82149500D01*
X152638214Y-82181161D01*
X152403895Y-82243947D01*
X152179794Y-82336773D01*
X152179785Y-82336777D01*
X151969706Y-82458067D01*
X151777263Y-82605733D01*
X151777256Y-82605739D01*
X151605739Y-82777256D01*
X151605733Y-82777263D01*
X151458067Y-82969706D01*
X151336777Y-83179785D01*
X151336773Y-83179794D01*
X151243947Y-83403895D01*
X151181161Y-83638214D01*
X151149500Y-83878711D01*
X112182657Y-83878711D01*
X115686475Y-80374893D01*
X206849500Y-80374893D01*
X206849500Y-81025091D01*
X206849501Y-81025109D01*
X206859999Y-81127876D01*
X206860000Y-81127879D01*
X206915176Y-81294388D01*
X206915181Y-81294399D01*
X206968672Y-81381120D01*
X206987113Y-81448512D01*
X206968321Y-81508460D01*
X206969529Y-81509106D01*
X206966652Y-81514487D01*
X206889390Y-81701016D01*
X206889387Y-81701025D01*
X206879647Y-81750000D01*
X207833012Y-81750000D01*
X207815795Y-81759940D01*
X207759940Y-81815795D01*
X207720444Y-81884204D01*
X207700000Y-81960504D01*
X207700000Y-82039496D01*
X207720444Y-82115796D01*
X207759940Y-82184205D01*
X207815795Y-82240060D01*
X207833012Y-82250000D01*
X206879647Y-82250000D01*
X206889387Y-82298974D01*
X206889390Y-82298983D01*
X206966654Y-82485516D01*
X207030226Y-82580660D01*
X207051103Y-82647337D01*
X207032618Y-82714717D01*
X207030226Y-82718439D01*
X206966214Y-82814242D01*
X206888909Y-83000872D01*
X206888907Y-83000880D01*
X206849500Y-83198992D01*
X206849500Y-83401007D01*
X206888907Y-83599119D01*
X206888909Y-83599127D01*
X206966212Y-83785752D01*
X206966217Y-83785762D01*
X207078441Y-83953718D01*
X207221281Y-84096558D01*
X207389237Y-84208782D01*
X207389241Y-84208784D01*
X207389244Y-84208786D01*
X207575873Y-84286091D01*
X207721210Y-84315000D01*
X207773992Y-84325499D01*
X207773996Y-84325500D01*
X207773997Y-84325500D01*
X208226004Y-84325500D01*
X208226005Y-84325499D01*
X208424127Y-84286091D01*
X208610756Y-84208786D01*
X208778718Y-84096558D01*
X208921558Y-83953718D01*
X209033786Y-83785756D01*
X209111091Y-83599127D01*
X209150500Y-83401003D01*
X209150500Y-83198997D01*
X209111091Y-83000873D01*
X209033786Y-82814244D01*
X209033785Y-82814242D01*
X209033785Y-82814241D01*
X208969773Y-82718440D01*
X208948895Y-82651763D01*
X208967380Y-82584383D01*
X208969774Y-82580658D01*
X209033339Y-82485528D01*
X209033347Y-82485513D01*
X209110609Y-82298983D01*
X209110612Y-82298974D01*
X209120353Y-82250000D01*
X208166988Y-82250000D01*
X208184205Y-82240060D01*
X208240060Y-82184205D01*
X208279556Y-82115796D01*
X208300000Y-82039496D01*
X208300000Y-81960504D01*
X208279556Y-81884204D01*
X208240060Y-81815795D01*
X208184205Y-81759940D01*
X208166988Y-81750000D01*
X209120353Y-81750000D01*
X209110612Y-81701025D01*
X209110609Y-81701016D01*
X209033346Y-81514484D01*
X209030475Y-81509113D01*
X209031684Y-81508466D01*
X209012885Y-81448436D01*
X209031325Y-81381122D01*
X209084823Y-81294391D01*
X209140000Y-81127877D01*
X209150500Y-81025099D01*
X209150499Y-80374902D01*
X209140000Y-80272123D01*
X209084823Y-80105609D01*
X209084819Y-80105603D01*
X209084818Y-80105600D01*
X208992734Y-79956310D01*
X208992731Y-79956306D01*
X208868693Y-79832268D01*
X208868689Y-79832265D01*
X208719399Y-79740181D01*
X208719393Y-79740178D01*
X208719391Y-79740177D01*
X208719388Y-79740176D01*
X208552878Y-79685000D01*
X208450100Y-79674500D01*
X207549908Y-79674500D01*
X207549890Y-79674501D01*
X207447123Y-79684999D01*
X207447120Y-79685000D01*
X207280611Y-79740176D01*
X207280600Y-79740181D01*
X207131310Y-79832265D01*
X207131306Y-79832268D01*
X207007268Y-79956306D01*
X207007265Y-79956310D01*
X206915181Y-80105600D01*
X206915176Y-80105611D01*
X206860000Y-80272121D01*
X206849500Y-80374893D01*
X115686475Y-80374893D01*
X116274549Y-79786819D01*
X116335872Y-79753334D01*
X116362230Y-79750500D01*
X124960663Y-79750500D01*
X125027702Y-79770185D01*
X125033548Y-79774182D01*
X125047265Y-79784148D01*
X125047270Y-79784151D01*
X125220192Y-79861142D01*
X125220197Y-79861144D01*
X125405354Y-79900500D01*
X125405355Y-79900500D01*
X125594644Y-79900500D01*
X125594646Y-79900500D01*
X125779803Y-79861144D01*
X125952730Y-79784151D01*
X126105871Y-79672888D01*
X126232533Y-79532216D01*
X126327179Y-79368284D01*
X126385674Y-79188256D01*
X126405460Y-79000000D01*
X126385674Y-78811744D01*
X126327179Y-78631716D01*
X126232533Y-78467784D01*
X126105871Y-78327112D01*
X126038745Y-78278342D01*
X125952734Y-78215851D01*
X125952729Y-78215848D01*
X125779807Y-78138857D01*
X125779802Y-78138855D01*
X125634001Y-78107865D01*
X125594646Y-78099500D01*
X125405354Y-78099500D01*
X125372897Y-78106398D01*
X125220197Y-78138855D01*
X125220192Y-78138857D01*
X125047270Y-78215848D01*
X125047265Y-78215851D01*
X125033548Y-78225818D01*
X124967742Y-78249298D01*
X124960663Y-78249500D01*
X115926080Y-78249500D01*
X115781092Y-78278340D01*
X115781086Y-78278342D01*
X115644508Y-78334914D01*
X115644496Y-78334921D01*
X115595269Y-78367813D01*
X115521588Y-78417044D01*
X115521580Y-78417050D01*
X99425451Y-94513181D01*
X99364128Y-94546666D01*
X99337770Y-94549500D01*
X97926080Y-94549500D01*
X97781092Y-94578340D01*
X97781082Y-94578343D01*
X97644511Y-94634912D01*
X97644498Y-94634919D01*
X97521584Y-94717048D01*
X97521580Y-94717051D01*
X97417051Y-94821580D01*
X97417048Y-94821584D01*
X97334919Y-94944498D01*
X97334912Y-94944511D01*
X97278343Y-95081082D01*
X97278340Y-95081092D01*
X97249500Y-95226079D01*
X97249500Y-95226082D01*
X97249500Y-95373918D01*
X97249500Y-95373920D01*
X97249499Y-95373920D01*
X89765766Y-95373920D01*
X89699029Y-88499997D01*
X90195034Y-88499997D01*
X90195034Y-88500002D01*
X90214858Y-88726599D01*
X90214860Y-88726610D01*
X90273730Y-88946317D01*
X90273735Y-88946331D01*
X90369863Y-89152478D01*
X90420974Y-89225472D01*
X91100000Y-88546446D01*
X91100000Y-88552661D01*
X91127259Y-88654394D01*
X91179920Y-88745606D01*
X91254394Y-88820080D01*
X91345606Y-88872741D01*
X91447339Y-88900000D01*
X91453553Y-88900000D01*
X90774526Y-89579025D01*
X90847513Y-89630132D01*
X90847521Y-89630136D01*
X91053668Y-89726264D01*
X91053682Y-89726269D01*
X91273389Y-89785139D01*
X91273400Y-89785141D01*
X91499998Y-89804966D01*
X91500002Y-89804966D01*
X91726599Y-89785141D01*
X91726610Y-89785139D01*
X91946317Y-89726269D01*
X91946331Y-89726264D01*
X92152478Y-89630136D01*
X92225471Y-89579024D01*
X91546447Y-88900000D01*
X91552661Y-88900000D01*
X91654394Y-88872741D01*
X91745606Y-88820080D01*
X91820080Y-88745606D01*
X91872741Y-88654394D01*
X91900000Y-88552661D01*
X91900000Y-88546447D01*
X92579024Y-89225471D01*
X92630136Y-89152478D01*
X92726264Y-88946331D01*
X92726269Y-88946317D01*
X92785139Y-88726610D01*
X92785141Y-88726599D01*
X92804966Y-88500002D01*
X92804966Y-88499998D01*
X95194532Y-88499998D01*
X95194532Y-88500001D01*
X95214364Y-88726686D01*
X95214366Y-88726697D01*
X95273258Y-88946488D01*
X95273261Y-88946497D01*
X95369431Y-89152732D01*
X95369432Y-89152734D01*
X95499954Y-89339141D01*
X95660858Y-89500045D01*
X95660861Y-89500047D01*
X95847266Y-89630568D01*
X96053504Y-89726739D01*
X96273308Y-89785635D01*
X96435230Y-89799801D01*
X96499998Y-89805468D01*
X96500000Y-89805468D01*
X96500002Y-89805468D01*
X96556673Y-89800509D01*
X96726692Y-89785635D01*
X96946496Y-89726739D01*
X97152734Y-89630568D01*
X97339139Y-89500047D01*
X97500047Y-89339139D01*
X97630568Y-89152734D01*
X97726739Y-88946496D01*
X97785635Y-88726692D01*
X97805468Y-88500000D01*
X97785635Y-88273308D01*
X97726739Y-88053504D01*
X97630568Y-87847266D01*
X97500047Y-87660861D01*
X97500045Y-87660858D01*
X97339141Y-87499954D01*
X97152734Y-87369432D01*
X97152732Y-87369431D01*
X96946497Y-87273261D01*
X96946488Y-87273258D01*
X96726697Y-87214366D01*
X96726693Y-87214365D01*
X96726692Y-87214365D01*
X96726691Y-87214364D01*
X96726686Y-87214364D01*
X96500002Y-87194532D01*
X96499998Y-87194532D01*
X96273313Y-87214364D01*
X96273302Y-87214366D01*
X96053511Y-87273258D01*
X96053502Y-87273261D01*
X95847267Y-87369431D01*
X95847265Y-87369432D01*
X95660858Y-87499954D01*
X95499954Y-87660858D01*
X95369432Y-87847265D01*
X95369431Y-87847267D01*
X95273261Y-88053502D01*
X95273258Y-88053511D01*
X95214366Y-88273302D01*
X95214364Y-88273313D01*
X95194532Y-88499998D01*
X92804966Y-88499998D01*
X92804966Y-88499997D01*
X92785141Y-88273400D01*
X92785139Y-88273389D01*
X92726269Y-88053682D01*
X92726264Y-88053668D01*
X92630136Y-87847521D01*
X92630132Y-87847513D01*
X92579025Y-87774526D01*
X91900000Y-88453551D01*
X91900000Y-88447339D01*
X91872741Y-88345606D01*
X91820080Y-88254394D01*
X91745606Y-88179920D01*
X91654394Y-88127259D01*
X91552661Y-88100000D01*
X91546445Y-88100000D01*
X92225472Y-87420974D01*
X92152478Y-87369863D01*
X91946331Y-87273735D01*
X91946317Y-87273730D01*
X91726610Y-87214860D01*
X91726599Y-87214858D01*
X91500002Y-87195034D01*
X91499998Y-87195034D01*
X91273400Y-87214858D01*
X91273389Y-87214860D01*
X91053682Y-87273730D01*
X91053673Y-87273734D01*
X90847516Y-87369866D01*
X90847512Y-87369868D01*
X90774526Y-87420973D01*
X90774526Y-87420974D01*
X91453553Y-88100000D01*
X91447339Y-88100000D01*
X91345606Y-88127259D01*
X91254394Y-88179920D01*
X91179920Y-88254394D01*
X91127259Y-88345606D01*
X91100000Y-88447339D01*
X91100000Y-88453552D01*
X90420974Y-87774526D01*
X90420973Y-87774526D01*
X90369868Y-87847512D01*
X90369866Y-87847516D01*
X90273734Y-88053673D01*
X90273730Y-88053682D01*
X90214860Y-88273389D01*
X90214858Y-88273400D01*
X90195034Y-88499997D01*
X89699029Y-88499997D01*
X89622320Y-80598992D01*
X96849500Y-80598992D01*
X96849500Y-80801007D01*
X96888907Y-80999119D01*
X96888909Y-80999127D01*
X96966213Y-81185754D01*
X97030226Y-81281558D01*
X97051103Y-81348236D01*
X97032618Y-81415616D01*
X97030226Y-81419337D01*
X96966661Y-81514471D01*
X96966652Y-81514487D01*
X96889390Y-81701016D01*
X96889387Y-81701025D01*
X96879647Y-81750000D01*
X97833012Y-81750000D01*
X97815795Y-81759940D01*
X97759940Y-81815795D01*
X97720444Y-81884204D01*
X97700000Y-81960504D01*
X97700000Y-82039496D01*
X97720444Y-82115796D01*
X97759940Y-82184205D01*
X97815795Y-82240060D01*
X97833012Y-82250000D01*
X96879647Y-82250000D01*
X96889387Y-82298974D01*
X96889390Y-82298983D01*
X96966653Y-82485515D01*
X96969525Y-82490887D01*
X96968316Y-82491533D01*
X96987114Y-82551570D01*
X96968673Y-82618879D01*
X96915178Y-82705606D01*
X96915176Y-82705611D01*
X96860000Y-82872121D01*
X96849500Y-82974893D01*
X96849500Y-83625091D01*
X96849501Y-83625109D01*
X96859999Y-83727876D01*
X96860000Y-83727879D01*
X96915176Y-83894388D01*
X96915181Y-83894399D01*
X97007265Y-84043689D01*
X97007268Y-84043693D01*
X97131306Y-84167731D01*
X97131310Y-84167734D01*
X97280600Y-84259818D01*
X97280603Y-84259819D01*
X97280609Y-84259823D01*
X97447123Y-84315000D01*
X97549901Y-84325500D01*
X98450098Y-84325499D01*
X98450106Y-84325498D01*
X98450109Y-84325498D01*
X98506387Y-84319748D01*
X98552877Y-84315000D01*
X98719391Y-84259823D01*
X98868693Y-84167732D01*
X98992732Y-84043693D01*
X99084823Y-83894391D01*
X99140000Y-83727877D01*
X99150500Y-83625099D01*
X99150499Y-82974902D01*
X99140000Y-82872123D01*
X99084823Y-82705609D01*
X99031326Y-82618878D01*
X99012887Y-82551486D01*
X99031682Y-82491540D01*
X99030472Y-82490893D01*
X99033346Y-82485515D01*
X99110609Y-82298983D01*
X99110612Y-82298974D01*
X99120353Y-82250000D01*
X98166988Y-82250000D01*
X98184205Y-82240060D01*
X98240060Y-82184205D01*
X98279556Y-82115796D01*
X98300000Y-82039496D01*
X98300000Y-81960504D01*
X98279556Y-81884204D01*
X98240060Y-81815795D01*
X98184205Y-81759940D01*
X98166988Y-81750000D01*
X99120353Y-81750000D01*
X99110612Y-81701025D01*
X99110609Y-81701016D01*
X99033347Y-81514486D01*
X99033340Y-81514473D01*
X98969773Y-81419339D01*
X98948895Y-81352662D01*
X98967379Y-81285282D01*
X98969726Y-81281627D01*
X99033786Y-81185756D01*
X99111091Y-80999127D01*
X99150500Y-80801003D01*
X99150500Y-80598997D01*
X99111091Y-80400873D01*
X99033786Y-80214244D01*
X99033784Y-80214241D01*
X99033782Y-80214237D01*
X98921558Y-80046281D01*
X98778718Y-79903441D01*
X98610762Y-79791217D01*
X98610752Y-79791212D01*
X98424127Y-79713909D01*
X98424119Y-79713907D01*
X98226007Y-79674500D01*
X98226003Y-79674500D01*
X97773997Y-79674500D01*
X97773992Y-79674500D01*
X97575880Y-79713907D01*
X97575872Y-79713909D01*
X97389247Y-79791212D01*
X97389237Y-79791217D01*
X97221281Y-79903441D01*
X97078441Y-80046281D01*
X96966217Y-80214237D01*
X96966212Y-80214247D01*
X96888909Y-80400872D01*
X96888907Y-80400880D01*
X96849500Y-80598992D01*
X89622320Y-80598992D01*
X89556943Y-73865186D01*
X219599500Y-73865186D01*
X219599500Y-74134813D01*
X219629686Y-74402719D01*
X219629688Y-74402731D01*
X219689684Y-74665594D01*
X219689687Y-74665602D01*
X219778734Y-74920082D01*
X219895714Y-75162994D01*
X219895716Y-75162997D01*
X220039162Y-75391289D01*
X220207266Y-75602085D01*
X220397915Y-75792734D01*
X220608711Y-75960838D01*
X220837003Y-76104284D01*
X221079921Y-76221267D01*
X221271049Y-76288145D01*
X221334397Y-76310312D01*
X221334405Y-76310315D01*
X221334408Y-76310315D01*
X221334409Y-76310316D01*
X221597268Y-76370312D01*
X221865187Y-76400499D01*
X221865188Y-76400500D01*
X221865191Y-76400500D01*
X222134812Y-76400500D01*
X222134812Y-76400499D01*
X222402732Y-76370312D01*
X222665591Y-76310316D01*
X222920079Y-76221267D01*
X223162997Y-76104284D01*
X223391289Y-75960838D01*
X223602085Y-75792734D01*
X223792734Y-75602085D01*
X223960838Y-75391289D01*
X224104284Y-75162997D01*
X224221267Y-74920079D01*
X224310316Y-74665591D01*
X224370312Y-74402732D01*
X224400500Y-74134809D01*
X224400500Y-73865191D01*
X224370312Y-73597268D01*
X224310316Y-73334409D01*
X224221267Y-73079921D01*
X224104284Y-72837003D01*
X223960838Y-72608711D01*
X223792734Y-72397915D01*
X223602085Y-72207266D01*
X223391289Y-72039162D01*
X223162997Y-71895716D01*
X223162994Y-71895714D01*
X222920082Y-71778734D01*
X222665602Y-71689687D01*
X222665594Y-71689684D01*
X222468446Y-71644687D01*
X222402732Y-71629688D01*
X222402728Y-71629687D01*
X222402719Y-71629686D01*
X222134813Y-71599500D01*
X222134809Y-71599500D01*
X221865191Y-71599500D01*
X221865186Y-71599500D01*
X221597280Y-71629686D01*
X221597268Y-71629688D01*
X221334405Y-71689684D01*
X221334397Y-71689687D01*
X221079917Y-71778734D01*
X220837005Y-71895714D01*
X220608712Y-72039161D01*
X220397915Y-72207265D01*
X220207265Y-72397915D01*
X220039161Y-72608712D01*
X219895714Y-72837005D01*
X219778734Y-73079917D01*
X219689687Y-73334397D01*
X219689684Y-73334405D01*
X219629688Y-73597268D01*
X219629686Y-73597280D01*
X219599500Y-73865186D01*
X89556943Y-73865186D01*
X89520633Y-70125204D01*
X89539666Y-70057976D01*
X89592023Y-70011711D01*
X89644627Y-70000000D01*
X225876000Y-70000000D01*
X225943039Y-70019685D01*
G37*
G04 #@! TD.AperFunction*
M02*
