G04 #@! TF.GenerationSoftware,KiCad,Pcbnew,8.0.7*
G04 #@! TF.CreationDate,2025-06-18T23:27:42-07:00*
G04 #@! TF.ProjectId,ESP32_MIDI2CV,45535033-325f-44d4-9944-493243562e6b,rev?*
G04 #@! TF.SameCoordinates,Original*
G04 #@! TF.FileFunction,Legend,Top*
G04 #@! TF.FilePolarity,Positive*
%FSLAX46Y46*%
G04 Gerber Fmt 4.6, Leading zero omitted, Abs format (unit mm)*
G04 Created by KiCad (PCBNEW 8.0.7) date 2025-06-18 23:27:42*
%MOMM*%
%LPD*%
G01*
G04 APERTURE LIST*
G04 Aperture macros list*
%AMRoundRect*
0 Rectangle with rounded corners*
0 $1 Rounding radius*
0 $2 $3 $4 $5 $6 $7 $8 $9 X,Y pos of 4 corners*
0 Add a 4 corners polygon primitive as box body*
4,1,4,$2,$3,$4,$5,$6,$7,$8,$9,$2,$3,0*
0 Add four circle primitives for the rounded corners*
1,1,$1+$1,$2,$3*
1,1,$1+$1,$4,$5*
1,1,$1+$1,$6,$7*
1,1,$1+$1,$8,$9*
0 Add four rect primitives between the rounded corners*
20,1,$1+$1,$2,$3,$4,$5,0*
20,1,$1+$1,$4,$5,$6,$7,0*
20,1,$1+$1,$6,$7,$8,$9,0*
20,1,$1+$1,$8,$9,$2,$3,0*%
%AMFreePoly0*
4,1,11,0.600000,-3.000000,0.580902,-3.058779,0.530902,-3.095106,0.500000,-3.100000,-0.500000,-3.100000,-0.558779,-3.080902,-0.595106,-3.030902,-0.600000,-3.000000,-0.600000,1.000000,0.600000,1.000000,0.600000,-3.000000,0.600000,-3.000000,$1*%
G04 Aperture macros list end*
%ADD10C,0.150000*%
%ADD11C,0.120000*%
%ADD12RoundRect,0.250000X0.262500X0.450000X-0.262500X0.450000X-0.262500X-0.450000X0.262500X-0.450000X0*%
%ADD13R,1.830000X1.930000*%
%ADD14C,2.130000*%
%ADD15R,1.800000X1.800000*%
%ADD16C,1.800000*%
%ADD17RoundRect,0.150000X0.825000X0.150000X-0.825000X0.150000X-0.825000X-0.150000X0.825000X-0.150000X0*%
%ADD18RoundRect,0.087500X0.725000X0.087500X-0.725000X0.087500X-0.725000X-0.087500X0.725000X-0.087500X0*%
%ADD19RoundRect,0.250000X-0.262500X-0.450000X0.262500X-0.450000X0.262500X0.450000X-0.262500X0.450000X0*%
%ADD20FreePoly0,180.000000*%
%ADD21FreePoly0,0.000000*%
%ADD22R,1.600000X1.600000*%
%ADD23O,1.600000X1.600000*%
%ADD24C,1.600000*%
G04 APERTURE END LIST*
D10*
X166245833Y-50104819D02*
X165912500Y-49628628D01*
X165674405Y-50104819D02*
X165674405Y-49104819D01*
X165674405Y-49104819D02*
X166055357Y-49104819D01*
X166055357Y-49104819D02*
X166150595Y-49152438D01*
X166150595Y-49152438D02*
X166198214Y-49200057D01*
X166198214Y-49200057D02*
X166245833Y-49295295D01*
X166245833Y-49295295D02*
X166245833Y-49438152D01*
X166245833Y-49438152D02*
X166198214Y-49533390D01*
X166198214Y-49533390D02*
X166150595Y-49581009D01*
X166150595Y-49581009D02*
X166055357Y-49628628D01*
X166055357Y-49628628D02*
X165674405Y-49628628D01*
X167102976Y-49438152D02*
X167102976Y-50104819D01*
X166864881Y-49057200D02*
X166626786Y-49771485D01*
X166626786Y-49771485D02*
X167245833Y-49771485D01*
X151254819Y-52887142D02*
X151969104Y-52887142D01*
X151969104Y-52887142D02*
X152111961Y-52934761D01*
X152111961Y-52934761D02*
X152207200Y-53029999D01*
X152207200Y-53029999D02*
X152254819Y-53172856D01*
X152254819Y-53172856D02*
X152254819Y-53268094D01*
X151254819Y-52220475D02*
X151254819Y-52029999D01*
X151254819Y-52029999D02*
X151302438Y-51934761D01*
X151302438Y-51934761D02*
X151397676Y-51839523D01*
X151397676Y-51839523D02*
X151588152Y-51791904D01*
X151588152Y-51791904D02*
X151921485Y-51791904D01*
X151921485Y-51791904D02*
X152111961Y-51839523D01*
X152111961Y-51839523D02*
X152207200Y-51934761D01*
X152207200Y-51934761D02*
X152254819Y-52029999D01*
X152254819Y-52029999D02*
X152254819Y-52220475D01*
X152254819Y-52220475D02*
X152207200Y-52315713D01*
X152207200Y-52315713D02*
X152111961Y-52410951D01*
X152111961Y-52410951D02*
X151921485Y-52458570D01*
X151921485Y-52458570D02*
X151588152Y-52458570D01*
X151588152Y-52458570D02*
X151397676Y-52410951D01*
X151397676Y-52410951D02*
X151302438Y-52315713D01*
X151302438Y-52315713D02*
X151254819Y-52220475D01*
X151350057Y-51410951D02*
X151302438Y-51363332D01*
X151302438Y-51363332D02*
X151254819Y-51268094D01*
X151254819Y-51268094D02*
X151254819Y-51029999D01*
X151254819Y-51029999D02*
X151302438Y-50934761D01*
X151302438Y-50934761D02*
X151350057Y-50887142D01*
X151350057Y-50887142D02*
X151445295Y-50839523D01*
X151445295Y-50839523D02*
X151540533Y-50839523D01*
X151540533Y-50839523D02*
X151683390Y-50887142D01*
X151683390Y-50887142D02*
X152254819Y-51458570D01*
X152254819Y-51458570D02*
X152254819Y-50839523D01*
X189761905Y-55494819D02*
X189761905Y-54494819D01*
X189761905Y-54494819D02*
X190000000Y-54494819D01*
X190000000Y-54494819D02*
X190142857Y-54542438D01*
X190142857Y-54542438D02*
X190238095Y-54637676D01*
X190238095Y-54637676D02*
X190285714Y-54732914D01*
X190285714Y-54732914D02*
X190333333Y-54923390D01*
X190333333Y-54923390D02*
X190333333Y-55066247D01*
X190333333Y-55066247D02*
X190285714Y-55256723D01*
X190285714Y-55256723D02*
X190238095Y-55351961D01*
X190238095Y-55351961D02*
X190142857Y-55447200D01*
X190142857Y-55447200D02*
X190000000Y-55494819D01*
X190000000Y-55494819D02*
X189761905Y-55494819D01*
X191285714Y-55494819D02*
X190714286Y-55494819D01*
X191000000Y-55494819D02*
X191000000Y-54494819D01*
X191000000Y-54494819D02*
X190904762Y-54637676D01*
X190904762Y-54637676D02*
X190809524Y-54732914D01*
X190809524Y-54732914D02*
X190714286Y-54780533D01*
X145474819Y-45327142D02*
X146189104Y-45327142D01*
X146189104Y-45327142D02*
X146331961Y-45374761D01*
X146331961Y-45374761D02*
X146427200Y-45469999D01*
X146427200Y-45469999D02*
X146474819Y-45612856D01*
X146474819Y-45612856D02*
X146474819Y-45708094D01*
X145474819Y-44660475D02*
X145474819Y-44469999D01*
X145474819Y-44469999D02*
X145522438Y-44374761D01*
X145522438Y-44374761D02*
X145617676Y-44279523D01*
X145617676Y-44279523D02*
X145808152Y-44231904D01*
X145808152Y-44231904D02*
X146141485Y-44231904D01*
X146141485Y-44231904D02*
X146331961Y-44279523D01*
X146331961Y-44279523D02*
X146427200Y-44374761D01*
X146427200Y-44374761D02*
X146474819Y-44469999D01*
X146474819Y-44469999D02*
X146474819Y-44660475D01*
X146474819Y-44660475D02*
X146427200Y-44755713D01*
X146427200Y-44755713D02*
X146331961Y-44850951D01*
X146331961Y-44850951D02*
X146141485Y-44898570D01*
X146141485Y-44898570D02*
X145808152Y-44898570D01*
X145808152Y-44898570D02*
X145617676Y-44850951D01*
X145617676Y-44850951D02*
X145522438Y-44755713D01*
X145522438Y-44755713D02*
X145474819Y-44660475D01*
X146474819Y-43279523D02*
X146474819Y-43850951D01*
X146474819Y-43565237D02*
X145474819Y-43565237D01*
X145474819Y-43565237D02*
X145617676Y-43660475D01*
X145617676Y-43660475D02*
X145712914Y-43755713D01*
X145712914Y-43755713D02*
X145760533Y-43850951D01*
X182213095Y-60949819D02*
X182213095Y-61759342D01*
X182213095Y-61759342D02*
X182260714Y-61854580D01*
X182260714Y-61854580D02*
X182308333Y-61902200D01*
X182308333Y-61902200D02*
X182403571Y-61949819D01*
X182403571Y-61949819D02*
X182594047Y-61949819D01*
X182594047Y-61949819D02*
X182689285Y-61902200D01*
X182689285Y-61902200D02*
X182736904Y-61854580D01*
X182736904Y-61854580D02*
X182784523Y-61759342D01*
X182784523Y-61759342D02*
X182784523Y-60949819D01*
X183165476Y-60949819D02*
X183784523Y-60949819D01*
X183784523Y-60949819D02*
X183451190Y-61330771D01*
X183451190Y-61330771D02*
X183594047Y-61330771D01*
X183594047Y-61330771D02*
X183689285Y-61378390D01*
X183689285Y-61378390D02*
X183736904Y-61426009D01*
X183736904Y-61426009D02*
X183784523Y-61521247D01*
X183784523Y-61521247D02*
X183784523Y-61759342D01*
X183784523Y-61759342D02*
X183736904Y-61854580D01*
X183736904Y-61854580D02*
X183689285Y-61902200D01*
X183689285Y-61902200D02*
X183594047Y-61949819D01*
X183594047Y-61949819D02*
X183308333Y-61949819D01*
X183308333Y-61949819D02*
X183213095Y-61902200D01*
X183213095Y-61902200D02*
X183165476Y-61854580D01*
X173713095Y-60499819D02*
X173713095Y-61309342D01*
X173713095Y-61309342D02*
X173760714Y-61404580D01*
X173760714Y-61404580D02*
X173808333Y-61452200D01*
X173808333Y-61452200D02*
X173903571Y-61499819D01*
X173903571Y-61499819D02*
X174094047Y-61499819D01*
X174094047Y-61499819D02*
X174189285Y-61452200D01*
X174189285Y-61452200D02*
X174236904Y-61404580D01*
X174236904Y-61404580D02*
X174284523Y-61309342D01*
X174284523Y-61309342D02*
X174284523Y-60499819D01*
X175284523Y-61499819D02*
X174713095Y-61499819D01*
X174998809Y-61499819D02*
X174998809Y-60499819D01*
X174998809Y-60499819D02*
X174903571Y-60642676D01*
X174903571Y-60642676D02*
X174808333Y-60737914D01*
X174808333Y-60737914D02*
X174713095Y-60785533D01*
X196833333Y-64454819D02*
X196500000Y-63978628D01*
X196261905Y-64454819D02*
X196261905Y-63454819D01*
X196261905Y-63454819D02*
X196642857Y-63454819D01*
X196642857Y-63454819D02*
X196738095Y-63502438D01*
X196738095Y-63502438D02*
X196785714Y-63550057D01*
X196785714Y-63550057D02*
X196833333Y-63645295D01*
X196833333Y-63645295D02*
X196833333Y-63788152D01*
X196833333Y-63788152D02*
X196785714Y-63883390D01*
X196785714Y-63883390D02*
X196738095Y-63931009D01*
X196738095Y-63931009D02*
X196642857Y-63978628D01*
X196642857Y-63978628D02*
X196261905Y-63978628D01*
X197166667Y-63454819D02*
X197785714Y-63454819D01*
X197785714Y-63454819D02*
X197452381Y-63835771D01*
X197452381Y-63835771D02*
X197595238Y-63835771D01*
X197595238Y-63835771D02*
X197690476Y-63883390D01*
X197690476Y-63883390D02*
X197738095Y-63931009D01*
X197738095Y-63931009D02*
X197785714Y-64026247D01*
X197785714Y-64026247D02*
X197785714Y-64264342D01*
X197785714Y-64264342D02*
X197738095Y-64359580D01*
X197738095Y-64359580D02*
X197690476Y-64407200D01*
X197690476Y-64407200D02*
X197595238Y-64454819D01*
X197595238Y-64454819D02*
X197309524Y-64454819D01*
X197309524Y-64454819D02*
X197214286Y-64407200D01*
X197214286Y-64407200D02*
X197166667Y-64359580D01*
X175808333Y-53954819D02*
X175475000Y-53478628D01*
X175236905Y-53954819D02*
X175236905Y-52954819D01*
X175236905Y-52954819D02*
X175617857Y-52954819D01*
X175617857Y-52954819D02*
X175713095Y-53002438D01*
X175713095Y-53002438D02*
X175760714Y-53050057D01*
X175760714Y-53050057D02*
X175808333Y-53145295D01*
X175808333Y-53145295D02*
X175808333Y-53288152D01*
X175808333Y-53288152D02*
X175760714Y-53383390D01*
X175760714Y-53383390D02*
X175713095Y-53431009D01*
X175713095Y-53431009D02*
X175617857Y-53478628D01*
X175617857Y-53478628D02*
X175236905Y-53478628D01*
X176760714Y-53954819D02*
X176189286Y-53954819D01*
X176475000Y-53954819D02*
X176475000Y-52954819D01*
X176475000Y-52954819D02*
X176379762Y-53097676D01*
X176379762Y-53097676D02*
X176284524Y-53192914D01*
X176284524Y-53192914D02*
X176189286Y-53240533D01*
X177705180Y-42618095D02*
X176895657Y-42618095D01*
X176895657Y-42618095D02*
X176800419Y-42665714D01*
X176800419Y-42665714D02*
X176752800Y-42713333D01*
X176752800Y-42713333D02*
X176705180Y-42808571D01*
X176705180Y-42808571D02*
X176705180Y-42999047D01*
X176705180Y-42999047D02*
X176752800Y-43094285D01*
X176752800Y-43094285D02*
X176800419Y-43141904D01*
X176800419Y-43141904D02*
X176895657Y-43189523D01*
X176895657Y-43189523D02*
X177705180Y-43189523D01*
X177609942Y-43618095D02*
X177657561Y-43665714D01*
X177657561Y-43665714D02*
X177705180Y-43760952D01*
X177705180Y-43760952D02*
X177705180Y-43999047D01*
X177705180Y-43999047D02*
X177657561Y-44094285D01*
X177657561Y-44094285D02*
X177609942Y-44141904D01*
X177609942Y-44141904D02*
X177514704Y-44189523D01*
X177514704Y-44189523D02*
X177419466Y-44189523D01*
X177419466Y-44189523D02*
X177276609Y-44141904D01*
X177276609Y-44141904D02*
X176705180Y-43570476D01*
X176705180Y-43570476D02*
X176705180Y-44189523D01*
X202205180Y-46592267D02*
X202205180Y-47163695D01*
X201205180Y-46877981D02*
X202205180Y-46877981D01*
X202205180Y-47401791D02*
X201205180Y-48068457D01*
X202205180Y-48068457D02*
X201205180Y-47401791D01*
X198665180Y-47068457D02*
X199141371Y-46735124D01*
X198665180Y-46497029D02*
X199665180Y-46497029D01*
X199665180Y-46497029D02*
X199665180Y-46877981D01*
X199665180Y-46877981D02*
X199617561Y-46973219D01*
X199617561Y-46973219D02*
X199569942Y-47020838D01*
X199569942Y-47020838D02*
X199474704Y-47068457D01*
X199474704Y-47068457D02*
X199331847Y-47068457D01*
X199331847Y-47068457D02*
X199236609Y-47020838D01*
X199236609Y-47020838D02*
X199188990Y-46973219D01*
X199188990Y-46973219D02*
X199141371Y-46877981D01*
X199141371Y-46877981D02*
X199141371Y-46497029D01*
X199665180Y-47401791D02*
X198665180Y-48068457D01*
X199665180Y-48068457D02*
X198665180Y-47401791D01*
X198997561Y-43860588D02*
X199045180Y-43765350D01*
X199045180Y-43765350D02*
X199045180Y-43622493D01*
X199045180Y-43622493D02*
X198997561Y-43479636D01*
X198997561Y-43479636D02*
X198902323Y-43384398D01*
X198902323Y-43384398D02*
X198807085Y-43336779D01*
X198807085Y-43336779D02*
X198616609Y-43289160D01*
X198616609Y-43289160D02*
X198473752Y-43289160D01*
X198473752Y-43289160D02*
X198283276Y-43336779D01*
X198283276Y-43336779D02*
X198188038Y-43384398D01*
X198188038Y-43384398D02*
X198092800Y-43479636D01*
X198092800Y-43479636D02*
X198045180Y-43622493D01*
X198045180Y-43622493D02*
X198045180Y-43717731D01*
X198045180Y-43717731D02*
X198092800Y-43860588D01*
X198092800Y-43860588D02*
X198140419Y-43908207D01*
X198140419Y-43908207D02*
X198473752Y-43908207D01*
X198473752Y-43908207D02*
X198473752Y-43717731D01*
X198045180Y-44336779D02*
X199045180Y-44336779D01*
X199045180Y-44336779D02*
X199045180Y-44717731D01*
X199045180Y-44717731D02*
X198997561Y-44812969D01*
X198997561Y-44812969D02*
X198949942Y-44860588D01*
X198949942Y-44860588D02*
X198854704Y-44908207D01*
X198854704Y-44908207D02*
X198711847Y-44908207D01*
X198711847Y-44908207D02*
X198616609Y-44860588D01*
X198616609Y-44860588D02*
X198568990Y-44812969D01*
X198568990Y-44812969D02*
X198521371Y-44717731D01*
X198521371Y-44717731D02*
X198521371Y-44336779D01*
X198045180Y-45336779D02*
X199045180Y-45336779D01*
X199045180Y-46003445D02*
X199045180Y-46193921D01*
X199045180Y-46193921D02*
X198997561Y-46289159D01*
X198997561Y-46289159D02*
X198902323Y-46384397D01*
X198902323Y-46384397D02*
X198711847Y-46432016D01*
X198711847Y-46432016D02*
X198378514Y-46432016D01*
X198378514Y-46432016D02*
X198188038Y-46384397D01*
X198188038Y-46384397D02*
X198092800Y-46289159D01*
X198092800Y-46289159D02*
X198045180Y-46193921D01*
X198045180Y-46193921D02*
X198045180Y-46003445D01*
X198045180Y-46003445D02*
X198092800Y-45908207D01*
X198092800Y-45908207D02*
X198188038Y-45812969D01*
X198188038Y-45812969D02*
X198378514Y-45765350D01*
X198378514Y-45765350D02*
X198711847Y-45765350D01*
X198711847Y-45765350D02*
X198902323Y-45812969D01*
X198902323Y-45812969D02*
X198997561Y-45908207D01*
X198997561Y-45908207D02*
X199045180Y-46003445D01*
X198045180Y-47384397D02*
X198045180Y-46812969D01*
X198045180Y-47098683D02*
X199045180Y-47098683D01*
X199045180Y-47098683D02*
X198902323Y-47003445D01*
X198902323Y-47003445D02*
X198807085Y-46908207D01*
X198807085Y-46908207D02*
X198759466Y-46812969D01*
X198045180Y-48336778D02*
X198045180Y-47765350D01*
X198045180Y-48051064D02*
X199045180Y-48051064D01*
X199045180Y-48051064D02*
X198902323Y-47955826D01*
X198902323Y-47955826D02*
X198807085Y-47860588D01*
X198807085Y-47860588D02*
X198759466Y-47765350D01*
X198622438Y-39034398D02*
X198574819Y-39129636D01*
X198574819Y-39129636D02*
X198574819Y-39272493D01*
X198574819Y-39272493D02*
X198622438Y-39415350D01*
X198622438Y-39415350D02*
X198717676Y-39510588D01*
X198717676Y-39510588D02*
X198812914Y-39558207D01*
X198812914Y-39558207D02*
X199003390Y-39605826D01*
X199003390Y-39605826D02*
X199146247Y-39605826D01*
X199146247Y-39605826D02*
X199336723Y-39558207D01*
X199336723Y-39558207D02*
X199431961Y-39510588D01*
X199431961Y-39510588D02*
X199527200Y-39415350D01*
X199527200Y-39415350D02*
X199574819Y-39272493D01*
X199574819Y-39272493D02*
X199574819Y-39177255D01*
X199574819Y-39177255D02*
X199527200Y-39034398D01*
X199527200Y-39034398D02*
X199479580Y-38986779D01*
X199479580Y-38986779D02*
X199146247Y-38986779D01*
X199146247Y-38986779D02*
X199146247Y-39177255D01*
X199574819Y-38558207D02*
X198574819Y-38558207D01*
X198574819Y-38558207D02*
X199574819Y-37986779D01*
X199574819Y-37986779D02*
X198574819Y-37986779D01*
X199574819Y-37510588D02*
X198574819Y-37510588D01*
X198574819Y-37510588D02*
X198574819Y-37272493D01*
X198574819Y-37272493D02*
X198622438Y-37129636D01*
X198622438Y-37129636D02*
X198717676Y-37034398D01*
X198717676Y-37034398D02*
X198812914Y-36986779D01*
X198812914Y-36986779D02*
X199003390Y-36939160D01*
X199003390Y-36939160D02*
X199146247Y-36939160D01*
X199146247Y-36939160D02*
X199336723Y-36986779D01*
X199336723Y-36986779D02*
X199431961Y-37034398D01*
X199431961Y-37034398D02*
X199527200Y-37129636D01*
X199527200Y-37129636D02*
X199574819Y-37272493D01*
X199574819Y-37272493D02*
X199574819Y-37510588D01*
X184377561Y-44860588D02*
X184425180Y-44765350D01*
X184425180Y-44765350D02*
X184425180Y-44622493D01*
X184425180Y-44622493D02*
X184377561Y-44479636D01*
X184377561Y-44479636D02*
X184282323Y-44384398D01*
X184282323Y-44384398D02*
X184187085Y-44336779D01*
X184187085Y-44336779D02*
X183996609Y-44289160D01*
X183996609Y-44289160D02*
X183853752Y-44289160D01*
X183853752Y-44289160D02*
X183663276Y-44336779D01*
X183663276Y-44336779D02*
X183568038Y-44384398D01*
X183568038Y-44384398D02*
X183472800Y-44479636D01*
X183472800Y-44479636D02*
X183425180Y-44622493D01*
X183425180Y-44622493D02*
X183425180Y-44717731D01*
X183425180Y-44717731D02*
X183472800Y-44860588D01*
X183472800Y-44860588D02*
X183520419Y-44908207D01*
X183520419Y-44908207D02*
X183853752Y-44908207D01*
X183853752Y-44908207D02*
X183853752Y-44717731D01*
X183425180Y-45336779D02*
X184425180Y-45336779D01*
X184425180Y-45336779D02*
X184425180Y-45717731D01*
X184425180Y-45717731D02*
X184377561Y-45812969D01*
X184377561Y-45812969D02*
X184329942Y-45860588D01*
X184329942Y-45860588D02*
X184234704Y-45908207D01*
X184234704Y-45908207D02*
X184091847Y-45908207D01*
X184091847Y-45908207D02*
X183996609Y-45860588D01*
X183996609Y-45860588D02*
X183948990Y-45812969D01*
X183948990Y-45812969D02*
X183901371Y-45717731D01*
X183901371Y-45717731D02*
X183901371Y-45336779D01*
X183425180Y-46336779D02*
X184425180Y-46336779D01*
X184425180Y-47003445D02*
X184425180Y-47193921D01*
X184425180Y-47193921D02*
X184377561Y-47289159D01*
X184377561Y-47289159D02*
X184282323Y-47384397D01*
X184282323Y-47384397D02*
X184091847Y-47432016D01*
X184091847Y-47432016D02*
X183758514Y-47432016D01*
X183758514Y-47432016D02*
X183568038Y-47384397D01*
X183568038Y-47384397D02*
X183472800Y-47289159D01*
X183472800Y-47289159D02*
X183425180Y-47193921D01*
X183425180Y-47193921D02*
X183425180Y-47003445D01*
X183425180Y-47003445D02*
X183472800Y-46908207D01*
X183472800Y-46908207D02*
X183568038Y-46812969D01*
X183568038Y-46812969D02*
X183758514Y-46765350D01*
X183758514Y-46765350D02*
X184091847Y-46765350D01*
X184091847Y-46765350D02*
X184282323Y-46812969D01*
X184282323Y-46812969D02*
X184377561Y-46908207D01*
X184377561Y-46908207D02*
X184425180Y-47003445D01*
X183996609Y-48003445D02*
X184044228Y-47908207D01*
X184044228Y-47908207D02*
X184091847Y-47860588D01*
X184091847Y-47860588D02*
X184187085Y-47812969D01*
X184187085Y-47812969D02*
X184234704Y-47812969D01*
X184234704Y-47812969D02*
X184329942Y-47860588D01*
X184329942Y-47860588D02*
X184377561Y-47908207D01*
X184377561Y-47908207D02*
X184425180Y-48003445D01*
X184425180Y-48003445D02*
X184425180Y-48193921D01*
X184425180Y-48193921D02*
X184377561Y-48289159D01*
X184377561Y-48289159D02*
X184329942Y-48336778D01*
X184329942Y-48336778D02*
X184234704Y-48384397D01*
X184234704Y-48384397D02*
X184187085Y-48384397D01*
X184187085Y-48384397D02*
X184091847Y-48336778D01*
X184091847Y-48336778D02*
X184044228Y-48289159D01*
X184044228Y-48289159D02*
X183996609Y-48193921D01*
X183996609Y-48193921D02*
X183996609Y-48003445D01*
X183996609Y-48003445D02*
X183948990Y-47908207D01*
X183948990Y-47908207D02*
X183901371Y-47860588D01*
X183901371Y-47860588D02*
X183806133Y-47812969D01*
X183806133Y-47812969D02*
X183615657Y-47812969D01*
X183615657Y-47812969D02*
X183520419Y-47860588D01*
X183520419Y-47860588D02*
X183472800Y-47908207D01*
X183472800Y-47908207D02*
X183425180Y-48003445D01*
X183425180Y-48003445D02*
X183425180Y-48193921D01*
X183425180Y-48193921D02*
X183472800Y-48289159D01*
X183472800Y-48289159D02*
X183520419Y-48336778D01*
X183520419Y-48336778D02*
X183615657Y-48384397D01*
X183615657Y-48384397D02*
X183806133Y-48384397D01*
X183806133Y-48384397D02*
X183901371Y-48336778D01*
X183901371Y-48336778D02*
X183948990Y-48289159D01*
X183948990Y-48289159D02*
X183996609Y-48193921D01*
X197125180Y-36891541D02*
X197125180Y-37510588D01*
X197125180Y-37510588D02*
X196744228Y-37177255D01*
X196744228Y-37177255D02*
X196744228Y-37320112D01*
X196744228Y-37320112D02*
X196696609Y-37415350D01*
X196696609Y-37415350D02*
X196648990Y-37462969D01*
X196648990Y-37462969D02*
X196553752Y-37510588D01*
X196553752Y-37510588D02*
X196315657Y-37510588D01*
X196315657Y-37510588D02*
X196220419Y-37462969D01*
X196220419Y-37462969D02*
X196172800Y-37415350D01*
X196172800Y-37415350D02*
X196125180Y-37320112D01*
X196125180Y-37320112D02*
X196125180Y-37034398D01*
X196125180Y-37034398D02*
X196172800Y-36939160D01*
X196172800Y-36939160D02*
X196220419Y-36891541D01*
X197125180Y-37796303D02*
X196125180Y-38129636D01*
X196125180Y-38129636D02*
X197125180Y-38462969D01*
X197125180Y-38701065D02*
X197125180Y-39320112D01*
X197125180Y-39320112D02*
X196744228Y-38986779D01*
X196744228Y-38986779D02*
X196744228Y-39129636D01*
X196744228Y-39129636D02*
X196696609Y-39224874D01*
X196696609Y-39224874D02*
X196648990Y-39272493D01*
X196648990Y-39272493D02*
X196553752Y-39320112D01*
X196553752Y-39320112D02*
X196315657Y-39320112D01*
X196315657Y-39320112D02*
X196220419Y-39272493D01*
X196220419Y-39272493D02*
X196172800Y-39224874D01*
X196172800Y-39224874D02*
X196125180Y-39129636D01*
X196125180Y-39129636D02*
X196125180Y-38843922D01*
X196125180Y-38843922D02*
X196172800Y-38748684D01*
X196172800Y-38748684D02*
X196220419Y-38701065D01*
X186917561Y-37740587D02*
X186965180Y-37645349D01*
X186965180Y-37645349D02*
X186965180Y-37502492D01*
X186965180Y-37502492D02*
X186917561Y-37359635D01*
X186917561Y-37359635D02*
X186822323Y-37264397D01*
X186822323Y-37264397D02*
X186727085Y-37216778D01*
X186727085Y-37216778D02*
X186536609Y-37169159D01*
X186536609Y-37169159D02*
X186393752Y-37169159D01*
X186393752Y-37169159D02*
X186203276Y-37216778D01*
X186203276Y-37216778D02*
X186108038Y-37264397D01*
X186108038Y-37264397D02*
X186012800Y-37359635D01*
X186012800Y-37359635D02*
X185965180Y-37502492D01*
X185965180Y-37502492D02*
X185965180Y-37597730D01*
X185965180Y-37597730D02*
X186012800Y-37740587D01*
X186012800Y-37740587D02*
X186060419Y-37788206D01*
X186060419Y-37788206D02*
X186393752Y-37788206D01*
X186393752Y-37788206D02*
X186393752Y-37597730D01*
X185965180Y-38216778D02*
X186965180Y-38216778D01*
X186965180Y-38216778D02*
X186965180Y-38597730D01*
X186965180Y-38597730D02*
X186917561Y-38692968D01*
X186917561Y-38692968D02*
X186869942Y-38740587D01*
X186869942Y-38740587D02*
X186774704Y-38788206D01*
X186774704Y-38788206D02*
X186631847Y-38788206D01*
X186631847Y-38788206D02*
X186536609Y-38740587D01*
X186536609Y-38740587D02*
X186488990Y-38692968D01*
X186488990Y-38692968D02*
X186441371Y-38597730D01*
X186441371Y-38597730D02*
X186441371Y-38216778D01*
X185965180Y-39216778D02*
X186965180Y-39216778D01*
X186965180Y-39883444D02*
X186965180Y-40073920D01*
X186965180Y-40073920D02*
X186917561Y-40169158D01*
X186917561Y-40169158D02*
X186822323Y-40264396D01*
X186822323Y-40264396D02*
X186631847Y-40312015D01*
X186631847Y-40312015D02*
X186298514Y-40312015D01*
X186298514Y-40312015D02*
X186108038Y-40264396D01*
X186108038Y-40264396D02*
X186012800Y-40169158D01*
X186012800Y-40169158D02*
X185965180Y-40073920D01*
X185965180Y-40073920D02*
X185965180Y-39883444D01*
X185965180Y-39883444D02*
X186012800Y-39788206D01*
X186012800Y-39788206D02*
X186108038Y-39692968D01*
X186108038Y-39692968D02*
X186298514Y-39645349D01*
X186298514Y-39645349D02*
X186631847Y-39645349D01*
X186631847Y-39645349D02*
X186822323Y-39692968D01*
X186822323Y-39692968D02*
X186917561Y-39788206D01*
X186917561Y-39788206D02*
X186965180Y-39883444D01*
X186631847Y-41169158D02*
X185965180Y-41169158D01*
X187012800Y-40931063D02*
X186298514Y-40692968D01*
X186298514Y-40692968D02*
X186298514Y-41312015D01*
X194537561Y-43860588D02*
X194585180Y-43765350D01*
X194585180Y-43765350D02*
X194585180Y-43622493D01*
X194585180Y-43622493D02*
X194537561Y-43479636D01*
X194537561Y-43479636D02*
X194442323Y-43384398D01*
X194442323Y-43384398D02*
X194347085Y-43336779D01*
X194347085Y-43336779D02*
X194156609Y-43289160D01*
X194156609Y-43289160D02*
X194013752Y-43289160D01*
X194013752Y-43289160D02*
X193823276Y-43336779D01*
X193823276Y-43336779D02*
X193728038Y-43384398D01*
X193728038Y-43384398D02*
X193632800Y-43479636D01*
X193632800Y-43479636D02*
X193585180Y-43622493D01*
X193585180Y-43622493D02*
X193585180Y-43717731D01*
X193585180Y-43717731D02*
X193632800Y-43860588D01*
X193632800Y-43860588D02*
X193680419Y-43908207D01*
X193680419Y-43908207D02*
X194013752Y-43908207D01*
X194013752Y-43908207D02*
X194013752Y-43717731D01*
X193585180Y-44336779D02*
X194585180Y-44336779D01*
X194585180Y-44336779D02*
X194585180Y-44717731D01*
X194585180Y-44717731D02*
X194537561Y-44812969D01*
X194537561Y-44812969D02*
X194489942Y-44860588D01*
X194489942Y-44860588D02*
X194394704Y-44908207D01*
X194394704Y-44908207D02*
X194251847Y-44908207D01*
X194251847Y-44908207D02*
X194156609Y-44860588D01*
X194156609Y-44860588D02*
X194108990Y-44812969D01*
X194108990Y-44812969D02*
X194061371Y-44717731D01*
X194061371Y-44717731D02*
X194061371Y-44336779D01*
X193585180Y-45336779D02*
X194585180Y-45336779D01*
X194585180Y-46003445D02*
X194585180Y-46193921D01*
X194585180Y-46193921D02*
X194537561Y-46289159D01*
X194537561Y-46289159D02*
X194442323Y-46384397D01*
X194442323Y-46384397D02*
X194251847Y-46432016D01*
X194251847Y-46432016D02*
X193918514Y-46432016D01*
X193918514Y-46432016D02*
X193728038Y-46384397D01*
X193728038Y-46384397D02*
X193632800Y-46289159D01*
X193632800Y-46289159D02*
X193585180Y-46193921D01*
X193585180Y-46193921D02*
X193585180Y-46003445D01*
X193585180Y-46003445D02*
X193632800Y-45908207D01*
X193632800Y-45908207D02*
X193728038Y-45812969D01*
X193728038Y-45812969D02*
X193918514Y-45765350D01*
X193918514Y-45765350D02*
X194251847Y-45765350D01*
X194251847Y-45765350D02*
X194442323Y-45812969D01*
X194442323Y-45812969D02*
X194537561Y-45908207D01*
X194537561Y-45908207D02*
X194585180Y-46003445D01*
X193585180Y-47384397D02*
X193585180Y-46812969D01*
X193585180Y-47098683D02*
X194585180Y-47098683D01*
X194585180Y-47098683D02*
X194442323Y-47003445D01*
X194442323Y-47003445D02*
X194347085Y-46908207D01*
X194347085Y-46908207D02*
X194299466Y-46812969D01*
X194489942Y-47765350D02*
X194537561Y-47812969D01*
X194537561Y-47812969D02*
X194585180Y-47908207D01*
X194585180Y-47908207D02*
X194585180Y-48146302D01*
X194585180Y-48146302D02*
X194537561Y-48241540D01*
X194537561Y-48241540D02*
X194489942Y-48289159D01*
X194489942Y-48289159D02*
X194394704Y-48336778D01*
X194394704Y-48336778D02*
X194299466Y-48336778D01*
X194299466Y-48336778D02*
X194156609Y-48289159D01*
X194156609Y-48289159D02*
X193585180Y-47717731D01*
X193585180Y-47717731D02*
X193585180Y-48336778D01*
X184377561Y-37740587D02*
X184425180Y-37645349D01*
X184425180Y-37645349D02*
X184425180Y-37502492D01*
X184425180Y-37502492D02*
X184377561Y-37359635D01*
X184377561Y-37359635D02*
X184282323Y-37264397D01*
X184282323Y-37264397D02*
X184187085Y-37216778D01*
X184187085Y-37216778D02*
X183996609Y-37169159D01*
X183996609Y-37169159D02*
X183853752Y-37169159D01*
X183853752Y-37169159D02*
X183663276Y-37216778D01*
X183663276Y-37216778D02*
X183568038Y-37264397D01*
X183568038Y-37264397D02*
X183472800Y-37359635D01*
X183472800Y-37359635D02*
X183425180Y-37502492D01*
X183425180Y-37502492D02*
X183425180Y-37597730D01*
X183425180Y-37597730D02*
X183472800Y-37740587D01*
X183472800Y-37740587D02*
X183520419Y-37788206D01*
X183520419Y-37788206D02*
X183853752Y-37788206D01*
X183853752Y-37788206D02*
X183853752Y-37597730D01*
X183425180Y-38216778D02*
X184425180Y-38216778D01*
X184425180Y-38216778D02*
X184425180Y-38597730D01*
X184425180Y-38597730D02*
X184377561Y-38692968D01*
X184377561Y-38692968D02*
X184329942Y-38740587D01*
X184329942Y-38740587D02*
X184234704Y-38788206D01*
X184234704Y-38788206D02*
X184091847Y-38788206D01*
X184091847Y-38788206D02*
X183996609Y-38740587D01*
X183996609Y-38740587D02*
X183948990Y-38692968D01*
X183948990Y-38692968D02*
X183901371Y-38597730D01*
X183901371Y-38597730D02*
X183901371Y-38216778D01*
X183425180Y-39216778D02*
X184425180Y-39216778D01*
X184425180Y-39883444D02*
X184425180Y-40073920D01*
X184425180Y-40073920D02*
X184377561Y-40169158D01*
X184377561Y-40169158D02*
X184282323Y-40264396D01*
X184282323Y-40264396D02*
X184091847Y-40312015D01*
X184091847Y-40312015D02*
X183758514Y-40312015D01*
X183758514Y-40312015D02*
X183568038Y-40264396D01*
X183568038Y-40264396D02*
X183472800Y-40169158D01*
X183472800Y-40169158D02*
X183425180Y-40073920D01*
X183425180Y-40073920D02*
X183425180Y-39883444D01*
X183425180Y-39883444D02*
X183472800Y-39788206D01*
X183472800Y-39788206D02*
X183568038Y-39692968D01*
X183568038Y-39692968D02*
X183758514Y-39645349D01*
X183758514Y-39645349D02*
X184091847Y-39645349D01*
X184091847Y-39645349D02*
X184282323Y-39692968D01*
X184282323Y-39692968D02*
X184377561Y-39788206D01*
X184377561Y-39788206D02*
X184425180Y-39883444D01*
X184425180Y-41216777D02*
X184425180Y-40740587D01*
X184425180Y-40740587D02*
X183948990Y-40692968D01*
X183948990Y-40692968D02*
X183996609Y-40740587D01*
X183996609Y-40740587D02*
X184044228Y-40835825D01*
X184044228Y-40835825D02*
X184044228Y-41073920D01*
X184044228Y-41073920D02*
X183996609Y-41169158D01*
X183996609Y-41169158D02*
X183948990Y-41216777D01*
X183948990Y-41216777D02*
X183853752Y-41264396D01*
X183853752Y-41264396D02*
X183615657Y-41264396D01*
X183615657Y-41264396D02*
X183520419Y-41216777D01*
X183520419Y-41216777D02*
X183472800Y-41169158D01*
X183472800Y-41169158D02*
X183425180Y-41073920D01*
X183425180Y-41073920D02*
X183425180Y-40835825D01*
X183425180Y-40835825D02*
X183472800Y-40740587D01*
X183472800Y-40740587D02*
X183520419Y-40692968D01*
X202205180Y-37462969D02*
X202205180Y-36986779D01*
X202205180Y-36986779D02*
X201728990Y-36939160D01*
X201728990Y-36939160D02*
X201776609Y-36986779D01*
X201776609Y-36986779D02*
X201824228Y-37082017D01*
X201824228Y-37082017D02*
X201824228Y-37320112D01*
X201824228Y-37320112D02*
X201776609Y-37415350D01*
X201776609Y-37415350D02*
X201728990Y-37462969D01*
X201728990Y-37462969D02*
X201633752Y-37510588D01*
X201633752Y-37510588D02*
X201395657Y-37510588D01*
X201395657Y-37510588D02*
X201300419Y-37462969D01*
X201300419Y-37462969D02*
X201252800Y-37415350D01*
X201252800Y-37415350D02*
X201205180Y-37320112D01*
X201205180Y-37320112D02*
X201205180Y-37082017D01*
X201205180Y-37082017D02*
X201252800Y-36986779D01*
X201252800Y-36986779D02*
X201300419Y-36939160D01*
X202205180Y-37796303D02*
X201205180Y-38129636D01*
X201205180Y-38129636D02*
X202205180Y-38462969D01*
X191997561Y-37510588D02*
X192045180Y-37415350D01*
X192045180Y-37415350D02*
X192045180Y-37272493D01*
X192045180Y-37272493D02*
X191997561Y-37129636D01*
X191997561Y-37129636D02*
X191902323Y-37034398D01*
X191902323Y-37034398D02*
X191807085Y-36986779D01*
X191807085Y-36986779D02*
X191616609Y-36939160D01*
X191616609Y-36939160D02*
X191473752Y-36939160D01*
X191473752Y-36939160D02*
X191283276Y-36986779D01*
X191283276Y-36986779D02*
X191188038Y-37034398D01*
X191188038Y-37034398D02*
X191092800Y-37129636D01*
X191092800Y-37129636D02*
X191045180Y-37272493D01*
X191045180Y-37272493D02*
X191045180Y-37367731D01*
X191045180Y-37367731D02*
X191092800Y-37510588D01*
X191092800Y-37510588D02*
X191140419Y-37558207D01*
X191140419Y-37558207D02*
X191473752Y-37558207D01*
X191473752Y-37558207D02*
X191473752Y-37367731D01*
X191045180Y-37986779D02*
X192045180Y-37986779D01*
X192045180Y-37986779D02*
X192045180Y-38367731D01*
X192045180Y-38367731D02*
X191997561Y-38462969D01*
X191997561Y-38462969D02*
X191949942Y-38510588D01*
X191949942Y-38510588D02*
X191854704Y-38558207D01*
X191854704Y-38558207D02*
X191711847Y-38558207D01*
X191711847Y-38558207D02*
X191616609Y-38510588D01*
X191616609Y-38510588D02*
X191568990Y-38462969D01*
X191568990Y-38462969D02*
X191521371Y-38367731D01*
X191521371Y-38367731D02*
X191521371Y-37986779D01*
X191045180Y-38986779D02*
X192045180Y-38986779D01*
X192045180Y-39653445D02*
X192045180Y-39843921D01*
X192045180Y-39843921D02*
X191997561Y-39939159D01*
X191997561Y-39939159D02*
X191902323Y-40034397D01*
X191902323Y-40034397D02*
X191711847Y-40082016D01*
X191711847Y-40082016D02*
X191378514Y-40082016D01*
X191378514Y-40082016D02*
X191188038Y-40034397D01*
X191188038Y-40034397D02*
X191092800Y-39939159D01*
X191092800Y-39939159D02*
X191045180Y-39843921D01*
X191045180Y-39843921D02*
X191045180Y-39653445D01*
X191045180Y-39653445D02*
X191092800Y-39558207D01*
X191092800Y-39558207D02*
X191188038Y-39462969D01*
X191188038Y-39462969D02*
X191378514Y-39415350D01*
X191378514Y-39415350D02*
X191711847Y-39415350D01*
X191711847Y-39415350D02*
X191902323Y-39462969D01*
X191902323Y-39462969D02*
X191997561Y-39558207D01*
X191997561Y-39558207D02*
X192045180Y-39653445D01*
X191949942Y-40462969D02*
X191997561Y-40510588D01*
X191997561Y-40510588D02*
X192045180Y-40605826D01*
X192045180Y-40605826D02*
X192045180Y-40843921D01*
X192045180Y-40843921D02*
X191997561Y-40939159D01*
X191997561Y-40939159D02*
X191949942Y-40986778D01*
X191949942Y-40986778D02*
X191854704Y-41034397D01*
X191854704Y-41034397D02*
X191759466Y-41034397D01*
X191759466Y-41034397D02*
X191616609Y-40986778D01*
X191616609Y-40986778D02*
X191045180Y-40415350D01*
X191045180Y-40415350D02*
X191045180Y-41034397D01*
X197077561Y-43860588D02*
X197125180Y-43765350D01*
X197125180Y-43765350D02*
X197125180Y-43622493D01*
X197125180Y-43622493D02*
X197077561Y-43479636D01*
X197077561Y-43479636D02*
X196982323Y-43384398D01*
X196982323Y-43384398D02*
X196887085Y-43336779D01*
X196887085Y-43336779D02*
X196696609Y-43289160D01*
X196696609Y-43289160D02*
X196553752Y-43289160D01*
X196553752Y-43289160D02*
X196363276Y-43336779D01*
X196363276Y-43336779D02*
X196268038Y-43384398D01*
X196268038Y-43384398D02*
X196172800Y-43479636D01*
X196172800Y-43479636D02*
X196125180Y-43622493D01*
X196125180Y-43622493D02*
X196125180Y-43717731D01*
X196125180Y-43717731D02*
X196172800Y-43860588D01*
X196172800Y-43860588D02*
X196220419Y-43908207D01*
X196220419Y-43908207D02*
X196553752Y-43908207D01*
X196553752Y-43908207D02*
X196553752Y-43717731D01*
X196125180Y-44336779D02*
X197125180Y-44336779D01*
X197125180Y-44336779D02*
X197125180Y-44717731D01*
X197125180Y-44717731D02*
X197077561Y-44812969D01*
X197077561Y-44812969D02*
X197029942Y-44860588D01*
X197029942Y-44860588D02*
X196934704Y-44908207D01*
X196934704Y-44908207D02*
X196791847Y-44908207D01*
X196791847Y-44908207D02*
X196696609Y-44860588D01*
X196696609Y-44860588D02*
X196648990Y-44812969D01*
X196648990Y-44812969D02*
X196601371Y-44717731D01*
X196601371Y-44717731D02*
X196601371Y-44336779D01*
X196125180Y-45336779D02*
X197125180Y-45336779D01*
X197125180Y-46003445D02*
X197125180Y-46193921D01*
X197125180Y-46193921D02*
X197077561Y-46289159D01*
X197077561Y-46289159D02*
X196982323Y-46384397D01*
X196982323Y-46384397D02*
X196791847Y-46432016D01*
X196791847Y-46432016D02*
X196458514Y-46432016D01*
X196458514Y-46432016D02*
X196268038Y-46384397D01*
X196268038Y-46384397D02*
X196172800Y-46289159D01*
X196172800Y-46289159D02*
X196125180Y-46193921D01*
X196125180Y-46193921D02*
X196125180Y-46003445D01*
X196125180Y-46003445D02*
X196172800Y-45908207D01*
X196172800Y-45908207D02*
X196268038Y-45812969D01*
X196268038Y-45812969D02*
X196458514Y-45765350D01*
X196458514Y-45765350D02*
X196791847Y-45765350D01*
X196791847Y-45765350D02*
X196982323Y-45812969D01*
X196982323Y-45812969D02*
X197077561Y-45908207D01*
X197077561Y-45908207D02*
X197125180Y-46003445D01*
X196125180Y-47384397D02*
X196125180Y-46812969D01*
X196125180Y-47098683D02*
X197125180Y-47098683D01*
X197125180Y-47098683D02*
X196982323Y-47003445D01*
X196982323Y-47003445D02*
X196887085Y-46908207D01*
X196887085Y-46908207D02*
X196839466Y-46812969D01*
X197125180Y-47717731D02*
X197125180Y-48336778D01*
X197125180Y-48336778D02*
X196744228Y-48003445D01*
X196744228Y-48003445D02*
X196744228Y-48146302D01*
X196744228Y-48146302D02*
X196696609Y-48241540D01*
X196696609Y-48241540D02*
X196648990Y-48289159D01*
X196648990Y-48289159D02*
X196553752Y-48336778D01*
X196553752Y-48336778D02*
X196315657Y-48336778D01*
X196315657Y-48336778D02*
X196220419Y-48289159D01*
X196220419Y-48289159D02*
X196172800Y-48241540D01*
X196172800Y-48241540D02*
X196125180Y-48146302D01*
X196125180Y-48146302D02*
X196125180Y-47860588D01*
X196125180Y-47860588D02*
X196172800Y-47765350D01*
X196172800Y-47765350D02*
X196220419Y-47717731D01*
X186687562Y-44860588D02*
X186735181Y-44765350D01*
X186735181Y-44765350D02*
X186735181Y-44622493D01*
X186735181Y-44622493D02*
X186687562Y-44479636D01*
X186687562Y-44479636D02*
X186592324Y-44384398D01*
X186592324Y-44384398D02*
X186497086Y-44336779D01*
X186497086Y-44336779D02*
X186306610Y-44289160D01*
X186306610Y-44289160D02*
X186163753Y-44289160D01*
X186163753Y-44289160D02*
X185973277Y-44336779D01*
X185973277Y-44336779D02*
X185878039Y-44384398D01*
X185878039Y-44384398D02*
X185782801Y-44479636D01*
X185782801Y-44479636D02*
X185735181Y-44622493D01*
X185735181Y-44622493D02*
X185735181Y-44717731D01*
X185735181Y-44717731D02*
X185782801Y-44860588D01*
X185782801Y-44860588D02*
X185830420Y-44908207D01*
X185830420Y-44908207D02*
X186163753Y-44908207D01*
X186163753Y-44908207D02*
X186163753Y-44717731D01*
X185735181Y-45336779D02*
X186735181Y-45336779D01*
X186735181Y-45336779D02*
X186735181Y-45717731D01*
X186735181Y-45717731D02*
X186687562Y-45812969D01*
X186687562Y-45812969D02*
X186639943Y-45860588D01*
X186639943Y-45860588D02*
X186544705Y-45908207D01*
X186544705Y-45908207D02*
X186401848Y-45908207D01*
X186401848Y-45908207D02*
X186306610Y-45860588D01*
X186306610Y-45860588D02*
X186258991Y-45812969D01*
X186258991Y-45812969D02*
X186211372Y-45717731D01*
X186211372Y-45717731D02*
X186211372Y-45336779D01*
X185735181Y-46336779D02*
X186735181Y-46336779D01*
X186735181Y-47003445D02*
X186735181Y-47193921D01*
X186735181Y-47193921D02*
X186687562Y-47289159D01*
X186687562Y-47289159D02*
X186592324Y-47384397D01*
X186592324Y-47384397D02*
X186401848Y-47432016D01*
X186401848Y-47432016D02*
X186068515Y-47432016D01*
X186068515Y-47432016D02*
X185878039Y-47384397D01*
X185878039Y-47384397D02*
X185782801Y-47289159D01*
X185782801Y-47289159D02*
X185735181Y-47193921D01*
X185735181Y-47193921D02*
X185735181Y-47003445D01*
X185735181Y-47003445D02*
X185782801Y-46908207D01*
X185782801Y-46908207D02*
X185878039Y-46812969D01*
X185878039Y-46812969D02*
X186068515Y-46765350D01*
X186068515Y-46765350D02*
X186401848Y-46765350D01*
X186401848Y-46765350D02*
X186592324Y-46812969D01*
X186592324Y-46812969D02*
X186687562Y-46908207D01*
X186687562Y-46908207D02*
X186735181Y-47003445D01*
X185735181Y-47908207D02*
X185735181Y-48098683D01*
X185735181Y-48098683D02*
X185782801Y-48193921D01*
X185782801Y-48193921D02*
X185830420Y-48241540D01*
X185830420Y-48241540D02*
X185973277Y-48336778D01*
X185973277Y-48336778D02*
X186163753Y-48384397D01*
X186163753Y-48384397D02*
X186544705Y-48384397D01*
X186544705Y-48384397D02*
X186639943Y-48336778D01*
X186639943Y-48336778D02*
X186687562Y-48289159D01*
X186687562Y-48289159D02*
X186735181Y-48193921D01*
X186735181Y-48193921D02*
X186735181Y-48003445D01*
X186735181Y-48003445D02*
X186687562Y-47908207D01*
X186687562Y-47908207D02*
X186639943Y-47860588D01*
X186639943Y-47860588D02*
X186544705Y-47812969D01*
X186544705Y-47812969D02*
X186306610Y-47812969D01*
X186306610Y-47812969D02*
X186211372Y-47860588D01*
X186211372Y-47860588D02*
X186163753Y-47908207D01*
X186163753Y-47908207D02*
X186116134Y-48003445D01*
X186116134Y-48003445D02*
X186116134Y-48193921D01*
X186116134Y-48193921D02*
X186163753Y-48289159D01*
X186163753Y-48289159D02*
X186211372Y-48336778D01*
X186211372Y-48336778D02*
X186306610Y-48384397D01*
X189457561Y-43860588D02*
X189505180Y-43765350D01*
X189505180Y-43765350D02*
X189505180Y-43622493D01*
X189505180Y-43622493D02*
X189457561Y-43479636D01*
X189457561Y-43479636D02*
X189362323Y-43384398D01*
X189362323Y-43384398D02*
X189267085Y-43336779D01*
X189267085Y-43336779D02*
X189076609Y-43289160D01*
X189076609Y-43289160D02*
X188933752Y-43289160D01*
X188933752Y-43289160D02*
X188743276Y-43336779D01*
X188743276Y-43336779D02*
X188648038Y-43384398D01*
X188648038Y-43384398D02*
X188552800Y-43479636D01*
X188552800Y-43479636D02*
X188505180Y-43622493D01*
X188505180Y-43622493D02*
X188505180Y-43717731D01*
X188505180Y-43717731D02*
X188552800Y-43860588D01*
X188552800Y-43860588D02*
X188600419Y-43908207D01*
X188600419Y-43908207D02*
X188933752Y-43908207D01*
X188933752Y-43908207D02*
X188933752Y-43717731D01*
X188505180Y-44336779D02*
X189505180Y-44336779D01*
X189505180Y-44336779D02*
X189505180Y-44717731D01*
X189505180Y-44717731D02*
X189457561Y-44812969D01*
X189457561Y-44812969D02*
X189409942Y-44860588D01*
X189409942Y-44860588D02*
X189314704Y-44908207D01*
X189314704Y-44908207D02*
X189171847Y-44908207D01*
X189171847Y-44908207D02*
X189076609Y-44860588D01*
X189076609Y-44860588D02*
X189028990Y-44812969D01*
X189028990Y-44812969D02*
X188981371Y-44717731D01*
X188981371Y-44717731D02*
X188981371Y-44336779D01*
X188505180Y-45336779D02*
X189505180Y-45336779D01*
X189505180Y-46003445D02*
X189505180Y-46193921D01*
X189505180Y-46193921D02*
X189457561Y-46289159D01*
X189457561Y-46289159D02*
X189362323Y-46384397D01*
X189362323Y-46384397D02*
X189171847Y-46432016D01*
X189171847Y-46432016D02*
X188838514Y-46432016D01*
X188838514Y-46432016D02*
X188648038Y-46384397D01*
X188648038Y-46384397D02*
X188552800Y-46289159D01*
X188552800Y-46289159D02*
X188505180Y-46193921D01*
X188505180Y-46193921D02*
X188505180Y-46003445D01*
X188505180Y-46003445D02*
X188552800Y-45908207D01*
X188552800Y-45908207D02*
X188648038Y-45812969D01*
X188648038Y-45812969D02*
X188838514Y-45765350D01*
X188838514Y-45765350D02*
X189171847Y-45765350D01*
X189171847Y-45765350D02*
X189362323Y-45812969D01*
X189362323Y-45812969D02*
X189457561Y-45908207D01*
X189457561Y-45908207D02*
X189505180Y-46003445D01*
X188505180Y-47384397D02*
X188505180Y-46812969D01*
X188505180Y-47098683D02*
X189505180Y-47098683D01*
X189505180Y-47098683D02*
X189362323Y-47003445D01*
X189362323Y-47003445D02*
X189267085Y-46908207D01*
X189267085Y-46908207D02*
X189219466Y-46812969D01*
X189505180Y-48003445D02*
X189505180Y-48098683D01*
X189505180Y-48098683D02*
X189457561Y-48193921D01*
X189457561Y-48193921D02*
X189409942Y-48241540D01*
X189409942Y-48241540D02*
X189314704Y-48289159D01*
X189314704Y-48289159D02*
X189124228Y-48336778D01*
X189124228Y-48336778D02*
X188886133Y-48336778D01*
X188886133Y-48336778D02*
X188695657Y-48289159D01*
X188695657Y-48289159D02*
X188600419Y-48241540D01*
X188600419Y-48241540D02*
X188552800Y-48193921D01*
X188552800Y-48193921D02*
X188505180Y-48098683D01*
X188505180Y-48098683D02*
X188505180Y-48003445D01*
X188505180Y-48003445D02*
X188552800Y-47908207D01*
X188552800Y-47908207D02*
X188600419Y-47860588D01*
X188600419Y-47860588D02*
X188695657Y-47812969D01*
X188695657Y-47812969D02*
X188886133Y-47765350D01*
X188886133Y-47765350D02*
X189124228Y-47765350D01*
X189124228Y-47765350D02*
X189314704Y-47812969D01*
X189314704Y-47812969D02*
X189409942Y-47860588D01*
X189409942Y-47860588D02*
X189457561Y-47908207D01*
X189457561Y-47908207D02*
X189505180Y-48003445D01*
X181837561Y-44860588D02*
X181885180Y-44765350D01*
X181885180Y-44765350D02*
X181885180Y-44622493D01*
X181885180Y-44622493D02*
X181837561Y-44479636D01*
X181837561Y-44479636D02*
X181742323Y-44384398D01*
X181742323Y-44384398D02*
X181647085Y-44336779D01*
X181647085Y-44336779D02*
X181456609Y-44289160D01*
X181456609Y-44289160D02*
X181313752Y-44289160D01*
X181313752Y-44289160D02*
X181123276Y-44336779D01*
X181123276Y-44336779D02*
X181028038Y-44384398D01*
X181028038Y-44384398D02*
X180932800Y-44479636D01*
X180932800Y-44479636D02*
X180885180Y-44622493D01*
X180885180Y-44622493D02*
X180885180Y-44717731D01*
X180885180Y-44717731D02*
X180932800Y-44860588D01*
X180932800Y-44860588D02*
X180980419Y-44908207D01*
X180980419Y-44908207D02*
X181313752Y-44908207D01*
X181313752Y-44908207D02*
X181313752Y-44717731D01*
X180885180Y-45336779D02*
X181885180Y-45336779D01*
X181885180Y-45336779D02*
X181885180Y-45717731D01*
X181885180Y-45717731D02*
X181837561Y-45812969D01*
X181837561Y-45812969D02*
X181789942Y-45860588D01*
X181789942Y-45860588D02*
X181694704Y-45908207D01*
X181694704Y-45908207D02*
X181551847Y-45908207D01*
X181551847Y-45908207D02*
X181456609Y-45860588D01*
X181456609Y-45860588D02*
X181408990Y-45812969D01*
X181408990Y-45812969D02*
X181361371Y-45717731D01*
X181361371Y-45717731D02*
X181361371Y-45336779D01*
X180885180Y-46336779D02*
X181885180Y-46336779D01*
X181885180Y-47003445D02*
X181885180Y-47193921D01*
X181885180Y-47193921D02*
X181837561Y-47289159D01*
X181837561Y-47289159D02*
X181742323Y-47384397D01*
X181742323Y-47384397D02*
X181551847Y-47432016D01*
X181551847Y-47432016D02*
X181218514Y-47432016D01*
X181218514Y-47432016D02*
X181028038Y-47384397D01*
X181028038Y-47384397D02*
X180932800Y-47289159D01*
X180932800Y-47289159D02*
X180885180Y-47193921D01*
X180885180Y-47193921D02*
X180885180Y-47003445D01*
X180885180Y-47003445D02*
X180932800Y-46908207D01*
X180932800Y-46908207D02*
X181028038Y-46812969D01*
X181028038Y-46812969D02*
X181218514Y-46765350D01*
X181218514Y-46765350D02*
X181551847Y-46765350D01*
X181551847Y-46765350D02*
X181742323Y-46812969D01*
X181742323Y-46812969D02*
X181837561Y-46908207D01*
X181837561Y-46908207D02*
X181885180Y-47003445D01*
X181885180Y-47765350D02*
X181885180Y-48432016D01*
X181885180Y-48432016D02*
X180885180Y-48003445D01*
X194537561Y-37510588D02*
X194585180Y-37415350D01*
X194585180Y-37415350D02*
X194585180Y-37272493D01*
X194585180Y-37272493D02*
X194537561Y-37129636D01*
X194537561Y-37129636D02*
X194442323Y-37034398D01*
X194442323Y-37034398D02*
X194347085Y-36986779D01*
X194347085Y-36986779D02*
X194156609Y-36939160D01*
X194156609Y-36939160D02*
X194013752Y-36939160D01*
X194013752Y-36939160D02*
X193823276Y-36986779D01*
X193823276Y-36986779D02*
X193728038Y-37034398D01*
X193728038Y-37034398D02*
X193632800Y-37129636D01*
X193632800Y-37129636D02*
X193585180Y-37272493D01*
X193585180Y-37272493D02*
X193585180Y-37367731D01*
X193585180Y-37367731D02*
X193632800Y-37510588D01*
X193632800Y-37510588D02*
X193680419Y-37558207D01*
X193680419Y-37558207D02*
X194013752Y-37558207D01*
X194013752Y-37558207D02*
X194013752Y-37367731D01*
X193585180Y-37986779D02*
X194585180Y-37986779D01*
X194585180Y-37986779D02*
X194585180Y-38367731D01*
X194585180Y-38367731D02*
X194537561Y-38462969D01*
X194537561Y-38462969D02*
X194489942Y-38510588D01*
X194489942Y-38510588D02*
X194394704Y-38558207D01*
X194394704Y-38558207D02*
X194251847Y-38558207D01*
X194251847Y-38558207D02*
X194156609Y-38510588D01*
X194156609Y-38510588D02*
X194108990Y-38462969D01*
X194108990Y-38462969D02*
X194061371Y-38367731D01*
X194061371Y-38367731D02*
X194061371Y-37986779D01*
X193585180Y-38986779D02*
X194585180Y-38986779D01*
X194585180Y-39653445D02*
X194585180Y-39843921D01*
X194585180Y-39843921D02*
X194537561Y-39939159D01*
X194537561Y-39939159D02*
X194442323Y-40034397D01*
X194442323Y-40034397D02*
X194251847Y-40082016D01*
X194251847Y-40082016D02*
X193918514Y-40082016D01*
X193918514Y-40082016D02*
X193728038Y-40034397D01*
X193728038Y-40034397D02*
X193632800Y-39939159D01*
X193632800Y-39939159D02*
X193585180Y-39843921D01*
X193585180Y-39843921D02*
X193585180Y-39653445D01*
X193585180Y-39653445D02*
X193632800Y-39558207D01*
X193632800Y-39558207D02*
X193728038Y-39462969D01*
X193728038Y-39462969D02*
X193918514Y-39415350D01*
X193918514Y-39415350D02*
X194251847Y-39415350D01*
X194251847Y-39415350D02*
X194442323Y-39462969D01*
X194442323Y-39462969D02*
X194537561Y-39558207D01*
X194537561Y-39558207D02*
X194585180Y-39653445D01*
X193585180Y-41034397D02*
X193585180Y-40462969D01*
X193585180Y-40748683D02*
X194585180Y-40748683D01*
X194585180Y-40748683D02*
X194442323Y-40653445D01*
X194442323Y-40653445D02*
X194347085Y-40558207D01*
X194347085Y-40558207D02*
X194299466Y-40462969D01*
X189457561Y-37740587D02*
X189505180Y-37645349D01*
X189505180Y-37645349D02*
X189505180Y-37502492D01*
X189505180Y-37502492D02*
X189457561Y-37359635D01*
X189457561Y-37359635D02*
X189362323Y-37264397D01*
X189362323Y-37264397D02*
X189267085Y-37216778D01*
X189267085Y-37216778D02*
X189076609Y-37169159D01*
X189076609Y-37169159D02*
X188933752Y-37169159D01*
X188933752Y-37169159D02*
X188743276Y-37216778D01*
X188743276Y-37216778D02*
X188648038Y-37264397D01*
X188648038Y-37264397D02*
X188552800Y-37359635D01*
X188552800Y-37359635D02*
X188505180Y-37502492D01*
X188505180Y-37502492D02*
X188505180Y-37597730D01*
X188505180Y-37597730D02*
X188552800Y-37740587D01*
X188552800Y-37740587D02*
X188600419Y-37788206D01*
X188600419Y-37788206D02*
X188933752Y-37788206D01*
X188933752Y-37788206D02*
X188933752Y-37597730D01*
X188505180Y-38216778D02*
X189505180Y-38216778D01*
X189505180Y-38216778D02*
X189505180Y-38597730D01*
X189505180Y-38597730D02*
X189457561Y-38692968D01*
X189457561Y-38692968D02*
X189409942Y-38740587D01*
X189409942Y-38740587D02*
X189314704Y-38788206D01*
X189314704Y-38788206D02*
X189171847Y-38788206D01*
X189171847Y-38788206D02*
X189076609Y-38740587D01*
X189076609Y-38740587D02*
X189028990Y-38692968D01*
X189028990Y-38692968D02*
X188981371Y-38597730D01*
X188981371Y-38597730D02*
X188981371Y-38216778D01*
X188505180Y-39216778D02*
X189505180Y-39216778D01*
X189505180Y-39883444D02*
X189505180Y-40073920D01*
X189505180Y-40073920D02*
X189457561Y-40169158D01*
X189457561Y-40169158D02*
X189362323Y-40264396D01*
X189362323Y-40264396D02*
X189171847Y-40312015D01*
X189171847Y-40312015D02*
X188838514Y-40312015D01*
X188838514Y-40312015D02*
X188648038Y-40264396D01*
X188648038Y-40264396D02*
X188552800Y-40169158D01*
X188552800Y-40169158D02*
X188505180Y-40073920D01*
X188505180Y-40073920D02*
X188505180Y-39883444D01*
X188505180Y-39883444D02*
X188552800Y-39788206D01*
X188552800Y-39788206D02*
X188648038Y-39692968D01*
X188648038Y-39692968D02*
X188838514Y-39645349D01*
X188838514Y-39645349D02*
X189171847Y-39645349D01*
X189171847Y-39645349D02*
X189362323Y-39692968D01*
X189362323Y-39692968D02*
X189457561Y-39788206D01*
X189457561Y-39788206D02*
X189505180Y-39883444D01*
X189505180Y-40645349D02*
X189505180Y-41264396D01*
X189505180Y-41264396D02*
X189124228Y-40931063D01*
X189124228Y-40931063D02*
X189124228Y-41073920D01*
X189124228Y-41073920D02*
X189076609Y-41169158D01*
X189076609Y-41169158D02*
X189028990Y-41216777D01*
X189028990Y-41216777D02*
X188933752Y-41264396D01*
X188933752Y-41264396D02*
X188695657Y-41264396D01*
X188695657Y-41264396D02*
X188600419Y-41216777D01*
X188600419Y-41216777D02*
X188552800Y-41169158D01*
X188552800Y-41169158D02*
X188505180Y-41073920D01*
X188505180Y-41073920D02*
X188505180Y-40788206D01*
X188505180Y-40788206D02*
X188552800Y-40692968D01*
X188552800Y-40692968D02*
X188600419Y-40645349D01*
X181837561Y-37740587D02*
X181885180Y-37645349D01*
X181885180Y-37645349D02*
X181885180Y-37502492D01*
X181885180Y-37502492D02*
X181837561Y-37359635D01*
X181837561Y-37359635D02*
X181742323Y-37264397D01*
X181742323Y-37264397D02*
X181647085Y-37216778D01*
X181647085Y-37216778D02*
X181456609Y-37169159D01*
X181456609Y-37169159D02*
X181313752Y-37169159D01*
X181313752Y-37169159D02*
X181123276Y-37216778D01*
X181123276Y-37216778D02*
X181028038Y-37264397D01*
X181028038Y-37264397D02*
X180932800Y-37359635D01*
X180932800Y-37359635D02*
X180885180Y-37502492D01*
X180885180Y-37502492D02*
X180885180Y-37597730D01*
X180885180Y-37597730D02*
X180932800Y-37740587D01*
X180932800Y-37740587D02*
X180980419Y-37788206D01*
X180980419Y-37788206D02*
X181313752Y-37788206D01*
X181313752Y-37788206D02*
X181313752Y-37597730D01*
X180885180Y-38216778D02*
X181885180Y-38216778D01*
X181885180Y-38216778D02*
X181885180Y-38597730D01*
X181885180Y-38597730D02*
X181837561Y-38692968D01*
X181837561Y-38692968D02*
X181789942Y-38740587D01*
X181789942Y-38740587D02*
X181694704Y-38788206D01*
X181694704Y-38788206D02*
X181551847Y-38788206D01*
X181551847Y-38788206D02*
X181456609Y-38740587D01*
X181456609Y-38740587D02*
X181408990Y-38692968D01*
X181408990Y-38692968D02*
X181361371Y-38597730D01*
X181361371Y-38597730D02*
X181361371Y-38216778D01*
X180885180Y-39216778D02*
X181885180Y-39216778D01*
X181885180Y-39883444D02*
X181885180Y-40073920D01*
X181885180Y-40073920D02*
X181837561Y-40169158D01*
X181837561Y-40169158D02*
X181742323Y-40264396D01*
X181742323Y-40264396D02*
X181551847Y-40312015D01*
X181551847Y-40312015D02*
X181218514Y-40312015D01*
X181218514Y-40312015D02*
X181028038Y-40264396D01*
X181028038Y-40264396D02*
X180932800Y-40169158D01*
X180932800Y-40169158D02*
X180885180Y-40073920D01*
X180885180Y-40073920D02*
X180885180Y-39883444D01*
X180885180Y-39883444D02*
X180932800Y-39788206D01*
X180932800Y-39788206D02*
X181028038Y-39692968D01*
X181028038Y-39692968D02*
X181218514Y-39645349D01*
X181218514Y-39645349D02*
X181551847Y-39645349D01*
X181551847Y-39645349D02*
X181742323Y-39692968D01*
X181742323Y-39692968D02*
X181837561Y-39788206D01*
X181837561Y-39788206D02*
X181885180Y-39883444D01*
X181885180Y-41169158D02*
X181885180Y-40978682D01*
X181885180Y-40978682D02*
X181837561Y-40883444D01*
X181837561Y-40883444D02*
X181789942Y-40835825D01*
X181789942Y-40835825D02*
X181647085Y-40740587D01*
X181647085Y-40740587D02*
X181456609Y-40692968D01*
X181456609Y-40692968D02*
X181075657Y-40692968D01*
X181075657Y-40692968D02*
X180980419Y-40740587D01*
X180980419Y-40740587D02*
X180932800Y-40788206D01*
X180932800Y-40788206D02*
X180885180Y-40883444D01*
X180885180Y-40883444D02*
X180885180Y-41073920D01*
X180885180Y-41073920D02*
X180932800Y-41169158D01*
X180932800Y-41169158D02*
X180980419Y-41216777D01*
X180980419Y-41216777D02*
X181075657Y-41264396D01*
X181075657Y-41264396D02*
X181313752Y-41264396D01*
X181313752Y-41264396D02*
X181408990Y-41216777D01*
X181408990Y-41216777D02*
X181456609Y-41169158D01*
X181456609Y-41169158D02*
X181504228Y-41073920D01*
X181504228Y-41073920D02*
X181504228Y-40883444D01*
X181504228Y-40883444D02*
X181456609Y-40788206D01*
X181456609Y-40788206D02*
X181408990Y-40740587D01*
X181408990Y-40740587D02*
X181313752Y-40692968D01*
X177574819Y-38238094D02*
X176574819Y-38238094D01*
X176574819Y-38238094D02*
X176574819Y-37999999D01*
X176574819Y-37999999D02*
X176622438Y-37857142D01*
X176622438Y-37857142D02*
X176717676Y-37761904D01*
X176717676Y-37761904D02*
X176812914Y-37714285D01*
X176812914Y-37714285D02*
X177003390Y-37666666D01*
X177003390Y-37666666D02*
X177146247Y-37666666D01*
X177146247Y-37666666D02*
X177336723Y-37714285D01*
X177336723Y-37714285D02*
X177431961Y-37761904D01*
X177431961Y-37761904D02*
X177527200Y-37857142D01*
X177527200Y-37857142D02*
X177574819Y-37999999D01*
X177574819Y-37999999D02*
X177574819Y-38238094D01*
X176574819Y-37333332D02*
X176574819Y-36714285D01*
X176574819Y-36714285D02*
X176955771Y-37047618D01*
X176955771Y-37047618D02*
X176955771Y-36904761D01*
X176955771Y-36904761D02*
X177003390Y-36809523D01*
X177003390Y-36809523D02*
X177051009Y-36761904D01*
X177051009Y-36761904D02*
X177146247Y-36714285D01*
X177146247Y-36714285D02*
X177384342Y-36714285D01*
X177384342Y-36714285D02*
X177479580Y-36761904D01*
X177479580Y-36761904D02*
X177527200Y-36809523D01*
X177527200Y-36809523D02*
X177574819Y-36904761D01*
X177574819Y-36904761D02*
X177574819Y-37190475D01*
X177574819Y-37190475D02*
X177527200Y-37285713D01*
X177527200Y-37285713D02*
X177479580Y-37333332D01*
X177254819Y-33951904D02*
X176254819Y-33951904D01*
X177254819Y-33380476D02*
X176683390Y-33809047D01*
X176254819Y-33380476D02*
X176826247Y-33951904D01*
X145974819Y-56327142D02*
X146689104Y-56327142D01*
X146689104Y-56327142D02*
X146831961Y-56374761D01*
X146831961Y-56374761D02*
X146927200Y-56469999D01*
X146927200Y-56469999D02*
X146974819Y-56612856D01*
X146974819Y-56612856D02*
X146974819Y-56708094D01*
X145974819Y-55660475D02*
X145974819Y-55469999D01*
X145974819Y-55469999D02*
X146022438Y-55374761D01*
X146022438Y-55374761D02*
X146117676Y-55279523D01*
X146117676Y-55279523D02*
X146308152Y-55231904D01*
X146308152Y-55231904D02*
X146641485Y-55231904D01*
X146641485Y-55231904D02*
X146831961Y-55279523D01*
X146831961Y-55279523D02*
X146927200Y-55374761D01*
X146927200Y-55374761D02*
X146974819Y-55469999D01*
X146974819Y-55469999D02*
X146974819Y-55660475D01*
X146974819Y-55660475D02*
X146927200Y-55755713D01*
X146927200Y-55755713D02*
X146831961Y-55850951D01*
X146831961Y-55850951D02*
X146641485Y-55898570D01*
X146641485Y-55898570D02*
X146308152Y-55898570D01*
X146308152Y-55898570D02*
X146117676Y-55850951D01*
X146117676Y-55850951D02*
X146022438Y-55755713D01*
X146022438Y-55755713D02*
X145974819Y-55660475D01*
X145974819Y-54898570D02*
X145974819Y-54279523D01*
X145974819Y-54279523D02*
X146355771Y-54612856D01*
X146355771Y-54612856D02*
X146355771Y-54469999D01*
X146355771Y-54469999D02*
X146403390Y-54374761D01*
X146403390Y-54374761D02*
X146451009Y-54327142D01*
X146451009Y-54327142D02*
X146546247Y-54279523D01*
X146546247Y-54279523D02*
X146784342Y-54279523D01*
X146784342Y-54279523D02*
X146879580Y-54327142D01*
X146879580Y-54327142D02*
X146927200Y-54374761D01*
X146927200Y-54374761D02*
X146974819Y-54469999D01*
X146974819Y-54469999D02*
X146974819Y-54755713D01*
X146974819Y-54755713D02*
X146927200Y-54850951D01*
X146927200Y-54850951D02*
X146879580Y-54898570D01*
X166245833Y-60104819D02*
X165912500Y-59628628D01*
X165674405Y-60104819D02*
X165674405Y-59104819D01*
X165674405Y-59104819D02*
X166055357Y-59104819D01*
X166055357Y-59104819D02*
X166150595Y-59152438D01*
X166150595Y-59152438D02*
X166198214Y-59200057D01*
X166198214Y-59200057D02*
X166245833Y-59295295D01*
X166245833Y-59295295D02*
X166245833Y-59438152D01*
X166245833Y-59438152D02*
X166198214Y-59533390D01*
X166198214Y-59533390D02*
X166150595Y-59581009D01*
X166150595Y-59581009D02*
X166055357Y-59628628D01*
X166055357Y-59628628D02*
X165674405Y-59628628D01*
X167102976Y-59104819D02*
X166912500Y-59104819D01*
X166912500Y-59104819D02*
X166817262Y-59152438D01*
X166817262Y-59152438D02*
X166769643Y-59200057D01*
X166769643Y-59200057D02*
X166674405Y-59342914D01*
X166674405Y-59342914D02*
X166626786Y-59533390D01*
X166626786Y-59533390D02*
X166626786Y-59914342D01*
X166626786Y-59914342D02*
X166674405Y-60009580D01*
X166674405Y-60009580D02*
X166722024Y-60057200D01*
X166722024Y-60057200D02*
X166817262Y-60104819D01*
X166817262Y-60104819D02*
X167007738Y-60104819D01*
X167007738Y-60104819D02*
X167102976Y-60057200D01*
X167102976Y-60057200D02*
X167150595Y-60009580D01*
X167150595Y-60009580D02*
X167198214Y-59914342D01*
X167198214Y-59914342D02*
X167198214Y-59676247D01*
X167198214Y-59676247D02*
X167150595Y-59581009D01*
X167150595Y-59581009D02*
X167102976Y-59533390D01*
X167102976Y-59533390D02*
X167007738Y-59485771D01*
X167007738Y-59485771D02*
X166817262Y-59485771D01*
X166817262Y-59485771D02*
X166722024Y-59533390D01*
X166722024Y-59533390D02*
X166674405Y-59581009D01*
X166674405Y-59581009D02*
X166626786Y-59676247D01*
X195991905Y-55494819D02*
X195991905Y-54494819D01*
X195991905Y-54494819D02*
X196230000Y-54494819D01*
X196230000Y-54494819D02*
X196372857Y-54542438D01*
X196372857Y-54542438D02*
X196468095Y-54637676D01*
X196468095Y-54637676D02*
X196515714Y-54732914D01*
X196515714Y-54732914D02*
X196563333Y-54923390D01*
X196563333Y-54923390D02*
X196563333Y-55066247D01*
X196563333Y-55066247D02*
X196515714Y-55256723D01*
X196515714Y-55256723D02*
X196468095Y-55351961D01*
X196468095Y-55351961D02*
X196372857Y-55447200D01*
X196372857Y-55447200D02*
X196230000Y-55494819D01*
X196230000Y-55494819D02*
X195991905Y-55494819D01*
X196944286Y-54590057D02*
X196991905Y-54542438D01*
X196991905Y-54542438D02*
X197087143Y-54494819D01*
X197087143Y-54494819D02*
X197325238Y-54494819D01*
X197325238Y-54494819D02*
X197420476Y-54542438D01*
X197420476Y-54542438D02*
X197468095Y-54590057D01*
X197468095Y-54590057D02*
X197515714Y-54685295D01*
X197515714Y-54685295D02*
X197515714Y-54780533D01*
X197515714Y-54780533D02*
X197468095Y-54923390D01*
X197468095Y-54923390D02*
X196896667Y-55494819D01*
X196896667Y-55494819D02*
X197515714Y-55494819D01*
X190833333Y-64454819D02*
X190500000Y-63978628D01*
X190261905Y-64454819D02*
X190261905Y-63454819D01*
X190261905Y-63454819D02*
X190642857Y-63454819D01*
X190642857Y-63454819D02*
X190738095Y-63502438D01*
X190738095Y-63502438D02*
X190785714Y-63550057D01*
X190785714Y-63550057D02*
X190833333Y-63645295D01*
X190833333Y-63645295D02*
X190833333Y-63788152D01*
X190833333Y-63788152D02*
X190785714Y-63883390D01*
X190785714Y-63883390D02*
X190738095Y-63931009D01*
X190738095Y-63931009D02*
X190642857Y-63978628D01*
X190642857Y-63978628D02*
X190261905Y-63978628D01*
X191214286Y-63550057D02*
X191261905Y-63502438D01*
X191261905Y-63502438D02*
X191357143Y-63454819D01*
X191357143Y-63454819D02*
X191595238Y-63454819D01*
X191595238Y-63454819D02*
X191690476Y-63502438D01*
X191690476Y-63502438D02*
X191738095Y-63550057D01*
X191738095Y-63550057D02*
X191785714Y-63645295D01*
X191785714Y-63645295D02*
X191785714Y-63740533D01*
X191785714Y-63740533D02*
X191738095Y-63883390D01*
X191738095Y-63883390D02*
X191166667Y-64454819D01*
X191166667Y-64454819D02*
X191785714Y-64454819D01*
X166333333Y-35604819D02*
X166000000Y-35128628D01*
X165761905Y-35604819D02*
X165761905Y-34604819D01*
X165761905Y-34604819D02*
X166142857Y-34604819D01*
X166142857Y-34604819D02*
X166238095Y-34652438D01*
X166238095Y-34652438D02*
X166285714Y-34700057D01*
X166285714Y-34700057D02*
X166333333Y-34795295D01*
X166333333Y-34795295D02*
X166333333Y-34938152D01*
X166333333Y-34938152D02*
X166285714Y-35033390D01*
X166285714Y-35033390D02*
X166238095Y-35081009D01*
X166238095Y-35081009D02*
X166142857Y-35128628D01*
X166142857Y-35128628D02*
X165761905Y-35128628D01*
X166904762Y-35033390D02*
X166809524Y-34985771D01*
X166809524Y-34985771D02*
X166761905Y-34938152D01*
X166761905Y-34938152D02*
X166714286Y-34842914D01*
X166714286Y-34842914D02*
X166714286Y-34795295D01*
X166714286Y-34795295D02*
X166761905Y-34700057D01*
X166761905Y-34700057D02*
X166809524Y-34652438D01*
X166809524Y-34652438D02*
X166904762Y-34604819D01*
X166904762Y-34604819D02*
X167095238Y-34604819D01*
X167095238Y-34604819D02*
X167190476Y-34652438D01*
X167190476Y-34652438D02*
X167238095Y-34700057D01*
X167238095Y-34700057D02*
X167285714Y-34795295D01*
X167285714Y-34795295D02*
X167285714Y-34842914D01*
X167285714Y-34842914D02*
X167238095Y-34938152D01*
X167238095Y-34938152D02*
X167190476Y-34985771D01*
X167190476Y-34985771D02*
X167095238Y-35033390D01*
X167095238Y-35033390D02*
X166904762Y-35033390D01*
X166904762Y-35033390D02*
X166809524Y-35081009D01*
X166809524Y-35081009D02*
X166761905Y-35128628D01*
X166761905Y-35128628D02*
X166714286Y-35223866D01*
X166714286Y-35223866D02*
X166714286Y-35414342D01*
X166714286Y-35414342D02*
X166761905Y-35509580D01*
X166761905Y-35509580D02*
X166809524Y-35557200D01*
X166809524Y-35557200D02*
X166904762Y-35604819D01*
X166904762Y-35604819D02*
X167095238Y-35604819D01*
X167095238Y-35604819D02*
X167190476Y-35557200D01*
X167190476Y-35557200D02*
X167238095Y-35509580D01*
X167238095Y-35509580D02*
X167285714Y-35414342D01*
X167285714Y-35414342D02*
X167285714Y-35223866D01*
X167285714Y-35223866D02*
X167238095Y-35128628D01*
X167238095Y-35128628D02*
X167190476Y-35081009D01*
X167190476Y-35081009D02*
X167095238Y-35033390D01*
X166245833Y-63604819D02*
X165912500Y-63128628D01*
X165674405Y-63604819D02*
X165674405Y-62604819D01*
X165674405Y-62604819D02*
X166055357Y-62604819D01*
X166055357Y-62604819D02*
X166150595Y-62652438D01*
X166150595Y-62652438D02*
X166198214Y-62700057D01*
X166198214Y-62700057D02*
X166245833Y-62795295D01*
X166245833Y-62795295D02*
X166245833Y-62938152D01*
X166245833Y-62938152D02*
X166198214Y-63033390D01*
X166198214Y-63033390D02*
X166150595Y-63081009D01*
X166150595Y-63081009D02*
X166055357Y-63128628D01*
X166055357Y-63128628D02*
X165674405Y-63128628D01*
X166579167Y-62604819D02*
X167245833Y-62604819D01*
X167245833Y-62604819D02*
X166817262Y-63604819D01*
X166245833Y-53604819D02*
X165912500Y-53128628D01*
X165674405Y-53604819D02*
X165674405Y-52604819D01*
X165674405Y-52604819D02*
X166055357Y-52604819D01*
X166055357Y-52604819D02*
X166150595Y-52652438D01*
X166150595Y-52652438D02*
X166198214Y-52700057D01*
X166198214Y-52700057D02*
X166245833Y-52795295D01*
X166245833Y-52795295D02*
X166245833Y-52938152D01*
X166245833Y-52938152D02*
X166198214Y-53033390D01*
X166198214Y-53033390D02*
X166150595Y-53081009D01*
X166150595Y-53081009D02*
X166055357Y-53128628D01*
X166055357Y-53128628D02*
X165674405Y-53128628D01*
X167150595Y-52604819D02*
X166674405Y-52604819D01*
X166674405Y-52604819D02*
X166626786Y-53081009D01*
X166626786Y-53081009D02*
X166674405Y-53033390D01*
X166674405Y-53033390D02*
X166769643Y-52985771D01*
X166769643Y-52985771D02*
X167007738Y-52985771D01*
X167007738Y-52985771D02*
X167102976Y-53033390D01*
X167102976Y-53033390D02*
X167150595Y-53081009D01*
X167150595Y-53081009D02*
X167198214Y-53176247D01*
X167198214Y-53176247D02*
X167198214Y-53414342D01*
X167198214Y-53414342D02*
X167150595Y-53509580D01*
X167150595Y-53509580D02*
X167102976Y-53557200D01*
X167102976Y-53557200D02*
X167007738Y-53604819D01*
X167007738Y-53604819D02*
X166769643Y-53604819D01*
X166769643Y-53604819D02*
X166674405Y-53557200D01*
X166674405Y-53557200D02*
X166626786Y-53509580D01*
X145474819Y-33041428D02*
X146189104Y-33041428D01*
X146189104Y-33041428D02*
X146331961Y-33089047D01*
X146331961Y-33089047D02*
X146427200Y-33184285D01*
X146427200Y-33184285D02*
X146474819Y-33327142D01*
X146474819Y-33327142D02*
X146474819Y-33422380D01*
X146474819Y-32565237D02*
X145474819Y-32565237D01*
X146474819Y-31565238D02*
X146474819Y-32136666D01*
X146474819Y-31850952D02*
X145474819Y-31850952D01*
X145474819Y-31850952D02*
X145617676Y-31946190D01*
X145617676Y-31946190D02*
X145712914Y-32041428D01*
X145712914Y-32041428D02*
X145760533Y-32136666D01*
X151254819Y-64387142D02*
X151969104Y-64387142D01*
X151969104Y-64387142D02*
X152111961Y-64434761D01*
X152111961Y-64434761D02*
X152207200Y-64529999D01*
X152207200Y-64529999D02*
X152254819Y-64672856D01*
X152254819Y-64672856D02*
X152254819Y-64768094D01*
X151254819Y-63720475D02*
X151254819Y-63529999D01*
X151254819Y-63529999D02*
X151302438Y-63434761D01*
X151302438Y-63434761D02*
X151397676Y-63339523D01*
X151397676Y-63339523D02*
X151588152Y-63291904D01*
X151588152Y-63291904D02*
X151921485Y-63291904D01*
X151921485Y-63291904D02*
X152111961Y-63339523D01*
X152111961Y-63339523D02*
X152207200Y-63434761D01*
X152207200Y-63434761D02*
X152254819Y-63529999D01*
X152254819Y-63529999D02*
X152254819Y-63720475D01*
X152254819Y-63720475D02*
X152207200Y-63815713D01*
X152207200Y-63815713D02*
X152111961Y-63910951D01*
X152111961Y-63910951D02*
X151921485Y-63958570D01*
X151921485Y-63958570D02*
X151588152Y-63958570D01*
X151588152Y-63958570D02*
X151397676Y-63910951D01*
X151397676Y-63910951D02*
X151302438Y-63815713D01*
X151302438Y-63815713D02*
X151254819Y-63720475D01*
X151588152Y-62434761D02*
X152254819Y-62434761D01*
X151207200Y-62672856D02*
X151921485Y-62910951D01*
X151921485Y-62910951D02*
X151921485Y-62291904D01*
X151254819Y-41101428D02*
X151969104Y-41101428D01*
X151969104Y-41101428D02*
X152111961Y-41149047D01*
X152111961Y-41149047D02*
X152207200Y-41244285D01*
X152207200Y-41244285D02*
X152254819Y-41387142D01*
X152254819Y-41387142D02*
X152254819Y-41482380D01*
X152254819Y-40625237D02*
X151254819Y-40625237D01*
X151350057Y-40196666D02*
X151302438Y-40149047D01*
X151302438Y-40149047D02*
X151254819Y-40053809D01*
X151254819Y-40053809D02*
X151254819Y-39815714D01*
X151254819Y-39815714D02*
X151302438Y-39720476D01*
X151302438Y-39720476D02*
X151350057Y-39672857D01*
X151350057Y-39672857D02*
X151445295Y-39625238D01*
X151445295Y-39625238D02*
X151540533Y-39625238D01*
X151540533Y-39625238D02*
X151683390Y-39672857D01*
X151683390Y-39672857D02*
X152254819Y-40244285D01*
X152254819Y-40244285D02*
X152254819Y-39625238D01*
X173074819Y-38238094D02*
X172074819Y-38238094D01*
X172074819Y-38238094D02*
X172074819Y-37999999D01*
X172074819Y-37999999D02*
X172122438Y-37857142D01*
X172122438Y-37857142D02*
X172217676Y-37761904D01*
X172217676Y-37761904D02*
X172312914Y-37714285D01*
X172312914Y-37714285D02*
X172503390Y-37666666D01*
X172503390Y-37666666D02*
X172646247Y-37666666D01*
X172646247Y-37666666D02*
X172836723Y-37714285D01*
X172836723Y-37714285D02*
X172931961Y-37761904D01*
X172931961Y-37761904D02*
X173027200Y-37857142D01*
X173027200Y-37857142D02*
X173074819Y-37999999D01*
X173074819Y-37999999D02*
X173074819Y-38238094D01*
X172408152Y-36809523D02*
X173074819Y-36809523D01*
X172027200Y-37047618D02*
X172741485Y-37285713D01*
X172741485Y-37285713D02*
X172741485Y-36666666D01*
X172754819Y-33951904D02*
X171754819Y-33951904D01*
X172754819Y-33380476D02*
X172183390Y-33809047D01*
X171754819Y-33380476D02*
X172326247Y-33951904D01*
X174308333Y-63954580D02*
X174260714Y-64002200D01*
X174260714Y-64002200D02*
X174117857Y-64049819D01*
X174117857Y-64049819D02*
X174022619Y-64049819D01*
X174022619Y-64049819D02*
X173879762Y-64002200D01*
X173879762Y-64002200D02*
X173784524Y-63906961D01*
X173784524Y-63906961D02*
X173736905Y-63811723D01*
X173736905Y-63811723D02*
X173689286Y-63621247D01*
X173689286Y-63621247D02*
X173689286Y-63478390D01*
X173689286Y-63478390D02*
X173736905Y-63287914D01*
X173736905Y-63287914D02*
X173784524Y-63192676D01*
X173784524Y-63192676D02*
X173879762Y-63097438D01*
X173879762Y-63097438D02*
X174022619Y-63049819D01*
X174022619Y-63049819D02*
X174117857Y-63049819D01*
X174117857Y-63049819D02*
X174260714Y-63097438D01*
X174260714Y-63097438D02*
X174308333Y-63145057D01*
X175260714Y-64049819D02*
X174689286Y-64049819D01*
X174975000Y-64049819D02*
X174975000Y-63049819D01*
X174975000Y-63049819D02*
X174879762Y-63192676D01*
X174879762Y-63192676D02*
X174784524Y-63287914D01*
X174784524Y-63287914D02*
X174689286Y-63335533D01*
X166333333Y-39104819D02*
X166000000Y-38628628D01*
X165761905Y-39104819D02*
X165761905Y-38104819D01*
X165761905Y-38104819D02*
X166142857Y-38104819D01*
X166142857Y-38104819D02*
X166238095Y-38152438D01*
X166238095Y-38152438D02*
X166285714Y-38200057D01*
X166285714Y-38200057D02*
X166333333Y-38295295D01*
X166333333Y-38295295D02*
X166333333Y-38438152D01*
X166333333Y-38438152D02*
X166285714Y-38533390D01*
X166285714Y-38533390D02*
X166238095Y-38581009D01*
X166238095Y-38581009D02*
X166142857Y-38628628D01*
X166142857Y-38628628D02*
X165761905Y-38628628D01*
X166809524Y-39104819D02*
X167000000Y-39104819D01*
X167000000Y-39104819D02*
X167095238Y-39057200D01*
X167095238Y-39057200D02*
X167142857Y-39009580D01*
X167142857Y-39009580D02*
X167238095Y-38866723D01*
X167238095Y-38866723D02*
X167285714Y-38676247D01*
X167285714Y-38676247D02*
X167285714Y-38295295D01*
X167285714Y-38295295D02*
X167238095Y-38200057D01*
X167238095Y-38200057D02*
X167190476Y-38152438D01*
X167190476Y-38152438D02*
X167095238Y-38104819D01*
X167095238Y-38104819D02*
X166904762Y-38104819D01*
X166904762Y-38104819D02*
X166809524Y-38152438D01*
X166809524Y-38152438D02*
X166761905Y-38200057D01*
X166761905Y-38200057D02*
X166714286Y-38295295D01*
X166714286Y-38295295D02*
X166714286Y-38533390D01*
X166714286Y-38533390D02*
X166761905Y-38628628D01*
X166761905Y-38628628D02*
X166809524Y-38676247D01*
X166809524Y-38676247D02*
X166904762Y-38723866D01*
X166904762Y-38723866D02*
X167095238Y-38723866D01*
X167095238Y-38723866D02*
X167190476Y-38676247D01*
X167190476Y-38676247D02*
X167238095Y-38628628D01*
X167238095Y-38628628D02*
X167285714Y-38533390D01*
D11*
X166639564Y-47265000D02*
X166185436Y-47265000D01*
X166639564Y-48735000D02*
X166185436Y-48735000D01*
X149550000Y-49230000D02*
X149550000Y-48370000D01*
X149550000Y-49230000D02*
X150350000Y-49230000D01*
X152700000Y-43500000D02*
X152700000Y-47280000D01*
X152700000Y-43500000D02*
X163200000Y-43500000D01*
X152700000Y-48720000D02*
X152700000Y-52500000D01*
X152700000Y-52500000D02*
X163200000Y-52500000D01*
X163200000Y-43500000D02*
X163200000Y-47200000D01*
X163200000Y-48800000D02*
X163200000Y-52500000D01*
X159000000Y-48000000D02*
G75*
G02*
X155400000Y-48000000I-1800000J0D01*
G01*
X155400000Y-48000000D02*
G75*
G02*
X159000000Y-48000000I1800000J0D01*
G01*
X188940000Y-56764000D02*
X188940000Y-56920000D01*
X188940000Y-59080000D02*
X188940000Y-59236000D01*
X188940000Y-56764484D02*
G75*
G02*
X192171397Y-56919939I1560000J-1235516D01*
G01*
X189459039Y-56920000D02*
G75*
G02*
X191540910Y-56919951I1040961J-1080000D01*
G01*
X191540910Y-59080049D02*
G75*
G02*
X189459039Y-59080000I-1040910J1080049D01*
G01*
X192171397Y-59080061D02*
G75*
G02*
X188940000Y-59235516I-1671397J1080061D01*
G01*
X134620000Y-47700000D02*
X134620000Y-44000000D01*
X134620000Y-53000000D02*
X134620000Y-49300000D01*
X145120000Y-44000000D02*
X134620000Y-44000000D01*
X145120000Y-47780000D02*
X145120000Y-44000000D01*
X145120000Y-53000000D02*
X134620000Y-53000000D01*
X145120000Y-53000000D02*
X145120000Y-49220000D01*
X148270000Y-47270000D02*
X147470000Y-47270000D01*
X148270000Y-47270000D02*
X148270000Y-48130000D01*
X142420000Y-48500000D02*
G75*
G02*
X138820000Y-48500000I-1800000J0D01*
G01*
X138820000Y-48500000D02*
G75*
G02*
X142420000Y-48500000I1800000J0D01*
G01*
X182975000Y-55535000D02*
X181025000Y-55535000D01*
X182975000Y-55535000D02*
X184925000Y-55535000D01*
X182975000Y-60655000D02*
X181025000Y-60655000D01*
X182975000Y-60655000D02*
X184925000Y-60655000D01*
X185915000Y-60890000D02*
X185435000Y-60890000D01*
X185675000Y-60560000D01*
X185915000Y-60890000D01*
G36*
X185915000Y-60890000D02*
G01*
X185435000Y-60890000D01*
X185675000Y-60560000D01*
X185915000Y-60890000D01*
G37*
X174475000Y-56985000D02*
X172975000Y-56985000D01*
X174475000Y-56985000D02*
X175975000Y-56985000D01*
X174475000Y-60205000D02*
X172975000Y-60205000D01*
X174475000Y-60205000D02*
X175975000Y-60205000D01*
X176927500Y-60360000D02*
X176447500Y-60360000D01*
X176687500Y-60030000D01*
X176927500Y-60360000D01*
G36*
X176927500Y-60360000D02*
G01*
X176447500Y-60360000D01*
X176687500Y-60030000D01*
X176927500Y-60360000D01*
G37*
X196772936Y-61265000D02*
X197227064Y-61265000D01*
X196772936Y-62735000D02*
X197227064Y-62735000D01*
X176202064Y-54360000D02*
X175747936Y-54360000D01*
X176202064Y-55830000D02*
X175747936Y-55830000D01*
X179750000Y-34000000D02*
X179750000Y-52000000D01*
X179750000Y-52000000D02*
X203250000Y-52000000D01*
X203250000Y-34000000D02*
X179750000Y-34000000D01*
X203250000Y-40460000D02*
X204200000Y-40460000D01*
X203250000Y-52000000D02*
X203250000Y-34000000D01*
X204200000Y-40460000D02*
X204200000Y-45540000D01*
X204200000Y-45540000D02*
X203250000Y-45540000D01*
X173880000Y-35380000D02*
X173880000Y-39620000D01*
X173880000Y-39620000D02*
X176120000Y-39620000D01*
X175000000Y-34730000D02*
X175000000Y-35380000D01*
X175000000Y-40270000D02*
X175000000Y-39620000D01*
X176120000Y-35380000D02*
X173880000Y-35380000D01*
X176120000Y-35980000D02*
X173880000Y-35980000D01*
X176120000Y-36100000D02*
X173880000Y-36100000D01*
X176120000Y-36220000D02*
X173880000Y-36220000D01*
X176120000Y-39620000D02*
X176120000Y-35380000D01*
X135120000Y-58700000D02*
X135120000Y-55000000D01*
X135120000Y-64000000D02*
X135120000Y-60300000D01*
X145620000Y-55000000D02*
X135120000Y-55000000D01*
X145620000Y-58780000D02*
X145620000Y-55000000D01*
X145620000Y-64000000D02*
X135120000Y-64000000D01*
X145620000Y-64000000D02*
X145620000Y-60220000D01*
X148770000Y-58270000D02*
X147970000Y-58270000D01*
X148770000Y-58270000D02*
X148770000Y-59130000D01*
X142920000Y-59500000D02*
G75*
G02*
X139320000Y-59500000I-1800000J0D01*
G01*
X139320000Y-59500000D02*
G75*
G02*
X142920000Y-59500000I1800000J0D01*
G01*
X166639564Y-57265000D02*
X166185436Y-57265000D01*
X166639564Y-58735000D02*
X166185436Y-58735000D01*
X195170000Y-56764000D02*
X195170000Y-56920000D01*
X195170000Y-59080000D02*
X195170000Y-59236000D01*
X195170000Y-56764484D02*
G75*
G02*
X198401397Y-56919939I1560000J-1235516D01*
G01*
X195689039Y-56920000D02*
G75*
G02*
X197770910Y-56919951I1040961J-1080000D01*
G01*
X197770910Y-59080049D02*
G75*
G02*
X195689039Y-59080000I-1040910J1080049D01*
G01*
X198401397Y-59080061D02*
G75*
G02*
X195170000Y-59235516I-1671397J1080061D01*
G01*
X190685436Y-61265000D02*
X191139564Y-61265000D01*
X190685436Y-62735000D02*
X191139564Y-62735000D01*
X166727064Y-32765000D02*
X166272936Y-32765000D01*
X166727064Y-34235000D02*
X166272936Y-34235000D01*
X166639564Y-60765000D02*
X166185436Y-60765000D01*
X166639564Y-62235000D02*
X166185436Y-62235000D01*
X166639564Y-50765000D02*
X166185436Y-50765000D01*
X166639564Y-52235000D02*
X166185436Y-52235000D01*
X134620000Y-35700000D02*
X134620000Y-32000000D01*
X134620000Y-41000000D02*
X134620000Y-37300000D01*
X145120000Y-32000000D02*
X134620000Y-32000000D01*
X145120000Y-35780000D02*
X145120000Y-32000000D01*
X145120000Y-41000000D02*
X134620000Y-41000000D01*
X145120000Y-41000000D02*
X145120000Y-37220000D01*
X148270000Y-35270000D02*
X147470000Y-35270000D01*
X148270000Y-35270000D02*
X148270000Y-36130000D01*
X142420000Y-36500000D02*
G75*
G02*
X138820000Y-36500000I-1800000J0D01*
G01*
X138820000Y-36500000D02*
G75*
G02*
X142420000Y-36500000I1800000J0D01*
G01*
X149550000Y-60730000D02*
X149550000Y-59870000D01*
X149550000Y-60730000D02*
X150350000Y-60730000D01*
X152700000Y-55000000D02*
X152700000Y-58780000D01*
X152700000Y-55000000D02*
X163200000Y-55000000D01*
X152700000Y-60220000D02*
X152700000Y-64000000D01*
X152700000Y-64000000D02*
X163200000Y-64000000D01*
X163200000Y-55000000D02*
X163200000Y-58700000D01*
X163200000Y-60300000D02*
X163200000Y-64000000D01*
X159000000Y-59500000D02*
G75*
G02*
X155400000Y-59500000I-1800000J0D01*
G01*
X155400000Y-59500000D02*
G75*
G02*
X159000000Y-59500000I1800000J0D01*
G01*
X149550000Y-37730000D02*
X149550000Y-36870000D01*
X149550000Y-37730000D02*
X150350000Y-37730000D01*
X152700000Y-32000000D02*
X152700000Y-35780000D01*
X152700000Y-32000000D02*
X163200000Y-32000000D01*
X152700000Y-37220000D02*
X152700000Y-41000000D01*
X152700000Y-41000000D02*
X163200000Y-41000000D01*
X163200000Y-32000000D02*
X163200000Y-35700000D01*
X163200000Y-37300000D02*
X163200000Y-41000000D01*
X159000000Y-36500000D02*
G75*
G02*
X155400000Y-36500000I-1800000J0D01*
G01*
X155400000Y-36500000D02*
G75*
G02*
X159000000Y-36500000I1800000J0D01*
G01*
X169380000Y-35380000D02*
X169380000Y-39620000D01*
X169380000Y-39620000D02*
X171620000Y-39620000D01*
X170500000Y-34730000D02*
X170500000Y-35380000D01*
X170500000Y-40270000D02*
X170500000Y-39620000D01*
X171620000Y-35380000D02*
X169380000Y-35380000D01*
X171620000Y-35980000D02*
X169380000Y-35980000D01*
X171620000Y-36100000D02*
X169380000Y-36100000D01*
X171620000Y-36220000D02*
X169380000Y-36220000D01*
X171620000Y-39620000D02*
X171620000Y-35380000D01*
X171355000Y-62225000D02*
X171355000Y-62670000D01*
X171355000Y-62225000D02*
X177595000Y-62225000D01*
X171355000Y-64520000D02*
X171355000Y-64965000D01*
X171355000Y-64965000D02*
X177595000Y-64965000D01*
X177595000Y-62225000D02*
X177595000Y-62670000D01*
X177595000Y-64520000D02*
X177595000Y-64965000D01*
X166727064Y-36265000D02*
X166272936Y-36265000D01*
X166727064Y-37735000D02*
X166272936Y-37735000D01*
%LPC*%
D12*
X167325000Y-48000000D03*
X165500000Y-48000000D03*
D13*
X150720000Y-48000000D03*
D14*
X162120000Y-48000000D03*
X153820000Y-48000000D03*
D15*
X189230000Y-58000000D03*
D16*
X191770000Y-58000000D03*
D13*
X147100000Y-48500000D03*
D14*
X135700000Y-48500000D03*
X144000000Y-48500000D03*
D17*
X185450000Y-60000000D03*
X185450000Y-58730000D03*
X185450000Y-57460000D03*
X185450000Y-56190000D03*
X180500000Y-56190000D03*
X180500000Y-57460000D03*
X180500000Y-58730000D03*
X180500000Y-60000000D03*
D18*
X176587500Y-59595000D03*
X176587500Y-59095000D03*
X176587500Y-58595000D03*
X176587500Y-58095000D03*
X176587500Y-57595000D03*
X172362500Y-57595000D03*
X172362500Y-58095000D03*
X172362500Y-58595000D03*
X172362500Y-59095000D03*
X172362500Y-59595000D03*
D19*
X196087500Y-62000000D03*
X197912500Y-62000000D03*
D12*
X176887500Y-55095000D03*
X175062500Y-55095000D03*
D20*
X201660000Y-35380000D03*
X199120000Y-35380000D03*
X196580000Y-35380000D03*
X194040000Y-35380000D03*
X191500000Y-35380000D03*
X188960000Y-35380000D03*
X186420000Y-35380000D03*
X183880000Y-35380000D03*
X181340000Y-35380000D03*
D21*
X181340000Y-50620000D03*
X183880000Y-50620000D03*
X186420000Y-50620000D03*
X188960000Y-50620000D03*
X191500000Y-50620000D03*
X194040000Y-50620000D03*
X196580000Y-50620000D03*
X199120000Y-50620000D03*
X201660000Y-50620000D03*
D22*
X175000000Y-33690000D03*
D23*
X175000000Y-41310000D03*
D13*
X147600000Y-59500000D03*
D14*
X136200000Y-59500000D03*
X144500000Y-59500000D03*
D12*
X167325000Y-58000000D03*
X165500000Y-58000000D03*
D15*
X195460000Y-58000000D03*
D16*
X198000000Y-58000000D03*
D19*
X190000000Y-62000000D03*
X191825000Y-62000000D03*
D12*
X167412500Y-33500000D03*
X165587500Y-33500000D03*
X167325000Y-61500000D03*
X165500000Y-61500000D03*
X167325000Y-51500000D03*
X165500000Y-51500000D03*
D13*
X147100000Y-36500000D03*
D14*
X135700000Y-36500000D03*
X144000000Y-36500000D03*
D13*
X150720000Y-59500000D03*
D14*
X162120000Y-59500000D03*
X153820000Y-59500000D03*
D13*
X150720000Y-36500000D03*
D14*
X162120000Y-36500000D03*
X153820000Y-36500000D03*
D22*
X170500000Y-33690000D03*
D23*
X170500000Y-41310000D03*
D24*
X171975000Y-63595000D03*
X176975000Y-63595000D03*
D12*
X167412500Y-37000000D03*
X165587500Y-37000000D03*
%LPD*%
M02*
