M48
; DRILL file {KiCad 8.0.7} date 2025-07-02T20:48:33-0400
; FORMAT={-:-/ absolute / metric / decimal}
; #@! TF.CreationDate,2025-07-02T20:48:33-04:00
; #@! TF.GenerationSoftware,Kicad,Pcbnew,8.0.7
; #@! TF.FileFunction,Plated,1,2,PTH
FMAT,2
METRIC
; #@! TA.AperFunction,Plated,PTH,ViaDrill
T1C0.400
; #@! TA.AperFunction,Plated,PTH,ComponentDrill
T2C0.965
; #@! TA.AperFunction,Plated,PTH,ComponentDrill
T3C1.500
; #@! TA.AperFunction,Plated,PTH,ComponentDrill
T4C1.800
; #@! TA.AperFunction,Plated,PTH,ComponentDrill
T5C2.000
%
G90
G05
T1
X157.5Y-53.0
X160.25Y-45.75
X161.0Y-24.0
X161.0Y-46.5
X161.5Y-44.5
X164.5Y-25.0
X164.5Y-36.0
X165.237Y-25.737
X165.5Y-46.5
X166.0Y-24.65
X166.0Y-26.5
X166.0Y-36.0
X166.0Y-39.5
X169.5Y-27.0
X169.9Y-25.475
X170.0Y-24.35
X170.5Y-29.0
X172.5Y-53.0
X172.5Y-58.0
X173.0Y-29.0
X173.5Y-25.5
X173.5Y-58.5
X175.0Y-54.0
X175.5Y-29.0
X177.0Y-53.5
T2
X185.0Y-39.0
X185.0Y-43.407
X187.5Y-39.0
X187.5Y-43.407
X190.0Y-39.0
X190.0Y-43.407
T3
X217.46Y-27.65
X217.46Y-46.65
X220.0Y-34.0
X220.0Y-53.0
X236.46Y-27.65
X236.46Y-46.65
X239.0Y-34.0
X239.0Y-53.0
T4
X183.0Y-37.3G85X183.0Y-36.7
G05
X192.0Y-45.107G85X192.0Y-45.707
G05
T5
X183.0Y-45.157G85X183.0Y-45.657
G05
X192.0Y-37.25G85X192.0Y-36.75
G05
M30
