G04 #@! TF.GenerationSoftware,KiCad,Pcbnew,8.0.7*
G04 #@! TF.CreationDate,2025-07-02T20:48:29-04:00*
G04 #@! TF.ProjectId,ESP32_laptop-midi,45535033-325f-46c6-9170-746f702d6d69,rev?*
G04 #@! TF.SameCoordinates,Original*
G04 #@! TF.FileFunction,Copper,L2,Bot*
G04 #@! TF.FilePolarity,Positive*
%FSLAX46Y46*%
G04 Gerber Fmt 4.6, Leading zero omitted, Abs format (unit mm)*
G04 Created by KiCad (PCBNEW 8.0.7) date 2025-07-02 20:48:29*
%MOMM*%
%LPD*%
G01*
G04 APERTURE LIST*
G04 Aperture macros list*
%AMFreePoly0*
4,1,11,0.558779,3.080902,0.595106,3.030902,0.600000,3.000000,0.600000,-1.000000,-0.600000,-1.000000,-0.600000,3.000000,-0.580902,3.058779,-0.530902,3.095106,-0.500000,3.100000,0.500000,3.100000,0.558779,3.080902,0.558779,3.080902,$1*%
G04 Aperture macros list end*
G04 #@! TA.AperFunction,ComponentPad*
%ADD10C,2.200000*%
G04 #@! TD*
G04 #@! TA.AperFunction,ComponentPad*
%ADD11O,2.500000X3.500000*%
G04 #@! TD*
G04 #@! TA.AperFunction,ComponentPad*
%ADD12C,1.524000*%
G04 #@! TD*
G04 #@! TA.AperFunction,SMDPad,CuDef*
%ADD13FreePoly0,0.000000*%
G04 #@! TD*
G04 #@! TA.AperFunction,SMDPad,CuDef*
%ADD14FreePoly0,180.000000*%
G04 #@! TD*
G04 #@! TA.AperFunction,ViaPad*
%ADD15C,0.800000*%
G04 #@! TD*
G04 #@! TA.AperFunction,Conductor*
%ADD16C,0.250000*%
G04 #@! TD*
G04 #@! TA.AperFunction,Conductor*
%ADD17C,0.500000*%
G04 #@! TD*
G04 APERTURE END LIST*
D10*
X220000000Y-34000000D03*
X217460000Y-27650000D03*
X239000000Y-53000000D03*
X236460000Y-46650000D03*
X239000000Y-34000000D03*
X236460000Y-27650000D03*
D11*
X191999999Y-36999999D03*
X183000001Y-36999999D03*
D12*
X190000000Y-39000000D03*
X185000000Y-39000000D03*
X187500000Y-39000000D03*
D11*
X183000001Y-45406901D03*
X191999999Y-45406901D03*
D12*
X185000000Y-43406900D03*
X190000000Y-43406900D03*
X187500000Y-43406900D03*
D10*
X220000000Y-53000000D03*
X217460000Y-46650000D03*
D13*
X154840000Y-33380000D03*
X157380000Y-33380000D03*
X159920000Y-33380000D03*
X162460000Y-33380000D03*
X165000000Y-33380000D03*
X167540000Y-33380000D03*
X170080000Y-33380000D03*
X172620000Y-33380000D03*
X175160000Y-33380000D03*
D14*
X175160000Y-48620000D03*
X172620000Y-48620000D03*
X170080000Y-48620000D03*
X167540000Y-48620000D03*
X165000000Y-48620000D03*
X162460000Y-48620000D03*
X159920000Y-48620000D03*
X157380000Y-48620000D03*
X154840000Y-48620000D03*
D15*
X169900153Y-25475153D03*
X165237347Y-25737347D03*
X164500000Y-25000000D03*
X166000000Y-26500000D03*
X166000000Y-24650000D03*
X160250000Y-45750000D03*
X173500000Y-25500000D03*
X166000000Y-39500000D03*
X166000000Y-36000000D03*
X161500000Y-44500000D03*
X172500000Y-58000000D03*
X161000000Y-24000000D03*
X173500000Y-58500000D03*
X161000000Y-46500000D03*
X165500000Y-46500000D03*
X175000000Y-54000000D03*
X164500000Y-36000000D03*
X169500000Y-27000000D03*
X170500000Y-29000000D03*
X170000000Y-24350000D03*
X157500000Y-53000000D03*
X173000000Y-29000000D03*
X172500000Y-53000000D03*
X175500000Y-29000000D03*
X177000000Y-53500000D03*
D16*
X169524847Y-25475153D02*
X165000000Y-30000000D01*
X165000000Y-30000000D02*
X165000000Y-33380000D01*
X169900153Y-25475153D02*
X169524847Y-25475153D01*
D17*
X164350000Y-24650000D02*
X166000000Y-24650000D01*
X159920000Y-29080000D02*
X164350000Y-24650000D01*
X159920000Y-33380000D02*
X159920000Y-29080000D01*
X184500000Y-23500000D02*
X197500000Y-23500000D01*
X219000000Y-23500000D02*
X238500000Y-23500000D01*
X159500000Y-45000000D02*
X157380000Y-42880000D01*
X157380000Y-35380000D02*
X158000000Y-36000000D01*
X158000000Y-36000000D02*
X166000000Y-36000000D01*
X172500000Y-55000000D02*
X169500000Y-55000000D01*
X194500000Y-41000000D02*
X197500000Y-38000000D01*
X161000000Y-54500000D02*
X161000000Y-54000000D01*
X197500000Y-38000000D02*
X197500000Y-23500000D01*
X175000000Y-54000000D02*
X174000000Y-55000000D01*
X173500000Y-25500000D02*
X171500000Y-23500000D01*
X241000000Y-31500000D02*
X241000000Y-49000000D01*
X161000000Y-25000000D02*
X161250000Y-25250000D01*
X161000000Y-54000000D02*
X161000000Y-46500000D01*
X241000000Y-26000000D02*
X241000000Y-31500000D01*
X172500000Y-58000000D02*
X169500000Y-55000000D01*
X241000000Y-32000000D02*
X241000000Y-31500000D01*
X163000000Y-23500000D02*
X171500000Y-23500000D01*
X157380000Y-33380000D02*
X157380000Y-29120000D01*
X189500000Y-41000000D02*
X194500000Y-41000000D01*
X203000000Y-23500000D02*
X219000000Y-23500000D01*
X166000000Y-39500000D02*
X166000000Y-36000000D01*
X161000000Y-46500000D02*
X160250000Y-45750000D01*
X171500000Y-23500000D02*
X184500000Y-23500000D01*
X173500000Y-56000000D02*
X172500000Y-55000000D01*
X161000000Y-46500000D02*
X159500000Y-45000000D01*
X220000000Y-24500000D02*
X219000000Y-23500000D01*
X157380000Y-29120000D02*
X161250000Y-25250000D01*
X157380000Y-42880000D02*
X157380000Y-35380000D01*
X220000000Y-53000000D02*
X220000000Y-24500000D01*
X169500000Y-55000000D02*
X161500000Y-55000000D01*
X165500000Y-46500000D02*
X161000000Y-46500000D01*
X238500000Y-23500000D02*
X241000000Y-26000000D01*
X174000000Y-55000000D02*
X172500000Y-55000000D01*
X161000000Y-24000000D02*
X161000000Y-25000000D01*
X160000000Y-44500000D02*
X159500000Y-45000000D01*
X161250000Y-25250000D02*
X163000000Y-23500000D01*
X239000000Y-53000000D02*
X239000000Y-51000000D01*
X187500000Y-39000000D02*
X189500000Y-41000000D01*
X157380000Y-33380000D02*
X157380000Y-35380000D01*
X239000000Y-51000000D02*
X241000000Y-49000000D01*
X161500000Y-44500000D02*
X160000000Y-44500000D01*
X187500000Y-43406900D02*
X187500000Y-39000000D01*
X173500000Y-58500000D02*
X173500000Y-56000000D01*
X239000000Y-34000000D02*
X241000000Y-32000000D01*
X161500000Y-55000000D02*
X161000000Y-54500000D01*
X197500000Y-23500000D02*
X203000000Y-23500000D01*
D16*
X169500000Y-27000000D02*
X168636396Y-27000000D01*
X167540000Y-29960000D02*
X167540000Y-33380000D01*
X168000000Y-29500000D02*
X167540000Y-29960000D01*
X168000000Y-27636396D02*
X168000000Y-29500000D01*
X168636396Y-27000000D02*
X168000000Y-27636396D01*
X170080000Y-29420000D02*
X170500000Y-29000000D01*
X170080000Y-33380000D02*
X170080000Y-29420000D01*
X162500000Y-31766732D02*
X162460000Y-31806732D01*
X170000000Y-24350000D02*
X166850000Y-27500000D01*
X166850000Y-27500000D02*
X165000000Y-27500000D01*
X162460000Y-31806732D02*
X162460000Y-33380000D01*
X162500000Y-30000000D02*
X162500000Y-31766732D01*
X165000000Y-27500000D02*
X162500000Y-30000000D01*
X157500000Y-53000000D02*
X157500000Y-49500000D01*
X172620000Y-33380000D02*
X172620000Y-29380000D01*
X172620000Y-29380000D02*
X173000000Y-29000000D01*
X172620000Y-48620000D02*
X172620000Y-52880000D01*
X172620000Y-52880000D02*
X172500000Y-53000000D01*
X175160000Y-29340000D02*
X175500000Y-29000000D01*
X175160000Y-33380000D02*
X175160000Y-29340000D01*
X177000000Y-53500000D02*
X175000000Y-51500000D01*
X175000000Y-51500000D02*
X175000000Y-48780000D01*
X175000000Y-48780000D02*
X175160000Y-48620000D01*
M02*
