G04 #@! TF.GenerationSoftware,KiCad,Pcbnew,8.0.7*
G04 #@! TF.CreationDate,2025-07-02T20:48:29-04:00*
G04 #@! TF.ProjectId,ESP32_laptop-midi,45535033-325f-46c6-9170-746f702d6d69,rev?*
G04 #@! TF.SameCoordinates,Original*
G04 #@! TF.FileFunction,Legend,Top*
G04 #@! TF.FilePolarity,Positive*
%FSLAX46Y46*%
G04 Gerber Fmt 4.6, Leading zero omitted, Abs format (unit mm)*
G04 Created by KiCad (PCBNEW 8.0.7) date 2025-07-02 20:48:29*
%MOMM*%
%LPD*%
G01*
G04 APERTURE LIST*
G04 Aperture macros list*
%AMRoundRect*
0 Rectangle with rounded corners*
0 $1 Rounding radius*
0 $2 $3 $4 $5 $6 $7 $8 $9 X,Y pos of 4 corners*
0 Add a 4 corners polygon primitive as box body*
4,1,4,$2,$3,$4,$5,$6,$7,$8,$9,$2,$3,0*
0 Add four circle primitives for the rounded corners*
1,1,$1+$1,$2,$3*
1,1,$1+$1,$4,$5*
1,1,$1+$1,$6,$7*
1,1,$1+$1,$8,$9*
0 Add four rect primitives between the rounded corners*
20,1,$1+$1,$2,$3,$4,$5,0*
20,1,$1+$1,$4,$5,$6,$7,0*
20,1,$1+$1,$6,$7,$8,$9,0*
20,1,$1+$1,$8,$9,$2,$3,0*%
G04 Aperture macros list end*
%ADD10C,0.200000*%
%ADD11C,0.150000*%
%ADD12C,0.120000*%
%ADD13C,0.152400*%
%ADD14C,0.508000*%
%ADD15RoundRect,0.090000X0.660000X0.360000X-0.660000X0.360000X-0.660000X-0.360000X0.660000X-0.360000X0*%
%ADD16C,1.700000*%
%ADD17C,4.000000*%
%ADD18C,2.200000*%
%ADD19RoundRect,0.250000X-0.337500X-0.475000X0.337500X-0.475000X0.337500X0.475000X-0.337500X0.475000X0*%
%ADD20C,3.200000*%
%ADD21RoundRect,0.250000X0.337500X0.475000X-0.337500X0.475000X-0.337500X-0.475000X0.337500X-0.475000X0*%
%ADD22O,2.500000X3.500000*%
%ADD23C,1.524000*%
G04 APERTURE END LIST*
D10*
X187353000Y-95000000D02*
X188647000Y-95000000D01*
X188647000Y-97540000D01*
X187353000Y-97540000D01*
X187353000Y-95000000D01*
G36*
X187353000Y-95000000D02*
G01*
X188647000Y-95000000D01*
X188647000Y-97540000D01*
X187353000Y-97540000D01*
X187353000Y-95000000D01*
G37*
X207853000Y-95000000D02*
X209147000Y-95000000D01*
X209147000Y-97540000D01*
X207853000Y-97540000D01*
X207853000Y-95000000D01*
G36*
X207853000Y-95000000D02*
G01*
X209147000Y-95000000D01*
X209147000Y-97540000D01*
X207853000Y-97540000D01*
X207853000Y-95000000D01*
G37*
X224000000Y-86400000D02*
X242400000Y-86400000D01*
X242400000Y-99600000D01*
X224000000Y-99600000D01*
X224000000Y-86400000D01*
X211706000Y-108000000D02*
X214500000Y-108000000D01*
X214500000Y-110540000D01*
X211706000Y-110540000D01*
X211706000Y-108000000D01*
G36*
X211706000Y-108000000D02*
G01*
X214500000Y-108000000D01*
X214500000Y-110540000D01*
X211706000Y-110540000D01*
X211706000Y-108000000D01*
G37*
X193500000Y-94730000D02*
X194794000Y-94730000D01*
X194794000Y-97270000D01*
X193500000Y-97270000D01*
X193500000Y-94730000D01*
G36*
X193500000Y-94730000D02*
G01*
X194794000Y-94730000D01*
X194794000Y-97270000D01*
X193500000Y-97270000D01*
X193500000Y-94730000D01*
G37*
X230500000Y-108230000D02*
X233294000Y-108230000D01*
X233294000Y-110770000D01*
X230500000Y-110770000D01*
X230500000Y-108230000D01*
G36*
X230500000Y-108230000D02*
G01*
X233294000Y-108230000D01*
X233294000Y-110770000D01*
X230500000Y-110770000D01*
X230500000Y-108230000D01*
G37*
X214000000Y-94730000D02*
X215294000Y-94730000D01*
X215294000Y-97270000D01*
X214000000Y-97270000D01*
X214000000Y-94730000D01*
G36*
X214000000Y-94730000D02*
G01*
X215294000Y-94730000D01*
X215294000Y-97270000D01*
X214000000Y-97270000D01*
X214000000Y-94730000D01*
G37*
X250000000Y-108230000D02*
X252794000Y-108230000D01*
X252794000Y-110770000D01*
X250000000Y-110770000D01*
X250000000Y-108230000D01*
G36*
X250000000Y-108230000D02*
G01*
X252794000Y-108230000D01*
X252794000Y-110770000D01*
X250000000Y-110770000D01*
X250000000Y-108230000D01*
G37*
X193000000Y-108230000D02*
X195794000Y-108230000D01*
X195794000Y-110770000D01*
X193000000Y-110770000D01*
X193000000Y-108230000D01*
G36*
X193000000Y-108230000D02*
G01*
X195794000Y-108230000D01*
X195794000Y-110770000D01*
X193000000Y-110770000D01*
X193000000Y-108230000D01*
G37*
D11*
X269422942Y-87321160D02*
X269470561Y-87368779D01*
X269470561Y-87368779D02*
X269518180Y-87464017D01*
X269518180Y-87464017D02*
X269518180Y-87702112D01*
X269518180Y-87702112D02*
X269470561Y-87797350D01*
X269470561Y-87797350D02*
X269422942Y-87844969D01*
X269422942Y-87844969D02*
X269327704Y-87892588D01*
X269327704Y-87892588D02*
X269232466Y-87892588D01*
X269232466Y-87892588D02*
X269089609Y-87844969D01*
X269089609Y-87844969D02*
X268518180Y-87273541D01*
X268518180Y-87273541D02*
X268518180Y-87892588D01*
X264104847Y-87797350D02*
X263438180Y-87797350D01*
X264485800Y-87559255D02*
X263771514Y-87321160D01*
X263771514Y-87321160D02*
X263771514Y-87940207D01*
X266978180Y-87273541D02*
X266978180Y-87892588D01*
X266978180Y-87892588D02*
X266597228Y-87559255D01*
X266597228Y-87559255D02*
X266597228Y-87702112D01*
X266597228Y-87702112D02*
X266549609Y-87797350D01*
X266549609Y-87797350D02*
X266501990Y-87844969D01*
X266501990Y-87844969D02*
X266406752Y-87892588D01*
X266406752Y-87892588D02*
X266168657Y-87892588D01*
X266168657Y-87892588D02*
X266073419Y-87844969D01*
X266073419Y-87844969D02*
X266025800Y-87797350D01*
X266025800Y-87797350D02*
X265978180Y-87702112D01*
X265978180Y-87702112D02*
X265978180Y-87416398D01*
X265978180Y-87416398D02*
X266025800Y-87321160D01*
X266025800Y-87321160D02*
X266073419Y-87273541D01*
X279170180Y-86812969D02*
X279170180Y-86336779D01*
X279170180Y-86336779D02*
X278693990Y-86289160D01*
X278693990Y-86289160D02*
X278741609Y-86336779D01*
X278741609Y-86336779D02*
X278789228Y-86432017D01*
X278789228Y-86432017D02*
X278789228Y-86670112D01*
X278789228Y-86670112D02*
X278741609Y-86765350D01*
X278741609Y-86765350D02*
X278693990Y-86812969D01*
X278693990Y-86812969D02*
X278598752Y-86860588D01*
X278598752Y-86860588D02*
X278360657Y-86860588D01*
X278360657Y-86860588D02*
X278265419Y-86812969D01*
X278265419Y-86812969D02*
X278217800Y-86765350D01*
X278217800Y-86765350D02*
X278170180Y-86670112D01*
X278170180Y-86670112D02*
X278170180Y-86432017D01*
X278170180Y-86432017D02*
X278217800Y-86336779D01*
X278217800Y-86336779D02*
X278265419Y-86289160D01*
X279170180Y-87146303D02*
X278170180Y-87479636D01*
X278170180Y-87479636D02*
X279170180Y-87812969D01*
X270510180Y-111360588D02*
X270510180Y-110789160D01*
X270510180Y-111074874D02*
X271510180Y-111074874D01*
X271510180Y-111074874D02*
X271367323Y-110979636D01*
X271367323Y-110979636D02*
X271272085Y-110884398D01*
X271272085Y-110884398D02*
X271224466Y-110789160D01*
X271414942Y-111741541D02*
X271462561Y-111789160D01*
X271462561Y-111789160D02*
X271510180Y-111884398D01*
X271510180Y-111884398D02*
X271510180Y-112122493D01*
X271510180Y-112122493D02*
X271462561Y-112217731D01*
X271462561Y-112217731D02*
X271414942Y-112265350D01*
X271414942Y-112265350D02*
X271319704Y-112312969D01*
X271319704Y-112312969D02*
X271224466Y-112312969D01*
X271224466Y-112312969D02*
X271081609Y-112265350D01*
X271081609Y-112265350D02*
X270510180Y-111693922D01*
X270510180Y-111693922D02*
X270510180Y-112312969D01*
X267970180Y-110852588D02*
X267970180Y-110281160D01*
X267970180Y-110566874D02*
X268970180Y-110566874D01*
X268970180Y-110566874D02*
X268827323Y-110471636D01*
X268827323Y-110471636D02*
X268732085Y-110376398D01*
X268732085Y-110376398D02*
X268684466Y-110281160D01*
X267970180Y-111804969D02*
X267970180Y-111233541D01*
X267970180Y-111519255D02*
X268970180Y-111519255D01*
X268970180Y-111519255D02*
X268827323Y-111424017D01*
X268827323Y-111424017D02*
X268732085Y-111328779D01*
X268732085Y-111328779D02*
X268684466Y-111233541D01*
X276582561Y-85860588D02*
X276630180Y-85765350D01*
X276630180Y-85765350D02*
X276630180Y-85622493D01*
X276630180Y-85622493D02*
X276582561Y-85479636D01*
X276582561Y-85479636D02*
X276487323Y-85384398D01*
X276487323Y-85384398D02*
X276392085Y-85336779D01*
X276392085Y-85336779D02*
X276201609Y-85289160D01*
X276201609Y-85289160D02*
X276058752Y-85289160D01*
X276058752Y-85289160D02*
X275868276Y-85336779D01*
X275868276Y-85336779D02*
X275773038Y-85384398D01*
X275773038Y-85384398D02*
X275677800Y-85479636D01*
X275677800Y-85479636D02*
X275630180Y-85622493D01*
X275630180Y-85622493D02*
X275630180Y-85717731D01*
X275630180Y-85717731D02*
X275677800Y-85860588D01*
X275677800Y-85860588D02*
X275725419Y-85908207D01*
X275725419Y-85908207D02*
X276058752Y-85908207D01*
X276058752Y-85908207D02*
X276058752Y-85717731D01*
X275630180Y-86336779D02*
X276630180Y-86336779D01*
X276630180Y-86336779D02*
X275630180Y-86908207D01*
X275630180Y-86908207D02*
X276630180Y-86908207D01*
X275630180Y-87384398D02*
X276630180Y-87384398D01*
X276630180Y-87384398D02*
X276630180Y-87622493D01*
X276630180Y-87622493D02*
X276582561Y-87765350D01*
X276582561Y-87765350D02*
X276487323Y-87860588D01*
X276487323Y-87860588D02*
X276392085Y-87908207D01*
X276392085Y-87908207D02*
X276201609Y-87955826D01*
X276201609Y-87955826D02*
X276058752Y-87955826D01*
X276058752Y-87955826D02*
X275868276Y-87908207D01*
X275868276Y-87908207D02*
X275773038Y-87860588D01*
X275773038Y-87860588D02*
X275677800Y-87765350D01*
X275677800Y-87765350D02*
X275630180Y-87622493D01*
X275630180Y-87622493D02*
X275630180Y-87384398D01*
X273050180Y-111360588D02*
X273050180Y-110789160D01*
X273050180Y-111074874D02*
X274050180Y-111074874D01*
X274050180Y-111074874D02*
X273907323Y-110979636D01*
X273907323Y-110979636D02*
X273812085Y-110884398D01*
X273812085Y-110884398D02*
X273764466Y-110789160D01*
X274050180Y-111693922D02*
X274050180Y-112312969D01*
X274050180Y-112312969D02*
X273669228Y-111979636D01*
X273669228Y-111979636D02*
X273669228Y-112122493D01*
X273669228Y-112122493D02*
X273621609Y-112217731D01*
X273621609Y-112217731D02*
X273573990Y-112265350D01*
X273573990Y-112265350D02*
X273478752Y-112312969D01*
X273478752Y-112312969D02*
X273240657Y-112312969D01*
X273240657Y-112312969D02*
X273145419Y-112265350D01*
X273145419Y-112265350D02*
X273097800Y-112217731D01*
X273097800Y-112217731D02*
X273050180Y-112122493D01*
X273050180Y-112122493D02*
X273050180Y-111836779D01*
X273050180Y-111836779D02*
X273097800Y-111741541D01*
X273097800Y-111741541D02*
X273145419Y-111693922D01*
X274090180Y-85241541D02*
X274090180Y-85860588D01*
X274090180Y-85860588D02*
X273709228Y-85527255D01*
X273709228Y-85527255D02*
X273709228Y-85670112D01*
X273709228Y-85670112D02*
X273661609Y-85765350D01*
X273661609Y-85765350D02*
X273613990Y-85812969D01*
X273613990Y-85812969D02*
X273518752Y-85860588D01*
X273518752Y-85860588D02*
X273280657Y-85860588D01*
X273280657Y-85860588D02*
X273185419Y-85812969D01*
X273185419Y-85812969D02*
X273137800Y-85765350D01*
X273137800Y-85765350D02*
X273090180Y-85670112D01*
X273090180Y-85670112D02*
X273090180Y-85384398D01*
X273090180Y-85384398D02*
X273137800Y-85289160D01*
X273137800Y-85289160D02*
X273185419Y-85241541D01*
X273185419Y-86289160D02*
X273137800Y-86336779D01*
X273137800Y-86336779D02*
X273090180Y-86289160D01*
X273090180Y-86289160D02*
X273137800Y-86241541D01*
X273137800Y-86241541D02*
X273185419Y-86289160D01*
X273185419Y-86289160D02*
X273090180Y-86289160D01*
X274090180Y-86670112D02*
X274090180Y-87289159D01*
X274090180Y-87289159D02*
X273709228Y-86955826D01*
X273709228Y-86955826D02*
X273709228Y-87098683D01*
X273709228Y-87098683D02*
X273661609Y-87193921D01*
X273661609Y-87193921D02*
X273613990Y-87241540D01*
X273613990Y-87241540D02*
X273518752Y-87289159D01*
X273518752Y-87289159D02*
X273280657Y-87289159D01*
X273280657Y-87289159D02*
X273185419Y-87241540D01*
X273185419Y-87241540D02*
X273137800Y-87193921D01*
X273137800Y-87193921D02*
X273090180Y-87098683D01*
X273090180Y-87098683D02*
X273090180Y-86812969D01*
X273090180Y-86812969D02*
X273137800Y-86717731D01*
X273137800Y-86717731D02*
X273185419Y-86670112D01*
X273756847Y-87622493D02*
X273090180Y-87860588D01*
X273090180Y-87860588D02*
X273756847Y-88098683D01*
X270550180Y-87892588D02*
X270550180Y-87321160D01*
X270550180Y-87606874D02*
X271550180Y-87606874D01*
X271550180Y-87606874D02*
X271407323Y-87511636D01*
X271407323Y-87511636D02*
X271312085Y-87416398D01*
X271312085Y-87416398D02*
X271264466Y-87321160D01*
X265430180Y-110852588D02*
X265430180Y-110281160D01*
X265430180Y-110566874D02*
X266430180Y-110566874D01*
X266430180Y-110566874D02*
X266287323Y-110471636D01*
X266287323Y-110471636D02*
X266192085Y-110376398D01*
X266192085Y-110376398D02*
X266144466Y-110281160D01*
X266430180Y-111471636D02*
X266430180Y-111566874D01*
X266430180Y-111566874D02*
X266382561Y-111662112D01*
X266382561Y-111662112D02*
X266334942Y-111709731D01*
X266334942Y-111709731D02*
X266239704Y-111757350D01*
X266239704Y-111757350D02*
X266049228Y-111804969D01*
X266049228Y-111804969D02*
X265811133Y-111804969D01*
X265811133Y-111804969D02*
X265620657Y-111757350D01*
X265620657Y-111757350D02*
X265525419Y-111709731D01*
X265525419Y-111709731D02*
X265477800Y-111662112D01*
X265477800Y-111662112D02*
X265430180Y-111566874D01*
X265430180Y-111566874D02*
X265430180Y-111471636D01*
X265430180Y-111471636D02*
X265477800Y-111376398D01*
X265477800Y-111376398D02*
X265525419Y-111328779D01*
X265525419Y-111328779D02*
X265620657Y-111281160D01*
X265620657Y-111281160D02*
X265811133Y-111233541D01*
X265811133Y-111233541D02*
X266049228Y-111233541D01*
X266049228Y-111233541D02*
X266239704Y-111281160D01*
X266239704Y-111281160D02*
X266334942Y-111328779D01*
X266334942Y-111328779D02*
X266382561Y-111376398D01*
X266382561Y-111376398D02*
X266430180Y-111471636D01*
X262890180Y-110376398D02*
X262890180Y-110566874D01*
X262890180Y-110566874D02*
X262937800Y-110662112D01*
X262937800Y-110662112D02*
X262985419Y-110709731D01*
X262985419Y-110709731D02*
X263128276Y-110804969D01*
X263128276Y-110804969D02*
X263318752Y-110852588D01*
X263318752Y-110852588D02*
X263699704Y-110852588D01*
X263699704Y-110852588D02*
X263794942Y-110804969D01*
X263794942Y-110804969D02*
X263842561Y-110757350D01*
X263842561Y-110757350D02*
X263890180Y-110662112D01*
X263890180Y-110662112D02*
X263890180Y-110471636D01*
X263890180Y-110471636D02*
X263842561Y-110376398D01*
X263842561Y-110376398D02*
X263794942Y-110328779D01*
X263794942Y-110328779D02*
X263699704Y-110281160D01*
X263699704Y-110281160D02*
X263461609Y-110281160D01*
X263461609Y-110281160D02*
X263366371Y-110328779D01*
X263366371Y-110328779D02*
X263318752Y-110376398D01*
X263318752Y-110376398D02*
X263271133Y-110471636D01*
X263271133Y-110471636D02*
X263271133Y-110662112D01*
X263271133Y-110662112D02*
X263318752Y-110757350D01*
X263318752Y-110757350D02*
X263366371Y-110804969D01*
X263366371Y-110804969D02*
X263461609Y-110852588D01*
X260921609Y-110471636D02*
X260969228Y-110376398D01*
X260969228Y-110376398D02*
X261016847Y-110328779D01*
X261016847Y-110328779D02*
X261112085Y-110281160D01*
X261112085Y-110281160D02*
X261159704Y-110281160D01*
X261159704Y-110281160D02*
X261254942Y-110328779D01*
X261254942Y-110328779D02*
X261302561Y-110376398D01*
X261302561Y-110376398D02*
X261350180Y-110471636D01*
X261350180Y-110471636D02*
X261350180Y-110662112D01*
X261350180Y-110662112D02*
X261302561Y-110757350D01*
X261302561Y-110757350D02*
X261254942Y-110804969D01*
X261254942Y-110804969D02*
X261159704Y-110852588D01*
X261159704Y-110852588D02*
X261112085Y-110852588D01*
X261112085Y-110852588D02*
X261016847Y-110804969D01*
X261016847Y-110804969D02*
X260969228Y-110757350D01*
X260969228Y-110757350D02*
X260921609Y-110662112D01*
X260921609Y-110662112D02*
X260921609Y-110471636D01*
X260921609Y-110471636D02*
X260873990Y-110376398D01*
X260873990Y-110376398D02*
X260826371Y-110328779D01*
X260826371Y-110328779D02*
X260731133Y-110281160D01*
X260731133Y-110281160D02*
X260540657Y-110281160D01*
X260540657Y-110281160D02*
X260445419Y-110328779D01*
X260445419Y-110328779D02*
X260397800Y-110376398D01*
X260397800Y-110376398D02*
X260350180Y-110471636D01*
X260350180Y-110471636D02*
X260350180Y-110662112D01*
X260350180Y-110662112D02*
X260397800Y-110757350D01*
X260397800Y-110757350D02*
X260445419Y-110804969D01*
X260445419Y-110804969D02*
X260540657Y-110852588D01*
X260540657Y-110852588D02*
X260731133Y-110852588D01*
X260731133Y-110852588D02*
X260826371Y-110804969D01*
X260826371Y-110804969D02*
X260873990Y-110757350D01*
X260873990Y-110757350D02*
X260921609Y-110662112D01*
X258850180Y-87797350D02*
X258850180Y-87606874D01*
X258850180Y-87606874D02*
X258802561Y-87511636D01*
X258802561Y-87511636D02*
X258754942Y-87464017D01*
X258754942Y-87464017D02*
X258612085Y-87368779D01*
X258612085Y-87368779D02*
X258421609Y-87321160D01*
X258421609Y-87321160D02*
X258040657Y-87321160D01*
X258040657Y-87321160D02*
X257945419Y-87368779D01*
X257945419Y-87368779D02*
X257897800Y-87416398D01*
X257897800Y-87416398D02*
X257850180Y-87511636D01*
X257850180Y-87511636D02*
X257850180Y-87702112D01*
X257850180Y-87702112D02*
X257897800Y-87797350D01*
X257897800Y-87797350D02*
X257945419Y-87844969D01*
X257945419Y-87844969D02*
X258040657Y-87892588D01*
X258040657Y-87892588D02*
X258278752Y-87892588D01*
X258278752Y-87892588D02*
X258373990Y-87844969D01*
X258373990Y-87844969D02*
X258421609Y-87797350D01*
X258421609Y-87797350D02*
X258469228Y-87702112D01*
X258469228Y-87702112D02*
X258469228Y-87511636D01*
X258469228Y-87511636D02*
X258421609Y-87416398D01*
X258421609Y-87416398D02*
X258373990Y-87368779D01*
X258373990Y-87368779D02*
X258278752Y-87321160D01*
X261898180Y-87844969D02*
X261898180Y-87368779D01*
X261898180Y-87368779D02*
X261421990Y-87321160D01*
X261421990Y-87321160D02*
X261469609Y-87368779D01*
X261469609Y-87368779D02*
X261517228Y-87464017D01*
X261517228Y-87464017D02*
X261517228Y-87702112D01*
X261517228Y-87702112D02*
X261469609Y-87797350D01*
X261469609Y-87797350D02*
X261421990Y-87844969D01*
X261421990Y-87844969D02*
X261326752Y-87892588D01*
X261326752Y-87892588D02*
X261088657Y-87892588D01*
X261088657Y-87892588D02*
X260993419Y-87844969D01*
X260993419Y-87844969D02*
X260945800Y-87797350D01*
X260945800Y-87797350D02*
X260898180Y-87702112D01*
X260898180Y-87702112D02*
X260898180Y-87464017D01*
X260898180Y-87464017D02*
X260945800Y-87368779D01*
X260945800Y-87368779D02*
X260993419Y-87321160D01*
X258810180Y-110233541D02*
X258810180Y-110900207D01*
X258810180Y-110900207D02*
X257810180Y-110471636D01*
X159761905Y-37954819D02*
X159761905Y-36954819D01*
X159761905Y-36954819D02*
X160000000Y-36954819D01*
X160000000Y-36954819D02*
X160142857Y-37002438D01*
X160142857Y-37002438D02*
X160238095Y-37097676D01*
X160238095Y-37097676D02*
X160285714Y-37192914D01*
X160285714Y-37192914D02*
X160333333Y-37383390D01*
X160333333Y-37383390D02*
X160333333Y-37526247D01*
X160333333Y-37526247D02*
X160285714Y-37716723D01*
X160285714Y-37716723D02*
X160238095Y-37811961D01*
X160238095Y-37811961D02*
X160142857Y-37907200D01*
X160142857Y-37907200D02*
X160000000Y-37954819D01*
X160000000Y-37954819D02*
X159761905Y-37954819D01*
X160666667Y-36954819D02*
X161285714Y-36954819D01*
X161285714Y-36954819D02*
X160952381Y-37335771D01*
X160952381Y-37335771D02*
X161095238Y-37335771D01*
X161095238Y-37335771D02*
X161190476Y-37383390D01*
X161190476Y-37383390D02*
X161238095Y-37431009D01*
X161238095Y-37431009D02*
X161285714Y-37526247D01*
X161285714Y-37526247D02*
X161285714Y-37764342D01*
X161285714Y-37764342D02*
X161238095Y-37859580D01*
X161238095Y-37859580D02*
X161190476Y-37907200D01*
X161190476Y-37907200D02*
X161095238Y-37954819D01*
X161095238Y-37954819D02*
X160809524Y-37954819D01*
X160809524Y-37954819D02*
X160714286Y-37907200D01*
X160714286Y-37907200D02*
X160666667Y-37859580D01*
X169271428Y-37237704D02*
X169728571Y-37237704D01*
X169499999Y-37237704D02*
X169499999Y-38037704D01*
X169499999Y-38037704D02*
X169576190Y-37923419D01*
X169576190Y-37923419D02*
X169652380Y-37847228D01*
X169652380Y-37847228D02*
X169728571Y-37809133D01*
X223201200Y-32793332D02*
X223248819Y-32650475D01*
X223248819Y-32650475D02*
X223248819Y-32412380D01*
X223248819Y-32412380D02*
X223201200Y-32317142D01*
X223201200Y-32317142D02*
X223153580Y-32269523D01*
X223153580Y-32269523D02*
X223058342Y-32221904D01*
X223058342Y-32221904D02*
X222963104Y-32221904D01*
X222963104Y-32221904D02*
X222867866Y-32269523D01*
X222867866Y-32269523D02*
X222820247Y-32317142D01*
X222820247Y-32317142D02*
X222772628Y-32412380D01*
X222772628Y-32412380D02*
X222725009Y-32602856D01*
X222725009Y-32602856D02*
X222677390Y-32698094D01*
X222677390Y-32698094D02*
X222629771Y-32745713D01*
X222629771Y-32745713D02*
X222534533Y-32793332D01*
X222534533Y-32793332D02*
X222439295Y-32793332D01*
X222439295Y-32793332D02*
X222344057Y-32745713D01*
X222344057Y-32745713D02*
X222296438Y-32698094D01*
X222296438Y-32698094D02*
X222248819Y-32602856D01*
X222248819Y-32602856D02*
X222248819Y-32364761D01*
X222248819Y-32364761D02*
X222296438Y-32221904D01*
X222248819Y-31888570D02*
X223248819Y-31650475D01*
X223248819Y-31650475D02*
X222534533Y-31459999D01*
X222534533Y-31459999D02*
X223248819Y-31269523D01*
X223248819Y-31269523D02*
X222248819Y-31031428D01*
X222248819Y-30221904D02*
X222248819Y-30412380D01*
X222248819Y-30412380D02*
X222296438Y-30507618D01*
X222296438Y-30507618D02*
X222344057Y-30555237D01*
X222344057Y-30555237D02*
X222486914Y-30650475D01*
X222486914Y-30650475D02*
X222677390Y-30698094D01*
X222677390Y-30698094D02*
X223058342Y-30698094D01*
X223058342Y-30698094D02*
X223153580Y-30650475D01*
X223153580Y-30650475D02*
X223201200Y-30602856D01*
X223201200Y-30602856D02*
X223248819Y-30507618D01*
X223248819Y-30507618D02*
X223248819Y-30317142D01*
X223248819Y-30317142D02*
X223201200Y-30221904D01*
X223201200Y-30221904D02*
X223153580Y-30174285D01*
X223153580Y-30174285D02*
X223058342Y-30126666D01*
X223058342Y-30126666D02*
X222820247Y-30126666D01*
X222820247Y-30126666D02*
X222725009Y-30174285D01*
X222725009Y-30174285D02*
X222677390Y-30221904D01*
X222677390Y-30221904D02*
X222629771Y-30317142D01*
X222629771Y-30317142D02*
X222629771Y-30507618D01*
X222629771Y-30507618D02*
X222677390Y-30602856D01*
X222677390Y-30602856D02*
X222725009Y-30650475D01*
X222725009Y-30650475D02*
X222820247Y-30698094D01*
X159761905Y-26954819D02*
X159761905Y-25954819D01*
X159761905Y-25954819D02*
X160000000Y-25954819D01*
X160000000Y-25954819D02*
X160142857Y-26002438D01*
X160142857Y-26002438D02*
X160238095Y-26097676D01*
X160238095Y-26097676D02*
X160285714Y-26192914D01*
X160285714Y-26192914D02*
X160333333Y-26383390D01*
X160333333Y-26383390D02*
X160333333Y-26526247D01*
X160333333Y-26526247D02*
X160285714Y-26716723D01*
X160285714Y-26716723D02*
X160238095Y-26811961D01*
X160238095Y-26811961D02*
X160142857Y-26907200D01*
X160142857Y-26907200D02*
X160000000Y-26954819D01*
X160000000Y-26954819D02*
X159761905Y-26954819D01*
X161190476Y-26288152D02*
X161190476Y-26954819D01*
X160952381Y-25907200D02*
X160714286Y-26621485D01*
X160714286Y-26621485D02*
X161333333Y-26621485D01*
X169271428Y-27237704D02*
X169728571Y-27237704D01*
X169499999Y-27237704D02*
X169499999Y-28037704D01*
X169499999Y-28037704D02*
X169576190Y-27923419D01*
X169576190Y-27923419D02*
X169652380Y-27847228D01*
X169652380Y-27847228D02*
X169728571Y-27809133D01*
X163333333Y-41359580D02*
X163285714Y-41407200D01*
X163285714Y-41407200D02*
X163142857Y-41454819D01*
X163142857Y-41454819D02*
X163047619Y-41454819D01*
X163047619Y-41454819D02*
X162904762Y-41407200D01*
X162904762Y-41407200D02*
X162809524Y-41311961D01*
X162809524Y-41311961D02*
X162761905Y-41216723D01*
X162761905Y-41216723D02*
X162714286Y-41026247D01*
X162714286Y-41026247D02*
X162714286Y-40883390D01*
X162714286Y-40883390D02*
X162761905Y-40692914D01*
X162761905Y-40692914D02*
X162809524Y-40597676D01*
X162809524Y-40597676D02*
X162904762Y-40502438D01*
X162904762Y-40502438D02*
X163047619Y-40454819D01*
X163047619Y-40454819D02*
X163142857Y-40454819D01*
X163142857Y-40454819D02*
X163285714Y-40502438D01*
X163285714Y-40502438D02*
X163333333Y-40550057D01*
X163904762Y-40883390D02*
X163809524Y-40835771D01*
X163809524Y-40835771D02*
X163761905Y-40788152D01*
X163761905Y-40788152D02*
X163714286Y-40692914D01*
X163714286Y-40692914D02*
X163714286Y-40645295D01*
X163714286Y-40645295D02*
X163761905Y-40550057D01*
X163761905Y-40550057D02*
X163809524Y-40502438D01*
X163809524Y-40502438D02*
X163904762Y-40454819D01*
X163904762Y-40454819D02*
X164095238Y-40454819D01*
X164095238Y-40454819D02*
X164190476Y-40502438D01*
X164190476Y-40502438D02*
X164238095Y-40550057D01*
X164238095Y-40550057D02*
X164285714Y-40645295D01*
X164285714Y-40645295D02*
X164285714Y-40692914D01*
X164285714Y-40692914D02*
X164238095Y-40788152D01*
X164238095Y-40788152D02*
X164190476Y-40835771D01*
X164190476Y-40835771D02*
X164095238Y-40883390D01*
X164095238Y-40883390D02*
X163904762Y-40883390D01*
X163904762Y-40883390D02*
X163809524Y-40931009D01*
X163809524Y-40931009D02*
X163761905Y-40978628D01*
X163761905Y-40978628D02*
X163714286Y-41073866D01*
X163714286Y-41073866D02*
X163714286Y-41264342D01*
X163714286Y-41264342D02*
X163761905Y-41359580D01*
X163761905Y-41359580D02*
X163809524Y-41407200D01*
X163809524Y-41407200D02*
X163904762Y-41454819D01*
X163904762Y-41454819D02*
X164095238Y-41454819D01*
X164095238Y-41454819D02*
X164190476Y-41407200D01*
X164190476Y-41407200D02*
X164238095Y-41359580D01*
X164238095Y-41359580D02*
X164285714Y-41264342D01*
X164285714Y-41264342D02*
X164285714Y-41073866D01*
X164285714Y-41073866D02*
X164238095Y-40978628D01*
X164238095Y-40978628D02*
X164190476Y-40931009D01*
X164190476Y-40931009D02*
X164095238Y-40883390D01*
X242201200Y-51793332D02*
X242248819Y-51650475D01*
X242248819Y-51650475D02*
X242248819Y-51412380D01*
X242248819Y-51412380D02*
X242201200Y-51317142D01*
X242201200Y-51317142D02*
X242153580Y-51269523D01*
X242153580Y-51269523D02*
X242058342Y-51221904D01*
X242058342Y-51221904D02*
X241963104Y-51221904D01*
X241963104Y-51221904D02*
X241867866Y-51269523D01*
X241867866Y-51269523D02*
X241820247Y-51317142D01*
X241820247Y-51317142D02*
X241772628Y-51412380D01*
X241772628Y-51412380D02*
X241725009Y-51602856D01*
X241725009Y-51602856D02*
X241677390Y-51698094D01*
X241677390Y-51698094D02*
X241629771Y-51745713D01*
X241629771Y-51745713D02*
X241534533Y-51793332D01*
X241534533Y-51793332D02*
X241439295Y-51793332D01*
X241439295Y-51793332D02*
X241344057Y-51745713D01*
X241344057Y-51745713D02*
X241296438Y-51698094D01*
X241296438Y-51698094D02*
X241248819Y-51602856D01*
X241248819Y-51602856D02*
X241248819Y-51364761D01*
X241248819Y-51364761D02*
X241296438Y-51221904D01*
X241248819Y-50888570D02*
X242248819Y-50650475D01*
X242248819Y-50650475D02*
X241534533Y-50459999D01*
X241534533Y-50459999D02*
X242248819Y-50269523D01*
X242248819Y-50269523D02*
X241248819Y-50031428D01*
X241677390Y-49507618D02*
X241629771Y-49602856D01*
X241629771Y-49602856D02*
X241582152Y-49650475D01*
X241582152Y-49650475D02*
X241486914Y-49698094D01*
X241486914Y-49698094D02*
X241439295Y-49698094D01*
X241439295Y-49698094D02*
X241344057Y-49650475D01*
X241344057Y-49650475D02*
X241296438Y-49602856D01*
X241296438Y-49602856D02*
X241248819Y-49507618D01*
X241248819Y-49507618D02*
X241248819Y-49317142D01*
X241248819Y-49317142D02*
X241296438Y-49221904D01*
X241296438Y-49221904D02*
X241344057Y-49174285D01*
X241344057Y-49174285D02*
X241439295Y-49126666D01*
X241439295Y-49126666D02*
X241486914Y-49126666D01*
X241486914Y-49126666D02*
X241582152Y-49174285D01*
X241582152Y-49174285D02*
X241629771Y-49221904D01*
X241629771Y-49221904D02*
X241677390Y-49317142D01*
X241677390Y-49317142D02*
X241677390Y-49507618D01*
X241677390Y-49507618D02*
X241725009Y-49602856D01*
X241725009Y-49602856D02*
X241772628Y-49650475D01*
X241772628Y-49650475D02*
X241867866Y-49698094D01*
X241867866Y-49698094D02*
X242058342Y-49698094D01*
X242058342Y-49698094D02*
X242153580Y-49650475D01*
X242153580Y-49650475D02*
X242201200Y-49602856D01*
X242201200Y-49602856D02*
X242248819Y-49507618D01*
X242248819Y-49507618D02*
X242248819Y-49317142D01*
X242248819Y-49317142D02*
X242201200Y-49221904D01*
X242201200Y-49221904D02*
X242153580Y-49174285D01*
X242153580Y-49174285D02*
X242058342Y-49126666D01*
X242058342Y-49126666D02*
X241867866Y-49126666D01*
X241867866Y-49126666D02*
X241772628Y-49174285D01*
X241772628Y-49174285D02*
X241725009Y-49221904D01*
X241725009Y-49221904D02*
X241677390Y-49317142D01*
X158261905Y-46954819D02*
X158261905Y-45954819D01*
X158261905Y-45954819D02*
X158500000Y-45954819D01*
X158500000Y-45954819D02*
X158642857Y-46002438D01*
X158642857Y-46002438D02*
X158738095Y-46097676D01*
X158738095Y-46097676D02*
X158785714Y-46192914D01*
X158785714Y-46192914D02*
X158833333Y-46383390D01*
X158833333Y-46383390D02*
X158833333Y-46526247D01*
X158833333Y-46526247D02*
X158785714Y-46716723D01*
X158785714Y-46716723D02*
X158738095Y-46811961D01*
X158738095Y-46811961D02*
X158642857Y-46907200D01*
X158642857Y-46907200D02*
X158500000Y-46954819D01*
X158500000Y-46954819D02*
X158261905Y-46954819D01*
X159214286Y-46050057D02*
X159261905Y-46002438D01*
X159261905Y-46002438D02*
X159357143Y-45954819D01*
X159357143Y-45954819D02*
X159595238Y-45954819D01*
X159595238Y-45954819D02*
X159690476Y-46002438D01*
X159690476Y-46002438D02*
X159738095Y-46050057D01*
X159738095Y-46050057D02*
X159785714Y-46145295D01*
X159785714Y-46145295D02*
X159785714Y-46240533D01*
X159785714Y-46240533D02*
X159738095Y-46383390D01*
X159738095Y-46383390D02*
X159166667Y-46954819D01*
X159166667Y-46954819D02*
X159785714Y-46954819D01*
X169271428Y-47237704D02*
X169728571Y-47237704D01*
X169499999Y-47237704D02*
X169499999Y-48037704D01*
X169499999Y-48037704D02*
X169576190Y-47923419D01*
X169576190Y-47923419D02*
X169652380Y-47847228D01*
X169652380Y-47847228D02*
X169728571Y-47809133D01*
X163833333Y-51359580D02*
X163785714Y-51407200D01*
X163785714Y-51407200D02*
X163642857Y-51454819D01*
X163642857Y-51454819D02*
X163547619Y-51454819D01*
X163547619Y-51454819D02*
X163404762Y-51407200D01*
X163404762Y-51407200D02*
X163309524Y-51311961D01*
X163309524Y-51311961D02*
X163261905Y-51216723D01*
X163261905Y-51216723D02*
X163214286Y-51026247D01*
X163214286Y-51026247D02*
X163214286Y-50883390D01*
X163214286Y-50883390D02*
X163261905Y-50692914D01*
X163261905Y-50692914D02*
X163309524Y-50597676D01*
X163309524Y-50597676D02*
X163404762Y-50502438D01*
X163404762Y-50502438D02*
X163547619Y-50454819D01*
X163547619Y-50454819D02*
X163642857Y-50454819D01*
X163642857Y-50454819D02*
X163785714Y-50502438D01*
X163785714Y-50502438D02*
X163833333Y-50550057D01*
X164309524Y-51454819D02*
X164500000Y-51454819D01*
X164500000Y-51454819D02*
X164595238Y-51407200D01*
X164595238Y-51407200D02*
X164642857Y-51359580D01*
X164642857Y-51359580D02*
X164738095Y-51216723D01*
X164738095Y-51216723D02*
X164785714Y-51026247D01*
X164785714Y-51026247D02*
X164785714Y-50645295D01*
X164785714Y-50645295D02*
X164738095Y-50550057D01*
X164738095Y-50550057D02*
X164690476Y-50502438D01*
X164690476Y-50502438D02*
X164595238Y-50454819D01*
X164595238Y-50454819D02*
X164404762Y-50454819D01*
X164404762Y-50454819D02*
X164309524Y-50502438D01*
X164309524Y-50502438D02*
X164261905Y-50550057D01*
X164261905Y-50550057D02*
X164214286Y-50645295D01*
X164214286Y-50645295D02*
X164214286Y-50883390D01*
X164214286Y-50883390D02*
X164261905Y-50978628D01*
X164261905Y-50978628D02*
X164309524Y-51026247D01*
X164309524Y-51026247D02*
X164404762Y-51073866D01*
X164404762Y-51073866D02*
X164595238Y-51073866D01*
X164595238Y-51073866D02*
X164690476Y-51026247D01*
X164690476Y-51026247D02*
X164738095Y-50978628D01*
X164738095Y-50978628D02*
X164785714Y-50883390D01*
X242201200Y-32793332D02*
X242248819Y-32650475D01*
X242248819Y-32650475D02*
X242248819Y-32412380D01*
X242248819Y-32412380D02*
X242201200Y-32317142D01*
X242201200Y-32317142D02*
X242153580Y-32269523D01*
X242153580Y-32269523D02*
X242058342Y-32221904D01*
X242058342Y-32221904D02*
X241963104Y-32221904D01*
X241963104Y-32221904D02*
X241867866Y-32269523D01*
X241867866Y-32269523D02*
X241820247Y-32317142D01*
X241820247Y-32317142D02*
X241772628Y-32412380D01*
X241772628Y-32412380D02*
X241725009Y-32602856D01*
X241725009Y-32602856D02*
X241677390Y-32698094D01*
X241677390Y-32698094D02*
X241629771Y-32745713D01*
X241629771Y-32745713D02*
X241534533Y-32793332D01*
X241534533Y-32793332D02*
X241439295Y-32793332D01*
X241439295Y-32793332D02*
X241344057Y-32745713D01*
X241344057Y-32745713D02*
X241296438Y-32698094D01*
X241296438Y-32698094D02*
X241248819Y-32602856D01*
X241248819Y-32602856D02*
X241248819Y-32364761D01*
X241248819Y-32364761D02*
X241296438Y-32221904D01*
X241248819Y-31888570D02*
X242248819Y-31650475D01*
X242248819Y-31650475D02*
X241534533Y-31459999D01*
X241534533Y-31459999D02*
X242248819Y-31269523D01*
X242248819Y-31269523D02*
X241248819Y-31031428D01*
X241248819Y-30174285D02*
X241248819Y-30650475D01*
X241248819Y-30650475D02*
X241725009Y-30698094D01*
X241725009Y-30698094D02*
X241677390Y-30650475D01*
X241677390Y-30650475D02*
X241629771Y-30555237D01*
X241629771Y-30555237D02*
X241629771Y-30317142D01*
X241629771Y-30317142D02*
X241677390Y-30221904D01*
X241677390Y-30221904D02*
X241725009Y-30174285D01*
X241725009Y-30174285D02*
X241820247Y-30126666D01*
X241820247Y-30126666D02*
X242058342Y-30126666D01*
X242058342Y-30126666D02*
X242153580Y-30174285D01*
X242153580Y-30174285D02*
X242201200Y-30221904D01*
X242201200Y-30221904D02*
X242248819Y-30317142D01*
X242248819Y-30317142D02*
X242248819Y-30555237D01*
X242248819Y-30555237D02*
X242201200Y-30650475D01*
X242201200Y-30650475D02*
X242153580Y-30698094D01*
X163833333Y-31859580D02*
X163785714Y-31907200D01*
X163785714Y-31907200D02*
X163642857Y-31954819D01*
X163642857Y-31954819D02*
X163547619Y-31954819D01*
X163547619Y-31954819D02*
X163404762Y-31907200D01*
X163404762Y-31907200D02*
X163309524Y-31811961D01*
X163309524Y-31811961D02*
X163261905Y-31716723D01*
X163261905Y-31716723D02*
X163214286Y-31526247D01*
X163214286Y-31526247D02*
X163214286Y-31383390D01*
X163214286Y-31383390D02*
X163261905Y-31192914D01*
X163261905Y-31192914D02*
X163309524Y-31097676D01*
X163309524Y-31097676D02*
X163404762Y-31002438D01*
X163404762Y-31002438D02*
X163547619Y-30954819D01*
X163547619Y-30954819D02*
X163642857Y-30954819D01*
X163642857Y-30954819D02*
X163785714Y-31002438D01*
X163785714Y-31002438D02*
X163833333Y-31050057D01*
X164166667Y-30954819D02*
X164833333Y-30954819D01*
X164833333Y-30954819D02*
X164404762Y-31954819D01*
X159761905Y-56954819D02*
X159761905Y-55954819D01*
X159761905Y-55954819D02*
X160000000Y-55954819D01*
X160000000Y-55954819D02*
X160142857Y-56002438D01*
X160142857Y-56002438D02*
X160238095Y-56097676D01*
X160238095Y-56097676D02*
X160285714Y-56192914D01*
X160285714Y-56192914D02*
X160333333Y-56383390D01*
X160333333Y-56383390D02*
X160333333Y-56526247D01*
X160333333Y-56526247D02*
X160285714Y-56716723D01*
X160285714Y-56716723D02*
X160238095Y-56811961D01*
X160238095Y-56811961D02*
X160142857Y-56907200D01*
X160142857Y-56907200D02*
X160000000Y-56954819D01*
X160000000Y-56954819D02*
X159761905Y-56954819D01*
X161285714Y-56954819D02*
X160714286Y-56954819D01*
X161000000Y-56954819D02*
X161000000Y-55954819D01*
X161000000Y-55954819D02*
X160904762Y-56097676D01*
X160904762Y-56097676D02*
X160809524Y-56192914D01*
X160809524Y-56192914D02*
X160714286Y-56240533D01*
X169271428Y-57237704D02*
X169728571Y-57237704D01*
X169499999Y-57237704D02*
X169499999Y-58037704D01*
X169499999Y-58037704D02*
X169576190Y-57923419D01*
X169576190Y-57923419D02*
X169652380Y-57847228D01*
X169652380Y-57847228D02*
X169728571Y-57809133D01*
X171833333Y-58039580D02*
X171785714Y-58087200D01*
X171785714Y-58087200D02*
X171642857Y-58134819D01*
X171642857Y-58134819D02*
X171547619Y-58134819D01*
X171547619Y-58134819D02*
X171404762Y-58087200D01*
X171404762Y-58087200D02*
X171309524Y-57991961D01*
X171309524Y-57991961D02*
X171261905Y-57896723D01*
X171261905Y-57896723D02*
X171214286Y-57706247D01*
X171214286Y-57706247D02*
X171214286Y-57563390D01*
X171214286Y-57563390D02*
X171261905Y-57372914D01*
X171261905Y-57372914D02*
X171309524Y-57277676D01*
X171309524Y-57277676D02*
X171404762Y-57182438D01*
X171404762Y-57182438D02*
X171547619Y-57134819D01*
X171547619Y-57134819D02*
X171642857Y-57134819D01*
X171642857Y-57134819D02*
X171785714Y-57182438D01*
X171785714Y-57182438D02*
X171833333Y-57230057D01*
X172214286Y-57230057D02*
X172261905Y-57182438D01*
X172261905Y-57182438D02*
X172357143Y-57134819D01*
X172357143Y-57134819D02*
X172595238Y-57134819D01*
X172595238Y-57134819D02*
X172690476Y-57182438D01*
X172690476Y-57182438D02*
X172738095Y-57230057D01*
X172738095Y-57230057D02*
X172785714Y-57325295D01*
X172785714Y-57325295D02*
X172785714Y-57420533D01*
X172785714Y-57420533D02*
X172738095Y-57563390D01*
X172738095Y-57563390D02*
X172166667Y-58134819D01*
X172166667Y-58134819D02*
X172785714Y-58134819D01*
X188833332Y-36592800D02*
X188690475Y-36545180D01*
X188690475Y-36545180D02*
X188452380Y-36545180D01*
X188452380Y-36545180D02*
X188357142Y-36592800D01*
X188357142Y-36592800D02*
X188309523Y-36640419D01*
X188309523Y-36640419D02*
X188261904Y-36735657D01*
X188261904Y-36735657D02*
X188261904Y-36830895D01*
X188261904Y-36830895D02*
X188309523Y-36926133D01*
X188309523Y-36926133D02*
X188357142Y-36973752D01*
X188357142Y-36973752D02*
X188452380Y-37021371D01*
X188452380Y-37021371D02*
X188642856Y-37068990D01*
X188642856Y-37068990D02*
X188738094Y-37116609D01*
X188738094Y-37116609D02*
X188785713Y-37164228D01*
X188785713Y-37164228D02*
X188833332Y-37259466D01*
X188833332Y-37259466D02*
X188833332Y-37354704D01*
X188833332Y-37354704D02*
X188785713Y-37449942D01*
X188785713Y-37449942D02*
X188738094Y-37497561D01*
X188738094Y-37497561D02*
X188642856Y-37545180D01*
X188642856Y-37545180D02*
X188404761Y-37545180D01*
X188404761Y-37545180D02*
X188261904Y-37497561D01*
X187928570Y-37545180D02*
X187690475Y-36545180D01*
X187690475Y-36545180D02*
X187499999Y-37259466D01*
X187499999Y-37259466D02*
X187309523Y-36545180D01*
X187309523Y-36545180D02*
X187071428Y-37545180D01*
X186642856Y-36545180D02*
X186452380Y-36545180D01*
X186452380Y-36545180D02*
X186357142Y-36592800D01*
X186357142Y-36592800D02*
X186309523Y-36640419D01*
X186309523Y-36640419D02*
X186214285Y-36783276D01*
X186214285Y-36783276D02*
X186166666Y-36973752D01*
X186166666Y-36973752D02*
X186166666Y-37354704D01*
X186166666Y-37354704D02*
X186214285Y-37449942D01*
X186214285Y-37449942D02*
X186261904Y-37497561D01*
X186261904Y-37497561D02*
X186357142Y-37545180D01*
X186357142Y-37545180D02*
X186547618Y-37545180D01*
X186547618Y-37545180D02*
X186642856Y-37497561D01*
X186642856Y-37497561D02*
X186690475Y-37449942D01*
X186690475Y-37449942D02*
X186738094Y-37354704D01*
X186738094Y-37354704D02*
X186738094Y-37116609D01*
X186738094Y-37116609D02*
X186690475Y-37021371D01*
X186690475Y-37021371D02*
X186642856Y-36973752D01*
X186642856Y-36973752D02*
X186547618Y-36926133D01*
X186547618Y-36926133D02*
X186357142Y-36926133D01*
X186357142Y-36926133D02*
X186261904Y-36973752D01*
X186261904Y-36973752D02*
X186214285Y-37021371D01*
X186214285Y-37021371D02*
X186166666Y-37116609D01*
X185690476Y-45907200D02*
X185833333Y-45954819D01*
X185833333Y-45954819D02*
X186071428Y-45954819D01*
X186071428Y-45954819D02*
X186166666Y-45907200D01*
X186166666Y-45907200D02*
X186214285Y-45859580D01*
X186214285Y-45859580D02*
X186261904Y-45764342D01*
X186261904Y-45764342D02*
X186261904Y-45669104D01*
X186261904Y-45669104D02*
X186214285Y-45573866D01*
X186214285Y-45573866D02*
X186166666Y-45526247D01*
X186166666Y-45526247D02*
X186071428Y-45478628D01*
X186071428Y-45478628D02*
X185880952Y-45431009D01*
X185880952Y-45431009D02*
X185785714Y-45383390D01*
X185785714Y-45383390D02*
X185738095Y-45335771D01*
X185738095Y-45335771D02*
X185690476Y-45240533D01*
X185690476Y-45240533D02*
X185690476Y-45145295D01*
X185690476Y-45145295D02*
X185738095Y-45050057D01*
X185738095Y-45050057D02*
X185785714Y-45002438D01*
X185785714Y-45002438D02*
X185880952Y-44954819D01*
X185880952Y-44954819D02*
X186119047Y-44954819D01*
X186119047Y-44954819D02*
X186261904Y-45002438D01*
X186595238Y-44954819D02*
X186833333Y-45954819D01*
X186833333Y-45954819D02*
X187023809Y-45240533D01*
X187023809Y-45240533D02*
X187214285Y-45954819D01*
X187214285Y-45954819D02*
X187452381Y-44954819D01*
X188357142Y-45954819D02*
X187785714Y-45954819D01*
X188071428Y-45954819D02*
X188071428Y-44954819D01*
X188071428Y-44954819D02*
X187976190Y-45097676D01*
X187976190Y-45097676D02*
X187880952Y-45192914D01*
X187880952Y-45192914D02*
X187785714Y-45240533D01*
X188976190Y-44954819D02*
X189071428Y-44954819D01*
X189071428Y-44954819D02*
X189166666Y-45002438D01*
X189166666Y-45002438D02*
X189214285Y-45050057D01*
X189214285Y-45050057D02*
X189261904Y-45145295D01*
X189261904Y-45145295D02*
X189309523Y-45335771D01*
X189309523Y-45335771D02*
X189309523Y-45573866D01*
X189309523Y-45573866D02*
X189261904Y-45764342D01*
X189261904Y-45764342D02*
X189214285Y-45859580D01*
X189214285Y-45859580D02*
X189166666Y-45907200D01*
X189166666Y-45907200D02*
X189071428Y-45954819D01*
X189071428Y-45954819D02*
X188976190Y-45954819D01*
X188976190Y-45954819D02*
X188880952Y-45907200D01*
X188880952Y-45907200D02*
X188833333Y-45859580D01*
X188833333Y-45859580D02*
X188785714Y-45764342D01*
X188785714Y-45764342D02*
X188738095Y-45573866D01*
X188738095Y-45573866D02*
X188738095Y-45335771D01*
X188738095Y-45335771D02*
X188785714Y-45145295D01*
X188785714Y-45145295D02*
X188833333Y-45050057D01*
X188833333Y-45050057D02*
X188880952Y-45002438D01*
X188880952Y-45002438D02*
X188976190Y-44954819D01*
X173833333Y-29539580D02*
X173785714Y-29587200D01*
X173785714Y-29587200D02*
X173642857Y-29634819D01*
X173642857Y-29634819D02*
X173547619Y-29634819D01*
X173547619Y-29634819D02*
X173404762Y-29587200D01*
X173404762Y-29587200D02*
X173309524Y-29491961D01*
X173309524Y-29491961D02*
X173261905Y-29396723D01*
X173261905Y-29396723D02*
X173214286Y-29206247D01*
X173214286Y-29206247D02*
X173214286Y-29063390D01*
X173214286Y-29063390D02*
X173261905Y-28872914D01*
X173261905Y-28872914D02*
X173309524Y-28777676D01*
X173309524Y-28777676D02*
X173404762Y-28682438D01*
X173404762Y-28682438D02*
X173547619Y-28634819D01*
X173547619Y-28634819D02*
X173642857Y-28634819D01*
X173642857Y-28634819D02*
X173785714Y-28682438D01*
X173785714Y-28682438D02*
X173833333Y-28730057D01*
X174166667Y-28634819D02*
X174785714Y-28634819D01*
X174785714Y-28634819D02*
X174452381Y-29015771D01*
X174452381Y-29015771D02*
X174595238Y-29015771D01*
X174595238Y-29015771D02*
X174690476Y-29063390D01*
X174690476Y-29063390D02*
X174738095Y-29111009D01*
X174738095Y-29111009D02*
X174785714Y-29206247D01*
X174785714Y-29206247D02*
X174785714Y-29444342D01*
X174785714Y-29444342D02*
X174738095Y-29539580D01*
X174738095Y-29539580D02*
X174690476Y-29587200D01*
X174690476Y-29587200D02*
X174595238Y-29634819D01*
X174595238Y-29634819D02*
X174309524Y-29634819D01*
X174309524Y-29634819D02*
X174214286Y-29587200D01*
X174214286Y-29587200D02*
X174166667Y-29539580D01*
X175833333Y-24359580D02*
X175785714Y-24407200D01*
X175785714Y-24407200D02*
X175642857Y-24454819D01*
X175642857Y-24454819D02*
X175547619Y-24454819D01*
X175547619Y-24454819D02*
X175404762Y-24407200D01*
X175404762Y-24407200D02*
X175309524Y-24311961D01*
X175309524Y-24311961D02*
X175261905Y-24216723D01*
X175261905Y-24216723D02*
X175214286Y-24026247D01*
X175214286Y-24026247D02*
X175214286Y-23883390D01*
X175214286Y-23883390D02*
X175261905Y-23692914D01*
X175261905Y-23692914D02*
X175309524Y-23597676D01*
X175309524Y-23597676D02*
X175404762Y-23502438D01*
X175404762Y-23502438D02*
X175547619Y-23454819D01*
X175547619Y-23454819D02*
X175642857Y-23454819D01*
X175642857Y-23454819D02*
X175785714Y-23502438D01*
X175785714Y-23502438D02*
X175833333Y-23550057D01*
X176785714Y-24454819D02*
X176214286Y-24454819D01*
X176500000Y-24454819D02*
X176500000Y-23454819D01*
X176500000Y-23454819D02*
X176404762Y-23597676D01*
X176404762Y-23597676D02*
X176309524Y-23692914D01*
X176309524Y-23692914D02*
X176214286Y-23740533D01*
X176333333Y-59859580D02*
X176285714Y-59907200D01*
X176285714Y-59907200D02*
X176142857Y-59954819D01*
X176142857Y-59954819D02*
X176047619Y-59954819D01*
X176047619Y-59954819D02*
X175904762Y-59907200D01*
X175904762Y-59907200D02*
X175809524Y-59811961D01*
X175809524Y-59811961D02*
X175761905Y-59716723D01*
X175761905Y-59716723D02*
X175714286Y-59526247D01*
X175714286Y-59526247D02*
X175714286Y-59383390D01*
X175714286Y-59383390D02*
X175761905Y-59192914D01*
X175761905Y-59192914D02*
X175809524Y-59097676D01*
X175809524Y-59097676D02*
X175904762Y-59002438D01*
X175904762Y-59002438D02*
X176047619Y-58954819D01*
X176047619Y-58954819D02*
X176142857Y-58954819D01*
X176142857Y-58954819D02*
X176285714Y-59002438D01*
X176285714Y-59002438D02*
X176333333Y-59050057D01*
X177190476Y-59288152D02*
X177190476Y-59954819D01*
X176952381Y-58907200D02*
X176714286Y-59621485D01*
X176714286Y-59621485D02*
X177333333Y-59621485D01*
X223201200Y-51793332D02*
X223248819Y-51650475D01*
X223248819Y-51650475D02*
X223248819Y-51412380D01*
X223248819Y-51412380D02*
X223201200Y-51317142D01*
X223201200Y-51317142D02*
X223153580Y-51269523D01*
X223153580Y-51269523D02*
X223058342Y-51221904D01*
X223058342Y-51221904D02*
X222963104Y-51221904D01*
X222963104Y-51221904D02*
X222867866Y-51269523D01*
X222867866Y-51269523D02*
X222820247Y-51317142D01*
X222820247Y-51317142D02*
X222772628Y-51412380D01*
X222772628Y-51412380D02*
X222725009Y-51602856D01*
X222725009Y-51602856D02*
X222677390Y-51698094D01*
X222677390Y-51698094D02*
X222629771Y-51745713D01*
X222629771Y-51745713D02*
X222534533Y-51793332D01*
X222534533Y-51793332D02*
X222439295Y-51793332D01*
X222439295Y-51793332D02*
X222344057Y-51745713D01*
X222344057Y-51745713D02*
X222296438Y-51698094D01*
X222296438Y-51698094D02*
X222248819Y-51602856D01*
X222248819Y-51602856D02*
X222248819Y-51364761D01*
X222248819Y-51364761D02*
X222296438Y-51221904D01*
X222248819Y-50888570D02*
X223248819Y-50650475D01*
X223248819Y-50650475D02*
X222534533Y-50459999D01*
X222534533Y-50459999D02*
X223248819Y-50269523D01*
X223248819Y-50269523D02*
X222248819Y-50031428D01*
X222248819Y-49745713D02*
X222248819Y-49079047D01*
X222248819Y-49079047D02*
X223248819Y-49507618D01*
X176333333Y-54179580D02*
X176285714Y-54227200D01*
X176285714Y-54227200D02*
X176142857Y-54274819D01*
X176142857Y-54274819D02*
X176047619Y-54274819D01*
X176047619Y-54274819D02*
X175904762Y-54227200D01*
X175904762Y-54227200D02*
X175809524Y-54131961D01*
X175809524Y-54131961D02*
X175761905Y-54036723D01*
X175761905Y-54036723D02*
X175714286Y-53846247D01*
X175714286Y-53846247D02*
X175714286Y-53703390D01*
X175714286Y-53703390D02*
X175761905Y-53512914D01*
X175761905Y-53512914D02*
X175809524Y-53417676D01*
X175809524Y-53417676D02*
X175904762Y-53322438D01*
X175904762Y-53322438D02*
X176047619Y-53274819D01*
X176047619Y-53274819D02*
X176142857Y-53274819D01*
X176142857Y-53274819D02*
X176285714Y-53322438D01*
X176285714Y-53322438D02*
X176333333Y-53370057D01*
X177238095Y-53274819D02*
X176761905Y-53274819D01*
X176761905Y-53274819D02*
X176714286Y-53751009D01*
X176714286Y-53751009D02*
X176761905Y-53703390D01*
X176761905Y-53703390D02*
X176857143Y-53655771D01*
X176857143Y-53655771D02*
X177095238Y-53655771D01*
X177095238Y-53655771D02*
X177190476Y-53703390D01*
X177190476Y-53703390D02*
X177238095Y-53751009D01*
X177238095Y-53751009D02*
X177285714Y-53846247D01*
X177285714Y-53846247D02*
X177285714Y-54084342D01*
X177285714Y-54084342D02*
X177238095Y-54179580D01*
X177238095Y-54179580D02*
X177190476Y-54227200D01*
X177190476Y-54227200D02*
X177095238Y-54274819D01*
X177095238Y-54274819D02*
X176857143Y-54274819D01*
X176857143Y-54274819D02*
X176761905Y-54227200D01*
X176761905Y-54227200D02*
X176714286Y-54179580D01*
D12*
X162000000Y-33700000D02*
X162000000Y-38750000D01*
X162450000Y-33250000D02*
X162000000Y-33700000D01*
X162800000Y-35100000D02*
X162800000Y-36900000D01*
X168200000Y-35100000D02*
X168200000Y-36900000D01*
X169000000Y-33250000D02*
X162450000Y-33250000D01*
X169000000Y-38750000D02*
X162000000Y-38750000D01*
X169000000Y-38750000D02*
X169000000Y-33250000D01*
X207935000Y-24475000D02*
X221905000Y-24475000D01*
X207935000Y-38445000D02*
X207935000Y-24475000D01*
X221905000Y-24475000D02*
X221905000Y-38445000D01*
X221905000Y-38445000D02*
X207935000Y-38445000D01*
X162000000Y-23700000D02*
X162000000Y-28750000D01*
X162450000Y-23250000D02*
X162000000Y-23700000D01*
X162800000Y-25100000D02*
X162800000Y-26900000D01*
X168200000Y-25100000D02*
X168200000Y-26900000D01*
X169000000Y-23250000D02*
X162450000Y-23250000D01*
X169000000Y-28750000D02*
X162000000Y-28750000D01*
X169000000Y-28750000D02*
X169000000Y-23250000D01*
X166738748Y-40265000D02*
X167261252Y-40265000D01*
X166738748Y-41735000D02*
X167261252Y-41735000D01*
X226935000Y-43475000D02*
X240905000Y-43475000D01*
X226935000Y-57445000D02*
X226935000Y-43475000D01*
X240905000Y-43475000D02*
X240905000Y-57445000D01*
X240905000Y-57445000D02*
X226935000Y-57445000D01*
X162000000Y-43700000D02*
X162000000Y-48750000D01*
X162450000Y-43250000D02*
X162000000Y-43700000D01*
X162800000Y-45100000D02*
X162800000Y-46900000D01*
X168200000Y-45100000D02*
X168200000Y-46900000D01*
X169000000Y-43250000D02*
X162450000Y-43250000D01*
X169000000Y-48750000D02*
X162000000Y-48750000D01*
X169000000Y-48750000D02*
X169000000Y-43250000D01*
X166738748Y-50265000D02*
X167261252Y-50265000D01*
X166738748Y-51735000D02*
X167261252Y-51735000D01*
X226935000Y-24475000D02*
X240905000Y-24475000D01*
X226935000Y-38445000D02*
X226935000Y-24475000D01*
X240905000Y-24475000D02*
X240905000Y-38445000D01*
X240905000Y-38445000D02*
X226935000Y-38445000D01*
X166738748Y-30265000D02*
X167261252Y-30265000D01*
X166738748Y-31735000D02*
X167261252Y-31735000D01*
X162000000Y-53700000D02*
X162000000Y-58750000D01*
X162450000Y-53250000D02*
X162000000Y-53700000D01*
X162800000Y-55100000D02*
X162800000Y-56900000D01*
X168200000Y-55100000D02*
X168200000Y-56900000D01*
X169000000Y-53250000D02*
X162450000Y-53250000D01*
X169000000Y-58750000D02*
X162000000Y-58750000D01*
X169000000Y-58750000D02*
X169000000Y-53250000D01*
X172261252Y-55265000D02*
X171738748Y-55265000D01*
X172261252Y-56735000D02*
X171738748Y-56735000D01*
D13*
X182470800Y-34476999D02*
X182470800Y-35613159D01*
X182470800Y-38386839D02*
X182470800Y-40827000D01*
X182470800Y-40827000D02*
X192529200Y-40827000D01*
X192529200Y-34476999D02*
X182470800Y-34476999D01*
X192529200Y-35613159D02*
X192529200Y-34476999D01*
X192529200Y-40827000D02*
X192529200Y-38386839D01*
D14*
X194688200Y-39000000D02*
G75*
G02*
X193926200Y-39000000I-381000J0D01*
G01*
X193926200Y-39000000D02*
G75*
G02*
X194688200Y-39000000I381000J0D01*
G01*
D13*
X182470800Y-41579900D02*
X182470800Y-44020061D01*
X182470800Y-46793741D02*
X182470800Y-47929901D01*
X182470800Y-47929901D02*
X192529200Y-47929901D01*
X192529200Y-41579900D02*
X182470800Y-41579900D01*
X192529200Y-44020061D02*
X192529200Y-41579900D01*
X192529200Y-47929901D02*
X192529200Y-46793741D01*
D14*
X181073800Y-43406900D02*
G75*
G02*
X180311800Y-43406900I-381000J0D01*
G01*
X180311800Y-43406900D02*
G75*
G02*
X181073800Y-43406900I381000J0D01*
G01*
D12*
X174261252Y-26765000D02*
X173738748Y-26765000D01*
X174261252Y-28235000D02*
X173738748Y-28235000D01*
X176261252Y-24765000D02*
X175738748Y-24765000D01*
X176261252Y-26235000D02*
X175738748Y-26235000D01*
X176761252Y-57265000D02*
X176238748Y-57265000D01*
X176761252Y-58735000D02*
X176238748Y-58735000D01*
X207935000Y-43475000D02*
X221905000Y-43475000D01*
X207935000Y-57445000D02*
X207935000Y-43475000D01*
X221905000Y-43475000D02*
X221905000Y-57445000D01*
X221905000Y-57445000D02*
X207935000Y-57445000D01*
X176238748Y-54765000D02*
X176761252Y-54765000D01*
X176238748Y-56235000D02*
X176761252Y-56235000D01*
%LPC*%
D15*
X167950000Y-37650000D03*
X167950000Y-34350000D03*
X163050000Y-34350000D03*
X163050000Y-37650000D03*
D16*
X214920000Y-26380000D03*
D17*
X214920000Y-31460000D03*
D16*
X214920000Y-36540000D03*
D18*
X220000000Y-34000000D03*
X217460000Y-27650000D03*
D15*
X167950000Y-27650000D03*
X167950000Y-24350000D03*
X163050000Y-24350000D03*
X163050000Y-27650000D03*
D19*
X165962500Y-41000000D03*
X168037500Y-41000000D03*
D16*
X233920000Y-45380000D03*
D17*
X233920000Y-50460000D03*
D16*
X233920000Y-55540000D03*
D18*
X239000000Y-53000000D03*
X236460000Y-46650000D03*
D20*
X156000000Y-56000000D03*
D15*
X167950000Y-47650000D03*
X167950000Y-44350000D03*
X163050000Y-44350000D03*
X163050000Y-47650000D03*
D19*
X165962500Y-51000000D03*
X168037500Y-51000000D03*
D16*
X233920000Y-26380000D03*
D17*
X233920000Y-31460000D03*
D16*
X233920000Y-36540000D03*
D18*
X239000000Y-34000000D03*
X236460000Y-27650000D03*
D19*
X165962500Y-31000000D03*
X168037500Y-31000000D03*
D20*
X247000000Y-56000000D03*
X201000000Y-56000000D03*
D15*
X167950000Y-57650000D03*
X167950000Y-54350000D03*
X163050000Y-54350000D03*
X163050000Y-57650000D03*
D21*
X173037500Y-56000000D03*
X170962500Y-56000000D03*
D22*
X191999999Y-36999999D03*
X183000001Y-36999999D03*
D23*
X190000000Y-39000000D03*
X185000000Y-39000000D03*
X187500000Y-39000000D03*
D22*
X183000001Y-45406901D03*
X191999999Y-45406901D03*
D23*
X185000000Y-43406900D03*
X190000000Y-43406900D03*
X187500000Y-43406900D03*
D21*
X175037500Y-27500000D03*
X172962500Y-27500000D03*
D20*
X201000000Y-26000000D03*
X156000000Y-26000000D03*
D21*
X177037500Y-25500000D03*
X174962500Y-25500000D03*
X177537500Y-58000000D03*
X175462500Y-58000000D03*
D16*
X214920000Y-45380000D03*
D17*
X214920000Y-50460000D03*
D16*
X214920000Y-55540000D03*
D18*
X220000000Y-53000000D03*
X217460000Y-46650000D03*
D19*
X175462500Y-55500000D03*
X177537500Y-55500000D03*
D20*
X247000000Y-26000000D03*
%LPD*%
M02*
