G04 #@! TF.GenerationSoftware,KiCad,Pcbnew,8.0.7*
G04 #@! TF.CreationDate,2025-07-02T20:48:29-04:00*
G04 #@! TF.ProjectId,ESP32_laptop-midi,45535033-325f-46c6-9170-746f702d6d69,rev?*
G04 #@! TF.SameCoordinates,Original*
G04 #@! TF.FileFunction,Soldermask,Bot*
G04 #@! TF.FilePolarity,Negative*
%FSLAX46Y46*%
G04 Gerber Fmt 4.6, Leading zero omitted, Abs format (unit mm)*
G04 Created by KiCad (PCBNEW 8.0.7) date 2025-07-02 20:48:29*
%MOMM*%
%LPD*%
G01*
G04 APERTURE LIST*
G04 Aperture macros list*
%AMFreePoly0*
4,1,11,0.558779,3.080902,0.595106,3.030902,0.600000,3.000000,0.600000,-1.000000,-0.600000,-1.000000,-0.600000,3.000000,-0.580902,3.058779,-0.530902,3.095106,-0.500000,3.100000,0.500000,3.100000,0.558779,3.080902,0.558779,3.080902,$1*%
G04 Aperture macros list end*
%ADD10C,1.700000*%
%ADD11C,4.000000*%
%ADD12C,2.200000*%
%ADD13C,3.200000*%
%ADD14O,2.500000X3.500000*%
%ADD15C,1.524000*%
%ADD16FreePoly0,0.000000*%
%ADD17FreePoly0,180.000000*%
G04 APERTURE END LIST*
D10*
X214920000Y-26380000D03*
D11*
X214920000Y-31460000D03*
D10*
X214920000Y-36540000D03*
D12*
X220000000Y-34000000D03*
X217460000Y-27650000D03*
D10*
X233920000Y-45380000D03*
D11*
X233920000Y-50460000D03*
D10*
X233920000Y-55540000D03*
D12*
X239000000Y-53000000D03*
X236460000Y-46650000D03*
D13*
X156000000Y-56000000D03*
D10*
X233920000Y-26380000D03*
D11*
X233920000Y-31460000D03*
D10*
X233920000Y-36540000D03*
D12*
X239000000Y-34000000D03*
X236460000Y-27650000D03*
D13*
X247000000Y-56000000D03*
X201000000Y-56000000D03*
D14*
X191999999Y-36999999D03*
X183000001Y-36999999D03*
D15*
X190000000Y-39000000D03*
X185000000Y-39000000D03*
X187500000Y-39000000D03*
D14*
X183000001Y-45406901D03*
X191999999Y-45406901D03*
D15*
X185000000Y-43406900D03*
X190000000Y-43406900D03*
X187500000Y-43406900D03*
D13*
X201000000Y-26000000D03*
X156000000Y-26000000D03*
D10*
X214920000Y-45380000D03*
D11*
X214920000Y-50460000D03*
D10*
X214920000Y-55540000D03*
D12*
X220000000Y-53000000D03*
X217460000Y-46650000D03*
D13*
X247000000Y-26000000D03*
D16*
X154840000Y-33380000D03*
X157380000Y-33380000D03*
X159920000Y-33380000D03*
X162460000Y-33380000D03*
X165000000Y-33380000D03*
X167540000Y-33380000D03*
X170080000Y-33380000D03*
X172620000Y-33380000D03*
X175160000Y-33380000D03*
D17*
X175160000Y-48620000D03*
X172620000Y-48620000D03*
X170080000Y-48620000D03*
X167540000Y-48620000D03*
X165000000Y-48620000D03*
X162460000Y-48620000D03*
X159920000Y-48620000D03*
X157380000Y-48620000D03*
X154840000Y-48620000D03*
M02*
