G04 #@! TF.GenerationSoftware,KiCad,Pcbnew,8.0.7*
G04 #@! TF.CreationDate,2025-06-18T23:22:59-07:00*
G04 #@! TF.ProjectId,ESP32_MIDI_Summer25_FRETSkicad_pro.kicad_sch,45535033-325f-44d4-9944-495f53756d6d,rev?*
G04 #@! TF.SameCoordinates,Original*
G04 #@! TF.FileFunction,Legend,Bot*
G04 #@! TF.FilePolarity,Positive*
%FSLAX46Y46*%
G04 Gerber Fmt 4.6, Leading zero omitted, Abs format (unit mm)*
G04 Created by KiCad (PCBNEW 8.0.7) date 2025-06-18 23:22:59*
%MOMM*%
%LPD*%
G01*
G04 APERTURE LIST*
G04 Aperture macros list*
%AMRoundRect*
0 Rectangle with rounded corners*
0 $1 Rounding radius*
0 $2 $3 $4 $5 $6 $7 $8 $9 X,Y pos of 4 corners*
0 Add a 4 corners polygon primitive as box body*
4,1,4,$2,$3,$4,$5,$6,$7,$8,$9,$2,$3,0*
0 Add four circle primitives for the rounded corners*
1,1,$1+$1,$2,$3*
1,1,$1+$1,$4,$5*
1,1,$1+$1,$6,$7*
1,1,$1+$1,$8,$9*
0 Add four rect primitives between the rounded corners*
20,1,$1+$1,$2,$3,$4,$5,0*
20,1,$1+$1,$4,$5,$6,$7,0*
20,1,$1+$1,$6,$7,$8,$9,0*
20,1,$1+$1,$8,$9,$2,$3,0*%
G04 Aperture macros list end*
%ADD10C,0.150000*%
%ADD11C,0.300000*%
%ADD12C,11.000000*%
%ADD13C,6.800000*%
%ADD14RoundRect,0.250000X0.600000X0.600000X-0.600000X0.600000X-0.600000X-0.600000X0.600000X-0.600000X0*%
%ADD15C,1.700000*%
%ADD16C,3.200000*%
%ADD17C,4.300000*%
G04 APERTURE END LIST*
D10*
X245758458Y-92369819D02*
X245139411Y-92369819D01*
X245139411Y-92369819D02*
X245472744Y-92750771D01*
X245472744Y-92750771D02*
X245329887Y-92750771D01*
X245329887Y-92750771D02*
X245234649Y-92798390D01*
X245234649Y-92798390D02*
X245187030Y-92846009D01*
X245187030Y-92846009D02*
X245139411Y-92941247D01*
X245139411Y-92941247D02*
X245139411Y-93179342D01*
X245139411Y-93179342D02*
X245187030Y-93274580D01*
X245187030Y-93274580D02*
X245234649Y-93322200D01*
X245234649Y-93322200D02*
X245329887Y-93369819D01*
X245329887Y-93369819D02*
X245615601Y-93369819D01*
X245615601Y-93369819D02*
X245710839Y-93322200D01*
X245710839Y-93322200D02*
X245758458Y-93274580D01*
X244806077Y-92703152D02*
X244567982Y-93369819D01*
X244567982Y-93369819D02*
X244329887Y-92703152D01*
X244044172Y-92369819D02*
X243425125Y-92369819D01*
X243425125Y-92369819D02*
X243758458Y-92750771D01*
X243758458Y-92750771D02*
X243615601Y-92750771D01*
X243615601Y-92750771D02*
X243520363Y-92798390D01*
X243520363Y-92798390D02*
X243472744Y-92846009D01*
X243472744Y-92846009D02*
X243425125Y-92941247D01*
X243425125Y-92941247D02*
X243425125Y-93179342D01*
X243425125Y-93179342D02*
X243472744Y-93274580D01*
X243472744Y-93274580D02*
X243520363Y-93322200D01*
X243520363Y-93322200D02*
X243615601Y-93369819D01*
X243615601Y-93369819D02*
X243901315Y-93369819D01*
X243901315Y-93369819D02*
X243996553Y-93322200D01*
X243996553Y-93322200D02*
X244044172Y-93274580D01*
D11*
X199326441Y-49239638D02*
X199326441Y-47239638D01*
X197516917Y-49239638D02*
X197516917Y-48192019D01*
X197516917Y-48192019D02*
X197612155Y-48001542D01*
X197612155Y-48001542D02*
X197802631Y-47906304D01*
X197802631Y-47906304D02*
X198183584Y-47906304D01*
X198183584Y-47906304D02*
X198374060Y-48001542D01*
X197516917Y-49144400D02*
X197707393Y-49239638D01*
X197707393Y-49239638D02*
X198183584Y-49239638D01*
X198183584Y-49239638D02*
X198374060Y-49144400D01*
X198374060Y-49144400D02*
X198469298Y-48953923D01*
X198469298Y-48953923D02*
X198469298Y-48763447D01*
X198469298Y-48763447D02*
X198374060Y-48572971D01*
X198374060Y-48572971D02*
X198183584Y-48477733D01*
X198183584Y-48477733D02*
X197707393Y-48477733D01*
X197707393Y-48477733D02*
X197516917Y-48382495D01*
X196564536Y-47906304D02*
X196564536Y-49239638D01*
X196564536Y-48096780D02*
X196469298Y-48001542D01*
X196469298Y-48001542D02*
X196278822Y-47906304D01*
X196278822Y-47906304D02*
X195993107Y-47906304D01*
X195993107Y-47906304D02*
X195802631Y-48001542D01*
X195802631Y-48001542D02*
X195707393Y-48192019D01*
X195707393Y-48192019D02*
X195707393Y-49239638D01*
X193231202Y-49239638D02*
X193231202Y-47239638D01*
X193231202Y-48192019D02*
X192088345Y-48192019D01*
X192088345Y-49239638D02*
X192088345Y-47239638D01*
X190278821Y-49239638D02*
X190278821Y-48192019D01*
X190278821Y-48192019D02*
X190374059Y-48001542D01*
X190374059Y-48001542D02*
X190564535Y-47906304D01*
X190564535Y-47906304D02*
X190945488Y-47906304D01*
X190945488Y-47906304D02*
X191135964Y-48001542D01*
X190278821Y-49144400D02*
X190469297Y-49239638D01*
X190469297Y-49239638D02*
X190945488Y-49239638D01*
X190945488Y-49239638D02*
X191135964Y-49144400D01*
X191135964Y-49144400D02*
X191231202Y-48953923D01*
X191231202Y-48953923D02*
X191231202Y-48763447D01*
X191231202Y-48763447D02*
X191135964Y-48572971D01*
X191135964Y-48572971D02*
X190945488Y-48477733D01*
X190945488Y-48477733D02*
X190469297Y-48477733D01*
X190469297Y-48477733D02*
X190278821Y-48382495D01*
X189612154Y-47906304D02*
X188850250Y-47906304D01*
X189326440Y-47239638D02*
X189326440Y-48953923D01*
X189326440Y-48953923D02*
X189231202Y-49144400D01*
X189231202Y-49144400D02*
X189040726Y-49239638D01*
X189040726Y-49239638D02*
X188850250Y-49239638D01*
X188469297Y-47906304D02*
X187707393Y-47906304D01*
X188183583Y-47239638D02*
X188183583Y-48953923D01*
X188183583Y-48953923D02*
X188088345Y-49144400D01*
X188088345Y-49144400D02*
X187897869Y-49239638D01*
X187897869Y-49239638D02*
X187707393Y-49239638D01*
X187231202Y-47906304D02*
X186850250Y-49239638D01*
X186850250Y-49239638D02*
X186469297Y-48287257D01*
X186469297Y-48287257D02*
X186088345Y-49239638D01*
X186088345Y-49239638D02*
X185707393Y-47906304D01*
X184945488Y-49239638D02*
X184945488Y-47906304D01*
X184945488Y-47239638D02*
X185040726Y-47334876D01*
X185040726Y-47334876D02*
X184945488Y-47430114D01*
X184945488Y-47430114D02*
X184850250Y-47334876D01*
X184850250Y-47334876D02*
X184945488Y-47239638D01*
X184945488Y-47239638D02*
X184945488Y-47430114D01*
X183135964Y-49144400D02*
X183326440Y-49239638D01*
X183326440Y-49239638D02*
X183707393Y-49239638D01*
X183707393Y-49239638D02*
X183897869Y-49144400D01*
X183897869Y-49144400D02*
X183993107Y-49049161D01*
X183993107Y-49049161D02*
X184088345Y-48858685D01*
X184088345Y-48858685D02*
X184088345Y-48287257D01*
X184088345Y-48287257D02*
X183993107Y-48096780D01*
X183993107Y-48096780D02*
X183897869Y-48001542D01*
X183897869Y-48001542D02*
X183707393Y-47906304D01*
X183707393Y-47906304D02*
X183326440Y-47906304D01*
X183326440Y-47906304D02*
X183135964Y-48001542D01*
X182278821Y-49239638D02*
X182278821Y-47239638D01*
X182088345Y-48477733D02*
X181516916Y-49239638D01*
X181516916Y-47906304D02*
X182278821Y-48668209D01*
X178564534Y-47239638D02*
X178564534Y-48668209D01*
X178564534Y-48668209D02*
X178659773Y-48953923D01*
X178659773Y-48953923D02*
X178850249Y-49144400D01*
X178850249Y-49144400D02*
X179135963Y-49239638D01*
X179135963Y-49239638D02*
X179326439Y-49239638D01*
X176755010Y-47906304D02*
X176755010Y-49239638D01*
X177612153Y-47906304D02*
X177612153Y-48953923D01*
X177612153Y-48953923D02*
X177516915Y-49144400D01*
X177516915Y-49144400D02*
X177326439Y-49239638D01*
X177326439Y-49239638D02*
X177040724Y-49239638D01*
X177040724Y-49239638D02*
X176850248Y-49144400D01*
X176850248Y-49144400D02*
X176755010Y-49049161D01*
X175802629Y-47906304D02*
X175802629Y-49239638D01*
X175802629Y-48096780D02*
X175707391Y-48001542D01*
X175707391Y-48001542D02*
X175516915Y-47906304D01*
X175516915Y-47906304D02*
X175231200Y-47906304D01*
X175231200Y-47906304D02*
X175040724Y-48001542D01*
X175040724Y-48001542D02*
X174945486Y-48192019D01*
X174945486Y-48192019D02*
X174945486Y-49239638D01*
X172374057Y-47239638D02*
X172564533Y-47620590D01*
X171612152Y-47430114D02*
X171516914Y-47334876D01*
X171516914Y-47334876D02*
X171326438Y-47239638D01*
X171326438Y-47239638D02*
X170850247Y-47239638D01*
X170850247Y-47239638D02*
X170659771Y-47334876D01*
X170659771Y-47334876D02*
X170564533Y-47430114D01*
X170564533Y-47430114D02*
X170469295Y-47620590D01*
X170469295Y-47620590D02*
X170469295Y-47811066D01*
X170469295Y-47811066D02*
X170564533Y-48096780D01*
X170564533Y-48096780D02*
X171707390Y-49239638D01*
X171707390Y-49239638D02*
X170469295Y-49239638D01*
X168659771Y-47239638D02*
X169612152Y-47239638D01*
X169612152Y-47239638D02*
X169707390Y-48192019D01*
X169707390Y-48192019D02*
X169612152Y-48096780D01*
X169612152Y-48096780D02*
X169421676Y-48001542D01*
X169421676Y-48001542D02*
X168945485Y-48001542D01*
X168945485Y-48001542D02*
X168755009Y-48096780D01*
X168755009Y-48096780D02*
X168659771Y-48192019D01*
X168659771Y-48192019D02*
X168564533Y-48382495D01*
X168564533Y-48382495D02*
X168564533Y-48858685D01*
X168564533Y-48858685D02*
X168659771Y-49049161D01*
X168659771Y-49049161D02*
X168755009Y-49144400D01*
X168755009Y-49144400D02*
X168945485Y-49239638D01*
X168945485Y-49239638D02*
X169421676Y-49239638D01*
X169421676Y-49239638D02*
X169612152Y-49144400D01*
X169612152Y-49144400D02*
X169707390Y-49049161D01*
X198421679Y-53644400D02*
X198135965Y-53739638D01*
X198135965Y-53739638D02*
X197659774Y-53739638D01*
X197659774Y-53739638D02*
X197469298Y-53644400D01*
X197469298Y-53644400D02*
X197374060Y-53549161D01*
X197374060Y-53549161D02*
X197278822Y-53358685D01*
X197278822Y-53358685D02*
X197278822Y-53168209D01*
X197278822Y-53168209D02*
X197374060Y-52977733D01*
X197374060Y-52977733D02*
X197469298Y-52882495D01*
X197469298Y-52882495D02*
X197659774Y-52787257D01*
X197659774Y-52787257D02*
X198040727Y-52692019D01*
X198040727Y-52692019D02*
X198231203Y-52596780D01*
X198231203Y-52596780D02*
X198326441Y-52501542D01*
X198326441Y-52501542D02*
X198421679Y-52311066D01*
X198421679Y-52311066D02*
X198421679Y-52120590D01*
X198421679Y-52120590D02*
X198326441Y-51930114D01*
X198326441Y-51930114D02*
X198231203Y-51834876D01*
X198231203Y-51834876D02*
X198040727Y-51739638D01*
X198040727Y-51739638D02*
X197564536Y-51739638D01*
X197564536Y-51739638D02*
X197278822Y-51834876D01*
X196135965Y-53739638D02*
X196326441Y-53644400D01*
X196326441Y-53644400D02*
X196421679Y-53549161D01*
X196421679Y-53549161D02*
X196516917Y-53358685D01*
X196516917Y-53358685D02*
X196516917Y-52787257D01*
X196516917Y-52787257D02*
X196421679Y-52596780D01*
X196421679Y-52596780D02*
X196326441Y-52501542D01*
X196326441Y-52501542D02*
X196135965Y-52406304D01*
X196135965Y-52406304D02*
X195850250Y-52406304D01*
X195850250Y-52406304D02*
X195659774Y-52501542D01*
X195659774Y-52501542D02*
X195564536Y-52596780D01*
X195564536Y-52596780D02*
X195469298Y-52787257D01*
X195469298Y-52787257D02*
X195469298Y-53358685D01*
X195469298Y-53358685D02*
X195564536Y-53549161D01*
X195564536Y-53549161D02*
X195659774Y-53644400D01*
X195659774Y-53644400D02*
X195850250Y-53739638D01*
X195850250Y-53739638D02*
X196135965Y-53739638D01*
X194612155Y-53739638D02*
X194612155Y-52406304D01*
X194612155Y-52596780D02*
X194516917Y-52501542D01*
X194516917Y-52501542D02*
X194326441Y-52406304D01*
X194326441Y-52406304D02*
X194040726Y-52406304D01*
X194040726Y-52406304D02*
X193850250Y-52501542D01*
X193850250Y-52501542D02*
X193755012Y-52692019D01*
X193755012Y-52692019D02*
X193755012Y-53739638D01*
X193755012Y-52692019D02*
X193659774Y-52501542D01*
X193659774Y-52501542D02*
X193469298Y-52406304D01*
X193469298Y-52406304D02*
X193183584Y-52406304D01*
X193183584Y-52406304D02*
X192993107Y-52501542D01*
X192993107Y-52501542D02*
X192897869Y-52692019D01*
X192897869Y-52692019D02*
X192897869Y-53739638D01*
X191183583Y-53644400D02*
X191374059Y-53739638D01*
X191374059Y-53739638D02*
X191755012Y-53739638D01*
X191755012Y-53739638D02*
X191945488Y-53644400D01*
X191945488Y-53644400D02*
X192040726Y-53453923D01*
X192040726Y-53453923D02*
X192040726Y-52692019D01*
X192040726Y-52692019D02*
X191945488Y-52501542D01*
X191945488Y-52501542D02*
X191755012Y-52406304D01*
X191755012Y-52406304D02*
X191374059Y-52406304D01*
X191374059Y-52406304D02*
X191183583Y-52501542D01*
X191183583Y-52501542D02*
X191088345Y-52692019D01*
X191088345Y-52692019D02*
X191088345Y-52882495D01*
X191088345Y-52882495D02*
X192040726Y-53072971D01*
X190231202Y-53739638D02*
X190231202Y-52406304D01*
X190231202Y-52787257D02*
X190135964Y-52596780D01*
X190135964Y-52596780D02*
X190040726Y-52501542D01*
X190040726Y-52501542D02*
X189850250Y-52406304D01*
X189850250Y-52406304D02*
X189659773Y-52406304D01*
X189183583Y-52406304D02*
X188707393Y-53739638D01*
X188707393Y-53739638D02*
X188231202Y-52406304D01*
X187469297Y-53739638D02*
X187469297Y-52406304D01*
X187469297Y-51739638D02*
X187564535Y-51834876D01*
X187564535Y-51834876D02*
X187469297Y-51930114D01*
X187469297Y-51930114D02*
X187374059Y-51834876D01*
X187374059Y-51834876D02*
X187469297Y-51739638D01*
X187469297Y-51739638D02*
X187469297Y-51930114D01*
X186231202Y-53739638D02*
X186421678Y-53644400D01*
X186421678Y-53644400D02*
X186516916Y-53453923D01*
X186516916Y-53453923D02*
X186516916Y-51739638D01*
X185183583Y-53739638D02*
X185374059Y-53644400D01*
X185374059Y-53644400D02*
X185469297Y-53453923D01*
X185469297Y-53453923D02*
X185469297Y-51739638D01*
X183659773Y-53644400D02*
X183850249Y-53739638D01*
X183850249Y-53739638D02*
X184231202Y-53739638D01*
X184231202Y-53739638D02*
X184421678Y-53644400D01*
X184421678Y-53644400D02*
X184516916Y-53453923D01*
X184516916Y-53453923D02*
X184516916Y-52692019D01*
X184516916Y-52692019D02*
X184421678Y-52501542D01*
X184421678Y-52501542D02*
X184231202Y-52406304D01*
X184231202Y-52406304D02*
X183850249Y-52406304D01*
X183850249Y-52406304D02*
X183659773Y-52501542D01*
X183659773Y-52501542D02*
X183564535Y-52692019D01*
X183564535Y-52692019D02*
X183564535Y-52882495D01*
X183564535Y-52882495D02*
X184516916Y-53072971D01*
X182612154Y-53644400D02*
X182612154Y-53739638D01*
X182612154Y-53739638D02*
X182707392Y-53930114D01*
X182707392Y-53930114D02*
X182802630Y-54025352D01*
X180231201Y-53739638D02*
X180231201Y-51739638D01*
X180231201Y-51739638D02*
X179564534Y-53168209D01*
X179564534Y-53168209D02*
X178897868Y-51739638D01*
X178897868Y-51739638D02*
X178897868Y-53739638D01*
X178040725Y-53168209D02*
X177088344Y-53168209D01*
X178231201Y-53739638D02*
X177564535Y-51739638D01*
X177564535Y-51739638D02*
X176897868Y-53739638D01*
D10*
X245163220Y-100869819D02*
X245163220Y-99869819D01*
X244115602Y-100869819D02*
X244448935Y-100393628D01*
X244687030Y-100869819D02*
X244687030Y-99869819D01*
X244687030Y-99869819D02*
X244306078Y-99869819D01*
X244306078Y-99869819D02*
X244210840Y-99917438D01*
X244210840Y-99917438D02*
X244163221Y-99965057D01*
X244163221Y-99965057D02*
X244115602Y-100060295D01*
X244115602Y-100060295D02*
X244115602Y-100203152D01*
X244115602Y-100203152D02*
X244163221Y-100298390D01*
X244163221Y-100298390D02*
X244210840Y-100346009D01*
X244210840Y-100346009D02*
X244306078Y-100393628D01*
X244306078Y-100393628D02*
X244687030Y-100393628D01*
X243020364Y-100965057D02*
X243115602Y-100917438D01*
X243115602Y-100917438D02*
X243210840Y-100822200D01*
X243210840Y-100822200D02*
X243353697Y-100679342D01*
X243353697Y-100679342D02*
X243448935Y-100631723D01*
X243448935Y-100631723D02*
X243544173Y-100631723D01*
X243496554Y-100869819D02*
X243591792Y-100822200D01*
X243591792Y-100822200D02*
X243687030Y-100726961D01*
X243687030Y-100726961D02*
X243734649Y-100536485D01*
X243734649Y-100536485D02*
X243734649Y-100203152D01*
X243734649Y-100203152D02*
X243687030Y-100012676D01*
X243687030Y-100012676D02*
X243591792Y-99917438D01*
X243591792Y-99917438D02*
X243496554Y-99869819D01*
X243496554Y-99869819D02*
X243306078Y-99869819D01*
X243306078Y-99869819D02*
X243210840Y-99917438D01*
X243210840Y-99917438D02*
X243115602Y-100012676D01*
X243115602Y-100012676D02*
X243067983Y-100203152D01*
X243067983Y-100203152D02*
X243067983Y-100536485D01*
X243067983Y-100536485D02*
X243115602Y-100726961D01*
X243115602Y-100726961D02*
X243210840Y-100822200D01*
X243210840Y-100822200D02*
X243306078Y-100869819D01*
X243306078Y-100869819D02*
X243496554Y-100869819D01*
X245139411Y-89917438D02*
X245234649Y-89869819D01*
X245234649Y-89869819D02*
X245377506Y-89869819D01*
X245377506Y-89869819D02*
X245520363Y-89917438D01*
X245520363Y-89917438D02*
X245615601Y-90012676D01*
X245615601Y-90012676D02*
X245663220Y-90107914D01*
X245663220Y-90107914D02*
X245710839Y-90298390D01*
X245710839Y-90298390D02*
X245710839Y-90441247D01*
X245710839Y-90441247D02*
X245663220Y-90631723D01*
X245663220Y-90631723D02*
X245615601Y-90726961D01*
X245615601Y-90726961D02*
X245520363Y-90822200D01*
X245520363Y-90822200D02*
X245377506Y-90869819D01*
X245377506Y-90869819D02*
X245282268Y-90869819D01*
X245282268Y-90869819D02*
X245139411Y-90822200D01*
X245139411Y-90822200D02*
X245091792Y-90774580D01*
X245091792Y-90774580D02*
X245091792Y-90441247D01*
X245091792Y-90441247D02*
X245282268Y-90441247D01*
X244663220Y-90869819D02*
X244663220Y-89869819D01*
X244663220Y-89869819D02*
X244091792Y-90869819D01*
X244091792Y-90869819D02*
X244091792Y-89869819D01*
X243615601Y-90869819D02*
X243615601Y-89869819D01*
X243615601Y-89869819D02*
X243377506Y-89869819D01*
X243377506Y-89869819D02*
X243234649Y-89917438D01*
X243234649Y-89917438D02*
X243139411Y-90012676D01*
X243139411Y-90012676D02*
X243091792Y-90107914D01*
X243091792Y-90107914D02*
X243044173Y-90298390D01*
X243044173Y-90298390D02*
X243044173Y-90441247D01*
X243044173Y-90441247D02*
X243091792Y-90631723D01*
X243091792Y-90631723D02*
X243139411Y-90726961D01*
X243139411Y-90726961D02*
X243234649Y-90822200D01*
X243234649Y-90822200D02*
X243377506Y-90869819D01*
X243377506Y-90869819D02*
X243615601Y-90869819D01*
D11*
X197883584Y-58149161D02*
X197978822Y-58244400D01*
X197978822Y-58244400D02*
X198264536Y-58339638D01*
X198264536Y-58339638D02*
X198455012Y-58339638D01*
X198455012Y-58339638D02*
X198740727Y-58244400D01*
X198740727Y-58244400D02*
X198931203Y-58053923D01*
X198931203Y-58053923D02*
X199026441Y-57863447D01*
X199026441Y-57863447D02*
X199121679Y-57482495D01*
X199121679Y-57482495D02*
X199121679Y-57196780D01*
X199121679Y-57196780D02*
X199026441Y-56815828D01*
X199026441Y-56815828D02*
X198931203Y-56625352D01*
X198931203Y-56625352D02*
X198740727Y-56434876D01*
X198740727Y-56434876D02*
X198455012Y-56339638D01*
X198455012Y-56339638D02*
X198264536Y-56339638D01*
X198264536Y-56339638D02*
X197978822Y-56434876D01*
X197978822Y-56434876D02*
X197883584Y-56530114D01*
X197026441Y-58339638D02*
X197026441Y-57006304D01*
X197026441Y-57387257D02*
X196931203Y-57196780D01*
X196931203Y-57196780D02*
X196835965Y-57101542D01*
X196835965Y-57101542D02*
X196645489Y-57006304D01*
X196645489Y-57006304D02*
X196455012Y-57006304D01*
X195026441Y-58244400D02*
X195216917Y-58339638D01*
X195216917Y-58339638D02*
X195597870Y-58339638D01*
X195597870Y-58339638D02*
X195788346Y-58244400D01*
X195788346Y-58244400D02*
X195883584Y-58053923D01*
X195883584Y-58053923D02*
X195883584Y-57292019D01*
X195883584Y-57292019D02*
X195788346Y-57101542D01*
X195788346Y-57101542D02*
X195597870Y-57006304D01*
X195597870Y-57006304D02*
X195216917Y-57006304D01*
X195216917Y-57006304D02*
X195026441Y-57101542D01*
X195026441Y-57101542D02*
X194931203Y-57292019D01*
X194931203Y-57292019D02*
X194931203Y-57482495D01*
X194931203Y-57482495D02*
X195883584Y-57672971D01*
X193216917Y-58339638D02*
X193216917Y-57292019D01*
X193216917Y-57292019D02*
X193312155Y-57101542D01*
X193312155Y-57101542D02*
X193502631Y-57006304D01*
X193502631Y-57006304D02*
X193883584Y-57006304D01*
X193883584Y-57006304D02*
X194074060Y-57101542D01*
X193216917Y-58244400D02*
X193407393Y-58339638D01*
X193407393Y-58339638D02*
X193883584Y-58339638D01*
X193883584Y-58339638D02*
X194074060Y-58244400D01*
X194074060Y-58244400D02*
X194169298Y-58053923D01*
X194169298Y-58053923D02*
X194169298Y-57863447D01*
X194169298Y-57863447D02*
X194074060Y-57672971D01*
X194074060Y-57672971D02*
X193883584Y-57577733D01*
X193883584Y-57577733D02*
X193407393Y-57577733D01*
X193407393Y-57577733D02*
X193216917Y-57482495D01*
X192550250Y-57006304D02*
X191788346Y-57006304D01*
X192264536Y-56339638D02*
X192264536Y-58053923D01*
X192264536Y-58053923D02*
X192169298Y-58244400D01*
X192169298Y-58244400D02*
X191978822Y-58339638D01*
X191978822Y-58339638D02*
X191788346Y-58339638D01*
X191121679Y-58339638D02*
X191121679Y-57006304D01*
X191121679Y-56339638D02*
X191216917Y-56434876D01*
X191216917Y-56434876D02*
X191121679Y-56530114D01*
X191121679Y-56530114D02*
X191026441Y-56434876D01*
X191026441Y-56434876D02*
X191121679Y-56339638D01*
X191121679Y-56339638D02*
X191121679Y-56530114D01*
X190359774Y-57006304D02*
X189883584Y-58339638D01*
X189883584Y-58339638D02*
X189407393Y-57006304D01*
X188645488Y-58339638D02*
X188645488Y-57006304D01*
X188645488Y-56339638D02*
X188740726Y-56434876D01*
X188740726Y-56434876D02*
X188645488Y-56530114D01*
X188645488Y-56530114D02*
X188550250Y-56434876D01*
X188550250Y-56434876D02*
X188645488Y-56339638D01*
X188645488Y-56339638D02*
X188645488Y-56530114D01*
X187978821Y-57006304D02*
X187216917Y-57006304D01*
X187693107Y-56339638D02*
X187693107Y-58053923D01*
X187693107Y-58053923D02*
X187597869Y-58244400D01*
X187597869Y-58244400D02*
X187407393Y-58339638D01*
X187407393Y-58339638D02*
X187216917Y-58339638D01*
X185693107Y-58339638D02*
X185693107Y-57292019D01*
X185693107Y-57292019D02*
X185788345Y-57101542D01*
X185788345Y-57101542D02*
X185978821Y-57006304D01*
X185978821Y-57006304D02*
X186359774Y-57006304D01*
X186359774Y-57006304D02*
X186550250Y-57101542D01*
X185693107Y-58244400D02*
X185883583Y-58339638D01*
X185883583Y-58339638D02*
X186359774Y-58339638D01*
X186359774Y-58339638D02*
X186550250Y-58244400D01*
X186550250Y-58244400D02*
X186645488Y-58053923D01*
X186645488Y-58053923D02*
X186645488Y-57863447D01*
X186645488Y-57863447D02*
X186550250Y-57672971D01*
X186550250Y-57672971D02*
X186359774Y-57577733D01*
X186359774Y-57577733D02*
X185883583Y-57577733D01*
X185883583Y-57577733D02*
X185693107Y-57482495D01*
X184835964Y-58244400D02*
X184645488Y-58339638D01*
X184645488Y-58339638D02*
X184264536Y-58339638D01*
X184264536Y-58339638D02*
X184074059Y-58244400D01*
X184074059Y-58244400D02*
X183978821Y-58053923D01*
X183978821Y-58053923D02*
X183978821Y-57958685D01*
X183978821Y-57958685D02*
X184074059Y-57768209D01*
X184074059Y-57768209D02*
X184264536Y-57672971D01*
X184264536Y-57672971D02*
X184550250Y-57672971D01*
X184550250Y-57672971D02*
X184740726Y-57577733D01*
X184740726Y-57577733D02*
X184835964Y-57387257D01*
X184835964Y-57387257D02*
X184835964Y-57292019D01*
X184835964Y-57292019D02*
X184740726Y-57101542D01*
X184740726Y-57101542D02*
X184550250Y-57006304D01*
X184550250Y-57006304D02*
X184264536Y-57006304D01*
X184264536Y-57006304D02*
X184074059Y-57101542D01*
X180931201Y-57292019D02*
X181597868Y-57292019D01*
X181597868Y-58339638D02*
X181597868Y-56339638D01*
X181597868Y-56339638D02*
X180645487Y-56339638D01*
X179883582Y-58339638D02*
X179883582Y-57006304D01*
X179883582Y-57387257D02*
X179788344Y-57196780D01*
X179788344Y-57196780D02*
X179693106Y-57101542D01*
X179693106Y-57101542D02*
X179502630Y-57006304D01*
X179502630Y-57006304D02*
X179312153Y-57006304D01*
X177883582Y-58244400D02*
X178074058Y-58339638D01*
X178074058Y-58339638D02*
X178455011Y-58339638D01*
X178455011Y-58339638D02*
X178645487Y-58244400D01*
X178645487Y-58244400D02*
X178740725Y-58053923D01*
X178740725Y-58053923D02*
X178740725Y-57292019D01*
X178740725Y-57292019D02*
X178645487Y-57101542D01*
X178645487Y-57101542D02*
X178455011Y-57006304D01*
X178455011Y-57006304D02*
X178074058Y-57006304D01*
X178074058Y-57006304D02*
X177883582Y-57101542D01*
X177883582Y-57101542D02*
X177788344Y-57292019D01*
X177788344Y-57292019D02*
X177788344Y-57482495D01*
X177788344Y-57482495D02*
X178740725Y-57672971D01*
X177216915Y-57006304D02*
X176455011Y-57006304D01*
X176931201Y-56339638D02*
X176931201Y-58053923D01*
X176931201Y-58053923D02*
X176835963Y-58244400D01*
X176835963Y-58244400D02*
X176645487Y-58339638D01*
X176645487Y-58339638D02*
X176455011Y-58339638D01*
X175883582Y-58244400D02*
X175693106Y-58339638D01*
X175693106Y-58339638D02*
X175312154Y-58339638D01*
X175312154Y-58339638D02*
X175121677Y-58244400D01*
X175121677Y-58244400D02*
X175026439Y-58053923D01*
X175026439Y-58053923D02*
X175026439Y-57958685D01*
X175026439Y-57958685D02*
X175121677Y-57768209D01*
X175121677Y-57768209D02*
X175312154Y-57672971D01*
X175312154Y-57672971D02*
X175597868Y-57672971D01*
X175597868Y-57672971D02*
X175788344Y-57577733D01*
X175788344Y-57577733D02*
X175883582Y-57387257D01*
X175883582Y-57387257D02*
X175883582Y-57292019D01*
X175883582Y-57292019D02*
X175788344Y-57101542D01*
X175788344Y-57101542D02*
X175597868Y-57006304D01*
X175597868Y-57006304D02*
X175312154Y-57006304D01*
X175312154Y-57006304D02*
X175121677Y-57101542D01*
X172835962Y-57006304D02*
X172359772Y-58339638D01*
X172359772Y-58339638D02*
X171883581Y-57006304D01*
X170074057Y-58339638D02*
X171216914Y-58339638D01*
X170645486Y-58339638D02*
X170645486Y-56339638D01*
X170645486Y-56339638D02*
X170835962Y-56625352D01*
X170835962Y-56625352D02*
X171026438Y-56815828D01*
X171026438Y-56815828D02*
X171216914Y-56911066D01*
D10*
X243289160Y-95177800D02*
X243432017Y-95130180D01*
X243432017Y-95130180D02*
X243670112Y-95130180D01*
X243670112Y-95130180D02*
X243765350Y-95177800D01*
X243765350Y-95177800D02*
X243812969Y-95225419D01*
X243812969Y-95225419D02*
X243860588Y-95320657D01*
X243860588Y-95320657D02*
X243860588Y-95415895D01*
X243860588Y-95415895D02*
X243812969Y-95511133D01*
X243812969Y-95511133D02*
X243765350Y-95558752D01*
X243765350Y-95558752D02*
X243670112Y-95606371D01*
X243670112Y-95606371D02*
X243479636Y-95653990D01*
X243479636Y-95653990D02*
X243384398Y-95701609D01*
X243384398Y-95701609D02*
X243336779Y-95749228D01*
X243336779Y-95749228D02*
X243289160Y-95844466D01*
X243289160Y-95844466D02*
X243289160Y-95939704D01*
X243289160Y-95939704D02*
X243336779Y-96034942D01*
X243336779Y-96034942D02*
X243384398Y-96082561D01*
X243384398Y-96082561D02*
X243479636Y-96130180D01*
X243479636Y-96130180D02*
X243717731Y-96130180D01*
X243717731Y-96130180D02*
X243860588Y-96082561D01*
X244860588Y-95225419D02*
X244812969Y-95177800D01*
X244812969Y-95177800D02*
X244670112Y-95130180D01*
X244670112Y-95130180D02*
X244574874Y-95130180D01*
X244574874Y-95130180D02*
X244432017Y-95177800D01*
X244432017Y-95177800D02*
X244336779Y-95273038D01*
X244336779Y-95273038D02*
X244289160Y-95368276D01*
X244289160Y-95368276D02*
X244241541Y-95558752D01*
X244241541Y-95558752D02*
X244241541Y-95701609D01*
X244241541Y-95701609D02*
X244289160Y-95892085D01*
X244289160Y-95892085D02*
X244336779Y-95987323D01*
X244336779Y-95987323D02*
X244432017Y-96082561D01*
X244432017Y-96082561D02*
X244574874Y-96130180D01*
X244574874Y-96130180D02*
X244670112Y-96130180D01*
X244670112Y-96130180D02*
X244812969Y-96082561D01*
X244812969Y-96082561D02*
X244860588Y-96034942D01*
X245765350Y-95130180D02*
X245289160Y-95130180D01*
X245289160Y-95130180D02*
X245289160Y-96130180D01*
X245710839Y-98322200D02*
X245567982Y-98369819D01*
X245567982Y-98369819D02*
X245329887Y-98369819D01*
X245329887Y-98369819D02*
X245234649Y-98322200D01*
X245234649Y-98322200D02*
X245187030Y-98274580D01*
X245187030Y-98274580D02*
X245139411Y-98179342D01*
X245139411Y-98179342D02*
X245139411Y-98084104D01*
X245139411Y-98084104D02*
X245187030Y-97988866D01*
X245187030Y-97988866D02*
X245234649Y-97941247D01*
X245234649Y-97941247D02*
X245329887Y-97893628D01*
X245329887Y-97893628D02*
X245520363Y-97846009D01*
X245520363Y-97846009D02*
X245615601Y-97798390D01*
X245615601Y-97798390D02*
X245663220Y-97750771D01*
X245663220Y-97750771D02*
X245710839Y-97655533D01*
X245710839Y-97655533D02*
X245710839Y-97560295D01*
X245710839Y-97560295D02*
X245663220Y-97465057D01*
X245663220Y-97465057D02*
X245615601Y-97417438D01*
X245615601Y-97417438D02*
X245520363Y-97369819D01*
X245520363Y-97369819D02*
X245282268Y-97369819D01*
X245282268Y-97369819D02*
X245139411Y-97417438D01*
X244710839Y-98369819D02*
X244710839Y-97369819D01*
X244710839Y-97369819D02*
X244472744Y-97369819D01*
X244472744Y-97369819D02*
X244329887Y-97417438D01*
X244329887Y-97417438D02*
X244234649Y-97512676D01*
X244234649Y-97512676D02*
X244187030Y-97607914D01*
X244187030Y-97607914D02*
X244139411Y-97798390D01*
X244139411Y-97798390D02*
X244139411Y-97941247D01*
X244139411Y-97941247D02*
X244187030Y-98131723D01*
X244187030Y-98131723D02*
X244234649Y-98226961D01*
X244234649Y-98226961D02*
X244329887Y-98322200D01*
X244329887Y-98322200D02*
X244472744Y-98369819D01*
X244472744Y-98369819D02*
X244710839Y-98369819D01*
X243758458Y-98084104D02*
X243282268Y-98084104D01*
X243853696Y-98369819D02*
X243520363Y-97369819D01*
X243520363Y-97369819D02*
X243187030Y-98369819D01*
%LPC*%
D12*
X179000000Y-99000000D03*
D13*
X179000000Y-99000000D03*
D12*
X137000000Y-99000000D03*
D13*
X137000000Y-99000000D03*
D12*
X172000000Y-87000000D03*
D13*
X172000000Y-87000000D03*
D12*
X165000000Y-99000000D03*
D13*
X165000000Y-99000000D03*
D12*
X186000000Y-87000000D03*
D13*
X186000000Y-87000000D03*
D12*
X95000000Y-99000000D03*
D13*
X95000000Y-99000000D03*
D12*
X193000000Y-99000000D03*
D13*
X193000000Y-99000000D03*
D12*
X60000000Y-87000000D03*
D13*
X60000000Y-87000000D03*
D14*
X239000000Y-100000000D03*
D15*
X236460000Y-100000000D03*
X239000000Y-97460000D03*
X236460000Y-97460000D03*
X239000000Y-94920000D03*
X236460000Y-94920000D03*
X239000000Y-92380000D03*
X236460000Y-92380000D03*
X239000000Y-89840000D03*
X236460000Y-89840000D03*
D12*
X88000000Y-87000000D03*
D13*
X88000000Y-87000000D03*
D12*
X109000000Y-99000000D03*
D13*
X109000000Y-99000000D03*
D12*
X200000000Y-87000000D03*
D13*
X200000000Y-87000000D03*
D16*
X245000000Y-80000000D03*
D12*
X130000000Y-87000000D03*
D13*
X130000000Y-87000000D03*
D12*
X144000000Y-87000000D03*
D13*
X144000000Y-87000000D03*
D15*
X228390000Y-100850000D03*
X228390000Y-98310000D03*
X228390000Y-95770000D03*
X228390000Y-93230000D03*
X228390000Y-90690000D03*
X228390000Y-88150000D03*
X210610000Y-80530000D03*
X210610000Y-83070000D03*
X210610000Y-85610000D03*
X210610000Y-88150000D03*
X210610000Y-90690000D03*
X210610000Y-93230000D03*
X210610000Y-95770000D03*
X210610000Y-98310000D03*
X210610000Y-100850000D03*
X210610000Y-103390000D03*
X210610000Y-105930000D03*
X210610000Y-108470000D03*
D12*
X81000000Y-99000000D03*
D13*
X81000000Y-99000000D03*
D12*
X102000000Y-87000000D03*
D13*
X102000000Y-87000000D03*
D12*
X158000000Y-87000000D03*
D13*
X158000000Y-87000000D03*
D12*
X116000000Y-87000000D03*
D13*
X116000000Y-87000000D03*
D17*
X88000000Y-105500000D03*
D12*
X74000000Y-87000000D03*
D13*
X74000000Y-87000000D03*
D12*
X123000000Y-99000000D03*
D13*
X123000000Y-99000000D03*
D16*
X245000000Y-110000000D03*
D12*
X151000000Y-99000000D03*
D13*
X151000000Y-99000000D03*
D17*
X115500000Y-105500000D03*
D12*
X67000000Y-99000000D03*
D13*
X67000000Y-99000000D03*
%LPD*%
M02*
