G04 #@! TF.GenerationSoftware,KiCad,Pcbnew,8.0.7*
G04 #@! TF.CreationDate,2025-06-18T23:22:59-07:00*
G04 #@! TF.ProjectId,ESP32_MIDI_Summer25_FRETSkicad_pro.kicad_sch,45535033-325f-44d4-9944-495f53756d6d,rev?*
G04 #@! TF.SameCoordinates,Original*
G04 #@! TF.FileFunction,Copper,L2,Bot*
G04 #@! TF.FilePolarity,Positive*
%FSLAX46Y46*%
G04 Gerber Fmt 4.6, Leading zero omitted, Abs format (unit mm)*
G04 Created by KiCad (PCBNEW 8.0.7) date 2025-06-18 23:22:59*
%MOMM*%
%LPD*%
G01*
G04 APERTURE LIST*
G04 Aperture macros list*
%AMRoundRect*
0 Rectangle with rounded corners*
0 $1 Rounding radius*
0 $2 $3 $4 $5 $6 $7 $8 $9 X,Y pos of 4 corners*
0 Add a 4 corners polygon primitive as box body*
4,1,4,$2,$3,$4,$5,$6,$7,$8,$9,$2,$3,0*
0 Add four circle primitives for the rounded corners*
1,1,$1+$1,$2,$3*
1,1,$1+$1,$4,$5*
1,1,$1+$1,$6,$7*
1,1,$1+$1,$8,$9*
0 Add four rect primitives between the rounded corners*
20,1,$1+$1,$2,$3,$4,$5,0*
20,1,$1+$1,$4,$5,$6,$7,0*
20,1,$1+$1,$6,$7,$8,$9,0*
20,1,$1+$1,$8,$9,$2,$3,0*%
G04 Aperture macros list end*
G04 #@! TA.AperFunction,ComponentPad*
%ADD10C,6.800000*%
G04 #@! TD*
G04 #@! TA.AperFunction,ComponentPad*
%ADD11RoundRect,0.250000X0.600000X0.600000X-0.600000X0.600000X-0.600000X-0.600000X0.600000X-0.600000X0*%
G04 #@! TD*
G04 #@! TA.AperFunction,ComponentPad*
%ADD12C,1.700000*%
G04 #@! TD*
G04 #@! TA.AperFunction,ViaPad*
%ADD13C,0.800000*%
G04 #@! TD*
G04 #@! TA.AperFunction,Conductor*
%ADD14C,0.250000*%
G04 #@! TD*
G04 APERTURE END LIST*
D10*
X179000000Y-99000000D03*
X137000000Y-99000000D03*
X172000000Y-87000000D03*
X165000000Y-99000000D03*
X186000000Y-87000000D03*
X95000000Y-99000000D03*
X193000000Y-99000000D03*
X60000000Y-87000000D03*
D11*
X239000000Y-100000000D03*
D12*
X236460000Y-100000000D03*
X239000000Y-97460000D03*
X236460000Y-97460000D03*
X239000000Y-94920000D03*
X236460000Y-94920000D03*
X239000000Y-92380000D03*
X236460000Y-92380000D03*
X239000000Y-89840000D03*
X236460000Y-89840000D03*
D10*
X88000000Y-87000000D03*
X109000000Y-99000000D03*
X200000000Y-87000000D03*
X130000000Y-87000000D03*
X144000000Y-87000000D03*
D12*
X228390000Y-100850000D03*
X228390000Y-98310000D03*
X228390000Y-95770000D03*
X228390000Y-93230000D03*
X228390000Y-90690000D03*
X228390000Y-88150000D03*
X210610000Y-80530000D03*
X210610000Y-83070000D03*
X210610000Y-85610000D03*
X210610000Y-88150000D03*
X210610000Y-90690000D03*
X210610000Y-93230000D03*
X210610000Y-95770000D03*
X210610000Y-98310000D03*
X210610000Y-100850000D03*
X210610000Y-103390000D03*
X210610000Y-105930000D03*
X210610000Y-108470000D03*
D10*
X81000000Y-99000000D03*
X102000000Y-87000000D03*
X158000000Y-87000000D03*
X116000000Y-87000000D03*
X74000000Y-87000000D03*
X123000000Y-99000000D03*
X151000000Y-99000000D03*
X67000000Y-99000000D03*
D13*
X218000000Y-105500000D03*
D14*
X208000000Y-93160000D02*
X208000000Y-88000000D01*
X206700000Y-86609188D02*
X206700000Y-80200000D01*
X210610000Y-95770000D02*
X208000000Y-93160000D01*
X208000000Y-88000000D02*
X208045406Y-87954594D01*
X208045406Y-87954594D02*
X206700000Y-86609188D01*
X206700000Y-80200000D02*
X206300000Y-79800000D01*
X206300000Y-79800000D02*
X137200000Y-79800000D01*
X137200000Y-79800000D02*
X130000000Y-87000000D01*
X212000000Y-94500000D02*
X210500000Y-93000000D01*
X208000000Y-109500000D02*
X208500000Y-110000000D01*
X213500000Y-110000000D02*
X208222792Y-110000000D01*
X214500000Y-94500000D02*
X212000000Y-94500000D01*
X213500000Y-110000000D02*
X214500000Y-109000000D01*
X208500000Y-110000000D02*
X213500000Y-110000000D01*
X214500000Y-109000000D02*
X214500000Y-94500000D01*
X179000000Y-99000000D02*
X185000000Y-105000000D01*
X202586396Y-105000000D02*
X208086396Y-110500000D01*
X214000000Y-110500000D02*
X215600000Y-108900000D01*
X185000000Y-105000000D02*
X202586396Y-105000000D01*
X208086396Y-110500000D02*
X214000000Y-110500000D01*
X212600000Y-90500000D02*
X210500000Y-90500000D01*
X215600000Y-108900000D02*
X215600000Y-93500000D01*
X215600000Y-93500000D02*
X212600000Y-90500000D01*
X216050000Y-109450000D02*
X216050000Y-90550000D01*
X171068198Y-105068198D02*
X184431802Y-105068198D01*
X184863604Y-105500000D02*
X202450000Y-105500000D01*
X214500000Y-111000000D02*
X216050000Y-109450000D01*
X184431802Y-105068198D02*
X184863604Y-105500000D01*
X202450000Y-105500000D02*
X207950000Y-111000000D01*
X207950000Y-111000000D02*
X214500000Y-111000000D01*
X165000000Y-99000000D02*
X171068198Y-105068198D01*
X207813604Y-78450000D02*
X129500000Y-78450000D01*
X213500000Y-88000000D02*
X210000000Y-88000000D01*
X210000000Y-88000000D02*
X208500000Y-86500000D01*
X216050000Y-90550000D02*
X213500000Y-88000000D01*
X208500000Y-86500000D02*
X208500000Y-85161701D01*
X208500000Y-85161701D02*
X208050000Y-84711701D01*
X208050000Y-84711701D02*
X208050000Y-78686396D01*
X208050000Y-78686396D02*
X207813604Y-78450000D01*
X129500000Y-78450000D02*
X96550000Y-78450000D01*
X96550000Y-78450000D02*
X88000000Y-87000000D01*
X158000000Y-106000000D02*
X202000000Y-106000000D01*
X83550000Y-78000000D02*
X83500000Y-77950000D01*
X214500000Y-85500000D02*
X210500000Y-85500000D01*
X83050000Y-77950000D02*
X74000000Y-87000000D01*
X207500000Y-111500000D02*
X215000000Y-111500000D01*
X202000000Y-106000000D02*
X207500000Y-111500000D01*
X151000000Y-99000000D02*
X158000000Y-106000000D01*
X215000000Y-111500000D02*
X216500000Y-110000000D01*
X216500000Y-110000000D02*
X216500000Y-87500000D01*
X216500000Y-87500000D02*
X214500000Y-85500000D01*
X210500000Y-85500000D02*
X208500000Y-83500000D01*
X208500000Y-78500000D02*
X208000000Y-78000000D01*
X208500000Y-83500000D02*
X208500000Y-78500000D01*
X208000000Y-78000000D02*
X83550000Y-78000000D01*
X83500000Y-77950000D02*
X83050000Y-77950000D01*
X144500000Y-106500000D02*
X201500000Y-106500000D01*
X201500000Y-106500000D02*
X207000000Y-112000000D01*
X216863604Y-112000000D02*
X217000000Y-111863604D01*
X207000000Y-112000000D02*
X216863604Y-112000000D01*
X137000000Y-99000000D02*
X144500000Y-106500000D01*
X217000000Y-111863604D02*
X217000000Y-85500000D01*
X217000000Y-85500000D02*
X214000000Y-82500000D01*
X184450000Y-106950000D02*
X199950000Y-106950000D01*
X217000000Y-112500000D02*
X218000000Y-111500000D01*
X199950000Y-106950000D02*
X205500000Y-112500000D01*
X205500000Y-112500000D02*
X217000000Y-112500000D01*
X218000000Y-111500000D02*
X218000000Y-105500000D01*
X202000000Y-103500000D02*
X208000000Y-109500000D01*
X199500000Y-103500000D02*
X202000000Y-103500000D01*
X166050000Y-92950000D02*
X172000000Y-87000000D01*
X115050000Y-92950000D02*
X166050000Y-92950000D01*
X109000000Y-99000000D02*
X115050000Y-92950000D01*
X152000000Y-92500000D02*
X158000000Y-86500000D01*
X102500000Y-92500000D02*
X152000000Y-92500000D01*
X95000000Y-99000000D02*
X101500000Y-92500000D01*
X101500000Y-92500000D02*
X102500000Y-92500000D01*
X139050000Y-91950000D02*
X144000000Y-87000000D01*
X81000000Y-99000000D02*
X81000000Y-96000000D01*
X81000000Y-96000000D02*
X85050000Y-91950000D01*
X86000000Y-91950000D02*
X139050000Y-91950000D01*
X85050000Y-91950000D02*
X86000000Y-91950000D01*
X67000000Y-99000000D02*
X74500000Y-91500000D01*
X74500000Y-91500000D02*
X127000000Y-91500000D01*
X130000000Y-88500000D02*
X130500000Y-88500000D01*
X127000000Y-91500000D02*
X130000000Y-88500000D01*
X205600000Y-103600000D02*
X210500000Y-108500000D01*
X205600000Y-95000000D02*
X205600000Y-103600000D01*
X204500000Y-92000000D02*
X205600000Y-93100000D01*
X205600000Y-93100000D02*
X205600000Y-95000000D01*
X206050000Y-101550000D02*
X210500000Y-106000000D01*
X204863604Y-91500000D02*
X206050000Y-92686396D01*
X206050000Y-92686396D02*
X206050000Y-101550000D01*
X204000000Y-91500000D02*
X204863604Y-91500000D01*
X206500000Y-99000000D02*
X210500000Y-103000000D01*
X206500000Y-92500000D02*
X206500000Y-99000000D01*
X204000000Y-91000000D02*
X205000000Y-91000000D01*
X205000000Y-91000000D02*
X206500000Y-92500000D01*
X207100000Y-97100000D02*
X211000000Y-101000000D01*
X207100000Y-89000000D02*
X207100000Y-97100000D01*
X202800000Y-80700000D02*
X205063604Y-80700000D01*
X205800000Y-81436396D02*
X205800000Y-87700000D01*
X205063604Y-80700000D02*
X205681802Y-81318198D01*
X205681802Y-81318198D02*
X205800000Y-81436396D01*
X205800000Y-87700000D02*
X207100000Y-89000000D01*
X206250000Y-85500000D02*
X206250000Y-86795584D01*
X205250000Y-80250000D02*
X206000000Y-81000000D01*
X207550000Y-95050000D02*
X210500000Y-98000000D01*
X206000000Y-81000000D02*
X206250000Y-81250000D01*
X206250000Y-86795584D02*
X206513604Y-87059188D01*
X207550000Y-90000000D02*
X207550000Y-95050000D01*
X195500000Y-80250000D02*
X205250000Y-80250000D01*
X206250000Y-81250000D02*
X206250000Y-85500000D01*
X206513604Y-87059188D02*
X207550000Y-88095584D01*
X207550000Y-88095584D02*
X207550000Y-90000000D01*
X210000000Y-93000000D02*
X211000000Y-93000000D01*
X209000000Y-92000000D02*
X210000000Y-93000000D01*
X207413604Y-86686396D02*
X208613604Y-87886396D01*
X208731802Y-91731802D02*
X209000000Y-92000000D01*
X207000000Y-79350000D02*
X207150000Y-79500000D01*
X207150000Y-80000000D02*
X207150000Y-86422792D01*
X207150000Y-86422792D02*
X207413604Y-86686396D01*
X208613604Y-87886396D02*
X208731802Y-88004594D01*
X207150000Y-79500000D02*
X207150000Y-80000000D01*
X199350000Y-79350000D02*
X207000000Y-79350000D01*
X208731802Y-88004594D02*
X208731802Y-91731802D01*
X209181802Y-89681802D02*
X210500000Y-91000000D01*
X195500000Y-78900000D02*
X207000000Y-78900000D01*
X209181802Y-87818198D02*
X209181802Y-89681802D01*
X207000000Y-78900000D02*
X207400000Y-78900000D01*
X207400000Y-78900000D02*
X207600000Y-79100000D01*
X207600000Y-83000000D02*
X207600000Y-86236396D01*
X207600000Y-79100000D02*
X207600000Y-83000000D01*
X207600000Y-86236396D02*
X209181802Y-87818198D01*
X214000000Y-78500000D02*
X214000000Y-82500000D01*
X214000000Y-82500000D02*
X213500000Y-83000000D01*
X199000000Y-77500000D02*
X213000000Y-77500000D01*
X213500000Y-83000000D02*
X210500000Y-83000000D01*
X213000000Y-77500000D02*
X214000000Y-78500000D01*
X200000000Y-87000000D02*
X204000000Y-91000000D01*
X190500000Y-91500000D02*
X204000000Y-91500000D01*
X186000000Y-87000000D02*
X190500000Y-91500000D01*
X178000000Y-92000000D02*
X204500000Y-92000000D01*
X172000000Y-87000000D02*
X177000000Y-92000000D01*
X177000000Y-92000000D02*
X178000000Y-92000000D01*
X164300000Y-80700000D02*
X202800000Y-80700000D01*
X158000000Y-87000000D02*
X164300000Y-80700000D01*
X150750000Y-80250000D02*
X195500000Y-80250000D01*
X144000000Y-87000000D02*
X150750000Y-80250000D01*
X131500000Y-79350000D02*
X199350000Y-79350000D01*
X116000000Y-87000000D02*
X123650000Y-79350000D01*
X123650000Y-79350000D02*
X131500000Y-79350000D01*
X110000000Y-78900000D02*
X195500000Y-78900000D01*
X102000000Y-87000000D02*
X110000000Y-79000000D01*
X110000000Y-79000000D02*
X110000000Y-78900000D01*
X64500000Y-77500000D02*
X199000000Y-77500000D01*
X60000000Y-87000000D02*
X60000000Y-82000000D01*
X60000000Y-82000000D02*
X64500000Y-77500000D01*
X109000000Y-99000000D02*
X111500000Y-99000000D01*
X184450000Y-106950000D02*
X184500000Y-107000000D01*
X146500000Y-106950000D02*
X184450000Y-106950000D01*
X123000000Y-99000000D02*
X130950000Y-106950000D01*
X130950000Y-106950000D02*
X146500000Y-106950000D01*
X197500000Y-103500000D02*
X199500000Y-103500000D01*
X193000000Y-99000000D02*
X197500000Y-103500000D01*
M02*
