G04 #@! TF.GenerationSoftware,KiCad,Pcbnew,8.0.7*
G04 #@! TF.CreationDate,2025-07-25T20:47:48-04:00*
G04 #@! TF.ProjectId,ESP32_MIDI_Summer25_FRETS_v2_5.kicad_pcb,45535033-325f-44d4-9944-495f53756d6d,rev?*
G04 #@! TF.SameCoordinates,Original*
G04 #@! TF.FileFunction,Copper,L1,Top*
G04 #@! TF.FilePolarity,Positive*
%FSLAX46Y46*%
G04 Gerber Fmt 4.6, Leading zero omitted, Abs format (unit mm)*
G04 Created by KiCad (PCBNEW 8.0.7) date 2025-07-25 20:47:48*
%MOMM*%
%LPD*%
G01*
G04 APERTURE LIST*
G04 #@! TA.AperFunction,ComponentPad*
%ADD10C,6.800000*%
G04 #@! TD*
G04 #@! TA.AperFunction,ConnectorPad*
%ADD11C,11.000000*%
G04 #@! TD*
G04 #@! TA.AperFunction,ComponentPad*
%ADD12R,1.700000X1.700000*%
G04 #@! TD*
G04 #@! TA.AperFunction,ComponentPad*
%ADD13O,1.700000X1.700000*%
G04 #@! TD*
G04 #@! TA.AperFunction,ComponentPad*
%ADD14C,1.700000*%
G04 #@! TD*
G04 #@! TA.AperFunction,Conductor*
%ADD15C,0.250000*%
G04 #@! TD*
G04 #@! TA.AperFunction,Conductor*
%ADD16C,0.500000*%
G04 #@! TD*
G04 APERTURE END LIST*
D10*
X207500000Y-55000000D03*
D11*
X207500000Y-55000000D03*
D10*
X221500000Y-45000000D03*
D11*
X221500000Y-45000000D03*
D10*
X95500000Y-55000000D03*
D11*
X95500000Y-55000000D03*
D10*
X123500000Y-55000000D03*
D11*
X123500000Y-55000000D03*
D10*
X235500000Y-55500000D03*
D11*
X235500000Y-55500000D03*
D10*
X165500000Y-45000000D03*
D11*
X165500000Y-45000000D03*
D10*
X179500000Y-55000000D03*
D11*
X179500000Y-55000000D03*
D12*
X281000000Y-45500000D03*
D13*
X281000000Y-48040000D03*
X281000000Y-50580000D03*
X281000000Y-53120000D03*
D14*
X250650000Y-58890000D03*
X253190000Y-58890000D03*
X255730000Y-58890000D03*
X258270000Y-58890000D03*
X260810000Y-58890000D03*
X263350000Y-58890000D03*
X270970000Y-41110000D03*
X268430000Y-41110000D03*
X265890000Y-41110000D03*
X263350000Y-41110000D03*
X260810000Y-41110000D03*
X258270000Y-41110000D03*
X255730000Y-41110000D03*
X253190000Y-41110000D03*
X250650000Y-41110000D03*
X248110000Y-41110000D03*
X245570000Y-41110000D03*
X243030000Y-41110000D03*
D10*
X137500000Y-45000000D03*
D11*
X137500000Y-45000000D03*
D10*
X193500000Y-45000000D03*
D11*
X193500000Y-45000000D03*
D10*
X151500000Y-55000000D03*
D11*
X151500000Y-55000000D03*
D10*
X81500000Y-45000000D03*
D11*
X81500000Y-45000000D03*
D10*
X109500000Y-46000000D03*
D11*
X109500000Y-46000000D03*
D15*
X250650000Y-41110000D02*
X247365000Y-37825000D01*
X156765812Y-37825000D02*
X141540812Y-53050000D01*
X247365000Y-37825000D02*
X156765812Y-37825000D01*
X123863604Y-41727208D02*
X120686396Y-38550000D01*
X141540812Y-53050000D02*
X135050000Y-53050000D01*
X135050000Y-53050000D02*
X123863604Y-41863604D01*
X123863604Y-41863604D02*
X123863604Y-41727208D01*
X120686396Y-38550000D02*
X87450000Y-38550000D01*
X87450000Y-38550000D02*
X81000000Y-45000000D01*
X141727208Y-53500000D02*
X134863604Y-53500000D01*
X123413604Y-42050000D02*
X123413604Y-41913604D01*
X120500000Y-39000000D02*
X100000000Y-39000000D01*
X123413604Y-41913604D02*
X120500000Y-39000000D01*
X134863604Y-53500000D02*
X123413604Y-42050000D01*
X100000000Y-39000000D02*
X95500000Y-43500000D01*
X95500000Y-43500000D02*
X95500000Y-51000000D01*
X95500000Y-51000000D02*
X95000000Y-51500000D01*
X151500000Y-55000000D02*
X168500000Y-55000000D01*
X216500000Y-53000000D02*
X224363604Y-53000000D01*
X176500000Y-47000000D02*
X182500000Y-47000000D01*
X182500000Y-47000000D02*
X190000000Y-54500000D01*
X190000000Y-54500000D02*
X197000000Y-54500000D01*
X230913604Y-46450000D02*
X252550000Y-46450000D01*
X197000000Y-54500000D02*
X205500000Y-46000000D01*
X262500000Y-43500000D02*
X262500000Y-42000000D01*
X205500000Y-46000000D02*
X209500000Y-46000000D01*
X262000000Y-44000000D02*
X262500000Y-43500000D01*
X209500000Y-46000000D02*
X216500000Y-53000000D01*
X224363604Y-53000000D02*
X230913604Y-46450000D01*
X168500000Y-55000000D02*
X176500000Y-47000000D01*
X262500000Y-42000000D02*
X263500000Y-41000000D01*
X252550000Y-46450000D02*
X255000000Y-44000000D01*
X255000000Y-44000000D02*
X262000000Y-44000000D01*
X202250000Y-50250000D02*
X206050000Y-46450000D01*
X206050000Y-46450000D02*
X208950000Y-46450000D01*
X208950000Y-46450000D02*
X216000000Y-53500000D01*
X216000000Y-53500000D02*
X224500000Y-53500000D01*
X224500000Y-53500000D02*
X231000000Y-47000000D01*
X266000000Y-44000000D02*
X266000000Y-41000000D01*
X231000000Y-47000000D02*
X263000000Y-47000000D01*
X263000000Y-47000000D02*
X266000000Y-44000000D01*
X235500000Y-55500000D02*
X245000000Y-55500000D01*
X245000000Y-55500000D02*
X252550000Y-47950000D01*
X267050000Y-47950000D02*
X271000000Y-44000000D01*
X252550000Y-47950000D02*
X267050000Y-47950000D01*
X271000000Y-44000000D02*
X271000000Y-41000000D01*
D16*
X281000000Y-45500000D02*
X277000000Y-45500000D01*
X277000000Y-45500000D02*
X263500000Y-59000000D01*
X281000000Y-48040000D02*
X283000000Y-50040000D01*
X283000000Y-54500000D02*
X282000000Y-55500000D01*
X252300000Y-60800000D02*
X250500000Y-59000000D01*
X254300000Y-60800000D02*
X252300000Y-60800000D01*
X273200000Y-60800000D02*
X254300000Y-60800000D01*
X278500000Y-55500000D02*
X273200000Y-60800000D01*
X282000000Y-55500000D02*
X278500000Y-55500000D01*
X283000000Y-50040000D02*
X283000000Y-54500000D01*
X255500000Y-58500000D02*
X255500000Y-59000000D01*
D15*
X179500000Y-55000000D02*
X197500000Y-55000000D01*
X197500000Y-55000000D02*
X202250000Y-50250000D01*
X202250000Y-50250000D02*
X202500000Y-50000000D01*
X207500000Y-55000000D02*
X224000000Y-55000000D01*
X231500000Y-47500000D02*
X264500000Y-47500000D01*
X224000000Y-55000000D02*
X231500000Y-47500000D01*
X264500000Y-47500000D02*
X266500000Y-45500000D01*
X266500000Y-45500000D02*
X268500000Y-43500000D01*
X268500000Y-43500000D02*
X268500000Y-41000000D01*
X236000000Y-45000000D02*
X249000000Y-45000000D01*
X249000000Y-45000000D02*
X253000000Y-41000000D01*
X221500000Y-45000000D02*
X236000000Y-45000000D01*
X145125000Y-37375000D02*
X258375000Y-37375000D01*
X258375000Y-37375000D02*
X259500000Y-38500000D01*
X258375000Y-37375000D02*
X261000000Y-40000000D01*
X137500000Y-45000000D02*
X145125000Y-37375000D01*
X261000000Y-40000000D02*
X261000000Y-41000000D01*
X154727208Y-40500000D02*
X142863604Y-52363604D01*
X248110000Y-41110000D02*
X245275000Y-38275000D01*
X142863604Y-52363604D02*
X141727208Y-53500000D01*
X156952208Y-38275000D02*
X154727208Y-40500000D01*
X245275000Y-38275000D02*
X156952208Y-38275000D01*
M02*
