G04 #@! TF.GenerationSoftware,KiCad,Pcbnew,8.0.7*
G04 #@! TF.CreationDate,2025-07-25T20:47:48-04:00*
G04 #@! TF.ProjectId,ESP32_MIDI_Summer25_FRETS_v2_5.kicad_pcb,45535033-325f-44d4-9944-495f53756d6d,rev?*
G04 #@! TF.SameCoordinates,Original*
G04 #@! TF.FileFunction,Legend,Top*
G04 #@! TF.FilePolarity,Positive*
%FSLAX46Y46*%
G04 Gerber Fmt 4.6, Leading zero omitted, Abs format (unit mm)*
G04 Created by KiCad (PCBNEW 8.0.7) date 2025-07-25 20:47:48*
%MOMM*%
%LPD*%
G01*
G04 APERTURE LIST*
%ADD10C,0.150000*%
%ADD11C,0.120000*%
%ADD12C,6.800000*%
%ADD13C,11.000000*%
%ADD14C,3.200000*%
%ADD15R,1.700000X1.700000*%
%ADD16O,1.700000X1.700000*%
%ADD17C,1.700000*%
%ADD18C,4.300000*%
G04 APERTURE END LIST*
D10*
X265532380Y-57309726D02*
X265532380Y-58337821D01*
X265532380Y-58337821D02*
X265592857Y-58458773D01*
X265592857Y-58458773D02*
X265653333Y-58519250D01*
X265653333Y-58519250D02*
X265774285Y-58579726D01*
X265774285Y-58579726D02*
X266016190Y-58579726D01*
X266016190Y-58579726D02*
X266137142Y-58519250D01*
X266137142Y-58519250D02*
X266197619Y-58458773D01*
X266197619Y-58458773D02*
X266258095Y-58337821D01*
X266258095Y-58337821D02*
X266258095Y-57309726D01*
X267528095Y-58579726D02*
X266802380Y-58579726D01*
X267165237Y-58579726D02*
X267165237Y-57309726D01*
X267165237Y-57309726D02*
X267044285Y-57491154D01*
X267044285Y-57491154D02*
X266923333Y-57612107D01*
X266923333Y-57612107D02*
X266802380Y-57672583D01*
D11*
X279730000Y-44230000D02*
X281000000Y-44230000D01*
X279730000Y-45500000D02*
X279730000Y-44230000D01*
X282042929Y-47660000D02*
X282440000Y-47660000D01*
X282042929Y-48420000D02*
X282440000Y-48420000D01*
X282042929Y-50200000D02*
X282440000Y-50200000D01*
X282042929Y-50960000D02*
X282440000Y-50960000D01*
X282042929Y-52740000D02*
X282440000Y-52740000D01*
X282042929Y-53500000D02*
X282440000Y-53500000D01*
X282110000Y-45120000D02*
X282440000Y-45120000D01*
X282110000Y-45880000D02*
X282440000Y-45880000D01*
X282440000Y-44170000D02*
X282440000Y-54450000D01*
X282440000Y-46770000D02*
X285100000Y-46770000D01*
X282440000Y-49310000D02*
X285100000Y-49310000D01*
X282440000Y-51850000D02*
X285100000Y-51850000D01*
X282440000Y-54450000D02*
X285100000Y-54450000D01*
X285100000Y-44170000D02*
X282440000Y-44170000D01*
X285100000Y-45120000D02*
X291100000Y-45120000D01*
X285100000Y-45180000D02*
X291100000Y-45180000D01*
X285100000Y-45300000D02*
X291100000Y-45300000D01*
X285100000Y-45420000D02*
X291100000Y-45420000D01*
X285100000Y-45540000D02*
X291100000Y-45540000D01*
X285100000Y-45660000D02*
X291100000Y-45660000D01*
X285100000Y-45780000D02*
X291100000Y-45780000D01*
X285100000Y-47660000D02*
X291100000Y-47660000D01*
X285100000Y-50200000D02*
X291100000Y-50200000D01*
X285100000Y-52740000D02*
X291100000Y-52740000D01*
X285100000Y-54450000D02*
X285100000Y-44170000D01*
X291100000Y-45120000D02*
X291100000Y-45880000D01*
X291100000Y-45880000D02*
X285100000Y-45880000D01*
X291100000Y-47660000D02*
X291100000Y-48420000D01*
X291100000Y-48420000D02*
X285100000Y-48420000D01*
X291100000Y-50200000D02*
X291100000Y-50960000D01*
X291100000Y-50960000D02*
X285100000Y-50960000D01*
X291100000Y-52740000D02*
X291100000Y-53500000D01*
X291100000Y-53500000D02*
X285100000Y-53500000D01*
X242000000Y-60000000D02*
X242000000Y-40000000D01*
X272000000Y-40000000D02*
X242000000Y-40000000D01*
X272000000Y-60000000D02*
X242000000Y-60000000D01*
X272000000Y-60000000D02*
X272000000Y-40000000D01*
%LPC*%
D12*
X207500000Y-55000000D03*
D13*
X207500000Y-55000000D03*
D12*
X221500000Y-45000000D03*
D13*
X221500000Y-45000000D03*
D12*
X95500000Y-55000000D03*
D13*
X95500000Y-55000000D03*
D12*
X123500000Y-55000000D03*
D13*
X123500000Y-55000000D03*
D12*
X235500000Y-55500000D03*
D13*
X235500000Y-55500000D03*
D14*
X281000000Y-40000000D03*
D12*
X165500000Y-45000000D03*
D13*
X165500000Y-45000000D03*
D12*
X179500000Y-55000000D03*
D13*
X179500000Y-55000000D03*
D15*
X281000000Y-45500000D03*
D16*
X281000000Y-48040000D03*
X281000000Y-50580000D03*
X281000000Y-53120000D03*
D17*
X250650000Y-58890000D03*
X253190000Y-58890000D03*
X255730000Y-58890000D03*
X258270000Y-58890000D03*
X260810000Y-58890000D03*
X263350000Y-58890000D03*
X270970000Y-41110000D03*
X268430000Y-41110000D03*
X265890000Y-41110000D03*
X263350000Y-41110000D03*
X260810000Y-41110000D03*
X258270000Y-41110000D03*
X255730000Y-41110000D03*
X253190000Y-41110000D03*
X250650000Y-41110000D03*
X248110000Y-41110000D03*
X245570000Y-41110000D03*
X243030000Y-41110000D03*
D12*
X137500000Y-45000000D03*
D13*
X137500000Y-45000000D03*
D12*
X193500000Y-45000000D03*
D13*
X193500000Y-45000000D03*
D12*
X151500000Y-55000000D03*
D13*
X151500000Y-55000000D03*
D12*
X81500000Y-45000000D03*
D13*
X81500000Y-45000000D03*
D18*
X109000000Y-59000000D03*
D12*
X109500000Y-46000000D03*
D13*
X109500000Y-46000000D03*
D14*
X281000000Y-59000000D03*
D18*
X150500000Y-40000000D03*
%LPD*%
M02*
