G04 #@! TF.GenerationSoftware,KiCad,Pcbnew,8.0.7*
G04 #@! TF.CreationDate,2025-06-17T21:45:10-04:00*
G04 #@! TF.ProjectId,ESP32_MIDI_Summer25_GTR.kicad_pro,45535033-325f-44d4-9944-495f53756d6d,rev?*
G04 #@! TF.SameCoordinates,Original*
G04 #@! TF.FileFunction,Legend,Bot*
G04 #@! TF.FilePolarity,Positive*
%FSLAX46Y46*%
G04 Gerber Fmt 4.6, Leading zero omitted, Abs format (unit mm)*
G04 Created by KiCad (PCBNEW 8.0.7) date 2025-06-17 21:45:10*
%MOMM*%
%LPD*%
G01*
G04 APERTURE LIST*
G04 Aperture macros list*
%AMRoundRect*
0 Rectangle with rounded corners*
0 $1 Rounding radius*
0 $2 $3 $4 $5 $6 $7 $8 $9 X,Y pos of 4 corners*
0 Add a 4 corners polygon primitive as box body*
4,1,4,$2,$3,$4,$5,$6,$7,$8,$9,$2,$3,0*
0 Add four circle primitives for the rounded corners*
1,1,$1+$1,$2,$3*
1,1,$1+$1,$4,$5*
1,1,$1+$1,$6,$7*
1,1,$1+$1,$8,$9*
0 Add four rect primitives between the rounded corners*
20,1,$1+$1,$2,$3,$4,$5,0*
20,1,$1+$1,$4,$5,$6,$7,0*
20,1,$1+$1,$6,$7,$8,$9,0*
20,1,$1+$1,$8,$9,$2,$3,0*%
%AMFreePoly0*
4,1,11,0.558779,3.080902,0.595106,3.030902,0.600000,3.000000,0.600000,-1.000000,-0.600000,-1.000000,-0.600000,3.000000,-0.580902,3.058779,-0.530902,3.095106,-0.500000,3.100000,0.500000,3.100000,0.558779,3.080902,0.558779,3.080902,$1*%
G04 Aperture macros list end*
%ADD10C,0.200000*%
%ADD11C,0.150000*%
%ADD12C,0.300000*%
%ADD13C,0.120000*%
%ADD14C,3.200000*%
%ADD15C,4.300000*%
%ADD16R,1.800000X1.800000*%
%ADD17C,1.800000*%
%ADD18RoundRect,0.750000X0.750000X-1.250000X0.750000X1.250000X-0.750000X1.250000X-0.750000X-1.250000X0*%
%ADD19O,1.300000X1.050000*%
%ADD20RoundRect,0.249900X0.400100X-0.275100X0.400100X0.275100X-0.400100X0.275100X-0.400100X-0.275100X0*%
%ADD21RoundRect,0.249900X-0.400100X0.275100X-0.400100X-0.275100X0.400100X-0.275100X0.400100X0.275100X0*%
%ADD22C,11.000000*%
%ADD23C,6.800000*%
%ADD24C,1.600000*%
%ADD25C,1.400000*%
%ADD26O,1.400000X1.400000*%
%ADD27FreePoly0,270.000000*%
%ADD28FreePoly0,90.000000*%
%ADD29RoundRect,0.250000X0.600000X-0.600000X0.600000X0.600000X-0.600000X0.600000X-0.600000X-0.600000X0*%
%ADD30C,1.700000*%
G04 APERTURE END LIST*
D10*
X60500000Y-110460000D02*
X62897000Y-110460000D01*
X62897000Y-113000000D01*
X60500000Y-113000000D01*
X60500000Y-110460000D01*
G36*
X60500000Y-110460000D02*
G01*
X62897000Y-110460000D01*
X62897000Y-113000000D01*
X60500000Y-113000000D01*
X60500000Y-110460000D01*
G37*
X213103000Y-85460000D02*
X215897000Y-85460000D01*
X215897000Y-87500000D01*
X213103000Y-87500000D01*
X213103000Y-85460000D01*
G36*
X213103000Y-85460000D02*
G01*
X215897000Y-85460000D01*
X215897000Y-87500000D01*
X213103000Y-87500000D01*
X213103000Y-85460000D01*
G37*
X90000000Y-99980000D02*
X92794000Y-99980000D01*
X92794000Y-103020000D01*
X90000000Y-103020000D01*
X90000000Y-99980000D01*
G36*
X90000000Y-99980000D02*
G01*
X92794000Y-99980000D01*
X92794000Y-103020000D01*
X90000000Y-103020000D01*
X90000000Y-99980000D01*
G37*
X97000000Y-93480000D02*
X99294000Y-93480000D01*
X99294000Y-94520000D01*
X97000000Y-94520000D01*
X97000000Y-93480000D01*
G36*
X97000000Y-93480000D02*
G01*
X99294000Y-93480000D01*
X99294000Y-94520000D01*
X97000000Y-94520000D01*
X97000000Y-93480000D01*
G37*
X163000000Y-103730000D02*
X165397000Y-103730000D01*
X165397000Y-108770000D01*
X163000000Y-108770000D01*
X163000000Y-103730000D01*
G36*
X163000000Y-103730000D02*
G01*
X165397000Y-103730000D01*
X165397000Y-108770000D01*
X163000000Y-108770000D01*
X163000000Y-103730000D01*
G37*
X206853000Y-81500000D02*
X209147000Y-81500000D01*
X209147000Y-82540000D01*
X206853000Y-82540000D01*
X206853000Y-81500000D01*
G36*
X206853000Y-81500000D02*
G01*
X209147000Y-81500000D01*
X209147000Y-82540000D01*
X206853000Y-82540000D01*
X206853000Y-81500000D01*
G37*
X60500000Y-88730000D02*
X62897000Y-88730000D01*
X62897000Y-91270000D01*
X60500000Y-91270000D01*
X60500000Y-88730000D01*
G36*
X60500000Y-88730000D02*
G01*
X62897000Y-88730000D01*
X62897000Y-91270000D01*
X60500000Y-91270000D01*
X60500000Y-88730000D01*
G37*
D11*
X165869819Y-98741541D02*
X165869819Y-99360588D01*
X165869819Y-99360588D02*
X166250771Y-99027255D01*
X166250771Y-99027255D02*
X166250771Y-99170112D01*
X166250771Y-99170112D02*
X166298390Y-99265350D01*
X166298390Y-99265350D02*
X166346009Y-99312969D01*
X166346009Y-99312969D02*
X166441247Y-99360588D01*
X166441247Y-99360588D02*
X166679342Y-99360588D01*
X166679342Y-99360588D02*
X166774580Y-99312969D01*
X166774580Y-99312969D02*
X166822200Y-99265350D01*
X166822200Y-99265350D02*
X166869819Y-99170112D01*
X166869819Y-99170112D02*
X166869819Y-98884398D01*
X166869819Y-98884398D02*
X166822200Y-98789160D01*
X166822200Y-98789160D02*
X166774580Y-98741541D01*
X166203152Y-99693922D02*
X166869819Y-99932017D01*
X166869819Y-99932017D02*
X166203152Y-100170112D01*
X165869819Y-100455827D02*
X165869819Y-101074874D01*
X165869819Y-101074874D02*
X166250771Y-100741541D01*
X166250771Y-100741541D02*
X166250771Y-100884398D01*
X166250771Y-100884398D02*
X166298390Y-100979636D01*
X166298390Y-100979636D02*
X166346009Y-101027255D01*
X166346009Y-101027255D02*
X166441247Y-101074874D01*
X166441247Y-101074874D02*
X166679342Y-101074874D01*
X166679342Y-101074874D02*
X166774580Y-101027255D01*
X166774580Y-101027255D02*
X166822200Y-100979636D01*
X166822200Y-100979636D02*
X166869819Y-100884398D01*
X166869819Y-100884398D02*
X166869819Y-100598684D01*
X166869819Y-100598684D02*
X166822200Y-100503446D01*
X166822200Y-100503446D02*
X166774580Y-100455827D01*
X128178839Y-83117057D02*
X128131220Y-83069438D01*
X128131220Y-83069438D02*
X128035982Y-83021819D01*
X128035982Y-83021819D02*
X127797887Y-83021819D01*
X127797887Y-83021819D02*
X127702649Y-83069438D01*
X127702649Y-83069438D02*
X127655030Y-83117057D01*
X127655030Y-83117057D02*
X127607411Y-83212295D01*
X127607411Y-83212295D02*
X127607411Y-83307533D01*
X127607411Y-83307533D02*
X127655030Y-83450390D01*
X127655030Y-83450390D02*
X128226458Y-84021819D01*
X128226458Y-84021819D02*
X127607411Y-84021819D01*
D12*
X198326441Y-83739638D02*
X198326441Y-81739638D01*
X196516917Y-83739638D02*
X196516917Y-82692019D01*
X196516917Y-82692019D02*
X196612155Y-82501542D01*
X196612155Y-82501542D02*
X196802631Y-82406304D01*
X196802631Y-82406304D02*
X197183584Y-82406304D01*
X197183584Y-82406304D02*
X197374060Y-82501542D01*
X196516917Y-83644400D02*
X196707393Y-83739638D01*
X196707393Y-83739638D02*
X197183584Y-83739638D01*
X197183584Y-83739638D02*
X197374060Y-83644400D01*
X197374060Y-83644400D02*
X197469298Y-83453923D01*
X197469298Y-83453923D02*
X197469298Y-83263447D01*
X197469298Y-83263447D02*
X197374060Y-83072971D01*
X197374060Y-83072971D02*
X197183584Y-82977733D01*
X197183584Y-82977733D02*
X196707393Y-82977733D01*
X196707393Y-82977733D02*
X196516917Y-82882495D01*
X195564536Y-82406304D02*
X195564536Y-83739638D01*
X195564536Y-82596780D02*
X195469298Y-82501542D01*
X195469298Y-82501542D02*
X195278822Y-82406304D01*
X195278822Y-82406304D02*
X194993107Y-82406304D01*
X194993107Y-82406304D02*
X194802631Y-82501542D01*
X194802631Y-82501542D02*
X194707393Y-82692019D01*
X194707393Y-82692019D02*
X194707393Y-83739638D01*
X192231202Y-83739638D02*
X192231202Y-81739638D01*
X192231202Y-82692019D02*
X191088345Y-82692019D01*
X191088345Y-83739638D02*
X191088345Y-81739638D01*
X189278821Y-83739638D02*
X189278821Y-82692019D01*
X189278821Y-82692019D02*
X189374059Y-82501542D01*
X189374059Y-82501542D02*
X189564535Y-82406304D01*
X189564535Y-82406304D02*
X189945488Y-82406304D01*
X189945488Y-82406304D02*
X190135964Y-82501542D01*
X189278821Y-83644400D02*
X189469297Y-83739638D01*
X189469297Y-83739638D02*
X189945488Y-83739638D01*
X189945488Y-83739638D02*
X190135964Y-83644400D01*
X190135964Y-83644400D02*
X190231202Y-83453923D01*
X190231202Y-83453923D02*
X190231202Y-83263447D01*
X190231202Y-83263447D02*
X190135964Y-83072971D01*
X190135964Y-83072971D02*
X189945488Y-82977733D01*
X189945488Y-82977733D02*
X189469297Y-82977733D01*
X189469297Y-82977733D02*
X189278821Y-82882495D01*
X188612154Y-82406304D02*
X187850250Y-82406304D01*
X188326440Y-81739638D02*
X188326440Y-83453923D01*
X188326440Y-83453923D02*
X188231202Y-83644400D01*
X188231202Y-83644400D02*
X188040726Y-83739638D01*
X188040726Y-83739638D02*
X187850250Y-83739638D01*
X187469297Y-82406304D02*
X186707393Y-82406304D01*
X187183583Y-81739638D02*
X187183583Y-83453923D01*
X187183583Y-83453923D02*
X187088345Y-83644400D01*
X187088345Y-83644400D02*
X186897869Y-83739638D01*
X186897869Y-83739638D02*
X186707393Y-83739638D01*
X186231202Y-82406304D02*
X185850250Y-83739638D01*
X185850250Y-83739638D02*
X185469297Y-82787257D01*
X185469297Y-82787257D02*
X185088345Y-83739638D01*
X185088345Y-83739638D02*
X184707393Y-82406304D01*
X183945488Y-83739638D02*
X183945488Y-82406304D01*
X183945488Y-81739638D02*
X184040726Y-81834876D01*
X184040726Y-81834876D02*
X183945488Y-81930114D01*
X183945488Y-81930114D02*
X183850250Y-81834876D01*
X183850250Y-81834876D02*
X183945488Y-81739638D01*
X183945488Y-81739638D02*
X183945488Y-81930114D01*
X182135964Y-83644400D02*
X182326440Y-83739638D01*
X182326440Y-83739638D02*
X182707393Y-83739638D01*
X182707393Y-83739638D02*
X182897869Y-83644400D01*
X182897869Y-83644400D02*
X182993107Y-83549161D01*
X182993107Y-83549161D02*
X183088345Y-83358685D01*
X183088345Y-83358685D02*
X183088345Y-82787257D01*
X183088345Y-82787257D02*
X182993107Y-82596780D01*
X182993107Y-82596780D02*
X182897869Y-82501542D01*
X182897869Y-82501542D02*
X182707393Y-82406304D01*
X182707393Y-82406304D02*
X182326440Y-82406304D01*
X182326440Y-82406304D02*
X182135964Y-82501542D01*
X181278821Y-83739638D02*
X181278821Y-81739638D01*
X181088345Y-82977733D02*
X180516916Y-83739638D01*
X180516916Y-82406304D02*
X181278821Y-83168209D01*
X177564534Y-81739638D02*
X177564534Y-83168209D01*
X177564534Y-83168209D02*
X177659773Y-83453923D01*
X177659773Y-83453923D02*
X177850249Y-83644400D01*
X177850249Y-83644400D02*
X178135963Y-83739638D01*
X178135963Y-83739638D02*
X178326439Y-83739638D01*
X175755010Y-82406304D02*
X175755010Y-83739638D01*
X176612153Y-82406304D02*
X176612153Y-83453923D01*
X176612153Y-83453923D02*
X176516915Y-83644400D01*
X176516915Y-83644400D02*
X176326439Y-83739638D01*
X176326439Y-83739638D02*
X176040724Y-83739638D01*
X176040724Y-83739638D02*
X175850248Y-83644400D01*
X175850248Y-83644400D02*
X175755010Y-83549161D01*
X174802629Y-82406304D02*
X174802629Y-83739638D01*
X174802629Y-82596780D02*
X174707391Y-82501542D01*
X174707391Y-82501542D02*
X174516915Y-82406304D01*
X174516915Y-82406304D02*
X174231200Y-82406304D01*
X174231200Y-82406304D02*
X174040724Y-82501542D01*
X174040724Y-82501542D02*
X173945486Y-82692019D01*
X173945486Y-82692019D02*
X173945486Y-83739638D01*
X171374057Y-81739638D02*
X171564533Y-82120590D01*
X170612152Y-81930114D02*
X170516914Y-81834876D01*
X170516914Y-81834876D02*
X170326438Y-81739638D01*
X170326438Y-81739638D02*
X169850247Y-81739638D01*
X169850247Y-81739638D02*
X169659771Y-81834876D01*
X169659771Y-81834876D02*
X169564533Y-81930114D01*
X169564533Y-81930114D02*
X169469295Y-82120590D01*
X169469295Y-82120590D02*
X169469295Y-82311066D01*
X169469295Y-82311066D02*
X169564533Y-82596780D01*
X169564533Y-82596780D02*
X170707390Y-83739638D01*
X170707390Y-83739638D02*
X169469295Y-83739638D01*
X167659771Y-81739638D02*
X168612152Y-81739638D01*
X168612152Y-81739638D02*
X168707390Y-82692019D01*
X168707390Y-82692019D02*
X168612152Y-82596780D01*
X168612152Y-82596780D02*
X168421676Y-82501542D01*
X168421676Y-82501542D02*
X167945485Y-82501542D01*
X167945485Y-82501542D02*
X167755009Y-82596780D01*
X167755009Y-82596780D02*
X167659771Y-82692019D01*
X167659771Y-82692019D02*
X167564533Y-82882495D01*
X167564533Y-82882495D02*
X167564533Y-83358685D01*
X167564533Y-83358685D02*
X167659771Y-83549161D01*
X167659771Y-83549161D02*
X167755009Y-83644400D01*
X167755009Y-83644400D02*
X167945485Y-83739638D01*
X167945485Y-83739638D02*
X168421676Y-83739638D01*
X168421676Y-83739638D02*
X168612152Y-83644400D01*
X168612152Y-83644400D02*
X168707390Y-83549161D01*
D11*
X102710839Y-77322200D02*
X102567982Y-77369819D01*
X102567982Y-77369819D02*
X102329887Y-77369819D01*
X102329887Y-77369819D02*
X102234649Y-77322200D01*
X102234649Y-77322200D02*
X102187030Y-77274580D01*
X102187030Y-77274580D02*
X102139411Y-77179342D01*
X102139411Y-77179342D02*
X102139411Y-77084104D01*
X102139411Y-77084104D02*
X102187030Y-76988866D01*
X102187030Y-76988866D02*
X102234649Y-76941247D01*
X102234649Y-76941247D02*
X102329887Y-76893628D01*
X102329887Y-76893628D02*
X102520363Y-76846009D01*
X102520363Y-76846009D02*
X102615601Y-76798390D01*
X102615601Y-76798390D02*
X102663220Y-76750771D01*
X102663220Y-76750771D02*
X102710839Y-76655533D01*
X102710839Y-76655533D02*
X102710839Y-76560295D01*
X102710839Y-76560295D02*
X102663220Y-76465057D01*
X102663220Y-76465057D02*
X102615601Y-76417438D01*
X102615601Y-76417438D02*
X102520363Y-76369819D01*
X102520363Y-76369819D02*
X102282268Y-76369819D01*
X102282268Y-76369819D02*
X102139411Y-76417438D01*
X101139411Y-77274580D02*
X101187030Y-77322200D01*
X101187030Y-77322200D02*
X101329887Y-77369819D01*
X101329887Y-77369819D02*
X101425125Y-77369819D01*
X101425125Y-77369819D02*
X101567982Y-77322200D01*
X101567982Y-77322200D02*
X101663220Y-77226961D01*
X101663220Y-77226961D02*
X101710839Y-77131723D01*
X101710839Y-77131723D02*
X101758458Y-76941247D01*
X101758458Y-76941247D02*
X101758458Y-76798390D01*
X101758458Y-76798390D02*
X101710839Y-76607914D01*
X101710839Y-76607914D02*
X101663220Y-76512676D01*
X101663220Y-76512676D02*
X101567982Y-76417438D01*
X101567982Y-76417438D02*
X101425125Y-76369819D01*
X101425125Y-76369819D02*
X101329887Y-76369819D01*
X101329887Y-76369819D02*
X101187030Y-76417438D01*
X101187030Y-76417438D02*
X101139411Y-76465057D01*
X100234649Y-77369819D02*
X100710839Y-77369819D01*
X100710839Y-77369819D02*
X100710839Y-76369819D01*
X127702649Y-88435152D02*
X127702649Y-89101819D01*
X127940744Y-88054200D02*
X128178839Y-88768485D01*
X128178839Y-88768485D02*
X127559792Y-88768485D01*
D12*
X197421679Y-88144400D02*
X197135965Y-88239638D01*
X197135965Y-88239638D02*
X196659774Y-88239638D01*
X196659774Y-88239638D02*
X196469298Y-88144400D01*
X196469298Y-88144400D02*
X196374060Y-88049161D01*
X196374060Y-88049161D02*
X196278822Y-87858685D01*
X196278822Y-87858685D02*
X196278822Y-87668209D01*
X196278822Y-87668209D02*
X196374060Y-87477733D01*
X196374060Y-87477733D02*
X196469298Y-87382495D01*
X196469298Y-87382495D02*
X196659774Y-87287257D01*
X196659774Y-87287257D02*
X197040727Y-87192019D01*
X197040727Y-87192019D02*
X197231203Y-87096780D01*
X197231203Y-87096780D02*
X197326441Y-87001542D01*
X197326441Y-87001542D02*
X197421679Y-86811066D01*
X197421679Y-86811066D02*
X197421679Y-86620590D01*
X197421679Y-86620590D02*
X197326441Y-86430114D01*
X197326441Y-86430114D02*
X197231203Y-86334876D01*
X197231203Y-86334876D02*
X197040727Y-86239638D01*
X197040727Y-86239638D02*
X196564536Y-86239638D01*
X196564536Y-86239638D02*
X196278822Y-86334876D01*
X195135965Y-88239638D02*
X195326441Y-88144400D01*
X195326441Y-88144400D02*
X195421679Y-88049161D01*
X195421679Y-88049161D02*
X195516917Y-87858685D01*
X195516917Y-87858685D02*
X195516917Y-87287257D01*
X195516917Y-87287257D02*
X195421679Y-87096780D01*
X195421679Y-87096780D02*
X195326441Y-87001542D01*
X195326441Y-87001542D02*
X195135965Y-86906304D01*
X195135965Y-86906304D02*
X194850250Y-86906304D01*
X194850250Y-86906304D02*
X194659774Y-87001542D01*
X194659774Y-87001542D02*
X194564536Y-87096780D01*
X194564536Y-87096780D02*
X194469298Y-87287257D01*
X194469298Y-87287257D02*
X194469298Y-87858685D01*
X194469298Y-87858685D02*
X194564536Y-88049161D01*
X194564536Y-88049161D02*
X194659774Y-88144400D01*
X194659774Y-88144400D02*
X194850250Y-88239638D01*
X194850250Y-88239638D02*
X195135965Y-88239638D01*
X193612155Y-88239638D02*
X193612155Y-86906304D01*
X193612155Y-87096780D02*
X193516917Y-87001542D01*
X193516917Y-87001542D02*
X193326441Y-86906304D01*
X193326441Y-86906304D02*
X193040726Y-86906304D01*
X193040726Y-86906304D02*
X192850250Y-87001542D01*
X192850250Y-87001542D02*
X192755012Y-87192019D01*
X192755012Y-87192019D02*
X192755012Y-88239638D01*
X192755012Y-87192019D02*
X192659774Y-87001542D01*
X192659774Y-87001542D02*
X192469298Y-86906304D01*
X192469298Y-86906304D02*
X192183584Y-86906304D01*
X192183584Y-86906304D02*
X191993107Y-87001542D01*
X191993107Y-87001542D02*
X191897869Y-87192019D01*
X191897869Y-87192019D02*
X191897869Y-88239638D01*
X190183583Y-88144400D02*
X190374059Y-88239638D01*
X190374059Y-88239638D02*
X190755012Y-88239638D01*
X190755012Y-88239638D02*
X190945488Y-88144400D01*
X190945488Y-88144400D02*
X191040726Y-87953923D01*
X191040726Y-87953923D02*
X191040726Y-87192019D01*
X191040726Y-87192019D02*
X190945488Y-87001542D01*
X190945488Y-87001542D02*
X190755012Y-86906304D01*
X190755012Y-86906304D02*
X190374059Y-86906304D01*
X190374059Y-86906304D02*
X190183583Y-87001542D01*
X190183583Y-87001542D02*
X190088345Y-87192019D01*
X190088345Y-87192019D02*
X190088345Y-87382495D01*
X190088345Y-87382495D02*
X191040726Y-87572971D01*
X189231202Y-88239638D02*
X189231202Y-86906304D01*
X189231202Y-87287257D02*
X189135964Y-87096780D01*
X189135964Y-87096780D02*
X189040726Y-87001542D01*
X189040726Y-87001542D02*
X188850250Y-86906304D01*
X188850250Y-86906304D02*
X188659773Y-86906304D01*
X188183583Y-86906304D02*
X187707393Y-88239638D01*
X187707393Y-88239638D02*
X187231202Y-86906304D01*
X186469297Y-88239638D02*
X186469297Y-86906304D01*
X186469297Y-86239638D02*
X186564535Y-86334876D01*
X186564535Y-86334876D02*
X186469297Y-86430114D01*
X186469297Y-86430114D02*
X186374059Y-86334876D01*
X186374059Y-86334876D02*
X186469297Y-86239638D01*
X186469297Y-86239638D02*
X186469297Y-86430114D01*
X185231202Y-88239638D02*
X185421678Y-88144400D01*
X185421678Y-88144400D02*
X185516916Y-87953923D01*
X185516916Y-87953923D02*
X185516916Y-86239638D01*
X184183583Y-88239638D02*
X184374059Y-88144400D01*
X184374059Y-88144400D02*
X184469297Y-87953923D01*
X184469297Y-87953923D02*
X184469297Y-86239638D01*
X182659773Y-88144400D02*
X182850249Y-88239638D01*
X182850249Y-88239638D02*
X183231202Y-88239638D01*
X183231202Y-88239638D02*
X183421678Y-88144400D01*
X183421678Y-88144400D02*
X183516916Y-87953923D01*
X183516916Y-87953923D02*
X183516916Y-87192019D01*
X183516916Y-87192019D02*
X183421678Y-87001542D01*
X183421678Y-87001542D02*
X183231202Y-86906304D01*
X183231202Y-86906304D02*
X182850249Y-86906304D01*
X182850249Y-86906304D02*
X182659773Y-87001542D01*
X182659773Y-87001542D02*
X182564535Y-87192019D01*
X182564535Y-87192019D02*
X182564535Y-87382495D01*
X182564535Y-87382495D02*
X183516916Y-87572971D01*
X181612154Y-88144400D02*
X181612154Y-88239638D01*
X181612154Y-88239638D02*
X181707392Y-88430114D01*
X181707392Y-88430114D02*
X181802630Y-88525352D01*
X179231201Y-88239638D02*
X179231201Y-86239638D01*
X179231201Y-86239638D02*
X178564534Y-87668209D01*
X178564534Y-87668209D02*
X177897868Y-86239638D01*
X177897868Y-86239638D02*
X177897868Y-88239638D01*
X177040725Y-87668209D02*
X176088344Y-87668209D01*
X177231201Y-88239638D02*
X176564535Y-86239638D01*
X176564535Y-86239638D02*
X175897868Y-88239638D01*
D11*
X174369819Y-99336779D02*
X173369819Y-99336779D01*
X174369819Y-100384397D02*
X173893628Y-100051064D01*
X174369819Y-99812969D02*
X173369819Y-99812969D01*
X173369819Y-99812969D02*
X173369819Y-100193921D01*
X173369819Y-100193921D02*
X173417438Y-100289159D01*
X173417438Y-100289159D02*
X173465057Y-100336778D01*
X173465057Y-100336778D02*
X173560295Y-100384397D01*
X173560295Y-100384397D02*
X173703152Y-100384397D01*
X173703152Y-100384397D02*
X173798390Y-100336778D01*
X173798390Y-100336778D02*
X173846009Y-100289159D01*
X173846009Y-100289159D02*
X173893628Y-100193921D01*
X173893628Y-100193921D02*
X173893628Y-99812969D01*
X174465057Y-101479635D02*
X174417438Y-101384397D01*
X174417438Y-101384397D02*
X174322200Y-101289159D01*
X174322200Y-101289159D02*
X174179342Y-101146302D01*
X174179342Y-101146302D02*
X174131723Y-101051064D01*
X174131723Y-101051064D02*
X174131723Y-100955826D01*
X174369819Y-101003445D02*
X174322200Y-100908207D01*
X174322200Y-100908207D02*
X174226961Y-100812969D01*
X174226961Y-100812969D02*
X174036485Y-100765350D01*
X174036485Y-100765350D02*
X173703152Y-100765350D01*
X173703152Y-100765350D02*
X173512676Y-100812969D01*
X173512676Y-100812969D02*
X173417438Y-100908207D01*
X173417438Y-100908207D02*
X173369819Y-101003445D01*
X173369819Y-101003445D02*
X173369819Y-101193921D01*
X173369819Y-101193921D02*
X173417438Y-101289159D01*
X173417438Y-101289159D02*
X173512676Y-101384397D01*
X173512676Y-101384397D02*
X173703152Y-101432016D01*
X173703152Y-101432016D02*
X174036485Y-101432016D01*
X174036485Y-101432016D02*
X174226961Y-101384397D01*
X174226961Y-101384397D02*
X174322200Y-101289159D01*
X174322200Y-101289159D02*
X174369819Y-101193921D01*
X174369819Y-101193921D02*
X174369819Y-101003445D01*
X128226458Y-85561819D02*
X127607411Y-85561819D01*
X127607411Y-85561819D02*
X127940744Y-85942771D01*
X127940744Y-85942771D02*
X127797887Y-85942771D01*
X127797887Y-85942771D02*
X127702649Y-85990390D01*
X127702649Y-85990390D02*
X127655030Y-86038009D01*
X127655030Y-86038009D02*
X127607411Y-86133247D01*
X127607411Y-86133247D02*
X127607411Y-86371342D01*
X127607411Y-86371342D02*
X127655030Y-86466580D01*
X127655030Y-86466580D02*
X127702649Y-86514200D01*
X127702649Y-86514200D02*
X127797887Y-86561819D01*
X127797887Y-86561819D02*
X128083601Y-86561819D01*
X128083601Y-86561819D02*
X128178839Y-86514200D01*
X128178839Y-86514200D02*
X128226458Y-86466580D01*
X129687030Y-73369819D02*
X130163220Y-73369819D01*
X130163220Y-73369819D02*
X130210839Y-73846009D01*
X130210839Y-73846009D02*
X130163220Y-73798390D01*
X130163220Y-73798390D02*
X130067982Y-73750771D01*
X130067982Y-73750771D02*
X129829887Y-73750771D01*
X129829887Y-73750771D02*
X129734649Y-73798390D01*
X129734649Y-73798390D02*
X129687030Y-73846009D01*
X129687030Y-73846009D02*
X129639411Y-73941247D01*
X129639411Y-73941247D02*
X129639411Y-74179342D01*
X129639411Y-74179342D02*
X129687030Y-74274580D01*
X129687030Y-74274580D02*
X129734649Y-74322200D01*
X129734649Y-74322200D02*
X129829887Y-74369819D01*
X129829887Y-74369819D02*
X130067982Y-74369819D01*
X130067982Y-74369819D02*
X130163220Y-74322200D01*
X130163220Y-74322200D02*
X130210839Y-74274580D01*
X129353696Y-73369819D02*
X129020363Y-74369819D01*
X129020363Y-74369819D02*
X128687030Y-73369819D01*
X102139411Y-82449819D02*
X102710839Y-82449819D01*
X102425125Y-82449819D02*
X102425125Y-81449819D01*
X102425125Y-81449819D02*
X102520363Y-81592676D01*
X102520363Y-81592676D02*
X102615601Y-81687914D01*
X102615601Y-81687914D02*
X102710839Y-81735533D01*
X101758458Y-81545057D02*
X101710839Y-81497438D01*
X101710839Y-81497438D02*
X101615601Y-81449819D01*
X101615601Y-81449819D02*
X101377506Y-81449819D01*
X101377506Y-81449819D02*
X101282268Y-81497438D01*
X101282268Y-81497438D02*
X101234649Y-81545057D01*
X101234649Y-81545057D02*
X101187030Y-81640295D01*
X101187030Y-81640295D02*
X101187030Y-81735533D01*
X101187030Y-81735533D02*
X101234649Y-81878390D01*
X101234649Y-81878390D02*
X101806077Y-82449819D01*
X101806077Y-82449819D02*
X101187030Y-82449819D01*
X102647411Y-84989819D02*
X103218839Y-84989819D01*
X102933125Y-84989819D02*
X102933125Y-83989819D01*
X102933125Y-83989819D02*
X103028363Y-84132676D01*
X103028363Y-84132676D02*
X103123601Y-84227914D01*
X103123601Y-84227914D02*
X103218839Y-84275533D01*
X101695030Y-84989819D02*
X102266458Y-84989819D01*
X101980744Y-84989819D02*
X101980744Y-83989819D01*
X101980744Y-83989819D02*
X102075982Y-84132676D01*
X102075982Y-84132676D02*
X102171220Y-84227914D01*
X102171220Y-84227914D02*
X102266458Y-84275533D01*
X129639411Y-75957438D02*
X129734649Y-75909819D01*
X129734649Y-75909819D02*
X129877506Y-75909819D01*
X129877506Y-75909819D02*
X130020363Y-75957438D01*
X130020363Y-75957438D02*
X130115601Y-76052676D01*
X130115601Y-76052676D02*
X130163220Y-76147914D01*
X130163220Y-76147914D02*
X130210839Y-76338390D01*
X130210839Y-76338390D02*
X130210839Y-76481247D01*
X130210839Y-76481247D02*
X130163220Y-76671723D01*
X130163220Y-76671723D02*
X130115601Y-76766961D01*
X130115601Y-76766961D02*
X130020363Y-76862200D01*
X130020363Y-76862200D02*
X129877506Y-76909819D01*
X129877506Y-76909819D02*
X129782268Y-76909819D01*
X129782268Y-76909819D02*
X129639411Y-76862200D01*
X129639411Y-76862200D02*
X129591792Y-76814580D01*
X129591792Y-76814580D02*
X129591792Y-76481247D01*
X129591792Y-76481247D02*
X129782268Y-76481247D01*
X129163220Y-76909819D02*
X129163220Y-75909819D01*
X129163220Y-75909819D02*
X128591792Y-76909819D01*
X128591792Y-76909819D02*
X128591792Y-75909819D01*
X128115601Y-76909819D02*
X128115601Y-75909819D01*
X128115601Y-75909819D02*
X127877506Y-75909819D01*
X127877506Y-75909819D02*
X127734649Y-75957438D01*
X127734649Y-75957438D02*
X127639411Y-76052676D01*
X127639411Y-76052676D02*
X127591792Y-76147914D01*
X127591792Y-76147914D02*
X127544173Y-76338390D01*
X127544173Y-76338390D02*
X127544173Y-76481247D01*
X127544173Y-76481247D02*
X127591792Y-76671723D01*
X127591792Y-76671723D02*
X127639411Y-76766961D01*
X127639411Y-76766961D02*
X127734649Y-76862200D01*
X127734649Y-76862200D02*
X127877506Y-76909819D01*
X127877506Y-76909819D02*
X128115601Y-76909819D01*
X102139411Y-79909819D02*
X102710839Y-79909819D01*
X102425125Y-79909819D02*
X102425125Y-78909819D01*
X102425125Y-78909819D02*
X102520363Y-79052676D01*
X102520363Y-79052676D02*
X102615601Y-79147914D01*
X102615601Y-79147914D02*
X102710839Y-79195533D01*
X101806077Y-78909819D02*
X101187030Y-78909819D01*
X101187030Y-78909819D02*
X101520363Y-79290771D01*
X101520363Y-79290771D02*
X101377506Y-79290771D01*
X101377506Y-79290771D02*
X101282268Y-79338390D01*
X101282268Y-79338390D02*
X101234649Y-79386009D01*
X101234649Y-79386009D02*
X101187030Y-79481247D01*
X101187030Y-79481247D02*
X101187030Y-79719342D01*
X101187030Y-79719342D02*
X101234649Y-79814580D01*
X101234649Y-79814580D02*
X101282268Y-79862200D01*
X101282268Y-79862200D02*
X101377506Y-79909819D01*
X101377506Y-79909819D02*
X101663220Y-79909819D01*
X101663220Y-79909819D02*
X101758458Y-79862200D01*
X101758458Y-79862200D02*
X101806077Y-79814580D01*
X130258458Y-78449819D02*
X129639411Y-78449819D01*
X129639411Y-78449819D02*
X129972744Y-78830771D01*
X129972744Y-78830771D02*
X129829887Y-78830771D01*
X129829887Y-78830771D02*
X129734649Y-78878390D01*
X129734649Y-78878390D02*
X129687030Y-78926009D01*
X129687030Y-78926009D02*
X129639411Y-79021247D01*
X129639411Y-79021247D02*
X129639411Y-79259342D01*
X129639411Y-79259342D02*
X129687030Y-79354580D01*
X129687030Y-79354580D02*
X129734649Y-79402200D01*
X129734649Y-79402200D02*
X129829887Y-79449819D01*
X129829887Y-79449819D02*
X130115601Y-79449819D01*
X130115601Y-79449819D02*
X130210839Y-79402200D01*
X130210839Y-79402200D02*
X130258458Y-79354580D01*
X129210839Y-79354580D02*
X129163220Y-79402200D01*
X129163220Y-79402200D02*
X129210839Y-79449819D01*
X129210839Y-79449819D02*
X129258458Y-79402200D01*
X129258458Y-79402200D02*
X129210839Y-79354580D01*
X129210839Y-79354580D02*
X129210839Y-79449819D01*
X128829887Y-78449819D02*
X128210840Y-78449819D01*
X128210840Y-78449819D02*
X128544173Y-78830771D01*
X128544173Y-78830771D02*
X128401316Y-78830771D01*
X128401316Y-78830771D02*
X128306078Y-78878390D01*
X128306078Y-78878390D02*
X128258459Y-78926009D01*
X128258459Y-78926009D02*
X128210840Y-79021247D01*
X128210840Y-79021247D02*
X128210840Y-79259342D01*
X128210840Y-79259342D02*
X128258459Y-79354580D01*
X128258459Y-79354580D02*
X128306078Y-79402200D01*
X128306078Y-79402200D02*
X128401316Y-79449819D01*
X128401316Y-79449819D02*
X128687030Y-79449819D01*
X128687030Y-79449819D02*
X128782268Y-79402200D01*
X128782268Y-79402200D02*
X128829887Y-79354580D01*
X127877506Y-78783152D02*
X127639411Y-79449819D01*
X127639411Y-79449819D02*
X127401316Y-78783152D01*
X163417438Y-99360588D02*
X163369819Y-99265350D01*
X163369819Y-99265350D02*
X163369819Y-99122493D01*
X163369819Y-99122493D02*
X163417438Y-98979636D01*
X163417438Y-98979636D02*
X163512676Y-98884398D01*
X163512676Y-98884398D02*
X163607914Y-98836779D01*
X163607914Y-98836779D02*
X163798390Y-98789160D01*
X163798390Y-98789160D02*
X163941247Y-98789160D01*
X163941247Y-98789160D02*
X164131723Y-98836779D01*
X164131723Y-98836779D02*
X164226961Y-98884398D01*
X164226961Y-98884398D02*
X164322200Y-98979636D01*
X164322200Y-98979636D02*
X164369819Y-99122493D01*
X164369819Y-99122493D02*
X164369819Y-99217731D01*
X164369819Y-99217731D02*
X164322200Y-99360588D01*
X164322200Y-99360588D02*
X164274580Y-99408207D01*
X164274580Y-99408207D02*
X163941247Y-99408207D01*
X163941247Y-99408207D02*
X163941247Y-99217731D01*
X164369819Y-99836779D02*
X163369819Y-99836779D01*
X163369819Y-99836779D02*
X164369819Y-100408207D01*
X164369819Y-100408207D02*
X163369819Y-100408207D01*
X164369819Y-100884398D02*
X163369819Y-100884398D01*
X163369819Y-100884398D02*
X163369819Y-101122493D01*
X163369819Y-101122493D02*
X163417438Y-101265350D01*
X163417438Y-101265350D02*
X163512676Y-101360588D01*
X163512676Y-101360588D02*
X163607914Y-101408207D01*
X163607914Y-101408207D02*
X163798390Y-101455826D01*
X163798390Y-101455826D02*
X163941247Y-101455826D01*
X163941247Y-101455826D02*
X164131723Y-101408207D01*
X164131723Y-101408207D02*
X164226961Y-101360588D01*
X164226961Y-101360588D02*
X164322200Y-101265350D01*
X164322200Y-101265350D02*
X164369819Y-101122493D01*
X164369819Y-101122493D02*
X164369819Y-100884398D01*
X102710839Y-74782200D02*
X102567982Y-74829819D01*
X102567982Y-74829819D02*
X102329887Y-74829819D01*
X102329887Y-74829819D02*
X102234649Y-74782200D01*
X102234649Y-74782200D02*
X102187030Y-74734580D01*
X102187030Y-74734580D02*
X102139411Y-74639342D01*
X102139411Y-74639342D02*
X102139411Y-74544104D01*
X102139411Y-74544104D02*
X102187030Y-74448866D01*
X102187030Y-74448866D02*
X102234649Y-74401247D01*
X102234649Y-74401247D02*
X102329887Y-74353628D01*
X102329887Y-74353628D02*
X102520363Y-74306009D01*
X102520363Y-74306009D02*
X102615601Y-74258390D01*
X102615601Y-74258390D02*
X102663220Y-74210771D01*
X102663220Y-74210771D02*
X102710839Y-74115533D01*
X102710839Y-74115533D02*
X102710839Y-74020295D01*
X102710839Y-74020295D02*
X102663220Y-73925057D01*
X102663220Y-73925057D02*
X102615601Y-73877438D01*
X102615601Y-73877438D02*
X102520363Y-73829819D01*
X102520363Y-73829819D02*
X102282268Y-73829819D01*
X102282268Y-73829819D02*
X102139411Y-73877438D01*
X101139411Y-74734580D02*
X101187030Y-74782200D01*
X101187030Y-74782200D02*
X101329887Y-74829819D01*
X101329887Y-74829819D02*
X101425125Y-74829819D01*
X101425125Y-74829819D02*
X101567982Y-74782200D01*
X101567982Y-74782200D02*
X101663220Y-74686961D01*
X101663220Y-74686961D02*
X101710839Y-74591723D01*
X101710839Y-74591723D02*
X101758458Y-74401247D01*
X101758458Y-74401247D02*
X101758458Y-74258390D01*
X101758458Y-74258390D02*
X101710839Y-74067914D01*
X101710839Y-74067914D02*
X101663220Y-73972676D01*
X101663220Y-73972676D02*
X101567982Y-73877438D01*
X101567982Y-73877438D02*
X101425125Y-73829819D01*
X101425125Y-73829819D02*
X101329887Y-73829819D01*
X101329887Y-73829819D02*
X101187030Y-73877438D01*
X101187030Y-73877438D02*
X101139411Y-73925057D01*
X100234649Y-74829819D02*
X100710839Y-74829819D01*
X100710839Y-74829819D02*
X100710839Y-73829819D01*
D12*
X196883584Y-92649161D02*
X196978822Y-92744400D01*
X196978822Y-92744400D02*
X197264536Y-92839638D01*
X197264536Y-92839638D02*
X197455012Y-92839638D01*
X197455012Y-92839638D02*
X197740727Y-92744400D01*
X197740727Y-92744400D02*
X197931203Y-92553923D01*
X197931203Y-92553923D02*
X198026441Y-92363447D01*
X198026441Y-92363447D02*
X198121679Y-91982495D01*
X198121679Y-91982495D02*
X198121679Y-91696780D01*
X198121679Y-91696780D02*
X198026441Y-91315828D01*
X198026441Y-91315828D02*
X197931203Y-91125352D01*
X197931203Y-91125352D02*
X197740727Y-90934876D01*
X197740727Y-90934876D02*
X197455012Y-90839638D01*
X197455012Y-90839638D02*
X197264536Y-90839638D01*
X197264536Y-90839638D02*
X196978822Y-90934876D01*
X196978822Y-90934876D02*
X196883584Y-91030114D01*
X196026441Y-92839638D02*
X196026441Y-91506304D01*
X196026441Y-91887257D02*
X195931203Y-91696780D01*
X195931203Y-91696780D02*
X195835965Y-91601542D01*
X195835965Y-91601542D02*
X195645489Y-91506304D01*
X195645489Y-91506304D02*
X195455012Y-91506304D01*
X194026441Y-92744400D02*
X194216917Y-92839638D01*
X194216917Y-92839638D02*
X194597870Y-92839638D01*
X194597870Y-92839638D02*
X194788346Y-92744400D01*
X194788346Y-92744400D02*
X194883584Y-92553923D01*
X194883584Y-92553923D02*
X194883584Y-91792019D01*
X194883584Y-91792019D02*
X194788346Y-91601542D01*
X194788346Y-91601542D02*
X194597870Y-91506304D01*
X194597870Y-91506304D02*
X194216917Y-91506304D01*
X194216917Y-91506304D02*
X194026441Y-91601542D01*
X194026441Y-91601542D02*
X193931203Y-91792019D01*
X193931203Y-91792019D02*
X193931203Y-91982495D01*
X193931203Y-91982495D02*
X194883584Y-92172971D01*
X192216917Y-92839638D02*
X192216917Y-91792019D01*
X192216917Y-91792019D02*
X192312155Y-91601542D01*
X192312155Y-91601542D02*
X192502631Y-91506304D01*
X192502631Y-91506304D02*
X192883584Y-91506304D01*
X192883584Y-91506304D02*
X193074060Y-91601542D01*
X192216917Y-92744400D02*
X192407393Y-92839638D01*
X192407393Y-92839638D02*
X192883584Y-92839638D01*
X192883584Y-92839638D02*
X193074060Y-92744400D01*
X193074060Y-92744400D02*
X193169298Y-92553923D01*
X193169298Y-92553923D02*
X193169298Y-92363447D01*
X193169298Y-92363447D02*
X193074060Y-92172971D01*
X193074060Y-92172971D02*
X192883584Y-92077733D01*
X192883584Y-92077733D02*
X192407393Y-92077733D01*
X192407393Y-92077733D02*
X192216917Y-91982495D01*
X191550250Y-91506304D02*
X190788346Y-91506304D01*
X191264536Y-90839638D02*
X191264536Y-92553923D01*
X191264536Y-92553923D02*
X191169298Y-92744400D01*
X191169298Y-92744400D02*
X190978822Y-92839638D01*
X190978822Y-92839638D02*
X190788346Y-92839638D01*
X190121679Y-92839638D02*
X190121679Y-91506304D01*
X190121679Y-90839638D02*
X190216917Y-90934876D01*
X190216917Y-90934876D02*
X190121679Y-91030114D01*
X190121679Y-91030114D02*
X190026441Y-90934876D01*
X190026441Y-90934876D02*
X190121679Y-90839638D01*
X190121679Y-90839638D02*
X190121679Y-91030114D01*
X189359774Y-91506304D02*
X188883584Y-92839638D01*
X188883584Y-92839638D02*
X188407393Y-91506304D01*
X187645488Y-92839638D02*
X187645488Y-91506304D01*
X187645488Y-90839638D02*
X187740726Y-90934876D01*
X187740726Y-90934876D02*
X187645488Y-91030114D01*
X187645488Y-91030114D02*
X187550250Y-90934876D01*
X187550250Y-90934876D02*
X187645488Y-90839638D01*
X187645488Y-90839638D02*
X187645488Y-91030114D01*
X186978821Y-91506304D02*
X186216917Y-91506304D01*
X186693107Y-90839638D02*
X186693107Y-92553923D01*
X186693107Y-92553923D02*
X186597869Y-92744400D01*
X186597869Y-92744400D02*
X186407393Y-92839638D01*
X186407393Y-92839638D02*
X186216917Y-92839638D01*
X184693107Y-92839638D02*
X184693107Y-91792019D01*
X184693107Y-91792019D02*
X184788345Y-91601542D01*
X184788345Y-91601542D02*
X184978821Y-91506304D01*
X184978821Y-91506304D02*
X185359774Y-91506304D01*
X185359774Y-91506304D02*
X185550250Y-91601542D01*
X184693107Y-92744400D02*
X184883583Y-92839638D01*
X184883583Y-92839638D02*
X185359774Y-92839638D01*
X185359774Y-92839638D02*
X185550250Y-92744400D01*
X185550250Y-92744400D02*
X185645488Y-92553923D01*
X185645488Y-92553923D02*
X185645488Y-92363447D01*
X185645488Y-92363447D02*
X185550250Y-92172971D01*
X185550250Y-92172971D02*
X185359774Y-92077733D01*
X185359774Y-92077733D02*
X184883583Y-92077733D01*
X184883583Y-92077733D02*
X184693107Y-91982495D01*
X183835964Y-92744400D02*
X183645488Y-92839638D01*
X183645488Y-92839638D02*
X183264536Y-92839638D01*
X183264536Y-92839638D02*
X183074059Y-92744400D01*
X183074059Y-92744400D02*
X182978821Y-92553923D01*
X182978821Y-92553923D02*
X182978821Y-92458685D01*
X182978821Y-92458685D02*
X183074059Y-92268209D01*
X183074059Y-92268209D02*
X183264536Y-92172971D01*
X183264536Y-92172971D02*
X183550250Y-92172971D01*
X183550250Y-92172971D02*
X183740726Y-92077733D01*
X183740726Y-92077733D02*
X183835964Y-91887257D01*
X183835964Y-91887257D02*
X183835964Y-91792019D01*
X183835964Y-91792019D02*
X183740726Y-91601542D01*
X183740726Y-91601542D02*
X183550250Y-91506304D01*
X183550250Y-91506304D02*
X183264536Y-91506304D01*
X183264536Y-91506304D02*
X183074059Y-91601542D01*
X179931201Y-91792019D02*
X179645487Y-91887257D01*
X179645487Y-91887257D02*
X179550249Y-91982495D01*
X179550249Y-91982495D02*
X179455011Y-92172971D01*
X179455011Y-92172971D02*
X179455011Y-92458685D01*
X179455011Y-92458685D02*
X179550249Y-92649161D01*
X179550249Y-92649161D02*
X179645487Y-92744400D01*
X179645487Y-92744400D02*
X179835963Y-92839638D01*
X179835963Y-92839638D02*
X180597868Y-92839638D01*
X180597868Y-92839638D02*
X180597868Y-90839638D01*
X180597868Y-90839638D02*
X179931201Y-90839638D01*
X179931201Y-90839638D02*
X179740725Y-90934876D01*
X179740725Y-90934876D02*
X179645487Y-91030114D01*
X179645487Y-91030114D02*
X179550249Y-91220590D01*
X179550249Y-91220590D02*
X179550249Y-91411066D01*
X179550249Y-91411066D02*
X179645487Y-91601542D01*
X179645487Y-91601542D02*
X179740725Y-91696780D01*
X179740725Y-91696780D02*
X179931201Y-91792019D01*
X179931201Y-91792019D02*
X180597868Y-91792019D01*
X177740725Y-92839638D02*
X177740725Y-91792019D01*
X177740725Y-91792019D02*
X177835963Y-91601542D01*
X177835963Y-91601542D02*
X178026439Y-91506304D01*
X178026439Y-91506304D02*
X178407392Y-91506304D01*
X178407392Y-91506304D02*
X178597868Y-91601542D01*
X177740725Y-92744400D02*
X177931201Y-92839638D01*
X177931201Y-92839638D02*
X178407392Y-92839638D01*
X178407392Y-92839638D02*
X178597868Y-92744400D01*
X178597868Y-92744400D02*
X178693106Y-92553923D01*
X178693106Y-92553923D02*
X178693106Y-92363447D01*
X178693106Y-92363447D02*
X178597868Y-92172971D01*
X178597868Y-92172971D02*
X178407392Y-92077733D01*
X178407392Y-92077733D02*
X177931201Y-92077733D01*
X177931201Y-92077733D02*
X177740725Y-91982495D01*
X176788344Y-92839638D02*
X176788344Y-91506304D01*
X176788344Y-91887257D02*
X176693106Y-91696780D01*
X176693106Y-91696780D02*
X176597868Y-91601542D01*
X176597868Y-91601542D02*
X176407392Y-91506304D01*
X176407392Y-91506304D02*
X176216915Y-91506304D01*
X175550249Y-92839638D02*
X175550249Y-91506304D01*
X175550249Y-91887257D02*
X175455011Y-91696780D01*
X175455011Y-91696780D02*
X175359773Y-91601542D01*
X175359773Y-91601542D02*
X175169297Y-91506304D01*
X175169297Y-91506304D02*
X174978820Y-91506304D01*
X173550249Y-92744400D02*
X173740725Y-92839638D01*
X173740725Y-92839638D02*
X174121678Y-92839638D01*
X174121678Y-92839638D02*
X174312154Y-92744400D01*
X174312154Y-92744400D02*
X174407392Y-92553923D01*
X174407392Y-92553923D02*
X174407392Y-91792019D01*
X174407392Y-91792019D02*
X174312154Y-91601542D01*
X174312154Y-91601542D02*
X174121678Y-91506304D01*
X174121678Y-91506304D02*
X173740725Y-91506304D01*
X173740725Y-91506304D02*
X173550249Y-91601542D01*
X173550249Y-91601542D02*
X173455011Y-91792019D01*
X173455011Y-91792019D02*
X173455011Y-91982495D01*
X173455011Y-91982495D02*
X174407392Y-92172971D01*
X173740725Y-90744400D02*
X174026440Y-91030114D01*
X171264534Y-91506304D02*
X170788344Y-92839638D01*
X170788344Y-92839638D02*
X170312153Y-91506304D01*
X168502629Y-92839638D02*
X169645486Y-92839638D01*
X169074058Y-92839638D02*
X169074058Y-90839638D01*
X169074058Y-90839638D02*
X169264534Y-91125352D01*
X169264534Y-91125352D02*
X169455010Y-91315828D01*
X169455010Y-91315828D02*
X169645486Y-91411066D01*
D11*
X127607411Y-81989819D02*
X128178839Y-81989819D01*
X127893125Y-81989819D02*
X127893125Y-80989819D01*
X127893125Y-80989819D02*
X127988363Y-81132676D01*
X127988363Y-81132676D02*
X128083601Y-81227914D01*
X128083601Y-81227914D02*
X128178839Y-81275533D01*
X168677800Y-101210839D02*
X168630180Y-101067982D01*
X168630180Y-101067982D02*
X168630180Y-100829887D01*
X168630180Y-100829887D02*
X168677800Y-100734649D01*
X168677800Y-100734649D02*
X168725419Y-100687030D01*
X168725419Y-100687030D02*
X168820657Y-100639411D01*
X168820657Y-100639411D02*
X168915895Y-100639411D01*
X168915895Y-100639411D02*
X169011133Y-100687030D01*
X169011133Y-100687030D02*
X169058752Y-100734649D01*
X169058752Y-100734649D02*
X169106371Y-100829887D01*
X169106371Y-100829887D02*
X169153990Y-101020363D01*
X169153990Y-101020363D02*
X169201609Y-101115601D01*
X169201609Y-101115601D02*
X169249228Y-101163220D01*
X169249228Y-101163220D02*
X169344466Y-101210839D01*
X169344466Y-101210839D02*
X169439704Y-101210839D01*
X169439704Y-101210839D02*
X169534942Y-101163220D01*
X169534942Y-101163220D02*
X169582561Y-101115601D01*
X169582561Y-101115601D02*
X169630180Y-101020363D01*
X169630180Y-101020363D02*
X169630180Y-100782268D01*
X169630180Y-100782268D02*
X169582561Y-100639411D01*
X168725419Y-99639411D02*
X168677800Y-99687030D01*
X168677800Y-99687030D02*
X168630180Y-99829887D01*
X168630180Y-99829887D02*
X168630180Y-99925125D01*
X168630180Y-99925125D02*
X168677800Y-100067982D01*
X168677800Y-100067982D02*
X168773038Y-100163220D01*
X168773038Y-100163220D02*
X168868276Y-100210839D01*
X168868276Y-100210839D02*
X169058752Y-100258458D01*
X169058752Y-100258458D02*
X169201609Y-100258458D01*
X169201609Y-100258458D02*
X169392085Y-100210839D01*
X169392085Y-100210839D02*
X169487323Y-100163220D01*
X169487323Y-100163220D02*
X169582561Y-100067982D01*
X169582561Y-100067982D02*
X169630180Y-99925125D01*
X169630180Y-99925125D02*
X169630180Y-99829887D01*
X169630180Y-99829887D02*
X169582561Y-99687030D01*
X169582561Y-99687030D02*
X169534942Y-99639411D01*
X168630180Y-98734649D02*
X168630180Y-99210839D01*
X168630180Y-99210839D02*
X169630180Y-99210839D01*
X102647411Y-87529819D02*
X103218839Y-87529819D01*
X102933125Y-87529819D02*
X102933125Y-86529819D01*
X102933125Y-86529819D02*
X103028363Y-86672676D01*
X103028363Y-86672676D02*
X103123601Y-86767914D01*
X103123601Y-86767914D02*
X103218839Y-86815533D01*
X102028363Y-86529819D02*
X101933125Y-86529819D01*
X101933125Y-86529819D02*
X101837887Y-86577438D01*
X101837887Y-86577438D02*
X101790268Y-86625057D01*
X101790268Y-86625057D02*
X101742649Y-86720295D01*
X101742649Y-86720295D02*
X101695030Y-86910771D01*
X101695030Y-86910771D02*
X101695030Y-87148866D01*
X101695030Y-87148866D02*
X101742649Y-87339342D01*
X101742649Y-87339342D02*
X101790268Y-87434580D01*
X101790268Y-87434580D02*
X101837887Y-87482200D01*
X101837887Y-87482200D02*
X101933125Y-87529819D01*
X101933125Y-87529819D02*
X102028363Y-87529819D01*
X102028363Y-87529819D02*
X102123601Y-87482200D01*
X102123601Y-87482200D02*
X102171220Y-87434580D01*
X102171220Y-87434580D02*
X102218839Y-87339342D01*
X102218839Y-87339342D02*
X102266458Y-87148866D01*
X102266458Y-87148866D02*
X102266458Y-86910771D01*
X102266458Y-86910771D02*
X102218839Y-86720295D01*
X102218839Y-86720295D02*
X102171220Y-86625057D01*
X102171220Y-86625057D02*
X102123601Y-86577438D01*
X102123601Y-86577438D02*
X102028363Y-86529819D01*
X103123601Y-90069819D02*
X102933125Y-90069819D01*
X102933125Y-90069819D02*
X102837887Y-90022200D01*
X102837887Y-90022200D02*
X102790268Y-89974580D01*
X102790268Y-89974580D02*
X102695030Y-89831723D01*
X102695030Y-89831723D02*
X102647411Y-89641247D01*
X102647411Y-89641247D02*
X102647411Y-89260295D01*
X102647411Y-89260295D02*
X102695030Y-89165057D01*
X102695030Y-89165057D02*
X102742649Y-89117438D01*
X102742649Y-89117438D02*
X102837887Y-89069819D01*
X102837887Y-89069819D02*
X103028363Y-89069819D01*
X103028363Y-89069819D02*
X103123601Y-89117438D01*
X103123601Y-89117438D02*
X103171220Y-89165057D01*
X103171220Y-89165057D02*
X103218839Y-89260295D01*
X103218839Y-89260295D02*
X103218839Y-89498390D01*
X103218839Y-89498390D02*
X103171220Y-89593628D01*
X103171220Y-89593628D02*
X103123601Y-89641247D01*
X103123601Y-89641247D02*
X103028363Y-89688866D01*
X103028363Y-89688866D02*
X102837887Y-89688866D01*
X102837887Y-89688866D02*
X102742649Y-89641247D01*
X102742649Y-89641247D02*
X102695030Y-89593628D01*
X102695030Y-89593628D02*
X102647411Y-89498390D01*
X103028363Y-92038390D02*
X103123601Y-91990771D01*
X103123601Y-91990771D02*
X103171220Y-91943152D01*
X103171220Y-91943152D02*
X103218839Y-91847914D01*
X103218839Y-91847914D02*
X103218839Y-91800295D01*
X103218839Y-91800295D02*
X103171220Y-91705057D01*
X103171220Y-91705057D02*
X103123601Y-91657438D01*
X103123601Y-91657438D02*
X103028363Y-91609819D01*
X103028363Y-91609819D02*
X102837887Y-91609819D01*
X102837887Y-91609819D02*
X102742649Y-91657438D01*
X102742649Y-91657438D02*
X102695030Y-91705057D01*
X102695030Y-91705057D02*
X102647411Y-91800295D01*
X102647411Y-91800295D02*
X102647411Y-91847914D01*
X102647411Y-91847914D02*
X102695030Y-91943152D01*
X102695030Y-91943152D02*
X102742649Y-91990771D01*
X102742649Y-91990771D02*
X102837887Y-92038390D01*
X102837887Y-92038390D02*
X103028363Y-92038390D01*
X103028363Y-92038390D02*
X103123601Y-92086009D01*
X103123601Y-92086009D02*
X103171220Y-92133628D01*
X103171220Y-92133628D02*
X103218839Y-92228866D01*
X103218839Y-92228866D02*
X103218839Y-92419342D01*
X103218839Y-92419342D02*
X103171220Y-92514580D01*
X103171220Y-92514580D02*
X103123601Y-92562200D01*
X103123601Y-92562200D02*
X103028363Y-92609819D01*
X103028363Y-92609819D02*
X102837887Y-92609819D01*
X102837887Y-92609819D02*
X102742649Y-92562200D01*
X102742649Y-92562200D02*
X102695030Y-92514580D01*
X102695030Y-92514580D02*
X102647411Y-92419342D01*
X102647411Y-92419342D02*
X102647411Y-92228866D01*
X102647411Y-92228866D02*
X102695030Y-92133628D01*
X102695030Y-92133628D02*
X102742649Y-92086009D01*
X102742649Y-92086009D02*
X102837887Y-92038390D01*
X171822200Y-98789160D02*
X171869819Y-98932017D01*
X171869819Y-98932017D02*
X171869819Y-99170112D01*
X171869819Y-99170112D02*
X171822200Y-99265350D01*
X171822200Y-99265350D02*
X171774580Y-99312969D01*
X171774580Y-99312969D02*
X171679342Y-99360588D01*
X171679342Y-99360588D02*
X171584104Y-99360588D01*
X171584104Y-99360588D02*
X171488866Y-99312969D01*
X171488866Y-99312969D02*
X171441247Y-99265350D01*
X171441247Y-99265350D02*
X171393628Y-99170112D01*
X171393628Y-99170112D02*
X171346009Y-98979636D01*
X171346009Y-98979636D02*
X171298390Y-98884398D01*
X171298390Y-98884398D02*
X171250771Y-98836779D01*
X171250771Y-98836779D02*
X171155533Y-98789160D01*
X171155533Y-98789160D02*
X171060295Y-98789160D01*
X171060295Y-98789160D02*
X170965057Y-98836779D01*
X170965057Y-98836779D02*
X170917438Y-98884398D01*
X170917438Y-98884398D02*
X170869819Y-98979636D01*
X170869819Y-98979636D02*
X170869819Y-99217731D01*
X170869819Y-99217731D02*
X170917438Y-99360588D01*
X171869819Y-99789160D02*
X170869819Y-99789160D01*
X170869819Y-99789160D02*
X170869819Y-100027255D01*
X170869819Y-100027255D02*
X170917438Y-100170112D01*
X170917438Y-100170112D02*
X171012676Y-100265350D01*
X171012676Y-100265350D02*
X171107914Y-100312969D01*
X171107914Y-100312969D02*
X171298390Y-100360588D01*
X171298390Y-100360588D02*
X171441247Y-100360588D01*
X171441247Y-100360588D02*
X171631723Y-100312969D01*
X171631723Y-100312969D02*
X171726961Y-100265350D01*
X171726961Y-100265350D02*
X171822200Y-100170112D01*
X171822200Y-100170112D02*
X171869819Y-100027255D01*
X171869819Y-100027255D02*
X171869819Y-99789160D01*
X171584104Y-100741541D02*
X171584104Y-101217731D01*
X171869819Y-100646303D02*
X170869819Y-100979636D01*
X170869819Y-100979636D02*
X171869819Y-101312969D01*
X127702649Y-93689819D02*
X127893125Y-93689819D01*
X127893125Y-93689819D02*
X127988363Y-93737438D01*
X127988363Y-93737438D02*
X128035982Y-93785057D01*
X128035982Y-93785057D02*
X128131220Y-93927914D01*
X128131220Y-93927914D02*
X128178839Y-94118390D01*
X128178839Y-94118390D02*
X128178839Y-94499342D01*
X128178839Y-94499342D02*
X128131220Y-94594580D01*
X128131220Y-94594580D02*
X128083601Y-94642200D01*
X128083601Y-94642200D02*
X127988363Y-94689819D01*
X127988363Y-94689819D02*
X127797887Y-94689819D01*
X127797887Y-94689819D02*
X127702649Y-94642200D01*
X127702649Y-94642200D02*
X127655030Y-94594580D01*
X127655030Y-94594580D02*
X127607411Y-94499342D01*
X127607411Y-94499342D02*
X127607411Y-94261247D01*
X127607411Y-94261247D02*
X127655030Y-94166009D01*
X127655030Y-94166009D02*
X127702649Y-94118390D01*
X127702649Y-94118390D02*
X127797887Y-94070771D01*
X127797887Y-94070771D02*
X127988363Y-94070771D01*
X127988363Y-94070771D02*
X128083601Y-94118390D01*
X128083601Y-94118390D02*
X128131220Y-94166009D01*
X128131220Y-94166009D02*
X128178839Y-94261247D01*
X127655030Y-90641819D02*
X128131220Y-90641819D01*
X128131220Y-90641819D02*
X128178839Y-91118009D01*
X128178839Y-91118009D02*
X128131220Y-91070390D01*
X128131220Y-91070390D02*
X128035982Y-91022771D01*
X128035982Y-91022771D02*
X127797887Y-91022771D01*
X127797887Y-91022771D02*
X127702649Y-91070390D01*
X127702649Y-91070390D02*
X127655030Y-91118009D01*
X127655030Y-91118009D02*
X127607411Y-91213247D01*
X127607411Y-91213247D02*
X127607411Y-91451342D01*
X127607411Y-91451342D02*
X127655030Y-91546580D01*
X127655030Y-91546580D02*
X127702649Y-91594200D01*
X127702649Y-91594200D02*
X127797887Y-91641819D01*
X127797887Y-91641819D02*
X128035982Y-91641819D01*
X128035982Y-91641819D02*
X128131220Y-91594200D01*
X128131220Y-91594200D02*
X128178839Y-91546580D01*
X103266458Y-94149819D02*
X102599792Y-94149819D01*
X102599792Y-94149819D02*
X103028363Y-95149819D01*
X212166666Y-89359580D02*
X212214285Y-89407200D01*
X212214285Y-89407200D02*
X212357142Y-89454819D01*
X212357142Y-89454819D02*
X212452380Y-89454819D01*
X212452380Y-89454819D02*
X212595237Y-89407200D01*
X212595237Y-89407200D02*
X212690475Y-89311961D01*
X212690475Y-89311961D02*
X212738094Y-89216723D01*
X212738094Y-89216723D02*
X212785713Y-89026247D01*
X212785713Y-89026247D02*
X212785713Y-88883390D01*
X212785713Y-88883390D02*
X212738094Y-88692914D01*
X212738094Y-88692914D02*
X212690475Y-88597676D01*
X212690475Y-88597676D02*
X212595237Y-88502438D01*
X212595237Y-88502438D02*
X212452380Y-88454819D01*
X212452380Y-88454819D02*
X212357142Y-88454819D01*
X212357142Y-88454819D02*
X212214285Y-88502438D01*
X212214285Y-88502438D02*
X212166666Y-88550057D01*
X211833332Y-88454819D02*
X211214285Y-88454819D01*
X211214285Y-88454819D02*
X211547618Y-88835771D01*
X211547618Y-88835771D02*
X211404761Y-88835771D01*
X211404761Y-88835771D02*
X211309523Y-88883390D01*
X211309523Y-88883390D02*
X211261904Y-88931009D01*
X211261904Y-88931009D02*
X211214285Y-89026247D01*
X211214285Y-89026247D02*
X211214285Y-89264342D01*
X211214285Y-89264342D02*
X211261904Y-89359580D01*
X211261904Y-89359580D02*
X211309523Y-89407200D01*
X211309523Y-89407200D02*
X211404761Y-89454819D01*
X211404761Y-89454819D02*
X211690475Y-89454819D01*
X211690475Y-89454819D02*
X211785713Y-89407200D01*
X211785713Y-89407200D02*
X211833332Y-89359580D01*
X185666666Y-105954819D02*
X185999999Y-105478628D01*
X186238094Y-105954819D02*
X186238094Y-104954819D01*
X186238094Y-104954819D02*
X185857142Y-104954819D01*
X185857142Y-104954819D02*
X185761904Y-105002438D01*
X185761904Y-105002438D02*
X185714285Y-105050057D01*
X185714285Y-105050057D02*
X185666666Y-105145295D01*
X185666666Y-105145295D02*
X185666666Y-105288152D01*
X185666666Y-105288152D02*
X185714285Y-105383390D01*
X185714285Y-105383390D02*
X185761904Y-105431009D01*
X185761904Y-105431009D02*
X185857142Y-105478628D01*
X185857142Y-105478628D02*
X186238094Y-105478628D01*
X185333332Y-104954819D02*
X184714285Y-104954819D01*
X184714285Y-104954819D02*
X185047618Y-105335771D01*
X185047618Y-105335771D02*
X184904761Y-105335771D01*
X184904761Y-105335771D02*
X184809523Y-105383390D01*
X184809523Y-105383390D02*
X184761904Y-105431009D01*
X184761904Y-105431009D02*
X184714285Y-105526247D01*
X184714285Y-105526247D02*
X184714285Y-105764342D01*
X184714285Y-105764342D02*
X184761904Y-105859580D01*
X184761904Y-105859580D02*
X184809523Y-105907200D01*
X184809523Y-105907200D02*
X184904761Y-105954819D01*
X184904761Y-105954819D02*
X185190475Y-105954819D01*
X185190475Y-105954819D02*
X185285713Y-105907200D01*
X185285713Y-105907200D02*
X185333332Y-105859580D01*
X115761904Y-97954819D02*
X115761904Y-98764342D01*
X115761904Y-98764342D02*
X115714285Y-98859580D01*
X115714285Y-98859580D02*
X115666666Y-98907200D01*
X115666666Y-98907200D02*
X115571428Y-98954819D01*
X115571428Y-98954819D02*
X115380952Y-98954819D01*
X115380952Y-98954819D02*
X115285714Y-98907200D01*
X115285714Y-98907200D02*
X115238095Y-98859580D01*
X115238095Y-98859580D02*
X115190476Y-98764342D01*
X115190476Y-98764342D02*
X115190476Y-97954819D01*
X114761904Y-98050057D02*
X114714285Y-98002438D01*
X114714285Y-98002438D02*
X114619047Y-97954819D01*
X114619047Y-97954819D02*
X114380952Y-97954819D01*
X114380952Y-97954819D02*
X114285714Y-98002438D01*
X114285714Y-98002438D02*
X114238095Y-98050057D01*
X114238095Y-98050057D02*
X114190476Y-98145295D01*
X114190476Y-98145295D02*
X114190476Y-98240533D01*
X114190476Y-98240533D02*
X114238095Y-98383390D01*
X114238095Y-98383390D02*
X114809523Y-98954819D01*
X114809523Y-98954819D02*
X114190476Y-98954819D01*
X111787732Y-73454819D02*
X111216304Y-73454819D01*
X111502018Y-74454819D02*
X111502018Y-73454819D01*
X110978208Y-73454819D02*
X110311542Y-74454819D01*
X110311542Y-73454819D02*
X110978208Y-74454819D01*
X111311542Y-76994819D02*
X111644875Y-76518628D01*
X111882970Y-76994819D02*
X111882970Y-75994819D01*
X111882970Y-75994819D02*
X111502018Y-75994819D01*
X111502018Y-75994819D02*
X111406780Y-76042438D01*
X111406780Y-76042438D02*
X111359161Y-76090057D01*
X111359161Y-76090057D02*
X111311542Y-76185295D01*
X111311542Y-76185295D02*
X111311542Y-76328152D01*
X111311542Y-76328152D02*
X111359161Y-76423390D01*
X111359161Y-76423390D02*
X111406780Y-76471009D01*
X111406780Y-76471009D02*
X111502018Y-76518628D01*
X111502018Y-76518628D02*
X111882970Y-76518628D01*
X110978208Y-75994819D02*
X110311542Y-76994819D01*
X110311542Y-75994819D02*
X110978208Y-76994819D01*
X114519411Y-83662438D02*
X114614649Y-83614819D01*
X114614649Y-83614819D02*
X114757506Y-83614819D01*
X114757506Y-83614819D02*
X114900363Y-83662438D01*
X114900363Y-83662438D02*
X114995601Y-83757676D01*
X114995601Y-83757676D02*
X115043220Y-83852914D01*
X115043220Y-83852914D02*
X115090839Y-84043390D01*
X115090839Y-84043390D02*
X115090839Y-84186247D01*
X115090839Y-84186247D02*
X115043220Y-84376723D01*
X115043220Y-84376723D02*
X114995601Y-84471961D01*
X114995601Y-84471961D02*
X114900363Y-84567200D01*
X114900363Y-84567200D02*
X114757506Y-84614819D01*
X114757506Y-84614819D02*
X114662268Y-84614819D01*
X114662268Y-84614819D02*
X114519411Y-84567200D01*
X114519411Y-84567200D02*
X114471792Y-84519580D01*
X114471792Y-84519580D02*
X114471792Y-84186247D01*
X114471792Y-84186247D02*
X114662268Y-84186247D01*
X114043220Y-84614819D02*
X114043220Y-83614819D01*
X114043220Y-83614819D02*
X113662268Y-83614819D01*
X113662268Y-83614819D02*
X113567030Y-83662438D01*
X113567030Y-83662438D02*
X113519411Y-83710057D01*
X113519411Y-83710057D02*
X113471792Y-83805295D01*
X113471792Y-83805295D02*
X113471792Y-83948152D01*
X113471792Y-83948152D02*
X113519411Y-84043390D01*
X113519411Y-84043390D02*
X113567030Y-84091009D01*
X113567030Y-84091009D02*
X113662268Y-84138628D01*
X113662268Y-84138628D02*
X114043220Y-84138628D01*
X113043220Y-84614819D02*
X113043220Y-83614819D01*
X112376554Y-83614819D02*
X112186078Y-83614819D01*
X112186078Y-83614819D02*
X112090840Y-83662438D01*
X112090840Y-83662438D02*
X111995602Y-83757676D01*
X111995602Y-83757676D02*
X111947983Y-83948152D01*
X111947983Y-83948152D02*
X111947983Y-84281485D01*
X111947983Y-84281485D02*
X111995602Y-84471961D01*
X111995602Y-84471961D02*
X112090840Y-84567200D01*
X112090840Y-84567200D02*
X112186078Y-84614819D01*
X112186078Y-84614819D02*
X112376554Y-84614819D01*
X112376554Y-84614819D02*
X112471792Y-84567200D01*
X112471792Y-84567200D02*
X112567030Y-84471961D01*
X112567030Y-84471961D02*
X112614649Y-84281485D01*
X112614649Y-84281485D02*
X112614649Y-83948152D01*
X112614649Y-83948152D02*
X112567030Y-83757676D01*
X112567030Y-83757676D02*
X112471792Y-83662438D01*
X112471792Y-83662438D02*
X112376554Y-83614819D01*
X110995602Y-84614819D02*
X111567030Y-84614819D01*
X111281316Y-84614819D02*
X111281316Y-83614819D01*
X111281316Y-83614819D02*
X111376554Y-83757676D01*
X111376554Y-83757676D02*
X111471792Y-83852914D01*
X111471792Y-83852914D02*
X111567030Y-83900533D01*
X110043221Y-84614819D02*
X110614649Y-84614819D01*
X110328935Y-84614819D02*
X110328935Y-83614819D01*
X110328935Y-83614819D02*
X110424173Y-83757676D01*
X110424173Y-83757676D02*
X110519411Y-83852914D01*
X110519411Y-83852914D02*
X110614649Y-83900533D01*
X119345601Y-77037561D02*
X119250363Y-77085180D01*
X119250363Y-77085180D02*
X119107506Y-77085180D01*
X119107506Y-77085180D02*
X118964649Y-77037561D01*
X118964649Y-77037561D02*
X118869411Y-76942323D01*
X118869411Y-76942323D02*
X118821792Y-76847085D01*
X118821792Y-76847085D02*
X118774173Y-76656609D01*
X118774173Y-76656609D02*
X118774173Y-76513752D01*
X118774173Y-76513752D02*
X118821792Y-76323276D01*
X118821792Y-76323276D02*
X118869411Y-76228038D01*
X118869411Y-76228038D02*
X118964649Y-76132800D01*
X118964649Y-76132800D02*
X119107506Y-76085180D01*
X119107506Y-76085180D02*
X119202744Y-76085180D01*
X119202744Y-76085180D02*
X119345601Y-76132800D01*
X119345601Y-76132800D02*
X119393220Y-76180419D01*
X119393220Y-76180419D02*
X119393220Y-76513752D01*
X119393220Y-76513752D02*
X119202744Y-76513752D01*
X119821792Y-76085180D02*
X119821792Y-77085180D01*
X119821792Y-77085180D02*
X120393220Y-76085180D01*
X120393220Y-76085180D02*
X120393220Y-77085180D01*
X120869411Y-76085180D02*
X120869411Y-77085180D01*
X120869411Y-77085180D02*
X121107506Y-77085180D01*
X121107506Y-77085180D02*
X121250363Y-77037561D01*
X121250363Y-77037561D02*
X121345601Y-76942323D01*
X121345601Y-76942323D02*
X121393220Y-76847085D01*
X121393220Y-76847085D02*
X121440839Y-76656609D01*
X121440839Y-76656609D02*
X121440839Y-76513752D01*
X121440839Y-76513752D02*
X121393220Y-76323276D01*
X121393220Y-76323276D02*
X121345601Y-76228038D01*
X121345601Y-76228038D02*
X121250363Y-76132800D01*
X121250363Y-76132800D02*
X121107506Y-76085180D01*
X121107506Y-76085180D02*
X120869411Y-76085180D01*
X113519411Y-91282438D02*
X113614649Y-91234819D01*
X113614649Y-91234819D02*
X113757506Y-91234819D01*
X113757506Y-91234819D02*
X113900363Y-91282438D01*
X113900363Y-91282438D02*
X113995601Y-91377676D01*
X113995601Y-91377676D02*
X114043220Y-91472914D01*
X114043220Y-91472914D02*
X114090839Y-91663390D01*
X114090839Y-91663390D02*
X114090839Y-91806247D01*
X114090839Y-91806247D02*
X114043220Y-91996723D01*
X114043220Y-91996723D02*
X113995601Y-92091961D01*
X113995601Y-92091961D02*
X113900363Y-92187200D01*
X113900363Y-92187200D02*
X113757506Y-92234819D01*
X113757506Y-92234819D02*
X113662268Y-92234819D01*
X113662268Y-92234819D02*
X113519411Y-92187200D01*
X113519411Y-92187200D02*
X113471792Y-92139580D01*
X113471792Y-92139580D02*
X113471792Y-91806247D01*
X113471792Y-91806247D02*
X113662268Y-91806247D01*
X113043220Y-92234819D02*
X113043220Y-91234819D01*
X113043220Y-91234819D02*
X112662268Y-91234819D01*
X112662268Y-91234819D02*
X112567030Y-91282438D01*
X112567030Y-91282438D02*
X112519411Y-91330057D01*
X112519411Y-91330057D02*
X112471792Y-91425295D01*
X112471792Y-91425295D02*
X112471792Y-91568152D01*
X112471792Y-91568152D02*
X112519411Y-91663390D01*
X112519411Y-91663390D02*
X112567030Y-91711009D01*
X112567030Y-91711009D02*
X112662268Y-91758628D01*
X112662268Y-91758628D02*
X113043220Y-91758628D01*
X112043220Y-92234819D02*
X112043220Y-91234819D01*
X111376554Y-91234819D02*
X111186078Y-91234819D01*
X111186078Y-91234819D02*
X111090840Y-91282438D01*
X111090840Y-91282438D02*
X110995602Y-91377676D01*
X110995602Y-91377676D02*
X110947983Y-91568152D01*
X110947983Y-91568152D02*
X110947983Y-91901485D01*
X110947983Y-91901485D02*
X110995602Y-92091961D01*
X110995602Y-92091961D02*
X111090840Y-92187200D01*
X111090840Y-92187200D02*
X111186078Y-92234819D01*
X111186078Y-92234819D02*
X111376554Y-92234819D01*
X111376554Y-92234819D02*
X111471792Y-92187200D01*
X111471792Y-92187200D02*
X111567030Y-92091961D01*
X111567030Y-92091961D02*
X111614649Y-91901485D01*
X111614649Y-91901485D02*
X111614649Y-91568152D01*
X111614649Y-91568152D02*
X111567030Y-91377676D01*
X111567030Y-91377676D02*
X111471792Y-91282438D01*
X111471792Y-91282438D02*
X111376554Y-91234819D01*
X110376554Y-91663390D02*
X110471792Y-91615771D01*
X110471792Y-91615771D02*
X110519411Y-91568152D01*
X110519411Y-91568152D02*
X110567030Y-91472914D01*
X110567030Y-91472914D02*
X110567030Y-91425295D01*
X110567030Y-91425295D02*
X110519411Y-91330057D01*
X110519411Y-91330057D02*
X110471792Y-91282438D01*
X110471792Y-91282438D02*
X110376554Y-91234819D01*
X110376554Y-91234819D02*
X110186078Y-91234819D01*
X110186078Y-91234819D02*
X110090840Y-91282438D01*
X110090840Y-91282438D02*
X110043221Y-91330057D01*
X110043221Y-91330057D02*
X109995602Y-91425295D01*
X109995602Y-91425295D02*
X109995602Y-91472914D01*
X109995602Y-91472914D02*
X110043221Y-91568152D01*
X110043221Y-91568152D02*
X110090840Y-91615771D01*
X110090840Y-91615771D02*
X110186078Y-91663390D01*
X110186078Y-91663390D02*
X110376554Y-91663390D01*
X110376554Y-91663390D02*
X110471792Y-91711009D01*
X110471792Y-91711009D02*
X110519411Y-91758628D01*
X110519411Y-91758628D02*
X110567030Y-91853866D01*
X110567030Y-91853866D02*
X110567030Y-92044342D01*
X110567030Y-92044342D02*
X110519411Y-92139580D01*
X110519411Y-92139580D02*
X110471792Y-92187200D01*
X110471792Y-92187200D02*
X110376554Y-92234819D01*
X110376554Y-92234819D02*
X110186078Y-92234819D01*
X110186078Y-92234819D02*
X110090840Y-92187200D01*
X110090840Y-92187200D02*
X110043221Y-92139580D01*
X110043221Y-92139580D02*
X109995602Y-92044342D01*
X109995602Y-92044342D02*
X109995602Y-91853866D01*
X109995602Y-91853866D02*
X110043221Y-91758628D01*
X110043221Y-91758628D02*
X110090840Y-91711009D01*
X110090840Y-91711009D02*
X110186078Y-91663390D01*
X121488458Y-78534819D02*
X120869411Y-78534819D01*
X120869411Y-78534819D02*
X121202744Y-78915771D01*
X121202744Y-78915771D02*
X121059887Y-78915771D01*
X121059887Y-78915771D02*
X120964649Y-78963390D01*
X120964649Y-78963390D02*
X120917030Y-79011009D01*
X120917030Y-79011009D02*
X120869411Y-79106247D01*
X120869411Y-79106247D02*
X120869411Y-79344342D01*
X120869411Y-79344342D02*
X120917030Y-79439580D01*
X120917030Y-79439580D02*
X120964649Y-79487200D01*
X120964649Y-79487200D02*
X121059887Y-79534819D01*
X121059887Y-79534819D02*
X121345601Y-79534819D01*
X121345601Y-79534819D02*
X121440839Y-79487200D01*
X121440839Y-79487200D02*
X121488458Y-79439580D01*
X120583696Y-78534819D02*
X120250363Y-79534819D01*
X120250363Y-79534819D02*
X119917030Y-78534819D01*
X119678934Y-78534819D02*
X119059887Y-78534819D01*
X119059887Y-78534819D02*
X119393220Y-78915771D01*
X119393220Y-78915771D02*
X119250363Y-78915771D01*
X119250363Y-78915771D02*
X119155125Y-78963390D01*
X119155125Y-78963390D02*
X119107506Y-79011009D01*
X119107506Y-79011009D02*
X119059887Y-79106247D01*
X119059887Y-79106247D02*
X119059887Y-79344342D01*
X119059887Y-79344342D02*
X119107506Y-79439580D01*
X119107506Y-79439580D02*
X119155125Y-79487200D01*
X119155125Y-79487200D02*
X119250363Y-79534819D01*
X119250363Y-79534819D02*
X119536077Y-79534819D01*
X119536077Y-79534819D02*
X119631315Y-79487200D01*
X119631315Y-79487200D02*
X119678934Y-79439580D01*
X120639412Y-88742438D02*
X120734650Y-88694819D01*
X120734650Y-88694819D02*
X120877507Y-88694819D01*
X120877507Y-88694819D02*
X121020364Y-88742438D01*
X121020364Y-88742438D02*
X121115602Y-88837676D01*
X121115602Y-88837676D02*
X121163221Y-88932914D01*
X121163221Y-88932914D02*
X121210840Y-89123390D01*
X121210840Y-89123390D02*
X121210840Y-89266247D01*
X121210840Y-89266247D02*
X121163221Y-89456723D01*
X121163221Y-89456723D02*
X121115602Y-89551961D01*
X121115602Y-89551961D02*
X121020364Y-89647200D01*
X121020364Y-89647200D02*
X120877507Y-89694819D01*
X120877507Y-89694819D02*
X120782269Y-89694819D01*
X120782269Y-89694819D02*
X120639412Y-89647200D01*
X120639412Y-89647200D02*
X120591793Y-89599580D01*
X120591793Y-89599580D02*
X120591793Y-89266247D01*
X120591793Y-89266247D02*
X120782269Y-89266247D01*
X120163221Y-89694819D02*
X120163221Y-88694819D01*
X120163221Y-88694819D02*
X119782269Y-88694819D01*
X119782269Y-88694819D02*
X119687031Y-88742438D01*
X119687031Y-88742438D02*
X119639412Y-88790057D01*
X119639412Y-88790057D02*
X119591793Y-88885295D01*
X119591793Y-88885295D02*
X119591793Y-89028152D01*
X119591793Y-89028152D02*
X119639412Y-89123390D01*
X119639412Y-89123390D02*
X119687031Y-89171009D01*
X119687031Y-89171009D02*
X119782269Y-89218628D01*
X119782269Y-89218628D02*
X120163221Y-89218628D01*
X119163221Y-89694819D02*
X119163221Y-88694819D01*
X118496555Y-88694819D02*
X118306079Y-88694819D01*
X118306079Y-88694819D02*
X118210841Y-88742438D01*
X118210841Y-88742438D02*
X118115603Y-88837676D01*
X118115603Y-88837676D02*
X118067984Y-89028152D01*
X118067984Y-89028152D02*
X118067984Y-89361485D01*
X118067984Y-89361485D02*
X118115603Y-89551961D01*
X118115603Y-89551961D02*
X118210841Y-89647200D01*
X118210841Y-89647200D02*
X118306079Y-89694819D01*
X118306079Y-89694819D02*
X118496555Y-89694819D01*
X118496555Y-89694819D02*
X118591793Y-89647200D01*
X118591793Y-89647200D02*
X118687031Y-89551961D01*
X118687031Y-89551961D02*
X118734650Y-89361485D01*
X118734650Y-89361485D02*
X118734650Y-89028152D01*
X118734650Y-89028152D02*
X118687031Y-88837676D01*
X118687031Y-88837676D02*
X118591793Y-88742438D01*
X118591793Y-88742438D02*
X118496555Y-88694819D01*
X117210841Y-89028152D02*
X117210841Y-89694819D01*
X117448936Y-88647200D02*
X117687031Y-89361485D01*
X117687031Y-89361485D02*
X117067984Y-89361485D01*
X114519411Y-81122438D02*
X114614649Y-81074819D01*
X114614649Y-81074819D02*
X114757506Y-81074819D01*
X114757506Y-81074819D02*
X114900363Y-81122438D01*
X114900363Y-81122438D02*
X114995601Y-81217676D01*
X114995601Y-81217676D02*
X115043220Y-81312914D01*
X115043220Y-81312914D02*
X115090839Y-81503390D01*
X115090839Y-81503390D02*
X115090839Y-81646247D01*
X115090839Y-81646247D02*
X115043220Y-81836723D01*
X115043220Y-81836723D02*
X114995601Y-81931961D01*
X114995601Y-81931961D02*
X114900363Y-82027200D01*
X114900363Y-82027200D02*
X114757506Y-82074819D01*
X114757506Y-82074819D02*
X114662268Y-82074819D01*
X114662268Y-82074819D02*
X114519411Y-82027200D01*
X114519411Y-82027200D02*
X114471792Y-81979580D01*
X114471792Y-81979580D02*
X114471792Y-81646247D01*
X114471792Y-81646247D02*
X114662268Y-81646247D01*
X114043220Y-82074819D02*
X114043220Y-81074819D01*
X114043220Y-81074819D02*
X113662268Y-81074819D01*
X113662268Y-81074819D02*
X113567030Y-81122438D01*
X113567030Y-81122438D02*
X113519411Y-81170057D01*
X113519411Y-81170057D02*
X113471792Y-81265295D01*
X113471792Y-81265295D02*
X113471792Y-81408152D01*
X113471792Y-81408152D02*
X113519411Y-81503390D01*
X113519411Y-81503390D02*
X113567030Y-81551009D01*
X113567030Y-81551009D02*
X113662268Y-81598628D01*
X113662268Y-81598628D02*
X114043220Y-81598628D01*
X113043220Y-82074819D02*
X113043220Y-81074819D01*
X112376554Y-81074819D02*
X112186078Y-81074819D01*
X112186078Y-81074819D02*
X112090840Y-81122438D01*
X112090840Y-81122438D02*
X111995602Y-81217676D01*
X111995602Y-81217676D02*
X111947983Y-81408152D01*
X111947983Y-81408152D02*
X111947983Y-81741485D01*
X111947983Y-81741485D02*
X111995602Y-81931961D01*
X111995602Y-81931961D02*
X112090840Y-82027200D01*
X112090840Y-82027200D02*
X112186078Y-82074819D01*
X112186078Y-82074819D02*
X112376554Y-82074819D01*
X112376554Y-82074819D02*
X112471792Y-82027200D01*
X112471792Y-82027200D02*
X112567030Y-81931961D01*
X112567030Y-81931961D02*
X112614649Y-81741485D01*
X112614649Y-81741485D02*
X112614649Y-81408152D01*
X112614649Y-81408152D02*
X112567030Y-81217676D01*
X112567030Y-81217676D02*
X112471792Y-81122438D01*
X112471792Y-81122438D02*
X112376554Y-81074819D01*
X110995602Y-82074819D02*
X111567030Y-82074819D01*
X111281316Y-82074819D02*
X111281316Y-81074819D01*
X111281316Y-81074819D02*
X111376554Y-81217676D01*
X111376554Y-81217676D02*
X111471792Y-81312914D01*
X111471792Y-81312914D02*
X111567030Y-81360533D01*
X110614649Y-81170057D02*
X110567030Y-81122438D01*
X110567030Y-81122438D02*
X110471792Y-81074819D01*
X110471792Y-81074819D02*
X110233697Y-81074819D01*
X110233697Y-81074819D02*
X110138459Y-81122438D01*
X110138459Y-81122438D02*
X110090840Y-81170057D01*
X110090840Y-81170057D02*
X110043221Y-81265295D01*
X110043221Y-81265295D02*
X110043221Y-81360533D01*
X110043221Y-81360533D02*
X110090840Y-81503390D01*
X110090840Y-81503390D02*
X110662268Y-82074819D01*
X110662268Y-82074819D02*
X110043221Y-82074819D01*
X120639412Y-91282438D02*
X120734650Y-91234819D01*
X120734650Y-91234819D02*
X120877507Y-91234819D01*
X120877507Y-91234819D02*
X121020364Y-91282438D01*
X121020364Y-91282438D02*
X121115602Y-91377676D01*
X121115602Y-91377676D02*
X121163221Y-91472914D01*
X121163221Y-91472914D02*
X121210840Y-91663390D01*
X121210840Y-91663390D02*
X121210840Y-91806247D01*
X121210840Y-91806247D02*
X121163221Y-91996723D01*
X121163221Y-91996723D02*
X121115602Y-92091961D01*
X121115602Y-92091961D02*
X121020364Y-92187200D01*
X121020364Y-92187200D02*
X120877507Y-92234819D01*
X120877507Y-92234819D02*
X120782269Y-92234819D01*
X120782269Y-92234819D02*
X120639412Y-92187200D01*
X120639412Y-92187200D02*
X120591793Y-92139580D01*
X120591793Y-92139580D02*
X120591793Y-91806247D01*
X120591793Y-91806247D02*
X120782269Y-91806247D01*
X120163221Y-92234819D02*
X120163221Y-91234819D01*
X120163221Y-91234819D02*
X119782269Y-91234819D01*
X119782269Y-91234819D02*
X119687031Y-91282438D01*
X119687031Y-91282438D02*
X119639412Y-91330057D01*
X119639412Y-91330057D02*
X119591793Y-91425295D01*
X119591793Y-91425295D02*
X119591793Y-91568152D01*
X119591793Y-91568152D02*
X119639412Y-91663390D01*
X119639412Y-91663390D02*
X119687031Y-91711009D01*
X119687031Y-91711009D02*
X119782269Y-91758628D01*
X119782269Y-91758628D02*
X120163221Y-91758628D01*
X119163221Y-92234819D02*
X119163221Y-91234819D01*
X118496555Y-91234819D02*
X118306079Y-91234819D01*
X118306079Y-91234819D02*
X118210841Y-91282438D01*
X118210841Y-91282438D02*
X118115603Y-91377676D01*
X118115603Y-91377676D02*
X118067984Y-91568152D01*
X118067984Y-91568152D02*
X118067984Y-91901485D01*
X118067984Y-91901485D02*
X118115603Y-92091961D01*
X118115603Y-92091961D02*
X118210841Y-92187200D01*
X118210841Y-92187200D02*
X118306079Y-92234819D01*
X118306079Y-92234819D02*
X118496555Y-92234819D01*
X118496555Y-92234819D02*
X118591793Y-92187200D01*
X118591793Y-92187200D02*
X118687031Y-92091961D01*
X118687031Y-92091961D02*
X118734650Y-91901485D01*
X118734650Y-91901485D02*
X118734650Y-91568152D01*
X118734650Y-91568152D02*
X118687031Y-91377676D01*
X118687031Y-91377676D02*
X118591793Y-91282438D01*
X118591793Y-91282438D02*
X118496555Y-91234819D01*
X117163222Y-91234819D02*
X117639412Y-91234819D01*
X117639412Y-91234819D02*
X117687031Y-91711009D01*
X117687031Y-91711009D02*
X117639412Y-91663390D01*
X117639412Y-91663390D02*
X117544174Y-91615771D01*
X117544174Y-91615771D02*
X117306079Y-91615771D01*
X117306079Y-91615771D02*
X117210841Y-91663390D01*
X117210841Y-91663390D02*
X117163222Y-91711009D01*
X117163222Y-91711009D02*
X117115603Y-91806247D01*
X117115603Y-91806247D02*
X117115603Y-92044342D01*
X117115603Y-92044342D02*
X117163222Y-92139580D01*
X117163222Y-92139580D02*
X117210841Y-92187200D01*
X117210841Y-92187200D02*
X117306079Y-92234819D01*
X117306079Y-92234819D02*
X117544174Y-92234819D01*
X117544174Y-92234819D02*
X117639412Y-92187200D01*
X117639412Y-92187200D02*
X117687031Y-92139580D01*
X120917030Y-73454819D02*
X121393220Y-73454819D01*
X121393220Y-73454819D02*
X121440839Y-73931009D01*
X121440839Y-73931009D02*
X121393220Y-73883390D01*
X121393220Y-73883390D02*
X121297982Y-73835771D01*
X121297982Y-73835771D02*
X121059887Y-73835771D01*
X121059887Y-73835771D02*
X120964649Y-73883390D01*
X120964649Y-73883390D02*
X120917030Y-73931009D01*
X120917030Y-73931009D02*
X120869411Y-74026247D01*
X120869411Y-74026247D02*
X120869411Y-74264342D01*
X120869411Y-74264342D02*
X120917030Y-74359580D01*
X120917030Y-74359580D02*
X120964649Y-74407200D01*
X120964649Y-74407200D02*
X121059887Y-74454819D01*
X121059887Y-74454819D02*
X121297982Y-74454819D01*
X121297982Y-74454819D02*
X121393220Y-74407200D01*
X121393220Y-74407200D02*
X121440839Y-74359580D01*
X120583696Y-73454819D02*
X120250363Y-74454819D01*
X120250363Y-74454819D02*
X119917030Y-73454819D01*
X120869411Y-83662438D02*
X120964649Y-83614819D01*
X120964649Y-83614819D02*
X121107506Y-83614819D01*
X121107506Y-83614819D02*
X121250363Y-83662438D01*
X121250363Y-83662438D02*
X121345601Y-83757676D01*
X121345601Y-83757676D02*
X121393220Y-83852914D01*
X121393220Y-83852914D02*
X121440839Y-84043390D01*
X121440839Y-84043390D02*
X121440839Y-84186247D01*
X121440839Y-84186247D02*
X121393220Y-84376723D01*
X121393220Y-84376723D02*
X121345601Y-84471961D01*
X121345601Y-84471961D02*
X121250363Y-84567200D01*
X121250363Y-84567200D02*
X121107506Y-84614819D01*
X121107506Y-84614819D02*
X121012268Y-84614819D01*
X121012268Y-84614819D02*
X120869411Y-84567200D01*
X120869411Y-84567200D02*
X120821792Y-84519580D01*
X120821792Y-84519580D02*
X120821792Y-84186247D01*
X120821792Y-84186247D02*
X121012268Y-84186247D01*
X120393220Y-84614819D02*
X120393220Y-83614819D01*
X120393220Y-83614819D02*
X120012268Y-83614819D01*
X120012268Y-83614819D02*
X119917030Y-83662438D01*
X119917030Y-83662438D02*
X119869411Y-83710057D01*
X119869411Y-83710057D02*
X119821792Y-83805295D01*
X119821792Y-83805295D02*
X119821792Y-83948152D01*
X119821792Y-83948152D02*
X119869411Y-84043390D01*
X119869411Y-84043390D02*
X119917030Y-84091009D01*
X119917030Y-84091009D02*
X120012268Y-84138628D01*
X120012268Y-84138628D02*
X120393220Y-84138628D01*
X119393220Y-84614819D02*
X119393220Y-83614819D01*
X118726554Y-83614819D02*
X118536078Y-83614819D01*
X118536078Y-83614819D02*
X118440840Y-83662438D01*
X118440840Y-83662438D02*
X118345602Y-83757676D01*
X118345602Y-83757676D02*
X118297983Y-83948152D01*
X118297983Y-83948152D02*
X118297983Y-84281485D01*
X118297983Y-84281485D02*
X118345602Y-84471961D01*
X118345602Y-84471961D02*
X118440840Y-84567200D01*
X118440840Y-84567200D02*
X118536078Y-84614819D01*
X118536078Y-84614819D02*
X118726554Y-84614819D01*
X118726554Y-84614819D02*
X118821792Y-84567200D01*
X118821792Y-84567200D02*
X118917030Y-84471961D01*
X118917030Y-84471961D02*
X118964649Y-84281485D01*
X118964649Y-84281485D02*
X118964649Y-83948152D01*
X118964649Y-83948152D02*
X118917030Y-83757676D01*
X118917030Y-83757676D02*
X118821792Y-83662438D01*
X118821792Y-83662438D02*
X118726554Y-83614819D01*
X117917030Y-83710057D02*
X117869411Y-83662438D01*
X117869411Y-83662438D02*
X117774173Y-83614819D01*
X117774173Y-83614819D02*
X117536078Y-83614819D01*
X117536078Y-83614819D02*
X117440840Y-83662438D01*
X117440840Y-83662438D02*
X117393221Y-83710057D01*
X117393221Y-83710057D02*
X117345602Y-83805295D01*
X117345602Y-83805295D02*
X117345602Y-83900533D01*
X117345602Y-83900533D02*
X117393221Y-84043390D01*
X117393221Y-84043390D02*
X117964649Y-84614819D01*
X117964649Y-84614819D02*
X117345602Y-84614819D01*
X114519411Y-78582438D02*
X114614649Y-78534819D01*
X114614649Y-78534819D02*
X114757506Y-78534819D01*
X114757506Y-78534819D02*
X114900363Y-78582438D01*
X114900363Y-78582438D02*
X114995601Y-78677676D01*
X114995601Y-78677676D02*
X115043220Y-78772914D01*
X115043220Y-78772914D02*
X115090839Y-78963390D01*
X115090839Y-78963390D02*
X115090839Y-79106247D01*
X115090839Y-79106247D02*
X115043220Y-79296723D01*
X115043220Y-79296723D02*
X114995601Y-79391961D01*
X114995601Y-79391961D02*
X114900363Y-79487200D01*
X114900363Y-79487200D02*
X114757506Y-79534819D01*
X114757506Y-79534819D02*
X114662268Y-79534819D01*
X114662268Y-79534819D02*
X114519411Y-79487200D01*
X114519411Y-79487200D02*
X114471792Y-79439580D01*
X114471792Y-79439580D02*
X114471792Y-79106247D01*
X114471792Y-79106247D02*
X114662268Y-79106247D01*
X114043220Y-79534819D02*
X114043220Y-78534819D01*
X114043220Y-78534819D02*
X113662268Y-78534819D01*
X113662268Y-78534819D02*
X113567030Y-78582438D01*
X113567030Y-78582438D02*
X113519411Y-78630057D01*
X113519411Y-78630057D02*
X113471792Y-78725295D01*
X113471792Y-78725295D02*
X113471792Y-78868152D01*
X113471792Y-78868152D02*
X113519411Y-78963390D01*
X113519411Y-78963390D02*
X113567030Y-79011009D01*
X113567030Y-79011009D02*
X113662268Y-79058628D01*
X113662268Y-79058628D02*
X114043220Y-79058628D01*
X113043220Y-79534819D02*
X113043220Y-78534819D01*
X112376554Y-78534819D02*
X112186078Y-78534819D01*
X112186078Y-78534819D02*
X112090840Y-78582438D01*
X112090840Y-78582438D02*
X111995602Y-78677676D01*
X111995602Y-78677676D02*
X111947983Y-78868152D01*
X111947983Y-78868152D02*
X111947983Y-79201485D01*
X111947983Y-79201485D02*
X111995602Y-79391961D01*
X111995602Y-79391961D02*
X112090840Y-79487200D01*
X112090840Y-79487200D02*
X112186078Y-79534819D01*
X112186078Y-79534819D02*
X112376554Y-79534819D01*
X112376554Y-79534819D02*
X112471792Y-79487200D01*
X112471792Y-79487200D02*
X112567030Y-79391961D01*
X112567030Y-79391961D02*
X112614649Y-79201485D01*
X112614649Y-79201485D02*
X112614649Y-78868152D01*
X112614649Y-78868152D02*
X112567030Y-78677676D01*
X112567030Y-78677676D02*
X112471792Y-78582438D01*
X112471792Y-78582438D02*
X112376554Y-78534819D01*
X110995602Y-79534819D02*
X111567030Y-79534819D01*
X111281316Y-79534819D02*
X111281316Y-78534819D01*
X111281316Y-78534819D02*
X111376554Y-78677676D01*
X111376554Y-78677676D02*
X111471792Y-78772914D01*
X111471792Y-78772914D02*
X111567030Y-78820533D01*
X110662268Y-78534819D02*
X110043221Y-78534819D01*
X110043221Y-78534819D02*
X110376554Y-78915771D01*
X110376554Y-78915771D02*
X110233697Y-78915771D01*
X110233697Y-78915771D02*
X110138459Y-78963390D01*
X110138459Y-78963390D02*
X110090840Y-79011009D01*
X110090840Y-79011009D02*
X110043221Y-79106247D01*
X110043221Y-79106247D02*
X110043221Y-79344342D01*
X110043221Y-79344342D02*
X110090840Y-79439580D01*
X110090840Y-79439580D02*
X110138459Y-79487200D01*
X110138459Y-79487200D02*
X110233697Y-79534819D01*
X110233697Y-79534819D02*
X110519411Y-79534819D01*
X110519411Y-79534819D02*
X110614649Y-79487200D01*
X110614649Y-79487200D02*
X110662268Y-79439580D01*
X113519411Y-88972437D02*
X113614649Y-88924818D01*
X113614649Y-88924818D02*
X113757506Y-88924818D01*
X113757506Y-88924818D02*
X113900363Y-88972437D01*
X113900363Y-88972437D02*
X113995601Y-89067675D01*
X113995601Y-89067675D02*
X114043220Y-89162913D01*
X114043220Y-89162913D02*
X114090839Y-89353389D01*
X114090839Y-89353389D02*
X114090839Y-89496246D01*
X114090839Y-89496246D02*
X114043220Y-89686722D01*
X114043220Y-89686722D02*
X113995601Y-89781960D01*
X113995601Y-89781960D02*
X113900363Y-89877199D01*
X113900363Y-89877199D02*
X113757506Y-89924818D01*
X113757506Y-89924818D02*
X113662268Y-89924818D01*
X113662268Y-89924818D02*
X113519411Y-89877199D01*
X113519411Y-89877199D02*
X113471792Y-89829579D01*
X113471792Y-89829579D02*
X113471792Y-89496246D01*
X113471792Y-89496246D02*
X113662268Y-89496246D01*
X113043220Y-89924818D02*
X113043220Y-88924818D01*
X113043220Y-88924818D02*
X112662268Y-88924818D01*
X112662268Y-88924818D02*
X112567030Y-88972437D01*
X112567030Y-88972437D02*
X112519411Y-89020056D01*
X112519411Y-89020056D02*
X112471792Y-89115294D01*
X112471792Y-89115294D02*
X112471792Y-89258151D01*
X112471792Y-89258151D02*
X112519411Y-89353389D01*
X112519411Y-89353389D02*
X112567030Y-89401008D01*
X112567030Y-89401008D02*
X112662268Y-89448627D01*
X112662268Y-89448627D02*
X113043220Y-89448627D01*
X112043220Y-89924818D02*
X112043220Y-88924818D01*
X111376554Y-88924818D02*
X111186078Y-88924818D01*
X111186078Y-88924818D02*
X111090840Y-88972437D01*
X111090840Y-88972437D02*
X110995602Y-89067675D01*
X110995602Y-89067675D02*
X110947983Y-89258151D01*
X110947983Y-89258151D02*
X110947983Y-89591484D01*
X110947983Y-89591484D02*
X110995602Y-89781960D01*
X110995602Y-89781960D02*
X111090840Y-89877199D01*
X111090840Y-89877199D02*
X111186078Y-89924818D01*
X111186078Y-89924818D02*
X111376554Y-89924818D01*
X111376554Y-89924818D02*
X111471792Y-89877199D01*
X111471792Y-89877199D02*
X111567030Y-89781960D01*
X111567030Y-89781960D02*
X111614649Y-89591484D01*
X111614649Y-89591484D02*
X111614649Y-89258151D01*
X111614649Y-89258151D02*
X111567030Y-89067675D01*
X111567030Y-89067675D02*
X111471792Y-88972437D01*
X111471792Y-88972437D02*
X111376554Y-88924818D01*
X110471792Y-89924818D02*
X110281316Y-89924818D01*
X110281316Y-89924818D02*
X110186078Y-89877199D01*
X110186078Y-89877199D02*
X110138459Y-89829579D01*
X110138459Y-89829579D02*
X110043221Y-89686722D01*
X110043221Y-89686722D02*
X109995602Y-89496246D01*
X109995602Y-89496246D02*
X109995602Y-89115294D01*
X109995602Y-89115294D02*
X110043221Y-89020056D01*
X110043221Y-89020056D02*
X110090840Y-88972437D01*
X110090840Y-88972437D02*
X110186078Y-88924818D01*
X110186078Y-88924818D02*
X110376554Y-88924818D01*
X110376554Y-88924818D02*
X110471792Y-88972437D01*
X110471792Y-88972437D02*
X110519411Y-89020056D01*
X110519411Y-89020056D02*
X110567030Y-89115294D01*
X110567030Y-89115294D02*
X110567030Y-89353389D01*
X110567030Y-89353389D02*
X110519411Y-89448627D01*
X110519411Y-89448627D02*
X110471792Y-89496246D01*
X110471792Y-89496246D02*
X110376554Y-89543865D01*
X110376554Y-89543865D02*
X110186078Y-89543865D01*
X110186078Y-89543865D02*
X110090840Y-89496246D01*
X110090840Y-89496246D02*
X110043221Y-89448627D01*
X110043221Y-89448627D02*
X109995602Y-89353389D01*
X114519411Y-86202438D02*
X114614649Y-86154819D01*
X114614649Y-86154819D02*
X114757506Y-86154819D01*
X114757506Y-86154819D02*
X114900363Y-86202438D01*
X114900363Y-86202438D02*
X114995601Y-86297676D01*
X114995601Y-86297676D02*
X115043220Y-86392914D01*
X115043220Y-86392914D02*
X115090839Y-86583390D01*
X115090839Y-86583390D02*
X115090839Y-86726247D01*
X115090839Y-86726247D02*
X115043220Y-86916723D01*
X115043220Y-86916723D02*
X114995601Y-87011961D01*
X114995601Y-87011961D02*
X114900363Y-87107200D01*
X114900363Y-87107200D02*
X114757506Y-87154819D01*
X114757506Y-87154819D02*
X114662268Y-87154819D01*
X114662268Y-87154819D02*
X114519411Y-87107200D01*
X114519411Y-87107200D02*
X114471792Y-87059580D01*
X114471792Y-87059580D02*
X114471792Y-86726247D01*
X114471792Y-86726247D02*
X114662268Y-86726247D01*
X114043220Y-87154819D02*
X114043220Y-86154819D01*
X114043220Y-86154819D02*
X113662268Y-86154819D01*
X113662268Y-86154819D02*
X113567030Y-86202438D01*
X113567030Y-86202438D02*
X113519411Y-86250057D01*
X113519411Y-86250057D02*
X113471792Y-86345295D01*
X113471792Y-86345295D02*
X113471792Y-86488152D01*
X113471792Y-86488152D02*
X113519411Y-86583390D01*
X113519411Y-86583390D02*
X113567030Y-86631009D01*
X113567030Y-86631009D02*
X113662268Y-86678628D01*
X113662268Y-86678628D02*
X114043220Y-86678628D01*
X113043220Y-87154819D02*
X113043220Y-86154819D01*
X112376554Y-86154819D02*
X112186078Y-86154819D01*
X112186078Y-86154819D02*
X112090840Y-86202438D01*
X112090840Y-86202438D02*
X111995602Y-86297676D01*
X111995602Y-86297676D02*
X111947983Y-86488152D01*
X111947983Y-86488152D02*
X111947983Y-86821485D01*
X111947983Y-86821485D02*
X111995602Y-87011961D01*
X111995602Y-87011961D02*
X112090840Y-87107200D01*
X112090840Y-87107200D02*
X112186078Y-87154819D01*
X112186078Y-87154819D02*
X112376554Y-87154819D01*
X112376554Y-87154819D02*
X112471792Y-87107200D01*
X112471792Y-87107200D02*
X112567030Y-87011961D01*
X112567030Y-87011961D02*
X112614649Y-86821485D01*
X112614649Y-86821485D02*
X112614649Y-86488152D01*
X112614649Y-86488152D02*
X112567030Y-86297676D01*
X112567030Y-86297676D02*
X112471792Y-86202438D01*
X112471792Y-86202438D02*
X112376554Y-86154819D01*
X110995602Y-87154819D02*
X111567030Y-87154819D01*
X111281316Y-87154819D02*
X111281316Y-86154819D01*
X111281316Y-86154819D02*
X111376554Y-86297676D01*
X111376554Y-86297676D02*
X111471792Y-86392914D01*
X111471792Y-86392914D02*
X111567030Y-86440533D01*
X110376554Y-86154819D02*
X110281316Y-86154819D01*
X110281316Y-86154819D02*
X110186078Y-86202438D01*
X110186078Y-86202438D02*
X110138459Y-86250057D01*
X110138459Y-86250057D02*
X110090840Y-86345295D01*
X110090840Y-86345295D02*
X110043221Y-86535771D01*
X110043221Y-86535771D02*
X110043221Y-86773866D01*
X110043221Y-86773866D02*
X110090840Y-86964342D01*
X110090840Y-86964342D02*
X110138459Y-87059580D01*
X110138459Y-87059580D02*
X110186078Y-87107200D01*
X110186078Y-87107200D02*
X110281316Y-87154819D01*
X110281316Y-87154819D02*
X110376554Y-87154819D01*
X110376554Y-87154819D02*
X110471792Y-87107200D01*
X110471792Y-87107200D02*
X110519411Y-87059580D01*
X110519411Y-87059580D02*
X110567030Y-86964342D01*
X110567030Y-86964342D02*
X110614649Y-86773866D01*
X110614649Y-86773866D02*
X110614649Y-86535771D01*
X110614649Y-86535771D02*
X110567030Y-86345295D01*
X110567030Y-86345295D02*
X110519411Y-86250057D01*
X110519411Y-86250057D02*
X110471792Y-86202438D01*
X110471792Y-86202438D02*
X110376554Y-86154819D01*
X113519411Y-93822438D02*
X113614649Y-93774819D01*
X113614649Y-93774819D02*
X113757506Y-93774819D01*
X113757506Y-93774819D02*
X113900363Y-93822438D01*
X113900363Y-93822438D02*
X113995601Y-93917676D01*
X113995601Y-93917676D02*
X114043220Y-94012914D01*
X114043220Y-94012914D02*
X114090839Y-94203390D01*
X114090839Y-94203390D02*
X114090839Y-94346247D01*
X114090839Y-94346247D02*
X114043220Y-94536723D01*
X114043220Y-94536723D02*
X113995601Y-94631961D01*
X113995601Y-94631961D02*
X113900363Y-94727200D01*
X113900363Y-94727200D02*
X113757506Y-94774819D01*
X113757506Y-94774819D02*
X113662268Y-94774819D01*
X113662268Y-94774819D02*
X113519411Y-94727200D01*
X113519411Y-94727200D02*
X113471792Y-94679580D01*
X113471792Y-94679580D02*
X113471792Y-94346247D01*
X113471792Y-94346247D02*
X113662268Y-94346247D01*
X113043220Y-94774819D02*
X113043220Y-93774819D01*
X113043220Y-93774819D02*
X112662268Y-93774819D01*
X112662268Y-93774819D02*
X112567030Y-93822438D01*
X112567030Y-93822438D02*
X112519411Y-93870057D01*
X112519411Y-93870057D02*
X112471792Y-93965295D01*
X112471792Y-93965295D02*
X112471792Y-94108152D01*
X112471792Y-94108152D02*
X112519411Y-94203390D01*
X112519411Y-94203390D02*
X112567030Y-94251009D01*
X112567030Y-94251009D02*
X112662268Y-94298628D01*
X112662268Y-94298628D02*
X113043220Y-94298628D01*
X112043220Y-94774819D02*
X112043220Y-93774819D01*
X111376554Y-93774819D02*
X111186078Y-93774819D01*
X111186078Y-93774819D02*
X111090840Y-93822438D01*
X111090840Y-93822438D02*
X110995602Y-93917676D01*
X110995602Y-93917676D02*
X110947983Y-94108152D01*
X110947983Y-94108152D02*
X110947983Y-94441485D01*
X110947983Y-94441485D02*
X110995602Y-94631961D01*
X110995602Y-94631961D02*
X111090840Y-94727200D01*
X111090840Y-94727200D02*
X111186078Y-94774819D01*
X111186078Y-94774819D02*
X111376554Y-94774819D01*
X111376554Y-94774819D02*
X111471792Y-94727200D01*
X111471792Y-94727200D02*
X111567030Y-94631961D01*
X111567030Y-94631961D02*
X111614649Y-94441485D01*
X111614649Y-94441485D02*
X111614649Y-94108152D01*
X111614649Y-94108152D02*
X111567030Y-93917676D01*
X111567030Y-93917676D02*
X111471792Y-93822438D01*
X111471792Y-93822438D02*
X111376554Y-93774819D01*
X110614649Y-93774819D02*
X109947983Y-93774819D01*
X109947983Y-93774819D02*
X110376554Y-94774819D01*
X120869411Y-81122438D02*
X120964649Y-81074819D01*
X120964649Y-81074819D02*
X121107506Y-81074819D01*
X121107506Y-81074819D02*
X121250363Y-81122438D01*
X121250363Y-81122438D02*
X121345601Y-81217676D01*
X121345601Y-81217676D02*
X121393220Y-81312914D01*
X121393220Y-81312914D02*
X121440839Y-81503390D01*
X121440839Y-81503390D02*
X121440839Y-81646247D01*
X121440839Y-81646247D02*
X121393220Y-81836723D01*
X121393220Y-81836723D02*
X121345601Y-81931961D01*
X121345601Y-81931961D02*
X121250363Y-82027200D01*
X121250363Y-82027200D02*
X121107506Y-82074819D01*
X121107506Y-82074819D02*
X121012268Y-82074819D01*
X121012268Y-82074819D02*
X120869411Y-82027200D01*
X120869411Y-82027200D02*
X120821792Y-81979580D01*
X120821792Y-81979580D02*
X120821792Y-81646247D01*
X120821792Y-81646247D02*
X121012268Y-81646247D01*
X120393220Y-82074819D02*
X120393220Y-81074819D01*
X120393220Y-81074819D02*
X120012268Y-81074819D01*
X120012268Y-81074819D02*
X119917030Y-81122438D01*
X119917030Y-81122438D02*
X119869411Y-81170057D01*
X119869411Y-81170057D02*
X119821792Y-81265295D01*
X119821792Y-81265295D02*
X119821792Y-81408152D01*
X119821792Y-81408152D02*
X119869411Y-81503390D01*
X119869411Y-81503390D02*
X119917030Y-81551009D01*
X119917030Y-81551009D02*
X120012268Y-81598628D01*
X120012268Y-81598628D02*
X120393220Y-81598628D01*
X119393220Y-82074819D02*
X119393220Y-81074819D01*
X118726554Y-81074819D02*
X118536078Y-81074819D01*
X118536078Y-81074819D02*
X118440840Y-81122438D01*
X118440840Y-81122438D02*
X118345602Y-81217676D01*
X118345602Y-81217676D02*
X118297983Y-81408152D01*
X118297983Y-81408152D02*
X118297983Y-81741485D01*
X118297983Y-81741485D02*
X118345602Y-81931961D01*
X118345602Y-81931961D02*
X118440840Y-82027200D01*
X118440840Y-82027200D02*
X118536078Y-82074819D01*
X118536078Y-82074819D02*
X118726554Y-82074819D01*
X118726554Y-82074819D02*
X118821792Y-82027200D01*
X118821792Y-82027200D02*
X118917030Y-81931961D01*
X118917030Y-81931961D02*
X118964649Y-81741485D01*
X118964649Y-81741485D02*
X118964649Y-81408152D01*
X118964649Y-81408152D02*
X118917030Y-81217676D01*
X118917030Y-81217676D02*
X118821792Y-81122438D01*
X118821792Y-81122438D02*
X118726554Y-81074819D01*
X117345602Y-82074819D02*
X117917030Y-82074819D01*
X117631316Y-82074819D02*
X117631316Y-81074819D01*
X117631316Y-81074819D02*
X117726554Y-81217676D01*
X117726554Y-81217676D02*
X117821792Y-81312914D01*
X117821792Y-81312914D02*
X117917030Y-81360533D01*
X120639412Y-86202438D02*
X120734650Y-86154819D01*
X120734650Y-86154819D02*
X120877507Y-86154819D01*
X120877507Y-86154819D02*
X121020364Y-86202438D01*
X121020364Y-86202438D02*
X121115602Y-86297676D01*
X121115602Y-86297676D02*
X121163221Y-86392914D01*
X121163221Y-86392914D02*
X121210840Y-86583390D01*
X121210840Y-86583390D02*
X121210840Y-86726247D01*
X121210840Y-86726247D02*
X121163221Y-86916723D01*
X121163221Y-86916723D02*
X121115602Y-87011961D01*
X121115602Y-87011961D02*
X121020364Y-87107200D01*
X121020364Y-87107200D02*
X120877507Y-87154819D01*
X120877507Y-87154819D02*
X120782269Y-87154819D01*
X120782269Y-87154819D02*
X120639412Y-87107200D01*
X120639412Y-87107200D02*
X120591793Y-87059580D01*
X120591793Y-87059580D02*
X120591793Y-86726247D01*
X120591793Y-86726247D02*
X120782269Y-86726247D01*
X120163221Y-87154819D02*
X120163221Y-86154819D01*
X120163221Y-86154819D02*
X119782269Y-86154819D01*
X119782269Y-86154819D02*
X119687031Y-86202438D01*
X119687031Y-86202438D02*
X119639412Y-86250057D01*
X119639412Y-86250057D02*
X119591793Y-86345295D01*
X119591793Y-86345295D02*
X119591793Y-86488152D01*
X119591793Y-86488152D02*
X119639412Y-86583390D01*
X119639412Y-86583390D02*
X119687031Y-86631009D01*
X119687031Y-86631009D02*
X119782269Y-86678628D01*
X119782269Y-86678628D02*
X120163221Y-86678628D01*
X119163221Y-87154819D02*
X119163221Y-86154819D01*
X118496555Y-86154819D02*
X118306079Y-86154819D01*
X118306079Y-86154819D02*
X118210841Y-86202438D01*
X118210841Y-86202438D02*
X118115603Y-86297676D01*
X118115603Y-86297676D02*
X118067984Y-86488152D01*
X118067984Y-86488152D02*
X118067984Y-86821485D01*
X118067984Y-86821485D02*
X118115603Y-87011961D01*
X118115603Y-87011961D02*
X118210841Y-87107200D01*
X118210841Y-87107200D02*
X118306079Y-87154819D01*
X118306079Y-87154819D02*
X118496555Y-87154819D01*
X118496555Y-87154819D02*
X118591793Y-87107200D01*
X118591793Y-87107200D02*
X118687031Y-87011961D01*
X118687031Y-87011961D02*
X118734650Y-86821485D01*
X118734650Y-86821485D02*
X118734650Y-86488152D01*
X118734650Y-86488152D02*
X118687031Y-86297676D01*
X118687031Y-86297676D02*
X118591793Y-86202438D01*
X118591793Y-86202438D02*
X118496555Y-86154819D01*
X117734650Y-86154819D02*
X117115603Y-86154819D01*
X117115603Y-86154819D02*
X117448936Y-86535771D01*
X117448936Y-86535771D02*
X117306079Y-86535771D01*
X117306079Y-86535771D02*
X117210841Y-86583390D01*
X117210841Y-86583390D02*
X117163222Y-86631009D01*
X117163222Y-86631009D02*
X117115603Y-86726247D01*
X117115603Y-86726247D02*
X117115603Y-86964342D01*
X117115603Y-86964342D02*
X117163222Y-87059580D01*
X117163222Y-87059580D02*
X117210841Y-87107200D01*
X117210841Y-87107200D02*
X117306079Y-87154819D01*
X117306079Y-87154819D02*
X117591793Y-87154819D01*
X117591793Y-87154819D02*
X117687031Y-87107200D01*
X117687031Y-87107200D02*
X117734650Y-87059580D01*
X120639412Y-93822438D02*
X120734650Y-93774819D01*
X120734650Y-93774819D02*
X120877507Y-93774819D01*
X120877507Y-93774819D02*
X121020364Y-93822438D01*
X121020364Y-93822438D02*
X121115602Y-93917676D01*
X121115602Y-93917676D02*
X121163221Y-94012914D01*
X121163221Y-94012914D02*
X121210840Y-94203390D01*
X121210840Y-94203390D02*
X121210840Y-94346247D01*
X121210840Y-94346247D02*
X121163221Y-94536723D01*
X121163221Y-94536723D02*
X121115602Y-94631961D01*
X121115602Y-94631961D02*
X121020364Y-94727200D01*
X121020364Y-94727200D02*
X120877507Y-94774819D01*
X120877507Y-94774819D02*
X120782269Y-94774819D01*
X120782269Y-94774819D02*
X120639412Y-94727200D01*
X120639412Y-94727200D02*
X120591793Y-94679580D01*
X120591793Y-94679580D02*
X120591793Y-94346247D01*
X120591793Y-94346247D02*
X120782269Y-94346247D01*
X120163221Y-94774819D02*
X120163221Y-93774819D01*
X120163221Y-93774819D02*
X119782269Y-93774819D01*
X119782269Y-93774819D02*
X119687031Y-93822438D01*
X119687031Y-93822438D02*
X119639412Y-93870057D01*
X119639412Y-93870057D02*
X119591793Y-93965295D01*
X119591793Y-93965295D02*
X119591793Y-94108152D01*
X119591793Y-94108152D02*
X119639412Y-94203390D01*
X119639412Y-94203390D02*
X119687031Y-94251009D01*
X119687031Y-94251009D02*
X119782269Y-94298628D01*
X119782269Y-94298628D02*
X120163221Y-94298628D01*
X119163221Y-94774819D02*
X119163221Y-93774819D01*
X118496555Y-93774819D02*
X118306079Y-93774819D01*
X118306079Y-93774819D02*
X118210841Y-93822438D01*
X118210841Y-93822438D02*
X118115603Y-93917676D01*
X118115603Y-93917676D02*
X118067984Y-94108152D01*
X118067984Y-94108152D02*
X118067984Y-94441485D01*
X118067984Y-94441485D02*
X118115603Y-94631961D01*
X118115603Y-94631961D02*
X118210841Y-94727200D01*
X118210841Y-94727200D02*
X118306079Y-94774819D01*
X118306079Y-94774819D02*
X118496555Y-94774819D01*
X118496555Y-94774819D02*
X118591793Y-94727200D01*
X118591793Y-94727200D02*
X118687031Y-94631961D01*
X118687031Y-94631961D02*
X118734650Y-94441485D01*
X118734650Y-94441485D02*
X118734650Y-94108152D01*
X118734650Y-94108152D02*
X118687031Y-93917676D01*
X118687031Y-93917676D02*
X118591793Y-93822438D01*
X118591793Y-93822438D02*
X118496555Y-93774819D01*
X117210841Y-93774819D02*
X117401317Y-93774819D01*
X117401317Y-93774819D02*
X117496555Y-93822438D01*
X117496555Y-93822438D02*
X117544174Y-93870057D01*
X117544174Y-93870057D02*
X117639412Y-94012914D01*
X117639412Y-94012914D02*
X117687031Y-94203390D01*
X117687031Y-94203390D02*
X117687031Y-94584342D01*
X117687031Y-94584342D02*
X117639412Y-94679580D01*
X117639412Y-94679580D02*
X117591793Y-94727200D01*
X117591793Y-94727200D02*
X117496555Y-94774819D01*
X117496555Y-94774819D02*
X117306079Y-94774819D01*
X117306079Y-94774819D02*
X117210841Y-94727200D01*
X117210841Y-94727200D02*
X117163222Y-94679580D01*
X117163222Y-94679580D02*
X117115603Y-94584342D01*
X117115603Y-94584342D02*
X117115603Y-94346247D01*
X117115603Y-94346247D02*
X117163222Y-94251009D01*
X117163222Y-94251009D02*
X117210841Y-94203390D01*
X117210841Y-94203390D02*
X117306079Y-94155771D01*
X117306079Y-94155771D02*
X117496555Y-94155771D01*
X117496555Y-94155771D02*
X117591793Y-94203390D01*
X117591793Y-94203390D02*
X117639412Y-94251009D01*
X117639412Y-94251009D02*
X117687031Y-94346247D01*
X94166666Y-88859580D02*
X94214285Y-88907200D01*
X94214285Y-88907200D02*
X94357142Y-88954819D01*
X94357142Y-88954819D02*
X94452380Y-88954819D01*
X94452380Y-88954819D02*
X94595237Y-88907200D01*
X94595237Y-88907200D02*
X94690475Y-88811961D01*
X94690475Y-88811961D02*
X94738094Y-88716723D01*
X94738094Y-88716723D02*
X94785713Y-88526247D01*
X94785713Y-88526247D02*
X94785713Y-88383390D01*
X94785713Y-88383390D02*
X94738094Y-88192914D01*
X94738094Y-88192914D02*
X94690475Y-88097676D01*
X94690475Y-88097676D02*
X94595237Y-88002438D01*
X94595237Y-88002438D02*
X94452380Y-87954819D01*
X94452380Y-87954819D02*
X94357142Y-87954819D01*
X94357142Y-87954819D02*
X94214285Y-88002438D01*
X94214285Y-88002438D02*
X94166666Y-88050057D01*
X93309523Y-88288152D02*
X93309523Y-88954819D01*
X93547618Y-87907200D02*
X93785713Y-88621485D01*
X93785713Y-88621485D02*
X93166666Y-88621485D01*
X185666666Y-108954819D02*
X185999999Y-108478628D01*
X186238094Y-108954819D02*
X186238094Y-107954819D01*
X186238094Y-107954819D02*
X185857142Y-107954819D01*
X185857142Y-107954819D02*
X185761904Y-108002438D01*
X185761904Y-108002438D02*
X185714285Y-108050057D01*
X185714285Y-108050057D02*
X185666666Y-108145295D01*
X185666666Y-108145295D02*
X185666666Y-108288152D01*
X185666666Y-108288152D02*
X185714285Y-108383390D01*
X185714285Y-108383390D02*
X185761904Y-108431009D01*
X185761904Y-108431009D02*
X185857142Y-108478628D01*
X185857142Y-108478628D02*
X186238094Y-108478628D01*
X185285713Y-108050057D02*
X185238094Y-108002438D01*
X185238094Y-108002438D02*
X185142856Y-107954819D01*
X185142856Y-107954819D02*
X184904761Y-107954819D01*
X184904761Y-107954819D02*
X184809523Y-108002438D01*
X184809523Y-108002438D02*
X184761904Y-108050057D01*
X184761904Y-108050057D02*
X184714285Y-108145295D01*
X184714285Y-108145295D02*
X184714285Y-108240533D01*
X184714285Y-108240533D02*
X184761904Y-108383390D01*
X184761904Y-108383390D02*
X185333332Y-108954819D01*
X185333332Y-108954819D02*
X184714285Y-108954819D01*
D13*
X208880000Y-85130000D02*
X208880000Y-85575000D01*
X208880000Y-87425000D02*
X208880000Y-87870000D01*
X215120000Y-85130000D02*
X208880000Y-85130000D01*
X215120000Y-85130000D02*
X215120000Y-85575000D01*
X215120000Y-87425000D02*
X215120000Y-87870000D01*
X215120000Y-87870000D02*
X208880000Y-87870000D01*
X183580000Y-104580000D02*
X183580000Y-106420000D01*
X183580000Y-105500000D02*
X182630000Y-105500000D01*
X183580000Y-106420000D02*
X187420000Y-106420000D01*
X187420000Y-104580000D02*
X183580000Y-104580000D01*
X187420000Y-105500000D02*
X188370000Y-105500000D01*
X187420000Y-106420000D02*
X187420000Y-104580000D01*
X106380000Y-72410000D02*
X106380000Y-95910000D01*
X106380000Y-95910000D02*
X124380000Y-95910000D01*
X112840000Y-71460000D02*
X117920000Y-71460000D01*
X112840000Y-72410000D02*
X112840000Y-71460000D01*
X117920000Y-71460000D02*
X117920000Y-72410000D01*
X124380000Y-72410000D02*
X106380000Y-72410000D01*
X124380000Y-95910000D02*
X124380000Y-72410000D01*
X90880000Y-87130000D02*
X97120000Y-87130000D01*
X90880000Y-87575000D02*
X90880000Y-87130000D01*
X90880000Y-89870000D02*
X90880000Y-89425000D01*
X90880000Y-89870000D02*
X97120000Y-89870000D01*
X97120000Y-87575000D02*
X97120000Y-87130000D01*
X97120000Y-89870000D02*
X97120000Y-89425000D01*
X183580000Y-107580000D02*
X183580000Y-109420000D01*
X183580000Y-108500000D02*
X182630000Y-108500000D01*
X183580000Y-109420000D02*
X187420000Y-109420000D01*
X187420000Y-107580000D02*
X183580000Y-107580000D01*
X187420000Y-108500000D02*
X188370000Y-108500000D01*
X187420000Y-109420000D02*
X187420000Y-107580000D01*
X158630000Y-102170000D02*
X179210000Y-102170000D01*
X158630000Y-111290000D02*
X158630000Y-102170000D01*
X159930000Y-103480000D02*
X177910000Y-103480000D01*
X159930000Y-109980000D02*
X159930000Y-103480000D01*
X166870000Y-109980000D02*
X159930000Y-109980000D01*
X166870000Y-109980000D02*
X166870000Y-109980000D01*
X166870000Y-111290000D02*
X166870000Y-109980000D01*
X170970000Y-109980000D02*
X170970000Y-111290000D01*
X173500000Y-112680000D02*
X174500000Y-112680000D01*
X174000000Y-111680000D02*
X173500000Y-112680000D01*
X174500000Y-112680000D02*
X174000000Y-111680000D01*
X177910000Y-103480000D02*
X177910000Y-109980000D01*
X177910000Y-109980000D02*
X170970000Y-109980000D01*
X179210000Y-102170000D02*
X179210000Y-111290000D01*
X179210000Y-111290000D02*
X158630000Y-111290000D01*
%LPC*%
D14*
X184000000Y-114000000D03*
X154000000Y-114000000D03*
D15*
X222000000Y-114000000D03*
X222000000Y-74000000D03*
X48000000Y-114000000D03*
X48000000Y-74000000D03*
D16*
X56500000Y-112000000D03*
D17*
X59000000Y-112000000D03*
X61500000Y-112000000D03*
D18*
X54600000Y-105000000D03*
X63400000Y-105000000D03*
D14*
X153000000Y-84000000D03*
D19*
X98000000Y-80700000D03*
X98000000Y-82000000D03*
D20*
X98000000Y-83300000D03*
D21*
X208000000Y-80700000D03*
D19*
X208000000Y-82000000D03*
X208000000Y-83300000D03*
D22*
X78000000Y-105000000D03*
D23*
X78000000Y-105000000D03*
D14*
X153000000Y-104000000D03*
D16*
X56500000Y-90000000D03*
D17*
X59000000Y-90000000D03*
X61500000Y-90000000D03*
D18*
X63400000Y-83000000D03*
X54600000Y-82950000D03*
D22*
X78000000Y-83000000D03*
D23*
X78000000Y-83000000D03*
D24*
X209500000Y-86500000D03*
X214500000Y-86500000D03*
D25*
X189310000Y-105500000D03*
D26*
X181690000Y-105500000D03*
D27*
X123000000Y-74000000D03*
X123000000Y-76540000D03*
X123000000Y-79080000D03*
X123000000Y-81620000D03*
X123000000Y-84160000D03*
X123000000Y-86700000D03*
X123000000Y-89240000D03*
X123000000Y-91780000D03*
X123000000Y-94320000D03*
D28*
X107760000Y-94320000D03*
X107760000Y-91780000D03*
X107760000Y-89240000D03*
X107760000Y-86700000D03*
X107760000Y-84160000D03*
X107760000Y-81620000D03*
X107760000Y-79080000D03*
X107760000Y-76540000D03*
X107760000Y-74000000D03*
D24*
X96500000Y-88500000D03*
X91500000Y-88500000D03*
D25*
X189310000Y-108500000D03*
D26*
X181690000Y-108500000D03*
D29*
X174000000Y-108000000D03*
D30*
X174000000Y-105460000D03*
X171460000Y-108000000D03*
X171460000Y-105460000D03*
X168920000Y-108000000D03*
X168920000Y-105460000D03*
X166380000Y-108000000D03*
X166380000Y-105460000D03*
X163840000Y-108000000D03*
X163840000Y-105460000D03*
%LPD*%
M02*
