G04 #@! TF.GenerationSoftware,KiCad,Pcbnew,8.0.7*
G04 #@! TF.CreationDate,2026-01-04T11:36:19-08:00*
G04 #@! TF.ProjectId,mbira3,6d626972-6133-42e6-9b69-6361645f7063,rev?*
G04 #@! TF.SameCoordinates,Original*
G04 #@! TF.FileFunction,Paste,Top*
G04 #@! TF.FilePolarity,Positive*
%FSLAX46Y46*%
G04 Gerber Fmt 4.6, Leading zero omitted, Abs format (unit mm)*
G04 Created by KiCad (PCBNEW 8.0.7) date 2026-01-04 11:36:19*
%MOMM*%
%LPD*%
G01*
G04 APERTURE LIST*
G04 Aperture macros list*
%AMRoundRect*
0 Rectangle with rounded corners*
0 $1 Rounding radius*
0 $2 $3 $4 $5 $6 $7 $8 $9 X,Y pos of 4 corners*
0 Add a 4 corners polygon primitive as box body*
4,1,4,$2,$3,$4,$5,$6,$7,$8,$9,$2,$3,0*
0 Add four circle primitives for the rounded corners*
1,1,$1+$1,$2,$3*
1,1,$1+$1,$4,$5*
1,1,$1+$1,$6,$7*
1,1,$1+$1,$8,$9*
0 Add four rect primitives between the rounded corners*
20,1,$1+$1,$2,$3,$4,$5,0*
20,1,$1+$1,$4,$5,$6,$7,0*
20,1,$1+$1,$6,$7,$8,$9,0*
20,1,$1+$1,$8,$9,$2,$3,0*%
G04 Aperture macros list end*
%ADD10RoundRect,0.250000X0.475000X-0.337500X0.475000X0.337500X-0.475000X0.337500X-0.475000X-0.337500X0*%
%ADD11RoundRect,0.150000X0.587500X0.150000X-0.587500X0.150000X-0.587500X-0.150000X0.587500X-0.150000X0*%
G04 APERTURE END LIST*
D10*
X188000000Y-67287500D03*
X188000000Y-65212500D03*
X200000000Y-67287500D03*
X200000000Y-65212500D03*
X176000000Y-67287500D03*
X176000000Y-65212500D03*
X104000000Y-67287500D03*
X104000000Y-65212500D03*
X116000000Y-67287500D03*
X116000000Y-65212500D03*
D11*
X125937500Y-67450000D03*
X125937500Y-65550000D03*
X124062500Y-66500000D03*
X137937500Y-67450000D03*
X137937500Y-65550000D03*
X136062500Y-66500000D03*
X173937500Y-67450000D03*
X173937500Y-65550000D03*
X172062500Y-66500000D03*
X161937500Y-67450000D03*
X161937500Y-65550000D03*
X160062500Y-66500000D03*
D10*
X140000000Y-67287500D03*
X140000000Y-65212500D03*
D11*
X197937500Y-67450000D03*
X197937500Y-65550000D03*
X196062500Y-66500000D03*
X101937500Y-67450000D03*
X101937500Y-65550000D03*
X100062500Y-66500000D03*
X113937500Y-67450000D03*
X113937500Y-65550000D03*
X112062500Y-66500000D03*
D10*
X152000000Y-67287500D03*
X152000000Y-65212500D03*
D11*
X149937500Y-67450000D03*
X149937500Y-65550000D03*
X148062500Y-66500000D03*
D10*
X128000000Y-67287500D03*
X128000000Y-65212500D03*
D11*
X185937500Y-67450000D03*
X185937500Y-65550000D03*
X184062500Y-66500000D03*
D10*
X164000000Y-67287500D03*
X164000000Y-65212500D03*
M02*
