G04 #@! TF.GenerationSoftware,KiCad,Pcbnew,8.0.7*
G04 #@! TF.CreationDate,2026-01-04T11:36:19-08:00*
G04 #@! TF.ProjectId,mbira3,6d626972-6133-42e6-9b69-6361645f7063,rev?*
G04 #@! TF.SameCoordinates,Original*
G04 #@! TF.FileFunction,Legend,Top*
G04 #@! TF.FilePolarity,Positive*
%FSLAX46Y46*%
G04 Gerber Fmt 4.6, Leading zero omitted, Abs format (unit mm)*
G04 Created by KiCad (PCBNEW 8.0.7) date 2026-01-04 11:36:19*
%MOMM*%
%LPD*%
G01*
G04 APERTURE LIST*
%ADD10C,0.120000*%
G04 APERTURE END LIST*
D10*
X187265000Y-66511252D02*
X187265000Y-65988748D01*
X188735000Y-66511252D02*
X188735000Y-65988748D01*
X199265000Y-66511252D02*
X199265000Y-65988748D01*
X200735000Y-66511252D02*
X200735000Y-65988748D01*
X175265000Y-66511252D02*
X175265000Y-65988748D01*
X176735000Y-66511252D02*
X176735000Y-65988748D01*
X212000000Y-66500000D02*
X212000000Y-53500000D01*
X230000000Y-53500000D02*
X212000000Y-53500000D01*
X230000000Y-66500000D02*
X212000000Y-66500000D01*
X230000000Y-66500000D02*
X230000000Y-53500000D01*
X103265000Y-66511252D02*
X103265000Y-65988748D01*
X104735000Y-66511252D02*
X104735000Y-65988748D01*
X115265000Y-66511252D02*
X115265000Y-65988748D01*
X116735000Y-66511252D02*
X116735000Y-65988748D01*
X125000000Y-64940000D02*
X124350000Y-64940000D01*
X125000000Y-64940000D02*
X125650000Y-64940000D01*
X125000000Y-68060000D02*
X124350000Y-68060000D01*
X125000000Y-68060000D02*
X125650000Y-68060000D01*
X126402500Y-68340000D02*
X125922500Y-68340000D01*
X126162500Y-68010000D01*
X126402500Y-68340000D01*
G36*
X126402500Y-68340000D02*
G01*
X125922500Y-68340000D01*
X126162500Y-68010000D01*
X126402500Y-68340000D01*
G37*
X137000000Y-64940000D02*
X136350000Y-64940000D01*
X137000000Y-64940000D02*
X137650000Y-64940000D01*
X137000000Y-68060000D02*
X136350000Y-68060000D01*
X137000000Y-68060000D02*
X137650000Y-68060000D01*
X138402500Y-68340000D02*
X137922500Y-68340000D01*
X138162500Y-68010000D01*
X138402500Y-68340000D01*
G36*
X138402500Y-68340000D02*
G01*
X137922500Y-68340000D01*
X138162500Y-68010000D01*
X138402500Y-68340000D01*
G37*
X173000000Y-64940000D02*
X172350000Y-64940000D01*
X173000000Y-64940000D02*
X173650000Y-64940000D01*
X173000000Y-68060000D02*
X172350000Y-68060000D01*
X173000000Y-68060000D02*
X173650000Y-68060000D01*
X174402500Y-68340000D02*
X173922500Y-68340000D01*
X174162500Y-68010000D01*
X174402500Y-68340000D01*
G36*
X174402500Y-68340000D02*
G01*
X173922500Y-68340000D01*
X174162500Y-68010000D01*
X174402500Y-68340000D01*
G37*
X95890000Y-66240000D02*
X95890000Y-62495000D01*
X96436529Y-66240000D02*
X95890000Y-66240000D01*
X96692470Y-62495000D02*
X95890000Y-62495000D01*
X98110000Y-62495000D02*
X97307530Y-62495000D01*
X98110000Y-66240000D02*
X97563471Y-66240000D01*
X98110000Y-66240000D02*
X98110000Y-62495000D01*
X98110000Y-67000000D02*
X98110000Y-67760000D01*
X98110000Y-67760000D02*
X97000000Y-67760000D01*
X161000000Y-64940000D02*
X160350000Y-64940000D01*
X161000000Y-64940000D02*
X161650000Y-64940000D01*
X161000000Y-68060000D02*
X160350000Y-68060000D01*
X161000000Y-68060000D02*
X161650000Y-68060000D01*
X162402500Y-68340000D02*
X161922500Y-68340000D01*
X162162500Y-68010000D01*
X162402500Y-68340000D01*
G36*
X162402500Y-68340000D02*
G01*
X161922500Y-68340000D01*
X162162500Y-68010000D01*
X162402500Y-68340000D01*
G37*
X139265000Y-66511252D02*
X139265000Y-65988748D01*
X140735000Y-66511252D02*
X140735000Y-65988748D01*
X197000000Y-64940000D02*
X196350000Y-64940000D01*
X197000000Y-64940000D02*
X197650000Y-64940000D01*
X197000000Y-68060000D02*
X196350000Y-68060000D01*
X197000000Y-68060000D02*
X197650000Y-68060000D01*
X198402500Y-68340000D02*
X197922500Y-68340000D01*
X198162500Y-68010000D01*
X198402500Y-68340000D01*
G36*
X198402500Y-68340000D02*
G01*
X197922500Y-68340000D01*
X198162500Y-68010000D01*
X198402500Y-68340000D01*
G37*
X101000000Y-64940000D02*
X100350000Y-64940000D01*
X101000000Y-64940000D02*
X101650000Y-64940000D01*
X101000000Y-68060000D02*
X100350000Y-68060000D01*
X101000000Y-68060000D02*
X101650000Y-68060000D01*
X102402500Y-68340000D02*
X101922500Y-68340000D01*
X102162500Y-68010000D01*
X102402500Y-68340000D01*
G36*
X102402500Y-68340000D02*
G01*
X101922500Y-68340000D01*
X102162500Y-68010000D01*
X102402500Y-68340000D01*
G37*
X113000000Y-64940000D02*
X112350000Y-64940000D01*
X113000000Y-64940000D02*
X113650000Y-64940000D01*
X113000000Y-68060000D02*
X112350000Y-68060000D01*
X113000000Y-68060000D02*
X113650000Y-68060000D01*
X114402500Y-68340000D02*
X113922500Y-68340000D01*
X114162500Y-68010000D01*
X114402500Y-68340000D01*
G36*
X114402500Y-68340000D02*
G01*
X113922500Y-68340000D01*
X114162500Y-68010000D01*
X114402500Y-68340000D01*
G37*
X151265000Y-66511252D02*
X151265000Y-65988748D01*
X152735000Y-66511252D02*
X152735000Y-65988748D01*
X149000000Y-64940000D02*
X148350000Y-64940000D01*
X149000000Y-64940000D02*
X149650000Y-64940000D01*
X149000000Y-68060000D02*
X148350000Y-68060000D01*
X149000000Y-68060000D02*
X149650000Y-68060000D01*
X150402500Y-68340000D02*
X149922500Y-68340000D01*
X150162500Y-68010000D01*
X150402500Y-68340000D01*
G36*
X150402500Y-68340000D02*
G01*
X149922500Y-68340000D01*
X150162500Y-68010000D01*
X150402500Y-68340000D01*
G37*
X127265000Y-66511252D02*
X127265000Y-65988748D01*
X128735000Y-66511252D02*
X128735000Y-65988748D01*
X185000000Y-64940000D02*
X184350000Y-64940000D01*
X185000000Y-64940000D02*
X185650000Y-64940000D01*
X185000000Y-68060000D02*
X184350000Y-68060000D01*
X185000000Y-68060000D02*
X185650000Y-68060000D01*
X186402500Y-68340000D02*
X185922500Y-68340000D01*
X186162500Y-68010000D01*
X186402500Y-68340000D01*
G36*
X186402500Y-68340000D02*
G01*
X185922500Y-68340000D01*
X186162500Y-68010000D01*
X186402500Y-68340000D01*
G37*
X163265000Y-66511252D02*
X163265000Y-65988748D01*
X164735000Y-66511252D02*
X164735000Y-65988748D01*
M02*
