G04 #@! TF.GenerationSoftware,KiCad,Pcbnew,8.0.7*
G04 #@! TF.CreationDate,2026-01-04T11:36:19-08:00*
G04 #@! TF.ProjectId,mbira3,6d626972-6133-42e6-9b69-6361645f7063,rev?*
G04 #@! TF.SameCoordinates,Original*
G04 #@! TF.FileFunction,Copper,L1,Top*
G04 #@! TF.FilePolarity,Positive*
%FSLAX46Y46*%
G04 Gerber Fmt 4.6, Leading zero omitted, Abs format (unit mm)*
G04 Created by KiCad (PCBNEW 8.0.7) date 2026-01-04 11:36:19*
%MOMM*%
%LPD*%
G01*
G04 APERTURE LIST*
G04 Aperture macros list*
%AMRoundRect*
0 Rectangle with rounded corners*
0 $1 Rounding radius*
0 $2 $3 $4 $5 $6 $7 $8 $9 X,Y pos of 4 corners*
0 Add a 4 corners polygon primitive as box body*
4,1,4,$2,$3,$4,$5,$6,$7,$8,$9,$2,$3,0*
0 Add four circle primitives for the rounded corners*
1,1,$1+$1,$2,$3*
1,1,$1+$1,$4,$5*
1,1,$1+$1,$6,$7*
1,1,$1+$1,$8,$9*
0 Add four rect primitives between the rounded corners*
20,1,$1+$1,$2,$3,$4,$5,0*
20,1,$1+$1,$4,$5,$6,$7,0*
20,1,$1+$1,$6,$7,$8,$9,0*
20,1,$1+$1,$8,$9,$2,$3,0*%
G04 Aperture macros list end*
G04 #@! TA.AperFunction,SMDPad,CuDef*
%ADD10RoundRect,0.250000X0.475000X-0.337500X0.475000X0.337500X-0.475000X0.337500X-0.475000X-0.337500X0*%
G04 #@! TD*
G04 #@! TA.AperFunction,ComponentPad*
%ADD11C,1.700000*%
G04 #@! TD*
G04 #@! TA.AperFunction,SMDPad,CuDef*
%ADD12RoundRect,0.150000X0.587500X0.150000X-0.587500X0.150000X-0.587500X-0.150000X0.587500X-0.150000X0*%
G04 #@! TD*
G04 #@! TA.AperFunction,ComponentPad*
%ADD13R,1.000000X1.000000*%
G04 #@! TD*
G04 #@! TA.AperFunction,ComponentPad*
%ADD14O,1.000000X1.000000*%
G04 #@! TD*
G04 #@! TA.AperFunction,ViaPad*
%ADD15C,0.800000*%
G04 #@! TD*
G04 #@! TA.AperFunction,Conductor*
%ADD16C,0.250000*%
G04 #@! TD*
G04 #@! TA.AperFunction,Conductor*
%ADD17C,0.500000*%
G04 #@! TD*
G04 APERTURE END LIST*
D10*
X188000000Y-67287500D03*
X188000000Y-65212500D03*
X200000000Y-67287500D03*
X200000000Y-65212500D03*
X176000000Y-67287500D03*
X176000000Y-65212500D03*
D11*
X228620000Y-65080000D03*
X226080000Y-65080000D03*
X223540000Y-65080000D03*
X221000000Y-65080000D03*
X218460000Y-65080000D03*
X215920000Y-65080000D03*
X213380000Y-65080000D03*
D10*
X104000000Y-67287500D03*
X104000000Y-65212500D03*
X116000000Y-67287500D03*
X116000000Y-65212500D03*
D12*
X125937500Y-67450000D03*
X125937500Y-65550000D03*
X124062500Y-66500000D03*
X137937500Y-67450000D03*
X137937500Y-65550000D03*
X136062500Y-66500000D03*
X173937500Y-67450000D03*
X173937500Y-65550000D03*
X172062500Y-66500000D03*
D13*
X97000000Y-67000000D03*
D14*
X97000000Y-65730000D03*
X97000000Y-64460000D03*
X97000000Y-63190000D03*
D12*
X161937500Y-67450000D03*
X161937500Y-65550000D03*
X160062500Y-66500000D03*
D10*
X140000000Y-67287500D03*
X140000000Y-65212500D03*
D12*
X197937500Y-67450000D03*
X197937500Y-65550000D03*
X196062500Y-66500000D03*
X101937500Y-67450000D03*
X101937500Y-65550000D03*
X100062500Y-66500000D03*
X113937500Y-67450000D03*
X113937500Y-65550000D03*
X112062500Y-66500000D03*
D10*
X152000000Y-67287500D03*
X152000000Y-65212500D03*
D12*
X149937500Y-67450000D03*
X149937500Y-65550000D03*
X148062500Y-66500000D03*
D10*
X128000000Y-67287500D03*
X128000000Y-65212500D03*
D12*
X185937500Y-67450000D03*
X185937500Y-65550000D03*
X184062500Y-66500000D03*
D10*
X164000000Y-67287500D03*
X164000000Y-65212500D03*
D15*
X225250000Y-47500000D03*
X225750000Y-50000000D03*
X225250000Y-52500000D03*
X225250000Y-55250000D03*
X218750000Y-59250000D03*
X225000000Y-57750000D03*
X218250000Y-63000000D03*
X194884738Y-65650000D03*
X209750000Y-65950000D03*
X226000000Y-60500000D03*
X207250000Y-65950000D03*
X211500000Y-65675000D03*
X218000000Y-56750000D03*
X184250000Y-65500000D03*
X160500000Y-65500000D03*
X146500000Y-65700000D03*
X172250000Y-65500000D03*
D16*
X101937500Y-64062500D02*
X101937500Y-65550000D01*
X103500000Y-62500000D02*
X101937500Y-64062500D01*
X225250000Y-47500000D02*
X220500000Y-47500000D01*
X211500000Y-62500000D02*
X103500000Y-62500000D01*
X215750000Y-58250000D02*
X211500000Y-62500000D01*
X220500000Y-47500000D02*
X215750000Y-52250000D01*
X215750000Y-52250000D02*
X215750000Y-58250000D01*
D17*
X97500000Y-67500000D02*
X226250000Y-67500000D01*
X226250000Y-67500000D02*
X228750000Y-65000000D01*
X97000000Y-67000000D02*
X97500000Y-67500000D01*
X188750000Y-65250000D02*
X190050000Y-66550000D01*
X142300000Y-66550000D02*
X148250000Y-66550000D01*
X166250000Y-66500000D02*
X166500000Y-66500000D01*
X202800000Y-66800000D02*
X222450000Y-66800000D01*
X126750000Y-66500000D02*
X128000000Y-65250000D01*
X150450000Y-66550000D02*
X150500000Y-66500000D01*
X190800000Y-66500000D02*
X197750000Y-66500000D01*
X152000000Y-65250000D02*
X152750000Y-65250000D01*
X116000000Y-65250000D02*
X116750000Y-65250000D01*
X148250000Y-66550000D02*
X150450000Y-66550000D01*
X176750000Y-65250000D02*
X178000000Y-66500000D01*
X105250000Y-66500000D02*
X114750000Y-66500000D01*
X103000000Y-66250000D02*
X104000000Y-65250000D01*
X201250000Y-65250000D02*
X202800000Y-66800000D01*
X112000000Y-66500000D02*
X114500000Y-66500000D01*
X118000000Y-66500000D02*
X126750000Y-66500000D01*
X114750000Y-66500000D02*
X116000000Y-65250000D01*
X114500000Y-66500000D02*
X105250000Y-66500000D01*
X186750000Y-66500000D02*
X188000000Y-65250000D01*
X99500000Y-66500000D02*
X102750000Y-66500000D01*
X150750000Y-66500000D02*
X152000000Y-65250000D01*
X162500000Y-66500000D02*
X162750000Y-66500000D01*
X140000000Y-65250000D02*
X141000000Y-65250000D01*
X104000000Y-65250000D02*
X105250000Y-66500000D01*
X223500000Y-65750000D02*
X223500000Y-65000000D01*
X129750000Y-66500000D02*
X138750000Y-66500000D01*
X98730000Y-65730000D02*
X99500000Y-66500000D01*
X139937500Y-65062500D02*
X140000000Y-65000000D01*
X166500000Y-66500000D02*
X174750000Y-66500000D01*
X102750000Y-66500000D02*
X103000000Y-66250000D01*
X150500000Y-66500000D02*
X150750000Y-66500000D01*
X141000000Y-65250000D02*
X142300000Y-66550000D01*
X118000000Y-66500000D02*
X126500000Y-66500000D01*
X165000000Y-65250000D02*
X166250000Y-66500000D01*
X97000000Y-65730000D02*
X98730000Y-65730000D01*
X154250000Y-66500000D02*
X162500000Y-66500000D01*
X116750000Y-65250000D02*
X118000000Y-66500000D01*
X176000000Y-65250000D02*
X176750000Y-65250000D01*
X127937500Y-65062500D02*
X128000000Y-65000000D01*
X128000000Y-65250000D02*
X128500000Y-65250000D01*
X178000000Y-66500000D02*
X186500000Y-66500000D01*
X222450000Y-66800000D02*
X223500000Y-65750000D01*
X180000000Y-66500000D02*
X186750000Y-66500000D01*
X190800000Y-66500000D02*
X198750000Y-66500000D01*
X154000000Y-66500000D02*
X154250000Y-66500000D01*
X190050000Y-66550000D02*
X190750000Y-66550000D01*
X162750000Y-66500000D02*
X164000000Y-65250000D01*
X190750000Y-66550000D02*
X190800000Y-66500000D01*
X186500000Y-66500000D02*
X180000000Y-66500000D01*
X188000000Y-65250000D02*
X188750000Y-65250000D01*
X200000000Y-65250000D02*
X201250000Y-65250000D01*
X152750000Y-65250000D02*
X154000000Y-66500000D01*
X164000000Y-65250000D02*
X165000000Y-65250000D01*
X138750000Y-66500000D02*
X140000000Y-65250000D01*
X128500000Y-65250000D02*
X129750000Y-66500000D01*
X105250000Y-66500000D02*
X112000000Y-66500000D01*
X198750000Y-66500000D02*
X200000000Y-65250000D01*
X174750000Y-66500000D02*
X176000000Y-65250000D01*
D16*
X211777208Y-62950000D02*
X216200000Y-58527208D01*
X216200000Y-52550000D02*
X218000000Y-50750000D01*
X113937500Y-64562500D02*
X115550000Y-62950000D01*
X216200000Y-58527208D02*
X216200000Y-52550000D01*
X113937500Y-65550000D02*
X113937500Y-64562500D01*
X218000000Y-50750000D02*
X225000000Y-50750000D01*
X225000000Y-50750000D02*
X225750000Y-50000000D01*
X115550000Y-62950000D02*
X211777208Y-62950000D01*
X125750000Y-65250000D02*
X125750000Y-65500000D01*
X216650000Y-56350000D02*
X216650000Y-58713604D01*
X225250000Y-52500000D02*
X220500000Y-52500000D01*
X216650000Y-58713604D02*
X211963604Y-63400000D01*
X211963604Y-63400000D02*
X127600000Y-63400000D01*
X220500000Y-52500000D02*
X216650000Y-56350000D01*
X127600000Y-63400000D02*
X125750000Y-65250000D01*
X225250000Y-55250000D02*
X218386396Y-55250000D01*
X137937500Y-64562500D02*
X137937500Y-65550000D01*
X212150000Y-63850000D02*
X138650000Y-63850000D01*
X217100000Y-56536396D02*
X217100000Y-58900000D01*
X218386396Y-55250000D02*
X217100000Y-56536396D01*
X217100000Y-58900000D02*
X212150000Y-63850000D01*
X138650000Y-63850000D02*
X137937500Y-64562500D01*
X220250000Y-57750000D02*
X225000000Y-57750000D01*
X218750000Y-59250000D02*
X220250000Y-57750000D01*
X194884738Y-65650000D02*
X194984738Y-65550000D01*
X218250000Y-63000000D02*
X218250000Y-61500000D01*
X219250000Y-60500000D02*
X226000000Y-60500000D01*
X218250000Y-61500000D02*
X219250000Y-60500000D01*
X194984738Y-65550000D02*
X197937500Y-65550000D01*
X207250000Y-65950000D02*
X209750000Y-65950000D01*
X211500000Y-65250000D02*
X217750000Y-59000000D01*
X217750000Y-57000000D02*
X218000000Y-56750000D01*
X211500000Y-65675000D02*
X211500000Y-65250000D01*
X217750000Y-59000000D02*
X217750000Y-57000000D01*
X186250000Y-65500000D02*
X184250000Y-65500000D01*
X160500000Y-65500000D02*
X161887500Y-65500000D01*
X161887500Y-65500000D02*
X161937500Y-65550000D01*
X147137500Y-65062500D02*
X149562500Y-65062500D01*
X149562500Y-65062500D02*
X150000000Y-65500000D01*
X146500000Y-65700000D02*
X147137500Y-65062500D01*
X172250000Y-65500000D02*
X173887500Y-65500000D01*
X173887500Y-65500000D02*
X173937500Y-65550000D01*
M02*
