G04 #@! TF.GenerationSoftware,KiCad,Pcbnew,8.0.7*
G04 #@! TF.CreationDate,2025-06-18T10:27:29-04:00*
G04 #@! TF.ProjectId,ESP32_MIDI2CV,45535033-325f-44d4-9944-493243562e6b,rev?*
G04 #@! TF.SameCoordinates,Original*
G04 #@! TF.FileFunction,Paste,Top*
G04 #@! TF.FilePolarity,Positive*
%FSLAX46Y46*%
G04 Gerber Fmt 4.6, Leading zero omitted, Abs format (unit mm)*
G04 Created by KiCad (PCBNEW 8.0.7) date 2025-06-18 10:27:29*
%MOMM*%
%LPD*%
G01*
G04 APERTURE LIST*
G04 Aperture macros list*
%AMRoundRect*
0 Rectangle with rounded corners*
0 $1 Rounding radius*
0 $2 $3 $4 $5 $6 $7 $8 $9 X,Y pos of 4 corners*
0 Add a 4 corners polygon primitive as box body*
4,1,4,$2,$3,$4,$5,$6,$7,$8,$9,$2,$3,0*
0 Add four circle primitives for the rounded corners*
1,1,$1+$1,$2,$3*
1,1,$1+$1,$4,$5*
1,1,$1+$1,$6,$7*
1,1,$1+$1,$8,$9*
0 Add four rect primitives between the rounded corners*
20,1,$1+$1,$2,$3,$4,$5,0*
20,1,$1+$1,$4,$5,$6,$7,0*
20,1,$1+$1,$6,$7,$8,$9,0*
20,1,$1+$1,$8,$9,$2,$3,0*%
%AMFreePoly0*
4,1,11,0.600000,-3.000000,0.580902,-3.058779,0.530902,-3.095106,0.500000,-3.100000,-0.500000,-3.100000,-0.558779,-3.080902,-0.595106,-3.030902,-0.600000,-3.000000,-0.600000,1.000000,0.600000,1.000000,0.600000,-3.000000,0.600000,-3.000000,$1*%
G04 Aperture macros list end*
%ADD10RoundRect,0.250000X0.262500X0.450000X-0.262500X0.450000X-0.262500X-0.450000X0.262500X-0.450000X0*%
%ADD11RoundRect,0.150000X0.825000X0.150000X-0.825000X0.150000X-0.825000X-0.150000X0.825000X-0.150000X0*%
%ADD12RoundRect,0.087500X0.725000X0.087500X-0.725000X0.087500X-0.725000X-0.087500X0.725000X-0.087500X0*%
%ADD13RoundRect,0.250000X-0.262500X-0.450000X0.262500X-0.450000X0.262500X0.450000X-0.262500X0.450000X0*%
%ADD14FreePoly0,180.000000*%
%ADD15FreePoly0,0.000000*%
G04 APERTURE END LIST*
D10*
X167325000Y-48000000D03*
X165500000Y-48000000D03*
D11*
X185450000Y-60000000D03*
X185450000Y-58730000D03*
X185450000Y-57460000D03*
X185450000Y-56190000D03*
X180500000Y-56190000D03*
X180500000Y-57460000D03*
X180500000Y-58730000D03*
X180500000Y-60000000D03*
D12*
X176587500Y-59595000D03*
X176587500Y-59095000D03*
X176587500Y-58595000D03*
X176587500Y-58095000D03*
X176587500Y-57595000D03*
X172362500Y-57595000D03*
X172362500Y-58095000D03*
X172362500Y-58595000D03*
X172362500Y-59095000D03*
X172362500Y-59595000D03*
D10*
X176887500Y-55095000D03*
X175062500Y-55095000D03*
X167325000Y-58000000D03*
X165500000Y-58000000D03*
X167412500Y-33500000D03*
X165587500Y-33500000D03*
X167325000Y-61500000D03*
X165500000Y-61500000D03*
X167325000Y-51500000D03*
X165500000Y-51500000D03*
X167412500Y-37000000D03*
X165587500Y-37000000D03*
D13*
X196087500Y-62000000D03*
X197912500Y-62000000D03*
D14*
X201660000Y-35380000D03*
X199120000Y-35380000D03*
X196580000Y-35380000D03*
X194040000Y-35380000D03*
X191500000Y-35380000D03*
X188960000Y-35380000D03*
X186420000Y-35380000D03*
X183880000Y-35380000D03*
X181340000Y-35380000D03*
D15*
X181340000Y-50620000D03*
X183880000Y-50620000D03*
X186420000Y-50620000D03*
X188960000Y-50620000D03*
X191500000Y-50620000D03*
X194040000Y-50620000D03*
X196580000Y-50620000D03*
X199120000Y-50620000D03*
X201660000Y-50620000D03*
D13*
X190000000Y-62000000D03*
X191825000Y-62000000D03*
M02*
