M48
; DRILL file {KiCad 8.0.7} date 2026-01-04T11:29:45-0800
; FORMAT={-:-/ absolute / metric / decimal}
; #@! TF.CreationDate,2026-01-04T11:29:45-08:00
; #@! TF.GenerationSoftware,Kicad,Pcbnew,8.0.7
; #@! TF.FileFunction,Plated,1,2,PTH
FMAT,2
METRIC
; #@! TA.AperFunction,Plated,PTH,ViaDrill
T1C0.400
; #@! TA.AperFunction,Plated,PTH,ComponentDrill
T2C0.650
; #@! TA.AperFunction,Plated,PTH,ComponentDrill
T3C1.000
%
G90
G05
T1
X107.625Y-59.1
X108.0Y-62.5
X109.0Y-57.0
X109.25Y-62.5
X110.75Y-62.5
X111.0Y-60.25
X112.0Y-62.5
X113.5Y-62.5
X114.5Y-60.25
X114.75Y-62.5
X116.0Y-60.25
X116.25Y-62.5
X117.25Y-62.5
X118.5Y-59.25
X118.5Y-62.5
X120.0Y-59.1
X120.0Y-62.5
X121.25Y-62.5
X122.75Y-62.5
X124.0Y-62.5
X124.75Y-57.0
X125.5Y-62.75
X126.75Y-61.45
X127.25Y-62.75
X128.25Y-58.75
X130.0Y-59.75
X133.35Y-58.25
X135.25Y-67.5
X136.675Y-58.5
X138.75Y-60.0
X142.025Y-59.25
X142.25Y-56.5
X146.5Y-59.0
X149.0Y-59.5
X150.0Y-59.75
X151.75Y-58.75
X153.25Y-59.0
X158.75Y-56.75
X161.25Y-56.75
X161.75Y-65.0
X163.25Y-65.0
X164.0Y-57.0
X169.5Y-56.5
X172.25Y-65.5
X172.5Y-57.5
X175.0Y-57.0
X177.25Y-61.5
X180.5Y-61.5
X183.0Y-61.5
X183.5Y-57.5
X184.25Y-65.5
X186.0Y-57.0
X194.5Y-57.0
X194.885Y-65.65
X197.0Y-57.0
X200.5Y-57.25
X202.75Y-57.25
X202.75Y-61.5
X206.0Y-57.0
X207.0Y-61.5
X207.75Y-56.5
X214.75Y-41.0
X214.75Y-50.0
X215.5Y-44.0
X218.25Y-63.0
X224.25Y-41.0
X226.0Y-41.5
X226.0Y-47.475
X226.0Y-50.0
X226.0Y-52.54
X226.0Y-55.08
X226.0Y-57.75
X226.0Y-60.5
T2
X105.0Y-61.19
X105.0Y-62.46
X105.0Y-63.73
X105.0Y-65.0
T3
X213.38Y-65.08
X215.92Y-65.08
X218.46Y-65.08
X221.0Y-65.08
X223.54Y-65.08
X226.08Y-65.08
X228.62Y-65.08
M30
