G04 #@! TF.GenerationSoftware,KiCad,Pcbnew,8.0.7*
G04 #@! TF.CreationDate,2026-01-04T11:29:54-08:00*
G04 #@! TF.ProjectId,mbira3c,6d626972-6133-4632-9e6b-696361645f70,rev?*
G04 #@! TF.SameCoordinates,Original*
G04 #@! TF.FileFunction,Legend,Top*
G04 #@! TF.FilePolarity,Positive*
%FSLAX46Y46*%
G04 Gerber Fmt 4.6, Leading zero omitted, Abs format (unit mm)*
G04 Created by KiCad (PCBNEW 8.0.7) date 2026-01-04 11:29:54*
%MOMM*%
%LPD*%
G01*
G04 APERTURE LIST*
%ADD10C,0.150000*%
%ADD11C,0.120000*%
G04 APERTURE END LIST*
D10*
X115039160Y-63072200D02*
X115182017Y-63119819D01*
X115182017Y-63119819D02*
X115420112Y-63119819D01*
X115420112Y-63119819D02*
X115515350Y-63072200D01*
X115515350Y-63072200D02*
X115562969Y-63024580D01*
X115562969Y-63024580D02*
X115610588Y-62929342D01*
X115610588Y-62929342D02*
X115610588Y-62834104D01*
X115610588Y-62834104D02*
X115562969Y-62738866D01*
X115562969Y-62738866D02*
X115515350Y-62691247D01*
X115515350Y-62691247D02*
X115420112Y-62643628D01*
X115420112Y-62643628D02*
X115229636Y-62596009D01*
X115229636Y-62596009D02*
X115134398Y-62548390D01*
X115134398Y-62548390D02*
X115086779Y-62500771D01*
X115086779Y-62500771D02*
X115039160Y-62405533D01*
X115039160Y-62405533D02*
X115039160Y-62310295D01*
X115039160Y-62310295D02*
X115086779Y-62215057D01*
X115086779Y-62215057D02*
X115134398Y-62167438D01*
X115134398Y-62167438D02*
X115229636Y-62119819D01*
X115229636Y-62119819D02*
X115467731Y-62119819D01*
X115467731Y-62119819D02*
X115610588Y-62167438D01*
X116467731Y-63119819D02*
X116467731Y-62596009D01*
X116467731Y-62596009D02*
X116420112Y-62500771D01*
X116420112Y-62500771D02*
X116324874Y-62453152D01*
X116324874Y-62453152D02*
X116134398Y-62453152D01*
X116134398Y-62453152D02*
X116039160Y-62500771D01*
X116467731Y-63072200D02*
X116372493Y-63119819D01*
X116372493Y-63119819D02*
X116134398Y-63119819D01*
X116134398Y-63119819D02*
X116039160Y-63072200D01*
X116039160Y-63072200D02*
X115991541Y-62976961D01*
X115991541Y-62976961D02*
X115991541Y-62881723D01*
X115991541Y-62881723D02*
X116039160Y-62786485D01*
X116039160Y-62786485D02*
X116134398Y-62738866D01*
X116134398Y-62738866D02*
X116372493Y-62738866D01*
X116372493Y-62738866D02*
X116467731Y-62691247D01*
X116943922Y-62453152D02*
X116943922Y-63119819D01*
X116943922Y-62548390D02*
X116991541Y-62500771D01*
X116991541Y-62500771D02*
X117086779Y-62453152D01*
X117086779Y-62453152D02*
X117229636Y-62453152D01*
X117229636Y-62453152D02*
X117324874Y-62500771D01*
X117324874Y-62500771D02*
X117372493Y-62596009D01*
X117372493Y-62596009D02*
X117372493Y-63119819D01*
X118943922Y-62596009D02*
X118610589Y-62596009D01*
X118610589Y-63119819D02*
X118610589Y-62119819D01*
X118610589Y-62119819D02*
X119086779Y-62119819D01*
X119467732Y-63119819D02*
X119467732Y-62453152D01*
X119467732Y-62643628D02*
X119515351Y-62548390D01*
X119515351Y-62548390D02*
X119562970Y-62500771D01*
X119562970Y-62500771D02*
X119658208Y-62453152D01*
X119658208Y-62453152D02*
X119753446Y-62453152D01*
X120515351Y-63119819D02*
X120515351Y-62596009D01*
X120515351Y-62596009D02*
X120467732Y-62500771D01*
X120467732Y-62500771D02*
X120372494Y-62453152D01*
X120372494Y-62453152D02*
X120182018Y-62453152D01*
X120182018Y-62453152D02*
X120086780Y-62500771D01*
X120515351Y-63072200D02*
X120420113Y-63119819D01*
X120420113Y-63119819D02*
X120182018Y-63119819D01*
X120182018Y-63119819D02*
X120086780Y-63072200D01*
X120086780Y-63072200D02*
X120039161Y-62976961D01*
X120039161Y-62976961D02*
X120039161Y-62881723D01*
X120039161Y-62881723D02*
X120086780Y-62786485D01*
X120086780Y-62786485D02*
X120182018Y-62738866D01*
X120182018Y-62738866D02*
X120420113Y-62738866D01*
X120420113Y-62738866D02*
X120515351Y-62691247D01*
X120991542Y-62453152D02*
X120991542Y-63119819D01*
X120991542Y-62548390D02*
X121039161Y-62500771D01*
X121039161Y-62500771D02*
X121134399Y-62453152D01*
X121134399Y-62453152D02*
X121277256Y-62453152D01*
X121277256Y-62453152D02*
X121372494Y-62500771D01*
X121372494Y-62500771D02*
X121420113Y-62596009D01*
X121420113Y-62596009D02*
X121420113Y-63119819D01*
X121848685Y-63072200D02*
X121943923Y-63119819D01*
X121943923Y-63119819D02*
X122134399Y-63119819D01*
X122134399Y-63119819D02*
X122229637Y-63072200D01*
X122229637Y-63072200D02*
X122277256Y-62976961D01*
X122277256Y-62976961D02*
X122277256Y-62929342D01*
X122277256Y-62929342D02*
X122229637Y-62834104D01*
X122229637Y-62834104D02*
X122134399Y-62786485D01*
X122134399Y-62786485D02*
X121991542Y-62786485D01*
X121991542Y-62786485D02*
X121896304Y-62738866D01*
X121896304Y-62738866D02*
X121848685Y-62643628D01*
X121848685Y-62643628D02*
X121848685Y-62596009D01*
X121848685Y-62596009D02*
X121896304Y-62500771D01*
X121896304Y-62500771D02*
X121991542Y-62453152D01*
X121991542Y-62453152D02*
X122134399Y-62453152D01*
X122134399Y-62453152D02*
X122229637Y-62500771D01*
X123134399Y-63072200D02*
X123039161Y-63119819D01*
X123039161Y-63119819D02*
X122848685Y-63119819D01*
X122848685Y-63119819D02*
X122753447Y-63072200D01*
X122753447Y-63072200D02*
X122705828Y-63024580D01*
X122705828Y-63024580D02*
X122658209Y-62929342D01*
X122658209Y-62929342D02*
X122658209Y-62643628D01*
X122658209Y-62643628D02*
X122705828Y-62548390D01*
X122705828Y-62548390D02*
X122753447Y-62500771D01*
X122753447Y-62500771D02*
X122848685Y-62453152D01*
X122848685Y-62453152D02*
X123039161Y-62453152D01*
X123039161Y-62453152D02*
X123134399Y-62500771D01*
X123562971Y-63119819D02*
X123562971Y-62453152D01*
X123562971Y-62119819D02*
X123515352Y-62167438D01*
X123515352Y-62167438D02*
X123562971Y-62215057D01*
X123562971Y-62215057D02*
X123610590Y-62167438D01*
X123610590Y-62167438D02*
X123562971Y-62119819D01*
X123562971Y-62119819D02*
X123562971Y-62215057D01*
X123991542Y-63072200D02*
X124086780Y-63119819D01*
X124086780Y-63119819D02*
X124277256Y-63119819D01*
X124277256Y-63119819D02*
X124372494Y-63072200D01*
X124372494Y-63072200D02*
X124420113Y-62976961D01*
X124420113Y-62976961D02*
X124420113Y-62929342D01*
X124420113Y-62929342D02*
X124372494Y-62834104D01*
X124372494Y-62834104D02*
X124277256Y-62786485D01*
X124277256Y-62786485D02*
X124134399Y-62786485D01*
X124134399Y-62786485D02*
X124039161Y-62738866D01*
X124039161Y-62738866D02*
X123991542Y-62643628D01*
X123991542Y-62643628D02*
X123991542Y-62596009D01*
X123991542Y-62596009D02*
X124039161Y-62500771D01*
X124039161Y-62500771D02*
X124134399Y-62453152D01*
X124134399Y-62453152D02*
X124277256Y-62453152D01*
X124277256Y-62453152D02*
X124372494Y-62500771D01*
X125277256Y-63072200D02*
X125182018Y-63119819D01*
X125182018Y-63119819D02*
X124991542Y-63119819D01*
X124991542Y-63119819D02*
X124896304Y-63072200D01*
X124896304Y-63072200D02*
X124848685Y-63024580D01*
X124848685Y-63024580D02*
X124801066Y-62929342D01*
X124801066Y-62929342D02*
X124801066Y-62643628D01*
X124801066Y-62643628D02*
X124848685Y-62548390D01*
X124848685Y-62548390D02*
X124896304Y-62500771D01*
X124896304Y-62500771D02*
X124991542Y-62453152D01*
X124991542Y-62453152D02*
X125182018Y-62453152D01*
X125182018Y-62453152D02*
X125277256Y-62500771D01*
X125848685Y-63119819D02*
X125753447Y-63072200D01*
X125753447Y-63072200D02*
X125705828Y-63024580D01*
X125705828Y-63024580D02*
X125658209Y-62929342D01*
X125658209Y-62929342D02*
X125658209Y-62643628D01*
X125658209Y-62643628D02*
X125705828Y-62548390D01*
X125705828Y-62548390D02*
X125753447Y-62500771D01*
X125753447Y-62500771D02*
X125848685Y-62453152D01*
X125848685Y-62453152D02*
X125991542Y-62453152D01*
X125991542Y-62453152D02*
X126086780Y-62500771D01*
X126086780Y-62500771D02*
X126134399Y-62548390D01*
X126134399Y-62548390D02*
X126182018Y-62643628D01*
X126182018Y-62643628D02*
X126182018Y-62929342D01*
X126182018Y-62929342D02*
X126134399Y-63024580D01*
X126134399Y-63024580D02*
X126086780Y-63072200D01*
X126086780Y-63072200D02*
X125991542Y-63119819D01*
X125991542Y-63119819D02*
X125848685Y-63119819D01*
X108086779Y-61369819D02*
X108086779Y-60703152D01*
X108086779Y-60369819D02*
X108039160Y-60417438D01*
X108039160Y-60417438D02*
X108086779Y-60465057D01*
X108086779Y-60465057D02*
X108134398Y-60417438D01*
X108134398Y-60417438D02*
X108086779Y-60369819D01*
X108086779Y-60369819D02*
X108086779Y-60465057D01*
X108991540Y-61369819D02*
X108991540Y-60846009D01*
X108991540Y-60846009D02*
X108943921Y-60750771D01*
X108943921Y-60750771D02*
X108848683Y-60703152D01*
X108848683Y-60703152D02*
X108658207Y-60703152D01*
X108658207Y-60703152D02*
X108562969Y-60750771D01*
X108991540Y-61322200D02*
X108896302Y-61369819D01*
X108896302Y-61369819D02*
X108658207Y-61369819D01*
X108658207Y-61369819D02*
X108562969Y-61322200D01*
X108562969Y-61322200D02*
X108515350Y-61226961D01*
X108515350Y-61226961D02*
X108515350Y-61131723D01*
X108515350Y-61131723D02*
X108562969Y-61036485D01*
X108562969Y-61036485D02*
X108658207Y-60988866D01*
X108658207Y-60988866D02*
X108896302Y-60988866D01*
X108896302Y-60988866D02*
X108991540Y-60941247D01*
X109467731Y-60703152D02*
X109467731Y-61369819D01*
X109467731Y-60798390D02*
X109515350Y-60750771D01*
X109515350Y-60750771D02*
X109610588Y-60703152D01*
X109610588Y-60703152D02*
X109753445Y-60703152D01*
X109753445Y-60703152D02*
X109848683Y-60750771D01*
X109848683Y-60750771D02*
X109896302Y-60846009D01*
X109896302Y-60846009D02*
X109896302Y-61369819D01*
X111134398Y-61369819D02*
X111134398Y-60369819D01*
X111562969Y-61369819D02*
X111562969Y-60846009D01*
X111562969Y-60846009D02*
X111515350Y-60750771D01*
X111515350Y-60750771D02*
X111420112Y-60703152D01*
X111420112Y-60703152D02*
X111277255Y-60703152D01*
X111277255Y-60703152D02*
X111182017Y-60750771D01*
X111182017Y-60750771D02*
X111134398Y-60798390D01*
X112467731Y-61369819D02*
X112467731Y-60846009D01*
X112467731Y-60846009D02*
X112420112Y-60750771D01*
X112420112Y-60750771D02*
X112324874Y-60703152D01*
X112324874Y-60703152D02*
X112134398Y-60703152D01*
X112134398Y-60703152D02*
X112039160Y-60750771D01*
X112467731Y-61322200D02*
X112372493Y-61369819D01*
X112372493Y-61369819D02*
X112134398Y-61369819D01*
X112134398Y-61369819D02*
X112039160Y-61322200D01*
X112039160Y-61322200D02*
X111991541Y-61226961D01*
X111991541Y-61226961D02*
X111991541Y-61131723D01*
X111991541Y-61131723D02*
X112039160Y-61036485D01*
X112039160Y-61036485D02*
X112134398Y-60988866D01*
X112134398Y-60988866D02*
X112372493Y-60988866D01*
X112372493Y-60988866D02*
X112467731Y-60941247D01*
X112801065Y-60703152D02*
X113182017Y-60703152D01*
X112943922Y-60369819D02*
X112943922Y-61226961D01*
X112943922Y-61226961D02*
X112991541Y-61322200D01*
X112991541Y-61322200D02*
X113086779Y-61369819D01*
X113086779Y-61369819D02*
X113182017Y-61369819D01*
X113372494Y-60703152D02*
X113753446Y-60703152D01*
X113515351Y-60369819D02*
X113515351Y-61226961D01*
X113515351Y-61226961D02*
X113562970Y-61322200D01*
X113562970Y-61322200D02*
X113658208Y-61369819D01*
X113658208Y-61369819D02*
X113753446Y-61369819D01*
X113991542Y-60703152D02*
X114182018Y-61369819D01*
X114182018Y-61369819D02*
X114372494Y-60893628D01*
X114372494Y-60893628D02*
X114562970Y-61369819D01*
X114562970Y-61369819D02*
X114753446Y-60703152D01*
X115134399Y-61369819D02*
X115134399Y-60703152D01*
X115134399Y-60369819D02*
X115086780Y-60417438D01*
X115086780Y-60417438D02*
X115134399Y-60465057D01*
X115134399Y-60465057D02*
X115182018Y-60417438D01*
X115182018Y-60417438D02*
X115134399Y-60369819D01*
X115134399Y-60369819D02*
X115134399Y-60465057D01*
X116039160Y-61322200D02*
X115943922Y-61369819D01*
X115943922Y-61369819D02*
X115753446Y-61369819D01*
X115753446Y-61369819D02*
X115658208Y-61322200D01*
X115658208Y-61322200D02*
X115610589Y-61274580D01*
X115610589Y-61274580D02*
X115562970Y-61179342D01*
X115562970Y-61179342D02*
X115562970Y-60893628D01*
X115562970Y-60893628D02*
X115610589Y-60798390D01*
X115610589Y-60798390D02*
X115658208Y-60750771D01*
X115658208Y-60750771D02*
X115753446Y-60703152D01*
X115753446Y-60703152D02*
X115943922Y-60703152D01*
X115943922Y-60703152D02*
X116039160Y-60750771D01*
X116467732Y-61369819D02*
X116467732Y-60369819D01*
X116562970Y-60988866D02*
X116848684Y-61369819D01*
X116848684Y-60703152D02*
X116467732Y-61084104D01*
X118039161Y-61369819D02*
X118039161Y-60369819D01*
X118039161Y-60369819D02*
X118277256Y-60369819D01*
X118277256Y-60369819D02*
X118420113Y-60417438D01*
X118420113Y-60417438D02*
X118515351Y-60512676D01*
X118515351Y-60512676D02*
X118562970Y-60607914D01*
X118562970Y-60607914D02*
X118610589Y-60798390D01*
X118610589Y-60798390D02*
X118610589Y-60941247D01*
X118610589Y-60941247D02*
X118562970Y-61131723D01*
X118562970Y-61131723D02*
X118515351Y-61226961D01*
X118515351Y-61226961D02*
X118420113Y-61322200D01*
X118420113Y-61322200D02*
X118277256Y-61369819D01*
X118277256Y-61369819D02*
X118039161Y-61369819D01*
X119420113Y-61322200D02*
X119324875Y-61369819D01*
X119324875Y-61369819D02*
X119134399Y-61369819D01*
X119134399Y-61369819D02*
X119039161Y-61322200D01*
X119039161Y-61322200D02*
X118991542Y-61226961D01*
X118991542Y-61226961D02*
X118991542Y-60846009D01*
X118991542Y-60846009D02*
X119039161Y-60750771D01*
X119039161Y-60750771D02*
X119134399Y-60703152D01*
X119134399Y-60703152D02*
X119324875Y-60703152D01*
X119324875Y-60703152D02*
X119420113Y-60750771D01*
X119420113Y-60750771D02*
X119467732Y-60846009D01*
X119467732Y-60846009D02*
X119467732Y-60941247D01*
X119467732Y-60941247D02*
X118991542Y-61036485D01*
X120324875Y-61322200D02*
X120229637Y-61369819D01*
X120229637Y-61369819D02*
X120039161Y-61369819D01*
X120039161Y-61369819D02*
X119943923Y-61322200D01*
X119943923Y-61322200D02*
X119896304Y-61274580D01*
X119896304Y-61274580D02*
X119848685Y-61179342D01*
X119848685Y-61179342D02*
X119848685Y-60893628D01*
X119848685Y-60893628D02*
X119896304Y-60798390D01*
X119896304Y-60798390D02*
X119943923Y-60750771D01*
X119943923Y-60750771D02*
X120039161Y-60703152D01*
X120039161Y-60703152D02*
X120229637Y-60703152D01*
X120229637Y-60703152D02*
X120324875Y-60750771D01*
X121467733Y-60465057D02*
X121515352Y-60417438D01*
X121515352Y-60417438D02*
X121610590Y-60369819D01*
X121610590Y-60369819D02*
X121848685Y-60369819D01*
X121848685Y-60369819D02*
X121943923Y-60417438D01*
X121943923Y-60417438D02*
X121991542Y-60465057D01*
X121991542Y-60465057D02*
X122039161Y-60560295D01*
X122039161Y-60560295D02*
X122039161Y-60655533D01*
X122039161Y-60655533D02*
X121991542Y-60798390D01*
X121991542Y-60798390D02*
X121420114Y-61369819D01*
X121420114Y-61369819D02*
X122039161Y-61369819D01*
X122658209Y-60369819D02*
X122753447Y-60369819D01*
X122753447Y-60369819D02*
X122848685Y-60417438D01*
X122848685Y-60417438D02*
X122896304Y-60465057D01*
X122896304Y-60465057D02*
X122943923Y-60560295D01*
X122943923Y-60560295D02*
X122991542Y-60750771D01*
X122991542Y-60750771D02*
X122991542Y-60988866D01*
X122991542Y-60988866D02*
X122943923Y-61179342D01*
X122943923Y-61179342D02*
X122896304Y-61274580D01*
X122896304Y-61274580D02*
X122848685Y-61322200D01*
X122848685Y-61322200D02*
X122753447Y-61369819D01*
X122753447Y-61369819D02*
X122658209Y-61369819D01*
X122658209Y-61369819D02*
X122562971Y-61322200D01*
X122562971Y-61322200D02*
X122515352Y-61274580D01*
X122515352Y-61274580D02*
X122467733Y-61179342D01*
X122467733Y-61179342D02*
X122420114Y-60988866D01*
X122420114Y-60988866D02*
X122420114Y-60750771D01*
X122420114Y-60750771D02*
X122467733Y-60560295D01*
X122467733Y-60560295D02*
X122515352Y-60465057D01*
X122515352Y-60465057D02*
X122562971Y-60417438D01*
X122562971Y-60417438D02*
X122658209Y-60369819D01*
X123372495Y-60465057D02*
X123420114Y-60417438D01*
X123420114Y-60417438D02*
X123515352Y-60369819D01*
X123515352Y-60369819D02*
X123753447Y-60369819D01*
X123753447Y-60369819D02*
X123848685Y-60417438D01*
X123848685Y-60417438D02*
X123896304Y-60465057D01*
X123896304Y-60465057D02*
X123943923Y-60560295D01*
X123943923Y-60560295D02*
X123943923Y-60655533D01*
X123943923Y-60655533D02*
X123896304Y-60798390D01*
X123896304Y-60798390D02*
X123324876Y-61369819D01*
X123324876Y-61369819D02*
X123943923Y-61369819D01*
X124848685Y-60369819D02*
X124372495Y-60369819D01*
X124372495Y-60369819D02*
X124324876Y-60846009D01*
X124324876Y-60846009D02*
X124372495Y-60798390D01*
X124372495Y-60798390D02*
X124467733Y-60750771D01*
X124467733Y-60750771D02*
X124705828Y-60750771D01*
X124705828Y-60750771D02*
X124801066Y-60798390D01*
X124801066Y-60798390D02*
X124848685Y-60846009D01*
X124848685Y-60846009D02*
X124896304Y-60941247D01*
X124896304Y-60941247D02*
X124896304Y-61179342D01*
X124896304Y-61179342D02*
X124848685Y-61274580D01*
X124848685Y-61274580D02*
X124801066Y-61322200D01*
X124801066Y-61322200D02*
X124705828Y-61369819D01*
X124705828Y-61369819D02*
X124467733Y-61369819D01*
X124467733Y-61369819D02*
X124372495Y-61322200D01*
X124372495Y-61322200D02*
X124324876Y-61274580D01*
X108086779Y-63119819D02*
X108086779Y-62453152D01*
X108086779Y-62548390D02*
X108134398Y-62500771D01*
X108134398Y-62500771D02*
X108229636Y-62453152D01*
X108229636Y-62453152D02*
X108372493Y-62453152D01*
X108372493Y-62453152D02*
X108467731Y-62500771D01*
X108467731Y-62500771D02*
X108515350Y-62596009D01*
X108515350Y-62596009D02*
X108515350Y-63119819D01*
X108515350Y-62596009D02*
X108562969Y-62500771D01*
X108562969Y-62500771D02*
X108658207Y-62453152D01*
X108658207Y-62453152D02*
X108801064Y-62453152D01*
X108801064Y-62453152D02*
X108896303Y-62500771D01*
X108896303Y-62500771D02*
X108943922Y-62596009D01*
X108943922Y-62596009D02*
X108943922Y-63119819D01*
X109420112Y-63119819D02*
X109420112Y-62119819D01*
X109420112Y-62500771D02*
X109515350Y-62453152D01*
X109515350Y-62453152D02*
X109705826Y-62453152D01*
X109705826Y-62453152D02*
X109801064Y-62500771D01*
X109801064Y-62500771D02*
X109848683Y-62548390D01*
X109848683Y-62548390D02*
X109896302Y-62643628D01*
X109896302Y-62643628D02*
X109896302Y-62929342D01*
X109896302Y-62929342D02*
X109848683Y-63024580D01*
X109848683Y-63024580D02*
X109801064Y-63072200D01*
X109801064Y-63072200D02*
X109705826Y-63119819D01*
X109705826Y-63119819D02*
X109515350Y-63119819D01*
X109515350Y-63119819D02*
X109420112Y-63072200D01*
X110324874Y-63119819D02*
X110324874Y-62453152D01*
X110324874Y-62119819D02*
X110277255Y-62167438D01*
X110277255Y-62167438D02*
X110324874Y-62215057D01*
X110324874Y-62215057D02*
X110372493Y-62167438D01*
X110372493Y-62167438D02*
X110324874Y-62119819D01*
X110324874Y-62119819D02*
X110324874Y-62215057D01*
X110801064Y-63119819D02*
X110801064Y-62453152D01*
X110801064Y-62643628D02*
X110848683Y-62548390D01*
X110848683Y-62548390D02*
X110896302Y-62500771D01*
X110896302Y-62500771D02*
X110991540Y-62453152D01*
X110991540Y-62453152D02*
X111086778Y-62453152D01*
X111848683Y-63119819D02*
X111848683Y-62596009D01*
X111848683Y-62596009D02*
X111801064Y-62500771D01*
X111801064Y-62500771D02*
X111705826Y-62453152D01*
X111705826Y-62453152D02*
X111515350Y-62453152D01*
X111515350Y-62453152D02*
X111420112Y-62500771D01*
X111848683Y-63072200D02*
X111753445Y-63119819D01*
X111753445Y-63119819D02*
X111515350Y-63119819D01*
X111515350Y-63119819D02*
X111420112Y-63072200D01*
X111420112Y-63072200D02*
X111372493Y-62976961D01*
X111372493Y-62976961D02*
X111372493Y-62881723D01*
X111372493Y-62881723D02*
X111420112Y-62786485D01*
X111420112Y-62786485D02*
X111515350Y-62738866D01*
X111515350Y-62738866D02*
X111753445Y-62738866D01*
X111753445Y-62738866D02*
X111848683Y-62691247D01*
X112229636Y-62119819D02*
X112848683Y-62119819D01*
X112848683Y-62119819D02*
X112515350Y-62500771D01*
X112515350Y-62500771D02*
X112658207Y-62500771D01*
X112658207Y-62500771D02*
X112753445Y-62548390D01*
X112753445Y-62548390D02*
X112801064Y-62596009D01*
X112801064Y-62596009D02*
X112848683Y-62691247D01*
X112848683Y-62691247D02*
X112848683Y-62929342D01*
X112848683Y-62929342D02*
X112801064Y-63024580D01*
X112801064Y-63024580D02*
X112753445Y-63072200D01*
X112753445Y-63072200D02*
X112658207Y-63119819D01*
X112658207Y-63119819D02*
X112372493Y-63119819D01*
X112372493Y-63119819D02*
X112277255Y-63072200D01*
X112277255Y-63072200D02*
X112229636Y-63024580D01*
X113705826Y-63072200D02*
X113610588Y-63119819D01*
X113610588Y-63119819D02*
X113420112Y-63119819D01*
X113420112Y-63119819D02*
X113324874Y-63072200D01*
X113324874Y-63072200D02*
X113277255Y-63024580D01*
X113277255Y-63024580D02*
X113229636Y-62929342D01*
X113229636Y-62929342D02*
X113229636Y-62643628D01*
X113229636Y-62643628D02*
X113277255Y-62548390D01*
X113277255Y-62548390D02*
X113324874Y-62500771D01*
X113324874Y-62500771D02*
X113420112Y-62453152D01*
X113420112Y-62453152D02*
X113610588Y-62453152D01*
X113610588Y-62453152D02*
X113705826Y-62500771D01*
D11*
X188515000Y-66511252D02*
X188515000Y-65988748D01*
X189985000Y-66511252D02*
X189985000Y-65988748D01*
X199265000Y-66511252D02*
X199265000Y-65988748D01*
X200735000Y-66511252D02*
X200735000Y-65988748D01*
X177265000Y-66511252D02*
X177265000Y-65988748D01*
X178735000Y-66511252D02*
X178735000Y-65988748D01*
X162250000Y-56600000D02*
X162750000Y-56600000D01*
X162750000Y-56600000D02*
X163000000Y-56350000D01*
X165250000Y-56600000D02*
X165000000Y-56350000D01*
X165250000Y-56600000D02*
X165750000Y-56600000D01*
X162840000Y-58930000D02*
X162360000Y-58930000D01*
X162600000Y-58600000D01*
X162840000Y-58930000D01*
G36*
X162840000Y-58930000D02*
G01*
X162360000Y-58930000D01*
X162600000Y-58600000D01*
X162840000Y-58930000D01*
G37*
X118250000Y-56500000D02*
X118750000Y-56500000D01*
X118750000Y-56500000D02*
X119000000Y-56250000D01*
X121250000Y-56500000D02*
X121000000Y-56250000D01*
X121250000Y-56500000D02*
X121750000Y-56500000D01*
X118840000Y-58830000D02*
X118360000Y-58830000D01*
X118600000Y-58500000D01*
X118840000Y-58830000D01*
G36*
X118840000Y-58830000D02*
G01*
X118360000Y-58830000D01*
X118600000Y-58500000D01*
X118840000Y-58830000D01*
G37*
X195250000Y-56500000D02*
X195750000Y-56500000D01*
X195750000Y-56500000D02*
X196000000Y-56250000D01*
X198250000Y-56500000D02*
X198000000Y-56250000D01*
X198250000Y-56500000D02*
X198750000Y-56500000D01*
X195840000Y-58830000D02*
X195360000Y-58830000D01*
X195600000Y-58500000D01*
X195840000Y-58830000D01*
G36*
X195840000Y-58830000D02*
G01*
X195360000Y-58830000D01*
X195600000Y-58500000D01*
X195840000Y-58830000D01*
G37*
X212000000Y-66500000D02*
X212000000Y-53500000D01*
X230000000Y-53500000D02*
X212000000Y-53500000D01*
X230000000Y-66500000D02*
X212000000Y-66500000D01*
X230000000Y-66500000D02*
X230000000Y-53500000D01*
X111265000Y-66511252D02*
X111265000Y-65988748D01*
X112735000Y-66511252D02*
X112735000Y-65988748D01*
X173250000Y-56500000D02*
X173750000Y-56500000D01*
X173750000Y-56500000D02*
X174000000Y-56250000D01*
X176250000Y-56500000D02*
X176000000Y-56250000D01*
X176250000Y-56500000D02*
X176750000Y-56500000D01*
X173840000Y-58830000D02*
X173360000Y-58830000D01*
X173600000Y-58500000D01*
X173840000Y-58830000D01*
G36*
X173840000Y-58830000D02*
G01*
X173360000Y-58830000D01*
X173600000Y-58500000D01*
X173840000Y-58830000D01*
G37*
X122515000Y-66511252D02*
X122515000Y-65988748D01*
X123985000Y-66511252D02*
X123985000Y-65988748D01*
X131000000Y-64940000D02*
X130350000Y-64940000D01*
X131000000Y-64940000D02*
X131650000Y-64940000D01*
X131000000Y-68060000D02*
X130350000Y-68060000D01*
X131000000Y-68060000D02*
X131650000Y-68060000D01*
X132402500Y-68340000D02*
X131922500Y-68340000D01*
X132162500Y-68010000D01*
X132402500Y-68340000D01*
G36*
X132402500Y-68340000D02*
G01*
X131922500Y-68340000D01*
X132162500Y-68010000D01*
X132402500Y-68340000D01*
G37*
X142000000Y-64940000D02*
X141350000Y-64940000D01*
X142000000Y-64940000D02*
X142650000Y-64940000D01*
X142000000Y-68060000D02*
X141350000Y-68060000D01*
X142000000Y-68060000D02*
X142650000Y-68060000D01*
X143402500Y-68340000D02*
X142922500Y-68340000D01*
X143162500Y-68010000D01*
X143402500Y-68340000D01*
G36*
X143402500Y-68340000D02*
G01*
X142922500Y-68340000D01*
X143162500Y-68010000D01*
X143402500Y-68340000D01*
G37*
X175000000Y-64940000D02*
X174350000Y-64940000D01*
X175000000Y-64940000D02*
X175650000Y-64940000D01*
X175000000Y-68060000D02*
X174350000Y-68060000D01*
X175000000Y-68060000D02*
X175650000Y-68060000D01*
X176402500Y-68340000D02*
X175922500Y-68340000D01*
X176162500Y-68010000D01*
X176402500Y-68340000D01*
G36*
X176402500Y-68340000D02*
G01*
X175922500Y-68340000D01*
X176162500Y-68010000D01*
X176402500Y-68340000D01*
G37*
X103890000Y-64240000D02*
X103890000Y-60495000D01*
X104436529Y-64240000D02*
X103890000Y-64240000D01*
X104692470Y-60495000D02*
X103890000Y-60495000D01*
X106110000Y-60495000D02*
X105307530Y-60495000D01*
X106110000Y-64240000D02*
X105563471Y-64240000D01*
X106110000Y-64240000D02*
X106110000Y-60495000D01*
X106110000Y-65000000D02*
X106110000Y-65760000D01*
X106110000Y-65760000D02*
X105000000Y-65760000D01*
X140250000Y-56500000D02*
X140750000Y-56500000D01*
X140750000Y-56500000D02*
X141000000Y-56250000D01*
X143250000Y-56500000D02*
X143000000Y-56250000D01*
X143250000Y-56500000D02*
X143750000Y-56500000D01*
X140840000Y-58830000D02*
X140360000Y-58830000D01*
X140600000Y-58500000D01*
X140840000Y-58830000D01*
G36*
X140840000Y-58830000D02*
G01*
X140360000Y-58830000D01*
X140600000Y-58500000D01*
X140840000Y-58830000D01*
G37*
X129250000Y-56500000D02*
X129750000Y-56500000D01*
X129750000Y-56500000D02*
X130000000Y-56250000D01*
X132250000Y-56500000D02*
X132000000Y-56250000D01*
X132250000Y-56500000D02*
X132750000Y-56500000D01*
X129840000Y-58830000D02*
X129360000Y-58830000D01*
X129600000Y-58500000D01*
X129840000Y-58830000D01*
G36*
X129840000Y-58830000D02*
G01*
X129360000Y-58830000D01*
X129600000Y-58500000D01*
X129840000Y-58830000D01*
G37*
X164000000Y-64940000D02*
X163350000Y-64940000D01*
X164000000Y-64940000D02*
X164650000Y-64940000D01*
X164000000Y-68060000D02*
X163350000Y-68060000D01*
X164000000Y-68060000D02*
X164650000Y-68060000D01*
X165402500Y-68340000D02*
X164922500Y-68340000D01*
X165162500Y-68010000D01*
X165402500Y-68340000D01*
G36*
X165402500Y-68340000D02*
G01*
X164922500Y-68340000D01*
X165162500Y-68010000D01*
X165402500Y-68340000D01*
G37*
X144765000Y-66511252D02*
X144765000Y-65988748D01*
X146235000Y-66511252D02*
X146235000Y-65988748D01*
X151250000Y-56350000D02*
X151750000Y-56350000D01*
X151750000Y-56350000D02*
X152000000Y-56100000D01*
X154250000Y-56350000D02*
X154000000Y-56100000D01*
X154250000Y-56350000D02*
X154750000Y-56350000D01*
X151840000Y-58680000D02*
X151360000Y-58680000D01*
X151600000Y-58350000D01*
X151840000Y-58680000D01*
G36*
X151840000Y-58680000D02*
G01*
X151360000Y-58680000D01*
X151600000Y-58350000D01*
X151840000Y-58680000D01*
G37*
X197000000Y-64940000D02*
X196350000Y-64940000D01*
X197000000Y-64940000D02*
X197650000Y-64940000D01*
X197000000Y-68060000D02*
X196350000Y-68060000D01*
X197000000Y-68060000D02*
X197650000Y-68060000D01*
X198402500Y-68340000D02*
X197922500Y-68340000D01*
X198162500Y-68010000D01*
X198402500Y-68340000D01*
G36*
X198402500Y-68340000D02*
G01*
X197922500Y-68340000D01*
X198162500Y-68010000D01*
X198402500Y-68340000D01*
G37*
X109000000Y-64940000D02*
X108350000Y-64940000D01*
X109000000Y-64940000D02*
X109650000Y-64940000D01*
X109000000Y-68060000D02*
X108350000Y-68060000D01*
X109000000Y-68060000D02*
X109650000Y-68060000D01*
X110402500Y-68340000D02*
X109922500Y-68340000D01*
X110162500Y-68010000D01*
X110402500Y-68340000D01*
G36*
X110402500Y-68340000D02*
G01*
X109922500Y-68340000D01*
X110162500Y-68010000D01*
X110402500Y-68340000D01*
G37*
X120000000Y-64940000D02*
X119350000Y-64940000D01*
X120000000Y-64940000D02*
X120650000Y-64940000D01*
X120000000Y-68060000D02*
X119350000Y-68060000D01*
X120000000Y-68060000D02*
X120650000Y-68060000D01*
X121402500Y-68340000D02*
X120922500Y-68340000D01*
X121162500Y-68010000D01*
X121402500Y-68340000D01*
G36*
X121402500Y-68340000D02*
G01*
X120922500Y-68340000D01*
X121162500Y-68010000D01*
X121402500Y-68340000D01*
G37*
X155265000Y-66511252D02*
X155265000Y-65988748D01*
X156735000Y-66511252D02*
X156735000Y-65988748D01*
X153000000Y-64940000D02*
X152350000Y-64940000D01*
X153000000Y-64940000D02*
X153650000Y-64940000D01*
X153000000Y-68060000D02*
X152350000Y-68060000D01*
X153000000Y-68060000D02*
X153650000Y-68060000D01*
X154402500Y-68340000D02*
X153922500Y-68340000D01*
X154162500Y-68010000D01*
X154402500Y-68340000D01*
G36*
X154402500Y-68340000D02*
G01*
X153922500Y-68340000D01*
X154162500Y-68010000D01*
X154402500Y-68340000D01*
G37*
X107250000Y-56500000D02*
X107750000Y-56500000D01*
X107750000Y-56500000D02*
X108000000Y-56250000D01*
X110250000Y-56500000D02*
X110000000Y-56250000D01*
X110250000Y-56500000D02*
X110750000Y-56500000D01*
X107840000Y-58830000D02*
X107360000Y-58830000D01*
X107600000Y-58500000D01*
X107840000Y-58830000D01*
G36*
X107840000Y-58830000D02*
G01*
X107360000Y-58830000D01*
X107600000Y-58500000D01*
X107840000Y-58830000D01*
G37*
X133265000Y-66511252D02*
X133265000Y-65988748D01*
X134735000Y-66511252D02*
X134735000Y-65988748D01*
X186000000Y-64940000D02*
X185350000Y-64940000D01*
X186000000Y-64940000D02*
X186650000Y-64940000D01*
X186000000Y-68060000D02*
X185350000Y-68060000D01*
X186000000Y-68060000D02*
X186650000Y-68060000D01*
X187402500Y-68340000D02*
X186922500Y-68340000D01*
X187162500Y-68010000D01*
X187402500Y-68340000D01*
G36*
X187402500Y-68340000D02*
G01*
X186922500Y-68340000D01*
X187162500Y-68010000D01*
X187402500Y-68340000D01*
G37*
X166265000Y-66511252D02*
X166265000Y-65988748D01*
X167735000Y-66511252D02*
X167735000Y-65988748D01*
X184250000Y-56500000D02*
X184750000Y-56500000D01*
X184750000Y-56500000D02*
X185000000Y-56250000D01*
X187250000Y-56500000D02*
X187000000Y-56250000D01*
X187250000Y-56500000D02*
X187750000Y-56500000D01*
X184840000Y-58830000D02*
X184360000Y-58830000D01*
X184600000Y-58500000D01*
X184840000Y-58830000D01*
G36*
X184840000Y-58830000D02*
G01*
X184360000Y-58830000D01*
X184600000Y-58500000D01*
X184840000Y-58830000D01*
G37*
M02*
