G04 #@! TF.GenerationSoftware,KiCad,Pcbnew,8.0.7*
G04 #@! TF.CreationDate,2026-01-04T11:29:54-08:00*
G04 #@! TF.ProjectId,mbira3c,6d626972-6133-4632-9e6b-696361645f70,rev?*
G04 #@! TF.SameCoordinates,Original*
G04 #@! TF.FileFunction,Copper,L2,Bot*
G04 #@! TF.FilePolarity,Positive*
%FSLAX46Y46*%
G04 Gerber Fmt 4.6, Leading zero omitted, Abs format (unit mm)*
G04 Created by KiCad (PCBNEW 8.0.7) date 2026-01-04 11:29:54*
%MOMM*%
%LPD*%
G01*
G04 APERTURE LIST*
G04 Aperture macros list*
%AMRoundRect*
0 Rectangle with rounded corners*
0 $1 Rounding radius*
0 $2 $3 $4 $5 $6 $7 $8 $9 X,Y pos of 4 corners*
0 Add a 4 corners polygon primitive as box body*
4,1,4,$2,$3,$4,$5,$6,$7,$8,$9,$2,$3,0*
0 Add four circle primitives for the rounded corners*
1,1,$1+$1,$2,$3*
1,1,$1+$1,$4,$5*
1,1,$1+$1,$6,$7*
1,1,$1+$1,$8,$9*
0 Add four rect primitives between the rounded corners*
20,1,$1+$1,$2,$3,$4,$5,0*
20,1,$1+$1,$4,$5,$6,$7,0*
20,1,$1+$1,$6,$7,$8,$9,0*
20,1,$1+$1,$8,$9,$2,$3,0*%
%AMFreePoly0*
4,1,11,0.558779,3.080902,0.595106,3.030902,0.600000,3.000000,0.600000,-1.000000,-0.600000,-1.000000,-0.600000,3.000000,-0.580902,3.058779,-0.530902,3.095106,-0.500000,3.100000,0.500000,3.100000,0.558779,3.080902,0.558779,3.080902,$1*%
G04 Aperture macros list end*
G04 #@! TA.AperFunction,ComponentPad*
%ADD10C,1.700000*%
G04 #@! TD*
G04 #@! TA.AperFunction,ComponentPad*
%ADD11R,1.000000X1.000000*%
G04 #@! TD*
G04 #@! TA.AperFunction,ComponentPad*
%ADD12O,1.000000X1.000000*%
G04 #@! TD*
G04 #@! TA.AperFunction,SMDPad,CuDef*
%ADD13RoundRect,0.137500X-0.137500X0.862500X-0.137500X-0.862500X0.137500X-0.862500X0.137500X0.862500X0*%
G04 #@! TD*
G04 #@! TA.AperFunction,SMDPad,CuDef*
%ADD14RoundRect,0.250000X0.475000X-0.337500X0.475000X0.337500X-0.475000X0.337500X-0.475000X-0.337500X0*%
G04 #@! TD*
G04 #@! TA.AperFunction,SMDPad,CuDef*
%ADD15RoundRect,0.250000X0.450000X-0.262500X0.450000X0.262500X-0.450000X0.262500X-0.450000X-0.262500X0*%
G04 #@! TD*
G04 #@! TA.AperFunction,SMDPad,CuDef*
%ADD16FreePoly0,270.000000*%
G04 #@! TD*
G04 #@! TA.AperFunction,SMDPad,CuDef*
%ADD17FreePoly0,90.000000*%
G04 #@! TD*
G04 #@! TA.AperFunction,SMDPad,CuDef*
%ADD18RoundRect,0.250000X-0.450000X0.262500X-0.450000X-0.262500X0.450000X-0.262500X0.450000X0.262500X0*%
G04 #@! TD*
G04 #@! TA.AperFunction,SMDPad,CuDef*
%ADD19RoundRect,0.250000X-0.475000X0.337500X-0.475000X-0.337500X0.475000X-0.337500X0.475000X0.337500X0*%
G04 #@! TD*
G04 #@! TA.AperFunction,ViaPad*
%ADD20C,0.800000*%
G04 #@! TD*
G04 #@! TA.AperFunction,Conductor*
%ADD21C,0.250000*%
G04 #@! TD*
G04 #@! TA.AperFunction,Conductor*
%ADD22C,0.500000*%
G04 #@! TD*
G04 APERTURE END LIST*
D10*
X228620000Y-65080000D03*
X226080000Y-65080000D03*
X223540000Y-65080000D03*
X221000000Y-65080000D03*
X218460000Y-65080000D03*
X215920000Y-65080000D03*
X213380000Y-65080000D03*
D11*
X105000000Y-65000000D03*
D12*
X105000000Y-63730000D03*
X105000000Y-62460000D03*
X105000000Y-61190000D03*
D13*
X143765000Y-57100000D03*
X145035000Y-57100000D03*
X146305000Y-57100000D03*
X147575000Y-57100000D03*
X148845000Y-57100000D03*
X150115000Y-57100000D03*
X151385000Y-57100000D03*
X152655000Y-57100000D03*
X153925000Y-57100000D03*
X155195000Y-57100000D03*
X156465000Y-57100000D03*
X157735000Y-57100000D03*
X157735000Y-66400000D03*
X156465000Y-66400000D03*
X155195000Y-66400000D03*
X153925000Y-66400000D03*
X152655000Y-66400000D03*
X151385000Y-66400000D03*
X150115000Y-66400000D03*
X148845000Y-66400000D03*
X147575000Y-66400000D03*
X146305000Y-66400000D03*
X145035000Y-66400000D03*
X143765000Y-66400000D03*
D14*
X138000000Y-58787500D03*
X138000000Y-56712500D03*
D15*
X141000000Y-67162500D03*
X141000000Y-65337500D03*
D14*
X140000000Y-58787500D03*
X140000000Y-56712500D03*
D16*
X227620000Y-39840000D03*
X227620000Y-42380000D03*
X227620000Y-44920000D03*
X227620000Y-47460000D03*
X227620000Y-50000000D03*
X227620000Y-52540000D03*
X227620000Y-55080000D03*
X227620000Y-57620000D03*
X227620000Y-60160000D03*
D17*
X212380000Y-60160000D03*
X212380000Y-57620000D03*
X212380000Y-55080000D03*
X212380000Y-52540000D03*
X212380000Y-50000000D03*
X212380000Y-47460000D03*
X212380000Y-44920000D03*
X212380000Y-42380000D03*
X212380000Y-39840000D03*
D18*
X131750000Y-57675000D03*
X131750000Y-59500000D03*
D19*
X159750000Y-56712500D03*
X159750000Y-58787500D03*
D20*
X226000000Y-47475000D03*
X135250000Y-67500000D03*
X114750000Y-62500000D03*
X108000000Y-62500000D03*
X169500000Y-56500000D03*
X202750000Y-57250000D03*
X207750000Y-56500000D03*
X125500000Y-62750000D03*
X183000000Y-61500000D03*
X180500000Y-61500000D03*
X118500000Y-62500000D03*
X207000000Y-61500000D03*
X124000000Y-62500000D03*
X110750000Y-62500000D03*
X127250000Y-62750000D03*
X226000000Y-41500000D03*
X116000000Y-60250000D03*
X200500000Y-57250000D03*
X111000000Y-60250000D03*
X117250000Y-62500000D03*
X113500000Y-62500000D03*
X109250000Y-62500000D03*
X202750000Y-61500000D03*
X114500000Y-60250000D03*
X112000000Y-62500000D03*
X121250000Y-62500000D03*
X206000000Y-57000000D03*
X116250000Y-62500000D03*
X122750000Y-62500000D03*
X177250000Y-61500000D03*
X124750000Y-57000000D03*
X120000000Y-62500000D03*
X226000000Y-50000000D03*
X226000000Y-52540000D03*
X226000000Y-55080000D03*
X226000000Y-57750000D03*
X218250000Y-63000000D03*
X194884738Y-65650000D03*
X226000000Y-60500000D03*
X214750000Y-50000000D03*
X126750000Y-61450000D03*
X184250000Y-65500000D03*
X163250000Y-65000000D03*
X150000000Y-59750000D03*
X214750000Y-41000000D03*
X215500000Y-44000000D03*
X149000000Y-59500000D03*
X161750000Y-65000000D03*
X172250000Y-65500000D03*
X158750000Y-56750000D03*
X146500000Y-59000000D03*
X224250000Y-41000000D03*
X138750000Y-60000000D03*
X133350002Y-58250000D03*
X136675000Y-58500000D03*
X142025000Y-59250000D03*
X175000000Y-57000000D03*
X186000000Y-57000000D03*
X107625000Y-59100000D03*
X172500000Y-57500000D03*
X120000000Y-59100000D03*
X130000000Y-59750000D03*
X118500000Y-59250000D03*
X142250000Y-56500000D03*
X161250000Y-56750000D03*
X153250000Y-59000000D03*
X194500000Y-57000000D03*
X197000000Y-57000000D03*
X109000000Y-57000000D03*
X183500000Y-57500000D03*
X151750000Y-58750000D03*
X164000000Y-57000000D03*
X128250000Y-58750000D03*
D21*
X226015000Y-47460000D02*
X227620000Y-47460000D01*
X226000000Y-47475000D02*
X226015000Y-47460000D01*
D22*
X224250000Y-63500000D02*
X223250000Y-62500000D01*
X223250000Y-47000000D02*
X225250000Y-45000000D01*
X141000000Y-67162500D02*
X135587500Y-67162500D01*
X228620000Y-65080000D02*
X228620000Y-64870000D01*
X223250000Y-62500000D02*
X223250000Y-47000000D01*
X225250000Y-45000000D02*
X227500000Y-45000000D01*
X227250000Y-63500000D02*
X224250000Y-63500000D01*
X135587500Y-67162500D02*
X135250000Y-67500000D01*
X228620000Y-64870000D02*
X227250000Y-63500000D01*
X135500000Y-59000000D02*
X137500000Y-61000000D01*
X140721878Y-59875000D02*
X141175000Y-59421878D01*
X164500000Y-59250000D02*
X162375000Y-61375000D01*
X137000000Y-56712500D02*
X137000000Y-56750000D01*
X141675000Y-58325000D02*
X142386827Y-58325000D01*
X143911827Y-59850000D02*
X146852082Y-59850000D01*
X163350000Y-56150000D02*
X179250000Y-56150000D01*
X162375000Y-61375000D02*
X150147918Y-61375000D01*
X149122918Y-60350000D02*
X148647918Y-60350000D01*
X222000000Y-62500000D02*
X222000000Y-44250000D01*
X223750000Y-42500000D02*
X228500000Y-42500000D01*
X161000000Y-58500000D02*
X163350000Y-56150000D01*
X223540000Y-65080000D02*
X222000000Y-63540000D01*
X179250000Y-56150000D02*
X207400000Y-56150000D01*
X160712500Y-58787500D02*
X161000000Y-58500000D01*
X177850000Y-56150000D02*
X174750000Y-59250000D01*
X134250000Y-59500000D02*
X131750000Y-59500000D01*
X139125000Y-61000000D02*
X140250000Y-59875000D01*
X222000000Y-63540000D02*
X222000000Y-62500000D01*
X159750000Y-58787500D02*
X160712500Y-58787500D01*
X150147918Y-61375000D02*
X149122918Y-60350000D01*
X207400000Y-56150000D02*
X207750000Y-56500000D01*
X137500000Y-61000000D02*
X139125000Y-61000000D01*
X174750000Y-59250000D02*
X164500000Y-59250000D01*
X137000000Y-56750000D02*
X134250000Y-59500000D01*
X146852082Y-59850000D02*
X147575000Y-59127082D01*
X147575000Y-59127082D02*
X147575000Y-57100000D01*
X140250000Y-59875000D02*
X140721878Y-59875000D01*
X226000000Y-41500000D02*
X226750000Y-42250000D01*
X140250000Y-56712500D02*
X137000000Y-56712500D01*
X142386827Y-58325000D02*
X143911827Y-59850000D01*
X136400000Y-57312500D02*
X137000000Y-56712500D01*
X147575000Y-59277082D02*
X147575000Y-59127082D01*
X222000000Y-44250000D02*
X223750000Y-42500000D01*
X226750000Y-42250000D02*
X228500000Y-42250000D01*
X179250000Y-56150000D02*
X177850000Y-56150000D01*
X148647918Y-60350000D02*
X147575000Y-59277082D01*
X141175000Y-59421878D02*
X141175000Y-58825000D01*
X141175000Y-58825000D02*
X141675000Y-58325000D01*
D21*
X226000000Y-50000000D02*
X228750000Y-50000000D01*
X226000000Y-52540000D02*
X227620000Y-52540000D01*
X226000000Y-55080000D02*
X227620000Y-55080000D01*
X228000000Y-55250000D02*
X228250000Y-55000000D01*
X226000000Y-57750000D02*
X228000000Y-57750000D01*
X228000000Y-57750000D02*
X228250000Y-57500000D01*
X218250000Y-63000000D02*
X217800000Y-63450000D01*
X226000000Y-60500000D02*
X228500000Y-60500000D01*
X210200000Y-65500000D02*
X195034738Y-65500000D01*
X195034738Y-65500000D02*
X194884738Y-65650000D01*
X217800000Y-63450000D02*
X212250000Y-63450000D01*
X212250000Y-63450000D02*
X210200000Y-65500000D01*
X228500000Y-60250000D02*
X227750000Y-60250000D01*
X228500000Y-60500000D02*
X228750000Y-60250000D01*
X105750000Y-62500000D02*
X105000000Y-62500000D01*
X126675000Y-61375000D02*
X106875000Y-61375000D01*
X212380000Y-50000000D02*
X214750000Y-50000000D01*
X126750000Y-61450000D02*
X126675000Y-61375000D01*
X106875000Y-61375000D02*
X105750000Y-62500000D01*
X195260043Y-65000000D02*
X208977208Y-65000000D01*
X213522792Y-62500000D02*
X214700000Y-61322792D01*
X214700000Y-53700000D02*
X213750000Y-52750000D01*
X213000000Y-52500000D02*
X212250000Y-52500000D01*
X194584433Y-64925000D02*
X195185043Y-64925000D01*
X184250000Y-65500000D02*
X194009433Y-65500000D01*
X208977208Y-65000000D02*
X211477208Y-62500000D01*
X211477208Y-62500000D02*
X213522792Y-62500000D01*
X213750000Y-52750000D02*
X213250000Y-52750000D01*
X214700000Y-61322792D02*
X214700000Y-53700000D01*
X195185043Y-64925000D02*
X195260043Y-65000000D01*
X194009433Y-65500000D02*
X194584433Y-64925000D01*
X213250000Y-52750000D02*
X213000000Y-52500000D01*
X163500000Y-64750000D02*
X183113604Y-64750000D01*
X184736701Y-64325000D02*
X185011701Y-64600000D01*
X193636641Y-64600000D02*
X194211641Y-64025000D01*
X213750000Y-58250000D02*
X213250000Y-57750000D01*
X194211641Y-64025000D02*
X195557835Y-64025000D01*
X163250000Y-65000000D02*
X163500000Y-64750000D01*
X185011701Y-64600000D02*
X193636641Y-64600000D01*
X211181802Y-61318198D02*
X213431802Y-61318198D01*
X195557835Y-64025000D02*
X195582835Y-64050000D01*
X183113604Y-64750000D02*
X183538604Y-64325000D01*
X213431802Y-61318198D02*
X213750000Y-61000000D01*
X213750000Y-61000000D02*
X213750000Y-58250000D01*
X208450000Y-64050000D02*
X211181802Y-61318198D01*
X213250000Y-57750000D02*
X212500000Y-57750000D01*
X183538604Y-64325000D02*
X184736701Y-64325000D01*
X195582835Y-64050000D02*
X208450000Y-64050000D01*
X214750000Y-39750000D02*
X211750000Y-39750000D01*
X219950000Y-64030000D02*
X219950000Y-49250000D01*
X221000000Y-65080000D02*
X219950000Y-64030000D01*
X219950000Y-44563604D02*
X215136396Y-39750000D01*
X212380000Y-39840000D02*
X213590000Y-39840000D01*
X150000000Y-59750000D02*
X150000000Y-57000000D01*
X215136396Y-39750000D02*
X214750000Y-39750000D01*
X219950000Y-49250000D02*
X219950000Y-44563604D01*
X213590000Y-39840000D02*
X214750000Y-41000000D01*
X149000000Y-59500000D02*
X149000000Y-58000000D01*
X212380000Y-42380000D02*
X213880000Y-42380000D01*
X211750000Y-42500000D02*
X211250000Y-42000000D01*
X219500000Y-44750000D02*
X217250000Y-42500000D01*
X217250000Y-42500000D02*
X211750000Y-42500000D01*
X219500000Y-64000000D02*
X219500000Y-44750000D01*
X219500000Y-62750000D02*
X219500000Y-64000000D01*
X213880000Y-42380000D02*
X215500000Y-44000000D01*
X219500000Y-64040000D02*
X219500000Y-62750000D01*
X218460000Y-65080000D02*
X219500000Y-64040000D01*
X161750000Y-65000000D02*
X162475000Y-64275000D01*
X195769231Y-63600000D02*
X208150000Y-63600000D01*
X163575305Y-64300000D02*
X182927208Y-64300000D01*
X184923097Y-63875000D02*
X185198097Y-64150000D01*
X182927208Y-64300000D02*
X183352208Y-63875000D01*
X193450245Y-64150000D02*
X194025245Y-63575000D01*
X211500000Y-60250000D02*
X212250000Y-60250000D01*
X195744231Y-63575000D02*
X195769231Y-63600000D01*
X194025245Y-63575000D02*
X195744231Y-63575000D01*
X162475000Y-64275000D02*
X163550305Y-64275000D01*
X208150000Y-63600000D02*
X211500000Y-60250000D01*
X185198097Y-64150000D02*
X193450245Y-64150000D01*
X183352208Y-63875000D02*
X184923097Y-63875000D01*
X163550305Y-64275000D02*
X163575305Y-64300000D01*
X183725000Y-64775000D02*
X184550305Y-64775000D01*
X195396439Y-64500000D02*
X208750000Y-64500000D01*
X214250000Y-61136396D02*
X214250000Y-55500000D01*
X184825305Y-65050000D02*
X193823037Y-65050000D01*
X184550305Y-64775000D02*
X184825305Y-65050000D01*
X211238604Y-62011396D02*
X213375000Y-62011396D01*
X172250000Y-65500000D02*
X183000000Y-65500000D01*
X213375000Y-62011396D02*
X214250000Y-61136396D01*
X214000000Y-55250000D02*
X212750000Y-55250000D01*
X214250000Y-55500000D02*
X214000000Y-55250000D01*
X193823037Y-65050000D02*
X194398037Y-64475000D01*
X212750000Y-55250000D02*
X212500000Y-55000000D01*
X183000000Y-65500000D02*
X183725000Y-64775000D01*
X194398037Y-64475000D02*
X195371439Y-64475000D01*
X195371439Y-64475000D02*
X195396439Y-64500000D01*
X208750000Y-64500000D02*
X211238604Y-62011396D01*
D22*
X139250000Y-58750000D02*
X139287500Y-58787500D01*
X226160000Y-39840000D02*
X227620000Y-39840000D01*
X140000000Y-58787500D02*
X140000000Y-58750000D01*
X140387500Y-59175000D02*
X140000000Y-58787500D01*
X146500000Y-59000000D02*
X146250000Y-58750000D01*
X139962500Y-58787500D02*
X138750000Y-60000000D01*
X159712500Y-56750000D02*
X159750000Y-56712500D01*
X138000000Y-58750000D02*
X140000000Y-58750000D01*
X224250000Y-41000000D02*
X225000000Y-41000000D01*
X158750000Y-56750000D02*
X159712500Y-56750000D01*
X225000000Y-41000000D02*
X226160000Y-39840000D01*
X140000000Y-58787500D02*
X139962500Y-58787500D01*
X140000000Y-58750000D02*
X139250000Y-58750000D01*
X146250000Y-58750000D02*
X146250000Y-57000000D01*
D21*
X142625000Y-57750000D02*
X143300000Y-58425000D01*
X132850002Y-57750000D02*
X131750000Y-57750000D01*
X145035000Y-57487884D02*
X145035000Y-57100000D01*
X132850002Y-57750000D02*
X133350002Y-58250000D01*
X137404900Y-57750000D02*
X142625000Y-57750000D01*
X136675000Y-58500000D02*
X136675000Y-58479900D01*
X143300000Y-58425000D02*
X144097884Y-58425000D01*
X144097884Y-58425000D02*
X145035000Y-57487884D01*
X136675000Y-58479900D02*
X137404900Y-57750000D01*
X142025000Y-59250000D02*
X143275000Y-60500000D01*
X149000000Y-61750000D02*
X149004999Y-61750000D01*
X143275000Y-60500000D02*
X147750000Y-60500000D01*
X149004999Y-61750000D02*
X152655000Y-65400001D01*
X147750000Y-60500000D02*
X149000000Y-61750000D01*
X152655000Y-65400001D02*
X152655000Y-66400000D01*
X161986396Y-60650000D02*
X164411396Y-58225000D01*
X153925000Y-57100000D02*
X153925000Y-58099999D01*
X153925000Y-58099999D02*
X156475001Y-60650000D01*
X156475001Y-60650000D02*
X161986396Y-60650000D01*
X173775000Y-58225000D02*
X175000000Y-57000000D01*
X164411396Y-58225000D02*
X173775000Y-58225000D01*
X174999568Y-60450000D02*
X164749569Y-60450000D01*
X164749569Y-60450000D02*
X162799569Y-62400000D01*
X177199568Y-58250000D02*
X174999568Y-60450000D01*
X158195001Y-62400000D02*
X155195000Y-65400001D01*
X155195000Y-65400001D02*
X155195000Y-66400000D01*
X186000000Y-57000000D02*
X184750000Y-58250000D01*
X162799569Y-62400000D02*
X158195001Y-62400000D01*
X184750000Y-58250000D02*
X177199568Y-58250000D01*
X141957411Y-64225000D02*
X142932411Y-63250000D01*
X116688299Y-59100000D02*
X118313299Y-60725000D01*
X134804848Y-62800000D02*
X136229848Y-64225000D01*
X127179416Y-60725000D02*
X129254416Y-62800000D01*
X136229848Y-64225000D02*
X141957411Y-64225000D01*
X118313299Y-60725000D02*
X127179416Y-60725000D01*
X144250000Y-63250000D02*
X145035000Y-64035000D01*
X129254416Y-62800000D02*
X134804848Y-62800000D01*
X142932411Y-63250000D02*
X144250000Y-63250000D01*
X145035000Y-64035000D02*
X145035000Y-66400000D01*
X107625000Y-59100000D02*
X116688299Y-59100000D01*
X155195000Y-58099999D02*
X157295001Y-60200000D01*
X164275000Y-57725000D02*
X172275000Y-57725000D01*
X172275000Y-57725000D02*
X172500000Y-57500000D01*
X161800000Y-60200000D02*
X164275000Y-57725000D01*
X155195000Y-57100000D02*
X155195000Y-58099999D01*
X157295001Y-60200000D02*
X161800000Y-60200000D01*
X141398223Y-62875000D02*
X142423223Y-61850000D01*
X146850000Y-61850000D02*
X148845000Y-63845000D01*
X129813604Y-61450000D02*
X135364036Y-61450000D01*
X127463604Y-59100000D02*
X129813604Y-61450000D01*
X135364036Y-61450000D02*
X136789036Y-62875000D01*
X148845000Y-63845000D02*
X148845000Y-66400000D01*
X120000000Y-59100000D02*
X127463604Y-59100000D01*
X142423223Y-61850000D02*
X146850000Y-61850000D01*
X136789036Y-62875000D02*
X141398223Y-62875000D01*
X137161828Y-61975000D02*
X135686828Y-60500000D01*
X142064381Y-60936050D02*
X141025431Y-61975000D01*
X142078332Y-60950000D02*
X142064381Y-60936050D01*
X141025431Y-61975000D02*
X137161828Y-61975000D01*
X147450000Y-60950000D02*
X142078332Y-60950000D01*
X130750000Y-60500000D02*
X130000000Y-59750000D01*
X151385000Y-66400000D02*
X151385000Y-64885000D01*
X135686828Y-60500000D02*
X130750000Y-60500000D01*
X151385000Y-64885000D02*
X147450000Y-60950000D01*
X141584619Y-63325000D02*
X136602640Y-63325000D01*
X129627208Y-61900000D02*
X127552208Y-59825000D01*
X146050000Y-62300000D02*
X142609619Y-62300000D01*
X127552208Y-59825000D02*
X119075000Y-59825000D01*
X135177640Y-61900000D02*
X129627208Y-61900000D01*
X147575000Y-66400000D02*
X147575000Y-63825000D01*
X119075000Y-59825000D02*
X118500000Y-59250000D01*
X136602640Y-63325000D02*
X135177640Y-61900000D01*
X147575000Y-63825000D02*
X146050000Y-62300000D01*
X142609619Y-62300000D02*
X141584619Y-63325000D01*
X142250000Y-56500000D02*
X143165000Y-56500000D01*
X143165000Y-56500000D02*
X143765000Y-57100000D01*
X161250000Y-56845100D02*
X160345100Y-57750000D01*
X160345100Y-57750000D02*
X158385000Y-57750000D01*
X161250000Y-56750000D02*
X161250000Y-56845100D01*
X158385000Y-57750000D02*
X157735000Y-57100000D01*
X152655000Y-58405000D02*
X153250000Y-59000000D01*
X152655000Y-57100000D02*
X152655000Y-58405000D01*
X186725000Y-57275000D02*
X186725000Y-57300305D01*
X185250000Y-58750000D02*
X177335964Y-58750000D01*
X186300305Y-57725000D02*
X186275000Y-57725000D01*
X175185964Y-60900000D02*
X164935965Y-60900000D01*
X186275000Y-57725000D02*
X185250000Y-58750000D01*
X187000000Y-57000000D02*
X186725000Y-57275000D01*
X156465000Y-65400001D02*
X156465000Y-66400000D01*
X194500000Y-57000000D02*
X187000000Y-57000000D01*
X186725000Y-57300305D02*
X186300305Y-57725000D01*
X162985965Y-62850000D02*
X159015001Y-62850000D01*
X159015001Y-62850000D02*
X156465000Y-65400001D01*
X177335964Y-58750000D02*
X175185964Y-60900000D01*
X164935965Y-60900000D02*
X162985965Y-62850000D01*
X185436396Y-59200000D02*
X177522360Y-59200000D01*
X196275000Y-57725000D02*
X186936701Y-57725000D01*
X163172361Y-63300000D02*
X159450000Y-63300000D01*
X186461396Y-58175000D02*
X185436396Y-59200000D01*
X157735000Y-65015000D02*
X157735000Y-66400000D01*
X186486701Y-58175000D02*
X186461396Y-58175000D01*
X165122361Y-61350000D02*
X163172361Y-63300000D01*
X197000000Y-57000000D02*
X196275000Y-57725000D01*
X177522360Y-59200000D02*
X175372360Y-61350000D01*
X175372360Y-61350000D02*
X165122361Y-61350000D01*
X186936701Y-57725000D02*
X186486701Y-58175000D01*
X159450000Y-63300000D02*
X157735000Y-65015000D01*
X146305000Y-64305000D02*
X144750000Y-62750000D01*
X129440812Y-62350000D02*
X127365812Y-60275000D01*
X141771015Y-63775000D02*
X136416244Y-63775000D01*
X136416244Y-63775000D02*
X134991244Y-62350000D01*
X118499695Y-60275000D02*
X116874695Y-58650000D01*
X134991244Y-62350000D02*
X129440812Y-62350000D01*
X110650000Y-58650000D02*
X109000000Y-57000000D01*
X127365812Y-60275000D02*
X118499695Y-60275000D01*
X144750000Y-62750000D02*
X142796015Y-62750000D01*
X116874695Y-58650000D02*
X110650000Y-58650000D01*
X146305000Y-66400000D02*
X146305000Y-64305000D01*
X142796015Y-62750000D02*
X141771015Y-63775000D01*
X174813172Y-60000000D02*
X177313172Y-57500000D01*
X157375001Y-61950000D02*
X162613173Y-61950000D01*
X162613173Y-61950000D02*
X164563173Y-60000000D01*
X164563173Y-60000000D02*
X174813172Y-60000000D01*
X177313172Y-57500000D02*
X183500000Y-57500000D01*
X153925000Y-66400000D02*
X153925000Y-65400001D01*
X153925000Y-65400001D02*
X157375001Y-61950000D01*
X151385000Y-58385000D02*
X151750000Y-58750000D01*
X151385000Y-57100000D02*
X151385000Y-58385000D01*
X156465000Y-57100000D02*
X156465000Y-58099999D01*
X158115001Y-59750000D02*
X161500000Y-59750000D01*
X161500000Y-59750000D02*
X164000000Y-57250000D01*
X156465000Y-58099999D02*
X158115001Y-59750000D01*
X164000000Y-57250000D02*
X164000000Y-57000000D01*
X128250000Y-59250000D02*
X128250000Y-58750000D01*
X141211827Y-62425000D02*
X136975432Y-62425000D01*
X150115000Y-64365000D02*
X147150000Y-61400000D01*
X135550432Y-61000000D02*
X130000000Y-61000000D01*
X130000000Y-61000000D02*
X128250000Y-59250000D01*
X136975432Y-62425000D02*
X135550432Y-61000000D01*
X147150000Y-61400000D02*
X142236827Y-61400000D01*
X142236827Y-61400000D02*
X141211827Y-62425000D01*
X150115000Y-66400000D02*
X150115000Y-64365000D01*
X142615000Y-65250000D02*
X141000000Y-65250000D01*
X143765000Y-66400000D02*
X142615000Y-65250000D01*
G04 #@! TA.AperFunction,Conductor*
G36*
X136874174Y-55769685D02*
G01*
X136919929Y-55822489D01*
X136929873Y-55891647D01*
X136912674Y-55939097D01*
X136840643Y-56055875D01*
X136840641Y-56055880D01*
X136785494Y-56222302D01*
X136785493Y-56222309D01*
X136775000Y-56325013D01*
X136775000Y-56462500D01*
X139876000Y-56462500D01*
X139943039Y-56482185D01*
X139988794Y-56534989D01*
X140000000Y-56586500D01*
X140000000Y-56838500D01*
X139980315Y-56905539D01*
X139927511Y-56951294D01*
X139876000Y-56962500D01*
X136775001Y-56962500D01*
X136775001Y-57099986D01*
X136785494Y-57202697D01*
X136831653Y-57341994D01*
X136834055Y-57411822D01*
X136801629Y-57468678D01*
X136707129Y-57563180D01*
X136645806Y-57596666D01*
X136619447Y-57599500D01*
X136580354Y-57599500D01*
X136547897Y-57606398D01*
X136395197Y-57638855D01*
X136395192Y-57638857D01*
X136222270Y-57715848D01*
X136222265Y-57715851D01*
X136069129Y-57827111D01*
X135942466Y-57967785D01*
X135847821Y-58131715D01*
X135847818Y-58131722D01*
X135789327Y-58311740D01*
X135789326Y-58311744D01*
X135769540Y-58500000D01*
X135789326Y-58688256D01*
X135789327Y-58688259D01*
X135847818Y-58868277D01*
X135847821Y-58868284D01*
X135942467Y-59032216D01*
X136041567Y-59142277D01*
X136069129Y-59172888D01*
X136222265Y-59284148D01*
X136222270Y-59284151D01*
X136395192Y-59361142D01*
X136395197Y-59361144D01*
X136580354Y-59400500D01*
X136580355Y-59400500D01*
X136743942Y-59400500D01*
X136810981Y-59420185D01*
X136849479Y-59459401D01*
X136932288Y-59593656D01*
X137056344Y-59717712D01*
X137205666Y-59809814D01*
X137372203Y-59864999D01*
X137474991Y-59875500D01*
X137720541Y-59875499D01*
X137787579Y-59895183D01*
X137833334Y-59947987D01*
X137843256Y-59993600D01*
X137843861Y-59993537D01*
X137844438Y-59999033D01*
X137844540Y-59999499D01*
X137844540Y-59999997D01*
X137844540Y-60000000D01*
X137864326Y-60188256D01*
X137864327Y-60188259D01*
X137922818Y-60368277D01*
X137922821Y-60368284D01*
X138017467Y-60532216D01*
X138106827Y-60631460D01*
X138144129Y-60672888D01*
X138297265Y-60784148D01*
X138297270Y-60784151D01*
X138470192Y-60861142D01*
X138470197Y-60861144D01*
X138655354Y-60900500D01*
X138655355Y-60900500D01*
X138844644Y-60900500D01*
X138844646Y-60900500D01*
X139029803Y-60861144D01*
X139202730Y-60784151D01*
X139355871Y-60672888D01*
X139482533Y-60532216D01*
X139577179Y-60368284D01*
X139632522Y-60197955D01*
X139662769Y-60148597D01*
X139899549Y-59911818D01*
X139960872Y-59878333D01*
X139987230Y-59875499D01*
X140092839Y-59875499D01*
X140140290Y-59884937D01*
X140168588Y-59896659D01*
X140300909Y-59922979D01*
X140313578Y-59925499D01*
X140313582Y-59925500D01*
X140313583Y-59925500D01*
X140461419Y-59925500D01*
X140461420Y-59925499D01*
X140606413Y-59896659D01*
X140742995Y-59840084D01*
X140768402Y-59823107D01*
X140788079Y-59813494D01*
X140787787Y-59812867D01*
X140794327Y-59809816D01*
X140794334Y-59809814D01*
X140943656Y-59717712D01*
X141026918Y-59634449D01*
X141088237Y-59600967D01*
X141157929Y-59605951D01*
X141213863Y-59647822D01*
X141221976Y-59660122D01*
X141287082Y-59772889D01*
X141292467Y-59782216D01*
X141419129Y-59922888D01*
X141572265Y-60034148D01*
X141572270Y-60034151D01*
X141745192Y-60111142D01*
X141745193Y-60111142D01*
X141745197Y-60111144D01*
X141801441Y-60123099D01*
X141862920Y-60156289D01*
X141896698Y-60217452D01*
X141892046Y-60287166D01*
X141850443Y-60343299D01*
X141823114Y-60358948D01*
X141768102Y-60381735D01*
X141768085Y-60381743D01*
X141768061Y-60381758D01*
X141708919Y-60421277D01*
X141708920Y-60421278D01*
X141665644Y-60450195D01*
X141665634Y-60450203D01*
X141665623Y-60450212D01*
X141614573Y-60501267D01*
X141614570Y-60501270D01*
X140802660Y-61313181D01*
X140741337Y-61346666D01*
X140714979Y-61349500D01*
X137472280Y-61349500D01*
X137405241Y-61329815D01*
X137384599Y-61313181D01*
X136177026Y-60105608D01*
X136177006Y-60105586D01*
X136085563Y-60014143D01*
X136062949Y-59999033D01*
X136032539Y-59978714D01*
X136032540Y-59978714D01*
X136032538Y-59978712D01*
X135983118Y-59945690D01*
X135983114Y-59945688D01*
X135965171Y-59938256D01*
X135896447Y-59909790D01*
X135896445Y-59909788D01*
X135869283Y-59898538D01*
X135869281Y-59898537D01*
X135869280Y-59898537D01*
X135808857Y-59886518D01*
X135748438Y-59874500D01*
X135748435Y-59874500D01*
X135748434Y-59874500D01*
X133074000Y-59874500D01*
X133006961Y-59854815D01*
X132961206Y-59802011D01*
X132950000Y-59750500D01*
X132950000Y-59750000D01*
X131874000Y-59750000D01*
X131806961Y-59730315D01*
X131761206Y-59677511D01*
X131750000Y-59626000D01*
X131750000Y-59374000D01*
X131769685Y-59306961D01*
X131822489Y-59261206D01*
X131874000Y-59250000D01*
X132949999Y-59250000D01*
X132949999Y-59238721D01*
X132969684Y-59171682D01*
X133022488Y-59125927D01*
X133091646Y-59115983D01*
X133099763Y-59117427D01*
X133255356Y-59150500D01*
X133255357Y-59150500D01*
X133444646Y-59150500D01*
X133444648Y-59150500D01*
X133629805Y-59111144D01*
X133802732Y-59034151D01*
X133955873Y-58922888D01*
X134082535Y-58782216D01*
X134177181Y-58618284D01*
X134235676Y-58438256D01*
X134255462Y-58250000D01*
X134235676Y-58061744D01*
X134177181Y-57881716D01*
X134082535Y-57717784D01*
X133955873Y-57577112D01*
X133955872Y-57577111D01*
X133802736Y-57465851D01*
X133802731Y-57465848D01*
X133629809Y-57388857D01*
X133629804Y-57388855D01*
X133484003Y-57357865D01*
X133444648Y-57349500D01*
X133444647Y-57349500D01*
X133385455Y-57349500D01*
X133318416Y-57329815D01*
X133297773Y-57313180D01*
X133248738Y-57264144D01*
X133248737Y-57264143D01*
X133206132Y-57235676D01*
X133195267Y-57228416D01*
X133195268Y-57228416D01*
X133195266Y-57228414D01*
X133146292Y-57195690D01*
X133146288Y-57195688D01*
X133123596Y-57186289D01*
X133059621Y-57159790D01*
X133059619Y-57159788D01*
X133032457Y-57148538D01*
X133032455Y-57148537D01*
X133032454Y-57148537D01*
X132972031Y-57136518D01*
X132956077Y-57133344D01*
X132894168Y-57100957D01*
X132874734Y-57076824D01*
X132860884Y-57054370D01*
X132792712Y-56943844D01*
X132668656Y-56819788D01*
X132519334Y-56727686D01*
X132352797Y-56672501D01*
X132352795Y-56672500D01*
X132250010Y-56662000D01*
X131249998Y-56662000D01*
X131249980Y-56662001D01*
X131147203Y-56672500D01*
X131147200Y-56672501D01*
X130980668Y-56727685D01*
X130980663Y-56727687D01*
X130831342Y-56819789D01*
X130707289Y-56943842D01*
X130615187Y-57093163D01*
X130615185Y-57093168D01*
X130594046Y-57156961D01*
X130560001Y-57259703D01*
X130560001Y-57259704D01*
X130560000Y-57259704D01*
X130549500Y-57362483D01*
X130549500Y-57987501D01*
X130549501Y-57987519D01*
X130560000Y-58090296D01*
X130560001Y-58090299D01*
X130615185Y-58256831D01*
X130615187Y-58256836D01*
X130627136Y-58276208D01*
X130703508Y-58400028D01*
X130707289Y-58406157D01*
X130801304Y-58500172D01*
X130834789Y-58561495D01*
X130829805Y-58631187D01*
X130801305Y-58675534D01*
X130707680Y-58769159D01*
X130614490Y-58920243D01*
X130562542Y-58966968D01*
X130493580Y-58978189D01*
X130458516Y-58968425D01*
X130279807Y-58888857D01*
X130279802Y-58888855D01*
X130134001Y-58857865D01*
X130094646Y-58849500D01*
X129905354Y-58849500D01*
X129872897Y-58856398D01*
X129720197Y-58888855D01*
X129720192Y-58888857D01*
X129547270Y-58965848D01*
X129547265Y-58965851D01*
X129394129Y-59077111D01*
X129394128Y-59077112D01*
X129309511Y-59171088D01*
X129250024Y-59207736D01*
X129180167Y-59206405D01*
X129122119Y-59167518D01*
X129094310Y-59103421D01*
X129099430Y-59049801D01*
X129135674Y-58938256D01*
X129155460Y-58750000D01*
X129135674Y-58561744D01*
X129077179Y-58381716D01*
X128982533Y-58217784D01*
X128855871Y-58077112D01*
X128855870Y-58077111D01*
X128702734Y-57965851D01*
X128702729Y-57965848D01*
X128529807Y-57888857D01*
X128529802Y-57888855D01*
X128384001Y-57857865D01*
X128344646Y-57849500D01*
X128155354Y-57849500D01*
X128122897Y-57856398D01*
X127970197Y-57888855D01*
X127970192Y-57888857D01*
X127797270Y-57965848D01*
X127797265Y-57965851D01*
X127644129Y-58077111D01*
X127517466Y-58217785D01*
X127422821Y-58381715D01*
X127422819Y-58381719D01*
X127420513Y-58388819D01*
X127381075Y-58446494D01*
X127316716Y-58473692D01*
X127302582Y-58474500D01*
X120703748Y-58474500D01*
X120636709Y-58454815D01*
X120611600Y-58433474D01*
X120605873Y-58427114D01*
X120605869Y-58427110D01*
X120452734Y-58315851D01*
X120452729Y-58315848D01*
X120279807Y-58238857D01*
X120279802Y-58238855D01*
X120134001Y-58207865D01*
X120094646Y-58199500D01*
X119905354Y-58199500D01*
X119872897Y-58206398D01*
X119720197Y-58238855D01*
X119720192Y-58238857D01*
X119547270Y-58315848D01*
X119547265Y-58315851D01*
X119394132Y-58427109D01*
X119394129Y-58427111D01*
X119394129Y-58427112D01*
X119294735Y-58537500D01*
X119273192Y-58561426D01*
X119213705Y-58598074D01*
X119143848Y-58596743D01*
X119108157Y-58578772D01*
X118976514Y-58483129D01*
X118952730Y-58465849D01*
X118952728Y-58465848D01*
X118952729Y-58465848D01*
X118779807Y-58388857D01*
X118779802Y-58388855D01*
X118628251Y-58356643D01*
X118594646Y-58349500D01*
X118405354Y-58349500D01*
X118372897Y-58356398D01*
X118220197Y-58388855D01*
X118220192Y-58388857D01*
X118047270Y-58465848D01*
X118047265Y-58465851D01*
X117894135Y-58577106D01*
X117894125Y-58577115D01*
X117883136Y-58589319D01*
X117823648Y-58625965D01*
X117753791Y-58624632D01*
X117703309Y-58594024D01*
X117364893Y-58255608D01*
X117364873Y-58255586D01*
X117273430Y-58164143D01*
X117224899Y-58131716D01*
X117204797Y-58118284D01*
X117204798Y-58118284D01*
X117204796Y-58118282D01*
X117170985Y-58095690D01*
X117170981Y-58095688D01*
X117157970Y-58090299D01*
X117089031Y-58061744D01*
X117089021Y-58061740D01*
X117057148Y-58048537D01*
X117047122Y-58046543D01*
X116996724Y-58036518D01*
X116936305Y-58024500D01*
X116936302Y-58024500D01*
X116936301Y-58024500D01*
X110960453Y-58024500D01*
X110893414Y-58004815D01*
X110872772Y-57988181D01*
X109938960Y-57054369D01*
X109905475Y-56993046D01*
X109903323Y-56979668D01*
X109885674Y-56811744D01*
X109827179Y-56631716D01*
X109732533Y-56467784D01*
X109605871Y-56327112D01*
X109605870Y-56327111D01*
X109452734Y-56215851D01*
X109452729Y-56215848D01*
X109279807Y-56138857D01*
X109279802Y-56138855D01*
X109121721Y-56105255D01*
X109094646Y-56099500D01*
X108905354Y-56099500D01*
X108878293Y-56105252D01*
X108720197Y-56138855D01*
X108720192Y-56138857D01*
X108547270Y-56215848D01*
X108547265Y-56215851D01*
X108394129Y-56327111D01*
X108267466Y-56467785D01*
X108172821Y-56631715D01*
X108172818Y-56631722D01*
X108121253Y-56790425D01*
X108114326Y-56811744D01*
X108094540Y-57000000D01*
X108114326Y-57188256D01*
X108114327Y-57188259D01*
X108172818Y-57368277D01*
X108172821Y-57368284D01*
X108267467Y-57532216D01*
X108373971Y-57650500D01*
X108394129Y-57672888D01*
X108547265Y-57784148D01*
X108547270Y-57784151D01*
X108720192Y-57861142D01*
X108720197Y-57861144D01*
X108905354Y-57900500D01*
X108964548Y-57900500D01*
X109031587Y-57920185D01*
X109052229Y-57936819D01*
X109378228Y-58262819D01*
X109411713Y-58324142D01*
X109406729Y-58393834D01*
X109364857Y-58449767D01*
X109299393Y-58474184D01*
X109290547Y-58474500D01*
X108328748Y-58474500D01*
X108261709Y-58454815D01*
X108236600Y-58433474D01*
X108230873Y-58427114D01*
X108230869Y-58427110D01*
X108077734Y-58315851D01*
X108077729Y-58315848D01*
X107904807Y-58238857D01*
X107904802Y-58238855D01*
X107759001Y-58207865D01*
X107719646Y-58199500D01*
X107530354Y-58199500D01*
X107497897Y-58206398D01*
X107345197Y-58238855D01*
X107345192Y-58238857D01*
X107172270Y-58315848D01*
X107172265Y-58315851D01*
X107019129Y-58427111D01*
X106892466Y-58567785D01*
X106797821Y-58731715D01*
X106797818Y-58731722D01*
X106746762Y-58888857D01*
X106739326Y-58911744D01*
X106719540Y-59100000D01*
X106739326Y-59288256D01*
X106739327Y-59288259D01*
X106797818Y-59468277D01*
X106797821Y-59468284D01*
X106892467Y-59632216D01*
X106998971Y-59750500D01*
X107019129Y-59772888D01*
X107172265Y-59884148D01*
X107172270Y-59884151D01*
X107345192Y-59961142D01*
X107345197Y-59961144D01*
X107530354Y-60000500D01*
X107530355Y-60000500D01*
X107719644Y-60000500D01*
X107719646Y-60000500D01*
X107904803Y-59961144D01*
X108077730Y-59884151D01*
X108230871Y-59772888D01*
X108234475Y-59768885D01*
X108236600Y-59766526D01*
X108296087Y-59729879D01*
X108328748Y-59725500D01*
X116377847Y-59725500D01*
X116444886Y-59745185D01*
X116465528Y-59761819D01*
X117241528Y-60537819D01*
X117275013Y-60599142D01*
X117270029Y-60668834D01*
X117228157Y-60724767D01*
X117162693Y-60749184D01*
X117153847Y-60749500D01*
X106936606Y-60749500D01*
X106813393Y-60749500D01*
X106786999Y-60754750D01*
X106760604Y-60760000D01*
X106760603Y-60759999D01*
X106692554Y-60773535D01*
X106692545Y-60773538D01*
X106578716Y-60820687D01*
X106578707Y-60820692D01*
X106476268Y-60889140D01*
X106432705Y-60932703D01*
X106389142Y-60976267D01*
X106389139Y-60976270D01*
X106205975Y-61159433D01*
X106144652Y-61192918D01*
X106074960Y-61187934D01*
X106019027Y-61146062D01*
X105994891Y-61083907D01*
X105986024Y-60993868D01*
X105928814Y-60805273D01*
X105928811Y-60805269D01*
X105928811Y-60805266D01*
X105835913Y-60631467D01*
X105835909Y-60631460D01*
X105710883Y-60479116D01*
X105558539Y-60354090D01*
X105558532Y-60354086D01*
X105384733Y-60261188D01*
X105384727Y-60261186D01*
X105196132Y-60203976D01*
X105196129Y-60203975D01*
X105000000Y-60184659D01*
X104803870Y-60203975D01*
X104615266Y-60261188D01*
X104441467Y-60354086D01*
X104441460Y-60354090D01*
X104289116Y-60479116D01*
X104164090Y-60631460D01*
X104164086Y-60631467D01*
X104071188Y-60805266D01*
X104013975Y-60993870D01*
X103994659Y-61190000D01*
X104013975Y-61386129D01*
X104023384Y-61417147D01*
X104064070Y-61551270D01*
X104071188Y-61574733D01*
X104164086Y-61748532D01*
X104167473Y-61753601D01*
X104165836Y-61754694D01*
X104189596Y-61810663D01*
X104177795Y-61879529D01*
X104167109Y-61896156D01*
X104167473Y-61896399D01*
X104164086Y-61901467D01*
X104071188Y-62075266D01*
X104013975Y-62263870D01*
X103994659Y-62460000D01*
X104013975Y-62656129D01*
X104071188Y-62844733D01*
X104164086Y-63018532D01*
X104167473Y-63023601D01*
X104165955Y-63024615D01*
X104189918Y-63081042D01*
X104178124Y-63149909D01*
X104167515Y-63166420D01*
X104167893Y-63166673D01*
X104164505Y-63171742D01*
X104071652Y-63345458D01*
X104030839Y-63479999D01*
X104030840Y-63480000D01*
X104790382Y-63480000D01*
X104739936Y-63530446D01*
X104697149Y-63604555D01*
X104675000Y-63687213D01*
X104675000Y-63772787D01*
X104697149Y-63855445D01*
X104739936Y-63929554D01*
X104790382Y-63980000D01*
X104030840Y-63980000D01*
X104071651Y-64114537D01*
X104072651Y-64116407D01*
X104072878Y-64117501D01*
X104073981Y-64120162D01*
X104073476Y-64120370D01*
X104086896Y-64184809D01*
X104062564Y-64249172D01*
X104056205Y-64257666D01*
X104056202Y-64257671D01*
X104005908Y-64392517D01*
X103999501Y-64452116D01*
X103999501Y-64452123D01*
X103999500Y-64452135D01*
X103999500Y-65547870D01*
X103999501Y-65547876D01*
X104005908Y-65607483D01*
X104056202Y-65742328D01*
X104056206Y-65742335D01*
X104142452Y-65857544D01*
X104142455Y-65857547D01*
X104257664Y-65943793D01*
X104257671Y-65943797D01*
X104392517Y-65994091D01*
X104392516Y-65994091D01*
X104399444Y-65994835D01*
X104452127Y-66000500D01*
X105547872Y-66000499D01*
X105607483Y-65994091D01*
X105742331Y-65943796D01*
X105857546Y-65857546D01*
X105943796Y-65742331D01*
X105994091Y-65607483D01*
X106000500Y-65547873D01*
X106000499Y-64452128D01*
X105994091Y-64392517D01*
X105966531Y-64318626D01*
X105943797Y-64257671D01*
X105943793Y-64257664D01*
X105937439Y-64249176D01*
X105913021Y-64183712D01*
X105926505Y-64120369D01*
X105926018Y-64120167D01*
X105927110Y-64117530D01*
X105927349Y-64116408D01*
X105928347Y-64114539D01*
X105969160Y-63980000D01*
X105209618Y-63980000D01*
X105260064Y-63929554D01*
X105302851Y-63855445D01*
X105325000Y-63772787D01*
X105325000Y-63687213D01*
X105302851Y-63604555D01*
X105260064Y-63530446D01*
X105209618Y-63480000D01*
X105969160Y-63480000D01*
X105969160Y-63479999D01*
X105928347Y-63345459D01*
X105886806Y-63267741D01*
X105872564Y-63199339D01*
X105897564Y-63134095D01*
X105948712Y-63094727D01*
X105977144Y-63082951D01*
X106046286Y-63054312D01*
X106079004Y-63032450D01*
X106099823Y-63018539D01*
X106099825Y-63018538D01*
X106132207Y-62996900D01*
X106148733Y-62985858D01*
X106235858Y-62898733D01*
X106235858Y-62898731D01*
X106242925Y-62891665D01*
X106242927Y-62891661D01*
X107097771Y-62036819D01*
X107159094Y-62003334D01*
X107185452Y-62000500D01*
X125978722Y-62000500D01*
X126045761Y-62020185D01*
X126070872Y-62041528D01*
X126144129Y-62122888D01*
X126297265Y-62234148D01*
X126297270Y-62234151D01*
X126470192Y-62311142D01*
X126470197Y-62311144D01*
X126655354Y-62350500D01*
X126655355Y-62350500D01*
X126844644Y-62350500D01*
X126844646Y-62350500D01*
X127029803Y-62311144D01*
X127202730Y-62234151D01*
X127355871Y-62122888D01*
X127428035Y-62042741D01*
X127487517Y-62006097D01*
X127557374Y-62007426D01*
X127607862Y-62038036D01*
X128765432Y-63195606D01*
X128765461Y-63195637D01*
X128855680Y-63285856D01*
X128894216Y-63311605D01*
X128894217Y-63311605D01*
X128894218Y-63311606D01*
X128958130Y-63354312D01*
X129036096Y-63386606D01*
X129071964Y-63401463D01*
X129071968Y-63401463D01*
X129071969Y-63401464D01*
X129087206Y-63404495D01*
X129087219Y-63404497D01*
X129087233Y-63404500D01*
X129192807Y-63425499D01*
X129192808Y-63425500D01*
X129192809Y-63425500D01*
X129192810Y-63425500D01*
X134494396Y-63425500D01*
X134561435Y-63445185D01*
X134582076Y-63461818D01*
X135743989Y-64623732D01*
X135743990Y-64623733D01*
X135800158Y-64679901D01*
X135831116Y-64710859D01*
X135933555Y-64779307D01*
X135933561Y-64779310D01*
X135933562Y-64779311D01*
X136047396Y-64826463D01*
X136098390Y-64836606D01*
X136168239Y-64850499D01*
X136168240Y-64850500D01*
X136168241Y-64850500D01*
X136168242Y-64850500D01*
X139680013Y-64850500D01*
X139747052Y-64870185D01*
X139792807Y-64922989D01*
X139803371Y-64987104D01*
X139799500Y-65024986D01*
X139799500Y-65650001D01*
X139799501Y-65650019D01*
X139810000Y-65752796D01*
X139810001Y-65752799D01*
X139865185Y-65919331D01*
X139865187Y-65919336D01*
X139900069Y-65975888D01*
X139926218Y-66018284D01*
X139957289Y-66068657D01*
X140050951Y-66162319D01*
X140084436Y-66223642D01*
X140079452Y-66293334D01*
X140050951Y-66337681D01*
X140012951Y-66375681D01*
X139951628Y-66409166D01*
X139925270Y-66412000D01*
X135513580Y-66412000D01*
X135368592Y-66440840D01*
X135368582Y-66440843D01*
X135232010Y-66497413D01*
X135232006Y-66497415D01*
X135232005Y-66497416D01*
X135211729Y-66510964D01*
X135211457Y-66511146D01*
X135109083Y-66579547D01*
X135097226Y-66591405D01*
X135035901Y-66624888D01*
X135035329Y-66625011D01*
X134970196Y-66638856D01*
X134970192Y-66638857D01*
X134797270Y-66715848D01*
X134797265Y-66715851D01*
X134644129Y-66827111D01*
X134517466Y-66967785D01*
X134422821Y-67131715D01*
X134422818Y-67131722D01*
X134364327Y-67311740D01*
X134364326Y-67311744D01*
X134344540Y-67500000D01*
X134364326Y-67688256D01*
X134364327Y-67688259D01*
X134412877Y-67837682D01*
X134414872Y-67907523D01*
X134378791Y-67967356D01*
X134316090Y-67998184D01*
X134294946Y-68000000D01*
X103124000Y-68000000D01*
X103056961Y-67980315D01*
X103011206Y-67927511D01*
X103000000Y-67876000D01*
X103000000Y-55874000D01*
X103019685Y-55806961D01*
X103072489Y-55761206D01*
X103124000Y-55750000D01*
X136807135Y-55750000D01*
X136874174Y-55769685D01*
G37*
G04 #@! TD.AperFunction*
G04 #@! TA.AperFunction,Conductor*
G36*
X226172691Y-45770185D02*
G01*
X226209966Y-45807459D01*
X226237969Y-45851032D01*
X226346706Y-45945254D01*
X226387174Y-45963735D01*
X226477580Y-46005023D01*
X226477583Y-46005023D01*
X226477584Y-46005024D01*
X226620000Y-46025500D01*
X227076355Y-46025500D01*
X227094001Y-46026762D01*
X227120000Y-46030500D01*
X227120003Y-46030500D01*
X230619992Y-46030500D01*
X230620000Y-46030500D01*
X230699076Y-46024277D01*
X230731523Y-46019138D01*
X230822323Y-45995962D01*
X230822334Y-45995956D01*
X230829152Y-45993331D01*
X230830085Y-45995754D01*
X230886588Y-45984295D01*
X230951702Y-46009632D01*
X230992781Y-46066150D01*
X231000000Y-46107842D01*
X231000000Y-46276283D01*
X230980315Y-46343322D01*
X230927511Y-46389077D01*
X230858353Y-46399021D01*
X230837684Y-46394215D01*
X230796813Y-46380936D01*
X230776208Y-46374241D01*
X230770948Y-46372614D01*
X230762418Y-46369976D01*
X230690554Y-46359644D01*
X230620000Y-46349500D01*
X227120000Y-46349500D01*
X227119992Y-46349500D01*
X227061318Y-46354118D01*
X227051590Y-46354500D01*
X226619997Y-46354500D01*
X226548059Y-46359644D01*
X226410005Y-46400182D01*
X226288969Y-46477967D01*
X226288968Y-46477968D01*
X226236026Y-46539066D01*
X226177247Y-46576840D01*
X226116536Y-46579152D01*
X226094646Y-46574500D01*
X225905354Y-46574500D01*
X225889241Y-46577925D01*
X225720197Y-46613855D01*
X225720192Y-46613857D01*
X225547270Y-46690848D01*
X225547265Y-46690851D01*
X225394129Y-46802111D01*
X225267466Y-46942785D01*
X225172821Y-47106715D01*
X225172818Y-47106722D01*
X225114327Y-47286740D01*
X225114326Y-47286744D01*
X225094540Y-47475000D01*
X225114326Y-47663256D01*
X225114327Y-47663259D01*
X225172818Y-47843277D01*
X225172821Y-47843284D01*
X225267467Y-48007216D01*
X225353186Y-48102416D01*
X225394129Y-48147888D01*
X225547265Y-48259148D01*
X225547270Y-48259151D01*
X225720192Y-48336142D01*
X225720197Y-48336144D01*
X225905354Y-48375500D01*
X225905355Y-48375500D01*
X226094643Y-48375500D01*
X226094646Y-48375500D01*
X226134990Y-48366924D01*
X226204654Y-48372239D01*
X226241971Y-48394499D01*
X226346706Y-48485254D01*
X226387174Y-48503735D01*
X226477580Y-48545023D01*
X226477583Y-48545023D01*
X226477584Y-48545024D01*
X226620000Y-48565500D01*
X227076355Y-48565500D01*
X227094001Y-48566762D01*
X227120000Y-48570500D01*
X227120003Y-48570500D01*
X230619992Y-48570500D01*
X230620000Y-48570500D01*
X230699076Y-48564277D01*
X230731523Y-48559138D01*
X230822323Y-48535962D01*
X230822334Y-48535956D01*
X230829152Y-48533331D01*
X230830085Y-48535754D01*
X230886588Y-48524295D01*
X230951702Y-48549632D01*
X230992781Y-48606150D01*
X231000000Y-48647842D01*
X231000000Y-48816283D01*
X230980315Y-48883322D01*
X230927511Y-48929077D01*
X230858353Y-48939021D01*
X230837684Y-48934215D01*
X230796813Y-48920936D01*
X230776208Y-48914241D01*
X230770948Y-48912614D01*
X230762418Y-48909976D01*
X230690554Y-48899644D01*
X230620000Y-48889500D01*
X227120000Y-48889500D01*
X227119992Y-48889500D01*
X227061318Y-48894118D01*
X227051590Y-48894500D01*
X226619997Y-48894500D01*
X226548059Y-48899644D01*
X226410005Y-48940182D01*
X226288970Y-49017967D01*
X226288968Y-49017969D01*
X226247001Y-49066399D01*
X226188221Y-49104172D01*
X226127510Y-49106485D01*
X226094646Y-49099500D01*
X225905354Y-49099500D01*
X225883374Y-49104172D01*
X225720197Y-49138855D01*
X225720192Y-49138857D01*
X225547270Y-49215848D01*
X225547265Y-49215851D01*
X225394129Y-49327111D01*
X225267466Y-49467785D01*
X225172821Y-49631715D01*
X225172818Y-49631722D01*
X225114327Y-49811740D01*
X225114326Y-49811744D01*
X225094540Y-50000000D01*
X225114326Y-50188256D01*
X225114327Y-50188259D01*
X225172818Y-50368277D01*
X225172821Y-50368284D01*
X225267467Y-50532216D01*
X225366692Y-50642416D01*
X225394129Y-50672888D01*
X225547265Y-50784148D01*
X225547270Y-50784151D01*
X225720192Y-50861142D01*
X225720197Y-50861144D01*
X225905354Y-50900500D01*
X225905355Y-50900500D01*
X226094642Y-50900500D01*
X226094646Y-50900500D01*
X226121761Y-50894736D01*
X226191425Y-50900051D01*
X226229844Y-50926864D01*
X226231266Y-50925224D01*
X226237969Y-50931032D01*
X226346706Y-51025254D01*
X226387174Y-51043735D01*
X226477580Y-51085023D01*
X226477583Y-51085023D01*
X226477584Y-51085024D01*
X226620000Y-51105500D01*
X227076355Y-51105500D01*
X227094001Y-51106762D01*
X227120000Y-51110500D01*
X227120003Y-51110500D01*
X230619992Y-51110500D01*
X230620000Y-51110500D01*
X230699076Y-51104277D01*
X230731523Y-51099138D01*
X230822323Y-51075962D01*
X230822334Y-51075956D01*
X230829152Y-51073331D01*
X230830085Y-51075754D01*
X230886588Y-51064295D01*
X230951702Y-51089632D01*
X230992781Y-51146150D01*
X231000000Y-51187842D01*
X231000000Y-51356283D01*
X230980315Y-51423322D01*
X230927511Y-51469077D01*
X230858353Y-51479021D01*
X230837684Y-51474215D01*
X230796813Y-51460936D01*
X230776208Y-51454241D01*
X230770948Y-51452614D01*
X230762418Y-51449976D01*
X230690554Y-51439644D01*
X230620000Y-51429500D01*
X227120000Y-51429500D01*
X227119992Y-51429500D01*
X227061318Y-51434118D01*
X227051590Y-51434500D01*
X226619997Y-51434500D01*
X226548059Y-51439644D01*
X226410005Y-51480182D01*
X226288970Y-51557967D01*
X226288968Y-51557969D01*
X226247001Y-51606399D01*
X226188221Y-51644172D01*
X226127510Y-51646485D01*
X226094646Y-51639500D01*
X225905354Y-51639500D01*
X225883374Y-51644172D01*
X225720197Y-51678855D01*
X225720192Y-51678857D01*
X225547270Y-51755848D01*
X225547265Y-51755851D01*
X225394129Y-51867111D01*
X225267466Y-52007785D01*
X225172821Y-52171715D01*
X225172818Y-52171722D01*
X225114481Y-52351267D01*
X225114326Y-52351744D01*
X225094540Y-52540000D01*
X225114326Y-52728256D01*
X225114327Y-52728259D01*
X225172818Y-52908277D01*
X225172821Y-52908284D01*
X225267467Y-53072216D01*
X225338876Y-53151523D01*
X225394129Y-53212888D01*
X225547265Y-53324148D01*
X225547270Y-53324151D01*
X225720192Y-53401142D01*
X225720197Y-53401144D01*
X225905354Y-53440500D01*
X225905355Y-53440500D01*
X226094642Y-53440500D01*
X226094646Y-53440500D01*
X226121761Y-53434736D01*
X226191425Y-53440051D01*
X226229844Y-53466864D01*
X226231266Y-53465224D01*
X226237969Y-53471032D01*
X226346706Y-53565254D01*
X226387174Y-53583735D01*
X226477580Y-53625023D01*
X226477583Y-53625023D01*
X226477584Y-53625024D01*
X226620000Y-53645500D01*
X227076355Y-53645500D01*
X227094001Y-53646762D01*
X227120000Y-53650500D01*
X227120003Y-53650500D01*
X230619992Y-53650500D01*
X230620000Y-53650500D01*
X230699076Y-53644277D01*
X230731523Y-53639138D01*
X230822323Y-53615962D01*
X230822334Y-53615956D01*
X230829152Y-53613331D01*
X230830085Y-53615754D01*
X230886588Y-53604295D01*
X230951702Y-53629632D01*
X230992781Y-53686150D01*
X231000000Y-53727842D01*
X231000000Y-53896283D01*
X230980315Y-53963322D01*
X230927511Y-54009077D01*
X230858353Y-54019021D01*
X230837684Y-54014215D01*
X230796813Y-54000936D01*
X230776208Y-53994241D01*
X230770948Y-53992614D01*
X230762418Y-53989976D01*
X230690554Y-53979644D01*
X230620000Y-53969500D01*
X227120000Y-53969500D01*
X227119992Y-53969500D01*
X227061318Y-53974118D01*
X227051590Y-53974500D01*
X226619997Y-53974500D01*
X226548059Y-53979644D01*
X226410005Y-54020182D01*
X226288970Y-54097967D01*
X226288968Y-54097969D01*
X226247001Y-54146399D01*
X226188221Y-54184172D01*
X226127510Y-54186485D01*
X226094646Y-54179500D01*
X225905354Y-54179500D01*
X225883374Y-54184172D01*
X225720197Y-54218855D01*
X225720192Y-54218857D01*
X225547270Y-54295848D01*
X225547265Y-54295851D01*
X225394129Y-54407111D01*
X225267466Y-54547785D01*
X225172821Y-54711715D01*
X225172818Y-54711722D01*
X225114327Y-54891740D01*
X225114326Y-54891744D01*
X225094540Y-55080000D01*
X225114326Y-55268256D01*
X225114327Y-55268259D01*
X225172818Y-55448277D01*
X225172821Y-55448284D01*
X225267467Y-55612216D01*
X225337672Y-55690186D01*
X225394129Y-55752888D01*
X225547265Y-55864148D01*
X225547270Y-55864151D01*
X225720192Y-55941142D01*
X225720197Y-55941144D01*
X225905354Y-55980500D01*
X225905355Y-55980500D01*
X226094642Y-55980500D01*
X226094646Y-55980500D01*
X226121761Y-55974736D01*
X226191425Y-55980051D01*
X226229844Y-56006864D01*
X226231266Y-56005224D01*
X226237969Y-56011032D01*
X226346706Y-56105254D01*
X226373830Y-56117641D01*
X226477580Y-56165023D01*
X226477583Y-56165023D01*
X226477584Y-56165024D01*
X226620000Y-56185500D01*
X227076355Y-56185500D01*
X227094001Y-56186762D01*
X227120000Y-56190500D01*
X227120003Y-56190500D01*
X230619992Y-56190500D01*
X230620000Y-56190500D01*
X230699076Y-56184277D01*
X230731523Y-56179138D01*
X230822323Y-56155962D01*
X230822334Y-56155956D01*
X230829152Y-56153331D01*
X230830085Y-56155754D01*
X230886588Y-56144295D01*
X230951702Y-56169632D01*
X230992781Y-56226150D01*
X231000000Y-56267842D01*
X231000000Y-56436283D01*
X230980315Y-56503322D01*
X230927511Y-56549077D01*
X230858353Y-56559021D01*
X230837684Y-56554215D01*
X230796813Y-56540936D01*
X230776208Y-56534241D01*
X230770948Y-56532614D01*
X230762418Y-56529976D01*
X230688461Y-56519343D01*
X230620000Y-56509500D01*
X227120000Y-56509500D01*
X227119992Y-56509500D01*
X227061318Y-56514118D01*
X227051590Y-56514500D01*
X226619997Y-56514500D01*
X226548059Y-56519644D01*
X226410005Y-56560182D01*
X226288969Y-56637967D01*
X226288965Y-56637971D01*
X226194750Y-56746700D01*
X226194745Y-56746708D01*
X226180905Y-56777013D01*
X226135149Y-56829816D01*
X226068111Y-56849500D01*
X225905354Y-56849500D01*
X225872897Y-56856398D01*
X225720197Y-56888855D01*
X225720192Y-56888857D01*
X225547270Y-56965848D01*
X225547265Y-56965851D01*
X225394129Y-57077111D01*
X225267466Y-57217785D01*
X225172821Y-57381715D01*
X225172818Y-57381722D01*
X225121508Y-57539639D01*
X225114326Y-57561744D01*
X225094540Y-57750000D01*
X225114326Y-57938256D01*
X225114327Y-57938259D01*
X225172818Y-58118277D01*
X225172820Y-58118282D01*
X225172821Y-58118284D01*
X225267467Y-58282216D01*
X225363487Y-58388857D01*
X225394129Y-58422888D01*
X225547265Y-58534148D01*
X225547270Y-58534151D01*
X225720192Y-58611142D01*
X225720197Y-58611144D01*
X225905354Y-58650500D01*
X225905355Y-58650500D01*
X226094644Y-58650500D01*
X226094646Y-58650500D01*
X226241563Y-58619272D01*
X226311230Y-58624588D01*
X226338855Y-58641067D01*
X226339246Y-58640459D01*
X226346701Y-58645250D01*
X226346706Y-58645254D01*
X226380872Y-58660857D01*
X226477580Y-58705023D01*
X226477583Y-58705023D01*
X226477584Y-58705024D01*
X226620000Y-58725500D01*
X227076355Y-58725500D01*
X227094001Y-58726762D01*
X227120000Y-58730500D01*
X227120003Y-58730500D01*
X230619992Y-58730500D01*
X230620000Y-58730500D01*
X230699076Y-58724277D01*
X230731523Y-58719138D01*
X230822323Y-58695962D01*
X230822334Y-58695956D01*
X230829152Y-58693331D01*
X230830085Y-58695754D01*
X230886588Y-58684295D01*
X230951702Y-58709632D01*
X230992781Y-58766150D01*
X231000000Y-58807842D01*
X231000000Y-58976283D01*
X230980315Y-59043322D01*
X230927511Y-59089077D01*
X230858353Y-59099021D01*
X230837684Y-59094215D01*
X230796813Y-59080936D01*
X230776208Y-59074241D01*
X230770948Y-59072614D01*
X230762418Y-59069976D01*
X230690554Y-59059644D01*
X230620000Y-59049500D01*
X227120000Y-59049500D01*
X227119992Y-59049500D01*
X227061318Y-59054118D01*
X227051590Y-59054500D01*
X226619997Y-59054500D01*
X226548059Y-59059644D01*
X226447824Y-59089077D01*
X226410625Y-59100000D01*
X226410005Y-59100182D01*
X226288969Y-59177967D01*
X226288965Y-59177971D01*
X226194750Y-59286700D01*
X226194744Y-59286709D01*
X226134976Y-59417580D01*
X226134975Y-59417585D01*
X226124112Y-59493146D01*
X226095087Y-59556702D01*
X226036309Y-59594477D01*
X226001374Y-59599500D01*
X225905354Y-59599500D01*
X225875004Y-59605951D01*
X225720197Y-59638855D01*
X225720192Y-59638857D01*
X225547270Y-59715848D01*
X225547265Y-59715851D01*
X225394129Y-59827111D01*
X225267466Y-59967785D01*
X225172821Y-60131715D01*
X225172818Y-60131722D01*
X225114713Y-60310552D01*
X225114326Y-60311744D01*
X225094540Y-60500000D01*
X225114326Y-60688256D01*
X225114327Y-60688259D01*
X225172818Y-60868277D01*
X225172821Y-60868284D01*
X225267467Y-61032216D01*
X225384525Y-61162222D01*
X225394129Y-61172888D01*
X225547265Y-61284148D01*
X225547270Y-61284151D01*
X225720192Y-61361142D01*
X225720197Y-61361144D01*
X225905354Y-61400500D01*
X225905355Y-61400500D01*
X226094644Y-61400500D01*
X226094646Y-61400500D01*
X226279803Y-61361144D01*
X226452730Y-61284151D01*
X226461073Y-61278089D01*
X226526873Y-61254607D01*
X226551602Y-61255665D01*
X226620000Y-61265500D01*
X227076355Y-61265500D01*
X227094001Y-61266762D01*
X227120000Y-61270500D01*
X227120003Y-61270500D01*
X230619992Y-61270500D01*
X230620000Y-61270500D01*
X230699076Y-61264277D01*
X230731523Y-61259138D01*
X230822323Y-61235962D01*
X230822334Y-61235956D01*
X230829152Y-61233331D01*
X230830085Y-61235754D01*
X230886588Y-61224295D01*
X230951702Y-61249632D01*
X230992781Y-61306150D01*
X231000000Y-61347842D01*
X231000000Y-67876000D01*
X230980315Y-67943039D01*
X230927511Y-67988794D01*
X230876000Y-68000000D01*
X158332061Y-68000000D01*
X158265022Y-67980315D01*
X158219267Y-67927511D01*
X158209323Y-67858353D01*
X158238348Y-67794797D01*
X158260913Y-67775965D01*
X158260480Y-67775406D01*
X158266636Y-67770629D01*
X158266643Y-67770626D01*
X158380626Y-67656643D01*
X158462681Y-67517894D01*
X158507654Y-67363098D01*
X158510500Y-67326935D01*
X158510499Y-65473066D01*
X158507654Y-65436902D01*
X158472358Y-65315413D01*
X158460505Y-65274614D01*
X158461841Y-65274225D01*
X158454304Y-65213195D01*
X158484590Y-65150230D01*
X158488965Y-65145623D01*
X159672771Y-63961819D01*
X159734094Y-63928334D01*
X159760452Y-63925500D01*
X161366029Y-63925500D01*
X161433068Y-63945185D01*
X161478823Y-63997989D01*
X161488767Y-64067147D01*
X161459742Y-64130703D01*
X161416465Y-64162779D01*
X161297270Y-64215848D01*
X161297265Y-64215851D01*
X161144129Y-64327111D01*
X161017466Y-64467785D01*
X160922821Y-64631715D01*
X160922818Y-64631722D01*
X160864327Y-64811740D01*
X160864326Y-64811744D01*
X160844540Y-65000000D01*
X160864326Y-65188256D01*
X160864327Y-65188259D01*
X160922818Y-65368277D01*
X160922821Y-65368284D01*
X161017467Y-65532216D01*
X161123528Y-65650008D01*
X161144129Y-65672888D01*
X161297265Y-65784148D01*
X161297270Y-65784151D01*
X161470192Y-65861142D01*
X161470197Y-65861144D01*
X161655354Y-65900500D01*
X161655355Y-65900500D01*
X161844644Y-65900500D01*
X161844646Y-65900500D01*
X162029803Y-65861144D01*
X162202730Y-65784151D01*
X162355871Y-65672888D01*
X162407851Y-65615158D01*
X162467336Y-65578510D01*
X162537193Y-65579840D01*
X162592148Y-65615158D01*
X162623528Y-65650008D01*
X162644129Y-65672888D01*
X162797265Y-65784148D01*
X162797270Y-65784151D01*
X162970192Y-65861142D01*
X162970197Y-65861144D01*
X163155354Y-65900500D01*
X163155355Y-65900500D01*
X163344644Y-65900500D01*
X163344646Y-65900500D01*
X163529803Y-65861144D01*
X163702730Y-65784151D01*
X163855871Y-65672888D01*
X163982533Y-65532216D01*
X164004828Y-65493600D01*
X164037217Y-65437501D01*
X164087783Y-65389285D01*
X164144604Y-65375500D01*
X171220540Y-65375500D01*
X171287579Y-65395185D01*
X171333334Y-65447989D01*
X171343256Y-65493600D01*
X171343861Y-65493537D01*
X171344438Y-65499035D01*
X171344540Y-65499500D01*
X171344540Y-65499997D01*
X171344540Y-65500000D01*
X171364326Y-65688256D01*
X171364327Y-65688259D01*
X171422818Y-65868277D01*
X171422821Y-65868284D01*
X171517467Y-66032216D01*
X171613829Y-66139236D01*
X171644129Y-66172888D01*
X171797265Y-66284148D01*
X171797270Y-66284151D01*
X171970192Y-66361142D01*
X171970197Y-66361144D01*
X172155354Y-66400500D01*
X172155355Y-66400500D01*
X172344644Y-66400500D01*
X172344646Y-66400500D01*
X172529803Y-66361144D01*
X172702730Y-66284151D01*
X172855871Y-66172888D01*
X172858788Y-66169647D01*
X172861600Y-66166526D01*
X172921087Y-66129879D01*
X172953748Y-66125500D01*
X183061607Y-66125500D01*
X183122029Y-66113481D01*
X183182452Y-66101463D01*
X183233061Y-66080500D01*
X183296286Y-66054312D01*
X183350204Y-66018284D01*
X183357572Y-66013360D01*
X183424248Y-65992482D01*
X183491629Y-66010965D01*
X183518614Y-66033490D01*
X183644129Y-66172888D01*
X183797265Y-66284148D01*
X183797270Y-66284151D01*
X183970192Y-66361142D01*
X183970197Y-66361144D01*
X184155354Y-66400500D01*
X184155355Y-66400500D01*
X184344644Y-66400500D01*
X184344646Y-66400500D01*
X184529803Y-66361144D01*
X184702730Y-66284151D01*
X184855871Y-66172888D01*
X184858788Y-66169647D01*
X184861600Y-66166526D01*
X184921087Y-66129879D01*
X184953748Y-66125500D01*
X194047868Y-66125500D01*
X194114907Y-66145185D01*
X194146519Y-66178310D01*
X194148383Y-66176956D01*
X194152203Y-66182214D01*
X194278867Y-66322888D01*
X194432003Y-66434148D01*
X194432008Y-66434151D01*
X194604930Y-66511142D01*
X194604935Y-66511144D01*
X194790092Y-66550500D01*
X194790093Y-66550500D01*
X194979382Y-66550500D01*
X194979384Y-66550500D01*
X195164541Y-66511144D01*
X195337468Y-66434151D01*
X195490609Y-66322888D01*
X195617271Y-66182216D01*
X195617272Y-66182212D01*
X195621093Y-66176956D01*
X195623453Y-66178670D01*
X195664882Y-66139236D01*
X195721608Y-66125500D01*
X210261607Y-66125500D01*
X210322029Y-66113481D01*
X210382452Y-66101463D01*
X210433061Y-66080500D01*
X210496286Y-66054312D01*
X210550204Y-66018284D01*
X210598733Y-65985858D01*
X210685858Y-65898733D01*
X210685859Y-65898730D01*
X210692925Y-65891665D01*
X210692928Y-65891661D01*
X211833273Y-64751315D01*
X211894594Y-64717832D01*
X211964286Y-64722816D01*
X212020219Y-64764688D01*
X212044636Y-64830152D01*
X212044480Y-64849805D01*
X212024341Y-65079997D01*
X212024341Y-65080000D01*
X212044936Y-65315403D01*
X212044938Y-65315413D01*
X212106094Y-65543655D01*
X212106096Y-65543659D01*
X212106097Y-65543663D01*
X212185801Y-65714588D01*
X212205965Y-65757830D01*
X212205967Y-65757834D01*
X212278305Y-65861142D01*
X212341505Y-65951401D01*
X212508599Y-66118495D01*
X212586276Y-66172885D01*
X212702165Y-66254032D01*
X212702167Y-66254033D01*
X212702170Y-66254035D01*
X212916337Y-66353903D01*
X212916343Y-66353904D01*
X212916344Y-66353905D01*
X212943361Y-66361144D01*
X213144592Y-66415063D01*
X213330658Y-66431342D01*
X213379999Y-66435659D01*
X213380000Y-66435659D01*
X213380001Y-66435659D01*
X213419234Y-66432226D01*
X213615408Y-66415063D01*
X213843663Y-66353903D01*
X214057830Y-66254035D01*
X214251401Y-66118495D01*
X214418495Y-65951401D01*
X214548425Y-65765842D01*
X214603002Y-65722217D01*
X214672500Y-65715023D01*
X214734855Y-65746546D01*
X214751575Y-65765842D01*
X214881500Y-65951395D01*
X214881505Y-65951401D01*
X215048599Y-66118495D01*
X215126276Y-66172885D01*
X215242165Y-66254032D01*
X215242167Y-66254033D01*
X215242170Y-66254035D01*
X215456337Y-66353903D01*
X215456343Y-66353904D01*
X215456344Y-66353905D01*
X215483361Y-66361144D01*
X215684592Y-66415063D01*
X215870658Y-66431342D01*
X215919999Y-66435659D01*
X215920000Y-66435659D01*
X215920001Y-66435659D01*
X215959234Y-66432226D01*
X216155408Y-66415063D01*
X216383663Y-66353903D01*
X216597830Y-66254035D01*
X216791401Y-66118495D01*
X216958495Y-65951401D01*
X217088425Y-65765842D01*
X217143002Y-65722217D01*
X217212500Y-65715023D01*
X217274855Y-65746546D01*
X217291575Y-65765842D01*
X217421500Y-65951395D01*
X217421505Y-65951401D01*
X217588599Y-66118495D01*
X217666276Y-66172885D01*
X217782165Y-66254032D01*
X217782167Y-66254033D01*
X217782170Y-66254035D01*
X217996337Y-66353903D01*
X217996343Y-66353904D01*
X217996344Y-66353905D01*
X218023361Y-66361144D01*
X218224592Y-66415063D01*
X218410658Y-66431342D01*
X218459999Y-66435659D01*
X218460000Y-66435659D01*
X218460001Y-66435659D01*
X218499234Y-66432226D01*
X218695408Y-66415063D01*
X218923663Y-66353903D01*
X219137830Y-66254035D01*
X219331401Y-66118495D01*
X219498495Y-65951401D01*
X219628425Y-65765842D01*
X219683002Y-65722217D01*
X219752500Y-65715023D01*
X219814855Y-65746546D01*
X219831575Y-65765842D01*
X219961500Y-65951395D01*
X219961505Y-65951401D01*
X220128599Y-66118495D01*
X220206276Y-66172885D01*
X220322165Y-66254032D01*
X220322167Y-66254033D01*
X220322170Y-66254035D01*
X220536337Y-66353903D01*
X220536343Y-66353904D01*
X220536344Y-66353905D01*
X220563361Y-66361144D01*
X220764592Y-66415063D01*
X220950658Y-66431342D01*
X220999999Y-66435659D01*
X221000000Y-66435659D01*
X221000001Y-66435659D01*
X221039234Y-66432226D01*
X221235408Y-66415063D01*
X221463663Y-66353903D01*
X221677830Y-66254035D01*
X221871401Y-66118495D01*
X222038495Y-65951401D01*
X222168730Y-65765405D01*
X222223307Y-65721781D01*
X222292805Y-65714587D01*
X222355160Y-65746110D01*
X222371879Y-65765405D01*
X222425072Y-65841372D01*
X222425073Y-65841372D01*
X223057037Y-65209408D01*
X223074075Y-65272993D01*
X223139901Y-65387007D01*
X223232993Y-65480099D01*
X223347007Y-65545925D01*
X223410591Y-65562962D01*
X222778626Y-66194926D01*
X222862417Y-66253598D01*
X222862421Y-66253600D01*
X223076507Y-66353429D01*
X223076516Y-66353433D01*
X223304673Y-66414567D01*
X223304684Y-66414569D01*
X223539998Y-66435157D01*
X223540002Y-66435157D01*
X223775315Y-66414569D01*
X223775326Y-66414567D01*
X224003483Y-66353433D01*
X224003492Y-66353429D01*
X224217580Y-66253599D01*
X224301371Y-66194925D01*
X223669408Y-65562962D01*
X223732993Y-65545925D01*
X223847007Y-65480099D01*
X223940099Y-65387007D01*
X224005925Y-65272993D01*
X224022962Y-65209408D01*
X224654925Y-65841371D01*
X224708120Y-65765404D01*
X224762697Y-65721780D01*
X224832196Y-65714588D01*
X224894550Y-65746111D01*
X224911268Y-65765404D01*
X225041505Y-65951401D01*
X225208599Y-66118495D01*
X225286276Y-66172885D01*
X225402165Y-66254032D01*
X225402167Y-66254033D01*
X225402170Y-66254035D01*
X225616337Y-66353903D01*
X225616343Y-66353904D01*
X225616344Y-66353905D01*
X225643361Y-66361144D01*
X225844592Y-66415063D01*
X226030658Y-66431342D01*
X226079999Y-66435659D01*
X226080000Y-66435659D01*
X226080001Y-66435659D01*
X226119234Y-66432226D01*
X226315408Y-66415063D01*
X226543663Y-66353903D01*
X226757830Y-66254035D01*
X226951401Y-66118495D01*
X227118495Y-65951401D01*
X227248425Y-65765842D01*
X227303002Y-65722217D01*
X227372500Y-65715023D01*
X227434855Y-65746546D01*
X227451575Y-65765842D01*
X227581500Y-65951395D01*
X227581505Y-65951401D01*
X227748599Y-66118495D01*
X227826276Y-66172885D01*
X227942165Y-66254032D01*
X227942167Y-66254033D01*
X227942170Y-66254035D01*
X228156337Y-66353903D01*
X228156343Y-66353904D01*
X228156344Y-66353905D01*
X228183361Y-66361144D01*
X228384592Y-66415063D01*
X228570658Y-66431342D01*
X228619999Y-66435659D01*
X228620000Y-66435659D01*
X228620001Y-66435659D01*
X228659234Y-66432226D01*
X228855408Y-66415063D01*
X229083663Y-66353903D01*
X229297830Y-66254035D01*
X229491401Y-66118495D01*
X229658495Y-65951401D01*
X229794035Y-65757830D01*
X229893903Y-65543663D01*
X229955063Y-65315408D01*
X229975659Y-65080000D01*
X229955063Y-64844592D01*
X229898024Y-64631716D01*
X229893905Y-64616344D01*
X229893904Y-64616343D01*
X229893903Y-64616337D01*
X229794035Y-64402171D01*
X229788731Y-64394595D01*
X229658494Y-64208597D01*
X229491402Y-64041506D01*
X229491395Y-64041501D01*
X229297834Y-63905967D01*
X229297830Y-63905965D01*
X229238575Y-63878334D01*
X229083663Y-63806097D01*
X229083659Y-63806096D01*
X229083655Y-63806094D01*
X228855413Y-63744938D01*
X228855403Y-63744936D01*
X228620001Y-63724341D01*
X228619993Y-63724341D01*
X228600086Y-63726082D01*
X228531587Y-63712314D01*
X228501602Y-63690235D01*
X227728418Y-62917049D01*
X227728416Y-62917047D01*
X227678541Y-62883723D01*
X227645439Y-62861606D01*
X227605495Y-62834916D01*
X227605494Y-62834915D01*
X227605492Y-62834914D01*
X227605490Y-62834913D01*
X227468917Y-62778343D01*
X227468907Y-62778340D01*
X227323920Y-62749500D01*
X227323918Y-62749500D01*
X224612229Y-62749500D01*
X224545190Y-62729815D01*
X224524548Y-62713181D01*
X224036819Y-62225451D01*
X224003334Y-62164128D01*
X224000500Y-62137770D01*
X224000500Y-47362229D01*
X224020185Y-47295190D01*
X224036819Y-47274548D01*
X225524548Y-45786819D01*
X225585871Y-45753334D01*
X225612229Y-45750500D01*
X226105652Y-45750500D01*
X226172691Y-45770185D01*
G37*
G04 #@! TD.AperFunction*
G04 #@! TA.AperFunction,Conductor*
G36*
X151015631Y-59297664D02*
G01*
X151059510Y-59328909D01*
X151144129Y-59422888D01*
X151170534Y-59442072D01*
X151297265Y-59534148D01*
X151297270Y-59534151D01*
X151470192Y-59611142D01*
X151470197Y-59611144D01*
X151655354Y-59650500D01*
X151655355Y-59650500D01*
X151844644Y-59650500D01*
X151844646Y-59650500D01*
X152029803Y-59611144D01*
X152202730Y-59534151D01*
X152313833Y-59453429D01*
X152379636Y-59429951D01*
X152447690Y-59445776D01*
X152494103Y-59491749D01*
X152517465Y-59532214D01*
X152644129Y-59672888D01*
X152797265Y-59784148D01*
X152797270Y-59784151D01*
X152970192Y-59861142D01*
X152970197Y-59861144D01*
X153155354Y-59900500D01*
X153155355Y-59900500D01*
X153344644Y-59900500D01*
X153344646Y-59900500D01*
X153529803Y-59861144D01*
X153702730Y-59784151D01*
X153855871Y-59672888D01*
X153982533Y-59532216D01*
X154025568Y-59457677D01*
X154080429Y-59362656D01*
X154082731Y-59363985D01*
X154120278Y-59319735D01*
X154187109Y-59299355D01*
X154254349Y-59318342D01*
X154276078Y-59335667D01*
X155986017Y-61045606D01*
X155986046Y-61045637D01*
X156076266Y-61135857D01*
X156083506Y-61140694D01*
X156112082Y-61159788D01*
X156112084Y-61159790D01*
X156112085Y-61159790D01*
X156178715Y-61204312D01*
X156259208Y-61237652D01*
X156292549Y-61251463D01*
X156305671Y-61254073D01*
X156344195Y-61261736D01*
X156344215Y-61261739D01*
X156344237Y-61261744D01*
X156413392Y-61275499D01*
X156413393Y-61275500D01*
X156865547Y-61275500D01*
X156932586Y-61295185D01*
X156978341Y-61347989D01*
X156988285Y-61417147D01*
X156959260Y-61480703D01*
X156953229Y-61487181D01*
X156889143Y-61551267D01*
X156889140Y-61551270D01*
X153526270Y-64914140D01*
X153526267Y-64914143D01*
X153481924Y-64958486D01*
X153447701Y-64992709D01*
X153423142Y-65011758D01*
X153393362Y-65029369D01*
X153393351Y-65029378D01*
X153377681Y-65045049D01*
X153316358Y-65078534D01*
X153246666Y-65073550D01*
X153202319Y-65045049D01*
X153186648Y-65029378D01*
X153186640Y-65029372D01*
X153156861Y-65011761D01*
X153132301Y-64992710D01*
X153050637Y-64911046D01*
X153050606Y-64911017D01*
X149495197Y-61355608D01*
X149495177Y-61355586D01*
X149403737Y-61264146D01*
X149403728Y-61264138D01*
X149398811Y-61260853D01*
X149380025Y-61245435D01*
X148731149Y-60596559D01*
X148697664Y-60535236D01*
X148702648Y-60465544D01*
X148744520Y-60409611D01*
X148809984Y-60385194D01*
X148844605Y-60387587D01*
X148905354Y-60400500D01*
X148905356Y-60400500D01*
X149094644Y-60400500D01*
X149094646Y-60400500D01*
X149259073Y-60365550D01*
X149328739Y-60370866D01*
X149377002Y-60403867D01*
X149394127Y-60422886D01*
X149394130Y-60422889D01*
X149547265Y-60534148D01*
X149547270Y-60534151D01*
X149720192Y-60611142D01*
X149720197Y-60611144D01*
X149905354Y-60650500D01*
X149905355Y-60650500D01*
X150094644Y-60650500D01*
X150094646Y-60650500D01*
X150279803Y-60611144D01*
X150452730Y-60534151D01*
X150605871Y-60422888D01*
X150732533Y-60282216D01*
X150827179Y-60118284D01*
X150885674Y-59938256D01*
X150905460Y-59750000D01*
X150885674Y-59561744D01*
X150849430Y-59450199D01*
X150847436Y-59380362D01*
X150883516Y-59320529D01*
X150946216Y-59289700D01*
X151015631Y-59297664D01*
G37*
G04 #@! TD.AperFunction*
G04 #@! TA.AperFunction,Conductor*
G36*
X225724550Y-39019685D02*
G01*
X225770305Y-39072489D01*
X225780249Y-39141647D01*
X225751224Y-39205203D01*
X225726402Y-39227102D01*
X225681581Y-39257049D01*
X224776866Y-40161764D01*
X224715543Y-40195249D01*
X224645851Y-40190265D01*
X224638749Y-40187362D01*
X224529807Y-40138857D01*
X224529802Y-40138855D01*
X224384001Y-40107865D01*
X224344646Y-40099500D01*
X224155354Y-40099500D01*
X224122897Y-40106398D01*
X223970197Y-40138855D01*
X223970192Y-40138857D01*
X223797270Y-40215848D01*
X223797265Y-40215851D01*
X223644129Y-40327111D01*
X223517466Y-40467785D01*
X223422821Y-40631715D01*
X223422818Y-40631722D01*
X223369655Y-40795342D01*
X223364326Y-40811744D01*
X223344540Y-41000000D01*
X223364326Y-41188256D01*
X223364327Y-41188259D01*
X223422818Y-41368277D01*
X223422820Y-41368282D01*
X223422821Y-41368284D01*
X223517467Y-41532216D01*
X223612468Y-41637725D01*
X223644129Y-41672888D01*
X223797265Y-41784148D01*
X223797270Y-41784151D01*
X223970192Y-41861142D01*
X223970197Y-41861144D01*
X224155354Y-41900500D01*
X224155355Y-41900500D01*
X224344644Y-41900500D01*
X224344646Y-41900500D01*
X224529803Y-41861144D01*
X224702730Y-41784151D01*
X224708442Y-41780001D01*
X226115000Y-41780001D01*
X226115000Y-42980002D01*
X226120140Y-43051870D01*
X226160634Y-43189781D01*
X226238345Y-43310703D01*
X226346976Y-43404832D01*
X226346977Y-43404833D01*
X226477721Y-43464543D01*
X226477725Y-43464544D01*
X226620001Y-43484999D01*
X226620003Y-43485000D01*
X227076355Y-43485000D01*
X227094001Y-43486262D01*
X227119998Y-43489999D01*
X227120003Y-43490000D01*
X227320001Y-43490000D01*
X227320001Y-43489999D01*
X227913552Y-43489999D01*
X227913553Y-43490000D01*
X229426448Y-43490000D01*
X229426448Y-43489999D01*
X228670000Y-42733552D01*
X228669999Y-42733552D01*
X227913552Y-43489999D01*
X227320001Y-43489999D01*
X227326052Y-43475389D01*
X227317421Y-43459581D01*
X227322405Y-43389889D01*
X227350906Y-43345542D01*
X228316448Y-42380000D01*
X228316448Y-42379999D01*
X227350905Y-41414457D01*
X227317420Y-41353134D01*
X227322404Y-41283442D01*
X227324327Y-41280448D01*
X227320000Y-41270000D01*
X227913551Y-41270000D01*
X228669999Y-42026447D01*
X229426447Y-41270000D01*
X227913551Y-41270000D01*
X227320000Y-41270000D01*
X227119992Y-41270000D01*
X227061319Y-41274618D01*
X227051591Y-41275000D01*
X226619997Y-41275000D01*
X226548129Y-41280140D01*
X226410218Y-41320634D01*
X226289296Y-41398345D01*
X226195167Y-41506976D01*
X226195166Y-41506977D01*
X226135456Y-41637721D01*
X226135455Y-41637725D01*
X226115000Y-41780001D01*
X224708442Y-41780001D01*
X224710457Y-41778537D01*
X224716452Y-41774182D01*
X224782258Y-41750702D01*
X224789337Y-41750500D01*
X225073920Y-41750500D01*
X225206425Y-41724142D01*
X225218913Y-41721658D01*
X225309967Y-41683942D01*
X225355493Y-41665085D01*
X225355493Y-41665084D01*
X225355495Y-41665084D01*
X225414737Y-41625500D01*
X225414737Y-41625499D01*
X225414739Y-41625499D01*
X225446576Y-41604226D01*
X225478416Y-41582952D01*
X226184390Y-40876976D01*
X226245713Y-40843492D01*
X226315404Y-40848476D01*
X226338243Y-40862019D01*
X226339246Y-40860459D01*
X226346701Y-40865250D01*
X226346706Y-40865254D01*
X226347464Y-40865600D01*
X226477580Y-40925023D01*
X226477583Y-40925023D01*
X226477584Y-40925024D01*
X226620000Y-40945500D01*
X227076355Y-40945500D01*
X227094001Y-40946762D01*
X227120000Y-40950500D01*
X227120003Y-40950500D01*
X230619992Y-40950500D01*
X230620000Y-40950500D01*
X230699076Y-40944277D01*
X230731523Y-40939138D01*
X230822323Y-40915962D01*
X230822334Y-40915956D01*
X230829152Y-40913331D01*
X230830085Y-40915754D01*
X230886588Y-40904295D01*
X230951702Y-40929632D01*
X230992781Y-40986150D01*
X231000000Y-41027842D01*
X231000000Y-41196808D01*
X230980315Y-41263847D01*
X230927511Y-41309602D01*
X230858353Y-41319546D01*
X230837684Y-41314740D01*
X230776000Y-41294699D01*
X230762283Y-41290458D01*
X230762270Y-41290455D01*
X230619998Y-41270000D01*
X230019999Y-41270000D01*
X230013946Y-41284611D01*
X230022578Y-41300418D01*
X230017594Y-41370110D01*
X229989093Y-41414457D01*
X229023551Y-42379998D01*
X229023551Y-42379999D01*
X229989094Y-43345542D01*
X230022579Y-43406865D01*
X230017595Y-43476557D01*
X230015671Y-43479549D01*
X230020000Y-43490000D01*
X230619992Y-43490000D01*
X230620007Y-43489999D01*
X230698985Y-43483784D01*
X230731454Y-43478641D01*
X230822153Y-43455491D01*
X230828977Y-43452863D01*
X230829891Y-43455236D01*
X230886575Y-43443734D01*
X230951692Y-43469064D01*
X230992777Y-43525578D01*
X231000000Y-43567282D01*
X231000000Y-43736283D01*
X230980315Y-43803322D01*
X230927511Y-43849077D01*
X230858353Y-43859021D01*
X230837684Y-43854215D01*
X230796813Y-43840936D01*
X230776208Y-43834241D01*
X230770948Y-43832614D01*
X230762418Y-43829976D01*
X230690554Y-43819644D01*
X230620000Y-43809500D01*
X227120000Y-43809500D01*
X227119992Y-43809500D01*
X227061318Y-43814118D01*
X227051590Y-43814500D01*
X226619997Y-43814500D01*
X226548059Y-43819644D01*
X226410005Y-43860182D01*
X226288969Y-43937967D01*
X226288965Y-43937971D01*
X226194750Y-44046700D01*
X226194744Y-44046709D01*
X226135237Y-44177012D01*
X226089482Y-44229816D01*
X226022443Y-44249500D01*
X225176080Y-44249500D01*
X225031092Y-44278340D01*
X225031082Y-44278343D01*
X224894511Y-44334912D01*
X224894498Y-44334919D01*
X224798996Y-44398733D01*
X224798995Y-44398734D01*
X224771581Y-44417050D01*
X224771580Y-44417051D01*
X222667052Y-46521578D01*
X222667049Y-46521581D01*
X222629402Y-46577924D01*
X222629403Y-46577925D01*
X222584913Y-46644508D01*
X222528343Y-46781082D01*
X222528340Y-46781092D01*
X222499500Y-46926079D01*
X222499500Y-46926082D01*
X222499500Y-62573918D01*
X222499500Y-62573920D01*
X222499499Y-62573920D01*
X222528340Y-62718907D01*
X222528343Y-62718917D01*
X222584913Y-62855490D01*
X222584916Y-62855495D01*
X222589000Y-62861608D01*
X222667049Y-62978418D01*
X222667052Y-62978421D01*
X222814132Y-63125500D01*
X223219078Y-63530446D01*
X223254853Y-63566220D01*
X223288338Y-63627543D01*
X223283354Y-63697234D01*
X223241483Y-63753168D01*
X223199266Y-63773676D01*
X223076514Y-63806567D01*
X223076507Y-63806570D01*
X222862423Y-63906399D01*
X222862421Y-63906400D01*
X222778627Y-63965073D01*
X222778626Y-63965073D01*
X223410591Y-64597037D01*
X223347007Y-64614075D01*
X223232993Y-64679901D01*
X223139901Y-64772993D01*
X223074075Y-64887007D01*
X223057037Y-64950590D01*
X222425073Y-64318626D01*
X222425072Y-64318627D01*
X222371880Y-64394595D01*
X222317303Y-64438220D01*
X222247805Y-64445414D01*
X222185450Y-64413891D01*
X222168730Y-64394595D01*
X222167274Y-64392516D01*
X222098356Y-64294090D01*
X222038494Y-64208597D01*
X221871402Y-64041506D01*
X221871395Y-64041501D01*
X221677834Y-63905967D01*
X221677830Y-63905965D01*
X221618575Y-63878334D01*
X221463663Y-63806097D01*
X221463659Y-63806096D01*
X221463655Y-63806094D01*
X221235413Y-63744938D01*
X221235403Y-63744936D01*
X221000001Y-63724341D01*
X220999999Y-63724341D01*
X220764596Y-63744936D01*
X220764587Y-63744938D01*
X220731590Y-63753779D01*
X220661740Y-63752114D01*
X220603879Y-63712950D01*
X220576377Y-63648721D01*
X220575500Y-63634003D01*
X220575500Y-44501998D01*
X220572289Y-44485858D01*
X220572288Y-44485854D01*
X220551463Y-44381153D01*
X220551460Y-44381146D01*
X220551459Y-44381142D01*
X220504314Y-44267322D01*
X220504312Y-44267319D01*
X220504312Y-44267318D01*
X220451483Y-44188256D01*
X220435858Y-44164871D01*
X220435855Y-44164868D01*
X220435853Y-44164865D01*
X220345637Y-44074649D01*
X220345606Y-44074620D01*
X215626594Y-39355608D01*
X215626574Y-39355586D01*
X215535129Y-39264141D01*
X215479695Y-39227102D01*
X215434890Y-39173490D01*
X215426183Y-39104165D01*
X215456337Y-39041138D01*
X215515780Y-39004418D01*
X215548586Y-39000000D01*
X225657511Y-39000000D01*
X225724550Y-39019685D01*
G37*
G04 #@! TD.AperFunction*
G04 #@! TA.AperFunction,Conductor*
G36*
X208779247Y-55769685D02*
G01*
X208821877Y-55816132D01*
X208871181Y-55909572D01*
X208905905Y-55957366D01*
X208909327Y-55962075D01*
X208926955Y-55984935D01*
X209032957Y-56082223D01*
X209046369Y-56088817D01*
X209162072Y-56145705D01*
X209162086Y-56145710D01*
X209185542Y-56153331D01*
X209223792Y-56165759D01*
X209237584Y-56170024D01*
X209380000Y-56190500D01*
X209380003Y-56190500D01*
X212879992Y-56190500D01*
X212880000Y-56190500D01*
X212938682Y-56185882D01*
X212948410Y-56185500D01*
X213380000Y-56185500D01*
X213451940Y-56180355D01*
X213465562Y-56176354D01*
X213535430Y-56176352D01*
X213594210Y-56214124D01*
X213623237Y-56277679D01*
X213624500Y-56295331D01*
X213624500Y-56406549D01*
X213604815Y-56473588D01*
X213552011Y-56519343D01*
X213482854Y-56529287D01*
X213380001Y-56514500D01*
X213380000Y-56514500D01*
X212923645Y-56514500D01*
X212905999Y-56513238D01*
X212880001Y-56509500D01*
X212880000Y-56509500D01*
X209380000Y-56509500D01*
X209379992Y-56509500D01*
X209300936Y-56515721D01*
X209268470Y-56520863D01*
X209213130Y-56534989D01*
X209177677Y-56544038D01*
X209177675Y-56544038D01*
X209177675Y-56544039D01*
X209177668Y-56544041D01*
X209050432Y-56611178D01*
X209050427Y-56611181D01*
X208997925Y-56649326D01*
X208975065Y-56666954D01*
X208975063Y-56666956D01*
X208877777Y-56772956D01*
X208877776Y-56772958D01*
X208814294Y-56902072D01*
X208814289Y-56902086D01*
X208794255Y-56963747D01*
X208789976Y-56977581D01*
X208769500Y-57120001D01*
X208769500Y-58120007D01*
X208775721Y-58199063D01*
X208780863Y-58231529D01*
X208788747Y-58262416D01*
X208804038Y-58322323D01*
X208804039Y-58322324D01*
X208804041Y-58322331D01*
X208871178Y-58449567D01*
X208871181Y-58449572D01*
X208871183Y-58449575D01*
X208909327Y-58502075D01*
X208926955Y-58524935D01*
X209032957Y-58622223D01*
X209071284Y-58641067D01*
X209162072Y-58685705D01*
X209162086Y-58685710D01*
X209190941Y-58695085D01*
X209223792Y-58705759D01*
X209237584Y-58710024D01*
X209380000Y-58730500D01*
X209380003Y-58730500D01*
X212879992Y-58730500D01*
X212880000Y-58730500D01*
X212938682Y-58725882D01*
X212948410Y-58725500D01*
X213000500Y-58725500D01*
X213067539Y-58745185D01*
X213113294Y-58797989D01*
X213124500Y-58849500D01*
X213124500Y-58930500D01*
X213104815Y-58997539D01*
X213052011Y-59043294D01*
X213000500Y-59054500D01*
X212923645Y-59054500D01*
X212905999Y-59053238D01*
X212880001Y-59049500D01*
X212880000Y-59049500D01*
X209380000Y-59049500D01*
X209379992Y-59049500D01*
X209300936Y-59055721D01*
X209268470Y-59060863D01*
X209217713Y-59073819D01*
X209177677Y-59084038D01*
X209177675Y-59084038D01*
X209177675Y-59084039D01*
X209177668Y-59084041D01*
X209050432Y-59151178D01*
X209050427Y-59151181D01*
X208997925Y-59189326D01*
X208975065Y-59206954D01*
X208975063Y-59206956D01*
X208877777Y-59312956D01*
X208877776Y-59312958D01*
X208814294Y-59442072D01*
X208814289Y-59442086D01*
X208794255Y-59503747D01*
X208789976Y-59517581D01*
X208769500Y-59660001D01*
X208769500Y-60660007D01*
X208775721Y-60739063D01*
X208780863Y-60771529D01*
X208781376Y-60773537D01*
X208804038Y-60862323D01*
X208804039Y-60862324D01*
X208804041Y-60862331D01*
X208871178Y-60989567D01*
X208871181Y-60989572D01*
X208871183Y-60989575D01*
X208909327Y-61042075D01*
X208926955Y-61064935D01*
X209032957Y-61162223D01*
X209046369Y-61168817D01*
X209162072Y-61225705D01*
X209162086Y-61225710D01*
X209185542Y-61233331D01*
X209223792Y-61245759D01*
X209237584Y-61250024D01*
X209322696Y-61262261D01*
X209386250Y-61291285D01*
X209424025Y-61350062D01*
X209424025Y-61419932D01*
X209392729Y-61472679D01*
X207927229Y-62938181D01*
X207865906Y-62971666D01*
X207839548Y-62974500D01*
X195943737Y-62974500D01*
X195919546Y-62972117D01*
X195866260Y-62961518D01*
X195805841Y-62949500D01*
X195805838Y-62949500D01*
X195805837Y-62949500D01*
X194086852Y-62949500D01*
X193963638Y-62949500D01*
X193963634Y-62949500D01*
X193903216Y-62961518D01*
X193859988Y-62970116D01*
X193842791Y-62973537D01*
X193813048Y-62985858D01*
X193813047Y-62985858D01*
X193728964Y-63020685D01*
X193728961Y-63020687D01*
X193723083Y-63024615D01*
X193711356Y-63032450D01*
X193711355Y-63032451D01*
X193626516Y-63089138D01*
X193626514Y-63089139D01*
X193602173Y-63113481D01*
X193539387Y-63176267D01*
X193539384Y-63176270D01*
X193370196Y-63345459D01*
X193227474Y-63488181D01*
X193166151Y-63521666D01*
X193139793Y-63524500D01*
X185508549Y-63524500D01*
X185441510Y-63504815D01*
X185420868Y-63488181D01*
X185416025Y-63483338D01*
X185416022Y-63483334D01*
X185416022Y-63483335D01*
X185408955Y-63476268D01*
X185408955Y-63476267D01*
X185321830Y-63389142D01*
X185321829Y-63389141D01*
X185321828Y-63389140D01*
X185269702Y-63354311D01*
X185242084Y-63335857D01*
X185219383Y-63320688D01*
X185134430Y-63285500D01*
X185134428Y-63285498D01*
X185105555Y-63273539D01*
X185105551Y-63273537D01*
X185105549Y-63273537D01*
X185105545Y-63273536D01*
X185105541Y-63273535D01*
X185006210Y-63253776D01*
X185006201Y-63253776D01*
X184984704Y-63249500D01*
X184984703Y-63249500D01*
X183413815Y-63249500D01*
X183290601Y-63249500D01*
X183269102Y-63253776D01*
X183269101Y-63253775D01*
X183169763Y-63273535D01*
X183169755Y-63273537D01*
X183140011Y-63285858D01*
X183140010Y-63285858D01*
X183055927Y-63320685D01*
X183055922Y-63320688D01*
X183033218Y-63335857D01*
X183033219Y-63335858D01*
X182953476Y-63389140D01*
X182917118Y-63425499D01*
X182866350Y-63476267D01*
X182866347Y-63476269D01*
X182866347Y-63476270D01*
X182704435Y-63638182D01*
X182643114Y-63671666D01*
X182616756Y-63674500D01*
X163981812Y-63674500D01*
X163914773Y-63654815D01*
X163869018Y-63602011D01*
X163859074Y-63532853D01*
X163888099Y-63469297D01*
X163894131Y-63462819D01*
X164157612Y-63199339D01*
X165345133Y-62011819D01*
X165406456Y-61978334D01*
X165432814Y-61975500D01*
X175433968Y-61975500D01*
X175433968Y-61975499D01*
X175503818Y-61961606D01*
X175503819Y-61961606D01*
X175521130Y-61958162D01*
X175554812Y-61951463D01*
X175588152Y-61937652D01*
X175668646Y-61904312D01*
X175719869Y-61870084D01*
X175771093Y-61835858D01*
X175858218Y-61748733D01*
X175858219Y-61748731D01*
X175865285Y-61741665D01*
X175865287Y-61741661D01*
X177745131Y-59861819D01*
X177806454Y-59828334D01*
X177832812Y-59825500D01*
X185498004Y-59825500D01*
X185498004Y-59825499D01*
X185576863Y-59809814D01*
X185576864Y-59809814D01*
X185591116Y-59806978D01*
X185618848Y-59801463D01*
X185652188Y-59787652D01*
X185732682Y-59754312D01*
X185792799Y-59714142D01*
X185835129Y-59685858D01*
X185922254Y-59598733D01*
X185922255Y-59598730D01*
X185929321Y-59591665D01*
X185929324Y-59591661D01*
X186800537Y-58720447D01*
X186819310Y-58705039D01*
X186834210Y-58695084D01*
X186885434Y-58660858D01*
X186972559Y-58573733D01*
X186972561Y-58573729D01*
X187159473Y-58386816D01*
X187220796Y-58353334D01*
X187247153Y-58350500D01*
X196336608Y-58350500D01*
X196336608Y-58350499D01*
X196399827Y-58337925D01*
X196399829Y-58337925D01*
X196457442Y-58326465D01*
X196457442Y-58326464D01*
X196457452Y-58326463D01*
X196490792Y-58312652D01*
X196571286Y-58279312D01*
X196636319Y-58235857D01*
X196673733Y-58210858D01*
X196760858Y-58123733D01*
X196760860Y-58123729D01*
X196947772Y-57936816D01*
X197009095Y-57903334D01*
X197035452Y-57900500D01*
X197094644Y-57900500D01*
X197094646Y-57900500D01*
X197279803Y-57861144D01*
X197452730Y-57784151D01*
X197605871Y-57672888D01*
X197732533Y-57532216D01*
X197827179Y-57368284D01*
X197885674Y-57188256D01*
X197905460Y-57000000D01*
X197885674Y-56811744D01*
X197827179Y-56631716D01*
X197732533Y-56467784D01*
X197605871Y-56327112D01*
X197605870Y-56327111D01*
X197452734Y-56215851D01*
X197452729Y-56215848D01*
X197279807Y-56138857D01*
X197279802Y-56138855D01*
X197121721Y-56105255D01*
X197094646Y-56099500D01*
X196905354Y-56099500D01*
X196878293Y-56105252D01*
X196720197Y-56138855D01*
X196720192Y-56138857D01*
X196547270Y-56215848D01*
X196547265Y-56215851D01*
X196394129Y-56327111D01*
X196267466Y-56467785D01*
X196172821Y-56631715D01*
X196172818Y-56631722D01*
X196121253Y-56790425D01*
X196114326Y-56811744D01*
X196098129Y-56965851D01*
X196096679Y-56979650D01*
X196070094Y-57044264D01*
X196061044Y-57054364D01*
X196052233Y-57063176D01*
X195990912Y-57096665D01*
X195964547Y-57099500D01*
X195527568Y-57099500D01*
X195460529Y-57079815D01*
X195414774Y-57027011D01*
X195404247Y-56988462D01*
X195403104Y-56977584D01*
X195385674Y-56811744D01*
X195327179Y-56631716D01*
X195232533Y-56467784D01*
X195105871Y-56327112D01*
X195105870Y-56327111D01*
X194952734Y-56215851D01*
X194952729Y-56215848D01*
X194779807Y-56138857D01*
X194779802Y-56138855D01*
X194621721Y-56105255D01*
X194594646Y-56099500D01*
X194405354Y-56099500D01*
X194378293Y-56105252D01*
X194220197Y-56138855D01*
X194220192Y-56138857D01*
X194047270Y-56215848D01*
X194047265Y-56215851D01*
X193894130Y-56327110D01*
X193894126Y-56327114D01*
X193888400Y-56333474D01*
X193828913Y-56370121D01*
X193796252Y-56374500D01*
X186938389Y-56374500D01*
X186817553Y-56398535D01*
X186817537Y-56398540D01*
X186791174Y-56409460D01*
X186721705Y-56416927D01*
X186659226Y-56385651D01*
X186651574Y-56377870D01*
X186605871Y-56327112D01*
X186605869Y-56327110D01*
X186452734Y-56215851D01*
X186452729Y-56215848D01*
X186279807Y-56138857D01*
X186279802Y-56138855D01*
X186121721Y-56105255D01*
X186094646Y-56099500D01*
X185905354Y-56099500D01*
X185878293Y-56105252D01*
X185720197Y-56138855D01*
X185720192Y-56138857D01*
X185547270Y-56215848D01*
X185547265Y-56215851D01*
X185394129Y-56327111D01*
X185267466Y-56467785D01*
X185172821Y-56631715D01*
X185172818Y-56631722D01*
X185121253Y-56790425D01*
X185114326Y-56811744D01*
X185107730Y-56874500D01*
X185096678Y-56979651D01*
X185070093Y-57044266D01*
X185061038Y-57054370D01*
X184609255Y-57506154D01*
X184547932Y-57539639D01*
X184478241Y-57534655D01*
X184422307Y-57492784D01*
X184398253Y-57431436D01*
X184385674Y-57311744D01*
X184327179Y-57131716D01*
X184232533Y-56967784D01*
X184105871Y-56827112D01*
X184105870Y-56827111D01*
X183952734Y-56715851D01*
X183952729Y-56715848D01*
X183779807Y-56638857D01*
X183779802Y-56638855D01*
X183634001Y-56607865D01*
X183594646Y-56599500D01*
X183405354Y-56599500D01*
X183372897Y-56606398D01*
X183220197Y-56638855D01*
X183220192Y-56638857D01*
X183047270Y-56715848D01*
X183047265Y-56715851D01*
X182894130Y-56827110D01*
X182894126Y-56827114D01*
X182888400Y-56833474D01*
X182828913Y-56870121D01*
X182796252Y-56874500D01*
X177374779Y-56874500D01*
X177251565Y-56874500D01*
X177221599Y-56880460D01*
X177191632Y-56886421D01*
X177191631Y-56886420D01*
X177130727Y-56898535D01*
X177130719Y-56898537D01*
X177084824Y-56917548D01*
X177084823Y-56917548D01*
X177016894Y-56945684D01*
X177016883Y-56945690D01*
X176999792Y-56957110D01*
X176991362Y-56962743D01*
X176991361Y-56962744D01*
X176991360Y-56962743D01*
X176914438Y-57014142D01*
X176914437Y-57014143D01*
X176891081Y-57037500D01*
X176827314Y-57101267D01*
X176827311Y-57101270D01*
X175692724Y-58235858D01*
X174590401Y-59338181D01*
X174529078Y-59371666D01*
X174502720Y-59374500D01*
X164624779Y-59374500D01*
X164501566Y-59374500D01*
X164481579Y-59378475D01*
X164461592Y-59382451D01*
X164461562Y-59382457D01*
X164459206Y-59382925D01*
X164389616Y-59376679D01*
X164334449Y-59333802D01*
X164311222Y-59267906D01*
X164327308Y-59199913D01*
X164347362Y-59173623D01*
X164634167Y-58886819D01*
X164695490Y-58853334D01*
X164721848Y-58850500D01*
X173836608Y-58850500D01*
X173836608Y-58850499D01*
X173927347Y-58832451D01*
X173927348Y-58832451D01*
X173937473Y-58830436D01*
X173957452Y-58826463D01*
X173957457Y-58826460D01*
X173957460Y-58826460D01*
X173990787Y-58812654D01*
X173990786Y-58812654D01*
X173990792Y-58812652D01*
X174071286Y-58779312D01*
X174136319Y-58735857D01*
X174173733Y-58710858D01*
X174260858Y-58623733D01*
X174260858Y-58623731D01*
X174271066Y-58613524D01*
X174271067Y-58613521D01*
X174947772Y-57936819D01*
X175009095Y-57903334D01*
X175035453Y-57900500D01*
X175094644Y-57900500D01*
X175094646Y-57900500D01*
X175279803Y-57861144D01*
X175452730Y-57784151D01*
X175605871Y-57672888D01*
X175732533Y-57532216D01*
X175827179Y-57368284D01*
X175885674Y-57188256D01*
X175905460Y-57000000D01*
X175885674Y-56811744D01*
X175827179Y-56631716D01*
X175732533Y-56467784D01*
X175605871Y-56327112D01*
X175605870Y-56327111D01*
X175452734Y-56215851D01*
X175452729Y-56215848D01*
X175279807Y-56138857D01*
X175279802Y-56138855D01*
X175121721Y-56105255D01*
X175094646Y-56099500D01*
X174905354Y-56099500D01*
X174878293Y-56105252D01*
X174720197Y-56138855D01*
X174720192Y-56138857D01*
X174547270Y-56215848D01*
X174547265Y-56215851D01*
X174394129Y-56327111D01*
X174267466Y-56467785D01*
X174172821Y-56631715D01*
X174172818Y-56631722D01*
X174121253Y-56790425D01*
X174114326Y-56811744D01*
X174098129Y-56965851D01*
X174096679Y-56979650D01*
X174070094Y-57044264D01*
X174061039Y-57054369D01*
X173609255Y-57506154D01*
X173547932Y-57539639D01*
X173478241Y-57534655D01*
X173422307Y-57492784D01*
X173398253Y-57431436D01*
X173385674Y-57311744D01*
X173327179Y-57131716D01*
X173232533Y-56967784D01*
X173105871Y-56827112D01*
X173105870Y-56827111D01*
X172952734Y-56715851D01*
X172952729Y-56715848D01*
X172779807Y-56638857D01*
X172779802Y-56638855D01*
X172634001Y-56607865D01*
X172594646Y-56599500D01*
X172405354Y-56599500D01*
X172372897Y-56606398D01*
X172220197Y-56638855D01*
X172220192Y-56638857D01*
X172047270Y-56715848D01*
X172047265Y-56715851D01*
X171894129Y-56827111D01*
X171767465Y-56967785D01*
X171727216Y-57037500D01*
X171676649Y-57085716D01*
X171619829Y-57099500D01*
X165027568Y-57099500D01*
X164960529Y-57079815D01*
X164914774Y-57027011D01*
X164904247Y-56988462D01*
X164903104Y-56977584D01*
X164885674Y-56811744D01*
X164827179Y-56631716D01*
X164732533Y-56467784D01*
X164605871Y-56327112D01*
X164605870Y-56327111D01*
X164452734Y-56215851D01*
X164452729Y-56215848D01*
X164279807Y-56138857D01*
X164279802Y-56138855D01*
X164121721Y-56105255D01*
X164094646Y-56099500D01*
X163905354Y-56099500D01*
X163878293Y-56105252D01*
X163720197Y-56138855D01*
X163720192Y-56138857D01*
X163547270Y-56215848D01*
X163547265Y-56215851D01*
X163394129Y-56327111D01*
X163267466Y-56467785D01*
X163172821Y-56631715D01*
X163172818Y-56631722D01*
X163121253Y-56790425D01*
X163114326Y-56811744D01*
X163098129Y-56965849D01*
X163094540Y-57000000D01*
X163114118Y-57186289D01*
X163101548Y-57255018D01*
X163078478Y-57286930D01*
X161277229Y-59088181D01*
X161215906Y-59121666D01*
X161189548Y-59124500D01*
X161099000Y-59124500D01*
X161031961Y-59104815D01*
X160986206Y-59052011D01*
X160985287Y-59047787D01*
X160975000Y-59037500D01*
X158525001Y-59037500D01*
X158493727Y-59068774D01*
X158432404Y-59102259D01*
X158362712Y-59097275D01*
X158318365Y-59068774D01*
X158023837Y-58774246D01*
X157990352Y-58712923D01*
X157995336Y-58643231D01*
X158037208Y-58587298D01*
X158076919Y-58567490D01*
X158127894Y-58552681D01*
X158266643Y-58470626D01*
X158313318Y-58423951D01*
X158374641Y-58390465D01*
X158444332Y-58395449D01*
X158500266Y-58437320D01*
X158524684Y-58502784D01*
X158525000Y-58511631D01*
X158525000Y-58537500D01*
X160974999Y-58537500D01*
X160974999Y-58400028D01*
X160974998Y-58400013D01*
X160964506Y-58297304D01*
X160918345Y-58158003D01*
X160915943Y-58088174D01*
X160948367Y-58031322D01*
X161299047Y-57680642D01*
X161360368Y-57647159D01*
X161360765Y-57647073D01*
X161529803Y-57611144D01*
X161702730Y-57534151D01*
X161855871Y-57422888D01*
X161982533Y-57282216D01*
X162077179Y-57118284D01*
X162135674Y-56938256D01*
X162155460Y-56750000D01*
X162135674Y-56561744D01*
X162077179Y-56381716D01*
X161982533Y-56217784D01*
X161855871Y-56077112D01*
X161764919Y-56011032D01*
X161714387Y-55974318D01*
X161671721Y-55918988D01*
X161665742Y-55849375D01*
X161698348Y-55787580D01*
X161759186Y-55753223D01*
X161787272Y-55750000D01*
X208712208Y-55750000D01*
X208779247Y-55769685D01*
G37*
G04 #@! TD.AperFunction*
G04 #@! TA.AperFunction,Conductor*
G36*
X147768039Y-57119685D02*
G01*
X147813794Y-57172489D01*
X147825000Y-57224000D01*
X147825000Y-58593673D01*
X147967694Y-58552218D01*
X147967695Y-58552218D01*
X148106329Y-58470231D01*
X148106336Y-58470225D01*
X148121963Y-58454598D01*
X148183285Y-58421111D01*
X148252977Y-58426094D01*
X148297329Y-58454598D01*
X148313350Y-58470620D01*
X148313352Y-58470621D01*
X148313357Y-58470626D01*
X148313613Y-58470777D01*
X148313771Y-58470947D01*
X148319517Y-58475403D01*
X148318798Y-58476329D01*
X148361300Y-58521841D01*
X148374500Y-58577513D01*
X148374500Y-58801312D01*
X148354815Y-58868351D01*
X148342650Y-58884284D01*
X148267466Y-58967784D01*
X148172821Y-59131715D01*
X148172818Y-59131722D01*
X148118901Y-59297664D01*
X148114326Y-59311744D01*
X148094540Y-59500000D01*
X148114326Y-59688256D01*
X148114327Y-59688259D01*
X148138442Y-59762477D01*
X148140437Y-59832318D01*
X148104357Y-59892151D01*
X148041656Y-59922979D01*
X147973066Y-59915359D01*
X147959626Y-59909793D01*
X147959620Y-59909788D01*
X147959620Y-59909790D01*
X147932455Y-59898538D01*
X147932453Y-59898537D01*
X147932452Y-59898537D01*
X147872029Y-59886518D01*
X147811610Y-59874500D01*
X147811607Y-59874500D01*
X147811606Y-59874500D01*
X147202847Y-59874500D01*
X147135808Y-59854815D01*
X147090053Y-59802011D01*
X147080109Y-59732853D01*
X147109134Y-59669297D01*
X147110697Y-59667528D01*
X147117355Y-59660134D01*
X147232533Y-59532216D01*
X147327179Y-59368284D01*
X147385674Y-59188256D01*
X147405460Y-59000000D01*
X147385674Y-58811744D01*
X147344263Y-58684295D01*
X147331069Y-58643687D01*
X147325000Y-58605369D01*
X147325000Y-57224000D01*
X147344685Y-57156961D01*
X147397489Y-57111206D01*
X147449000Y-57100000D01*
X147701000Y-57100000D01*
X147768039Y-57119685D01*
G37*
G04 #@! TD.AperFunction*
G04 #@! TA.AperFunction,Conductor*
G36*
X145410774Y-58578153D02*
G01*
X145469444Y-58616095D01*
X145498288Y-58679733D01*
X145499500Y-58697030D01*
X145499500Y-58823918D01*
X145499500Y-58823920D01*
X145499499Y-58823920D01*
X145528340Y-58968907D01*
X145528343Y-58968917D01*
X145584913Y-59105489D01*
X145584914Y-59105491D01*
X145584916Y-59105495D01*
X145592477Y-59116811D01*
X145612694Y-59172735D01*
X145614325Y-59188249D01*
X145614327Y-59188260D01*
X145672818Y-59368277D01*
X145672821Y-59368284D01*
X145767467Y-59532216D01*
X145882645Y-59660134D01*
X145889303Y-59667528D01*
X145919533Y-59730519D01*
X145910908Y-59799854D01*
X145866167Y-59853520D01*
X145799514Y-59874478D01*
X145797153Y-59874500D01*
X143585452Y-59874500D01*
X143518413Y-59854815D01*
X143497771Y-59838181D01*
X142963960Y-59304370D01*
X142930475Y-59243047D01*
X142928323Y-59229671D01*
X142919166Y-59142546D01*
X142931736Y-59073819D01*
X142979468Y-59022795D01*
X143047209Y-59005678D01*
X143089938Y-59015026D01*
X143117548Y-59026463D01*
X143124041Y-59027754D01*
X143156476Y-59034207D01*
X143156506Y-59034212D01*
X143238390Y-59050499D01*
X143238392Y-59050500D01*
X143238393Y-59050500D01*
X144159492Y-59050500D01*
X144159492Y-59050499D01*
X144241378Y-59034212D01*
X144241380Y-59034212D01*
X144260989Y-59030311D01*
X144280336Y-59026463D01*
X144328743Y-59006412D01*
X144394170Y-58979312D01*
X144464299Y-58932452D01*
X144496617Y-58910858D01*
X144583742Y-58823733D01*
X144583743Y-58823731D01*
X144590809Y-58816665D01*
X144590812Y-58816661D01*
X144770656Y-58636816D01*
X144831977Y-58603333D01*
X144858326Y-58600499D01*
X145236934Y-58600499D01*
X145273098Y-58597654D01*
X145340905Y-58577954D01*
X145410774Y-58578153D01*
G37*
G04 #@! TD.AperFunction*
M02*
