G04 #@! TF.GenerationSoftware,KiCad,Pcbnew,8.0.7*
G04 #@! TF.CreationDate,2025-06-17T21:23:17-04:00*
G04 #@! TF.ProjectId,ESP32_MIDI_Summer25_Wand,45535033-325f-44d4-9944-495f53756d6d,rev?*
G04 #@! TF.SameCoordinates,Original*
G04 #@! TF.FileFunction,Soldermask,Top*
G04 #@! TF.FilePolarity,Negative*
%FSLAX46Y46*%
G04 Gerber Fmt 4.6, Leading zero omitted, Abs format (unit mm)*
G04 Created by KiCad (PCBNEW 8.0.7) date 2025-06-17 21:23:17*
%MOMM*%
%LPD*%
G01*
G04 APERTURE LIST*
G04 Aperture macros list*
%AMRoundRect*
0 Rectangle with rounded corners*
0 $1 Rounding radius*
0 $2 $3 $4 $5 $6 $7 $8 $9 X,Y pos of 4 corners*
0 Add a 4 corners polygon primitive as box body*
4,1,4,$2,$3,$4,$5,$6,$7,$8,$9,$2,$3,0*
0 Add four circle primitives for the rounded corners*
1,1,$1+$1,$2,$3*
1,1,$1+$1,$4,$5*
1,1,$1+$1,$6,$7*
1,1,$1+$1,$8,$9*
0 Add four rect primitives between the rounded corners*
20,1,$1+$1,$2,$3,$4,$5,0*
20,1,$1+$1,$4,$5,$6,$7,0*
20,1,$1+$1,$6,$7,$8,$9,0*
20,1,$1+$1,$8,$9,$2,$3,0*%
%AMFreePoly0*
4,1,11,0.600000,-3.000000,0.580902,-3.058779,0.530902,-3.095106,0.500000,-3.100000,-0.500000,-3.100000,-0.558779,-3.080902,-0.595106,-3.030902,-0.600000,-3.000000,-0.600000,1.000000,0.600000,1.000000,0.600000,-3.000000,0.600000,-3.000000,$1*%
G04 Aperture macros list end*
%ADD10R,1.600000X1.600000*%
%ADD11C,1.600000*%
%ADD12C,1.800000*%
%ADD13R,5.000000X2.600000*%
%ADD14RoundRect,0.162500X0.837500X0.162500X-0.837500X0.162500X-0.837500X-0.162500X0.837500X-0.162500X0*%
%ADD15R,6.000000X2.000000*%
%ADD16C,3.200000*%
%ADD17R,1.700000X1.700000*%
%ADD18O,1.700000X1.700000*%
%ADD19C,1.400000*%
%ADD20O,1.400000X1.400000*%
%ADD21FreePoly0,180.000000*%
%ADD22FreePoly0,0.000000*%
%ADD23C,1.700000*%
%ADD24C,4.000000*%
%ADD25C,2.200000*%
G04 APERTURE END LIST*
D10*
X180044888Y-91500000D03*
D11*
X182044888Y-91500000D03*
X253500000Y-92000000D03*
X253500000Y-87000000D03*
X176000000Y-110500000D03*
X181000000Y-110500000D03*
D12*
X216750000Y-96000000D03*
X214750000Y-96000000D03*
X212750000Y-96000000D03*
X210750000Y-96000000D03*
X208750000Y-96000000D03*
D13*
X205400000Y-86000000D03*
X220100000Y-86000000D03*
D14*
X180420000Y-105950000D03*
X180420000Y-105000000D03*
X180420000Y-104050000D03*
X177000000Y-104050000D03*
X177000000Y-105950000D03*
D15*
X169500000Y-102500000D03*
X169500000Y-100000000D03*
X169500000Y-97500000D03*
D16*
X172500000Y-90500000D03*
D17*
X225300000Y-88000000D03*
D18*
X227840000Y-88000000D03*
X230380000Y-88000000D03*
X232920000Y-88000000D03*
X235460000Y-88000000D03*
X238000000Y-88000000D03*
X240540000Y-88000000D03*
D19*
X245000000Y-86000000D03*
D20*
X245000000Y-93620000D03*
D21*
X278660000Y-91380000D03*
X276120000Y-91380000D03*
X273580000Y-91380000D03*
X271040000Y-91380000D03*
X268500000Y-91380000D03*
X265960000Y-91380000D03*
X263420000Y-91380000D03*
X260880000Y-91380000D03*
X258340000Y-91380000D03*
D22*
X258340000Y-106620000D03*
X260880000Y-106620000D03*
X263420000Y-106620000D03*
X265960000Y-106620000D03*
X268500000Y-106620000D03*
X271040000Y-106620000D03*
X273580000Y-106620000D03*
X276120000Y-106620000D03*
X278660000Y-106620000D03*
D19*
X175500000Y-102310000D03*
D20*
X175500000Y-94690000D03*
D12*
X196250000Y-96000000D03*
X194250000Y-96000000D03*
X192250000Y-96000000D03*
X190250000Y-96000000D03*
X188250000Y-96000000D03*
D13*
X184900000Y-86000000D03*
X199600000Y-86000000D03*
D19*
X249000000Y-86000000D03*
D20*
X249000000Y-93620000D03*
D15*
X38500000Y-102500000D03*
X38500000Y-100000000D03*
X38500000Y-97500000D03*
D16*
X277500000Y-112000000D03*
X171500000Y-109000000D03*
D23*
X224580000Y-104420000D03*
D24*
X229660000Y-104420000D03*
D23*
X234740000Y-104420000D03*
D25*
X232200000Y-109500000D03*
X225850000Y-106960000D03*
D23*
X205530000Y-104420000D03*
D24*
X210610000Y-104420000D03*
D23*
X215690000Y-104420000D03*
D25*
X213150000Y-109500000D03*
X206800000Y-106960000D03*
X187750000Y-106960000D03*
X194100000Y-109500000D03*
D23*
X196640000Y-104420000D03*
D24*
X191560000Y-104420000D03*
D23*
X186480000Y-104420000D03*
X243630000Y-104420000D03*
D24*
X248710000Y-104420000D03*
D23*
X253790000Y-104420000D03*
D25*
X251250000Y-109500000D03*
X244900000Y-106960000D03*
M02*
