G04 #@! TF.GenerationSoftware,KiCad,Pcbnew,7.0.5-0*
G04 #@! TF.CreationDate,2024-12-12T00:25:15-05:00*
G04 #@! TF.ProjectId,ESP32_MIDI_v3.kicad_pro,45535033-325f-44d4-9944-495f76332e6b,rev?*
G04 #@! TF.SameCoordinates,Original*
G04 #@! TF.FileFunction,Legend,Bot*
G04 #@! TF.FilePolarity,Positive*
%FSLAX46Y46*%
G04 Gerber Fmt 4.6, Leading zero omitted, Abs format (unit mm)*
G04 Created by KiCad (PCBNEW 7.0.5-0) date 2024-12-12 00:25:15*
%MOMM*%
%LPD*%
G01*
G04 APERTURE LIST*
G04 Aperture macros list*
%AMRoundRect*
0 Rectangle with rounded corners*
0 $1 Rounding radius*
0 $2 $3 $4 $5 $6 $7 $8 $9 X,Y pos of 4 corners*
0 Add a 4 corners polygon primitive as box body*
4,1,4,$2,$3,$4,$5,$6,$7,$8,$9,$2,$3,0*
0 Add four circle primitives for the rounded corners*
1,1,$1+$1,$2,$3*
1,1,$1+$1,$4,$5*
1,1,$1+$1,$6,$7*
1,1,$1+$1,$8,$9*
0 Add four rect primitives between the rounded corners*
20,1,$1+$1,$2,$3,$4,$5,0*
20,1,$1+$1,$4,$5,$6,$7,0*
20,1,$1+$1,$6,$7,$8,$9,0*
20,1,$1+$1,$8,$9,$2,$3,0*%
%AMFreePoly0*
4,1,25,0.515063,3.095106,0.530902,3.095106,0.543715,3.085796,0.558779,3.080902,0.568088,3.068088,0.580902,3.058779,0.585796,3.043715,0.595106,3.030902,0.595106,3.015062,0.600000,3.000000,0.600000,-1.000000,-0.600000,-1.000000,-0.600000,3.000000,-0.595106,3.015062,-0.595106,3.030902,-0.585796,3.043715,-0.580902,3.058779,-0.568088,3.068088,-0.558779,3.080902,-0.543715,3.085796,
-0.530902,3.095106,-0.515063,3.095106,-0.500000,3.100000,0.500000,3.100000,0.515063,3.095106,0.515063,3.095106,$1*%
G04 Aperture macros list end*
%ADD10C,0.250000*%
%ADD11C,0.300000*%
%ADD12C,0.150000*%
%ADD13C,0.120000*%
%ADD14C,2.340000*%
%ADD15C,3.200000*%
%ADD16FreePoly0,90.000000*%
%ADD17FreePoly0,270.000000*%
%ADD18RoundRect,2.500000X5.000000X2.500000X-5.000000X2.500000X-5.000000X-2.500000X5.000000X-2.500000X0*%
%ADD19R,1.800000X1.800000*%
%ADD20C,1.800000*%
G04 APERTURE END LIST*
D10*
X158744288Y-56776619D02*
X158410955Y-57776619D01*
X158410955Y-57776619D02*
X158077622Y-56776619D01*
X157744288Y-57395666D02*
X156982384Y-57395666D01*
X157363336Y-57776619D02*
X157363336Y-57014714D01*
X125057622Y-56824238D02*
X125152860Y-56776619D01*
X125152860Y-56776619D02*
X125295717Y-56776619D01*
X125295717Y-56776619D02*
X125438574Y-56824238D01*
X125438574Y-56824238D02*
X125533812Y-56919476D01*
X125533812Y-56919476D02*
X125581431Y-57014714D01*
X125581431Y-57014714D02*
X125629050Y-57205190D01*
X125629050Y-57205190D02*
X125629050Y-57348047D01*
X125629050Y-57348047D02*
X125581431Y-57538523D01*
X125581431Y-57538523D02*
X125533812Y-57633761D01*
X125533812Y-57633761D02*
X125438574Y-57729000D01*
X125438574Y-57729000D02*
X125295717Y-57776619D01*
X125295717Y-57776619D02*
X125200479Y-57776619D01*
X125200479Y-57776619D02*
X125057622Y-57729000D01*
X125057622Y-57729000D02*
X125010003Y-57681380D01*
X125010003Y-57681380D02*
X125010003Y-57348047D01*
X125010003Y-57348047D02*
X125200479Y-57348047D01*
X128772288Y-56776619D02*
X128438955Y-57776619D01*
X128438955Y-57776619D02*
X128105622Y-56776619D01*
X127772288Y-57395666D02*
X127010384Y-57395666D01*
X127391336Y-57776619D02*
X127391336Y-57014714D01*
X174841622Y-56824238D02*
X174936860Y-56776619D01*
X174936860Y-56776619D02*
X175079717Y-56776619D01*
X175079717Y-56776619D02*
X175222574Y-56824238D01*
X175222574Y-56824238D02*
X175317812Y-56919476D01*
X175317812Y-56919476D02*
X175365431Y-57014714D01*
X175365431Y-57014714D02*
X175413050Y-57205190D01*
X175413050Y-57205190D02*
X175413050Y-57348047D01*
X175413050Y-57348047D02*
X175365431Y-57538523D01*
X175365431Y-57538523D02*
X175317812Y-57633761D01*
X175317812Y-57633761D02*
X175222574Y-57729000D01*
X175222574Y-57729000D02*
X175079717Y-57776619D01*
X175079717Y-57776619D02*
X174984479Y-57776619D01*
X174984479Y-57776619D02*
X174841622Y-57729000D01*
X174841622Y-57729000D02*
X174794003Y-57681380D01*
X174794003Y-57681380D02*
X174794003Y-57348047D01*
X174794003Y-57348047D02*
X174984479Y-57348047D01*
X145377622Y-56824238D02*
X145472860Y-56776619D01*
X145472860Y-56776619D02*
X145615717Y-56776619D01*
X145615717Y-56776619D02*
X145758574Y-56824238D01*
X145758574Y-56824238D02*
X145853812Y-56919476D01*
X145853812Y-56919476D02*
X145901431Y-57014714D01*
X145901431Y-57014714D02*
X145949050Y-57205190D01*
X145949050Y-57205190D02*
X145949050Y-57348047D01*
X145949050Y-57348047D02*
X145901431Y-57538523D01*
X145901431Y-57538523D02*
X145853812Y-57633761D01*
X145853812Y-57633761D02*
X145758574Y-57729000D01*
X145758574Y-57729000D02*
X145615717Y-57776619D01*
X145615717Y-57776619D02*
X145520479Y-57776619D01*
X145520479Y-57776619D02*
X145377622Y-57729000D01*
X145377622Y-57729000D02*
X145330003Y-57681380D01*
X145330003Y-57681380D02*
X145330003Y-57348047D01*
X145330003Y-57348047D02*
X145520479Y-57348047D01*
D11*
X123691638Y-32169558D02*
X121691638Y-32169558D01*
X123691638Y-33979082D02*
X122644019Y-33979082D01*
X122644019Y-33979082D02*
X122453542Y-33883844D01*
X122453542Y-33883844D02*
X122358304Y-33693368D01*
X122358304Y-33693368D02*
X122358304Y-33312415D01*
X122358304Y-33312415D02*
X122453542Y-33121939D01*
X123596400Y-33979082D02*
X123691638Y-33788606D01*
X123691638Y-33788606D02*
X123691638Y-33312415D01*
X123691638Y-33312415D02*
X123596400Y-33121939D01*
X123596400Y-33121939D02*
X123405923Y-33026701D01*
X123405923Y-33026701D02*
X123215447Y-33026701D01*
X123215447Y-33026701D02*
X123024971Y-33121939D01*
X123024971Y-33121939D02*
X122929733Y-33312415D01*
X122929733Y-33312415D02*
X122929733Y-33788606D01*
X122929733Y-33788606D02*
X122834495Y-33979082D01*
X122358304Y-34931463D02*
X123691638Y-34931463D01*
X122548780Y-34931463D02*
X122453542Y-35026701D01*
X122453542Y-35026701D02*
X122358304Y-35217177D01*
X122358304Y-35217177D02*
X122358304Y-35502892D01*
X122358304Y-35502892D02*
X122453542Y-35693368D01*
X122453542Y-35693368D02*
X122644019Y-35788606D01*
X122644019Y-35788606D02*
X123691638Y-35788606D01*
X123691638Y-38264797D02*
X121691638Y-38264797D01*
X122644019Y-38264797D02*
X122644019Y-39407654D01*
X123691638Y-39407654D02*
X121691638Y-39407654D01*
X123691638Y-41217178D02*
X122644019Y-41217178D01*
X122644019Y-41217178D02*
X122453542Y-41121940D01*
X122453542Y-41121940D02*
X122358304Y-40931464D01*
X122358304Y-40931464D02*
X122358304Y-40550511D01*
X122358304Y-40550511D02*
X122453542Y-40360035D01*
X123596400Y-41217178D02*
X123691638Y-41026702D01*
X123691638Y-41026702D02*
X123691638Y-40550511D01*
X123691638Y-40550511D02*
X123596400Y-40360035D01*
X123596400Y-40360035D02*
X123405923Y-40264797D01*
X123405923Y-40264797D02*
X123215447Y-40264797D01*
X123215447Y-40264797D02*
X123024971Y-40360035D01*
X123024971Y-40360035D02*
X122929733Y-40550511D01*
X122929733Y-40550511D02*
X122929733Y-41026702D01*
X122929733Y-41026702D02*
X122834495Y-41217178D01*
X122358304Y-41883845D02*
X122358304Y-42645749D01*
X121691638Y-42169559D02*
X123405923Y-42169559D01*
X123405923Y-42169559D02*
X123596400Y-42264797D01*
X123596400Y-42264797D02*
X123691638Y-42455273D01*
X123691638Y-42455273D02*
X123691638Y-42645749D01*
X122358304Y-43026702D02*
X122358304Y-43788606D01*
X121691638Y-43312416D02*
X123405923Y-43312416D01*
X123405923Y-43312416D02*
X123596400Y-43407654D01*
X123596400Y-43407654D02*
X123691638Y-43598130D01*
X123691638Y-43598130D02*
X123691638Y-43788606D01*
X122358304Y-44264797D02*
X123691638Y-44645749D01*
X123691638Y-44645749D02*
X122739257Y-45026702D01*
X122739257Y-45026702D02*
X123691638Y-45407654D01*
X123691638Y-45407654D02*
X122358304Y-45788606D01*
X123691638Y-46550511D02*
X122358304Y-46550511D01*
X121691638Y-46550511D02*
X121786876Y-46455273D01*
X121786876Y-46455273D02*
X121882114Y-46550511D01*
X121882114Y-46550511D02*
X121786876Y-46645749D01*
X121786876Y-46645749D02*
X121691638Y-46550511D01*
X121691638Y-46550511D02*
X121882114Y-46550511D01*
X123596400Y-48360035D02*
X123691638Y-48169559D01*
X123691638Y-48169559D02*
X123691638Y-47788606D01*
X123691638Y-47788606D02*
X123596400Y-47598130D01*
X123596400Y-47598130D02*
X123501161Y-47502892D01*
X123501161Y-47502892D02*
X123310685Y-47407654D01*
X123310685Y-47407654D02*
X122739257Y-47407654D01*
X122739257Y-47407654D02*
X122548780Y-47502892D01*
X122548780Y-47502892D02*
X122453542Y-47598130D01*
X122453542Y-47598130D02*
X122358304Y-47788606D01*
X122358304Y-47788606D02*
X122358304Y-48169559D01*
X122358304Y-48169559D02*
X122453542Y-48360035D01*
X123691638Y-49217178D02*
X121691638Y-49217178D01*
X122929733Y-49407654D02*
X123691638Y-49979083D01*
X122358304Y-49979083D02*
X123120209Y-49217178D01*
X121691638Y-52931465D02*
X123120209Y-52931465D01*
X123120209Y-52931465D02*
X123405923Y-52836226D01*
X123405923Y-52836226D02*
X123596400Y-52645750D01*
X123596400Y-52645750D02*
X123691638Y-52360036D01*
X123691638Y-52360036D02*
X123691638Y-52169560D01*
X122358304Y-54740989D02*
X123691638Y-54740989D01*
X122358304Y-53883846D02*
X123405923Y-53883846D01*
X123405923Y-53883846D02*
X123596400Y-53979084D01*
X123596400Y-53979084D02*
X123691638Y-54169560D01*
X123691638Y-54169560D02*
X123691638Y-54455275D01*
X123691638Y-54455275D02*
X123596400Y-54645751D01*
X123596400Y-54645751D02*
X123501161Y-54740989D01*
X122358304Y-55693370D02*
X123691638Y-55693370D01*
X122548780Y-55693370D02*
X122453542Y-55788608D01*
X122453542Y-55788608D02*
X122358304Y-55979084D01*
X122358304Y-55979084D02*
X122358304Y-56264799D01*
X122358304Y-56264799D02*
X122453542Y-56455275D01*
X122453542Y-56455275D02*
X122644019Y-56550513D01*
X122644019Y-56550513D02*
X123691638Y-56550513D01*
X121691638Y-59121942D02*
X122072590Y-58931466D01*
X121882114Y-59883847D02*
X121786876Y-59979085D01*
X121786876Y-59979085D02*
X121691638Y-60169561D01*
X121691638Y-60169561D02*
X121691638Y-60645752D01*
X121691638Y-60645752D02*
X121786876Y-60836228D01*
X121786876Y-60836228D02*
X121882114Y-60931466D01*
X121882114Y-60931466D02*
X122072590Y-61026704D01*
X122072590Y-61026704D02*
X122263066Y-61026704D01*
X122263066Y-61026704D02*
X122548780Y-60931466D01*
X122548780Y-60931466D02*
X123691638Y-59788609D01*
X123691638Y-59788609D02*
X123691638Y-61026704D01*
X122358304Y-62740990D02*
X123691638Y-62740990D01*
X121596400Y-62264799D02*
X123024971Y-61788609D01*
X123024971Y-61788609D02*
X123024971Y-63026704D01*
D10*
X168396288Y-56776619D02*
X168062955Y-57776619D01*
X168062955Y-57776619D02*
X167729622Y-56776619D01*
X167396288Y-57395666D02*
X166634384Y-57395666D01*
X167015336Y-57776619D02*
X167015336Y-57014714D01*
X178556288Y-56776619D02*
X178222955Y-57776619D01*
X178222955Y-57776619D02*
X177889622Y-56776619D01*
X177556288Y-57395666D02*
X176794384Y-57395666D01*
X177175336Y-57776619D02*
X177175336Y-57014714D01*
X164681622Y-56824238D02*
X164776860Y-56776619D01*
X164776860Y-56776619D02*
X164919717Y-56776619D01*
X164919717Y-56776619D02*
X165062574Y-56824238D01*
X165062574Y-56824238D02*
X165157812Y-56919476D01*
X165157812Y-56919476D02*
X165205431Y-57014714D01*
X165205431Y-57014714D02*
X165253050Y-57205190D01*
X165253050Y-57205190D02*
X165253050Y-57348047D01*
X165253050Y-57348047D02*
X165205431Y-57538523D01*
X165205431Y-57538523D02*
X165157812Y-57633761D01*
X165157812Y-57633761D02*
X165062574Y-57729000D01*
X165062574Y-57729000D02*
X164919717Y-57776619D01*
X164919717Y-57776619D02*
X164824479Y-57776619D01*
X164824479Y-57776619D02*
X164681622Y-57729000D01*
X164681622Y-57729000D02*
X164634003Y-57681380D01*
X164634003Y-57681380D02*
X164634003Y-57348047D01*
X164634003Y-57348047D02*
X164824479Y-57348047D01*
D11*
X148265679Y-62128400D02*
X147979965Y-62223638D01*
X147979965Y-62223638D02*
X147503774Y-62223638D01*
X147503774Y-62223638D02*
X147313298Y-62128400D01*
X147313298Y-62128400D02*
X147218060Y-62033161D01*
X147218060Y-62033161D02*
X147122822Y-61842685D01*
X147122822Y-61842685D02*
X147122822Y-61652209D01*
X147122822Y-61652209D02*
X147218060Y-61461733D01*
X147218060Y-61461733D02*
X147313298Y-61366495D01*
X147313298Y-61366495D02*
X147503774Y-61271257D01*
X147503774Y-61271257D02*
X147884727Y-61176019D01*
X147884727Y-61176019D02*
X148075203Y-61080780D01*
X148075203Y-61080780D02*
X148170441Y-60985542D01*
X148170441Y-60985542D02*
X148265679Y-60795066D01*
X148265679Y-60795066D02*
X148265679Y-60604590D01*
X148265679Y-60604590D02*
X148170441Y-60414114D01*
X148170441Y-60414114D02*
X148075203Y-60318876D01*
X148075203Y-60318876D02*
X147884727Y-60223638D01*
X147884727Y-60223638D02*
X147408536Y-60223638D01*
X147408536Y-60223638D02*
X147122822Y-60318876D01*
X145979965Y-62223638D02*
X146170441Y-62128400D01*
X146170441Y-62128400D02*
X146265679Y-62033161D01*
X146265679Y-62033161D02*
X146360917Y-61842685D01*
X146360917Y-61842685D02*
X146360917Y-61271257D01*
X146360917Y-61271257D02*
X146265679Y-61080780D01*
X146265679Y-61080780D02*
X146170441Y-60985542D01*
X146170441Y-60985542D02*
X145979965Y-60890304D01*
X145979965Y-60890304D02*
X145694250Y-60890304D01*
X145694250Y-60890304D02*
X145503774Y-60985542D01*
X145503774Y-60985542D02*
X145408536Y-61080780D01*
X145408536Y-61080780D02*
X145313298Y-61271257D01*
X145313298Y-61271257D02*
X145313298Y-61842685D01*
X145313298Y-61842685D02*
X145408536Y-62033161D01*
X145408536Y-62033161D02*
X145503774Y-62128400D01*
X145503774Y-62128400D02*
X145694250Y-62223638D01*
X145694250Y-62223638D02*
X145979965Y-62223638D01*
X144456155Y-62223638D02*
X144456155Y-60890304D01*
X144456155Y-61080780D02*
X144360917Y-60985542D01*
X144360917Y-60985542D02*
X144170441Y-60890304D01*
X144170441Y-60890304D02*
X143884726Y-60890304D01*
X143884726Y-60890304D02*
X143694250Y-60985542D01*
X143694250Y-60985542D02*
X143599012Y-61176019D01*
X143599012Y-61176019D02*
X143599012Y-62223638D01*
X143599012Y-61176019D02*
X143503774Y-60985542D01*
X143503774Y-60985542D02*
X143313298Y-60890304D01*
X143313298Y-60890304D02*
X143027584Y-60890304D01*
X143027584Y-60890304D02*
X142837107Y-60985542D01*
X142837107Y-60985542D02*
X142741869Y-61176019D01*
X142741869Y-61176019D02*
X142741869Y-62223638D01*
X141027583Y-62128400D02*
X141218059Y-62223638D01*
X141218059Y-62223638D02*
X141599012Y-62223638D01*
X141599012Y-62223638D02*
X141789488Y-62128400D01*
X141789488Y-62128400D02*
X141884726Y-61937923D01*
X141884726Y-61937923D02*
X141884726Y-61176019D01*
X141884726Y-61176019D02*
X141789488Y-60985542D01*
X141789488Y-60985542D02*
X141599012Y-60890304D01*
X141599012Y-60890304D02*
X141218059Y-60890304D01*
X141218059Y-60890304D02*
X141027583Y-60985542D01*
X141027583Y-60985542D02*
X140932345Y-61176019D01*
X140932345Y-61176019D02*
X140932345Y-61366495D01*
X140932345Y-61366495D02*
X141884726Y-61556971D01*
X140075202Y-62223638D02*
X140075202Y-60890304D01*
X140075202Y-61271257D02*
X139979964Y-61080780D01*
X139979964Y-61080780D02*
X139884726Y-60985542D01*
X139884726Y-60985542D02*
X139694250Y-60890304D01*
X139694250Y-60890304D02*
X139503773Y-60890304D01*
X139027583Y-60890304D02*
X138551393Y-62223638D01*
X138551393Y-62223638D02*
X138075202Y-60890304D01*
X137313297Y-62223638D02*
X137313297Y-60890304D01*
X137313297Y-60223638D02*
X137408535Y-60318876D01*
X137408535Y-60318876D02*
X137313297Y-60414114D01*
X137313297Y-60414114D02*
X137218059Y-60318876D01*
X137218059Y-60318876D02*
X137313297Y-60223638D01*
X137313297Y-60223638D02*
X137313297Y-60414114D01*
X136075202Y-62223638D02*
X136265678Y-62128400D01*
X136265678Y-62128400D02*
X136360916Y-61937923D01*
X136360916Y-61937923D02*
X136360916Y-60223638D01*
X135027583Y-62223638D02*
X135218059Y-62128400D01*
X135218059Y-62128400D02*
X135313297Y-61937923D01*
X135313297Y-61937923D02*
X135313297Y-60223638D01*
X133503773Y-62128400D02*
X133694249Y-62223638D01*
X133694249Y-62223638D02*
X134075202Y-62223638D01*
X134075202Y-62223638D02*
X134265678Y-62128400D01*
X134265678Y-62128400D02*
X134360916Y-61937923D01*
X134360916Y-61937923D02*
X134360916Y-61176019D01*
X134360916Y-61176019D02*
X134265678Y-60985542D01*
X134265678Y-60985542D02*
X134075202Y-60890304D01*
X134075202Y-60890304D02*
X133694249Y-60890304D01*
X133694249Y-60890304D02*
X133503773Y-60985542D01*
X133503773Y-60985542D02*
X133408535Y-61176019D01*
X133408535Y-61176019D02*
X133408535Y-61366495D01*
X133408535Y-61366495D02*
X134360916Y-61556971D01*
X132456154Y-62128400D02*
X132456154Y-62223638D01*
X132456154Y-62223638D02*
X132551392Y-62414114D01*
X132551392Y-62414114D02*
X132646630Y-62509352D01*
X130075201Y-62223638D02*
X130075201Y-60223638D01*
X130075201Y-60223638D02*
X129408534Y-61652209D01*
X129408534Y-61652209D02*
X128741868Y-60223638D01*
X128741868Y-60223638D02*
X128741868Y-62223638D01*
X127884725Y-61652209D02*
X126932344Y-61652209D01*
X128075201Y-62223638D02*
X127408535Y-60223638D01*
X127408535Y-60223638D02*
X126741868Y-62223638D01*
D10*
X170841050Y-57490904D02*
X170364860Y-57490904D01*
X170936288Y-57776619D02*
X170602955Y-56776619D01*
X170602955Y-56776619D02*
X170269622Y-57776619D01*
X169460098Y-56776619D02*
X169936288Y-56776619D01*
X169936288Y-56776619D02*
X169983907Y-57252809D01*
X169983907Y-57252809D02*
X169936288Y-57205190D01*
X169936288Y-57205190D02*
X169841050Y-57157571D01*
X169841050Y-57157571D02*
X169602955Y-57157571D01*
X169602955Y-57157571D02*
X169507717Y-57205190D01*
X169507717Y-57205190D02*
X169460098Y-57252809D01*
X169460098Y-57252809D02*
X169412479Y-57348047D01*
X169412479Y-57348047D02*
X169412479Y-57586142D01*
X169412479Y-57586142D02*
X169460098Y-57681380D01*
X169460098Y-57681380D02*
X169507717Y-57729000D01*
X169507717Y-57729000D02*
X169602955Y-57776619D01*
X169602955Y-57776619D02*
X169841050Y-57776619D01*
X169841050Y-57776619D02*
X169936288Y-57729000D01*
X169936288Y-57729000D02*
X169983907Y-57681380D01*
X151537050Y-57490904D02*
X151060860Y-57490904D01*
X151632288Y-57776619D02*
X151298955Y-56776619D01*
X151298955Y-56776619D02*
X150965622Y-57776619D01*
X150727526Y-56776619D02*
X150108479Y-56776619D01*
X150108479Y-56776619D02*
X150441812Y-57157571D01*
X150441812Y-57157571D02*
X150298955Y-57157571D01*
X150298955Y-57157571D02*
X150203717Y-57205190D01*
X150203717Y-57205190D02*
X150156098Y-57252809D01*
X150156098Y-57252809D02*
X150108479Y-57348047D01*
X150108479Y-57348047D02*
X150108479Y-57586142D01*
X150108479Y-57586142D02*
X150156098Y-57681380D01*
X150156098Y-57681380D02*
X150203717Y-57729000D01*
X150203717Y-57729000D02*
X150298955Y-57776619D01*
X150298955Y-57776619D02*
X150584669Y-57776619D01*
X150584669Y-57776619D02*
X150679907Y-57729000D01*
X150679907Y-57729000D02*
X150727526Y-57681380D01*
X181001050Y-57490904D02*
X180524860Y-57490904D01*
X181096288Y-57776619D02*
X180762955Y-56776619D01*
X180762955Y-56776619D02*
X180429622Y-57776619D01*
X179667717Y-56776619D02*
X179858193Y-56776619D01*
X179858193Y-56776619D02*
X179953431Y-56824238D01*
X179953431Y-56824238D02*
X180001050Y-56871857D01*
X180001050Y-56871857D02*
X180096288Y-57014714D01*
X180096288Y-57014714D02*
X180143907Y-57205190D01*
X180143907Y-57205190D02*
X180143907Y-57586142D01*
X180143907Y-57586142D02*
X180096288Y-57681380D01*
X180096288Y-57681380D02*
X180048669Y-57729000D01*
X180048669Y-57729000D02*
X179953431Y-57776619D01*
X179953431Y-57776619D02*
X179762955Y-57776619D01*
X179762955Y-57776619D02*
X179667717Y-57729000D01*
X179667717Y-57729000D02*
X179620098Y-57681380D01*
X179620098Y-57681380D02*
X179572479Y-57586142D01*
X179572479Y-57586142D02*
X179572479Y-57348047D01*
X179572479Y-57348047D02*
X179620098Y-57252809D01*
X179620098Y-57252809D02*
X179667717Y-57205190D01*
X179667717Y-57205190D02*
X179762955Y-57157571D01*
X179762955Y-57157571D02*
X179953431Y-57157571D01*
X179953431Y-57157571D02*
X180048669Y-57205190D01*
X180048669Y-57205190D02*
X180096288Y-57252809D01*
X180096288Y-57252809D02*
X180143907Y-57348047D01*
X149092288Y-56776619D02*
X148758955Y-57776619D01*
X148758955Y-57776619D02*
X148425622Y-56776619D01*
X148092288Y-57395666D02*
X147330384Y-57395666D01*
X147711336Y-57776619D02*
X147711336Y-57014714D01*
X138932288Y-56776619D02*
X138598955Y-57776619D01*
X138598955Y-57776619D02*
X138265622Y-56776619D01*
X137932288Y-57395666D02*
X137170384Y-57395666D01*
X137551336Y-57776619D02*
X137551336Y-57014714D01*
X161189050Y-57490904D02*
X160712860Y-57490904D01*
X161284288Y-57776619D02*
X160950955Y-56776619D01*
X160950955Y-56776619D02*
X160617622Y-57776619D01*
X159855717Y-57109952D02*
X159855717Y-57776619D01*
X160093812Y-56729000D02*
X160331907Y-57443285D01*
X160331907Y-57443285D02*
X159712860Y-57443285D01*
D11*
X177634441Y-60668019D02*
X176967774Y-60668019D01*
X176682060Y-61715638D02*
X177634441Y-61715638D01*
X177634441Y-61715638D02*
X177634441Y-59715638D01*
X177634441Y-59715638D02*
X176682060Y-59715638D01*
X175920155Y-61620400D02*
X175634441Y-61715638D01*
X175634441Y-61715638D02*
X175158250Y-61715638D01*
X175158250Y-61715638D02*
X174967774Y-61620400D01*
X174967774Y-61620400D02*
X174872536Y-61525161D01*
X174872536Y-61525161D02*
X174777298Y-61334685D01*
X174777298Y-61334685D02*
X174777298Y-61144209D01*
X174777298Y-61144209D02*
X174872536Y-60953733D01*
X174872536Y-60953733D02*
X174967774Y-60858495D01*
X174967774Y-60858495D02*
X175158250Y-60763257D01*
X175158250Y-60763257D02*
X175539203Y-60668019D01*
X175539203Y-60668019D02*
X175729679Y-60572780D01*
X175729679Y-60572780D02*
X175824917Y-60477542D01*
X175824917Y-60477542D02*
X175920155Y-60287066D01*
X175920155Y-60287066D02*
X175920155Y-60096590D01*
X175920155Y-60096590D02*
X175824917Y-59906114D01*
X175824917Y-59906114D02*
X175729679Y-59810876D01*
X175729679Y-59810876D02*
X175539203Y-59715638D01*
X175539203Y-59715638D02*
X175063012Y-59715638D01*
X175063012Y-59715638D02*
X174777298Y-59810876D01*
X173920155Y-61715638D02*
X173920155Y-59715638D01*
X173920155Y-59715638D02*
X173158250Y-59715638D01*
X173158250Y-59715638D02*
X172967774Y-59810876D01*
X172967774Y-59810876D02*
X172872536Y-59906114D01*
X172872536Y-59906114D02*
X172777298Y-60096590D01*
X172777298Y-60096590D02*
X172777298Y-60382304D01*
X172777298Y-60382304D02*
X172872536Y-60572780D01*
X172872536Y-60572780D02*
X172967774Y-60668019D01*
X172967774Y-60668019D02*
X173158250Y-60763257D01*
X173158250Y-60763257D02*
X173920155Y-60763257D01*
X172110631Y-59715638D02*
X170872536Y-59715638D01*
X170872536Y-59715638D02*
X171539203Y-60477542D01*
X171539203Y-60477542D02*
X171253488Y-60477542D01*
X171253488Y-60477542D02*
X171063012Y-60572780D01*
X171063012Y-60572780D02*
X170967774Y-60668019D01*
X170967774Y-60668019D02*
X170872536Y-60858495D01*
X170872536Y-60858495D02*
X170872536Y-61334685D01*
X170872536Y-61334685D02*
X170967774Y-61525161D01*
X170967774Y-61525161D02*
X171063012Y-61620400D01*
X171063012Y-61620400D02*
X171253488Y-61715638D01*
X171253488Y-61715638D02*
X171824917Y-61715638D01*
X171824917Y-61715638D02*
X172015393Y-61620400D01*
X172015393Y-61620400D02*
X172110631Y-61525161D01*
X170110631Y-59906114D02*
X170015393Y-59810876D01*
X170015393Y-59810876D02*
X169824917Y-59715638D01*
X169824917Y-59715638D02*
X169348726Y-59715638D01*
X169348726Y-59715638D02*
X169158250Y-59810876D01*
X169158250Y-59810876D02*
X169063012Y-59906114D01*
X169063012Y-59906114D02*
X168967774Y-60096590D01*
X168967774Y-60096590D02*
X168967774Y-60287066D01*
X168967774Y-60287066D02*
X169063012Y-60572780D01*
X169063012Y-60572780D02*
X170205869Y-61715638D01*
X170205869Y-61715638D02*
X168967774Y-61715638D01*
X168586822Y-61906114D02*
X167063012Y-61906114D01*
X166586821Y-61715638D02*
X166586821Y-59715638D01*
X166586821Y-59715638D02*
X165920154Y-61144209D01*
X165920154Y-61144209D02*
X165253488Y-59715638D01*
X165253488Y-59715638D02*
X165253488Y-61715638D01*
X164301107Y-61715638D02*
X164301107Y-59715638D01*
X163348726Y-61715638D02*
X163348726Y-59715638D01*
X163348726Y-59715638D02*
X162872536Y-59715638D01*
X162872536Y-59715638D02*
X162586821Y-59810876D01*
X162586821Y-59810876D02*
X162396345Y-60001352D01*
X162396345Y-60001352D02*
X162301107Y-60191828D01*
X162301107Y-60191828D02*
X162205869Y-60572780D01*
X162205869Y-60572780D02*
X162205869Y-60858495D01*
X162205869Y-60858495D02*
X162301107Y-61239447D01*
X162301107Y-61239447D02*
X162396345Y-61429923D01*
X162396345Y-61429923D02*
X162586821Y-61620400D01*
X162586821Y-61620400D02*
X162872536Y-61715638D01*
X162872536Y-61715638D02*
X163348726Y-61715638D01*
X161348726Y-61715638D02*
X161348726Y-59715638D01*
X159063011Y-60382304D02*
X158586821Y-61715638D01*
X158586821Y-61715638D02*
X158110630Y-60382304D01*
X157443963Y-59906114D02*
X157348725Y-59810876D01*
X157348725Y-59810876D02*
X157158249Y-59715638D01*
X157158249Y-59715638D02*
X156682058Y-59715638D01*
X156682058Y-59715638D02*
X156491582Y-59810876D01*
X156491582Y-59810876D02*
X156396344Y-59906114D01*
X156396344Y-59906114D02*
X156301106Y-60096590D01*
X156301106Y-60096590D02*
X156301106Y-60287066D01*
X156301106Y-60287066D02*
X156396344Y-60572780D01*
X156396344Y-60572780D02*
X157539201Y-61715638D01*
X157539201Y-61715638D02*
X156301106Y-61715638D01*
X155443963Y-61525161D02*
X155348725Y-61620400D01*
X155348725Y-61620400D02*
X155443963Y-61715638D01*
X155443963Y-61715638D02*
X155539201Y-61620400D01*
X155539201Y-61620400D02*
X155443963Y-61525161D01*
X155443963Y-61525161D02*
X155443963Y-61715638D01*
X154110630Y-59715638D02*
X153920153Y-59715638D01*
X153920153Y-59715638D02*
X153729677Y-59810876D01*
X153729677Y-59810876D02*
X153634439Y-59906114D01*
X153634439Y-59906114D02*
X153539201Y-60096590D01*
X153539201Y-60096590D02*
X153443963Y-60477542D01*
X153443963Y-60477542D02*
X153443963Y-60953733D01*
X153443963Y-60953733D02*
X153539201Y-61334685D01*
X153539201Y-61334685D02*
X153634439Y-61525161D01*
X153634439Y-61525161D02*
X153729677Y-61620400D01*
X153729677Y-61620400D02*
X153920153Y-61715638D01*
X153920153Y-61715638D02*
X154110630Y-61715638D01*
X154110630Y-61715638D02*
X154301106Y-61620400D01*
X154301106Y-61620400D02*
X154396344Y-61525161D01*
X154396344Y-61525161D02*
X154491582Y-61334685D01*
X154491582Y-61334685D02*
X154586820Y-60953733D01*
X154586820Y-60953733D02*
X154586820Y-60477542D01*
X154586820Y-60477542D02*
X154491582Y-60096590D01*
X154491582Y-60096590D02*
X154396344Y-59906114D01*
X154396344Y-59906114D02*
X154301106Y-59810876D01*
X154301106Y-59810876D02*
X154110630Y-59715638D01*
D10*
X135217622Y-56824238D02*
X135312860Y-56776619D01*
X135312860Y-56776619D02*
X135455717Y-56776619D01*
X135455717Y-56776619D02*
X135598574Y-56824238D01*
X135598574Y-56824238D02*
X135693812Y-56919476D01*
X135693812Y-56919476D02*
X135741431Y-57014714D01*
X135741431Y-57014714D02*
X135789050Y-57205190D01*
X135789050Y-57205190D02*
X135789050Y-57348047D01*
X135789050Y-57348047D02*
X135741431Y-57538523D01*
X135741431Y-57538523D02*
X135693812Y-57633761D01*
X135693812Y-57633761D02*
X135598574Y-57729000D01*
X135598574Y-57729000D02*
X135455717Y-57776619D01*
X135455717Y-57776619D02*
X135360479Y-57776619D01*
X135360479Y-57776619D02*
X135217622Y-57729000D01*
X135217622Y-57729000D02*
X135170003Y-57681380D01*
X135170003Y-57681380D02*
X135170003Y-57348047D01*
X135170003Y-57348047D02*
X135360479Y-57348047D01*
X155029622Y-56824238D02*
X155124860Y-56776619D01*
X155124860Y-56776619D02*
X155267717Y-56776619D01*
X155267717Y-56776619D02*
X155410574Y-56824238D01*
X155410574Y-56824238D02*
X155505812Y-56919476D01*
X155505812Y-56919476D02*
X155553431Y-57014714D01*
X155553431Y-57014714D02*
X155601050Y-57205190D01*
X155601050Y-57205190D02*
X155601050Y-57348047D01*
X155601050Y-57348047D02*
X155553431Y-57538523D01*
X155553431Y-57538523D02*
X155505812Y-57633761D01*
X155505812Y-57633761D02*
X155410574Y-57729000D01*
X155410574Y-57729000D02*
X155267717Y-57776619D01*
X155267717Y-57776619D02*
X155172479Y-57776619D01*
X155172479Y-57776619D02*
X155029622Y-57729000D01*
X155029622Y-57729000D02*
X154982003Y-57681380D01*
X154982003Y-57681380D02*
X154982003Y-57348047D01*
X154982003Y-57348047D02*
X155172479Y-57348047D01*
X141377050Y-57490904D02*
X140900860Y-57490904D01*
X141472288Y-57776619D02*
X141138955Y-56776619D01*
X141138955Y-56776619D02*
X140805622Y-57776619D01*
X140519907Y-56871857D02*
X140472288Y-56824238D01*
X140472288Y-56824238D02*
X140377050Y-56776619D01*
X140377050Y-56776619D02*
X140138955Y-56776619D01*
X140138955Y-56776619D02*
X140043717Y-56824238D01*
X140043717Y-56824238D02*
X139996098Y-56871857D01*
X139996098Y-56871857D02*
X139948479Y-56967095D01*
X139948479Y-56967095D02*
X139948479Y-57062333D01*
X139948479Y-57062333D02*
X139996098Y-57205190D01*
X139996098Y-57205190D02*
X140567526Y-57776619D01*
X140567526Y-57776619D02*
X139948479Y-57776619D01*
X131217050Y-57490904D02*
X130740860Y-57490904D01*
X131312288Y-57776619D02*
X130978955Y-56776619D01*
X130978955Y-56776619D02*
X130645622Y-57776619D01*
X129788479Y-57776619D02*
X130359907Y-57776619D01*
X130074193Y-57776619D02*
X130074193Y-56776619D01*
X130074193Y-56776619D02*
X130169431Y-56919476D01*
X130169431Y-56919476D02*
X130264669Y-57014714D01*
X130264669Y-57014714D02*
X130359907Y-57062333D01*
D12*
X41480588Y-175577561D02*
X41385350Y-175625180D01*
X41385350Y-175625180D02*
X41242493Y-175625180D01*
X41242493Y-175625180D02*
X41099636Y-175577561D01*
X41099636Y-175577561D02*
X41004398Y-175482323D01*
X41004398Y-175482323D02*
X40956779Y-175387085D01*
X40956779Y-175387085D02*
X40909160Y-175196609D01*
X40909160Y-175196609D02*
X40909160Y-175053752D01*
X40909160Y-175053752D02*
X40956779Y-174863276D01*
X40956779Y-174863276D02*
X41004398Y-174768038D01*
X41004398Y-174768038D02*
X41099636Y-174672800D01*
X41099636Y-174672800D02*
X41242493Y-174625180D01*
X41242493Y-174625180D02*
X41337731Y-174625180D01*
X41337731Y-174625180D02*
X41480588Y-174672800D01*
X41480588Y-174672800D02*
X41528207Y-174720419D01*
X41528207Y-174720419D02*
X41528207Y-175053752D01*
X41528207Y-175053752D02*
X41337731Y-175053752D01*
X41956779Y-174625180D02*
X41956779Y-175625180D01*
X41956779Y-175625180D02*
X42337731Y-175625180D01*
X42337731Y-175625180D02*
X42432969Y-175577561D01*
X42432969Y-175577561D02*
X42480588Y-175529942D01*
X42480588Y-175529942D02*
X42528207Y-175434704D01*
X42528207Y-175434704D02*
X42528207Y-175291847D01*
X42528207Y-175291847D02*
X42480588Y-175196609D01*
X42480588Y-175196609D02*
X42432969Y-175148990D01*
X42432969Y-175148990D02*
X42337731Y-175101371D01*
X42337731Y-175101371D02*
X41956779Y-175101371D01*
X42956779Y-174625180D02*
X42956779Y-175625180D01*
X43623445Y-175625180D02*
X43813921Y-175625180D01*
X43813921Y-175625180D02*
X43909159Y-175577561D01*
X43909159Y-175577561D02*
X44004397Y-175482323D01*
X44004397Y-175482323D02*
X44052016Y-175291847D01*
X44052016Y-175291847D02*
X44052016Y-174958514D01*
X44052016Y-174958514D02*
X44004397Y-174768038D01*
X44004397Y-174768038D02*
X43909159Y-174672800D01*
X43909159Y-174672800D02*
X43813921Y-174625180D01*
X43813921Y-174625180D02*
X43623445Y-174625180D01*
X43623445Y-174625180D02*
X43528207Y-174672800D01*
X43528207Y-174672800D02*
X43432969Y-174768038D01*
X43432969Y-174768038D02*
X43385350Y-174958514D01*
X43385350Y-174958514D02*
X43385350Y-175291847D01*
X43385350Y-175291847D02*
X43432969Y-175482323D01*
X43432969Y-175482323D02*
X43528207Y-175577561D01*
X43528207Y-175577561D02*
X43623445Y-175625180D01*
X45004397Y-174625180D02*
X44432969Y-174625180D01*
X44718683Y-174625180D02*
X44718683Y-175625180D01*
X44718683Y-175625180D02*
X44623445Y-175482323D01*
X44623445Y-175482323D02*
X44528207Y-175387085D01*
X44528207Y-175387085D02*
X44432969Y-175339466D01*
X45337731Y-175625180D02*
X45956778Y-175625180D01*
X45956778Y-175625180D02*
X45623445Y-175244228D01*
X45623445Y-175244228D02*
X45766302Y-175244228D01*
X45766302Y-175244228D02*
X45861540Y-175196609D01*
X45861540Y-175196609D02*
X45909159Y-175148990D01*
X45909159Y-175148990D02*
X45956778Y-175053752D01*
X45956778Y-175053752D02*
X45956778Y-174815657D01*
X45956778Y-174815657D02*
X45909159Y-174720419D01*
X45909159Y-174720419D02*
X45861540Y-174672800D01*
X45861540Y-174672800D02*
X45766302Y-174625180D01*
X45766302Y-174625180D02*
X45480588Y-174625180D01*
X45480588Y-174625180D02*
X45385350Y-174672800D01*
X45385350Y-174672800D02*
X45337731Y-174720419D01*
X35082969Y-180705180D02*
X34606779Y-180705180D01*
X34606779Y-180705180D02*
X34559160Y-180228990D01*
X34559160Y-180228990D02*
X34606779Y-180276609D01*
X34606779Y-180276609D02*
X34702017Y-180324228D01*
X34702017Y-180324228D02*
X34940112Y-180324228D01*
X34940112Y-180324228D02*
X35035350Y-180276609D01*
X35035350Y-180276609D02*
X35082969Y-180228990D01*
X35082969Y-180228990D02*
X35130588Y-180133752D01*
X35130588Y-180133752D02*
X35130588Y-179895657D01*
X35130588Y-179895657D02*
X35082969Y-179800419D01*
X35082969Y-179800419D02*
X35035350Y-179752800D01*
X35035350Y-179752800D02*
X34940112Y-179705180D01*
X34940112Y-179705180D02*
X34702017Y-179705180D01*
X34702017Y-179705180D02*
X34606779Y-179752800D01*
X34606779Y-179752800D02*
X34559160Y-179800419D01*
X35416303Y-180705180D02*
X35749636Y-179705180D01*
X35749636Y-179705180D02*
X36082969Y-180705180D01*
X35360587Y-167957561D02*
X35265349Y-168005180D01*
X35265349Y-168005180D02*
X35122492Y-168005180D01*
X35122492Y-168005180D02*
X34979635Y-167957561D01*
X34979635Y-167957561D02*
X34884397Y-167862323D01*
X34884397Y-167862323D02*
X34836778Y-167767085D01*
X34836778Y-167767085D02*
X34789159Y-167576609D01*
X34789159Y-167576609D02*
X34789159Y-167433752D01*
X34789159Y-167433752D02*
X34836778Y-167243276D01*
X34836778Y-167243276D02*
X34884397Y-167148038D01*
X34884397Y-167148038D02*
X34979635Y-167052800D01*
X34979635Y-167052800D02*
X35122492Y-167005180D01*
X35122492Y-167005180D02*
X35217730Y-167005180D01*
X35217730Y-167005180D02*
X35360587Y-167052800D01*
X35360587Y-167052800D02*
X35408206Y-167100419D01*
X35408206Y-167100419D02*
X35408206Y-167433752D01*
X35408206Y-167433752D02*
X35217730Y-167433752D01*
X35836778Y-167005180D02*
X35836778Y-168005180D01*
X35836778Y-168005180D02*
X36217730Y-168005180D01*
X36217730Y-168005180D02*
X36312968Y-167957561D01*
X36312968Y-167957561D02*
X36360587Y-167909942D01*
X36360587Y-167909942D02*
X36408206Y-167814704D01*
X36408206Y-167814704D02*
X36408206Y-167671847D01*
X36408206Y-167671847D02*
X36360587Y-167576609D01*
X36360587Y-167576609D02*
X36312968Y-167528990D01*
X36312968Y-167528990D02*
X36217730Y-167481371D01*
X36217730Y-167481371D02*
X35836778Y-167481371D01*
X36836778Y-167005180D02*
X36836778Y-168005180D01*
X37503444Y-168005180D02*
X37693920Y-168005180D01*
X37693920Y-168005180D02*
X37789158Y-167957561D01*
X37789158Y-167957561D02*
X37884396Y-167862323D01*
X37884396Y-167862323D02*
X37932015Y-167671847D01*
X37932015Y-167671847D02*
X37932015Y-167338514D01*
X37932015Y-167338514D02*
X37884396Y-167148038D01*
X37884396Y-167148038D02*
X37789158Y-167052800D01*
X37789158Y-167052800D02*
X37693920Y-167005180D01*
X37693920Y-167005180D02*
X37503444Y-167005180D01*
X37503444Y-167005180D02*
X37408206Y-167052800D01*
X37408206Y-167052800D02*
X37312968Y-167148038D01*
X37312968Y-167148038D02*
X37265349Y-167338514D01*
X37265349Y-167338514D02*
X37265349Y-167671847D01*
X37265349Y-167671847D02*
X37312968Y-167862323D01*
X37312968Y-167862323D02*
X37408206Y-167957561D01*
X37408206Y-167957561D02*
X37503444Y-168005180D01*
X38265349Y-168005180D02*
X38884396Y-168005180D01*
X38884396Y-168005180D02*
X38551063Y-167624228D01*
X38551063Y-167624228D02*
X38693920Y-167624228D01*
X38693920Y-167624228D02*
X38789158Y-167576609D01*
X38789158Y-167576609D02*
X38836777Y-167528990D01*
X38836777Y-167528990D02*
X38884396Y-167433752D01*
X38884396Y-167433752D02*
X38884396Y-167195657D01*
X38884396Y-167195657D02*
X38836777Y-167100419D01*
X38836777Y-167100419D02*
X38789158Y-167052800D01*
X38789158Y-167052800D02*
X38693920Y-167005180D01*
X38693920Y-167005180D02*
X38408206Y-167005180D01*
X38408206Y-167005180D02*
X38312968Y-167052800D01*
X38312968Y-167052800D02*
X38265349Y-167100419D01*
X35130588Y-170497561D02*
X35035350Y-170545180D01*
X35035350Y-170545180D02*
X34892493Y-170545180D01*
X34892493Y-170545180D02*
X34749636Y-170497561D01*
X34749636Y-170497561D02*
X34654398Y-170402323D01*
X34654398Y-170402323D02*
X34606779Y-170307085D01*
X34606779Y-170307085D02*
X34559160Y-170116609D01*
X34559160Y-170116609D02*
X34559160Y-169973752D01*
X34559160Y-169973752D02*
X34606779Y-169783276D01*
X34606779Y-169783276D02*
X34654398Y-169688038D01*
X34654398Y-169688038D02*
X34749636Y-169592800D01*
X34749636Y-169592800D02*
X34892493Y-169545180D01*
X34892493Y-169545180D02*
X34987731Y-169545180D01*
X34987731Y-169545180D02*
X35130588Y-169592800D01*
X35130588Y-169592800D02*
X35178207Y-169640419D01*
X35178207Y-169640419D02*
X35178207Y-169973752D01*
X35178207Y-169973752D02*
X34987731Y-169973752D01*
X35606779Y-169545180D02*
X35606779Y-170545180D01*
X35606779Y-170545180D02*
X35987731Y-170545180D01*
X35987731Y-170545180D02*
X36082969Y-170497561D01*
X36082969Y-170497561D02*
X36130588Y-170449942D01*
X36130588Y-170449942D02*
X36178207Y-170354704D01*
X36178207Y-170354704D02*
X36178207Y-170211847D01*
X36178207Y-170211847D02*
X36130588Y-170116609D01*
X36130588Y-170116609D02*
X36082969Y-170068990D01*
X36082969Y-170068990D02*
X35987731Y-170021371D01*
X35987731Y-170021371D02*
X35606779Y-170021371D01*
X36606779Y-169545180D02*
X36606779Y-170545180D01*
X37273445Y-170545180D02*
X37463921Y-170545180D01*
X37463921Y-170545180D02*
X37559159Y-170497561D01*
X37559159Y-170497561D02*
X37654397Y-170402323D01*
X37654397Y-170402323D02*
X37702016Y-170211847D01*
X37702016Y-170211847D02*
X37702016Y-169878514D01*
X37702016Y-169878514D02*
X37654397Y-169688038D01*
X37654397Y-169688038D02*
X37559159Y-169592800D01*
X37559159Y-169592800D02*
X37463921Y-169545180D01*
X37463921Y-169545180D02*
X37273445Y-169545180D01*
X37273445Y-169545180D02*
X37178207Y-169592800D01*
X37178207Y-169592800D02*
X37082969Y-169688038D01*
X37082969Y-169688038D02*
X37035350Y-169878514D01*
X37035350Y-169878514D02*
X37035350Y-170211847D01*
X37035350Y-170211847D02*
X37082969Y-170402323D01*
X37082969Y-170402323D02*
X37178207Y-170497561D01*
X37178207Y-170497561D02*
X37273445Y-170545180D01*
X38082969Y-170449942D02*
X38130588Y-170497561D01*
X38130588Y-170497561D02*
X38225826Y-170545180D01*
X38225826Y-170545180D02*
X38463921Y-170545180D01*
X38463921Y-170545180D02*
X38559159Y-170497561D01*
X38559159Y-170497561D02*
X38606778Y-170449942D01*
X38606778Y-170449942D02*
X38654397Y-170354704D01*
X38654397Y-170354704D02*
X38654397Y-170259466D01*
X38654397Y-170259466D02*
X38606778Y-170116609D01*
X38606778Y-170116609D02*
X38035350Y-169545180D01*
X38035350Y-169545180D02*
X38654397Y-169545180D01*
X41480588Y-173037561D02*
X41385350Y-173085180D01*
X41385350Y-173085180D02*
X41242493Y-173085180D01*
X41242493Y-173085180D02*
X41099636Y-173037561D01*
X41099636Y-173037561D02*
X41004398Y-172942323D01*
X41004398Y-172942323D02*
X40956779Y-172847085D01*
X40956779Y-172847085D02*
X40909160Y-172656609D01*
X40909160Y-172656609D02*
X40909160Y-172513752D01*
X40909160Y-172513752D02*
X40956779Y-172323276D01*
X40956779Y-172323276D02*
X41004398Y-172228038D01*
X41004398Y-172228038D02*
X41099636Y-172132800D01*
X41099636Y-172132800D02*
X41242493Y-172085180D01*
X41242493Y-172085180D02*
X41337731Y-172085180D01*
X41337731Y-172085180D02*
X41480588Y-172132800D01*
X41480588Y-172132800D02*
X41528207Y-172180419D01*
X41528207Y-172180419D02*
X41528207Y-172513752D01*
X41528207Y-172513752D02*
X41337731Y-172513752D01*
X41956779Y-172085180D02*
X41956779Y-173085180D01*
X41956779Y-173085180D02*
X42337731Y-173085180D01*
X42337731Y-173085180D02*
X42432969Y-173037561D01*
X42432969Y-173037561D02*
X42480588Y-172989942D01*
X42480588Y-172989942D02*
X42528207Y-172894704D01*
X42528207Y-172894704D02*
X42528207Y-172751847D01*
X42528207Y-172751847D02*
X42480588Y-172656609D01*
X42480588Y-172656609D02*
X42432969Y-172608990D01*
X42432969Y-172608990D02*
X42337731Y-172561371D01*
X42337731Y-172561371D02*
X41956779Y-172561371D01*
X42956779Y-172085180D02*
X42956779Y-173085180D01*
X43623445Y-173085180D02*
X43813921Y-173085180D01*
X43813921Y-173085180D02*
X43909159Y-173037561D01*
X43909159Y-173037561D02*
X44004397Y-172942323D01*
X44004397Y-172942323D02*
X44052016Y-172751847D01*
X44052016Y-172751847D02*
X44052016Y-172418514D01*
X44052016Y-172418514D02*
X44004397Y-172228038D01*
X44004397Y-172228038D02*
X43909159Y-172132800D01*
X43909159Y-172132800D02*
X43813921Y-172085180D01*
X43813921Y-172085180D02*
X43623445Y-172085180D01*
X43623445Y-172085180D02*
X43528207Y-172132800D01*
X43528207Y-172132800D02*
X43432969Y-172228038D01*
X43432969Y-172228038D02*
X43385350Y-172418514D01*
X43385350Y-172418514D02*
X43385350Y-172751847D01*
X43385350Y-172751847D02*
X43432969Y-172942323D01*
X43432969Y-172942323D02*
X43528207Y-173037561D01*
X43528207Y-173037561D02*
X43623445Y-173085180D01*
X45004397Y-172085180D02*
X44432969Y-172085180D01*
X44718683Y-172085180D02*
X44718683Y-173085180D01*
X44718683Y-173085180D02*
X44623445Y-172942323D01*
X44623445Y-172942323D02*
X44528207Y-172847085D01*
X44528207Y-172847085D02*
X44432969Y-172799466D01*
X45385350Y-172989942D02*
X45432969Y-173037561D01*
X45432969Y-173037561D02*
X45528207Y-173085180D01*
X45528207Y-173085180D02*
X45766302Y-173085180D01*
X45766302Y-173085180D02*
X45861540Y-173037561D01*
X45861540Y-173037561D02*
X45909159Y-172989942D01*
X45909159Y-172989942D02*
X45956778Y-172894704D01*
X45956778Y-172894704D02*
X45956778Y-172799466D01*
X45956778Y-172799466D02*
X45909159Y-172656609D01*
X45909159Y-172656609D02*
X45337731Y-172085180D01*
X45337731Y-172085180D02*
X45956778Y-172085180D01*
X35360587Y-162877561D02*
X35265349Y-162925180D01*
X35265349Y-162925180D02*
X35122492Y-162925180D01*
X35122492Y-162925180D02*
X34979635Y-162877561D01*
X34979635Y-162877561D02*
X34884397Y-162782323D01*
X34884397Y-162782323D02*
X34836778Y-162687085D01*
X34836778Y-162687085D02*
X34789159Y-162496609D01*
X34789159Y-162496609D02*
X34789159Y-162353752D01*
X34789159Y-162353752D02*
X34836778Y-162163276D01*
X34836778Y-162163276D02*
X34884397Y-162068038D01*
X34884397Y-162068038D02*
X34979635Y-161972800D01*
X34979635Y-161972800D02*
X35122492Y-161925180D01*
X35122492Y-161925180D02*
X35217730Y-161925180D01*
X35217730Y-161925180D02*
X35360587Y-161972800D01*
X35360587Y-161972800D02*
X35408206Y-162020419D01*
X35408206Y-162020419D02*
X35408206Y-162353752D01*
X35408206Y-162353752D02*
X35217730Y-162353752D01*
X35836778Y-161925180D02*
X35836778Y-162925180D01*
X35836778Y-162925180D02*
X36217730Y-162925180D01*
X36217730Y-162925180D02*
X36312968Y-162877561D01*
X36312968Y-162877561D02*
X36360587Y-162829942D01*
X36360587Y-162829942D02*
X36408206Y-162734704D01*
X36408206Y-162734704D02*
X36408206Y-162591847D01*
X36408206Y-162591847D02*
X36360587Y-162496609D01*
X36360587Y-162496609D02*
X36312968Y-162448990D01*
X36312968Y-162448990D02*
X36217730Y-162401371D01*
X36217730Y-162401371D02*
X35836778Y-162401371D01*
X36836778Y-161925180D02*
X36836778Y-162925180D01*
X37503444Y-162925180D02*
X37693920Y-162925180D01*
X37693920Y-162925180D02*
X37789158Y-162877561D01*
X37789158Y-162877561D02*
X37884396Y-162782323D01*
X37884396Y-162782323D02*
X37932015Y-162591847D01*
X37932015Y-162591847D02*
X37932015Y-162258514D01*
X37932015Y-162258514D02*
X37884396Y-162068038D01*
X37884396Y-162068038D02*
X37789158Y-161972800D01*
X37789158Y-161972800D02*
X37693920Y-161925180D01*
X37693920Y-161925180D02*
X37503444Y-161925180D01*
X37503444Y-161925180D02*
X37408206Y-161972800D01*
X37408206Y-161972800D02*
X37312968Y-162068038D01*
X37312968Y-162068038D02*
X37265349Y-162258514D01*
X37265349Y-162258514D02*
X37265349Y-162591847D01*
X37265349Y-162591847D02*
X37312968Y-162782323D01*
X37312968Y-162782323D02*
X37408206Y-162877561D01*
X37408206Y-162877561D02*
X37503444Y-162925180D01*
X38836777Y-162925180D02*
X38360587Y-162925180D01*
X38360587Y-162925180D02*
X38312968Y-162448990D01*
X38312968Y-162448990D02*
X38360587Y-162496609D01*
X38360587Y-162496609D02*
X38455825Y-162544228D01*
X38455825Y-162544228D02*
X38693920Y-162544228D01*
X38693920Y-162544228D02*
X38789158Y-162496609D01*
X38789158Y-162496609D02*
X38836777Y-162448990D01*
X38836777Y-162448990D02*
X38884396Y-162353752D01*
X38884396Y-162353752D02*
X38884396Y-162115657D01*
X38884396Y-162115657D02*
X38836777Y-162020419D01*
X38836777Y-162020419D02*
X38789158Y-161972800D01*
X38789158Y-161972800D02*
X38693920Y-161925180D01*
X38693920Y-161925180D02*
X38455825Y-161925180D01*
X38455825Y-161925180D02*
X38360587Y-161972800D01*
X38360587Y-161972800D02*
X38312968Y-162020419D01*
X35360587Y-165417561D02*
X35265349Y-165465180D01*
X35265349Y-165465180D02*
X35122492Y-165465180D01*
X35122492Y-165465180D02*
X34979635Y-165417561D01*
X34979635Y-165417561D02*
X34884397Y-165322323D01*
X34884397Y-165322323D02*
X34836778Y-165227085D01*
X34836778Y-165227085D02*
X34789159Y-165036609D01*
X34789159Y-165036609D02*
X34789159Y-164893752D01*
X34789159Y-164893752D02*
X34836778Y-164703276D01*
X34836778Y-164703276D02*
X34884397Y-164608038D01*
X34884397Y-164608038D02*
X34979635Y-164512800D01*
X34979635Y-164512800D02*
X35122492Y-164465180D01*
X35122492Y-164465180D02*
X35217730Y-164465180D01*
X35217730Y-164465180D02*
X35360587Y-164512800D01*
X35360587Y-164512800D02*
X35408206Y-164560419D01*
X35408206Y-164560419D02*
X35408206Y-164893752D01*
X35408206Y-164893752D02*
X35217730Y-164893752D01*
X35836778Y-164465180D02*
X35836778Y-165465180D01*
X35836778Y-165465180D02*
X36217730Y-165465180D01*
X36217730Y-165465180D02*
X36312968Y-165417561D01*
X36312968Y-165417561D02*
X36360587Y-165369942D01*
X36360587Y-165369942D02*
X36408206Y-165274704D01*
X36408206Y-165274704D02*
X36408206Y-165131847D01*
X36408206Y-165131847D02*
X36360587Y-165036609D01*
X36360587Y-165036609D02*
X36312968Y-164988990D01*
X36312968Y-164988990D02*
X36217730Y-164941371D01*
X36217730Y-164941371D02*
X35836778Y-164941371D01*
X36836778Y-164465180D02*
X36836778Y-165465180D01*
X37503444Y-165465180D02*
X37693920Y-165465180D01*
X37693920Y-165465180D02*
X37789158Y-165417561D01*
X37789158Y-165417561D02*
X37884396Y-165322323D01*
X37884396Y-165322323D02*
X37932015Y-165131847D01*
X37932015Y-165131847D02*
X37932015Y-164798514D01*
X37932015Y-164798514D02*
X37884396Y-164608038D01*
X37884396Y-164608038D02*
X37789158Y-164512800D01*
X37789158Y-164512800D02*
X37693920Y-164465180D01*
X37693920Y-164465180D02*
X37503444Y-164465180D01*
X37503444Y-164465180D02*
X37408206Y-164512800D01*
X37408206Y-164512800D02*
X37312968Y-164608038D01*
X37312968Y-164608038D02*
X37265349Y-164798514D01*
X37265349Y-164798514D02*
X37265349Y-165131847D01*
X37265349Y-165131847D02*
X37312968Y-165322323D01*
X37312968Y-165322323D02*
X37408206Y-165417561D01*
X37408206Y-165417561D02*
X37503444Y-165465180D01*
X38789158Y-165131847D02*
X38789158Y-164465180D01*
X38551063Y-165512800D02*
X38312968Y-164798514D01*
X38312968Y-164798514D02*
X38932015Y-164798514D01*
X42480588Y-165187562D02*
X42385350Y-165235181D01*
X42385350Y-165235181D02*
X42242493Y-165235181D01*
X42242493Y-165235181D02*
X42099636Y-165187562D01*
X42099636Y-165187562D02*
X42004398Y-165092324D01*
X42004398Y-165092324D02*
X41956779Y-164997086D01*
X41956779Y-164997086D02*
X41909160Y-164806610D01*
X41909160Y-164806610D02*
X41909160Y-164663753D01*
X41909160Y-164663753D02*
X41956779Y-164473277D01*
X41956779Y-164473277D02*
X42004398Y-164378039D01*
X42004398Y-164378039D02*
X42099636Y-164282801D01*
X42099636Y-164282801D02*
X42242493Y-164235181D01*
X42242493Y-164235181D02*
X42337731Y-164235181D01*
X42337731Y-164235181D02*
X42480588Y-164282801D01*
X42480588Y-164282801D02*
X42528207Y-164330420D01*
X42528207Y-164330420D02*
X42528207Y-164663753D01*
X42528207Y-164663753D02*
X42337731Y-164663753D01*
X42956779Y-164235181D02*
X42956779Y-165235181D01*
X42956779Y-165235181D02*
X43337731Y-165235181D01*
X43337731Y-165235181D02*
X43432969Y-165187562D01*
X43432969Y-165187562D02*
X43480588Y-165139943D01*
X43480588Y-165139943D02*
X43528207Y-165044705D01*
X43528207Y-165044705D02*
X43528207Y-164901848D01*
X43528207Y-164901848D02*
X43480588Y-164806610D01*
X43480588Y-164806610D02*
X43432969Y-164758991D01*
X43432969Y-164758991D02*
X43337731Y-164711372D01*
X43337731Y-164711372D02*
X42956779Y-164711372D01*
X43956779Y-164235181D02*
X43956779Y-165235181D01*
X44623445Y-165235181D02*
X44813921Y-165235181D01*
X44813921Y-165235181D02*
X44909159Y-165187562D01*
X44909159Y-165187562D02*
X45004397Y-165092324D01*
X45004397Y-165092324D02*
X45052016Y-164901848D01*
X45052016Y-164901848D02*
X45052016Y-164568515D01*
X45052016Y-164568515D02*
X45004397Y-164378039D01*
X45004397Y-164378039D02*
X44909159Y-164282801D01*
X44909159Y-164282801D02*
X44813921Y-164235181D01*
X44813921Y-164235181D02*
X44623445Y-164235181D01*
X44623445Y-164235181D02*
X44528207Y-164282801D01*
X44528207Y-164282801D02*
X44432969Y-164378039D01*
X44432969Y-164378039D02*
X44385350Y-164568515D01*
X44385350Y-164568515D02*
X44385350Y-164901848D01*
X44385350Y-164901848D02*
X44432969Y-165092324D01*
X44432969Y-165092324D02*
X44528207Y-165187562D01*
X44528207Y-165187562D02*
X44623445Y-165235181D01*
X45528207Y-164235181D02*
X45718683Y-164235181D01*
X45718683Y-164235181D02*
X45813921Y-164282801D01*
X45813921Y-164282801D02*
X45861540Y-164330420D01*
X45861540Y-164330420D02*
X45956778Y-164473277D01*
X45956778Y-164473277D02*
X46004397Y-164663753D01*
X46004397Y-164663753D02*
X46004397Y-165044705D01*
X46004397Y-165044705D02*
X45956778Y-165139943D01*
X45956778Y-165139943D02*
X45909159Y-165187562D01*
X45909159Y-165187562D02*
X45813921Y-165235181D01*
X45813921Y-165235181D02*
X45623445Y-165235181D01*
X45623445Y-165235181D02*
X45528207Y-165187562D01*
X45528207Y-165187562D02*
X45480588Y-165139943D01*
X45480588Y-165139943D02*
X45432969Y-165044705D01*
X45432969Y-165044705D02*
X45432969Y-164806610D01*
X45432969Y-164806610D02*
X45480588Y-164711372D01*
X45480588Y-164711372D02*
X45528207Y-164663753D01*
X45528207Y-164663753D02*
X45623445Y-164616134D01*
X45623445Y-164616134D02*
X45813921Y-164616134D01*
X45813921Y-164616134D02*
X45909159Y-164663753D01*
X45909159Y-164663753D02*
X45956778Y-164711372D01*
X45956778Y-164711372D02*
X46004397Y-164806610D01*
X44212267Y-180705180D02*
X44783695Y-180705180D01*
X44497981Y-179705180D02*
X44497981Y-180705180D01*
X45021791Y-180705180D02*
X45688457Y-179705180D01*
X45688457Y-180705180D02*
X45021791Y-179705180D01*
X35130588Y-173037561D02*
X35035350Y-173085180D01*
X35035350Y-173085180D02*
X34892493Y-173085180D01*
X34892493Y-173085180D02*
X34749636Y-173037561D01*
X34749636Y-173037561D02*
X34654398Y-172942323D01*
X34654398Y-172942323D02*
X34606779Y-172847085D01*
X34606779Y-172847085D02*
X34559160Y-172656609D01*
X34559160Y-172656609D02*
X34559160Y-172513752D01*
X34559160Y-172513752D02*
X34606779Y-172323276D01*
X34606779Y-172323276D02*
X34654398Y-172228038D01*
X34654398Y-172228038D02*
X34749636Y-172132800D01*
X34749636Y-172132800D02*
X34892493Y-172085180D01*
X34892493Y-172085180D02*
X34987731Y-172085180D01*
X34987731Y-172085180D02*
X35130588Y-172132800D01*
X35130588Y-172132800D02*
X35178207Y-172180419D01*
X35178207Y-172180419D02*
X35178207Y-172513752D01*
X35178207Y-172513752D02*
X34987731Y-172513752D01*
X35606779Y-172085180D02*
X35606779Y-173085180D01*
X35606779Y-173085180D02*
X35987731Y-173085180D01*
X35987731Y-173085180D02*
X36082969Y-173037561D01*
X36082969Y-173037561D02*
X36130588Y-172989942D01*
X36130588Y-172989942D02*
X36178207Y-172894704D01*
X36178207Y-172894704D02*
X36178207Y-172751847D01*
X36178207Y-172751847D02*
X36130588Y-172656609D01*
X36130588Y-172656609D02*
X36082969Y-172608990D01*
X36082969Y-172608990D02*
X35987731Y-172561371D01*
X35987731Y-172561371D02*
X35606779Y-172561371D01*
X36606779Y-172085180D02*
X36606779Y-173085180D01*
X37273445Y-173085180D02*
X37463921Y-173085180D01*
X37463921Y-173085180D02*
X37559159Y-173037561D01*
X37559159Y-173037561D02*
X37654397Y-172942323D01*
X37654397Y-172942323D02*
X37702016Y-172751847D01*
X37702016Y-172751847D02*
X37702016Y-172418514D01*
X37702016Y-172418514D02*
X37654397Y-172228038D01*
X37654397Y-172228038D02*
X37559159Y-172132800D01*
X37559159Y-172132800D02*
X37463921Y-172085180D01*
X37463921Y-172085180D02*
X37273445Y-172085180D01*
X37273445Y-172085180D02*
X37178207Y-172132800D01*
X37178207Y-172132800D02*
X37082969Y-172228038D01*
X37082969Y-172228038D02*
X37035350Y-172418514D01*
X37035350Y-172418514D02*
X37035350Y-172751847D01*
X37035350Y-172751847D02*
X37082969Y-172942323D01*
X37082969Y-172942323D02*
X37178207Y-173037561D01*
X37178207Y-173037561D02*
X37273445Y-173085180D01*
X38654397Y-172085180D02*
X38082969Y-172085180D01*
X38368683Y-172085180D02*
X38368683Y-173085180D01*
X38368683Y-173085180D02*
X38273445Y-172942323D01*
X38273445Y-172942323D02*
X38178207Y-172847085D01*
X38178207Y-172847085D02*
X38082969Y-172799466D01*
X42480588Y-162877561D02*
X42385350Y-162925180D01*
X42385350Y-162925180D02*
X42242493Y-162925180D01*
X42242493Y-162925180D02*
X42099636Y-162877561D01*
X42099636Y-162877561D02*
X42004398Y-162782323D01*
X42004398Y-162782323D02*
X41956779Y-162687085D01*
X41956779Y-162687085D02*
X41909160Y-162496609D01*
X41909160Y-162496609D02*
X41909160Y-162353752D01*
X41909160Y-162353752D02*
X41956779Y-162163276D01*
X41956779Y-162163276D02*
X42004398Y-162068038D01*
X42004398Y-162068038D02*
X42099636Y-161972800D01*
X42099636Y-161972800D02*
X42242493Y-161925180D01*
X42242493Y-161925180D02*
X42337731Y-161925180D01*
X42337731Y-161925180D02*
X42480588Y-161972800D01*
X42480588Y-161972800D02*
X42528207Y-162020419D01*
X42528207Y-162020419D02*
X42528207Y-162353752D01*
X42528207Y-162353752D02*
X42337731Y-162353752D01*
X42956779Y-161925180D02*
X42956779Y-162925180D01*
X42956779Y-162925180D02*
X43337731Y-162925180D01*
X43337731Y-162925180D02*
X43432969Y-162877561D01*
X43432969Y-162877561D02*
X43480588Y-162829942D01*
X43480588Y-162829942D02*
X43528207Y-162734704D01*
X43528207Y-162734704D02*
X43528207Y-162591847D01*
X43528207Y-162591847D02*
X43480588Y-162496609D01*
X43480588Y-162496609D02*
X43432969Y-162448990D01*
X43432969Y-162448990D02*
X43337731Y-162401371D01*
X43337731Y-162401371D02*
X42956779Y-162401371D01*
X43956779Y-161925180D02*
X43956779Y-162925180D01*
X44623445Y-162925180D02*
X44813921Y-162925180D01*
X44813921Y-162925180D02*
X44909159Y-162877561D01*
X44909159Y-162877561D02*
X45004397Y-162782323D01*
X45004397Y-162782323D02*
X45052016Y-162591847D01*
X45052016Y-162591847D02*
X45052016Y-162258514D01*
X45052016Y-162258514D02*
X45004397Y-162068038D01*
X45004397Y-162068038D02*
X44909159Y-161972800D01*
X44909159Y-161972800D02*
X44813921Y-161925180D01*
X44813921Y-161925180D02*
X44623445Y-161925180D01*
X44623445Y-161925180D02*
X44528207Y-161972800D01*
X44528207Y-161972800D02*
X44432969Y-162068038D01*
X44432969Y-162068038D02*
X44385350Y-162258514D01*
X44385350Y-162258514D02*
X44385350Y-162591847D01*
X44385350Y-162591847D02*
X44432969Y-162782323D01*
X44432969Y-162782323D02*
X44528207Y-162877561D01*
X44528207Y-162877561D02*
X44623445Y-162925180D01*
X45623445Y-162496609D02*
X45528207Y-162544228D01*
X45528207Y-162544228D02*
X45480588Y-162591847D01*
X45480588Y-162591847D02*
X45432969Y-162687085D01*
X45432969Y-162687085D02*
X45432969Y-162734704D01*
X45432969Y-162734704D02*
X45480588Y-162829942D01*
X45480588Y-162829942D02*
X45528207Y-162877561D01*
X45528207Y-162877561D02*
X45623445Y-162925180D01*
X45623445Y-162925180D02*
X45813921Y-162925180D01*
X45813921Y-162925180D02*
X45909159Y-162877561D01*
X45909159Y-162877561D02*
X45956778Y-162829942D01*
X45956778Y-162829942D02*
X46004397Y-162734704D01*
X46004397Y-162734704D02*
X46004397Y-162687085D01*
X46004397Y-162687085D02*
X45956778Y-162591847D01*
X45956778Y-162591847D02*
X45909159Y-162544228D01*
X45909159Y-162544228D02*
X45813921Y-162496609D01*
X45813921Y-162496609D02*
X45623445Y-162496609D01*
X45623445Y-162496609D02*
X45528207Y-162448990D01*
X45528207Y-162448990D02*
X45480588Y-162401371D01*
X45480588Y-162401371D02*
X45432969Y-162306133D01*
X45432969Y-162306133D02*
X45432969Y-162115657D01*
X45432969Y-162115657D02*
X45480588Y-162020419D01*
X45480588Y-162020419D02*
X45528207Y-161972800D01*
X45528207Y-161972800D02*
X45623445Y-161925180D01*
X45623445Y-161925180D02*
X45813921Y-161925180D01*
X45813921Y-161925180D02*
X45909159Y-161972800D01*
X45909159Y-161972800D02*
X45956778Y-162020419D01*
X45956778Y-162020419D02*
X46004397Y-162115657D01*
X46004397Y-162115657D02*
X46004397Y-162306133D01*
X46004397Y-162306133D02*
X45956778Y-162401371D01*
X45956778Y-162401371D02*
X45909159Y-162448990D01*
X45909159Y-162448990D02*
X45813921Y-162496609D01*
X41480588Y-170497561D02*
X41385350Y-170545180D01*
X41385350Y-170545180D02*
X41242493Y-170545180D01*
X41242493Y-170545180D02*
X41099636Y-170497561D01*
X41099636Y-170497561D02*
X41004398Y-170402323D01*
X41004398Y-170402323D02*
X40956779Y-170307085D01*
X40956779Y-170307085D02*
X40909160Y-170116609D01*
X40909160Y-170116609D02*
X40909160Y-169973752D01*
X40909160Y-169973752D02*
X40956779Y-169783276D01*
X40956779Y-169783276D02*
X41004398Y-169688038D01*
X41004398Y-169688038D02*
X41099636Y-169592800D01*
X41099636Y-169592800D02*
X41242493Y-169545180D01*
X41242493Y-169545180D02*
X41337731Y-169545180D01*
X41337731Y-169545180D02*
X41480588Y-169592800D01*
X41480588Y-169592800D02*
X41528207Y-169640419D01*
X41528207Y-169640419D02*
X41528207Y-169973752D01*
X41528207Y-169973752D02*
X41337731Y-169973752D01*
X41956779Y-169545180D02*
X41956779Y-170545180D01*
X41956779Y-170545180D02*
X42337731Y-170545180D01*
X42337731Y-170545180D02*
X42432969Y-170497561D01*
X42432969Y-170497561D02*
X42480588Y-170449942D01*
X42480588Y-170449942D02*
X42528207Y-170354704D01*
X42528207Y-170354704D02*
X42528207Y-170211847D01*
X42528207Y-170211847D02*
X42480588Y-170116609D01*
X42480588Y-170116609D02*
X42432969Y-170068990D01*
X42432969Y-170068990D02*
X42337731Y-170021371D01*
X42337731Y-170021371D02*
X41956779Y-170021371D01*
X42956779Y-169545180D02*
X42956779Y-170545180D01*
X43623445Y-170545180D02*
X43813921Y-170545180D01*
X43813921Y-170545180D02*
X43909159Y-170497561D01*
X43909159Y-170497561D02*
X44004397Y-170402323D01*
X44004397Y-170402323D02*
X44052016Y-170211847D01*
X44052016Y-170211847D02*
X44052016Y-169878514D01*
X44052016Y-169878514D02*
X44004397Y-169688038D01*
X44004397Y-169688038D02*
X43909159Y-169592800D01*
X43909159Y-169592800D02*
X43813921Y-169545180D01*
X43813921Y-169545180D02*
X43623445Y-169545180D01*
X43623445Y-169545180D02*
X43528207Y-169592800D01*
X43528207Y-169592800D02*
X43432969Y-169688038D01*
X43432969Y-169688038D02*
X43385350Y-169878514D01*
X43385350Y-169878514D02*
X43385350Y-170211847D01*
X43385350Y-170211847D02*
X43432969Y-170402323D01*
X43432969Y-170402323D02*
X43528207Y-170497561D01*
X43528207Y-170497561D02*
X43623445Y-170545180D01*
X45004397Y-169545180D02*
X44432969Y-169545180D01*
X44718683Y-169545180D02*
X44718683Y-170545180D01*
X44718683Y-170545180D02*
X44623445Y-170402323D01*
X44623445Y-170402323D02*
X44528207Y-170307085D01*
X44528207Y-170307085D02*
X44432969Y-170259466D01*
X45956778Y-169545180D02*
X45385350Y-169545180D01*
X45671064Y-169545180D02*
X45671064Y-170545180D01*
X45671064Y-170545180D02*
X45575826Y-170402323D01*
X45575826Y-170402323D02*
X45480588Y-170307085D01*
X45480588Y-170307085D02*
X45385350Y-170259466D01*
X35360587Y-160337561D02*
X35265349Y-160385180D01*
X35265349Y-160385180D02*
X35122492Y-160385180D01*
X35122492Y-160385180D02*
X34979635Y-160337561D01*
X34979635Y-160337561D02*
X34884397Y-160242323D01*
X34884397Y-160242323D02*
X34836778Y-160147085D01*
X34836778Y-160147085D02*
X34789159Y-159956609D01*
X34789159Y-159956609D02*
X34789159Y-159813752D01*
X34789159Y-159813752D02*
X34836778Y-159623276D01*
X34836778Y-159623276D02*
X34884397Y-159528038D01*
X34884397Y-159528038D02*
X34979635Y-159432800D01*
X34979635Y-159432800D02*
X35122492Y-159385180D01*
X35122492Y-159385180D02*
X35217730Y-159385180D01*
X35217730Y-159385180D02*
X35360587Y-159432800D01*
X35360587Y-159432800D02*
X35408206Y-159480419D01*
X35408206Y-159480419D02*
X35408206Y-159813752D01*
X35408206Y-159813752D02*
X35217730Y-159813752D01*
X35836778Y-159385180D02*
X35836778Y-160385180D01*
X35836778Y-160385180D02*
X36217730Y-160385180D01*
X36217730Y-160385180D02*
X36312968Y-160337561D01*
X36312968Y-160337561D02*
X36360587Y-160289942D01*
X36360587Y-160289942D02*
X36408206Y-160194704D01*
X36408206Y-160194704D02*
X36408206Y-160051847D01*
X36408206Y-160051847D02*
X36360587Y-159956609D01*
X36360587Y-159956609D02*
X36312968Y-159908990D01*
X36312968Y-159908990D02*
X36217730Y-159861371D01*
X36217730Y-159861371D02*
X35836778Y-159861371D01*
X36836778Y-159385180D02*
X36836778Y-160385180D01*
X37503444Y-160385180D02*
X37693920Y-160385180D01*
X37693920Y-160385180D02*
X37789158Y-160337561D01*
X37789158Y-160337561D02*
X37884396Y-160242323D01*
X37884396Y-160242323D02*
X37932015Y-160051847D01*
X37932015Y-160051847D02*
X37932015Y-159718514D01*
X37932015Y-159718514D02*
X37884396Y-159528038D01*
X37884396Y-159528038D02*
X37789158Y-159432800D01*
X37789158Y-159432800D02*
X37693920Y-159385180D01*
X37693920Y-159385180D02*
X37503444Y-159385180D01*
X37503444Y-159385180D02*
X37408206Y-159432800D01*
X37408206Y-159432800D02*
X37312968Y-159528038D01*
X37312968Y-159528038D02*
X37265349Y-159718514D01*
X37265349Y-159718514D02*
X37265349Y-160051847D01*
X37265349Y-160051847D02*
X37312968Y-160242323D01*
X37312968Y-160242323D02*
X37408206Y-160337561D01*
X37408206Y-160337561D02*
X37503444Y-160385180D01*
X38789158Y-160385180D02*
X38598682Y-160385180D01*
X38598682Y-160385180D02*
X38503444Y-160337561D01*
X38503444Y-160337561D02*
X38455825Y-160289942D01*
X38455825Y-160289942D02*
X38360587Y-160147085D01*
X38360587Y-160147085D02*
X38312968Y-159956609D01*
X38312968Y-159956609D02*
X38312968Y-159575657D01*
X38312968Y-159575657D02*
X38360587Y-159480419D01*
X38360587Y-159480419D02*
X38408206Y-159432800D01*
X38408206Y-159432800D02*
X38503444Y-159385180D01*
X38503444Y-159385180D02*
X38693920Y-159385180D01*
X38693920Y-159385180D02*
X38789158Y-159432800D01*
X38789158Y-159432800D02*
X38836777Y-159480419D01*
X38836777Y-159480419D02*
X38884396Y-159575657D01*
X38884396Y-159575657D02*
X38884396Y-159813752D01*
X38884396Y-159813752D02*
X38836777Y-159908990D01*
X38836777Y-159908990D02*
X38789158Y-159956609D01*
X38789158Y-159956609D02*
X38693920Y-160004228D01*
X38693920Y-160004228D02*
X38503444Y-160004228D01*
X38503444Y-160004228D02*
X38408206Y-159956609D01*
X38408206Y-159956609D02*
X38360587Y-159908990D01*
X38360587Y-159908990D02*
X38312968Y-159813752D01*
X34511541Y-175625180D02*
X35130588Y-175625180D01*
X35130588Y-175625180D02*
X34797255Y-175244228D01*
X34797255Y-175244228D02*
X34940112Y-175244228D01*
X34940112Y-175244228D02*
X35035350Y-175196609D01*
X35035350Y-175196609D02*
X35082969Y-175148990D01*
X35082969Y-175148990D02*
X35130588Y-175053752D01*
X35130588Y-175053752D02*
X35130588Y-174815657D01*
X35130588Y-174815657D02*
X35082969Y-174720419D01*
X35082969Y-174720419D02*
X35035350Y-174672800D01*
X35035350Y-174672800D02*
X34940112Y-174625180D01*
X34940112Y-174625180D02*
X34654398Y-174625180D01*
X34654398Y-174625180D02*
X34559160Y-174672800D01*
X34559160Y-174672800D02*
X34511541Y-174720419D01*
X35416303Y-175625180D02*
X35749636Y-174625180D01*
X35749636Y-174625180D02*
X36082969Y-175625180D01*
X36321065Y-175625180D02*
X36940112Y-175625180D01*
X36940112Y-175625180D02*
X36606779Y-175244228D01*
X36606779Y-175244228D02*
X36749636Y-175244228D01*
X36749636Y-175244228D02*
X36844874Y-175196609D01*
X36844874Y-175196609D02*
X36892493Y-175148990D01*
X36892493Y-175148990D02*
X36940112Y-175053752D01*
X36940112Y-175053752D02*
X36940112Y-174815657D01*
X36940112Y-174815657D02*
X36892493Y-174720419D01*
X36892493Y-174720419D02*
X36844874Y-174672800D01*
X36844874Y-174672800D02*
X36749636Y-174625180D01*
X36749636Y-174625180D02*
X36463922Y-174625180D01*
X36463922Y-174625180D02*
X36368684Y-174672800D01*
X36368684Y-174672800D02*
X36321065Y-174720419D01*
X36654398Y-177122438D02*
X36749636Y-177074819D01*
X36749636Y-177074819D02*
X36892493Y-177074819D01*
X36892493Y-177074819D02*
X37035350Y-177122438D01*
X37035350Y-177122438D02*
X37130588Y-177217676D01*
X37130588Y-177217676D02*
X37178207Y-177312914D01*
X37178207Y-177312914D02*
X37225826Y-177503390D01*
X37225826Y-177503390D02*
X37225826Y-177646247D01*
X37225826Y-177646247D02*
X37178207Y-177836723D01*
X37178207Y-177836723D02*
X37130588Y-177931961D01*
X37130588Y-177931961D02*
X37035350Y-178027200D01*
X37035350Y-178027200D02*
X36892493Y-178074819D01*
X36892493Y-178074819D02*
X36797255Y-178074819D01*
X36797255Y-178074819D02*
X36654398Y-178027200D01*
X36654398Y-178027200D02*
X36606779Y-177979580D01*
X36606779Y-177979580D02*
X36606779Y-177646247D01*
X36606779Y-177646247D02*
X36797255Y-177646247D01*
X36178207Y-178074819D02*
X36178207Y-177074819D01*
X36178207Y-177074819D02*
X35606779Y-178074819D01*
X35606779Y-178074819D02*
X35606779Y-177074819D01*
X35130588Y-178074819D02*
X35130588Y-177074819D01*
X35130588Y-177074819D02*
X34892493Y-177074819D01*
X34892493Y-177074819D02*
X34749636Y-177122438D01*
X34749636Y-177122438D02*
X34654398Y-177217676D01*
X34654398Y-177217676D02*
X34606779Y-177312914D01*
X34606779Y-177312914D02*
X34559160Y-177503390D01*
X34559160Y-177503390D02*
X34559160Y-177646247D01*
X34559160Y-177646247D02*
X34606779Y-177836723D01*
X34606779Y-177836723D02*
X34654398Y-177931961D01*
X34654398Y-177931961D02*
X34749636Y-178027200D01*
X34749636Y-178027200D02*
X34892493Y-178074819D01*
X34892493Y-178074819D02*
X35130588Y-178074819D01*
X44688457Y-177165180D02*
X44355124Y-177641371D01*
X44117029Y-177165180D02*
X44117029Y-178165180D01*
X44117029Y-178165180D02*
X44497981Y-178165180D01*
X44497981Y-178165180D02*
X44593219Y-178117561D01*
X44593219Y-178117561D02*
X44640838Y-178069942D01*
X44640838Y-178069942D02*
X44688457Y-177974704D01*
X44688457Y-177974704D02*
X44688457Y-177831847D01*
X44688457Y-177831847D02*
X44640838Y-177736609D01*
X44640838Y-177736609D02*
X44593219Y-177688990D01*
X44593219Y-177688990D02*
X44497981Y-177641371D01*
X44497981Y-177641371D02*
X44117029Y-177641371D01*
X45021791Y-178165180D02*
X45688457Y-177165180D01*
X45688457Y-178165180D02*
X45021791Y-177165180D01*
X41480588Y-167957561D02*
X41385350Y-168005180D01*
X41385350Y-168005180D02*
X41242493Y-168005180D01*
X41242493Y-168005180D02*
X41099636Y-167957561D01*
X41099636Y-167957561D02*
X41004398Y-167862323D01*
X41004398Y-167862323D02*
X40956779Y-167767085D01*
X40956779Y-167767085D02*
X40909160Y-167576609D01*
X40909160Y-167576609D02*
X40909160Y-167433752D01*
X40909160Y-167433752D02*
X40956779Y-167243276D01*
X40956779Y-167243276D02*
X41004398Y-167148038D01*
X41004398Y-167148038D02*
X41099636Y-167052800D01*
X41099636Y-167052800D02*
X41242493Y-167005180D01*
X41242493Y-167005180D02*
X41337731Y-167005180D01*
X41337731Y-167005180D02*
X41480588Y-167052800D01*
X41480588Y-167052800D02*
X41528207Y-167100419D01*
X41528207Y-167100419D02*
X41528207Y-167433752D01*
X41528207Y-167433752D02*
X41337731Y-167433752D01*
X41956779Y-167005180D02*
X41956779Y-168005180D01*
X41956779Y-168005180D02*
X42337731Y-168005180D01*
X42337731Y-168005180D02*
X42432969Y-167957561D01*
X42432969Y-167957561D02*
X42480588Y-167909942D01*
X42480588Y-167909942D02*
X42528207Y-167814704D01*
X42528207Y-167814704D02*
X42528207Y-167671847D01*
X42528207Y-167671847D02*
X42480588Y-167576609D01*
X42480588Y-167576609D02*
X42432969Y-167528990D01*
X42432969Y-167528990D02*
X42337731Y-167481371D01*
X42337731Y-167481371D02*
X41956779Y-167481371D01*
X42956779Y-167005180D02*
X42956779Y-168005180D01*
X43623445Y-168005180D02*
X43813921Y-168005180D01*
X43813921Y-168005180D02*
X43909159Y-167957561D01*
X43909159Y-167957561D02*
X44004397Y-167862323D01*
X44004397Y-167862323D02*
X44052016Y-167671847D01*
X44052016Y-167671847D02*
X44052016Y-167338514D01*
X44052016Y-167338514D02*
X44004397Y-167148038D01*
X44004397Y-167148038D02*
X43909159Y-167052800D01*
X43909159Y-167052800D02*
X43813921Y-167005180D01*
X43813921Y-167005180D02*
X43623445Y-167005180D01*
X43623445Y-167005180D02*
X43528207Y-167052800D01*
X43528207Y-167052800D02*
X43432969Y-167148038D01*
X43432969Y-167148038D02*
X43385350Y-167338514D01*
X43385350Y-167338514D02*
X43385350Y-167671847D01*
X43385350Y-167671847D02*
X43432969Y-167862323D01*
X43432969Y-167862323D02*
X43528207Y-167957561D01*
X43528207Y-167957561D02*
X43623445Y-168005180D01*
X45004397Y-167005180D02*
X44432969Y-167005180D01*
X44718683Y-167005180D02*
X44718683Y-168005180D01*
X44718683Y-168005180D02*
X44623445Y-167862323D01*
X44623445Y-167862323D02*
X44528207Y-167767085D01*
X44528207Y-167767085D02*
X44432969Y-167719466D01*
X45623445Y-168005180D02*
X45718683Y-168005180D01*
X45718683Y-168005180D02*
X45813921Y-167957561D01*
X45813921Y-167957561D02*
X45861540Y-167909942D01*
X45861540Y-167909942D02*
X45909159Y-167814704D01*
X45909159Y-167814704D02*
X45956778Y-167624228D01*
X45956778Y-167624228D02*
X45956778Y-167386133D01*
X45956778Y-167386133D02*
X45909159Y-167195657D01*
X45909159Y-167195657D02*
X45861540Y-167100419D01*
X45861540Y-167100419D02*
X45813921Y-167052800D01*
X45813921Y-167052800D02*
X45718683Y-167005180D01*
X45718683Y-167005180D02*
X45623445Y-167005180D01*
X45623445Y-167005180D02*
X45528207Y-167052800D01*
X45528207Y-167052800D02*
X45480588Y-167100419D01*
X45480588Y-167100419D02*
X45432969Y-167195657D01*
X45432969Y-167195657D02*
X45385350Y-167386133D01*
X45385350Y-167386133D02*
X45385350Y-167624228D01*
X45385350Y-167624228D02*
X45432969Y-167814704D01*
X45432969Y-167814704D02*
X45480588Y-167909942D01*
X45480588Y-167909942D02*
X45528207Y-167957561D01*
X45528207Y-167957561D02*
X45623445Y-168005180D01*
X42480588Y-160337561D02*
X42385350Y-160385180D01*
X42385350Y-160385180D02*
X42242493Y-160385180D01*
X42242493Y-160385180D02*
X42099636Y-160337561D01*
X42099636Y-160337561D02*
X42004398Y-160242323D01*
X42004398Y-160242323D02*
X41956779Y-160147085D01*
X41956779Y-160147085D02*
X41909160Y-159956609D01*
X41909160Y-159956609D02*
X41909160Y-159813752D01*
X41909160Y-159813752D02*
X41956779Y-159623276D01*
X41956779Y-159623276D02*
X42004398Y-159528038D01*
X42004398Y-159528038D02*
X42099636Y-159432800D01*
X42099636Y-159432800D02*
X42242493Y-159385180D01*
X42242493Y-159385180D02*
X42337731Y-159385180D01*
X42337731Y-159385180D02*
X42480588Y-159432800D01*
X42480588Y-159432800D02*
X42528207Y-159480419D01*
X42528207Y-159480419D02*
X42528207Y-159813752D01*
X42528207Y-159813752D02*
X42337731Y-159813752D01*
X42956779Y-159385180D02*
X42956779Y-160385180D01*
X42956779Y-160385180D02*
X43337731Y-160385180D01*
X43337731Y-160385180D02*
X43432969Y-160337561D01*
X43432969Y-160337561D02*
X43480588Y-160289942D01*
X43480588Y-160289942D02*
X43528207Y-160194704D01*
X43528207Y-160194704D02*
X43528207Y-160051847D01*
X43528207Y-160051847D02*
X43480588Y-159956609D01*
X43480588Y-159956609D02*
X43432969Y-159908990D01*
X43432969Y-159908990D02*
X43337731Y-159861371D01*
X43337731Y-159861371D02*
X42956779Y-159861371D01*
X43956779Y-159385180D02*
X43956779Y-160385180D01*
X44623445Y-160385180D02*
X44813921Y-160385180D01*
X44813921Y-160385180D02*
X44909159Y-160337561D01*
X44909159Y-160337561D02*
X45004397Y-160242323D01*
X45004397Y-160242323D02*
X45052016Y-160051847D01*
X45052016Y-160051847D02*
X45052016Y-159718514D01*
X45052016Y-159718514D02*
X45004397Y-159528038D01*
X45004397Y-159528038D02*
X44909159Y-159432800D01*
X44909159Y-159432800D02*
X44813921Y-159385180D01*
X44813921Y-159385180D02*
X44623445Y-159385180D01*
X44623445Y-159385180D02*
X44528207Y-159432800D01*
X44528207Y-159432800D02*
X44432969Y-159528038D01*
X44432969Y-159528038D02*
X44385350Y-159718514D01*
X44385350Y-159718514D02*
X44385350Y-160051847D01*
X44385350Y-160051847D02*
X44432969Y-160242323D01*
X44432969Y-160242323D02*
X44528207Y-160337561D01*
X44528207Y-160337561D02*
X44623445Y-160385180D01*
X45385350Y-160385180D02*
X46052016Y-160385180D01*
X46052016Y-160385180D02*
X45623445Y-159385180D01*
D13*
X31620000Y-181750000D02*
X31620000Y-158250000D01*
X31620000Y-158250000D02*
X49620000Y-158250000D01*
X38080000Y-182700000D02*
X43160000Y-182700000D01*
X38080000Y-181750000D02*
X38080000Y-182700000D01*
X43160000Y-182700000D02*
X43160000Y-181750000D01*
X49620000Y-181750000D02*
X31620000Y-181750000D01*
X49620000Y-158250000D02*
X49620000Y-181750000D01*
%LPC*%
D14*
X51000000Y-73000000D03*
X51000000Y-75540000D03*
X51000000Y-78080000D03*
X51000000Y-80620000D03*
X51000000Y-83160000D03*
D15*
X51000000Y-65000000D03*
X30000000Y-45050000D03*
X32000000Y-147000000D03*
X47000000Y-128000000D03*
X37000000Y-174000000D03*
X39922000Y-48000000D03*
X39922000Y-138000000D03*
X39922000Y-156000000D03*
X39922000Y-118000000D03*
X39922000Y-98000000D03*
D16*
X33000000Y-180160000D03*
X33000000Y-177620000D03*
X33000000Y-175080000D03*
X33000000Y-172540000D03*
X33000000Y-170000000D03*
X33000000Y-167460000D03*
X33000000Y-164920000D03*
X33000000Y-162380000D03*
X33000000Y-159840000D03*
D17*
X48240000Y-159840000D03*
X48240000Y-162380000D03*
X48240000Y-164920000D03*
X48240000Y-167460000D03*
X48240000Y-170000000D03*
X48240000Y-172540000D03*
X48240000Y-175080000D03*
X48240000Y-177620000D03*
X48240000Y-180160000D03*
D18*
X39922000Y-48000000D03*
D19*
X51000000Y-33682000D03*
D20*
X51000000Y-35841000D03*
X51000000Y-38000000D03*
X51000000Y-40159000D03*
D15*
X39922000Y-78000000D03*
X39922000Y-56000000D03*
%LPD*%
M02*
