G04 #@! TF.GenerationSoftware,KiCad,Pcbnew,8.0.7*
G04 #@! TF.CreationDate,2026-01-04T11:28:32-08:00*
G04 #@! TF.ProjectId,DC12V_B,44433132-565f-4422-9e6b-696361645f70,rev?*
G04 #@! TF.SameCoordinates,Original*
G04 #@! TF.FileFunction,Legend,Top*
G04 #@! TF.FilePolarity,Positive*
%FSLAX46Y46*%
G04 Gerber Fmt 4.6, Leading zero omitted, Abs format (unit mm)*
G04 Created by KiCad (PCBNEW 8.0.7) date 2026-01-04 11:28:32*
%MOMM*%
%LPD*%
G01*
G04 APERTURE LIST*
%ADD10C,0.150000*%
%ADD11C,0.300000*%
%ADD12C,0.120000*%
%ADD13C,0.127000*%
%ADD14C,0.200000*%
G04 APERTURE END LIST*
D10*
X208000000Y-88500000D02*
X211000000Y-88500000D01*
X211000000Y-91500000D01*
X208000000Y-91500000D01*
X208000000Y-88500000D01*
G36*
X208000000Y-88500000D02*
G01*
X211000000Y-88500000D01*
X211000000Y-91500000D01*
X208000000Y-91500000D01*
X208000000Y-88500000D01*
G37*
X202500000Y-88750000D02*
X205500000Y-88750000D01*
X205500000Y-91750000D01*
X202500000Y-91750000D01*
X202500000Y-88750000D01*
G36*
X202500000Y-88750000D02*
G01*
X205500000Y-88750000D01*
X205500000Y-91750000D01*
X202500000Y-91750000D01*
X202500000Y-88750000D01*
G37*
X189000000Y-55500000D02*
X194000000Y-55500000D01*
X194000000Y-58500000D01*
X189000000Y-58500000D01*
X189000000Y-55500000D01*
G36*
X189000000Y-55500000D02*
G01*
X194000000Y-55500000D01*
X194000000Y-58500000D01*
X189000000Y-58500000D01*
X189000000Y-55500000D01*
G37*
X208710000Y-48500000D02*
X211710000Y-48500000D01*
X211710000Y-51500000D01*
X208710000Y-51500000D01*
X208710000Y-48500000D01*
G36*
X208710000Y-48500000D02*
G01*
X211710000Y-48500000D01*
X211710000Y-51500000D01*
X208710000Y-51500000D01*
X208710000Y-48500000D01*
G37*
X202750000Y-48500000D02*
X205750000Y-48500000D01*
X205750000Y-51500000D01*
X202750000Y-51500000D01*
X202750000Y-48500000D01*
G36*
X202750000Y-48500000D02*
G01*
X205750000Y-48500000D01*
X205750000Y-51500000D01*
X202750000Y-51500000D01*
X202750000Y-48500000D01*
G37*
X194086779Y-53988866D02*
X194848684Y-53988866D01*
X194467731Y-54369819D02*
X194467731Y-53607914D01*
X195848683Y-54369819D02*
X195277255Y-54369819D01*
X195562969Y-54369819D02*
X195562969Y-53369819D01*
X195562969Y-53369819D02*
X195467731Y-53512676D01*
X195467731Y-53512676D02*
X195372493Y-53607914D01*
X195372493Y-53607914D02*
X195277255Y-53655533D01*
X196229636Y-53465057D02*
X196277255Y-53417438D01*
X196277255Y-53417438D02*
X196372493Y-53369819D01*
X196372493Y-53369819D02*
X196610588Y-53369819D01*
X196610588Y-53369819D02*
X196705826Y-53417438D01*
X196705826Y-53417438D02*
X196753445Y-53465057D01*
X196753445Y-53465057D02*
X196801064Y-53560295D01*
X196801064Y-53560295D02*
X196801064Y-53655533D01*
X196801064Y-53655533D02*
X196753445Y-53798390D01*
X196753445Y-53798390D02*
X196182017Y-54369819D01*
X196182017Y-54369819D02*
X196801064Y-54369819D01*
X201086779Y-93988866D02*
X201848684Y-93988866D01*
X201467731Y-94369819D02*
X201467731Y-93607914D01*
X202848683Y-94369819D02*
X202277255Y-94369819D01*
X202562969Y-94369819D02*
X202562969Y-93369819D01*
X202562969Y-93369819D02*
X202467731Y-93512676D01*
X202467731Y-93512676D02*
X202372493Y-93607914D01*
X202372493Y-93607914D02*
X202277255Y-93655533D01*
X203229636Y-93465057D02*
X203277255Y-93417438D01*
X203277255Y-93417438D02*
X203372493Y-93369819D01*
X203372493Y-93369819D02*
X203610588Y-93369819D01*
X203610588Y-93369819D02*
X203705826Y-93417438D01*
X203705826Y-93417438D02*
X203753445Y-93465057D01*
X203753445Y-93465057D02*
X203801064Y-93560295D01*
X203801064Y-93560295D02*
X203801064Y-93655533D01*
X203801064Y-93655533D02*
X203753445Y-93798390D01*
X203753445Y-93798390D02*
X203182017Y-94369819D01*
X203182017Y-94369819D02*
X203801064Y-94369819D01*
D11*
X199090225Y-89622257D02*
X198947368Y-89550828D01*
X198947368Y-89550828D02*
X198733082Y-89550828D01*
X198733082Y-89550828D02*
X198518796Y-89622257D01*
X198518796Y-89622257D02*
X198375939Y-89765114D01*
X198375939Y-89765114D02*
X198304510Y-89907971D01*
X198304510Y-89907971D02*
X198233082Y-90193685D01*
X198233082Y-90193685D02*
X198233082Y-90407971D01*
X198233082Y-90407971D02*
X198304510Y-90693685D01*
X198304510Y-90693685D02*
X198375939Y-90836542D01*
X198375939Y-90836542D02*
X198518796Y-90979400D01*
X198518796Y-90979400D02*
X198733082Y-91050828D01*
X198733082Y-91050828D02*
X198875939Y-91050828D01*
X198875939Y-91050828D02*
X199090225Y-90979400D01*
X199090225Y-90979400D02*
X199161653Y-90907971D01*
X199161653Y-90907971D02*
X199161653Y-90407971D01*
X199161653Y-90407971D02*
X198875939Y-90407971D01*
X199804510Y-91050828D02*
X199804510Y-89550828D01*
X199804510Y-89550828D02*
X200661653Y-91050828D01*
X200661653Y-91050828D02*
X200661653Y-89550828D01*
X201375939Y-91050828D02*
X201375939Y-89550828D01*
X201375939Y-89550828D02*
X201733082Y-89550828D01*
X201733082Y-89550828D02*
X201947368Y-89622257D01*
X201947368Y-89622257D02*
X202090225Y-89765114D01*
X202090225Y-89765114D02*
X202161654Y-89907971D01*
X202161654Y-89907971D02*
X202233082Y-90193685D01*
X202233082Y-90193685D02*
X202233082Y-90407971D01*
X202233082Y-90407971D02*
X202161654Y-90693685D01*
X202161654Y-90693685D02*
X202090225Y-90836542D01*
X202090225Y-90836542D02*
X201947368Y-90979400D01*
X201947368Y-90979400D02*
X201733082Y-91050828D01*
X201733082Y-91050828D02*
X201375939Y-91050828D01*
X199090225Y-49372257D02*
X198947368Y-49300828D01*
X198947368Y-49300828D02*
X198733082Y-49300828D01*
X198733082Y-49300828D02*
X198518796Y-49372257D01*
X198518796Y-49372257D02*
X198375939Y-49515114D01*
X198375939Y-49515114D02*
X198304510Y-49657971D01*
X198304510Y-49657971D02*
X198233082Y-49943685D01*
X198233082Y-49943685D02*
X198233082Y-50157971D01*
X198233082Y-50157971D02*
X198304510Y-50443685D01*
X198304510Y-50443685D02*
X198375939Y-50586542D01*
X198375939Y-50586542D02*
X198518796Y-50729400D01*
X198518796Y-50729400D02*
X198733082Y-50800828D01*
X198733082Y-50800828D02*
X198875939Y-50800828D01*
X198875939Y-50800828D02*
X199090225Y-50729400D01*
X199090225Y-50729400D02*
X199161653Y-50657971D01*
X199161653Y-50657971D02*
X199161653Y-50157971D01*
X199161653Y-50157971D02*
X198875939Y-50157971D01*
X199804510Y-50800828D02*
X199804510Y-49300828D01*
X199804510Y-49300828D02*
X200661653Y-50800828D01*
X200661653Y-50800828D02*
X200661653Y-49300828D01*
X201375939Y-50800828D02*
X201375939Y-49300828D01*
X201375939Y-49300828D02*
X201733082Y-49300828D01*
X201733082Y-49300828D02*
X201947368Y-49372257D01*
X201947368Y-49372257D02*
X202090225Y-49515114D01*
X202090225Y-49515114D02*
X202161654Y-49657971D01*
X202161654Y-49657971D02*
X202233082Y-49943685D01*
X202233082Y-49943685D02*
X202233082Y-50157971D01*
X202233082Y-50157971D02*
X202161654Y-50443685D01*
X202161654Y-50443685D02*
X202090225Y-50586542D01*
X202090225Y-50586542D02*
X201947368Y-50729400D01*
X201947368Y-50729400D02*
X201733082Y-50800828D01*
X201733082Y-50800828D02*
X201375939Y-50800828D01*
D10*
X189836779Y-61988866D02*
X190598684Y-61988866D01*
X190217731Y-62369819D02*
X190217731Y-61607914D01*
X191598683Y-62369819D02*
X191027255Y-62369819D01*
X191312969Y-62369819D02*
X191312969Y-61369819D01*
X191312969Y-61369819D02*
X191217731Y-61512676D01*
X191217731Y-61512676D02*
X191122493Y-61607914D01*
X191122493Y-61607914D02*
X191027255Y-61655533D01*
X191979636Y-61465057D02*
X192027255Y-61417438D01*
X192027255Y-61417438D02*
X192122493Y-61369819D01*
X192122493Y-61369819D02*
X192360588Y-61369819D01*
X192360588Y-61369819D02*
X192455826Y-61417438D01*
X192455826Y-61417438D02*
X192503445Y-61465057D01*
X192503445Y-61465057D02*
X192551064Y-61560295D01*
X192551064Y-61560295D02*
X192551064Y-61655533D01*
X192551064Y-61655533D02*
X192503445Y-61798390D01*
X192503445Y-61798390D02*
X191932017Y-62369819D01*
X191932017Y-62369819D02*
X192551064Y-62369819D01*
D11*
X190622257Y-53909774D02*
X190550828Y-54052632D01*
X190550828Y-54052632D02*
X190550828Y-54266917D01*
X190550828Y-54266917D02*
X190622257Y-54481203D01*
X190622257Y-54481203D02*
X190765114Y-54624060D01*
X190765114Y-54624060D02*
X190907971Y-54695489D01*
X190907971Y-54695489D02*
X191193685Y-54766917D01*
X191193685Y-54766917D02*
X191407971Y-54766917D01*
X191407971Y-54766917D02*
X191693685Y-54695489D01*
X191693685Y-54695489D02*
X191836542Y-54624060D01*
X191836542Y-54624060D02*
X191979400Y-54481203D01*
X191979400Y-54481203D02*
X192050828Y-54266917D01*
X192050828Y-54266917D02*
X192050828Y-54124060D01*
X192050828Y-54124060D02*
X191979400Y-53909774D01*
X191979400Y-53909774D02*
X191907971Y-53838346D01*
X191907971Y-53838346D02*
X191407971Y-53838346D01*
X191407971Y-53838346D02*
X191407971Y-54124060D01*
X192050828Y-53195489D02*
X190550828Y-53195489D01*
X190550828Y-53195489D02*
X192050828Y-52338346D01*
X192050828Y-52338346D02*
X190550828Y-52338346D01*
X192050828Y-51624060D02*
X190550828Y-51624060D01*
X190550828Y-51624060D02*
X190550828Y-51266917D01*
X190550828Y-51266917D02*
X190622257Y-51052631D01*
X190622257Y-51052631D02*
X190765114Y-50909774D01*
X190765114Y-50909774D02*
X190907971Y-50838345D01*
X190907971Y-50838345D02*
X191193685Y-50766917D01*
X191193685Y-50766917D02*
X191407971Y-50766917D01*
X191407971Y-50766917D02*
X191693685Y-50838345D01*
X191693685Y-50838345D02*
X191836542Y-50909774D01*
X191836542Y-50909774D02*
X191979400Y-51052631D01*
X191979400Y-51052631D02*
X192050828Y-51266917D01*
X192050828Y-51266917D02*
X192050828Y-51624060D01*
D12*
X189945000Y-58270000D02*
X189945000Y-60870000D01*
X189945000Y-58270000D02*
X192605000Y-58270000D01*
X189945000Y-60870000D02*
X192605000Y-60870000D01*
X191275000Y-55670000D02*
X192605000Y-55670000D01*
X192605000Y-55670000D02*
X192605000Y-57000000D01*
X192605000Y-58270000D02*
X192605000Y-60870000D01*
X204210000Y-83000000D02*
X204980000Y-83000000D01*
X204980000Y-81630000D02*
X204980000Y-84370000D01*
X204980000Y-84370000D02*
X211520000Y-84370000D01*
X211520000Y-81630000D02*
X204980000Y-81630000D01*
X211520000Y-84370000D02*
X211520000Y-81630000D01*
X212290000Y-83000000D02*
X211520000Y-83000000D01*
D13*
X205511800Y-90000000D02*
G75*
G02*
X194488200Y-90000000I-5511800J0D01*
G01*
X194488200Y-90000000D02*
G75*
G02*
X205511800Y-90000000I5511800J0D01*
G01*
D14*
X198400000Y-95800000D02*
G75*
G02*
X198200000Y-95800000I-100000J0D01*
G01*
X198200000Y-95800000D02*
G75*
G02*
X198400000Y-95800000I100000J0D01*
G01*
D12*
X197250000Y-63780000D02*
X197250000Y-66430000D01*
X199620000Y-66430000D02*
X194880000Y-66430000D01*
X194880000Y-66430000D02*
X194880000Y-78570000D01*
X199620000Y-78570000D02*
X199620000Y-66430000D01*
X194880000Y-78570000D02*
X199620000Y-78570000D01*
X197250000Y-81220000D02*
X197250000Y-78570000D01*
X193350000Y-63949000D02*
X190150000Y-63949000D01*
X193350000Y-63949000D02*
X193350000Y-65821000D01*
X190150000Y-63949000D02*
X190150000Y-70922000D01*
X193350000Y-67579000D02*
X193350000Y-74550000D01*
X190150000Y-72679000D02*
X190150000Y-74550000D01*
X193350000Y-74550000D02*
X190150000Y-74550000D01*
X208710000Y-88455000D02*
X208710000Y-91545000D01*
X208710000Y-88455170D02*
G75*
G02*
X214260000Y-89999952I2560000J-1544830D01*
G01*
X214260000Y-90000048D02*
G75*
G02*
X208710000Y-91544830I-2990000J48D01*
G01*
X213770000Y-90000000D02*
G75*
G02*
X208770000Y-90000000I-2500000J0D01*
G01*
X208770000Y-90000000D02*
G75*
G02*
X213770000Y-90000000I2500000J0D01*
G01*
X209000000Y-78470000D02*
X209000000Y-75820000D01*
X206630000Y-75820000D02*
X211370000Y-75820000D01*
X211370000Y-75820000D02*
X211370000Y-63680000D01*
X206630000Y-63680000D02*
X206630000Y-75820000D01*
X211370000Y-63680000D02*
X206630000Y-63680000D01*
X209000000Y-61030000D02*
X209000000Y-63680000D01*
D13*
X205511800Y-50000000D02*
G75*
G02*
X194488200Y-50000000I-5511800J0D01*
G01*
X194488200Y-50000000D02*
G75*
G02*
X205511800Y-50000000I5511800J0D01*
G01*
D14*
X198400000Y-55800000D02*
G75*
G02*
X198200000Y-55800000I-100000J0D01*
G01*
X198200000Y-55800000D02*
G75*
G02*
X198400000Y-55800000I100000J0D01*
G01*
D12*
X208710000Y-48455000D02*
X208710000Y-51545000D01*
X208710000Y-48455170D02*
G75*
G02*
X214260000Y-49999952I2560000J-1544830D01*
G01*
X214260000Y-50000048D02*
G75*
G02*
X208710000Y-51544830I-2990000J48D01*
G01*
X213770000Y-50000000D02*
G75*
G02*
X208770000Y-50000000I-2500000J0D01*
G01*
X208770000Y-50000000D02*
G75*
G02*
X213770000Y-50000000I2500000J0D01*
G01*
X204600000Y-60949000D02*
X201400000Y-60949000D01*
X204600000Y-60949000D02*
X204600000Y-62821000D01*
X201400000Y-60949000D02*
X201400000Y-67922000D01*
X204600000Y-64579000D02*
X204600000Y-71550000D01*
X201400000Y-69679000D02*
X201400000Y-71550000D01*
X204600000Y-71550000D02*
X201400000Y-71550000D01*
X204460000Y-56500000D02*
X205230000Y-56500000D01*
X205230000Y-55130000D02*
X205230000Y-57870000D01*
X205230000Y-57870000D02*
X211770000Y-57870000D01*
X211770000Y-55130000D02*
X205230000Y-55130000D01*
X211770000Y-57870000D02*
X211770000Y-55130000D01*
X212540000Y-56500000D02*
X211770000Y-56500000D01*
M02*
