G04 #@! TF.GenerationSoftware,KiCad,Pcbnew,8.0.7*
G04 #@! TF.CreationDate,2025-06-17T21:45:10-04:00*
G04 #@! TF.ProjectId,ESP32_MIDI_Summer25_GTR.kicad_pro,45535033-325f-44d4-9944-495f53756d6d,rev?*
G04 #@! TF.SameCoordinates,Original*
G04 #@! TF.FileFunction,Soldermask,Bot*
G04 #@! TF.FilePolarity,Negative*
%FSLAX46Y46*%
G04 Gerber Fmt 4.6, Leading zero omitted, Abs format (unit mm)*
G04 Created by KiCad (PCBNEW 8.0.7) date 2025-06-17 21:45:10*
%MOMM*%
%LPD*%
G01*
G04 APERTURE LIST*
G04 Aperture macros list*
%AMRoundRect*
0 Rectangle with rounded corners*
0 $1 Rounding radius*
0 $2 $3 $4 $5 $6 $7 $8 $9 X,Y pos of 4 corners*
0 Add a 4 corners polygon primitive as box body*
4,1,4,$2,$3,$4,$5,$6,$7,$8,$9,$2,$3,0*
0 Add four circle primitives for the rounded corners*
1,1,$1+$1,$2,$3*
1,1,$1+$1,$4,$5*
1,1,$1+$1,$6,$7*
1,1,$1+$1,$8,$9*
0 Add four rect primitives between the rounded corners*
20,1,$1+$1,$2,$3,$4,$5,0*
20,1,$1+$1,$4,$5,$6,$7,0*
20,1,$1+$1,$6,$7,$8,$9,0*
20,1,$1+$1,$8,$9,$2,$3,0*%
%AMFreePoly0*
4,1,11,0.558779,3.080902,0.595106,3.030902,0.600000,3.000000,0.600000,-1.000000,-0.600000,-1.000000,-0.600000,3.000000,-0.580902,3.058779,-0.530902,3.095106,-0.500000,3.100000,0.500000,3.100000,0.558779,3.080902,0.558779,3.080902,$1*%
G04 Aperture macros list end*
%ADD10C,3.200000*%
%ADD11C,4.300000*%
%ADD12R,1.800000X1.800000*%
%ADD13C,1.800000*%
%ADD14RoundRect,0.750000X0.750000X-1.250000X0.750000X1.250000X-0.750000X1.250000X-0.750000X-1.250000X0*%
%ADD15O,1.300000X1.050000*%
%ADD16RoundRect,0.249900X0.400100X-0.275100X0.400100X0.275100X-0.400100X0.275100X-0.400100X-0.275100X0*%
%ADD17RoundRect,0.249900X-0.400100X0.275100X-0.400100X-0.275100X0.400100X-0.275100X0.400100X0.275100X0*%
%ADD18C,11.000000*%
%ADD19C,6.800000*%
%ADD20C,1.600000*%
%ADD21C,1.400000*%
%ADD22O,1.400000X1.400000*%
%ADD23FreePoly0,270.000000*%
%ADD24FreePoly0,90.000000*%
%ADD25RoundRect,0.250000X0.600000X-0.600000X0.600000X0.600000X-0.600000X0.600000X-0.600000X-0.600000X0*%
%ADD26C,1.700000*%
G04 APERTURE END LIST*
D10*
X184000000Y-114000000D03*
X154000000Y-114000000D03*
D11*
X222000000Y-114000000D03*
X222000000Y-74000000D03*
X48000000Y-114000000D03*
X48000000Y-74000000D03*
D12*
X56500000Y-112000000D03*
D13*
X59000000Y-112000000D03*
X61500000Y-112000000D03*
D14*
X54600000Y-105000000D03*
X63400000Y-105000000D03*
D10*
X153000000Y-84000000D03*
D15*
X98000000Y-80700000D03*
X98000000Y-82000000D03*
D16*
X98000000Y-83300000D03*
D17*
X208000000Y-80700000D03*
D15*
X208000000Y-82000000D03*
X208000000Y-83300000D03*
D18*
X78000000Y-105000000D03*
D19*
X78000000Y-105000000D03*
D10*
X153000000Y-104000000D03*
D12*
X56500000Y-90000000D03*
D13*
X59000000Y-90000000D03*
X61500000Y-90000000D03*
D14*
X63400000Y-83000000D03*
X54600000Y-82950000D03*
D18*
X78000000Y-83000000D03*
D19*
X78000000Y-83000000D03*
D20*
X209500000Y-86500000D03*
X214500000Y-86500000D03*
D21*
X189310000Y-105500000D03*
D22*
X181690000Y-105500000D03*
D23*
X123000000Y-74000000D03*
X123000000Y-76540000D03*
X123000000Y-79080000D03*
X123000000Y-81620000D03*
X123000000Y-84160000D03*
X123000000Y-86700000D03*
X123000000Y-89240000D03*
X123000000Y-91780000D03*
X123000000Y-94320000D03*
D24*
X107760000Y-94320000D03*
X107760000Y-91780000D03*
X107760000Y-89240000D03*
X107760000Y-86700000D03*
X107760000Y-84160000D03*
X107760000Y-81620000D03*
X107760000Y-79080000D03*
X107760000Y-76540000D03*
X107760000Y-74000000D03*
D20*
X96500000Y-88500000D03*
X91500000Y-88500000D03*
D21*
X189310000Y-108500000D03*
D22*
X181690000Y-108500000D03*
D25*
X174000000Y-108000000D03*
D26*
X174000000Y-105460000D03*
X171460000Y-108000000D03*
X171460000Y-105460000D03*
X168920000Y-108000000D03*
X168920000Y-105460000D03*
X166380000Y-108000000D03*
X166380000Y-105460000D03*
X163840000Y-108000000D03*
X163840000Y-105460000D03*
M02*
