G04 #@! TF.GenerationSoftware,KiCad,Pcbnew,8.0.7*
G04 #@! TF.CreationDate,2025-07-25T20:57:14-04:00*
G04 #@! TF.ProjectId,Sum25_GTR,53756d32-355f-4475-9452-2e6b69636164,rev?*
G04 #@! TF.SameCoordinates,Original*
G04 #@! TF.FileFunction,Legend,Bot*
G04 #@! TF.FilePolarity,Positive*
%FSLAX46Y46*%
G04 Gerber Fmt 4.6, Leading zero omitted, Abs format (unit mm)*
G04 Created by KiCad (PCBNEW 8.0.7) date 2025-07-25 20:57:14*
%MOMM*%
%LPD*%
G01*
G04 APERTURE LIST*
G04 Aperture macros list*
%AMRoundRect*
0 Rectangle with rounded corners*
0 $1 Rounding radius*
0 $2 $3 $4 $5 $6 $7 $8 $9 X,Y pos of 4 corners*
0 Add a 4 corners polygon primitive as box body*
4,1,4,$2,$3,$4,$5,$6,$7,$8,$9,$2,$3,0*
0 Add four circle primitives for the rounded corners*
1,1,$1+$1,$2,$3*
1,1,$1+$1,$4,$5*
1,1,$1+$1,$6,$7*
1,1,$1+$1,$8,$9*
0 Add four rect primitives between the rounded corners*
20,1,$1+$1,$2,$3,$4,$5,0*
20,1,$1+$1,$4,$5,$6,$7,0*
20,1,$1+$1,$6,$7,$8,$9,0*
20,1,$1+$1,$8,$9,$2,$3,0*%
%AMFreePoly0*
4,1,11,0.558779,3.080902,0.595106,3.030902,0.600000,3.000000,0.600000,-1.000000,-0.600000,-1.000000,-0.600000,3.000000,-0.580902,3.058779,-0.530902,3.095106,-0.500000,3.100000,0.500000,3.100000,0.558779,3.080902,0.558779,3.080902,$1*%
G04 Aperture macros list end*
%ADD10C,0.200000*%
%ADD11C,0.150000*%
%ADD12C,0.300000*%
%ADD13C,0.120000*%
%ADD14RoundRect,0.249900X0.400100X-0.275100X0.400100X0.275100X-0.400100X0.275100X-0.400100X-0.275100X0*%
%ADD15O,1.300000X1.050000*%
%ADD16R,1.800000X1.800000*%
%ADD17C,1.800000*%
%ADD18RoundRect,0.750000X0.750000X-1.250000X0.750000X1.250000X-0.750000X1.250000X-0.750000X-1.250000X0*%
%ADD19C,3.200000*%
%ADD20RoundRect,0.249900X-0.400100X0.275100X-0.400100X-0.275100X0.400100X-0.275100X0.400100X0.275100X0*%
%ADD21C,11.000000*%
%ADD22C,6.800000*%
%ADD23C,1.600000*%
%ADD24C,1.400000*%
%ADD25O,1.400000X1.400000*%
%ADD26FreePoly0,270.000000*%
%ADD27FreePoly0,90.000000*%
%ADD28R,1.700000X1.700000*%
%ADD29O,1.700000X1.700000*%
G04 APERTURE END LIST*
D10*
X60500000Y-113730000D02*
X62897000Y-113730000D01*
X62897000Y-116270000D01*
X60500000Y-116270000D01*
X60500000Y-113730000D01*
G36*
X60500000Y-113730000D02*
G01*
X62897000Y-113730000D01*
X62897000Y-116270000D01*
X60500000Y-116270000D01*
X60500000Y-113730000D01*
G37*
X215000000Y-85980000D02*
X217794000Y-85980000D01*
X217794000Y-88020000D01*
X215000000Y-88020000D01*
X215000000Y-85980000D01*
G36*
X215000000Y-85980000D02*
G01*
X217794000Y-85980000D01*
X217794000Y-88020000D01*
X215000000Y-88020000D01*
X215000000Y-85980000D01*
G37*
X91206000Y-98500000D02*
X94000000Y-98500000D01*
X94000000Y-101540000D01*
X91206000Y-101540000D01*
X91206000Y-98500000D01*
G36*
X91206000Y-98500000D02*
G01*
X94000000Y-98500000D01*
X94000000Y-101540000D01*
X91206000Y-101540000D01*
X91206000Y-98500000D01*
G37*
X97000000Y-93480000D02*
X99294000Y-93480000D01*
X99294000Y-94520000D01*
X97000000Y-94520000D01*
X97000000Y-93480000D01*
G36*
X97000000Y-93480000D02*
G01*
X99294000Y-93480000D01*
X99294000Y-94520000D01*
X97000000Y-94520000D01*
X97000000Y-93480000D01*
G37*
X169301500Y-83960000D02*
X171698500Y-83960000D01*
X171698500Y-86000000D01*
X169301500Y-86000000D01*
X169301500Y-83960000D01*
G36*
X169301500Y-83960000D02*
G01*
X171698500Y-83960000D01*
X171698500Y-86000000D01*
X169301500Y-86000000D01*
X169301500Y-83960000D01*
G37*
X206853000Y-93480000D02*
X209147000Y-93480000D01*
X209147000Y-94520000D01*
X206853000Y-94520000D01*
X206853000Y-93480000D01*
G36*
X206853000Y-93480000D02*
G01*
X209147000Y-93480000D01*
X209147000Y-94520000D01*
X206853000Y-94520000D01*
X206853000Y-93480000D01*
G37*
X60500000Y-83730000D02*
X62897000Y-83730000D01*
X62897000Y-86270000D01*
X60500000Y-86270000D01*
X60500000Y-83730000D01*
G36*
X60500000Y-83730000D02*
G01*
X62897000Y-83730000D01*
X62897000Y-86270000D01*
X60500000Y-86270000D01*
X60500000Y-83730000D01*
G37*
D11*
X172869819Y-80741541D02*
X172869819Y-81360588D01*
X172869819Y-81360588D02*
X173250771Y-81027255D01*
X173250771Y-81027255D02*
X173250771Y-81170112D01*
X173250771Y-81170112D02*
X173298390Y-81265350D01*
X173298390Y-81265350D02*
X173346009Y-81312969D01*
X173346009Y-81312969D02*
X173441247Y-81360588D01*
X173441247Y-81360588D02*
X173679342Y-81360588D01*
X173679342Y-81360588D02*
X173774580Y-81312969D01*
X173774580Y-81312969D02*
X173822200Y-81265350D01*
X173822200Y-81265350D02*
X173869819Y-81170112D01*
X173869819Y-81170112D02*
X173869819Y-80884398D01*
X173869819Y-80884398D02*
X173822200Y-80789160D01*
X173822200Y-80789160D02*
X173774580Y-80741541D01*
X173203152Y-81693922D02*
X173869819Y-81932017D01*
X173869819Y-81932017D02*
X173203152Y-82170112D01*
X172869819Y-82455827D02*
X172869819Y-83074874D01*
X172869819Y-83074874D02*
X173250771Y-82741541D01*
X173250771Y-82741541D02*
X173250771Y-82884398D01*
X173250771Y-82884398D02*
X173298390Y-82979636D01*
X173298390Y-82979636D02*
X173346009Y-83027255D01*
X173346009Y-83027255D02*
X173441247Y-83074874D01*
X173441247Y-83074874D02*
X173679342Y-83074874D01*
X173679342Y-83074874D02*
X173774580Y-83027255D01*
X173774580Y-83027255D02*
X173822200Y-82979636D01*
X173822200Y-82979636D02*
X173869819Y-82884398D01*
X173869819Y-82884398D02*
X173869819Y-82598684D01*
X173869819Y-82598684D02*
X173822200Y-82503446D01*
X173822200Y-82503446D02*
X173774580Y-82455827D01*
X218639411Y-88917438D02*
X218734649Y-88869819D01*
X218734649Y-88869819D02*
X218877506Y-88869819D01*
X218877506Y-88869819D02*
X219020363Y-88917438D01*
X219020363Y-88917438D02*
X219115601Y-89012676D01*
X219115601Y-89012676D02*
X219163220Y-89107914D01*
X219163220Y-89107914D02*
X219210839Y-89298390D01*
X219210839Y-89298390D02*
X219210839Y-89441247D01*
X219210839Y-89441247D02*
X219163220Y-89631723D01*
X219163220Y-89631723D02*
X219115601Y-89726961D01*
X219115601Y-89726961D02*
X219020363Y-89822200D01*
X219020363Y-89822200D02*
X218877506Y-89869819D01*
X218877506Y-89869819D02*
X218782268Y-89869819D01*
X218782268Y-89869819D02*
X218639411Y-89822200D01*
X218639411Y-89822200D02*
X218591792Y-89774580D01*
X218591792Y-89774580D02*
X218591792Y-89441247D01*
X218591792Y-89441247D02*
X218782268Y-89441247D01*
X218163220Y-89869819D02*
X218163220Y-88869819D01*
X218163220Y-88869819D02*
X217591792Y-89869819D01*
X217591792Y-89869819D02*
X217591792Y-88869819D01*
X217115601Y-89869819D02*
X217115601Y-88869819D01*
X217115601Y-88869819D02*
X216877506Y-88869819D01*
X216877506Y-88869819D02*
X216734649Y-88917438D01*
X216734649Y-88917438D02*
X216639411Y-89012676D01*
X216639411Y-89012676D02*
X216591792Y-89107914D01*
X216591792Y-89107914D02*
X216544173Y-89298390D01*
X216544173Y-89298390D02*
X216544173Y-89441247D01*
X216544173Y-89441247D02*
X216591792Y-89631723D01*
X216591792Y-89631723D02*
X216639411Y-89726961D01*
X216639411Y-89726961D02*
X216734649Y-89822200D01*
X216734649Y-89822200D02*
X216877506Y-89869819D01*
X216877506Y-89869819D02*
X217115601Y-89869819D01*
X207678839Y-80657057D02*
X207631220Y-80609438D01*
X207631220Y-80609438D02*
X207535982Y-80561819D01*
X207535982Y-80561819D02*
X207297887Y-80561819D01*
X207297887Y-80561819D02*
X207202649Y-80609438D01*
X207202649Y-80609438D02*
X207155030Y-80657057D01*
X207155030Y-80657057D02*
X207107411Y-80752295D01*
X207107411Y-80752295D02*
X207107411Y-80847533D01*
X207107411Y-80847533D02*
X207155030Y-80990390D01*
X207155030Y-80990390D02*
X207726458Y-81561819D01*
X207726458Y-81561819D02*
X207107411Y-81561819D01*
X216789160Y-94677800D02*
X216932017Y-94630180D01*
X216932017Y-94630180D02*
X217170112Y-94630180D01*
X217170112Y-94630180D02*
X217265350Y-94677800D01*
X217265350Y-94677800D02*
X217312969Y-94725419D01*
X217312969Y-94725419D02*
X217360588Y-94820657D01*
X217360588Y-94820657D02*
X217360588Y-94915895D01*
X217360588Y-94915895D02*
X217312969Y-95011133D01*
X217312969Y-95011133D02*
X217265350Y-95058752D01*
X217265350Y-95058752D02*
X217170112Y-95106371D01*
X217170112Y-95106371D02*
X216979636Y-95153990D01*
X216979636Y-95153990D02*
X216884398Y-95201609D01*
X216884398Y-95201609D02*
X216836779Y-95249228D01*
X216836779Y-95249228D02*
X216789160Y-95344466D01*
X216789160Y-95344466D02*
X216789160Y-95439704D01*
X216789160Y-95439704D02*
X216836779Y-95534942D01*
X216836779Y-95534942D02*
X216884398Y-95582561D01*
X216884398Y-95582561D02*
X216979636Y-95630180D01*
X216979636Y-95630180D02*
X217217731Y-95630180D01*
X217217731Y-95630180D02*
X217360588Y-95582561D01*
X218360588Y-94725419D02*
X218312969Y-94677800D01*
X218312969Y-94677800D02*
X218170112Y-94630180D01*
X218170112Y-94630180D02*
X218074874Y-94630180D01*
X218074874Y-94630180D02*
X217932017Y-94677800D01*
X217932017Y-94677800D02*
X217836779Y-94773038D01*
X217836779Y-94773038D02*
X217789160Y-94868276D01*
X217789160Y-94868276D02*
X217741541Y-95058752D01*
X217741541Y-95058752D02*
X217741541Y-95201609D01*
X217741541Y-95201609D02*
X217789160Y-95392085D01*
X217789160Y-95392085D02*
X217836779Y-95487323D01*
X217836779Y-95487323D02*
X217932017Y-95582561D01*
X217932017Y-95582561D02*
X218074874Y-95630180D01*
X218074874Y-95630180D02*
X218170112Y-95630180D01*
X218170112Y-95630180D02*
X218312969Y-95582561D01*
X218312969Y-95582561D02*
X218360588Y-95534942D01*
X219265350Y-94630180D02*
X218789160Y-94630180D01*
X218789160Y-94630180D02*
X218789160Y-95630180D01*
D12*
X143326441Y-105739638D02*
X143326441Y-103739638D01*
X141516917Y-105739638D02*
X141516917Y-104692019D01*
X141516917Y-104692019D02*
X141612155Y-104501542D01*
X141612155Y-104501542D02*
X141802631Y-104406304D01*
X141802631Y-104406304D02*
X142183584Y-104406304D01*
X142183584Y-104406304D02*
X142374060Y-104501542D01*
X141516917Y-105644400D02*
X141707393Y-105739638D01*
X141707393Y-105739638D02*
X142183584Y-105739638D01*
X142183584Y-105739638D02*
X142374060Y-105644400D01*
X142374060Y-105644400D02*
X142469298Y-105453923D01*
X142469298Y-105453923D02*
X142469298Y-105263447D01*
X142469298Y-105263447D02*
X142374060Y-105072971D01*
X142374060Y-105072971D02*
X142183584Y-104977733D01*
X142183584Y-104977733D02*
X141707393Y-104977733D01*
X141707393Y-104977733D02*
X141516917Y-104882495D01*
X140564536Y-104406304D02*
X140564536Y-105739638D01*
X140564536Y-104596780D02*
X140469298Y-104501542D01*
X140469298Y-104501542D02*
X140278822Y-104406304D01*
X140278822Y-104406304D02*
X139993107Y-104406304D01*
X139993107Y-104406304D02*
X139802631Y-104501542D01*
X139802631Y-104501542D02*
X139707393Y-104692019D01*
X139707393Y-104692019D02*
X139707393Y-105739638D01*
X137231202Y-105739638D02*
X137231202Y-103739638D01*
X137231202Y-104692019D02*
X136088345Y-104692019D01*
X136088345Y-105739638D02*
X136088345Y-103739638D01*
X134278821Y-105739638D02*
X134278821Y-104692019D01*
X134278821Y-104692019D02*
X134374059Y-104501542D01*
X134374059Y-104501542D02*
X134564535Y-104406304D01*
X134564535Y-104406304D02*
X134945488Y-104406304D01*
X134945488Y-104406304D02*
X135135964Y-104501542D01*
X134278821Y-105644400D02*
X134469297Y-105739638D01*
X134469297Y-105739638D02*
X134945488Y-105739638D01*
X134945488Y-105739638D02*
X135135964Y-105644400D01*
X135135964Y-105644400D02*
X135231202Y-105453923D01*
X135231202Y-105453923D02*
X135231202Y-105263447D01*
X135231202Y-105263447D02*
X135135964Y-105072971D01*
X135135964Y-105072971D02*
X134945488Y-104977733D01*
X134945488Y-104977733D02*
X134469297Y-104977733D01*
X134469297Y-104977733D02*
X134278821Y-104882495D01*
X133612154Y-104406304D02*
X132850250Y-104406304D01*
X133326440Y-103739638D02*
X133326440Y-105453923D01*
X133326440Y-105453923D02*
X133231202Y-105644400D01*
X133231202Y-105644400D02*
X133040726Y-105739638D01*
X133040726Y-105739638D02*
X132850250Y-105739638D01*
X132469297Y-104406304D02*
X131707393Y-104406304D01*
X132183583Y-103739638D02*
X132183583Y-105453923D01*
X132183583Y-105453923D02*
X132088345Y-105644400D01*
X132088345Y-105644400D02*
X131897869Y-105739638D01*
X131897869Y-105739638D02*
X131707393Y-105739638D01*
X131231202Y-104406304D02*
X130850250Y-105739638D01*
X130850250Y-105739638D02*
X130469297Y-104787257D01*
X130469297Y-104787257D02*
X130088345Y-105739638D01*
X130088345Y-105739638D02*
X129707393Y-104406304D01*
X128945488Y-105739638D02*
X128945488Y-104406304D01*
X128945488Y-103739638D02*
X129040726Y-103834876D01*
X129040726Y-103834876D02*
X128945488Y-103930114D01*
X128945488Y-103930114D02*
X128850250Y-103834876D01*
X128850250Y-103834876D02*
X128945488Y-103739638D01*
X128945488Y-103739638D02*
X128945488Y-103930114D01*
X127135964Y-105644400D02*
X127326440Y-105739638D01*
X127326440Y-105739638D02*
X127707393Y-105739638D01*
X127707393Y-105739638D02*
X127897869Y-105644400D01*
X127897869Y-105644400D02*
X127993107Y-105549161D01*
X127993107Y-105549161D02*
X128088345Y-105358685D01*
X128088345Y-105358685D02*
X128088345Y-104787257D01*
X128088345Y-104787257D02*
X127993107Y-104596780D01*
X127993107Y-104596780D02*
X127897869Y-104501542D01*
X127897869Y-104501542D02*
X127707393Y-104406304D01*
X127707393Y-104406304D02*
X127326440Y-104406304D01*
X127326440Y-104406304D02*
X127135964Y-104501542D01*
X126278821Y-105739638D02*
X126278821Y-103739638D01*
X126088345Y-104977733D02*
X125516916Y-105739638D01*
X125516916Y-104406304D02*
X126278821Y-105168209D01*
X122564534Y-103739638D02*
X122564534Y-105168209D01*
X122564534Y-105168209D02*
X122659773Y-105453923D01*
X122659773Y-105453923D02*
X122850249Y-105644400D01*
X122850249Y-105644400D02*
X123135963Y-105739638D01*
X123135963Y-105739638D02*
X123326439Y-105739638D01*
X120755010Y-104406304D02*
X120755010Y-105739638D01*
X121612153Y-104406304D02*
X121612153Y-105453923D01*
X121612153Y-105453923D02*
X121516915Y-105644400D01*
X121516915Y-105644400D02*
X121326439Y-105739638D01*
X121326439Y-105739638D02*
X121040724Y-105739638D01*
X121040724Y-105739638D02*
X120850248Y-105644400D01*
X120850248Y-105644400D02*
X120755010Y-105549161D01*
X119802629Y-104406304D02*
X119802629Y-105739638D01*
X119802629Y-104596780D02*
X119707391Y-104501542D01*
X119707391Y-104501542D02*
X119516915Y-104406304D01*
X119516915Y-104406304D02*
X119231200Y-104406304D01*
X119231200Y-104406304D02*
X119040724Y-104501542D01*
X119040724Y-104501542D02*
X118945486Y-104692019D01*
X118945486Y-104692019D02*
X118945486Y-105739638D01*
X116374057Y-103739638D02*
X116564533Y-104120590D01*
X115612152Y-103930114D02*
X115516914Y-103834876D01*
X115516914Y-103834876D02*
X115326438Y-103739638D01*
X115326438Y-103739638D02*
X114850247Y-103739638D01*
X114850247Y-103739638D02*
X114659771Y-103834876D01*
X114659771Y-103834876D02*
X114564533Y-103930114D01*
X114564533Y-103930114D02*
X114469295Y-104120590D01*
X114469295Y-104120590D02*
X114469295Y-104311066D01*
X114469295Y-104311066D02*
X114564533Y-104596780D01*
X114564533Y-104596780D02*
X115707390Y-105739638D01*
X115707390Y-105739638D02*
X114469295Y-105739638D01*
X112659771Y-103739638D02*
X113612152Y-103739638D01*
X113612152Y-103739638D02*
X113707390Y-104692019D01*
X113707390Y-104692019D02*
X113612152Y-104596780D01*
X113612152Y-104596780D02*
X113421676Y-104501542D01*
X113421676Y-104501542D02*
X112945485Y-104501542D01*
X112945485Y-104501542D02*
X112755009Y-104596780D01*
X112755009Y-104596780D02*
X112659771Y-104692019D01*
X112659771Y-104692019D02*
X112564533Y-104882495D01*
X112564533Y-104882495D02*
X112564533Y-105358685D01*
X112564533Y-105358685D02*
X112659771Y-105549161D01*
X112659771Y-105549161D02*
X112755009Y-105644400D01*
X112755009Y-105644400D02*
X112945485Y-105739638D01*
X112945485Y-105739638D02*
X113421676Y-105739638D01*
X113421676Y-105739638D02*
X113612152Y-105644400D01*
X113612152Y-105644400D02*
X113707390Y-105549161D01*
D11*
X219258458Y-91869819D02*
X218639411Y-91869819D01*
X218639411Y-91869819D02*
X218972744Y-92250771D01*
X218972744Y-92250771D02*
X218829887Y-92250771D01*
X218829887Y-92250771D02*
X218734649Y-92298390D01*
X218734649Y-92298390D02*
X218687030Y-92346009D01*
X218687030Y-92346009D02*
X218639411Y-92441247D01*
X218639411Y-92441247D02*
X218639411Y-92679342D01*
X218639411Y-92679342D02*
X218687030Y-92774580D01*
X218687030Y-92774580D02*
X218734649Y-92822200D01*
X218734649Y-92822200D02*
X218829887Y-92869819D01*
X218829887Y-92869819D02*
X219115601Y-92869819D01*
X219115601Y-92869819D02*
X219210839Y-92822200D01*
X219210839Y-92822200D02*
X219258458Y-92774580D01*
X218306077Y-92203152D02*
X218067982Y-92869819D01*
X218067982Y-92869819D02*
X217829887Y-92203152D01*
X217544172Y-91869819D02*
X216925125Y-91869819D01*
X216925125Y-91869819D02*
X217258458Y-92250771D01*
X217258458Y-92250771D02*
X217115601Y-92250771D01*
X217115601Y-92250771D02*
X217020363Y-92298390D01*
X217020363Y-92298390D02*
X216972744Y-92346009D01*
X216972744Y-92346009D02*
X216925125Y-92441247D01*
X216925125Y-92441247D02*
X216925125Y-92679342D01*
X216925125Y-92679342D02*
X216972744Y-92774580D01*
X216972744Y-92774580D02*
X217020363Y-92822200D01*
X217020363Y-92822200D02*
X217115601Y-92869819D01*
X217115601Y-92869819D02*
X217401315Y-92869819D01*
X217401315Y-92869819D02*
X217496553Y-92822200D01*
X217496553Y-92822200D02*
X217544172Y-92774580D01*
X182710839Y-74862200D02*
X182567982Y-74909819D01*
X182567982Y-74909819D02*
X182329887Y-74909819D01*
X182329887Y-74909819D02*
X182234649Y-74862200D01*
X182234649Y-74862200D02*
X182187030Y-74814580D01*
X182187030Y-74814580D02*
X182139411Y-74719342D01*
X182139411Y-74719342D02*
X182139411Y-74624104D01*
X182139411Y-74624104D02*
X182187030Y-74528866D01*
X182187030Y-74528866D02*
X182234649Y-74481247D01*
X182234649Y-74481247D02*
X182329887Y-74433628D01*
X182329887Y-74433628D02*
X182520363Y-74386009D01*
X182520363Y-74386009D02*
X182615601Y-74338390D01*
X182615601Y-74338390D02*
X182663220Y-74290771D01*
X182663220Y-74290771D02*
X182710839Y-74195533D01*
X182710839Y-74195533D02*
X182710839Y-74100295D01*
X182710839Y-74100295D02*
X182663220Y-74005057D01*
X182663220Y-74005057D02*
X182615601Y-73957438D01*
X182615601Y-73957438D02*
X182520363Y-73909819D01*
X182520363Y-73909819D02*
X182282268Y-73909819D01*
X182282268Y-73909819D02*
X182139411Y-73957438D01*
X181710839Y-74909819D02*
X181710839Y-73909819D01*
X181710839Y-73909819D02*
X181472744Y-73909819D01*
X181472744Y-73909819D02*
X181329887Y-73957438D01*
X181329887Y-73957438D02*
X181234649Y-74052676D01*
X181234649Y-74052676D02*
X181187030Y-74147914D01*
X181187030Y-74147914D02*
X181139411Y-74338390D01*
X181139411Y-74338390D02*
X181139411Y-74481247D01*
X181139411Y-74481247D02*
X181187030Y-74671723D01*
X181187030Y-74671723D02*
X181234649Y-74766961D01*
X181234649Y-74766961D02*
X181329887Y-74862200D01*
X181329887Y-74862200D02*
X181472744Y-74909819D01*
X181472744Y-74909819D02*
X181710839Y-74909819D01*
X180758458Y-74624104D02*
X180282268Y-74624104D01*
X180853696Y-74909819D02*
X180520363Y-73909819D01*
X180520363Y-73909819D02*
X180187030Y-74909819D01*
X207202649Y-85975152D02*
X207202649Y-86641819D01*
X207440744Y-85594200D02*
X207678839Y-86308485D01*
X207678839Y-86308485D02*
X207059792Y-86308485D01*
D12*
X142421679Y-110144400D02*
X142135965Y-110239638D01*
X142135965Y-110239638D02*
X141659774Y-110239638D01*
X141659774Y-110239638D02*
X141469298Y-110144400D01*
X141469298Y-110144400D02*
X141374060Y-110049161D01*
X141374060Y-110049161D02*
X141278822Y-109858685D01*
X141278822Y-109858685D02*
X141278822Y-109668209D01*
X141278822Y-109668209D02*
X141374060Y-109477733D01*
X141374060Y-109477733D02*
X141469298Y-109382495D01*
X141469298Y-109382495D02*
X141659774Y-109287257D01*
X141659774Y-109287257D02*
X142040727Y-109192019D01*
X142040727Y-109192019D02*
X142231203Y-109096780D01*
X142231203Y-109096780D02*
X142326441Y-109001542D01*
X142326441Y-109001542D02*
X142421679Y-108811066D01*
X142421679Y-108811066D02*
X142421679Y-108620590D01*
X142421679Y-108620590D02*
X142326441Y-108430114D01*
X142326441Y-108430114D02*
X142231203Y-108334876D01*
X142231203Y-108334876D02*
X142040727Y-108239638D01*
X142040727Y-108239638D02*
X141564536Y-108239638D01*
X141564536Y-108239638D02*
X141278822Y-108334876D01*
X140135965Y-110239638D02*
X140326441Y-110144400D01*
X140326441Y-110144400D02*
X140421679Y-110049161D01*
X140421679Y-110049161D02*
X140516917Y-109858685D01*
X140516917Y-109858685D02*
X140516917Y-109287257D01*
X140516917Y-109287257D02*
X140421679Y-109096780D01*
X140421679Y-109096780D02*
X140326441Y-109001542D01*
X140326441Y-109001542D02*
X140135965Y-108906304D01*
X140135965Y-108906304D02*
X139850250Y-108906304D01*
X139850250Y-108906304D02*
X139659774Y-109001542D01*
X139659774Y-109001542D02*
X139564536Y-109096780D01*
X139564536Y-109096780D02*
X139469298Y-109287257D01*
X139469298Y-109287257D02*
X139469298Y-109858685D01*
X139469298Y-109858685D02*
X139564536Y-110049161D01*
X139564536Y-110049161D02*
X139659774Y-110144400D01*
X139659774Y-110144400D02*
X139850250Y-110239638D01*
X139850250Y-110239638D02*
X140135965Y-110239638D01*
X138612155Y-110239638D02*
X138612155Y-108906304D01*
X138612155Y-109096780D02*
X138516917Y-109001542D01*
X138516917Y-109001542D02*
X138326441Y-108906304D01*
X138326441Y-108906304D02*
X138040726Y-108906304D01*
X138040726Y-108906304D02*
X137850250Y-109001542D01*
X137850250Y-109001542D02*
X137755012Y-109192019D01*
X137755012Y-109192019D02*
X137755012Y-110239638D01*
X137755012Y-109192019D02*
X137659774Y-109001542D01*
X137659774Y-109001542D02*
X137469298Y-108906304D01*
X137469298Y-108906304D02*
X137183584Y-108906304D01*
X137183584Y-108906304D02*
X136993107Y-109001542D01*
X136993107Y-109001542D02*
X136897869Y-109192019D01*
X136897869Y-109192019D02*
X136897869Y-110239638D01*
X135183583Y-110144400D02*
X135374059Y-110239638D01*
X135374059Y-110239638D02*
X135755012Y-110239638D01*
X135755012Y-110239638D02*
X135945488Y-110144400D01*
X135945488Y-110144400D02*
X136040726Y-109953923D01*
X136040726Y-109953923D02*
X136040726Y-109192019D01*
X136040726Y-109192019D02*
X135945488Y-109001542D01*
X135945488Y-109001542D02*
X135755012Y-108906304D01*
X135755012Y-108906304D02*
X135374059Y-108906304D01*
X135374059Y-108906304D02*
X135183583Y-109001542D01*
X135183583Y-109001542D02*
X135088345Y-109192019D01*
X135088345Y-109192019D02*
X135088345Y-109382495D01*
X135088345Y-109382495D02*
X136040726Y-109572971D01*
X134231202Y-110239638D02*
X134231202Y-108906304D01*
X134231202Y-109287257D02*
X134135964Y-109096780D01*
X134135964Y-109096780D02*
X134040726Y-109001542D01*
X134040726Y-109001542D02*
X133850250Y-108906304D01*
X133850250Y-108906304D02*
X133659773Y-108906304D01*
X133183583Y-108906304D02*
X132707393Y-110239638D01*
X132707393Y-110239638D02*
X132231202Y-108906304D01*
X131469297Y-110239638D02*
X131469297Y-108906304D01*
X131469297Y-108239638D02*
X131564535Y-108334876D01*
X131564535Y-108334876D02*
X131469297Y-108430114D01*
X131469297Y-108430114D02*
X131374059Y-108334876D01*
X131374059Y-108334876D02*
X131469297Y-108239638D01*
X131469297Y-108239638D02*
X131469297Y-108430114D01*
X130231202Y-110239638D02*
X130421678Y-110144400D01*
X130421678Y-110144400D02*
X130516916Y-109953923D01*
X130516916Y-109953923D02*
X130516916Y-108239638D01*
X129183583Y-110239638D02*
X129374059Y-110144400D01*
X129374059Y-110144400D02*
X129469297Y-109953923D01*
X129469297Y-109953923D02*
X129469297Y-108239638D01*
X127659773Y-110144400D02*
X127850249Y-110239638D01*
X127850249Y-110239638D02*
X128231202Y-110239638D01*
X128231202Y-110239638D02*
X128421678Y-110144400D01*
X128421678Y-110144400D02*
X128516916Y-109953923D01*
X128516916Y-109953923D02*
X128516916Y-109192019D01*
X128516916Y-109192019D02*
X128421678Y-109001542D01*
X128421678Y-109001542D02*
X128231202Y-108906304D01*
X128231202Y-108906304D02*
X127850249Y-108906304D01*
X127850249Y-108906304D02*
X127659773Y-109001542D01*
X127659773Y-109001542D02*
X127564535Y-109192019D01*
X127564535Y-109192019D02*
X127564535Y-109382495D01*
X127564535Y-109382495D02*
X128516916Y-109572971D01*
X126612154Y-110144400D02*
X126612154Y-110239638D01*
X126612154Y-110239638D02*
X126707392Y-110430114D01*
X126707392Y-110430114D02*
X126802630Y-110525352D01*
X124231201Y-110239638D02*
X124231201Y-108239638D01*
X124231201Y-108239638D02*
X123564534Y-109668209D01*
X123564534Y-109668209D02*
X122897868Y-108239638D01*
X122897868Y-108239638D02*
X122897868Y-110239638D01*
X122040725Y-109668209D02*
X121088344Y-109668209D01*
X122231201Y-110239638D02*
X121564535Y-108239638D01*
X121564535Y-108239638D02*
X120897868Y-110239638D01*
D11*
X207726458Y-83101819D02*
X207107411Y-83101819D01*
X207107411Y-83101819D02*
X207440744Y-83482771D01*
X207440744Y-83482771D02*
X207297887Y-83482771D01*
X207297887Y-83482771D02*
X207202649Y-83530390D01*
X207202649Y-83530390D02*
X207155030Y-83578009D01*
X207155030Y-83578009D02*
X207107411Y-83673247D01*
X207107411Y-83673247D02*
X207107411Y-83911342D01*
X207107411Y-83911342D02*
X207155030Y-84006580D01*
X207155030Y-84006580D02*
X207202649Y-84054200D01*
X207202649Y-84054200D02*
X207297887Y-84101819D01*
X207297887Y-84101819D02*
X207583601Y-84101819D01*
X207583601Y-84101819D02*
X207678839Y-84054200D01*
X207678839Y-84054200D02*
X207726458Y-84006580D01*
D12*
X169016917Y-91903685D02*
X168945489Y-91832257D01*
X168945489Y-91832257D02*
X168802632Y-91760828D01*
X168802632Y-91760828D02*
X168445489Y-91760828D01*
X168445489Y-91760828D02*
X168302632Y-91832257D01*
X168302632Y-91832257D02*
X168231203Y-91903685D01*
X168231203Y-91903685D02*
X168159774Y-92046542D01*
X168159774Y-92046542D02*
X168159774Y-92189400D01*
X168159774Y-92189400D02*
X168231203Y-92403685D01*
X168231203Y-92403685D02*
X169088346Y-93260828D01*
X169088346Y-93260828D02*
X168159774Y-93260828D01*
X167516918Y-93117971D02*
X167445489Y-93189400D01*
X167445489Y-93189400D02*
X167516918Y-93260828D01*
X167516918Y-93260828D02*
X167588346Y-93189400D01*
X167588346Y-93189400D02*
X167516918Y-93117971D01*
X167516918Y-93117971D02*
X167516918Y-93260828D01*
X166874060Y-91903685D02*
X166802632Y-91832257D01*
X166802632Y-91832257D02*
X166659775Y-91760828D01*
X166659775Y-91760828D02*
X166302632Y-91760828D01*
X166302632Y-91760828D02*
X166159775Y-91832257D01*
X166159775Y-91832257D02*
X166088346Y-91903685D01*
X166088346Y-91903685D02*
X166016917Y-92046542D01*
X166016917Y-92046542D02*
X166016917Y-92189400D01*
X166016917Y-92189400D02*
X166088346Y-92403685D01*
X166088346Y-92403685D02*
X166945489Y-93260828D01*
X166945489Y-93260828D02*
X166016917Y-93260828D01*
X165374061Y-93260828D02*
X165374061Y-91760828D01*
X165231204Y-92689400D02*
X164802632Y-93260828D01*
X164802632Y-92260828D02*
X165374061Y-92832257D01*
D11*
X209187030Y-70909819D02*
X209663220Y-70909819D01*
X209663220Y-70909819D02*
X209710839Y-71386009D01*
X209710839Y-71386009D02*
X209663220Y-71338390D01*
X209663220Y-71338390D02*
X209567982Y-71290771D01*
X209567982Y-71290771D02*
X209329887Y-71290771D01*
X209329887Y-71290771D02*
X209234649Y-71338390D01*
X209234649Y-71338390D02*
X209187030Y-71386009D01*
X209187030Y-71386009D02*
X209139411Y-71481247D01*
X209139411Y-71481247D02*
X209139411Y-71719342D01*
X209139411Y-71719342D02*
X209187030Y-71814580D01*
X209187030Y-71814580D02*
X209234649Y-71862200D01*
X209234649Y-71862200D02*
X209329887Y-71909819D01*
X209329887Y-71909819D02*
X209567982Y-71909819D01*
X209567982Y-71909819D02*
X209663220Y-71862200D01*
X209663220Y-71862200D02*
X209710839Y-71814580D01*
X208853696Y-70909819D02*
X208520363Y-71909819D01*
X208520363Y-71909819D02*
X208187030Y-70909819D01*
D12*
X97159774Y-102300828D02*
X97016917Y-102300828D01*
X97016917Y-102300828D02*
X96874060Y-102372257D01*
X96874060Y-102372257D02*
X96802632Y-102443685D01*
X96802632Y-102443685D02*
X96731203Y-102586542D01*
X96731203Y-102586542D02*
X96659774Y-102872257D01*
X96659774Y-102872257D02*
X96659774Y-103229400D01*
X96659774Y-103229400D02*
X96731203Y-103515114D01*
X96731203Y-103515114D02*
X96802632Y-103657971D01*
X96802632Y-103657971D02*
X96874060Y-103729400D01*
X96874060Y-103729400D02*
X97016917Y-103800828D01*
X97016917Y-103800828D02*
X97159774Y-103800828D01*
X97159774Y-103800828D02*
X97302632Y-103729400D01*
X97302632Y-103729400D02*
X97374060Y-103657971D01*
X97374060Y-103657971D02*
X97445489Y-103515114D01*
X97445489Y-103515114D02*
X97516917Y-103229400D01*
X97516917Y-103229400D02*
X97516917Y-102872257D01*
X97516917Y-102872257D02*
X97445489Y-102586542D01*
X97445489Y-102586542D02*
X97374060Y-102443685D01*
X97374060Y-102443685D02*
X97302632Y-102372257D01*
X97302632Y-102372257D02*
X97159774Y-102300828D01*
X96016918Y-103657971D02*
X95945489Y-103729400D01*
X95945489Y-103729400D02*
X96016918Y-103800828D01*
X96016918Y-103800828D02*
X96088346Y-103729400D01*
X96088346Y-103729400D02*
X96016918Y-103657971D01*
X96016918Y-103657971D02*
X96016918Y-103800828D01*
X94516917Y-103800828D02*
X95374060Y-103800828D01*
X94945489Y-103800828D02*
X94945489Y-102300828D01*
X94945489Y-102300828D02*
X95088346Y-102515114D01*
X95088346Y-102515114D02*
X95231203Y-102657971D01*
X95231203Y-102657971D02*
X95374060Y-102729400D01*
X93231204Y-102800828D02*
X93231204Y-103800828D01*
X93874061Y-102800828D02*
X93874061Y-103586542D01*
X93874061Y-103586542D02*
X93802632Y-103729400D01*
X93802632Y-103729400D02*
X93659775Y-103800828D01*
X93659775Y-103800828D02*
X93445489Y-103800828D01*
X93445489Y-103800828D02*
X93302632Y-103729400D01*
X93302632Y-103729400D02*
X93231204Y-103657971D01*
X92016918Y-103015114D02*
X92516918Y-103015114D01*
X92516918Y-103800828D02*
X92516918Y-102300828D01*
X92516918Y-102300828D02*
X91802632Y-102300828D01*
D11*
X182139411Y-79989819D02*
X182710839Y-79989819D01*
X182425125Y-79989819D02*
X182425125Y-78989819D01*
X182425125Y-78989819D02*
X182520363Y-79132676D01*
X182520363Y-79132676D02*
X182615601Y-79227914D01*
X182615601Y-79227914D02*
X182710839Y-79275533D01*
X181758458Y-79085057D02*
X181710839Y-79037438D01*
X181710839Y-79037438D02*
X181615601Y-78989819D01*
X181615601Y-78989819D02*
X181377506Y-78989819D01*
X181377506Y-78989819D02*
X181282268Y-79037438D01*
X181282268Y-79037438D02*
X181234649Y-79085057D01*
X181234649Y-79085057D02*
X181187030Y-79180295D01*
X181187030Y-79180295D02*
X181187030Y-79275533D01*
X181187030Y-79275533D02*
X181234649Y-79418390D01*
X181234649Y-79418390D02*
X181806077Y-79989819D01*
X181806077Y-79989819D02*
X181187030Y-79989819D01*
X182147411Y-82529819D02*
X182718839Y-82529819D01*
X182433125Y-82529819D02*
X182433125Y-81529819D01*
X182433125Y-81529819D02*
X182528363Y-81672676D01*
X182528363Y-81672676D02*
X182623601Y-81767914D01*
X182623601Y-81767914D02*
X182718839Y-81815533D01*
X181195030Y-82529819D02*
X181766458Y-82529819D01*
X181480744Y-82529819D02*
X181480744Y-81529819D01*
X181480744Y-81529819D02*
X181575982Y-81672676D01*
X181575982Y-81672676D02*
X181671220Y-81767914D01*
X181671220Y-81767914D02*
X181766458Y-81815533D01*
X209139411Y-73497438D02*
X209234649Y-73449819D01*
X209234649Y-73449819D02*
X209377506Y-73449819D01*
X209377506Y-73449819D02*
X209520363Y-73497438D01*
X209520363Y-73497438D02*
X209615601Y-73592676D01*
X209615601Y-73592676D02*
X209663220Y-73687914D01*
X209663220Y-73687914D02*
X209710839Y-73878390D01*
X209710839Y-73878390D02*
X209710839Y-74021247D01*
X209710839Y-74021247D02*
X209663220Y-74211723D01*
X209663220Y-74211723D02*
X209615601Y-74306961D01*
X209615601Y-74306961D02*
X209520363Y-74402200D01*
X209520363Y-74402200D02*
X209377506Y-74449819D01*
X209377506Y-74449819D02*
X209282268Y-74449819D01*
X209282268Y-74449819D02*
X209139411Y-74402200D01*
X209139411Y-74402200D02*
X209091792Y-74354580D01*
X209091792Y-74354580D02*
X209091792Y-74021247D01*
X209091792Y-74021247D02*
X209282268Y-74021247D01*
X208663220Y-74449819D02*
X208663220Y-73449819D01*
X208663220Y-73449819D02*
X208091792Y-74449819D01*
X208091792Y-74449819D02*
X208091792Y-73449819D01*
X207615601Y-74449819D02*
X207615601Y-73449819D01*
X207615601Y-73449819D02*
X207377506Y-73449819D01*
X207377506Y-73449819D02*
X207234649Y-73497438D01*
X207234649Y-73497438D02*
X207139411Y-73592676D01*
X207139411Y-73592676D02*
X207091792Y-73687914D01*
X207091792Y-73687914D02*
X207044173Y-73878390D01*
X207044173Y-73878390D02*
X207044173Y-74021247D01*
X207044173Y-74021247D02*
X207091792Y-74211723D01*
X207091792Y-74211723D02*
X207139411Y-74306961D01*
X207139411Y-74306961D02*
X207234649Y-74402200D01*
X207234649Y-74402200D02*
X207377506Y-74449819D01*
X207377506Y-74449819D02*
X207615601Y-74449819D01*
X182139411Y-77449819D02*
X182710839Y-77449819D01*
X182425125Y-77449819D02*
X182425125Y-76449819D01*
X182425125Y-76449819D02*
X182520363Y-76592676D01*
X182520363Y-76592676D02*
X182615601Y-76687914D01*
X182615601Y-76687914D02*
X182710839Y-76735533D01*
X181806077Y-76449819D02*
X181187030Y-76449819D01*
X181187030Y-76449819D02*
X181520363Y-76830771D01*
X181520363Y-76830771D02*
X181377506Y-76830771D01*
X181377506Y-76830771D02*
X181282268Y-76878390D01*
X181282268Y-76878390D02*
X181234649Y-76926009D01*
X181234649Y-76926009D02*
X181187030Y-77021247D01*
X181187030Y-77021247D02*
X181187030Y-77259342D01*
X181187030Y-77259342D02*
X181234649Y-77354580D01*
X181234649Y-77354580D02*
X181282268Y-77402200D01*
X181282268Y-77402200D02*
X181377506Y-77449819D01*
X181377506Y-77449819D02*
X181663220Y-77449819D01*
X181663220Y-77449819D02*
X181758458Y-77402200D01*
X181758458Y-77402200D02*
X181806077Y-77354580D01*
X209758458Y-75989819D02*
X209139411Y-75989819D01*
X209139411Y-75989819D02*
X209472744Y-76370771D01*
X209472744Y-76370771D02*
X209329887Y-76370771D01*
X209329887Y-76370771D02*
X209234649Y-76418390D01*
X209234649Y-76418390D02*
X209187030Y-76466009D01*
X209187030Y-76466009D02*
X209139411Y-76561247D01*
X209139411Y-76561247D02*
X209139411Y-76799342D01*
X209139411Y-76799342D02*
X209187030Y-76894580D01*
X209187030Y-76894580D02*
X209234649Y-76942200D01*
X209234649Y-76942200D02*
X209329887Y-76989819D01*
X209329887Y-76989819D02*
X209615601Y-76989819D01*
X209615601Y-76989819D02*
X209710839Y-76942200D01*
X209710839Y-76942200D02*
X209758458Y-76894580D01*
X208710839Y-76894580D02*
X208663220Y-76942200D01*
X208663220Y-76942200D02*
X208710839Y-76989819D01*
X208710839Y-76989819D02*
X208758458Y-76942200D01*
X208758458Y-76942200D02*
X208710839Y-76894580D01*
X208710839Y-76894580D02*
X208710839Y-76989819D01*
X208329887Y-75989819D02*
X207710840Y-75989819D01*
X207710840Y-75989819D02*
X208044173Y-76370771D01*
X208044173Y-76370771D02*
X207901316Y-76370771D01*
X207901316Y-76370771D02*
X207806078Y-76418390D01*
X207806078Y-76418390D02*
X207758459Y-76466009D01*
X207758459Y-76466009D02*
X207710840Y-76561247D01*
X207710840Y-76561247D02*
X207710840Y-76799342D01*
X207710840Y-76799342D02*
X207758459Y-76894580D01*
X207758459Y-76894580D02*
X207806078Y-76942200D01*
X207806078Y-76942200D02*
X207901316Y-76989819D01*
X207901316Y-76989819D02*
X208187030Y-76989819D01*
X208187030Y-76989819D02*
X208282268Y-76942200D01*
X208282268Y-76942200D02*
X208329887Y-76894580D01*
X207377506Y-76323152D02*
X207139411Y-76989819D01*
X207139411Y-76989819D02*
X206901316Y-76323152D01*
X169917438Y-81360588D02*
X169869819Y-81265350D01*
X169869819Y-81265350D02*
X169869819Y-81122493D01*
X169869819Y-81122493D02*
X169917438Y-80979636D01*
X169917438Y-80979636D02*
X170012676Y-80884398D01*
X170012676Y-80884398D02*
X170107914Y-80836779D01*
X170107914Y-80836779D02*
X170298390Y-80789160D01*
X170298390Y-80789160D02*
X170441247Y-80789160D01*
X170441247Y-80789160D02*
X170631723Y-80836779D01*
X170631723Y-80836779D02*
X170726961Y-80884398D01*
X170726961Y-80884398D02*
X170822200Y-80979636D01*
X170822200Y-80979636D02*
X170869819Y-81122493D01*
X170869819Y-81122493D02*
X170869819Y-81217731D01*
X170869819Y-81217731D02*
X170822200Y-81360588D01*
X170822200Y-81360588D02*
X170774580Y-81408207D01*
X170774580Y-81408207D02*
X170441247Y-81408207D01*
X170441247Y-81408207D02*
X170441247Y-81217731D01*
X170869819Y-81836779D02*
X169869819Y-81836779D01*
X169869819Y-81836779D02*
X170869819Y-82408207D01*
X170869819Y-82408207D02*
X169869819Y-82408207D01*
X170869819Y-82884398D02*
X169869819Y-82884398D01*
X169869819Y-82884398D02*
X169869819Y-83122493D01*
X169869819Y-83122493D02*
X169917438Y-83265350D01*
X169917438Y-83265350D02*
X170012676Y-83360588D01*
X170012676Y-83360588D02*
X170107914Y-83408207D01*
X170107914Y-83408207D02*
X170298390Y-83455826D01*
X170298390Y-83455826D02*
X170441247Y-83455826D01*
X170441247Y-83455826D02*
X170631723Y-83408207D01*
X170631723Y-83408207D02*
X170726961Y-83360588D01*
X170726961Y-83360588D02*
X170822200Y-83265350D01*
X170822200Y-83265350D02*
X170869819Y-83122493D01*
X170869819Y-83122493D02*
X170869819Y-82884398D01*
X182710839Y-72322200D02*
X182567982Y-72369819D01*
X182567982Y-72369819D02*
X182329887Y-72369819D01*
X182329887Y-72369819D02*
X182234649Y-72322200D01*
X182234649Y-72322200D02*
X182187030Y-72274580D01*
X182187030Y-72274580D02*
X182139411Y-72179342D01*
X182139411Y-72179342D02*
X182139411Y-72084104D01*
X182139411Y-72084104D02*
X182187030Y-71988866D01*
X182187030Y-71988866D02*
X182234649Y-71941247D01*
X182234649Y-71941247D02*
X182329887Y-71893628D01*
X182329887Y-71893628D02*
X182520363Y-71846009D01*
X182520363Y-71846009D02*
X182615601Y-71798390D01*
X182615601Y-71798390D02*
X182663220Y-71750771D01*
X182663220Y-71750771D02*
X182710839Y-71655533D01*
X182710839Y-71655533D02*
X182710839Y-71560295D01*
X182710839Y-71560295D02*
X182663220Y-71465057D01*
X182663220Y-71465057D02*
X182615601Y-71417438D01*
X182615601Y-71417438D02*
X182520363Y-71369819D01*
X182520363Y-71369819D02*
X182282268Y-71369819D01*
X182282268Y-71369819D02*
X182139411Y-71417438D01*
X181139411Y-72274580D02*
X181187030Y-72322200D01*
X181187030Y-72322200D02*
X181329887Y-72369819D01*
X181329887Y-72369819D02*
X181425125Y-72369819D01*
X181425125Y-72369819D02*
X181567982Y-72322200D01*
X181567982Y-72322200D02*
X181663220Y-72226961D01*
X181663220Y-72226961D02*
X181710839Y-72131723D01*
X181710839Y-72131723D02*
X181758458Y-71941247D01*
X181758458Y-71941247D02*
X181758458Y-71798390D01*
X181758458Y-71798390D02*
X181710839Y-71607914D01*
X181710839Y-71607914D02*
X181663220Y-71512676D01*
X181663220Y-71512676D02*
X181567982Y-71417438D01*
X181567982Y-71417438D02*
X181425125Y-71369819D01*
X181425125Y-71369819D02*
X181329887Y-71369819D01*
X181329887Y-71369819D02*
X181187030Y-71417438D01*
X181187030Y-71417438D02*
X181139411Y-71465057D01*
X180234649Y-72369819D02*
X180710839Y-72369819D01*
X180710839Y-72369819D02*
X180710839Y-71369819D01*
D12*
X141883584Y-114649161D02*
X141978822Y-114744400D01*
X141978822Y-114744400D02*
X142264536Y-114839638D01*
X142264536Y-114839638D02*
X142455012Y-114839638D01*
X142455012Y-114839638D02*
X142740727Y-114744400D01*
X142740727Y-114744400D02*
X142931203Y-114553923D01*
X142931203Y-114553923D02*
X143026441Y-114363447D01*
X143026441Y-114363447D02*
X143121679Y-113982495D01*
X143121679Y-113982495D02*
X143121679Y-113696780D01*
X143121679Y-113696780D02*
X143026441Y-113315828D01*
X143026441Y-113315828D02*
X142931203Y-113125352D01*
X142931203Y-113125352D02*
X142740727Y-112934876D01*
X142740727Y-112934876D02*
X142455012Y-112839638D01*
X142455012Y-112839638D02*
X142264536Y-112839638D01*
X142264536Y-112839638D02*
X141978822Y-112934876D01*
X141978822Y-112934876D02*
X141883584Y-113030114D01*
X141026441Y-114839638D02*
X141026441Y-113506304D01*
X141026441Y-113887257D02*
X140931203Y-113696780D01*
X140931203Y-113696780D02*
X140835965Y-113601542D01*
X140835965Y-113601542D02*
X140645489Y-113506304D01*
X140645489Y-113506304D02*
X140455012Y-113506304D01*
X139026441Y-114744400D02*
X139216917Y-114839638D01*
X139216917Y-114839638D02*
X139597870Y-114839638D01*
X139597870Y-114839638D02*
X139788346Y-114744400D01*
X139788346Y-114744400D02*
X139883584Y-114553923D01*
X139883584Y-114553923D02*
X139883584Y-113792019D01*
X139883584Y-113792019D02*
X139788346Y-113601542D01*
X139788346Y-113601542D02*
X139597870Y-113506304D01*
X139597870Y-113506304D02*
X139216917Y-113506304D01*
X139216917Y-113506304D02*
X139026441Y-113601542D01*
X139026441Y-113601542D02*
X138931203Y-113792019D01*
X138931203Y-113792019D02*
X138931203Y-113982495D01*
X138931203Y-113982495D02*
X139883584Y-114172971D01*
X137216917Y-114839638D02*
X137216917Y-113792019D01*
X137216917Y-113792019D02*
X137312155Y-113601542D01*
X137312155Y-113601542D02*
X137502631Y-113506304D01*
X137502631Y-113506304D02*
X137883584Y-113506304D01*
X137883584Y-113506304D02*
X138074060Y-113601542D01*
X137216917Y-114744400D02*
X137407393Y-114839638D01*
X137407393Y-114839638D02*
X137883584Y-114839638D01*
X137883584Y-114839638D02*
X138074060Y-114744400D01*
X138074060Y-114744400D02*
X138169298Y-114553923D01*
X138169298Y-114553923D02*
X138169298Y-114363447D01*
X138169298Y-114363447D02*
X138074060Y-114172971D01*
X138074060Y-114172971D02*
X137883584Y-114077733D01*
X137883584Y-114077733D02*
X137407393Y-114077733D01*
X137407393Y-114077733D02*
X137216917Y-113982495D01*
X136550250Y-113506304D02*
X135788346Y-113506304D01*
X136264536Y-112839638D02*
X136264536Y-114553923D01*
X136264536Y-114553923D02*
X136169298Y-114744400D01*
X136169298Y-114744400D02*
X135978822Y-114839638D01*
X135978822Y-114839638D02*
X135788346Y-114839638D01*
X135121679Y-114839638D02*
X135121679Y-113506304D01*
X135121679Y-112839638D02*
X135216917Y-112934876D01*
X135216917Y-112934876D02*
X135121679Y-113030114D01*
X135121679Y-113030114D02*
X135026441Y-112934876D01*
X135026441Y-112934876D02*
X135121679Y-112839638D01*
X135121679Y-112839638D02*
X135121679Y-113030114D01*
X134359774Y-113506304D02*
X133883584Y-114839638D01*
X133883584Y-114839638D02*
X133407393Y-113506304D01*
X132645488Y-114839638D02*
X132645488Y-113506304D01*
X132645488Y-112839638D02*
X132740726Y-112934876D01*
X132740726Y-112934876D02*
X132645488Y-113030114D01*
X132645488Y-113030114D02*
X132550250Y-112934876D01*
X132550250Y-112934876D02*
X132645488Y-112839638D01*
X132645488Y-112839638D02*
X132645488Y-113030114D01*
X131978821Y-113506304D02*
X131216917Y-113506304D01*
X131693107Y-112839638D02*
X131693107Y-114553923D01*
X131693107Y-114553923D02*
X131597869Y-114744400D01*
X131597869Y-114744400D02*
X131407393Y-114839638D01*
X131407393Y-114839638D02*
X131216917Y-114839638D01*
X129693107Y-114839638D02*
X129693107Y-113792019D01*
X129693107Y-113792019D02*
X129788345Y-113601542D01*
X129788345Y-113601542D02*
X129978821Y-113506304D01*
X129978821Y-113506304D02*
X130359774Y-113506304D01*
X130359774Y-113506304D02*
X130550250Y-113601542D01*
X129693107Y-114744400D02*
X129883583Y-114839638D01*
X129883583Y-114839638D02*
X130359774Y-114839638D01*
X130359774Y-114839638D02*
X130550250Y-114744400D01*
X130550250Y-114744400D02*
X130645488Y-114553923D01*
X130645488Y-114553923D02*
X130645488Y-114363447D01*
X130645488Y-114363447D02*
X130550250Y-114172971D01*
X130550250Y-114172971D02*
X130359774Y-114077733D01*
X130359774Y-114077733D02*
X129883583Y-114077733D01*
X129883583Y-114077733D02*
X129693107Y-113982495D01*
X128835964Y-114744400D02*
X128645488Y-114839638D01*
X128645488Y-114839638D02*
X128264536Y-114839638D01*
X128264536Y-114839638D02*
X128074059Y-114744400D01*
X128074059Y-114744400D02*
X127978821Y-114553923D01*
X127978821Y-114553923D02*
X127978821Y-114458685D01*
X127978821Y-114458685D02*
X128074059Y-114268209D01*
X128074059Y-114268209D02*
X128264536Y-114172971D01*
X128264536Y-114172971D02*
X128550250Y-114172971D01*
X128550250Y-114172971D02*
X128740726Y-114077733D01*
X128740726Y-114077733D02*
X128835964Y-113887257D01*
X128835964Y-113887257D02*
X128835964Y-113792019D01*
X128835964Y-113792019D02*
X128740726Y-113601542D01*
X128740726Y-113601542D02*
X128550250Y-113506304D01*
X128550250Y-113506304D02*
X128264536Y-113506304D01*
X128264536Y-113506304D02*
X128074059Y-113601542D01*
X124931201Y-113792019D02*
X124645487Y-113887257D01*
X124645487Y-113887257D02*
X124550249Y-113982495D01*
X124550249Y-113982495D02*
X124455011Y-114172971D01*
X124455011Y-114172971D02*
X124455011Y-114458685D01*
X124455011Y-114458685D02*
X124550249Y-114649161D01*
X124550249Y-114649161D02*
X124645487Y-114744400D01*
X124645487Y-114744400D02*
X124835963Y-114839638D01*
X124835963Y-114839638D02*
X125597868Y-114839638D01*
X125597868Y-114839638D02*
X125597868Y-112839638D01*
X125597868Y-112839638D02*
X124931201Y-112839638D01*
X124931201Y-112839638D02*
X124740725Y-112934876D01*
X124740725Y-112934876D02*
X124645487Y-113030114D01*
X124645487Y-113030114D02*
X124550249Y-113220590D01*
X124550249Y-113220590D02*
X124550249Y-113411066D01*
X124550249Y-113411066D02*
X124645487Y-113601542D01*
X124645487Y-113601542D02*
X124740725Y-113696780D01*
X124740725Y-113696780D02*
X124931201Y-113792019D01*
X124931201Y-113792019D02*
X125597868Y-113792019D01*
X122740725Y-114839638D02*
X122740725Y-113792019D01*
X122740725Y-113792019D02*
X122835963Y-113601542D01*
X122835963Y-113601542D02*
X123026439Y-113506304D01*
X123026439Y-113506304D02*
X123407392Y-113506304D01*
X123407392Y-113506304D02*
X123597868Y-113601542D01*
X122740725Y-114744400D02*
X122931201Y-114839638D01*
X122931201Y-114839638D02*
X123407392Y-114839638D01*
X123407392Y-114839638D02*
X123597868Y-114744400D01*
X123597868Y-114744400D02*
X123693106Y-114553923D01*
X123693106Y-114553923D02*
X123693106Y-114363447D01*
X123693106Y-114363447D02*
X123597868Y-114172971D01*
X123597868Y-114172971D02*
X123407392Y-114077733D01*
X123407392Y-114077733D02*
X122931201Y-114077733D01*
X122931201Y-114077733D02*
X122740725Y-113982495D01*
X121788344Y-114839638D02*
X121788344Y-113506304D01*
X121788344Y-113887257D02*
X121693106Y-113696780D01*
X121693106Y-113696780D02*
X121597868Y-113601542D01*
X121597868Y-113601542D02*
X121407392Y-113506304D01*
X121407392Y-113506304D02*
X121216915Y-113506304D01*
X120550249Y-114839638D02*
X120550249Y-113506304D01*
X120550249Y-113887257D02*
X120455011Y-113696780D01*
X120455011Y-113696780D02*
X120359773Y-113601542D01*
X120359773Y-113601542D02*
X120169297Y-113506304D01*
X120169297Y-113506304D02*
X119978820Y-113506304D01*
X118550249Y-114744400D02*
X118740725Y-114839638D01*
X118740725Y-114839638D02*
X119121678Y-114839638D01*
X119121678Y-114839638D02*
X119312154Y-114744400D01*
X119312154Y-114744400D02*
X119407392Y-114553923D01*
X119407392Y-114553923D02*
X119407392Y-113792019D01*
X119407392Y-113792019D02*
X119312154Y-113601542D01*
X119312154Y-113601542D02*
X119121678Y-113506304D01*
X119121678Y-113506304D02*
X118740725Y-113506304D01*
X118740725Y-113506304D02*
X118550249Y-113601542D01*
X118550249Y-113601542D02*
X118455011Y-113792019D01*
X118455011Y-113792019D02*
X118455011Y-113982495D01*
X118455011Y-113982495D02*
X119407392Y-114172971D01*
X116264534Y-113506304D02*
X115788344Y-114839638D01*
X115788344Y-114839638D02*
X115312153Y-113506304D01*
X114645486Y-113030114D02*
X114550248Y-112934876D01*
X114550248Y-112934876D02*
X114359772Y-112839638D01*
X114359772Y-112839638D02*
X113883581Y-112839638D01*
X113883581Y-112839638D02*
X113693105Y-112934876D01*
X113693105Y-112934876D02*
X113597867Y-113030114D01*
X113597867Y-113030114D02*
X113502629Y-113220590D01*
X113502629Y-113220590D02*
X113502629Y-113411066D01*
X113502629Y-113411066D02*
X113597867Y-113696780D01*
X113597867Y-113696780D02*
X114740724Y-114839638D01*
X114740724Y-114839638D02*
X113502629Y-114839638D01*
D11*
X207107411Y-79529819D02*
X207678839Y-79529819D01*
X207393125Y-79529819D02*
X207393125Y-78529819D01*
X207393125Y-78529819D02*
X207488363Y-78672676D01*
X207488363Y-78672676D02*
X207583601Y-78767914D01*
X207583601Y-78767914D02*
X207678839Y-78815533D01*
X175677800Y-83210839D02*
X175630180Y-83067982D01*
X175630180Y-83067982D02*
X175630180Y-82829887D01*
X175630180Y-82829887D02*
X175677800Y-82734649D01*
X175677800Y-82734649D02*
X175725419Y-82687030D01*
X175725419Y-82687030D02*
X175820657Y-82639411D01*
X175820657Y-82639411D02*
X175915895Y-82639411D01*
X175915895Y-82639411D02*
X176011133Y-82687030D01*
X176011133Y-82687030D02*
X176058752Y-82734649D01*
X176058752Y-82734649D02*
X176106371Y-82829887D01*
X176106371Y-82829887D02*
X176153990Y-83020363D01*
X176153990Y-83020363D02*
X176201609Y-83115601D01*
X176201609Y-83115601D02*
X176249228Y-83163220D01*
X176249228Y-83163220D02*
X176344466Y-83210839D01*
X176344466Y-83210839D02*
X176439704Y-83210839D01*
X176439704Y-83210839D02*
X176534942Y-83163220D01*
X176534942Y-83163220D02*
X176582561Y-83115601D01*
X176582561Y-83115601D02*
X176630180Y-83020363D01*
X176630180Y-83020363D02*
X176630180Y-82782268D01*
X176630180Y-82782268D02*
X176582561Y-82639411D01*
X175725419Y-81639411D02*
X175677800Y-81687030D01*
X175677800Y-81687030D02*
X175630180Y-81829887D01*
X175630180Y-81829887D02*
X175630180Y-81925125D01*
X175630180Y-81925125D02*
X175677800Y-82067982D01*
X175677800Y-82067982D02*
X175773038Y-82163220D01*
X175773038Y-82163220D02*
X175868276Y-82210839D01*
X175868276Y-82210839D02*
X176058752Y-82258458D01*
X176058752Y-82258458D02*
X176201609Y-82258458D01*
X176201609Y-82258458D02*
X176392085Y-82210839D01*
X176392085Y-82210839D02*
X176487323Y-82163220D01*
X176487323Y-82163220D02*
X176582561Y-82067982D01*
X176582561Y-82067982D02*
X176630180Y-81925125D01*
X176630180Y-81925125D02*
X176630180Y-81829887D01*
X176630180Y-81829887D02*
X176582561Y-81687030D01*
X176582561Y-81687030D02*
X176534942Y-81639411D01*
X175630180Y-80734649D02*
X175630180Y-81210839D01*
X175630180Y-81210839D02*
X176630180Y-81210839D01*
D12*
X168516917Y-89403685D02*
X168445489Y-89332257D01*
X168445489Y-89332257D02*
X168302632Y-89260828D01*
X168302632Y-89260828D02*
X167945489Y-89260828D01*
X167945489Y-89260828D02*
X167802632Y-89332257D01*
X167802632Y-89332257D02*
X167731203Y-89403685D01*
X167731203Y-89403685D02*
X167659774Y-89546542D01*
X167659774Y-89546542D02*
X167659774Y-89689400D01*
X167659774Y-89689400D02*
X167731203Y-89903685D01*
X167731203Y-89903685D02*
X168588346Y-90760828D01*
X168588346Y-90760828D02*
X167659774Y-90760828D01*
X167016918Y-90617971D02*
X166945489Y-90689400D01*
X166945489Y-90689400D02*
X167016918Y-90760828D01*
X167016918Y-90760828D02*
X167088346Y-90689400D01*
X167088346Y-90689400D02*
X167016918Y-90617971D01*
X167016918Y-90617971D02*
X167016918Y-90760828D01*
X166374060Y-89403685D02*
X166302632Y-89332257D01*
X166302632Y-89332257D02*
X166159775Y-89260828D01*
X166159775Y-89260828D02*
X165802632Y-89260828D01*
X165802632Y-89260828D02*
X165659775Y-89332257D01*
X165659775Y-89332257D02*
X165588346Y-89403685D01*
X165588346Y-89403685D02*
X165516917Y-89546542D01*
X165516917Y-89546542D02*
X165516917Y-89689400D01*
X165516917Y-89689400D02*
X165588346Y-89903685D01*
X165588346Y-89903685D02*
X166445489Y-90760828D01*
X166445489Y-90760828D02*
X165516917Y-90760828D01*
X164874061Y-90760828D02*
X164874061Y-89260828D01*
X164731204Y-90189400D02*
X164302632Y-90760828D01*
X164302632Y-89760828D02*
X164874061Y-90332257D01*
D11*
X182147411Y-85069819D02*
X182718839Y-85069819D01*
X182433125Y-85069819D02*
X182433125Y-84069819D01*
X182433125Y-84069819D02*
X182528363Y-84212676D01*
X182528363Y-84212676D02*
X182623601Y-84307914D01*
X182623601Y-84307914D02*
X182718839Y-84355533D01*
X181528363Y-84069819D02*
X181433125Y-84069819D01*
X181433125Y-84069819D02*
X181337887Y-84117438D01*
X181337887Y-84117438D02*
X181290268Y-84165057D01*
X181290268Y-84165057D02*
X181242649Y-84260295D01*
X181242649Y-84260295D02*
X181195030Y-84450771D01*
X181195030Y-84450771D02*
X181195030Y-84688866D01*
X181195030Y-84688866D02*
X181242649Y-84879342D01*
X181242649Y-84879342D02*
X181290268Y-84974580D01*
X181290268Y-84974580D02*
X181337887Y-85022200D01*
X181337887Y-85022200D02*
X181433125Y-85069819D01*
X181433125Y-85069819D02*
X181528363Y-85069819D01*
X181528363Y-85069819D02*
X181623601Y-85022200D01*
X181623601Y-85022200D02*
X181671220Y-84974580D01*
X181671220Y-84974580D02*
X181718839Y-84879342D01*
X181718839Y-84879342D02*
X181766458Y-84688866D01*
X181766458Y-84688866D02*
X181766458Y-84450771D01*
X181766458Y-84450771D02*
X181718839Y-84260295D01*
X181718839Y-84260295D02*
X181671220Y-84165057D01*
X181671220Y-84165057D02*
X181623601Y-84117438D01*
X181623601Y-84117438D02*
X181528363Y-84069819D01*
X182623601Y-87609819D02*
X182433125Y-87609819D01*
X182433125Y-87609819D02*
X182337887Y-87562200D01*
X182337887Y-87562200D02*
X182290268Y-87514580D01*
X182290268Y-87514580D02*
X182195030Y-87371723D01*
X182195030Y-87371723D02*
X182147411Y-87181247D01*
X182147411Y-87181247D02*
X182147411Y-86800295D01*
X182147411Y-86800295D02*
X182195030Y-86705057D01*
X182195030Y-86705057D02*
X182242649Y-86657438D01*
X182242649Y-86657438D02*
X182337887Y-86609819D01*
X182337887Y-86609819D02*
X182528363Y-86609819D01*
X182528363Y-86609819D02*
X182623601Y-86657438D01*
X182623601Y-86657438D02*
X182671220Y-86705057D01*
X182671220Y-86705057D02*
X182718839Y-86800295D01*
X182718839Y-86800295D02*
X182718839Y-87038390D01*
X182718839Y-87038390D02*
X182671220Y-87133628D01*
X182671220Y-87133628D02*
X182623601Y-87181247D01*
X182623601Y-87181247D02*
X182528363Y-87228866D01*
X182528363Y-87228866D02*
X182337887Y-87228866D01*
X182337887Y-87228866D02*
X182242649Y-87181247D01*
X182242649Y-87181247D02*
X182195030Y-87133628D01*
X182195030Y-87133628D02*
X182147411Y-87038390D01*
X182528363Y-89578390D02*
X182623601Y-89530771D01*
X182623601Y-89530771D02*
X182671220Y-89483152D01*
X182671220Y-89483152D02*
X182718839Y-89387914D01*
X182718839Y-89387914D02*
X182718839Y-89340295D01*
X182718839Y-89340295D02*
X182671220Y-89245057D01*
X182671220Y-89245057D02*
X182623601Y-89197438D01*
X182623601Y-89197438D02*
X182528363Y-89149819D01*
X182528363Y-89149819D02*
X182337887Y-89149819D01*
X182337887Y-89149819D02*
X182242649Y-89197438D01*
X182242649Y-89197438D02*
X182195030Y-89245057D01*
X182195030Y-89245057D02*
X182147411Y-89340295D01*
X182147411Y-89340295D02*
X182147411Y-89387914D01*
X182147411Y-89387914D02*
X182195030Y-89483152D01*
X182195030Y-89483152D02*
X182242649Y-89530771D01*
X182242649Y-89530771D02*
X182337887Y-89578390D01*
X182337887Y-89578390D02*
X182528363Y-89578390D01*
X182528363Y-89578390D02*
X182623601Y-89626009D01*
X182623601Y-89626009D02*
X182671220Y-89673628D01*
X182671220Y-89673628D02*
X182718839Y-89768866D01*
X182718839Y-89768866D02*
X182718839Y-89959342D01*
X182718839Y-89959342D02*
X182671220Y-90054580D01*
X182671220Y-90054580D02*
X182623601Y-90102200D01*
X182623601Y-90102200D02*
X182528363Y-90149819D01*
X182528363Y-90149819D02*
X182337887Y-90149819D01*
X182337887Y-90149819D02*
X182242649Y-90102200D01*
X182242649Y-90102200D02*
X182195030Y-90054580D01*
X182195030Y-90054580D02*
X182147411Y-89959342D01*
X182147411Y-89959342D02*
X182147411Y-89768866D01*
X182147411Y-89768866D02*
X182195030Y-89673628D01*
X182195030Y-89673628D02*
X182242649Y-89626009D01*
X182242649Y-89626009D02*
X182337887Y-89578390D01*
X178822200Y-80789160D02*
X178869819Y-80932017D01*
X178869819Y-80932017D02*
X178869819Y-81170112D01*
X178869819Y-81170112D02*
X178822200Y-81265350D01*
X178822200Y-81265350D02*
X178774580Y-81312969D01*
X178774580Y-81312969D02*
X178679342Y-81360588D01*
X178679342Y-81360588D02*
X178584104Y-81360588D01*
X178584104Y-81360588D02*
X178488866Y-81312969D01*
X178488866Y-81312969D02*
X178441247Y-81265350D01*
X178441247Y-81265350D02*
X178393628Y-81170112D01*
X178393628Y-81170112D02*
X178346009Y-80979636D01*
X178346009Y-80979636D02*
X178298390Y-80884398D01*
X178298390Y-80884398D02*
X178250771Y-80836779D01*
X178250771Y-80836779D02*
X178155533Y-80789160D01*
X178155533Y-80789160D02*
X178060295Y-80789160D01*
X178060295Y-80789160D02*
X177965057Y-80836779D01*
X177965057Y-80836779D02*
X177917438Y-80884398D01*
X177917438Y-80884398D02*
X177869819Y-80979636D01*
X177869819Y-80979636D02*
X177869819Y-81217731D01*
X177869819Y-81217731D02*
X177917438Y-81360588D01*
X178869819Y-81789160D02*
X177869819Y-81789160D01*
X177869819Y-81789160D02*
X177869819Y-82027255D01*
X177869819Y-82027255D02*
X177917438Y-82170112D01*
X177917438Y-82170112D02*
X178012676Y-82265350D01*
X178012676Y-82265350D02*
X178107914Y-82312969D01*
X178107914Y-82312969D02*
X178298390Y-82360588D01*
X178298390Y-82360588D02*
X178441247Y-82360588D01*
X178441247Y-82360588D02*
X178631723Y-82312969D01*
X178631723Y-82312969D02*
X178726961Y-82265350D01*
X178726961Y-82265350D02*
X178822200Y-82170112D01*
X178822200Y-82170112D02*
X178869819Y-82027255D01*
X178869819Y-82027255D02*
X178869819Y-81789160D01*
X178584104Y-82741541D02*
X178584104Y-83217731D01*
X178869819Y-82646303D02*
X177869819Y-82979636D01*
X177869819Y-82979636D02*
X178869819Y-83312969D01*
X219210839Y-97822200D02*
X219067982Y-97869819D01*
X219067982Y-97869819D02*
X218829887Y-97869819D01*
X218829887Y-97869819D02*
X218734649Y-97822200D01*
X218734649Y-97822200D02*
X218687030Y-97774580D01*
X218687030Y-97774580D02*
X218639411Y-97679342D01*
X218639411Y-97679342D02*
X218639411Y-97584104D01*
X218639411Y-97584104D02*
X218687030Y-97488866D01*
X218687030Y-97488866D02*
X218734649Y-97441247D01*
X218734649Y-97441247D02*
X218829887Y-97393628D01*
X218829887Y-97393628D02*
X219020363Y-97346009D01*
X219020363Y-97346009D02*
X219115601Y-97298390D01*
X219115601Y-97298390D02*
X219163220Y-97250771D01*
X219163220Y-97250771D02*
X219210839Y-97155533D01*
X219210839Y-97155533D02*
X219210839Y-97060295D01*
X219210839Y-97060295D02*
X219163220Y-96965057D01*
X219163220Y-96965057D02*
X219115601Y-96917438D01*
X219115601Y-96917438D02*
X219020363Y-96869819D01*
X219020363Y-96869819D02*
X218782268Y-96869819D01*
X218782268Y-96869819D02*
X218639411Y-96917438D01*
X218210839Y-97869819D02*
X218210839Y-96869819D01*
X218210839Y-96869819D02*
X217972744Y-96869819D01*
X217972744Y-96869819D02*
X217829887Y-96917438D01*
X217829887Y-96917438D02*
X217734649Y-97012676D01*
X217734649Y-97012676D02*
X217687030Y-97107914D01*
X217687030Y-97107914D02*
X217639411Y-97298390D01*
X217639411Y-97298390D02*
X217639411Y-97441247D01*
X217639411Y-97441247D02*
X217687030Y-97631723D01*
X217687030Y-97631723D02*
X217734649Y-97726961D01*
X217734649Y-97726961D02*
X217829887Y-97822200D01*
X217829887Y-97822200D02*
X217972744Y-97869819D01*
X217972744Y-97869819D02*
X218210839Y-97869819D01*
X217258458Y-97584104D02*
X216782268Y-97584104D01*
X217353696Y-97869819D02*
X217020363Y-96869819D01*
X217020363Y-96869819D02*
X216687030Y-97869819D01*
X205734649Y-91417819D02*
X205925125Y-91417819D01*
X205925125Y-91417819D02*
X206020363Y-91465438D01*
X206020363Y-91465438D02*
X206067982Y-91513057D01*
X206067982Y-91513057D02*
X206163220Y-91655914D01*
X206163220Y-91655914D02*
X206210839Y-91846390D01*
X206210839Y-91846390D02*
X206210839Y-92227342D01*
X206210839Y-92227342D02*
X206163220Y-92322580D01*
X206163220Y-92322580D02*
X206115601Y-92370200D01*
X206115601Y-92370200D02*
X206020363Y-92417819D01*
X206020363Y-92417819D02*
X205829887Y-92417819D01*
X205829887Y-92417819D02*
X205734649Y-92370200D01*
X205734649Y-92370200D02*
X205687030Y-92322580D01*
X205687030Y-92322580D02*
X205639411Y-92227342D01*
X205639411Y-92227342D02*
X205639411Y-91989247D01*
X205639411Y-91989247D02*
X205687030Y-91894009D01*
X205687030Y-91894009D02*
X205734649Y-91846390D01*
X205734649Y-91846390D02*
X205829887Y-91798771D01*
X205829887Y-91798771D02*
X206020363Y-91798771D01*
X206020363Y-91798771D02*
X206115601Y-91846390D01*
X206115601Y-91846390D02*
X206163220Y-91894009D01*
X206163220Y-91894009D02*
X206210839Y-91989247D01*
X205687030Y-88369819D02*
X206163220Y-88369819D01*
X206163220Y-88369819D02*
X206210839Y-88846009D01*
X206210839Y-88846009D02*
X206163220Y-88798390D01*
X206163220Y-88798390D02*
X206067982Y-88750771D01*
X206067982Y-88750771D02*
X205829887Y-88750771D01*
X205829887Y-88750771D02*
X205734649Y-88798390D01*
X205734649Y-88798390D02*
X205687030Y-88846009D01*
X205687030Y-88846009D02*
X205639411Y-88941247D01*
X205639411Y-88941247D02*
X205639411Y-89179342D01*
X205639411Y-89179342D02*
X205687030Y-89274580D01*
X205687030Y-89274580D02*
X205734649Y-89322200D01*
X205734649Y-89322200D02*
X205829887Y-89369819D01*
X205829887Y-89369819D02*
X206067982Y-89369819D01*
X206067982Y-89369819D02*
X206163220Y-89322200D01*
X206163220Y-89322200D02*
X206210839Y-89274580D01*
D12*
X216159774Y-83300828D02*
X216016917Y-83300828D01*
X216016917Y-83300828D02*
X215874060Y-83372257D01*
X215874060Y-83372257D02*
X215802632Y-83443685D01*
X215802632Y-83443685D02*
X215731203Y-83586542D01*
X215731203Y-83586542D02*
X215659774Y-83872257D01*
X215659774Y-83872257D02*
X215659774Y-84229400D01*
X215659774Y-84229400D02*
X215731203Y-84515114D01*
X215731203Y-84515114D02*
X215802632Y-84657971D01*
X215802632Y-84657971D02*
X215874060Y-84729400D01*
X215874060Y-84729400D02*
X216016917Y-84800828D01*
X216016917Y-84800828D02*
X216159774Y-84800828D01*
X216159774Y-84800828D02*
X216302632Y-84729400D01*
X216302632Y-84729400D02*
X216374060Y-84657971D01*
X216374060Y-84657971D02*
X216445489Y-84515114D01*
X216445489Y-84515114D02*
X216516917Y-84229400D01*
X216516917Y-84229400D02*
X216516917Y-83872257D01*
X216516917Y-83872257D02*
X216445489Y-83586542D01*
X216445489Y-83586542D02*
X216374060Y-83443685D01*
X216374060Y-83443685D02*
X216302632Y-83372257D01*
X216302632Y-83372257D02*
X216159774Y-83300828D01*
X215016918Y-84657971D02*
X214945489Y-84729400D01*
X214945489Y-84729400D02*
X215016918Y-84800828D01*
X215016918Y-84800828D02*
X215088346Y-84729400D01*
X215088346Y-84729400D02*
X215016918Y-84657971D01*
X215016918Y-84657971D02*
X215016918Y-84800828D01*
X213516917Y-84800828D02*
X214374060Y-84800828D01*
X213945489Y-84800828D02*
X213945489Y-83300828D01*
X213945489Y-83300828D02*
X214088346Y-83515114D01*
X214088346Y-83515114D02*
X214231203Y-83657971D01*
X214231203Y-83657971D02*
X214374060Y-83729400D01*
X212231204Y-83800828D02*
X212231204Y-84800828D01*
X212874061Y-83800828D02*
X212874061Y-84586542D01*
X212874061Y-84586542D02*
X212802632Y-84729400D01*
X212802632Y-84729400D02*
X212659775Y-84800828D01*
X212659775Y-84800828D02*
X212445489Y-84800828D01*
X212445489Y-84800828D02*
X212302632Y-84729400D01*
X212302632Y-84729400D02*
X212231204Y-84657971D01*
X211016918Y-84015114D02*
X211516918Y-84015114D01*
X211516918Y-84800828D02*
X211516918Y-83300828D01*
X211516918Y-83300828D02*
X210802632Y-83300828D01*
D11*
X182766458Y-91689819D02*
X182099792Y-91689819D01*
X182099792Y-91689819D02*
X182528363Y-92689819D01*
X214166666Y-87859580D02*
X214214285Y-87907200D01*
X214214285Y-87907200D02*
X214357142Y-87954819D01*
X214357142Y-87954819D02*
X214452380Y-87954819D01*
X214452380Y-87954819D02*
X214595237Y-87907200D01*
X214595237Y-87907200D02*
X214690475Y-87811961D01*
X214690475Y-87811961D02*
X214738094Y-87716723D01*
X214738094Y-87716723D02*
X214785713Y-87526247D01*
X214785713Y-87526247D02*
X214785713Y-87383390D01*
X214785713Y-87383390D02*
X214738094Y-87192914D01*
X214738094Y-87192914D02*
X214690475Y-87097676D01*
X214690475Y-87097676D02*
X214595237Y-87002438D01*
X214595237Y-87002438D02*
X214452380Y-86954819D01*
X214452380Y-86954819D02*
X214357142Y-86954819D01*
X214357142Y-86954819D02*
X214214285Y-87002438D01*
X214214285Y-87002438D02*
X214166666Y-87050057D01*
X213833332Y-86954819D02*
X213214285Y-86954819D01*
X213214285Y-86954819D02*
X213547618Y-87335771D01*
X213547618Y-87335771D02*
X213404761Y-87335771D01*
X213404761Y-87335771D02*
X213309523Y-87383390D01*
X213309523Y-87383390D02*
X213261904Y-87431009D01*
X213261904Y-87431009D02*
X213214285Y-87526247D01*
X213214285Y-87526247D02*
X213214285Y-87764342D01*
X213214285Y-87764342D02*
X213261904Y-87859580D01*
X213261904Y-87859580D02*
X213309523Y-87907200D01*
X213309523Y-87907200D02*
X213404761Y-87954819D01*
X213404761Y-87954819D02*
X213690475Y-87954819D01*
X213690475Y-87954819D02*
X213785713Y-87907200D01*
X213785713Y-87907200D02*
X213833332Y-87859580D01*
X162666666Y-83454819D02*
X162999999Y-82978628D01*
X163238094Y-83454819D02*
X163238094Y-82454819D01*
X163238094Y-82454819D02*
X162857142Y-82454819D01*
X162857142Y-82454819D02*
X162761904Y-82502438D01*
X162761904Y-82502438D02*
X162714285Y-82550057D01*
X162714285Y-82550057D02*
X162666666Y-82645295D01*
X162666666Y-82645295D02*
X162666666Y-82788152D01*
X162666666Y-82788152D02*
X162714285Y-82883390D01*
X162714285Y-82883390D02*
X162761904Y-82931009D01*
X162761904Y-82931009D02*
X162857142Y-82978628D01*
X162857142Y-82978628D02*
X163238094Y-82978628D01*
X162333332Y-82454819D02*
X161714285Y-82454819D01*
X161714285Y-82454819D02*
X162047618Y-82835771D01*
X162047618Y-82835771D02*
X161904761Y-82835771D01*
X161904761Y-82835771D02*
X161809523Y-82883390D01*
X161809523Y-82883390D02*
X161761904Y-82931009D01*
X161761904Y-82931009D02*
X161714285Y-83026247D01*
X161714285Y-83026247D02*
X161714285Y-83264342D01*
X161714285Y-83264342D02*
X161761904Y-83359580D01*
X161761904Y-83359580D02*
X161809523Y-83407200D01*
X161809523Y-83407200D02*
X161904761Y-83454819D01*
X161904761Y-83454819D02*
X162190475Y-83454819D01*
X162190475Y-83454819D02*
X162285713Y-83407200D01*
X162285713Y-83407200D02*
X162333332Y-83359580D01*
X194761904Y-95374819D02*
X194761904Y-96184342D01*
X194761904Y-96184342D02*
X194714285Y-96279580D01*
X194714285Y-96279580D02*
X194666666Y-96327200D01*
X194666666Y-96327200D02*
X194571428Y-96374819D01*
X194571428Y-96374819D02*
X194380952Y-96374819D01*
X194380952Y-96374819D02*
X194285714Y-96327200D01*
X194285714Y-96327200D02*
X194238095Y-96279580D01*
X194238095Y-96279580D02*
X194190476Y-96184342D01*
X194190476Y-96184342D02*
X194190476Y-95374819D01*
X193761904Y-95470057D02*
X193714285Y-95422438D01*
X193714285Y-95422438D02*
X193619047Y-95374819D01*
X193619047Y-95374819D02*
X193380952Y-95374819D01*
X193380952Y-95374819D02*
X193285714Y-95422438D01*
X193285714Y-95422438D02*
X193238095Y-95470057D01*
X193238095Y-95470057D02*
X193190476Y-95565295D01*
X193190476Y-95565295D02*
X193190476Y-95660533D01*
X193190476Y-95660533D02*
X193238095Y-95803390D01*
X193238095Y-95803390D02*
X193809523Y-96374819D01*
X193809523Y-96374819D02*
X193190476Y-96374819D01*
X190787732Y-70874819D02*
X190216304Y-70874819D01*
X190502018Y-71874819D02*
X190502018Y-70874819D01*
X189978208Y-70874819D02*
X189311542Y-71874819D01*
X189311542Y-70874819D02*
X189978208Y-71874819D01*
X190311542Y-74414819D02*
X190644875Y-73938628D01*
X190882970Y-74414819D02*
X190882970Y-73414819D01*
X190882970Y-73414819D02*
X190502018Y-73414819D01*
X190502018Y-73414819D02*
X190406780Y-73462438D01*
X190406780Y-73462438D02*
X190359161Y-73510057D01*
X190359161Y-73510057D02*
X190311542Y-73605295D01*
X190311542Y-73605295D02*
X190311542Y-73748152D01*
X190311542Y-73748152D02*
X190359161Y-73843390D01*
X190359161Y-73843390D02*
X190406780Y-73891009D01*
X190406780Y-73891009D02*
X190502018Y-73938628D01*
X190502018Y-73938628D02*
X190882970Y-73938628D01*
X189978208Y-73414819D02*
X189311542Y-74414819D01*
X189311542Y-73414819D02*
X189978208Y-74414819D01*
X193519411Y-81082438D02*
X193614649Y-81034819D01*
X193614649Y-81034819D02*
X193757506Y-81034819D01*
X193757506Y-81034819D02*
X193900363Y-81082438D01*
X193900363Y-81082438D02*
X193995601Y-81177676D01*
X193995601Y-81177676D02*
X194043220Y-81272914D01*
X194043220Y-81272914D02*
X194090839Y-81463390D01*
X194090839Y-81463390D02*
X194090839Y-81606247D01*
X194090839Y-81606247D02*
X194043220Y-81796723D01*
X194043220Y-81796723D02*
X193995601Y-81891961D01*
X193995601Y-81891961D02*
X193900363Y-81987200D01*
X193900363Y-81987200D02*
X193757506Y-82034819D01*
X193757506Y-82034819D02*
X193662268Y-82034819D01*
X193662268Y-82034819D02*
X193519411Y-81987200D01*
X193519411Y-81987200D02*
X193471792Y-81939580D01*
X193471792Y-81939580D02*
X193471792Y-81606247D01*
X193471792Y-81606247D02*
X193662268Y-81606247D01*
X193043220Y-82034819D02*
X193043220Y-81034819D01*
X193043220Y-81034819D02*
X192662268Y-81034819D01*
X192662268Y-81034819D02*
X192567030Y-81082438D01*
X192567030Y-81082438D02*
X192519411Y-81130057D01*
X192519411Y-81130057D02*
X192471792Y-81225295D01*
X192471792Y-81225295D02*
X192471792Y-81368152D01*
X192471792Y-81368152D02*
X192519411Y-81463390D01*
X192519411Y-81463390D02*
X192567030Y-81511009D01*
X192567030Y-81511009D02*
X192662268Y-81558628D01*
X192662268Y-81558628D02*
X193043220Y-81558628D01*
X192043220Y-82034819D02*
X192043220Y-81034819D01*
X191376554Y-81034819D02*
X191186078Y-81034819D01*
X191186078Y-81034819D02*
X191090840Y-81082438D01*
X191090840Y-81082438D02*
X190995602Y-81177676D01*
X190995602Y-81177676D02*
X190947983Y-81368152D01*
X190947983Y-81368152D02*
X190947983Y-81701485D01*
X190947983Y-81701485D02*
X190995602Y-81891961D01*
X190995602Y-81891961D02*
X191090840Y-81987200D01*
X191090840Y-81987200D02*
X191186078Y-82034819D01*
X191186078Y-82034819D02*
X191376554Y-82034819D01*
X191376554Y-82034819D02*
X191471792Y-81987200D01*
X191471792Y-81987200D02*
X191567030Y-81891961D01*
X191567030Y-81891961D02*
X191614649Y-81701485D01*
X191614649Y-81701485D02*
X191614649Y-81368152D01*
X191614649Y-81368152D02*
X191567030Y-81177676D01*
X191567030Y-81177676D02*
X191471792Y-81082438D01*
X191471792Y-81082438D02*
X191376554Y-81034819D01*
X189995602Y-82034819D02*
X190567030Y-82034819D01*
X190281316Y-82034819D02*
X190281316Y-81034819D01*
X190281316Y-81034819D02*
X190376554Y-81177676D01*
X190376554Y-81177676D02*
X190471792Y-81272914D01*
X190471792Y-81272914D02*
X190567030Y-81320533D01*
X189043221Y-82034819D02*
X189614649Y-82034819D01*
X189328935Y-82034819D02*
X189328935Y-81034819D01*
X189328935Y-81034819D02*
X189424173Y-81177676D01*
X189424173Y-81177676D02*
X189519411Y-81272914D01*
X189519411Y-81272914D02*
X189614649Y-81320533D01*
X198345601Y-74457561D02*
X198250363Y-74505180D01*
X198250363Y-74505180D02*
X198107506Y-74505180D01*
X198107506Y-74505180D02*
X197964649Y-74457561D01*
X197964649Y-74457561D02*
X197869411Y-74362323D01*
X197869411Y-74362323D02*
X197821792Y-74267085D01*
X197821792Y-74267085D02*
X197774173Y-74076609D01*
X197774173Y-74076609D02*
X197774173Y-73933752D01*
X197774173Y-73933752D02*
X197821792Y-73743276D01*
X197821792Y-73743276D02*
X197869411Y-73648038D01*
X197869411Y-73648038D02*
X197964649Y-73552800D01*
X197964649Y-73552800D02*
X198107506Y-73505180D01*
X198107506Y-73505180D02*
X198202744Y-73505180D01*
X198202744Y-73505180D02*
X198345601Y-73552800D01*
X198345601Y-73552800D02*
X198393220Y-73600419D01*
X198393220Y-73600419D02*
X198393220Y-73933752D01*
X198393220Y-73933752D02*
X198202744Y-73933752D01*
X198821792Y-73505180D02*
X198821792Y-74505180D01*
X198821792Y-74505180D02*
X199393220Y-73505180D01*
X199393220Y-73505180D02*
X199393220Y-74505180D01*
X199869411Y-73505180D02*
X199869411Y-74505180D01*
X199869411Y-74505180D02*
X200107506Y-74505180D01*
X200107506Y-74505180D02*
X200250363Y-74457561D01*
X200250363Y-74457561D02*
X200345601Y-74362323D01*
X200345601Y-74362323D02*
X200393220Y-74267085D01*
X200393220Y-74267085D02*
X200440839Y-74076609D01*
X200440839Y-74076609D02*
X200440839Y-73933752D01*
X200440839Y-73933752D02*
X200393220Y-73743276D01*
X200393220Y-73743276D02*
X200345601Y-73648038D01*
X200345601Y-73648038D02*
X200250363Y-73552800D01*
X200250363Y-73552800D02*
X200107506Y-73505180D01*
X200107506Y-73505180D02*
X199869411Y-73505180D01*
X192519411Y-88702438D02*
X192614649Y-88654819D01*
X192614649Y-88654819D02*
X192757506Y-88654819D01*
X192757506Y-88654819D02*
X192900363Y-88702438D01*
X192900363Y-88702438D02*
X192995601Y-88797676D01*
X192995601Y-88797676D02*
X193043220Y-88892914D01*
X193043220Y-88892914D02*
X193090839Y-89083390D01*
X193090839Y-89083390D02*
X193090839Y-89226247D01*
X193090839Y-89226247D02*
X193043220Y-89416723D01*
X193043220Y-89416723D02*
X192995601Y-89511961D01*
X192995601Y-89511961D02*
X192900363Y-89607200D01*
X192900363Y-89607200D02*
X192757506Y-89654819D01*
X192757506Y-89654819D02*
X192662268Y-89654819D01*
X192662268Y-89654819D02*
X192519411Y-89607200D01*
X192519411Y-89607200D02*
X192471792Y-89559580D01*
X192471792Y-89559580D02*
X192471792Y-89226247D01*
X192471792Y-89226247D02*
X192662268Y-89226247D01*
X192043220Y-89654819D02*
X192043220Y-88654819D01*
X192043220Y-88654819D02*
X191662268Y-88654819D01*
X191662268Y-88654819D02*
X191567030Y-88702438D01*
X191567030Y-88702438D02*
X191519411Y-88750057D01*
X191519411Y-88750057D02*
X191471792Y-88845295D01*
X191471792Y-88845295D02*
X191471792Y-88988152D01*
X191471792Y-88988152D02*
X191519411Y-89083390D01*
X191519411Y-89083390D02*
X191567030Y-89131009D01*
X191567030Y-89131009D02*
X191662268Y-89178628D01*
X191662268Y-89178628D02*
X192043220Y-89178628D01*
X191043220Y-89654819D02*
X191043220Y-88654819D01*
X190376554Y-88654819D02*
X190186078Y-88654819D01*
X190186078Y-88654819D02*
X190090840Y-88702438D01*
X190090840Y-88702438D02*
X189995602Y-88797676D01*
X189995602Y-88797676D02*
X189947983Y-88988152D01*
X189947983Y-88988152D02*
X189947983Y-89321485D01*
X189947983Y-89321485D02*
X189995602Y-89511961D01*
X189995602Y-89511961D02*
X190090840Y-89607200D01*
X190090840Y-89607200D02*
X190186078Y-89654819D01*
X190186078Y-89654819D02*
X190376554Y-89654819D01*
X190376554Y-89654819D02*
X190471792Y-89607200D01*
X190471792Y-89607200D02*
X190567030Y-89511961D01*
X190567030Y-89511961D02*
X190614649Y-89321485D01*
X190614649Y-89321485D02*
X190614649Y-88988152D01*
X190614649Y-88988152D02*
X190567030Y-88797676D01*
X190567030Y-88797676D02*
X190471792Y-88702438D01*
X190471792Y-88702438D02*
X190376554Y-88654819D01*
X189376554Y-89083390D02*
X189471792Y-89035771D01*
X189471792Y-89035771D02*
X189519411Y-88988152D01*
X189519411Y-88988152D02*
X189567030Y-88892914D01*
X189567030Y-88892914D02*
X189567030Y-88845295D01*
X189567030Y-88845295D02*
X189519411Y-88750057D01*
X189519411Y-88750057D02*
X189471792Y-88702438D01*
X189471792Y-88702438D02*
X189376554Y-88654819D01*
X189376554Y-88654819D02*
X189186078Y-88654819D01*
X189186078Y-88654819D02*
X189090840Y-88702438D01*
X189090840Y-88702438D02*
X189043221Y-88750057D01*
X189043221Y-88750057D02*
X188995602Y-88845295D01*
X188995602Y-88845295D02*
X188995602Y-88892914D01*
X188995602Y-88892914D02*
X189043221Y-88988152D01*
X189043221Y-88988152D02*
X189090840Y-89035771D01*
X189090840Y-89035771D02*
X189186078Y-89083390D01*
X189186078Y-89083390D02*
X189376554Y-89083390D01*
X189376554Y-89083390D02*
X189471792Y-89131009D01*
X189471792Y-89131009D02*
X189519411Y-89178628D01*
X189519411Y-89178628D02*
X189567030Y-89273866D01*
X189567030Y-89273866D02*
X189567030Y-89464342D01*
X189567030Y-89464342D02*
X189519411Y-89559580D01*
X189519411Y-89559580D02*
X189471792Y-89607200D01*
X189471792Y-89607200D02*
X189376554Y-89654819D01*
X189376554Y-89654819D02*
X189186078Y-89654819D01*
X189186078Y-89654819D02*
X189090840Y-89607200D01*
X189090840Y-89607200D02*
X189043221Y-89559580D01*
X189043221Y-89559580D02*
X188995602Y-89464342D01*
X188995602Y-89464342D02*
X188995602Y-89273866D01*
X188995602Y-89273866D02*
X189043221Y-89178628D01*
X189043221Y-89178628D02*
X189090840Y-89131009D01*
X189090840Y-89131009D02*
X189186078Y-89083390D01*
X200488458Y-75954819D02*
X199869411Y-75954819D01*
X199869411Y-75954819D02*
X200202744Y-76335771D01*
X200202744Y-76335771D02*
X200059887Y-76335771D01*
X200059887Y-76335771D02*
X199964649Y-76383390D01*
X199964649Y-76383390D02*
X199917030Y-76431009D01*
X199917030Y-76431009D02*
X199869411Y-76526247D01*
X199869411Y-76526247D02*
X199869411Y-76764342D01*
X199869411Y-76764342D02*
X199917030Y-76859580D01*
X199917030Y-76859580D02*
X199964649Y-76907200D01*
X199964649Y-76907200D02*
X200059887Y-76954819D01*
X200059887Y-76954819D02*
X200345601Y-76954819D01*
X200345601Y-76954819D02*
X200440839Y-76907200D01*
X200440839Y-76907200D02*
X200488458Y-76859580D01*
X199583696Y-75954819D02*
X199250363Y-76954819D01*
X199250363Y-76954819D02*
X198917030Y-75954819D01*
X198678934Y-75954819D02*
X198059887Y-75954819D01*
X198059887Y-75954819D02*
X198393220Y-76335771D01*
X198393220Y-76335771D02*
X198250363Y-76335771D01*
X198250363Y-76335771D02*
X198155125Y-76383390D01*
X198155125Y-76383390D02*
X198107506Y-76431009D01*
X198107506Y-76431009D02*
X198059887Y-76526247D01*
X198059887Y-76526247D02*
X198059887Y-76764342D01*
X198059887Y-76764342D02*
X198107506Y-76859580D01*
X198107506Y-76859580D02*
X198155125Y-76907200D01*
X198155125Y-76907200D02*
X198250363Y-76954819D01*
X198250363Y-76954819D02*
X198536077Y-76954819D01*
X198536077Y-76954819D02*
X198631315Y-76907200D01*
X198631315Y-76907200D02*
X198678934Y-76859580D01*
X199639412Y-86162438D02*
X199734650Y-86114819D01*
X199734650Y-86114819D02*
X199877507Y-86114819D01*
X199877507Y-86114819D02*
X200020364Y-86162438D01*
X200020364Y-86162438D02*
X200115602Y-86257676D01*
X200115602Y-86257676D02*
X200163221Y-86352914D01*
X200163221Y-86352914D02*
X200210840Y-86543390D01*
X200210840Y-86543390D02*
X200210840Y-86686247D01*
X200210840Y-86686247D02*
X200163221Y-86876723D01*
X200163221Y-86876723D02*
X200115602Y-86971961D01*
X200115602Y-86971961D02*
X200020364Y-87067200D01*
X200020364Y-87067200D02*
X199877507Y-87114819D01*
X199877507Y-87114819D02*
X199782269Y-87114819D01*
X199782269Y-87114819D02*
X199639412Y-87067200D01*
X199639412Y-87067200D02*
X199591793Y-87019580D01*
X199591793Y-87019580D02*
X199591793Y-86686247D01*
X199591793Y-86686247D02*
X199782269Y-86686247D01*
X199163221Y-87114819D02*
X199163221Y-86114819D01*
X199163221Y-86114819D02*
X198782269Y-86114819D01*
X198782269Y-86114819D02*
X198687031Y-86162438D01*
X198687031Y-86162438D02*
X198639412Y-86210057D01*
X198639412Y-86210057D02*
X198591793Y-86305295D01*
X198591793Y-86305295D02*
X198591793Y-86448152D01*
X198591793Y-86448152D02*
X198639412Y-86543390D01*
X198639412Y-86543390D02*
X198687031Y-86591009D01*
X198687031Y-86591009D02*
X198782269Y-86638628D01*
X198782269Y-86638628D02*
X199163221Y-86638628D01*
X198163221Y-87114819D02*
X198163221Y-86114819D01*
X197496555Y-86114819D02*
X197306079Y-86114819D01*
X197306079Y-86114819D02*
X197210841Y-86162438D01*
X197210841Y-86162438D02*
X197115603Y-86257676D01*
X197115603Y-86257676D02*
X197067984Y-86448152D01*
X197067984Y-86448152D02*
X197067984Y-86781485D01*
X197067984Y-86781485D02*
X197115603Y-86971961D01*
X197115603Y-86971961D02*
X197210841Y-87067200D01*
X197210841Y-87067200D02*
X197306079Y-87114819D01*
X197306079Y-87114819D02*
X197496555Y-87114819D01*
X197496555Y-87114819D02*
X197591793Y-87067200D01*
X197591793Y-87067200D02*
X197687031Y-86971961D01*
X197687031Y-86971961D02*
X197734650Y-86781485D01*
X197734650Y-86781485D02*
X197734650Y-86448152D01*
X197734650Y-86448152D02*
X197687031Y-86257676D01*
X197687031Y-86257676D02*
X197591793Y-86162438D01*
X197591793Y-86162438D02*
X197496555Y-86114819D01*
X196210841Y-86448152D02*
X196210841Y-87114819D01*
X196448936Y-86067200D02*
X196687031Y-86781485D01*
X196687031Y-86781485D02*
X196067984Y-86781485D01*
X193519411Y-78542438D02*
X193614649Y-78494819D01*
X193614649Y-78494819D02*
X193757506Y-78494819D01*
X193757506Y-78494819D02*
X193900363Y-78542438D01*
X193900363Y-78542438D02*
X193995601Y-78637676D01*
X193995601Y-78637676D02*
X194043220Y-78732914D01*
X194043220Y-78732914D02*
X194090839Y-78923390D01*
X194090839Y-78923390D02*
X194090839Y-79066247D01*
X194090839Y-79066247D02*
X194043220Y-79256723D01*
X194043220Y-79256723D02*
X193995601Y-79351961D01*
X193995601Y-79351961D02*
X193900363Y-79447200D01*
X193900363Y-79447200D02*
X193757506Y-79494819D01*
X193757506Y-79494819D02*
X193662268Y-79494819D01*
X193662268Y-79494819D02*
X193519411Y-79447200D01*
X193519411Y-79447200D02*
X193471792Y-79399580D01*
X193471792Y-79399580D02*
X193471792Y-79066247D01*
X193471792Y-79066247D02*
X193662268Y-79066247D01*
X193043220Y-79494819D02*
X193043220Y-78494819D01*
X193043220Y-78494819D02*
X192662268Y-78494819D01*
X192662268Y-78494819D02*
X192567030Y-78542438D01*
X192567030Y-78542438D02*
X192519411Y-78590057D01*
X192519411Y-78590057D02*
X192471792Y-78685295D01*
X192471792Y-78685295D02*
X192471792Y-78828152D01*
X192471792Y-78828152D02*
X192519411Y-78923390D01*
X192519411Y-78923390D02*
X192567030Y-78971009D01*
X192567030Y-78971009D02*
X192662268Y-79018628D01*
X192662268Y-79018628D02*
X193043220Y-79018628D01*
X192043220Y-79494819D02*
X192043220Y-78494819D01*
X191376554Y-78494819D02*
X191186078Y-78494819D01*
X191186078Y-78494819D02*
X191090840Y-78542438D01*
X191090840Y-78542438D02*
X190995602Y-78637676D01*
X190995602Y-78637676D02*
X190947983Y-78828152D01*
X190947983Y-78828152D02*
X190947983Y-79161485D01*
X190947983Y-79161485D02*
X190995602Y-79351961D01*
X190995602Y-79351961D02*
X191090840Y-79447200D01*
X191090840Y-79447200D02*
X191186078Y-79494819D01*
X191186078Y-79494819D02*
X191376554Y-79494819D01*
X191376554Y-79494819D02*
X191471792Y-79447200D01*
X191471792Y-79447200D02*
X191567030Y-79351961D01*
X191567030Y-79351961D02*
X191614649Y-79161485D01*
X191614649Y-79161485D02*
X191614649Y-78828152D01*
X191614649Y-78828152D02*
X191567030Y-78637676D01*
X191567030Y-78637676D02*
X191471792Y-78542438D01*
X191471792Y-78542438D02*
X191376554Y-78494819D01*
X189995602Y-79494819D02*
X190567030Y-79494819D01*
X190281316Y-79494819D02*
X190281316Y-78494819D01*
X190281316Y-78494819D02*
X190376554Y-78637676D01*
X190376554Y-78637676D02*
X190471792Y-78732914D01*
X190471792Y-78732914D02*
X190567030Y-78780533D01*
X189614649Y-78590057D02*
X189567030Y-78542438D01*
X189567030Y-78542438D02*
X189471792Y-78494819D01*
X189471792Y-78494819D02*
X189233697Y-78494819D01*
X189233697Y-78494819D02*
X189138459Y-78542438D01*
X189138459Y-78542438D02*
X189090840Y-78590057D01*
X189090840Y-78590057D02*
X189043221Y-78685295D01*
X189043221Y-78685295D02*
X189043221Y-78780533D01*
X189043221Y-78780533D02*
X189090840Y-78923390D01*
X189090840Y-78923390D02*
X189662268Y-79494819D01*
X189662268Y-79494819D02*
X189043221Y-79494819D01*
X199639412Y-88702438D02*
X199734650Y-88654819D01*
X199734650Y-88654819D02*
X199877507Y-88654819D01*
X199877507Y-88654819D02*
X200020364Y-88702438D01*
X200020364Y-88702438D02*
X200115602Y-88797676D01*
X200115602Y-88797676D02*
X200163221Y-88892914D01*
X200163221Y-88892914D02*
X200210840Y-89083390D01*
X200210840Y-89083390D02*
X200210840Y-89226247D01*
X200210840Y-89226247D02*
X200163221Y-89416723D01*
X200163221Y-89416723D02*
X200115602Y-89511961D01*
X200115602Y-89511961D02*
X200020364Y-89607200D01*
X200020364Y-89607200D02*
X199877507Y-89654819D01*
X199877507Y-89654819D02*
X199782269Y-89654819D01*
X199782269Y-89654819D02*
X199639412Y-89607200D01*
X199639412Y-89607200D02*
X199591793Y-89559580D01*
X199591793Y-89559580D02*
X199591793Y-89226247D01*
X199591793Y-89226247D02*
X199782269Y-89226247D01*
X199163221Y-89654819D02*
X199163221Y-88654819D01*
X199163221Y-88654819D02*
X198782269Y-88654819D01*
X198782269Y-88654819D02*
X198687031Y-88702438D01*
X198687031Y-88702438D02*
X198639412Y-88750057D01*
X198639412Y-88750057D02*
X198591793Y-88845295D01*
X198591793Y-88845295D02*
X198591793Y-88988152D01*
X198591793Y-88988152D02*
X198639412Y-89083390D01*
X198639412Y-89083390D02*
X198687031Y-89131009D01*
X198687031Y-89131009D02*
X198782269Y-89178628D01*
X198782269Y-89178628D02*
X199163221Y-89178628D01*
X198163221Y-89654819D02*
X198163221Y-88654819D01*
X197496555Y-88654819D02*
X197306079Y-88654819D01*
X197306079Y-88654819D02*
X197210841Y-88702438D01*
X197210841Y-88702438D02*
X197115603Y-88797676D01*
X197115603Y-88797676D02*
X197067984Y-88988152D01*
X197067984Y-88988152D02*
X197067984Y-89321485D01*
X197067984Y-89321485D02*
X197115603Y-89511961D01*
X197115603Y-89511961D02*
X197210841Y-89607200D01*
X197210841Y-89607200D02*
X197306079Y-89654819D01*
X197306079Y-89654819D02*
X197496555Y-89654819D01*
X197496555Y-89654819D02*
X197591793Y-89607200D01*
X197591793Y-89607200D02*
X197687031Y-89511961D01*
X197687031Y-89511961D02*
X197734650Y-89321485D01*
X197734650Y-89321485D02*
X197734650Y-88988152D01*
X197734650Y-88988152D02*
X197687031Y-88797676D01*
X197687031Y-88797676D02*
X197591793Y-88702438D01*
X197591793Y-88702438D02*
X197496555Y-88654819D01*
X196163222Y-88654819D02*
X196639412Y-88654819D01*
X196639412Y-88654819D02*
X196687031Y-89131009D01*
X196687031Y-89131009D02*
X196639412Y-89083390D01*
X196639412Y-89083390D02*
X196544174Y-89035771D01*
X196544174Y-89035771D02*
X196306079Y-89035771D01*
X196306079Y-89035771D02*
X196210841Y-89083390D01*
X196210841Y-89083390D02*
X196163222Y-89131009D01*
X196163222Y-89131009D02*
X196115603Y-89226247D01*
X196115603Y-89226247D02*
X196115603Y-89464342D01*
X196115603Y-89464342D02*
X196163222Y-89559580D01*
X196163222Y-89559580D02*
X196210841Y-89607200D01*
X196210841Y-89607200D02*
X196306079Y-89654819D01*
X196306079Y-89654819D02*
X196544174Y-89654819D01*
X196544174Y-89654819D02*
X196639412Y-89607200D01*
X196639412Y-89607200D02*
X196687031Y-89559580D01*
X199917030Y-70874819D02*
X200393220Y-70874819D01*
X200393220Y-70874819D02*
X200440839Y-71351009D01*
X200440839Y-71351009D02*
X200393220Y-71303390D01*
X200393220Y-71303390D02*
X200297982Y-71255771D01*
X200297982Y-71255771D02*
X200059887Y-71255771D01*
X200059887Y-71255771D02*
X199964649Y-71303390D01*
X199964649Y-71303390D02*
X199917030Y-71351009D01*
X199917030Y-71351009D02*
X199869411Y-71446247D01*
X199869411Y-71446247D02*
X199869411Y-71684342D01*
X199869411Y-71684342D02*
X199917030Y-71779580D01*
X199917030Y-71779580D02*
X199964649Y-71827200D01*
X199964649Y-71827200D02*
X200059887Y-71874819D01*
X200059887Y-71874819D02*
X200297982Y-71874819D01*
X200297982Y-71874819D02*
X200393220Y-71827200D01*
X200393220Y-71827200D02*
X200440839Y-71779580D01*
X199583696Y-70874819D02*
X199250363Y-71874819D01*
X199250363Y-71874819D02*
X198917030Y-70874819D01*
X199869411Y-81082438D02*
X199964649Y-81034819D01*
X199964649Y-81034819D02*
X200107506Y-81034819D01*
X200107506Y-81034819D02*
X200250363Y-81082438D01*
X200250363Y-81082438D02*
X200345601Y-81177676D01*
X200345601Y-81177676D02*
X200393220Y-81272914D01*
X200393220Y-81272914D02*
X200440839Y-81463390D01*
X200440839Y-81463390D02*
X200440839Y-81606247D01*
X200440839Y-81606247D02*
X200393220Y-81796723D01*
X200393220Y-81796723D02*
X200345601Y-81891961D01*
X200345601Y-81891961D02*
X200250363Y-81987200D01*
X200250363Y-81987200D02*
X200107506Y-82034819D01*
X200107506Y-82034819D02*
X200012268Y-82034819D01*
X200012268Y-82034819D02*
X199869411Y-81987200D01*
X199869411Y-81987200D02*
X199821792Y-81939580D01*
X199821792Y-81939580D02*
X199821792Y-81606247D01*
X199821792Y-81606247D02*
X200012268Y-81606247D01*
X199393220Y-82034819D02*
X199393220Y-81034819D01*
X199393220Y-81034819D02*
X199012268Y-81034819D01*
X199012268Y-81034819D02*
X198917030Y-81082438D01*
X198917030Y-81082438D02*
X198869411Y-81130057D01*
X198869411Y-81130057D02*
X198821792Y-81225295D01*
X198821792Y-81225295D02*
X198821792Y-81368152D01*
X198821792Y-81368152D02*
X198869411Y-81463390D01*
X198869411Y-81463390D02*
X198917030Y-81511009D01*
X198917030Y-81511009D02*
X199012268Y-81558628D01*
X199012268Y-81558628D02*
X199393220Y-81558628D01*
X198393220Y-82034819D02*
X198393220Y-81034819D01*
X197726554Y-81034819D02*
X197536078Y-81034819D01*
X197536078Y-81034819D02*
X197440840Y-81082438D01*
X197440840Y-81082438D02*
X197345602Y-81177676D01*
X197345602Y-81177676D02*
X197297983Y-81368152D01*
X197297983Y-81368152D02*
X197297983Y-81701485D01*
X197297983Y-81701485D02*
X197345602Y-81891961D01*
X197345602Y-81891961D02*
X197440840Y-81987200D01*
X197440840Y-81987200D02*
X197536078Y-82034819D01*
X197536078Y-82034819D02*
X197726554Y-82034819D01*
X197726554Y-82034819D02*
X197821792Y-81987200D01*
X197821792Y-81987200D02*
X197917030Y-81891961D01*
X197917030Y-81891961D02*
X197964649Y-81701485D01*
X197964649Y-81701485D02*
X197964649Y-81368152D01*
X197964649Y-81368152D02*
X197917030Y-81177676D01*
X197917030Y-81177676D02*
X197821792Y-81082438D01*
X197821792Y-81082438D02*
X197726554Y-81034819D01*
X196917030Y-81130057D02*
X196869411Y-81082438D01*
X196869411Y-81082438D02*
X196774173Y-81034819D01*
X196774173Y-81034819D02*
X196536078Y-81034819D01*
X196536078Y-81034819D02*
X196440840Y-81082438D01*
X196440840Y-81082438D02*
X196393221Y-81130057D01*
X196393221Y-81130057D02*
X196345602Y-81225295D01*
X196345602Y-81225295D02*
X196345602Y-81320533D01*
X196345602Y-81320533D02*
X196393221Y-81463390D01*
X196393221Y-81463390D02*
X196964649Y-82034819D01*
X196964649Y-82034819D02*
X196345602Y-82034819D01*
X193519411Y-76002438D02*
X193614649Y-75954819D01*
X193614649Y-75954819D02*
X193757506Y-75954819D01*
X193757506Y-75954819D02*
X193900363Y-76002438D01*
X193900363Y-76002438D02*
X193995601Y-76097676D01*
X193995601Y-76097676D02*
X194043220Y-76192914D01*
X194043220Y-76192914D02*
X194090839Y-76383390D01*
X194090839Y-76383390D02*
X194090839Y-76526247D01*
X194090839Y-76526247D02*
X194043220Y-76716723D01*
X194043220Y-76716723D02*
X193995601Y-76811961D01*
X193995601Y-76811961D02*
X193900363Y-76907200D01*
X193900363Y-76907200D02*
X193757506Y-76954819D01*
X193757506Y-76954819D02*
X193662268Y-76954819D01*
X193662268Y-76954819D02*
X193519411Y-76907200D01*
X193519411Y-76907200D02*
X193471792Y-76859580D01*
X193471792Y-76859580D02*
X193471792Y-76526247D01*
X193471792Y-76526247D02*
X193662268Y-76526247D01*
X193043220Y-76954819D02*
X193043220Y-75954819D01*
X193043220Y-75954819D02*
X192662268Y-75954819D01*
X192662268Y-75954819D02*
X192567030Y-76002438D01*
X192567030Y-76002438D02*
X192519411Y-76050057D01*
X192519411Y-76050057D02*
X192471792Y-76145295D01*
X192471792Y-76145295D02*
X192471792Y-76288152D01*
X192471792Y-76288152D02*
X192519411Y-76383390D01*
X192519411Y-76383390D02*
X192567030Y-76431009D01*
X192567030Y-76431009D02*
X192662268Y-76478628D01*
X192662268Y-76478628D02*
X193043220Y-76478628D01*
X192043220Y-76954819D02*
X192043220Y-75954819D01*
X191376554Y-75954819D02*
X191186078Y-75954819D01*
X191186078Y-75954819D02*
X191090840Y-76002438D01*
X191090840Y-76002438D02*
X190995602Y-76097676D01*
X190995602Y-76097676D02*
X190947983Y-76288152D01*
X190947983Y-76288152D02*
X190947983Y-76621485D01*
X190947983Y-76621485D02*
X190995602Y-76811961D01*
X190995602Y-76811961D02*
X191090840Y-76907200D01*
X191090840Y-76907200D02*
X191186078Y-76954819D01*
X191186078Y-76954819D02*
X191376554Y-76954819D01*
X191376554Y-76954819D02*
X191471792Y-76907200D01*
X191471792Y-76907200D02*
X191567030Y-76811961D01*
X191567030Y-76811961D02*
X191614649Y-76621485D01*
X191614649Y-76621485D02*
X191614649Y-76288152D01*
X191614649Y-76288152D02*
X191567030Y-76097676D01*
X191567030Y-76097676D02*
X191471792Y-76002438D01*
X191471792Y-76002438D02*
X191376554Y-75954819D01*
X189995602Y-76954819D02*
X190567030Y-76954819D01*
X190281316Y-76954819D02*
X190281316Y-75954819D01*
X190281316Y-75954819D02*
X190376554Y-76097676D01*
X190376554Y-76097676D02*
X190471792Y-76192914D01*
X190471792Y-76192914D02*
X190567030Y-76240533D01*
X189662268Y-75954819D02*
X189043221Y-75954819D01*
X189043221Y-75954819D02*
X189376554Y-76335771D01*
X189376554Y-76335771D02*
X189233697Y-76335771D01*
X189233697Y-76335771D02*
X189138459Y-76383390D01*
X189138459Y-76383390D02*
X189090840Y-76431009D01*
X189090840Y-76431009D02*
X189043221Y-76526247D01*
X189043221Y-76526247D02*
X189043221Y-76764342D01*
X189043221Y-76764342D02*
X189090840Y-76859580D01*
X189090840Y-76859580D02*
X189138459Y-76907200D01*
X189138459Y-76907200D02*
X189233697Y-76954819D01*
X189233697Y-76954819D02*
X189519411Y-76954819D01*
X189519411Y-76954819D02*
X189614649Y-76907200D01*
X189614649Y-76907200D02*
X189662268Y-76859580D01*
X192519411Y-86392437D02*
X192614649Y-86344818D01*
X192614649Y-86344818D02*
X192757506Y-86344818D01*
X192757506Y-86344818D02*
X192900363Y-86392437D01*
X192900363Y-86392437D02*
X192995601Y-86487675D01*
X192995601Y-86487675D02*
X193043220Y-86582913D01*
X193043220Y-86582913D02*
X193090839Y-86773389D01*
X193090839Y-86773389D02*
X193090839Y-86916246D01*
X193090839Y-86916246D02*
X193043220Y-87106722D01*
X193043220Y-87106722D02*
X192995601Y-87201960D01*
X192995601Y-87201960D02*
X192900363Y-87297199D01*
X192900363Y-87297199D02*
X192757506Y-87344818D01*
X192757506Y-87344818D02*
X192662268Y-87344818D01*
X192662268Y-87344818D02*
X192519411Y-87297199D01*
X192519411Y-87297199D02*
X192471792Y-87249579D01*
X192471792Y-87249579D02*
X192471792Y-86916246D01*
X192471792Y-86916246D02*
X192662268Y-86916246D01*
X192043220Y-87344818D02*
X192043220Y-86344818D01*
X192043220Y-86344818D02*
X191662268Y-86344818D01*
X191662268Y-86344818D02*
X191567030Y-86392437D01*
X191567030Y-86392437D02*
X191519411Y-86440056D01*
X191519411Y-86440056D02*
X191471792Y-86535294D01*
X191471792Y-86535294D02*
X191471792Y-86678151D01*
X191471792Y-86678151D02*
X191519411Y-86773389D01*
X191519411Y-86773389D02*
X191567030Y-86821008D01*
X191567030Y-86821008D02*
X191662268Y-86868627D01*
X191662268Y-86868627D02*
X192043220Y-86868627D01*
X191043220Y-87344818D02*
X191043220Y-86344818D01*
X190376554Y-86344818D02*
X190186078Y-86344818D01*
X190186078Y-86344818D02*
X190090840Y-86392437D01*
X190090840Y-86392437D02*
X189995602Y-86487675D01*
X189995602Y-86487675D02*
X189947983Y-86678151D01*
X189947983Y-86678151D02*
X189947983Y-87011484D01*
X189947983Y-87011484D02*
X189995602Y-87201960D01*
X189995602Y-87201960D02*
X190090840Y-87297199D01*
X190090840Y-87297199D02*
X190186078Y-87344818D01*
X190186078Y-87344818D02*
X190376554Y-87344818D01*
X190376554Y-87344818D02*
X190471792Y-87297199D01*
X190471792Y-87297199D02*
X190567030Y-87201960D01*
X190567030Y-87201960D02*
X190614649Y-87011484D01*
X190614649Y-87011484D02*
X190614649Y-86678151D01*
X190614649Y-86678151D02*
X190567030Y-86487675D01*
X190567030Y-86487675D02*
X190471792Y-86392437D01*
X190471792Y-86392437D02*
X190376554Y-86344818D01*
X189471792Y-87344818D02*
X189281316Y-87344818D01*
X189281316Y-87344818D02*
X189186078Y-87297199D01*
X189186078Y-87297199D02*
X189138459Y-87249579D01*
X189138459Y-87249579D02*
X189043221Y-87106722D01*
X189043221Y-87106722D02*
X188995602Y-86916246D01*
X188995602Y-86916246D02*
X188995602Y-86535294D01*
X188995602Y-86535294D02*
X189043221Y-86440056D01*
X189043221Y-86440056D02*
X189090840Y-86392437D01*
X189090840Y-86392437D02*
X189186078Y-86344818D01*
X189186078Y-86344818D02*
X189376554Y-86344818D01*
X189376554Y-86344818D02*
X189471792Y-86392437D01*
X189471792Y-86392437D02*
X189519411Y-86440056D01*
X189519411Y-86440056D02*
X189567030Y-86535294D01*
X189567030Y-86535294D02*
X189567030Y-86773389D01*
X189567030Y-86773389D02*
X189519411Y-86868627D01*
X189519411Y-86868627D02*
X189471792Y-86916246D01*
X189471792Y-86916246D02*
X189376554Y-86963865D01*
X189376554Y-86963865D02*
X189186078Y-86963865D01*
X189186078Y-86963865D02*
X189090840Y-86916246D01*
X189090840Y-86916246D02*
X189043221Y-86868627D01*
X189043221Y-86868627D02*
X188995602Y-86773389D01*
X193519411Y-83622438D02*
X193614649Y-83574819D01*
X193614649Y-83574819D02*
X193757506Y-83574819D01*
X193757506Y-83574819D02*
X193900363Y-83622438D01*
X193900363Y-83622438D02*
X193995601Y-83717676D01*
X193995601Y-83717676D02*
X194043220Y-83812914D01*
X194043220Y-83812914D02*
X194090839Y-84003390D01*
X194090839Y-84003390D02*
X194090839Y-84146247D01*
X194090839Y-84146247D02*
X194043220Y-84336723D01*
X194043220Y-84336723D02*
X193995601Y-84431961D01*
X193995601Y-84431961D02*
X193900363Y-84527200D01*
X193900363Y-84527200D02*
X193757506Y-84574819D01*
X193757506Y-84574819D02*
X193662268Y-84574819D01*
X193662268Y-84574819D02*
X193519411Y-84527200D01*
X193519411Y-84527200D02*
X193471792Y-84479580D01*
X193471792Y-84479580D02*
X193471792Y-84146247D01*
X193471792Y-84146247D02*
X193662268Y-84146247D01*
X193043220Y-84574819D02*
X193043220Y-83574819D01*
X193043220Y-83574819D02*
X192662268Y-83574819D01*
X192662268Y-83574819D02*
X192567030Y-83622438D01*
X192567030Y-83622438D02*
X192519411Y-83670057D01*
X192519411Y-83670057D02*
X192471792Y-83765295D01*
X192471792Y-83765295D02*
X192471792Y-83908152D01*
X192471792Y-83908152D02*
X192519411Y-84003390D01*
X192519411Y-84003390D02*
X192567030Y-84051009D01*
X192567030Y-84051009D02*
X192662268Y-84098628D01*
X192662268Y-84098628D02*
X193043220Y-84098628D01*
X192043220Y-84574819D02*
X192043220Y-83574819D01*
X191376554Y-83574819D02*
X191186078Y-83574819D01*
X191186078Y-83574819D02*
X191090840Y-83622438D01*
X191090840Y-83622438D02*
X190995602Y-83717676D01*
X190995602Y-83717676D02*
X190947983Y-83908152D01*
X190947983Y-83908152D02*
X190947983Y-84241485D01*
X190947983Y-84241485D02*
X190995602Y-84431961D01*
X190995602Y-84431961D02*
X191090840Y-84527200D01*
X191090840Y-84527200D02*
X191186078Y-84574819D01*
X191186078Y-84574819D02*
X191376554Y-84574819D01*
X191376554Y-84574819D02*
X191471792Y-84527200D01*
X191471792Y-84527200D02*
X191567030Y-84431961D01*
X191567030Y-84431961D02*
X191614649Y-84241485D01*
X191614649Y-84241485D02*
X191614649Y-83908152D01*
X191614649Y-83908152D02*
X191567030Y-83717676D01*
X191567030Y-83717676D02*
X191471792Y-83622438D01*
X191471792Y-83622438D02*
X191376554Y-83574819D01*
X189995602Y-84574819D02*
X190567030Y-84574819D01*
X190281316Y-84574819D02*
X190281316Y-83574819D01*
X190281316Y-83574819D02*
X190376554Y-83717676D01*
X190376554Y-83717676D02*
X190471792Y-83812914D01*
X190471792Y-83812914D02*
X190567030Y-83860533D01*
X189376554Y-83574819D02*
X189281316Y-83574819D01*
X189281316Y-83574819D02*
X189186078Y-83622438D01*
X189186078Y-83622438D02*
X189138459Y-83670057D01*
X189138459Y-83670057D02*
X189090840Y-83765295D01*
X189090840Y-83765295D02*
X189043221Y-83955771D01*
X189043221Y-83955771D02*
X189043221Y-84193866D01*
X189043221Y-84193866D02*
X189090840Y-84384342D01*
X189090840Y-84384342D02*
X189138459Y-84479580D01*
X189138459Y-84479580D02*
X189186078Y-84527200D01*
X189186078Y-84527200D02*
X189281316Y-84574819D01*
X189281316Y-84574819D02*
X189376554Y-84574819D01*
X189376554Y-84574819D02*
X189471792Y-84527200D01*
X189471792Y-84527200D02*
X189519411Y-84479580D01*
X189519411Y-84479580D02*
X189567030Y-84384342D01*
X189567030Y-84384342D02*
X189614649Y-84193866D01*
X189614649Y-84193866D02*
X189614649Y-83955771D01*
X189614649Y-83955771D02*
X189567030Y-83765295D01*
X189567030Y-83765295D02*
X189519411Y-83670057D01*
X189519411Y-83670057D02*
X189471792Y-83622438D01*
X189471792Y-83622438D02*
X189376554Y-83574819D01*
X192519411Y-91242438D02*
X192614649Y-91194819D01*
X192614649Y-91194819D02*
X192757506Y-91194819D01*
X192757506Y-91194819D02*
X192900363Y-91242438D01*
X192900363Y-91242438D02*
X192995601Y-91337676D01*
X192995601Y-91337676D02*
X193043220Y-91432914D01*
X193043220Y-91432914D02*
X193090839Y-91623390D01*
X193090839Y-91623390D02*
X193090839Y-91766247D01*
X193090839Y-91766247D02*
X193043220Y-91956723D01*
X193043220Y-91956723D02*
X192995601Y-92051961D01*
X192995601Y-92051961D02*
X192900363Y-92147200D01*
X192900363Y-92147200D02*
X192757506Y-92194819D01*
X192757506Y-92194819D02*
X192662268Y-92194819D01*
X192662268Y-92194819D02*
X192519411Y-92147200D01*
X192519411Y-92147200D02*
X192471792Y-92099580D01*
X192471792Y-92099580D02*
X192471792Y-91766247D01*
X192471792Y-91766247D02*
X192662268Y-91766247D01*
X192043220Y-92194819D02*
X192043220Y-91194819D01*
X192043220Y-91194819D02*
X191662268Y-91194819D01*
X191662268Y-91194819D02*
X191567030Y-91242438D01*
X191567030Y-91242438D02*
X191519411Y-91290057D01*
X191519411Y-91290057D02*
X191471792Y-91385295D01*
X191471792Y-91385295D02*
X191471792Y-91528152D01*
X191471792Y-91528152D02*
X191519411Y-91623390D01*
X191519411Y-91623390D02*
X191567030Y-91671009D01*
X191567030Y-91671009D02*
X191662268Y-91718628D01*
X191662268Y-91718628D02*
X192043220Y-91718628D01*
X191043220Y-92194819D02*
X191043220Y-91194819D01*
X190376554Y-91194819D02*
X190186078Y-91194819D01*
X190186078Y-91194819D02*
X190090840Y-91242438D01*
X190090840Y-91242438D02*
X189995602Y-91337676D01*
X189995602Y-91337676D02*
X189947983Y-91528152D01*
X189947983Y-91528152D02*
X189947983Y-91861485D01*
X189947983Y-91861485D02*
X189995602Y-92051961D01*
X189995602Y-92051961D02*
X190090840Y-92147200D01*
X190090840Y-92147200D02*
X190186078Y-92194819D01*
X190186078Y-92194819D02*
X190376554Y-92194819D01*
X190376554Y-92194819D02*
X190471792Y-92147200D01*
X190471792Y-92147200D02*
X190567030Y-92051961D01*
X190567030Y-92051961D02*
X190614649Y-91861485D01*
X190614649Y-91861485D02*
X190614649Y-91528152D01*
X190614649Y-91528152D02*
X190567030Y-91337676D01*
X190567030Y-91337676D02*
X190471792Y-91242438D01*
X190471792Y-91242438D02*
X190376554Y-91194819D01*
X189614649Y-91194819D02*
X188947983Y-91194819D01*
X188947983Y-91194819D02*
X189376554Y-92194819D01*
X199869411Y-78542438D02*
X199964649Y-78494819D01*
X199964649Y-78494819D02*
X200107506Y-78494819D01*
X200107506Y-78494819D02*
X200250363Y-78542438D01*
X200250363Y-78542438D02*
X200345601Y-78637676D01*
X200345601Y-78637676D02*
X200393220Y-78732914D01*
X200393220Y-78732914D02*
X200440839Y-78923390D01*
X200440839Y-78923390D02*
X200440839Y-79066247D01*
X200440839Y-79066247D02*
X200393220Y-79256723D01*
X200393220Y-79256723D02*
X200345601Y-79351961D01*
X200345601Y-79351961D02*
X200250363Y-79447200D01*
X200250363Y-79447200D02*
X200107506Y-79494819D01*
X200107506Y-79494819D02*
X200012268Y-79494819D01*
X200012268Y-79494819D02*
X199869411Y-79447200D01*
X199869411Y-79447200D02*
X199821792Y-79399580D01*
X199821792Y-79399580D02*
X199821792Y-79066247D01*
X199821792Y-79066247D02*
X200012268Y-79066247D01*
X199393220Y-79494819D02*
X199393220Y-78494819D01*
X199393220Y-78494819D02*
X199012268Y-78494819D01*
X199012268Y-78494819D02*
X198917030Y-78542438D01*
X198917030Y-78542438D02*
X198869411Y-78590057D01*
X198869411Y-78590057D02*
X198821792Y-78685295D01*
X198821792Y-78685295D02*
X198821792Y-78828152D01*
X198821792Y-78828152D02*
X198869411Y-78923390D01*
X198869411Y-78923390D02*
X198917030Y-78971009D01*
X198917030Y-78971009D02*
X199012268Y-79018628D01*
X199012268Y-79018628D02*
X199393220Y-79018628D01*
X198393220Y-79494819D02*
X198393220Y-78494819D01*
X197726554Y-78494819D02*
X197536078Y-78494819D01*
X197536078Y-78494819D02*
X197440840Y-78542438D01*
X197440840Y-78542438D02*
X197345602Y-78637676D01*
X197345602Y-78637676D02*
X197297983Y-78828152D01*
X197297983Y-78828152D02*
X197297983Y-79161485D01*
X197297983Y-79161485D02*
X197345602Y-79351961D01*
X197345602Y-79351961D02*
X197440840Y-79447200D01*
X197440840Y-79447200D02*
X197536078Y-79494819D01*
X197536078Y-79494819D02*
X197726554Y-79494819D01*
X197726554Y-79494819D02*
X197821792Y-79447200D01*
X197821792Y-79447200D02*
X197917030Y-79351961D01*
X197917030Y-79351961D02*
X197964649Y-79161485D01*
X197964649Y-79161485D02*
X197964649Y-78828152D01*
X197964649Y-78828152D02*
X197917030Y-78637676D01*
X197917030Y-78637676D02*
X197821792Y-78542438D01*
X197821792Y-78542438D02*
X197726554Y-78494819D01*
X196345602Y-79494819D02*
X196917030Y-79494819D01*
X196631316Y-79494819D02*
X196631316Y-78494819D01*
X196631316Y-78494819D02*
X196726554Y-78637676D01*
X196726554Y-78637676D02*
X196821792Y-78732914D01*
X196821792Y-78732914D02*
X196917030Y-78780533D01*
X199639412Y-83622438D02*
X199734650Y-83574819D01*
X199734650Y-83574819D02*
X199877507Y-83574819D01*
X199877507Y-83574819D02*
X200020364Y-83622438D01*
X200020364Y-83622438D02*
X200115602Y-83717676D01*
X200115602Y-83717676D02*
X200163221Y-83812914D01*
X200163221Y-83812914D02*
X200210840Y-84003390D01*
X200210840Y-84003390D02*
X200210840Y-84146247D01*
X200210840Y-84146247D02*
X200163221Y-84336723D01*
X200163221Y-84336723D02*
X200115602Y-84431961D01*
X200115602Y-84431961D02*
X200020364Y-84527200D01*
X200020364Y-84527200D02*
X199877507Y-84574819D01*
X199877507Y-84574819D02*
X199782269Y-84574819D01*
X199782269Y-84574819D02*
X199639412Y-84527200D01*
X199639412Y-84527200D02*
X199591793Y-84479580D01*
X199591793Y-84479580D02*
X199591793Y-84146247D01*
X199591793Y-84146247D02*
X199782269Y-84146247D01*
X199163221Y-84574819D02*
X199163221Y-83574819D01*
X199163221Y-83574819D02*
X198782269Y-83574819D01*
X198782269Y-83574819D02*
X198687031Y-83622438D01*
X198687031Y-83622438D02*
X198639412Y-83670057D01*
X198639412Y-83670057D02*
X198591793Y-83765295D01*
X198591793Y-83765295D02*
X198591793Y-83908152D01*
X198591793Y-83908152D02*
X198639412Y-84003390D01*
X198639412Y-84003390D02*
X198687031Y-84051009D01*
X198687031Y-84051009D02*
X198782269Y-84098628D01*
X198782269Y-84098628D02*
X199163221Y-84098628D01*
X198163221Y-84574819D02*
X198163221Y-83574819D01*
X197496555Y-83574819D02*
X197306079Y-83574819D01*
X197306079Y-83574819D02*
X197210841Y-83622438D01*
X197210841Y-83622438D02*
X197115603Y-83717676D01*
X197115603Y-83717676D02*
X197067984Y-83908152D01*
X197067984Y-83908152D02*
X197067984Y-84241485D01*
X197067984Y-84241485D02*
X197115603Y-84431961D01*
X197115603Y-84431961D02*
X197210841Y-84527200D01*
X197210841Y-84527200D02*
X197306079Y-84574819D01*
X197306079Y-84574819D02*
X197496555Y-84574819D01*
X197496555Y-84574819D02*
X197591793Y-84527200D01*
X197591793Y-84527200D02*
X197687031Y-84431961D01*
X197687031Y-84431961D02*
X197734650Y-84241485D01*
X197734650Y-84241485D02*
X197734650Y-83908152D01*
X197734650Y-83908152D02*
X197687031Y-83717676D01*
X197687031Y-83717676D02*
X197591793Y-83622438D01*
X197591793Y-83622438D02*
X197496555Y-83574819D01*
X196734650Y-83574819D02*
X196115603Y-83574819D01*
X196115603Y-83574819D02*
X196448936Y-83955771D01*
X196448936Y-83955771D02*
X196306079Y-83955771D01*
X196306079Y-83955771D02*
X196210841Y-84003390D01*
X196210841Y-84003390D02*
X196163222Y-84051009D01*
X196163222Y-84051009D02*
X196115603Y-84146247D01*
X196115603Y-84146247D02*
X196115603Y-84384342D01*
X196115603Y-84384342D02*
X196163222Y-84479580D01*
X196163222Y-84479580D02*
X196210841Y-84527200D01*
X196210841Y-84527200D02*
X196306079Y-84574819D01*
X196306079Y-84574819D02*
X196591793Y-84574819D01*
X196591793Y-84574819D02*
X196687031Y-84527200D01*
X196687031Y-84527200D02*
X196734650Y-84479580D01*
X199639412Y-91242438D02*
X199734650Y-91194819D01*
X199734650Y-91194819D02*
X199877507Y-91194819D01*
X199877507Y-91194819D02*
X200020364Y-91242438D01*
X200020364Y-91242438D02*
X200115602Y-91337676D01*
X200115602Y-91337676D02*
X200163221Y-91432914D01*
X200163221Y-91432914D02*
X200210840Y-91623390D01*
X200210840Y-91623390D02*
X200210840Y-91766247D01*
X200210840Y-91766247D02*
X200163221Y-91956723D01*
X200163221Y-91956723D02*
X200115602Y-92051961D01*
X200115602Y-92051961D02*
X200020364Y-92147200D01*
X200020364Y-92147200D02*
X199877507Y-92194819D01*
X199877507Y-92194819D02*
X199782269Y-92194819D01*
X199782269Y-92194819D02*
X199639412Y-92147200D01*
X199639412Y-92147200D02*
X199591793Y-92099580D01*
X199591793Y-92099580D02*
X199591793Y-91766247D01*
X199591793Y-91766247D02*
X199782269Y-91766247D01*
X199163221Y-92194819D02*
X199163221Y-91194819D01*
X199163221Y-91194819D02*
X198782269Y-91194819D01*
X198782269Y-91194819D02*
X198687031Y-91242438D01*
X198687031Y-91242438D02*
X198639412Y-91290057D01*
X198639412Y-91290057D02*
X198591793Y-91385295D01*
X198591793Y-91385295D02*
X198591793Y-91528152D01*
X198591793Y-91528152D02*
X198639412Y-91623390D01*
X198639412Y-91623390D02*
X198687031Y-91671009D01*
X198687031Y-91671009D02*
X198782269Y-91718628D01*
X198782269Y-91718628D02*
X199163221Y-91718628D01*
X198163221Y-92194819D02*
X198163221Y-91194819D01*
X197496555Y-91194819D02*
X197306079Y-91194819D01*
X197306079Y-91194819D02*
X197210841Y-91242438D01*
X197210841Y-91242438D02*
X197115603Y-91337676D01*
X197115603Y-91337676D02*
X197067984Y-91528152D01*
X197067984Y-91528152D02*
X197067984Y-91861485D01*
X197067984Y-91861485D02*
X197115603Y-92051961D01*
X197115603Y-92051961D02*
X197210841Y-92147200D01*
X197210841Y-92147200D02*
X197306079Y-92194819D01*
X197306079Y-92194819D02*
X197496555Y-92194819D01*
X197496555Y-92194819D02*
X197591793Y-92147200D01*
X197591793Y-92147200D02*
X197687031Y-92051961D01*
X197687031Y-92051961D02*
X197734650Y-91861485D01*
X197734650Y-91861485D02*
X197734650Y-91528152D01*
X197734650Y-91528152D02*
X197687031Y-91337676D01*
X197687031Y-91337676D02*
X197591793Y-91242438D01*
X197591793Y-91242438D02*
X197496555Y-91194819D01*
X196210841Y-91194819D02*
X196401317Y-91194819D01*
X196401317Y-91194819D02*
X196496555Y-91242438D01*
X196496555Y-91242438D02*
X196544174Y-91290057D01*
X196544174Y-91290057D02*
X196639412Y-91432914D01*
X196639412Y-91432914D02*
X196687031Y-91623390D01*
X196687031Y-91623390D02*
X196687031Y-92004342D01*
X196687031Y-92004342D02*
X196639412Y-92099580D01*
X196639412Y-92099580D02*
X196591793Y-92147200D01*
X196591793Y-92147200D02*
X196496555Y-92194819D01*
X196496555Y-92194819D02*
X196306079Y-92194819D01*
X196306079Y-92194819D02*
X196210841Y-92147200D01*
X196210841Y-92147200D02*
X196163222Y-92099580D01*
X196163222Y-92099580D02*
X196115603Y-92004342D01*
X196115603Y-92004342D02*
X196115603Y-91766247D01*
X196115603Y-91766247D02*
X196163222Y-91671009D01*
X196163222Y-91671009D02*
X196210841Y-91623390D01*
X196210841Y-91623390D02*
X196306079Y-91575771D01*
X196306079Y-91575771D02*
X196496555Y-91575771D01*
X196496555Y-91575771D02*
X196591793Y-91623390D01*
X196591793Y-91623390D02*
X196639412Y-91671009D01*
X196639412Y-91671009D02*
X196687031Y-91766247D01*
X95666666Y-100359580D02*
X95714285Y-100407200D01*
X95714285Y-100407200D02*
X95857142Y-100454819D01*
X95857142Y-100454819D02*
X95952380Y-100454819D01*
X95952380Y-100454819D02*
X96095237Y-100407200D01*
X96095237Y-100407200D02*
X96190475Y-100311961D01*
X96190475Y-100311961D02*
X96238094Y-100216723D01*
X96238094Y-100216723D02*
X96285713Y-100026247D01*
X96285713Y-100026247D02*
X96285713Y-99883390D01*
X96285713Y-99883390D02*
X96238094Y-99692914D01*
X96238094Y-99692914D02*
X96190475Y-99597676D01*
X96190475Y-99597676D02*
X96095237Y-99502438D01*
X96095237Y-99502438D02*
X95952380Y-99454819D01*
X95952380Y-99454819D02*
X95857142Y-99454819D01*
X95857142Y-99454819D02*
X95714285Y-99502438D01*
X95714285Y-99502438D02*
X95666666Y-99550057D01*
X94809523Y-99788152D02*
X94809523Y-100454819D01*
X95047618Y-99407200D02*
X95285713Y-100121485D01*
X95285713Y-100121485D02*
X94666666Y-100121485D01*
X162666666Y-85954819D02*
X162999999Y-85478628D01*
X163238094Y-85954819D02*
X163238094Y-84954819D01*
X163238094Y-84954819D02*
X162857142Y-84954819D01*
X162857142Y-84954819D02*
X162761904Y-85002438D01*
X162761904Y-85002438D02*
X162714285Y-85050057D01*
X162714285Y-85050057D02*
X162666666Y-85145295D01*
X162666666Y-85145295D02*
X162666666Y-85288152D01*
X162666666Y-85288152D02*
X162714285Y-85383390D01*
X162714285Y-85383390D02*
X162761904Y-85431009D01*
X162761904Y-85431009D02*
X162857142Y-85478628D01*
X162857142Y-85478628D02*
X163238094Y-85478628D01*
X162285713Y-85050057D02*
X162238094Y-85002438D01*
X162238094Y-85002438D02*
X162142856Y-84954819D01*
X162142856Y-84954819D02*
X161904761Y-84954819D01*
X161904761Y-84954819D02*
X161809523Y-85002438D01*
X161809523Y-85002438D02*
X161761904Y-85050057D01*
X161761904Y-85050057D02*
X161714285Y-85145295D01*
X161714285Y-85145295D02*
X161714285Y-85240533D01*
X161714285Y-85240533D02*
X161761904Y-85383390D01*
X161761904Y-85383390D02*
X162333332Y-85954819D01*
X162333332Y-85954819D02*
X161714285Y-85954819D01*
X167184819Y-91666666D02*
X167899104Y-91666666D01*
X167899104Y-91666666D02*
X168041961Y-91619047D01*
X168041961Y-91619047D02*
X168137200Y-91523809D01*
X168137200Y-91523809D02*
X168184819Y-91380952D01*
X168184819Y-91380952D02*
X168184819Y-91285714D01*
X167280057Y-92095238D02*
X167232438Y-92142857D01*
X167232438Y-92142857D02*
X167184819Y-92238095D01*
X167184819Y-92238095D02*
X167184819Y-92476190D01*
X167184819Y-92476190D02*
X167232438Y-92571428D01*
X167232438Y-92571428D02*
X167280057Y-92619047D01*
X167280057Y-92619047D02*
X167375295Y-92666666D01*
X167375295Y-92666666D02*
X167470533Y-92666666D01*
X167470533Y-92666666D02*
X167613390Y-92619047D01*
X167613390Y-92619047D02*
X168184819Y-92047619D01*
X168184819Y-92047619D02*
X168184819Y-92666666D01*
D13*
X210880000Y-85630000D02*
X210880000Y-86075000D01*
X210880000Y-87925000D02*
X210880000Y-88370000D01*
X217120000Y-85630000D02*
X210880000Y-85630000D01*
X217120000Y-85630000D02*
X217120000Y-86075000D01*
X217120000Y-87925000D02*
X217120000Y-88370000D01*
X217120000Y-88370000D02*
X210880000Y-88370000D01*
X160580000Y-82080000D02*
X160580000Y-83920000D01*
X160580000Y-83000000D02*
X159630000Y-83000000D01*
X160580000Y-83920000D02*
X164420000Y-83920000D01*
X164420000Y-82080000D02*
X160580000Y-82080000D01*
X164420000Y-83000000D02*
X165370000Y-83000000D01*
X164420000Y-83920000D02*
X164420000Y-82080000D01*
X185380000Y-69830000D02*
X185380000Y-93330000D01*
X185380000Y-93330000D02*
X203380000Y-93330000D01*
X191840000Y-68880000D02*
X196920000Y-68880000D01*
X191840000Y-69830000D02*
X191840000Y-68880000D01*
X196920000Y-68880000D02*
X196920000Y-69830000D01*
X203380000Y-69830000D02*
X185380000Y-69830000D01*
X203380000Y-93330000D02*
X203380000Y-69830000D01*
X92380000Y-98630000D02*
X98620000Y-98630000D01*
X92380000Y-99075000D02*
X92380000Y-98630000D01*
X92380000Y-101370000D02*
X92380000Y-100925000D01*
X92380000Y-101370000D02*
X98620000Y-101370000D01*
X98620000Y-99075000D02*
X98620000Y-98630000D01*
X98620000Y-101370000D02*
X98620000Y-100925000D01*
X220170000Y-88670000D02*
X221500000Y-88670000D01*
X220170000Y-90000000D02*
X220170000Y-88670000D01*
X220170000Y-91270000D02*
X222830000Y-91270000D01*
X220170000Y-98950000D02*
X220170000Y-91270000D01*
X220170000Y-98950000D02*
X222830000Y-98950000D01*
X222830000Y-98950000D02*
X222830000Y-91270000D01*
X160580000Y-84580000D02*
X160580000Y-86420000D01*
X160580000Y-85500000D02*
X159630000Y-85500000D01*
X160580000Y-86420000D02*
X164420000Y-86420000D01*
X164420000Y-84580000D02*
X160580000Y-84580000D01*
X164420000Y-85500000D02*
X165370000Y-85500000D01*
X164420000Y-86420000D02*
X164420000Y-84580000D01*
X169170000Y-86330000D02*
X169170000Y-85000000D01*
X170500000Y-86330000D02*
X169170000Y-86330000D01*
X171770000Y-86330000D02*
X171770000Y-83670000D01*
X179450000Y-83670000D02*
X171770000Y-83670000D01*
X179450000Y-86330000D02*
X171770000Y-86330000D01*
X179450000Y-86330000D02*
X179450000Y-83670000D01*
%LPC*%
D14*
X98000000Y-95600000D03*
D15*
X98000000Y-94000000D03*
X98000000Y-92400000D03*
D16*
X56500000Y-115000000D03*
D17*
X59000000Y-115000000D03*
X61500000Y-115000000D03*
D18*
X54600000Y-108000000D03*
X63400000Y-108000000D03*
D19*
X153000000Y-104000000D03*
X48500000Y-84500000D03*
X90000000Y-103500000D03*
X153000000Y-84000000D03*
X221500000Y-113500000D03*
D20*
X208000000Y-92700000D03*
D15*
X208000000Y-94000000D03*
X208000000Y-95300000D03*
D21*
X76500000Y-107500000D03*
D22*
X76500000Y-107500000D03*
D19*
X221500000Y-103500000D03*
X221500000Y-74500000D03*
X90000000Y-84500000D03*
X90000000Y-113500000D03*
D16*
X56500000Y-85000000D03*
D17*
X59000000Y-85000000D03*
X61500000Y-85000000D03*
D18*
X63400000Y-78000000D03*
X54600000Y-77950000D03*
D19*
X48500000Y-113500000D03*
D21*
X76500000Y-78500000D03*
D22*
X76500000Y-78500000D03*
D19*
X221500000Y-84500000D03*
X48500000Y-103500000D03*
X90000000Y-74500000D03*
X48500000Y-74500000D03*
D23*
X211500000Y-87000000D03*
X216500000Y-87000000D03*
D24*
X158690000Y-83000000D03*
D25*
X166310000Y-83000000D03*
D26*
X202000000Y-71420000D03*
X202000000Y-73960000D03*
X202000000Y-76500000D03*
X202000000Y-79040000D03*
X202000000Y-81580000D03*
X202000000Y-84120000D03*
X202000000Y-86660000D03*
X202000000Y-89200000D03*
X202000000Y-91740000D03*
D27*
X186760000Y-91740000D03*
X186760000Y-89200000D03*
X186760000Y-86660000D03*
X186760000Y-84120000D03*
X186760000Y-81580000D03*
X186760000Y-79040000D03*
X186760000Y-76500000D03*
X186760000Y-73960000D03*
X186760000Y-71420000D03*
D23*
X98000000Y-100000000D03*
X93000000Y-100000000D03*
D28*
X221500000Y-90000000D03*
D29*
X221500000Y-92540000D03*
X221500000Y-95080000D03*
X221500000Y-97620000D03*
D24*
X158690000Y-85500000D03*
D25*
X166310000Y-85500000D03*
D28*
X170500000Y-85000000D03*
D29*
X173040000Y-85000000D03*
X175580000Y-85000000D03*
X178120000Y-85000000D03*
%LPD*%
M02*
