G04 #@! TF.GenerationSoftware,KiCad,Pcbnew,8.0.7*
G04 #@! TF.CreationDate,2025-07-02T22:20:04-04:00*
G04 #@! TF.ProjectId,Sum25_GTR,53756d32-355f-4475-9452-2e6b69636164,rev?*
G04 #@! TF.SameCoordinates,Original*
G04 #@! TF.FileFunction,Copper,L1,Top*
G04 #@! TF.FilePolarity,Positive*
%FSLAX46Y46*%
G04 Gerber Fmt 4.6, Leading zero omitted, Abs format (unit mm)*
G04 Created by KiCad (PCBNEW 8.0.7) date 2025-07-02 22:20:04*
%MOMM*%
%LPD*%
G01*
G04 APERTURE LIST*
G04 Aperture macros list*
%AMRoundRect*
0 Rectangle with rounded corners*
0 $1 Rounding radius*
0 $2 $3 $4 $5 $6 $7 $8 $9 X,Y pos of 4 corners*
0 Add a 4 corners polygon primitive as box body*
4,1,4,$2,$3,$4,$5,$6,$7,$8,$9,$2,$3,0*
0 Add four circle primitives for the rounded corners*
1,1,$1+$1,$2,$3*
1,1,$1+$1,$4,$5*
1,1,$1+$1,$6,$7*
1,1,$1+$1,$8,$9*
0 Add four rect primitives between the rounded corners*
20,1,$1+$1,$2,$3,$4,$5,0*
20,1,$1+$1,$4,$5,$6,$7,0*
20,1,$1+$1,$6,$7,$8,$9,0*
20,1,$1+$1,$8,$9,$2,$3,0*%
G04 Aperture macros list end*
G04 #@! TA.AperFunction,ComponentPad*
%ADD10R,1.800000X1.800000*%
G04 #@! TD*
G04 #@! TA.AperFunction,ComponentPad*
%ADD11C,1.800000*%
G04 #@! TD*
G04 #@! TA.AperFunction,ComponentPad*
%ADD12RoundRect,0.750000X0.750000X-1.250000X0.750000X1.250000X-0.750000X1.250000X-0.750000X-1.250000X0*%
G04 #@! TD*
G04 #@! TA.AperFunction,ComponentPad*
%ADD13RoundRect,0.249900X0.400100X-0.275100X0.400100X0.275100X-0.400100X0.275100X-0.400100X-0.275100X0*%
G04 #@! TD*
G04 #@! TA.AperFunction,ComponentPad*
%ADD14O,1.300000X1.050000*%
G04 #@! TD*
G04 #@! TA.AperFunction,ComponentPad*
%ADD15RoundRect,0.249900X-0.400100X0.275100X-0.400100X-0.275100X0.400100X-0.275100X0.400100X0.275100X0*%
G04 #@! TD*
G04 #@! TA.AperFunction,ComponentPad*
%ADD16C,6.800000*%
G04 #@! TD*
G04 #@! TA.AperFunction,ConnectorPad*
%ADD17C,11.000000*%
G04 #@! TD*
G04 #@! TA.AperFunction,ComponentPad*
%ADD18C,1.600000*%
G04 #@! TD*
G04 #@! TA.AperFunction,ComponentPad*
%ADD19R,1.700000X1.700000*%
G04 #@! TD*
G04 #@! TA.AperFunction,ComponentPad*
%ADD20O,1.700000X1.700000*%
G04 #@! TD*
G04 #@! TA.AperFunction,ComponentPad*
%ADD21C,1.400000*%
G04 #@! TD*
G04 #@! TA.AperFunction,ComponentPad*
%ADD22O,1.400000X1.400000*%
G04 #@! TD*
G04 #@! TA.AperFunction,ViaPad*
%ADD23C,0.800000*%
G04 #@! TD*
G04 #@! TA.AperFunction,Conductor*
%ADD24C,0.500000*%
G04 #@! TD*
G04 APERTURE END LIST*
D10*
X56500000Y-115000000D03*
D11*
X59000000Y-115000000D03*
X61500000Y-115000000D03*
D12*
X54600000Y-108000000D03*
X63400000Y-108000000D03*
D13*
X98000000Y-95300000D03*
D14*
X98000000Y-94000000D03*
X98000000Y-92700000D03*
D15*
X208000000Y-92700000D03*
D14*
X208000000Y-94000000D03*
X208000000Y-95300000D03*
D16*
X79500000Y-107500000D03*
D17*
X79500000Y-107500000D03*
D10*
X56500000Y-85000000D03*
D11*
X59000000Y-85000000D03*
X61500000Y-85000000D03*
D12*
X63400000Y-78000000D03*
X54600000Y-77950000D03*
D16*
X79500000Y-78500000D03*
D17*
X79500000Y-78500000D03*
D18*
X211500000Y-87000000D03*
X216500000Y-87000000D03*
D19*
X170500000Y-85000000D03*
D20*
X173040000Y-85000000D03*
X175580000Y-85000000D03*
X178120000Y-85000000D03*
D21*
X170690000Y-89960000D03*
D22*
X178310000Y-89960000D03*
D18*
X98000000Y-100000000D03*
X93000000Y-100000000D03*
D19*
X221500000Y-90000000D03*
D20*
X221500000Y-92540000D03*
X221500000Y-95080000D03*
X221500000Y-97620000D03*
D21*
X170690000Y-92460000D03*
D22*
X178310000Y-92460000D03*
D23*
X206000000Y-76500000D03*
X206500000Y-75000000D03*
X206500000Y-74000000D03*
X206500000Y-73000000D03*
D24*
X98000000Y-100000000D02*
X98000000Y-95500000D01*
X170690000Y-92460000D02*
X175650000Y-87500000D01*
X175650000Y-87500000D02*
X196000000Y-87500000D01*
X198500000Y-78000000D02*
X200000000Y-76500000D01*
X200000000Y-76500000D02*
X206000000Y-76500000D01*
X170690000Y-90150000D02*
X170500000Y-89960000D01*
X198500000Y-85000000D02*
X198500000Y-78000000D01*
X196000000Y-87500000D02*
X198500000Y-85000000D01*
X216500000Y-87000000D02*
X209500000Y-94000000D01*
X218500000Y-87000000D02*
X221500000Y-90000000D01*
X206500000Y-75000000D02*
X216500000Y-85000000D01*
X221500000Y-90000000D02*
X221000000Y-90000000D01*
X221000000Y-90000000D02*
X218000000Y-87000000D01*
X218000000Y-87000000D02*
X216500000Y-87000000D01*
X209500000Y-94000000D02*
X208000000Y-94000000D01*
X206500000Y-74000000D02*
X173000000Y-74000000D01*
X206500000Y-73000000D02*
X206500000Y-74000000D01*
X216500000Y-87000000D02*
X218500000Y-87000000D01*
X208000000Y-94000000D02*
X209000000Y-94000000D01*
X216500000Y-85000000D02*
X216500000Y-87000000D01*
X206500000Y-75000000D02*
X206500000Y-74000000D01*
G04 #@! TA.AperFunction,Conductor*
G36*
X176384159Y-70019685D02*
G01*
X176429914Y-70072489D01*
X176441115Y-70125023D01*
X176423076Y-72307792D01*
X176329209Y-83665635D01*
X176308971Y-83732509D01*
X176255791Y-83777826D01*
X176186552Y-83787198D01*
X176152809Y-83776992D01*
X176043669Y-83726099D01*
X176043655Y-83726094D01*
X175815413Y-83664938D01*
X175815403Y-83664936D01*
X175580001Y-83644341D01*
X175579999Y-83644341D01*
X175344596Y-83664936D01*
X175344586Y-83664938D01*
X175116344Y-83726094D01*
X175116335Y-83726098D01*
X174902171Y-83825964D01*
X174902169Y-83825965D01*
X174708597Y-83961505D01*
X174541505Y-84128597D01*
X174411575Y-84314158D01*
X174356998Y-84357783D01*
X174287500Y-84364977D01*
X174225145Y-84333454D01*
X174208425Y-84314158D01*
X174078494Y-84128597D01*
X173911402Y-83961506D01*
X173911395Y-83961501D01*
X173911029Y-83961245D01*
X173834854Y-83907906D01*
X173717834Y-83825967D01*
X173717830Y-83825965D01*
X173634694Y-83787198D01*
X173503663Y-83726097D01*
X173503659Y-83726096D01*
X173503655Y-83726094D01*
X173275413Y-83664938D01*
X173275403Y-83664936D01*
X173040001Y-83644341D01*
X173039999Y-83644341D01*
X172804596Y-83664936D01*
X172804586Y-83664938D01*
X172576344Y-83726094D01*
X172576335Y-83726098D01*
X172362171Y-83825964D01*
X172362169Y-83825965D01*
X172168600Y-83961503D01*
X172046284Y-84083819D01*
X171984961Y-84117303D01*
X171915269Y-84112319D01*
X171859336Y-84070447D01*
X171842421Y-84039470D01*
X171793354Y-83907913D01*
X171793350Y-83907906D01*
X171707190Y-83792812D01*
X171707187Y-83792809D01*
X171592093Y-83706649D01*
X171592086Y-83706645D01*
X171457379Y-83656403D01*
X171457372Y-83656401D01*
X171397844Y-83650000D01*
X170750000Y-83650000D01*
X170750000Y-84566988D01*
X170692993Y-84534075D01*
X170565826Y-84500000D01*
X170434174Y-84500000D01*
X170307007Y-84534075D01*
X170250000Y-84566988D01*
X170250000Y-83650000D01*
X169602155Y-83650000D01*
X169542627Y-83656401D01*
X169542620Y-83656403D01*
X169407913Y-83706645D01*
X169407906Y-83706649D01*
X169292812Y-83792809D01*
X169292809Y-83792812D01*
X169206649Y-83907906D01*
X169206645Y-83907913D01*
X169156403Y-84042620D01*
X169156401Y-84042627D01*
X169150000Y-84102155D01*
X169150000Y-84750000D01*
X170066988Y-84750000D01*
X170034075Y-84807007D01*
X170000000Y-84934174D01*
X170000000Y-85065826D01*
X170034075Y-85192993D01*
X170066988Y-85250000D01*
X169150000Y-85250000D01*
X169150000Y-85897844D01*
X169156401Y-85957372D01*
X169156403Y-85957379D01*
X169206645Y-86092086D01*
X169206649Y-86092093D01*
X169292809Y-86207187D01*
X169292812Y-86207190D01*
X169407906Y-86293350D01*
X169407913Y-86293354D01*
X169542620Y-86343596D01*
X169542627Y-86343598D01*
X169602155Y-86349999D01*
X169602172Y-86350000D01*
X170250000Y-86350000D01*
X170250000Y-85433012D01*
X170307007Y-85465925D01*
X170434174Y-85500000D01*
X170565826Y-85500000D01*
X170692993Y-85465925D01*
X170750000Y-85433012D01*
X170750000Y-86350000D01*
X171397828Y-86350000D01*
X171397844Y-86349999D01*
X171457372Y-86343598D01*
X171457379Y-86343596D01*
X171592086Y-86293354D01*
X171592093Y-86293350D01*
X171707187Y-86207190D01*
X171707190Y-86207187D01*
X171793350Y-86092093D01*
X171793354Y-86092086D01*
X171842422Y-85960529D01*
X171884293Y-85904595D01*
X171949757Y-85880178D01*
X172018030Y-85895030D01*
X172046285Y-85916181D01*
X172168599Y-86038495D01*
X172245135Y-86092086D01*
X172362165Y-86174032D01*
X172362167Y-86174033D01*
X172362170Y-86174035D01*
X172576337Y-86273903D01*
X172804592Y-86335063D01*
X172975319Y-86350000D01*
X173039999Y-86355659D01*
X173040000Y-86355659D01*
X173040001Y-86355659D01*
X173104681Y-86350000D01*
X173275408Y-86335063D01*
X173503663Y-86273903D01*
X173717830Y-86174035D01*
X173911401Y-86038495D01*
X174078495Y-85871401D01*
X174208425Y-85685842D01*
X174263002Y-85642217D01*
X174332500Y-85635023D01*
X174394855Y-85666546D01*
X174411575Y-85685842D01*
X174535729Y-85863153D01*
X174541505Y-85871401D01*
X174708599Y-86038495D01*
X174785135Y-86092086D01*
X174902165Y-86174032D01*
X174902167Y-86174033D01*
X174902170Y-86174035D01*
X175116337Y-86273903D01*
X175344592Y-86335063D01*
X175515319Y-86350000D01*
X175579999Y-86355659D01*
X175580000Y-86355659D01*
X175580001Y-86355659D01*
X175644681Y-86350000D01*
X175815408Y-86335063D01*
X176043663Y-86273903D01*
X176130654Y-86233338D01*
X176199727Y-86222847D01*
X176263511Y-86251366D01*
X176301751Y-86309842D01*
X176307051Y-86346746D01*
X176304739Y-86626525D01*
X176284501Y-86693399D01*
X176231321Y-86738716D01*
X176180743Y-86749500D01*
X175576080Y-86749500D01*
X175431092Y-86778340D01*
X175431082Y-86778343D01*
X175294511Y-86834912D01*
X175294498Y-86834919D01*
X175171584Y-86917048D01*
X175171580Y-86917051D01*
X172102181Y-89986449D01*
X172040858Y-90019934D01*
X171971166Y-90014950D01*
X171915233Y-89973078D01*
X171891029Y-89910209D01*
X171875115Y-89738464D01*
X171875114Y-89738462D01*
X171814230Y-89524476D01*
X171814229Y-89524472D01*
X171814224Y-89524461D01*
X171715061Y-89325316D01*
X171715056Y-89325308D01*
X171580979Y-89147761D01*
X171416562Y-88997876D01*
X171416560Y-88997874D01*
X171227404Y-88880754D01*
X171227398Y-88880752D01*
X171019940Y-88800382D01*
X170801243Y-88759500D01*
X170578757Y-88759500D01*
X170360060Y-88800382D01*
X170228864Y-88851207D01*
X170152601Y-88880752D01*
X170152595Y-88880754D01*
X169963439Y-88997874D01*
X169963437Y-88997876D01*
X169799020Y-89147761D01*
X169664943Y-89325308D01*
X169664938Y-89325316D01*
X169565775Y-89524461D01*
X169565769Y-89524476D01*
X169504885Y-89738462D01*
X169504884Y-89738464D01*
X169484357Y-89959999D01*
X169484357Y-89960000D01*
X169504884Y-90181535D01*
X169504885Y-90181537D01*
X169565769Y-90395523D01*
X169565775Y-90395538D01*
X169664938Y-90594683D01*
X169664943Y-90594691D01*
X169799020Y-90772238D01*
X169963437Y-90922123D01*
X169963439Y-90922125D01*
X170152595Y-91039245D01*
X170152596Y-91039245D01*
X170152599Y-91039247D01*
X170294898Y-91094374D01*
X170350298Y-91136946D01*
X170373889Y-91202713D01*
X170358178Y-91270793D01*
X170308154Y-91319572D01*
X170294906Y-91325622D01*
X170188693Y-91366769D01*
X170152601Y-91380752D01*
X170152595Y-91380754D01*
X169963439Y-91497874D01*
X169963437Y-91497876D01*
X169799020Y-91647761D01*
X169664943Y-91825308D01*
X169664938Y-91825316D01*
X169565775Y-92024461D01*
X169565769Y-92024476D01*
X169504885Y-92238462D01*
X169504884Y-92238464D01*
X169484357Y-92459999D01*
X169484357Y-92460000D01*
X169504884Y-92681535D01*
X169504885Y-92681537D01*
X169565769Y-92895523D01*
X169565775Y-92895538D01*
X169664938Y-93094683D01*
X169664943Y-93094691D01*
X169799020Y-93272238D01*
X169963437Y-93422123D01*
X169963439Y-93422125D01*
X170152595Y-93539245D01*
X170152596Y-93539245D01*
X170152599Y-93539247D01*
X170360060Y-93619618D01*
X170578757Y-93660500D01*
X170578759Y-93660500D01*
X170801241Y-93660500D01*
X170801243Y-93660500D01*
X171019940Y-93619618D01*
X171227401Y-93539247D01*
X171416562Y-93422124D01*
X171570755Y-93281558D01*
X171580979Y-93272238D01*
X171646288Y-93185756D01*
X171715058Y-93094689D01*
X171814229Y-92895528D01*
X171875115Y-92681536D01*
X171895643Y-92460000D01*
X171888778Y-92385919D01*
X171902193Y-92317350D01*
X171924565Y-92286800D01*
X175924548Y-88286819D01*
X175985871Y-88253334D01*
X176012229Y-88250500D01*
X176166290Y-88250500D01*
X176233329Y-88270185D01*
X176279084Y-88322989D01*
X176290285Y-88375522D01*
X176181823Y-101499500D01*
X176046471Y-117877025D01*
X176026233Y-117943899D01*
X175973053Y-117989216D01*
X175922475Y-118000000D01*
X49000710Y-118000000D01*
X48999359Y-117999993D01*
X48994454Y-117999939D01*
X48786527Y-117997671D01*
X48777073Y-117997206D01*
X48352450Y-117960056D01*
X48341725Y-117958644D01*
X47922623Y-117884746D01*
X47912061Y-117882405D01*
X47500980Y-117772256D01*
X47490664Y-117769003D01*
X47090759Y-117623450D01*
X47080764Y-117619310D01*
X46695062Y-117439454D01*
X46685467Y-117434459D01*
X46316916Y-117221676D01*
X46307792Y-117215864D01*
X45959179Y-116971762D01*
X45950597Y-116965177D01*
X45624579Y-116691616D01*
X45616604Y-116684307D01*
X45315692Y-116383395D01*
X45308383Y-116375420D01*
X45234135Y-116286935D01*
X45034821Y-116049401D01*
X45028237Y-116040820D01*
X44784135Y-115692207D01*
X44778323Y-115683083D01*
X44565540Y-115314532D01*
X44560545Y-115304937D01*
X44537750Y-115256052D01*
X44380683Y-114919221D01*
X44376555Y-114909255D01*
X44230992Y-114509322D01*
X44227747Y-114499033D01*
X44117590Y-114087921D01*
X44115256Y-114077393D01*
X44041354Y-113658270D01*
X44039943Y-113647549D01*
X44039124Y-113638188D01*
X44016423Y-113378711D01*
X46649500Y-113378711D01*
X46649500Y-113621288D01*
X46681161Y-113861785D01*
X46743947Y-114096104D01*
X46807296Y-114249041D01*
X46836776Y-114320212D01*
X46958064Y-114530289D01*
X46958066Y-114530292D01*
X46958067Y-114530293D01*
X47105733Y-114722736D01*
X47105739Y-114722743D01*
X47277256Y-114894260D01*
X47277263Y-114894266D01*
X47390321Y-114981018D01*
X47469711Y-115041936D01*
X47679788Y-115163224D01*
X47903900Y-115256054D01*
X48138211Y-115318838D01*
X48318586Y-115342584D01*
X48378711Y-115350500D01*
X48378712Y-115350500D01*
X48621289Y-115350500D01*
X48669388Y-115344167D01*
X48861789Y-115318838D01*
X49096100Y-115256054D01*
X49320212Y-115163224D01*
X49530289Y-115041936D01*
X49722738Y-114894265D01*
X49894265Y-114722738D01*
X50041936Y-114530289D01*
X50163224Y-114320212D01*
X50256054Y-114096100D01*
X50267834Y-114052135D01*
X55099500Y-114052135D01*
X55099500Y-115947870D01*
X55099501Y-115947876D01*
X55105908Y-116007483D01*
X55156202Y-116142328D01*
X55156206Y-116142335D01*
X55242452Y-116257544D01*
X55242455Y-116257547D01*
X55357664Y-116343793D01*
X55357671Y-116343797D01*
X55492517Y-116394091D01*
X55492516Y-116394091D01*
X55499444Y-116394835D01*
X55552127Y-116400500D01*
X57447872Y-116400499D01*
X57507483Y-116394091D01*
X57642331Y-116343796D01*
X57757546Y-116257546D01*
X57843796Y-116142331D01*
X57862092Y-116093274D01*
X57903961Y-116037342D01*
X57969425Y-116012924D01*
X58037699Y-116027775D01*
X58054436Y-116038755D01*
X58231365Y-116176464D01*
X58231371Y-116176468D01*
X58231374Y-116176470D01*
X58381185Y-116257544D01*
X58434652Y-116286479D01*
X58435497Y-116286936D01*
X58549487Y-116326068D01*
X58655015Y-116362297D01*
X58655017Y-116362297D01*
X58655019Y-116362298D01*
X58883951Y-116400500D01*
X58883952Y-116400500D01*
X59116048Y-116400500D01*
X59116049Y-116400500D01*
X59344981Y-116362298D01*
X59564503Y-116286936D01*
X59768626Y-116176470D01*
X59769170Y-116176047D01*
X59875513Y-116093277D01*
X59951784Y-116033913D01*
X60108979Y-115863153D01*
X60146489Y-115805738D01*
X60199635Y-115760382D01*
X60268866Y-115750958D01*
X60332202Y-115780459D01*
X60346914Y-115797437D01*
X60348811Y-115797634D01*
X61017037Y-115129408D01*
X61034075Y-115192993D01*
X61099901Y-115307007D01*
X61192993Y-115400099D01*
X61307007Y-115465925D01*
X61370590Y-115482962D01*
X60701201Y-116152351D01*
X60731649Y-116176050D01*
X60935697Y-116286476D01*
X60935706Y-116286479D01*
X61155139Y-116361811D01*
X61383993Y-116400000D01*
X61616007Y-116400000D01*
X61844860Y-116361811D01*
X62064293Y-116286479D01*
X62064301Y-116286476D01*
X62268355Y-116176047D01*
X62298797Y-116152351D01*
X62298798Y-116152350D01*
X61629410Y-115482962D01*
X61692993Y-115465925D01*
X61807007Y-115400099D01*
X61900099Y-115307007D01*
X61965925Y-115192993D01*
X61982962Y-115129409D01*
X62651186Y-115797634D01*
X62735484Y-115668606D01*
X62828682Y-115456135D01*
X62885638Y-115231218D01*
X62904798Y-115000005D01*
X62904798Y-114999994D01*
X62885638Y-114768781D01*
X62828682Y-114543864D01*
X62735483Y-114331390D01*
X62651186Y-114202364D01*
X61982962Y-114870589D01*
X61965925Y-114807007D01*
X61900099Y-114692993D01*
X61807007Y-114599901D01*
X61692993Y-114534075D01*
X61629409Y-114517037D01*
X62298797Y-113847647D01*
X62298797Y-113847645D01*
X62268360Y-113823955D01*
X62268354Y-113823951D01*
X62064302Y-113713523D01*
X62064293Y-113713520D01*
X61844860Y-113638188D01*
X61616007Y-113600000D01*
X61383993Y-113600000D01*
X61155139Y-113638188D01*
X60935706Y-113713520D01*
X60935697Y-113713523D01*
X60731650Y-113823949D01*
X60701200Y-113847647D01*
X61370591Y-114517037D01*
X61307007Y-114534075D01*
X61192993Y-114599901D01*
X61099901Y-114692993D01*
X61034075Y-114807007D01*
X61017037Y-114870590D01*
X60348811Y-114202364D01*
X60344030Y-114202860D01*
X60300960Y-114239617D01*
X60231729Y-114249041D01*
X60168393Y-114219539D01*
X60146489Y-114194260D01*
X60108983Y-114136852D01*
X60108980Y-114136849D01*
X60108979Y-114136847D01*
X59951784Y-113966087D01*
X59951779Y-113966083D01*
X59951777Y-113966081D01*
X59768634Y-113823535D01*
X59768628Y-113823531D01*
X59564504Y-113713064D01*
X59564495Y-113713061D01*
X59344984Y-113637702D01*
X59154450Y-113605908D01*
X59116049Y-113599500D01*
X58883951Y-113599500D01*
X58845550Y-113605908D01*
X58655015Y-113637702D01*
X58435504Y-113713061D01*
X58435495Y-113713064D01*
X58231372Y-113823531D01*
X58054436Y-113961245D01*
X57989442Y-113986887D01*
X57920902Y-113973320D01*
X57870577Y-113924852D01*
X57862092Y-113906723D01*
X57843798Y-113857673D01*
X57843793Y-113857664D01*
X57757547Y-113742455D01*
X57757544Y-113742452D01*
X57642335Y-113656206D01*
X57642328Y-113656202D01*
X57507482Y-113605908D01*
X57507483Y-113605908D01*
X57447883Y-113599501D01*
X57447881Y-113599500D01*
X57447873Y-113599500D01*
X57447864Y-113599500D01*
X55552129Y-113599500D01*
X55552123Y-113599501D01*
X55492516Y-113605908D01*
X55357671Y-113656202D01*
X55357664Y-113656206D01*
X55242455Y-113742452D01*
X55242452Y-113742455D01*
X55156206Y-113857664D01*
X55156202Y-113857671D01*
X55105908Y-113992517D01*
X55099501Y-114052116D01*
X55099500Y-114052135D01*
X50267834Y-114052135D01*
X50318838Y-113861789D01*
X50350500Y-113621288D01*
X50350500Y-113378712D01*
X50318838Y-113138211D01*
X50256054Y-112903900D01*
X50163224Y-112679788D01*
X50041936Y-112469711D01*
X49894265Y-112277262D01*
X49894260Y-112277256D01*
X49722743Y-112105739D01*
X49722736Y-112105733D01*
X49530293Y-111958067D01*
X49530292Y-111958066D01*
X49530289Y-111958064D01*
X49320212Y-111836776D01*
X49306478Y-111831087D01*
X49096104Y-111743947D01*
X48861785Y-111681161D01*
X48621289Y-111649500D01*
X48621288Y-111649500D01*
X48378712Y-111649500D01*
X48378711Y-111649500D01*
X48138214Y-111681161D01*
X47903895Y-111743947D01*
X47679794Y-111836773D01*
X47679785Y-111836777D01*
X47469706Y-111958067D01*
X47277263Y-112105733D01*
X47277256Y-112105739D01*
X47105739Y-112277256D01*
X47105733Y-112277263D01*
X46958067Y-112469706D01*
X46836777Y-112679785D01*
X46836773Y-112679794D01*
X46743947Y-112903895D01*
X46681161Y-113138214D01*
X46649500Y-113378711D01*
X44016423Y-113378711D01*
X44002792Y-113222915D01*
X44002328Y-113213471D01*
X44001507Y-113138214D01*
X44000007Y-113000641D01*
X44000000Y-112999289D01*
X44000000Y-106685777D01*
X52599500Y-106685777D01*
X52599500Y-109314208D01*
X52599501Y-109314223D01*
X52609904Y-109446413D01*
X52609905Y-109446420D01*
X52664902Y-109664678D01*
X52664903Y-109664681D01*
X52757991Y-109869622D01*
X52757997Y-109869632D01*
X52886174Y-110054645D01*
X52886178Y-110054650D01*
X52886181Y-110054654D01*
X53045346Y-110213819D01*
X53045350Y-110213822D01*
X53045354Y-110213825D01*
X53156512Y-110290835D01*
X53230374Y-110342007D01*
X53435317Y-110435096D01*
X53435321Y-110435097D01*
X53653579Y-110490094D01*
X53653581Y-110490094D01*
X53653588Y-110490096D01*
X53785783Y-110500500D01*
X55414216Y-110500499D01*
X55546412Y-110490096D01*
X55764683Y-110435096D01*
X55969626Y-110342007D01*
X56154654Y-110213819D01*
X56313819Y-110054654D01*
X56442007Y-109869626D01*
X56535096Y-109664683D01*
X56590096Y-109446412D01*
X56600500Y-109314217D01*
X56600499Y-106685784D01*
X56600498Y-106685777D01*
X61399500Y-106685777D01*
X61399500Y-109314208D01*
X61399501Y-109314223D01*
X61409904Y-109446413D01*
X61409905Y-109446420D01*
X61464902Y-109664678D01*
X61464903Y-109664681D01*
X61557991Y-109869622D01*
X61557997Y-109869632D01*
X61686174Y-110054645D01*
X61686178Y-110054650D01*
X61686181Y-110054654D01*
X61845346Y-110213819D01*
X61845350Y-110213822D01*
X61845354Y-110213825D01*
X61956512Y-110290835D01*
X62030374Y-110342007D01*
X62235317Y-110435096D01*
X62235321Y-110435097D01*
X62453579Y-110490094D01*
X62453581Y-110490094D01*
X62453588Y-110490096D01*
X62585783Y-110500500D01*
X64214216Y-110500499D01*
X64346412Y-110490096D01*
X64564683Y-110435096D01*
X64769626Y-110342007D01*
X64954654Y-110213819D01*
X65113819Y-110054654D01*
X65242007Y-109869626D01*
X65335096Y-109664683D01*
X65390096Y-109446412D01*
X65400500Y-109314217D01*
X65400499Y-107499988D01*
X73494630Y-107499988D01*
X73494630Y-107500011D01*
X73514102Y-107983211D01*
X73514104Y-107983237D01*
X73572398Y-108463332D01*
X73669136Y-108937185D01*
X73803689Y-109401714D01*
X73975185Y-109853910D01*
X74182512Y-110290841D01*
X74424322Y-110709668D01*
X74424327Y-110709674D01*
X74699058Y-111107691D01*
X75004914Y-111482295D01*
X75004916Y-111482297D01*
X75339934Y-111831088D01*
X75346356Y-111836777D01*
X75701920Y-112151779D01*
X75701924Y-112151782D01*
X75701932Y-112151789D01*
X76088561Y-112442323D01*
X76497315Y-112700803D01*
X76925543Y-112925554D01*
X77370466Y-113115118D01*
X77829201Y-113268267D01*
X78142248Y-113345425D01*
X78298767Y-113384004D01*
X78298783Y-113384007D01*
X78726019Y-113453439D01*
X78776133Y-113461584D01*
X79258188Y-113500500D01*
X79258197Y-113500500D01*
X79741803Y-113500500D01*
X79741812Y-113500500D01*
X80223867Y-113461584D01*
X80701228Y-113384005D01*
X80722707Y-113378711D01*
X88149500Y-113378711D01*
X88149500Y-113621288D01*
X88181161Y-113861785D01*
X88243947Y-114096104D01*
X88307296Y-114249041D01*
X88336776Y-114320212D01*
X88458064Y-114530289D01*
X88458066Y-114530292D01*
X88458067Y-114530293D01*
X88605733Y-114722736D01*
X88605739Y-114722743D01*
X88777256Y-114894260D01*
X88777263Y-114894266D01*
X88890321Y-114981018D01*
X88969711Y-115041936D01*
X89179788Y-115163224D01*
X89403900Y-115256054D01*
X89638211Y-115318838D01*
X89818586Y-115342584D01*
X89878711Y-115350500D01*
X89878712Y-115350500D01*
X90121289Y-115350500D01*
X90169388Y-115344167D01*
X90361789Y-115318838D01*
X90596100Y-115256054D01*
X90820212Y-115163224D01*
X91030289Y-115041936D01*
X91222738Y-114894265D01*
X91394265Y-114722738D01*
X91541936Y-114530289D01*
X91663224Y-114320212D01*
X91756054Y-114096100D01*
X91818838Y-113861789D01*
X91850500Y-113621288D01*
X91850500Y-113378712D01*
X91818838Y-113138211D01*
X91756054Y-112903900D01*
X91663224Y-112679788D01*
X91541936Y-112469711D01*
X91394265Y-112277262D01*
X91394260Y-112277256D01*
X91222743Y-112105739D01*
X91222736Y-112105733D01*
X91030293Y-111958067D01*
X91030292Y-111958066D01*
X91030289Y-111958064D01*
X90820212Y-111836776D01*
X90806478Y-111831087D01*
X90596104Y-111743947D01*
X90361785Y-111681161D01*
X90121289Y-111649500D01*
X90121288Y-111649500D01*
X89878712Y-111649500D01*
X89878711Y-111649500D01*
X89638214Y-111681161D01*
X89403895Y-111743947D01*
X89179794Y-111836773D01*
X89179785Y-111836777D01*
X88969706Y-111958067D01*
X88777263Y-112105733D01*
X88777256Y-112105739D01*
X88605739Y-112277256D01*
X88605733Y-112277263D01*
X88458067Y-112469706D01*
X88336777Y-112679785D01*
X88336773Y-112679794D01*
X88243947Y-112903895D01*
X88181161Y-113138214D01*
X88149500Y-113378711D01*
X80722707Y-113378711D01*
X81170799Y-113268267D01*
X81629534Y-113115118D01*
X82074457Y-112925554D01*
X82502685Y-112700803D01*
X82911439Y-112442323D01*
X83298068Y-112151789D01*
X83660066Y-111831088D01*
X83995084Y-111482297D01*
X84300950Y-111107680D01*
X84575679Y-110709665D01*
X84817491Y-110290835D01*
X85024817Y-109853905D01*
X85196312Y-109401708D01*
X85330865Y-108937179D01*
X85427602Y-108463329D01*
X85485896Y-107983232D01*
X85505370Y-107500000D01*
X85485896Y-107016768D01*
X85427602Y-106536671D01*
X85330865Y-106062821D01*
X85196312Y-105598292D01*
X85196310Y-105598285D01*
X85102337Y-105350500D01*
X85024817Y-105146095D01*
X84817491Y-104709165D01*
X84592929Y-104320212D01*
X84575677Y-104290331D01*
X84575672Y-104290325D01*
X84300950Y-103892320D01*
X84300945Y-103892314D01*
X84300941Y-103892308D01*
X83995085Y-103517704D01*
X83995079Y-103517698D01*
X83861580Y-103378711D01*
X88149500Y-103378711D01*
X88149500Y-103621288D01*
X88181161Y-103861785D01*
X88243947Y-104096104D01*
X88336773Y-104320205D01*
X88336776Y-104320212D01*
X88458064Y-104530289D01*
X88458066Y-104530292D01*
X88458067Y-104530293D01*
X88605733Y-104722736D01*
X88605739Y-104722743D01*
X88777256Y-104894260D01*
X88777262Y-104894265D01*
X88969711Y-105041936D01*
X89179788Y-105163224D01*
X89403900Y-105256054D01*
X89638211Y-105318838D01*
X89818586Y-105342584D01*
X89878711Y-105350500D01*
X89878712Y-105350500D01*
X90121289Y-105350500D01*
X90169388Y-105344167D01*
X90361789Y-105318838D01*
X90596100Y-105256054D01*
X90820212Y-105163224D01*
X91030289Y-105041936D01*
X91222738Y-104894265D01*
X91394265Y-104722738D01*
X91541936Y-104530289D01*
X91663224Y-104320212D01*
X91756054Y-104096100D01*
X91814304Y-103878711D01*
X151149500Y-103878711D01*
X151149500Y-104121288D01*
X151181161Y-104361785D01*
X151243947Y-104596104D01*
X151290776Y-104709158D01*
X151336776Y-104820212D01*
X151458064Y-105030289D01*
X151458066Y-105030292D01*
X151458067Y-105030293D01*
X151605733Y-105222736D01*
X151605739Y-105222743D01*
X151777256Y-105394260D01*
X151777262Y-105394265D01*
X151969711Y-105541936D01*
X152179788Y-105663224D01*
X152403900Y-105756054D01*
X152638211Y-105818838D01*
X152818586Y-105842584D01*
X152878711Y-105850500D01*
X152878712Y-105850500D01*
X153121289Y-105850500D01*
X153169388Y-105844167D01*
X153361789Y-105818838D01*
X153596100Y-105756054D01*
X153820212Y-105663224D01*
X154030289Y-105541936D01*
X154222738Y-105394265D01*
X154394265Y-105222738D01*
X154541936Y-105030289D01*
X154663224Y-104820212D01*
X154756054Y-104596100D01*
X154818838Y-104361789D01*
X154850500Y-104121288D01*
X154850500Y-103878712D01*
X154818838Y-103638211D01*
X154756054Y-103403900D01*
X154663224Y-103179788D01*
X154541936Y-102969711D01*
X154394265Y-102777262D01*
X154394260Y-102777256D01*
X154222743Y-102605739D01*
X154222736Y-102605733D01*
X154030293Y-102458067D01*
X154030292Y-102458066D01*
X154030289Y-102458064D01*
X153820212Y-102336776D01*
X153820205Y-102336773D01*
X153596104Y-102243947D01*
X153361785Y-102181161D01*
X153121289Y-102149500D01*
X153121288Y-102149500D01*
X152878712Y-102149500D01*
X152878711Y-102149500D01*
X152638214Y-102181161D01*
X152403895Y-102243947D01*
X152179794Y-102336773D01*
X152179785Y-102336777D01*
X151969706Y-102458067D01*
X151777263Y-102605733D01*
X151777256Y-102605739D01*
X151605739Y-102777256D01*
X151605733Y-102777263D01*
X151458067Y-102969706D01*
X151336777Y-103179785D01*
X151336773Y-103179794D01*
X151243947Y-103403895D01*
X151181161Y-103638214D01*
X151149500Y-103878711D01*
X91814304Y-103878711D01*
X91818838Y-103861789D01*
X91850500Y-103621288D01*
X91850500Y-103378712D01*
X91818838Y-103138211D01*
X91756054Y-102903900D01*
X91663224Y-102679788D01*
X91541936Y-102469711D01*
X91394265Y-102277262D01*
X91394260Y-102277256D01*
X91222743Y-102105739D01*
X91222736Y-102105733D01*
X91030293Y-101958067D01*
X91030292Y-101958066D01*
X91030289Y-101958064D01*
X90820212Y-101836776D01*
X90820205Y-101836773D01*
X90596104Y-101743947D01*
X90361785Y-101681161D01*
X90121289Y-101649500D01*
X90121288Y-101649500D01*
X89878712Y-101649500D01*
X89878711Y-101649500D01*
X89638214Y-101681161D01*
X89403895Y-101743947D01*
X89179794Y-101836773D01*
X89179785Y-101836777D01*
X88969706Y-101958067D01*
X88777263Y-102105733D01*
X88777256Y-102105739D01*
X88605739Y-102277256D01*
X88605733Y-102277263D01*
X88458067Y-102469706D01*
X88336777Y-102679785D01*
X88336773Y-102679794D01*
X88243947Y-102903895D01*
X88181161Y-103138214D01*
X88149500Y-103378711D01*
X83861580Y-103378711D01*
X83660066Y-103168912D01*
X83298079Y-102848220D01*
X83298073Y-102848215D01*
X83298068Y-102848211D01*
X82911439Y-102557677D01*
X82502685Y-102299197D01*
X82074457Y-102074446D01*
X81629534Y-101884882D01*
X81629526Y-101884879D01*
X81629523Y-101884878D01*
X81402843Y-101809201D01*
X81170799Y-101731733D01*
X81170795Y-101731732D01*
X81170788Y-101731730D01*
X80701232Y-101615995D01*
X80701216Y-101615992D01*
X80223872Y-101538416D01*
X79741822Y-101499500D01*
X79741812Y-101499500D01*
X79258188Y-101499500D01*
X79258177Y-101499500D01*
X78776127Y-101538416D01*
X78298783Y-101615992D01*
X78298767Y-101615995D01*
X77829211Y-101731730D01*
X77829204Y-101731732D01*
X77370476Y-101884878D01*
X77370468Y-101884881D01*
X77370466Y-101884882D01*
X77205832Y-101955025D01*
X76925549Y-102074443D01*
X76925544Y-102074445D01*
X76925543Y-102074446D01*
X76865927Y-102105735D01*
X76497318Y-102299195D01*
X76088559Y-102557678D01*
X75701920Y-102848220D01*
X75339933Y-103168912D01*
X75004920Y-103517698D01*
X75004914Y-103517704D01*
X74699058Y-103892308D01*
X74424327Y-104290325D01*
X74424322Y-104290331D01*
X74182512Y-104709158D01*
X73975185Y-105146089D01*
X73803689Y-105598285D01*
X73669136Y-106062814D01*
X73572398Y-106536667D01*
X73514104Y-107016762D01*
X73514102Y-107016788D01*
X73494630Y-107499988D01*
X65400499Y-107499988D01*
X65400499Y-106685784D01*
X65390096Y-106553588D01*
X65335096Y-106335317D01*
X65242007Y-106130374D01*
X65113819Y-105945346D01*
X64954654Y-105786181D01*
X64954650Y-105786178D01*
X64954645Y-105786174D01*
X64769632Y-105657997D01*
X64769630Y-105657995D01*
X64769626Y-105657993D01*
X64638189Y-105598292D01*
X64564681Y-105564903D01*
X64564678Y-105564902D01*
X64346420Y-105509905D01*
X64346413Y-105509904D01*
X64302347Y-105506436D01*
X64214217Y-105499500D01*
X64214215Y-105499500D01*
X62585791Y-105499500D01*
X62585776Y-105499501D01*
X62453586Y-105509904D01*
X62453579Y-105509905D01*
X62235321Y-105564902D01*
X62235318Y-105564903D01*
X62030377Y-105657991D01*
X62030367Y-105657997D01*
X61845354Y-105786174D01*
X61845342Y-105786184D01*
X61686184Y-105945342D01*
X61686174Y-105945354D01*
X61557997Y-106130367D01*
X61557991Y-106130377D01*
X61464903Y-106335318D01*
X61464902Y-106335321D01*
X61409905Y-106553579D01*
X61409904Y-106553586D01*
X61399500Y-106685777D01*
X56600498Y-106685777D01*
X56590096Y-106553588D01*
X56535096Y-106335317D01*
X56442007Y-106130374D01*
X56313819Y-105945346D01*
X56154654Y-105786181D01*
X56154650Y-105786178D01*
X56154645Y-105786174D01*
X55969632Y-105657997D01*
X55969630Y-105657995D01*
X55969626Y-105657993D01*
X55838189Y-105598292D01*
X55764681Y-105564903D01*
X55764678Y-105564902D01*
X55546420Y-105509905D01*
X55546413Y-105509904D01*
X55502347Y-105506436D01*
X55414217Y-105499500D01*
X55414215Y-105499500D01*
X53785791Y-105499500D01*
X53785776Y-105499501D01*
X53653586Y-105509904D01*
X53653579Y-105509905D01*
X53435321Y-105564902D01*
X53435318Y-105564903D01*
X53230377Y-105657991D01*
X53230367Y-105657997D01*
X53045354Y-105786174D01*
X53045342Y-105786184D01*
X52886184Y-105945342D01*
X52886174Y-105945354D01*
X52757997Y-106130367D01*
X52757991Y-106130377D01*
X52664903Y-106335318D01*
X52664902Y-106335321D01*
X52609905Y-106553579D01*
X52609904Y-106553586D01*
X52599500Y-106685777D01*
X44000000Y-106685777D01*
X44000000Y-103378711D01*
X46649500Y-103378711D01*
X46649500Y-103621288D01*
X46681161Y-103861785D01*
X46743947Y-104096104D01*
X46836773Y-104320205D01*
X46836776Y-104320212D01*
X46958064Y-104530289D01*
X46958066Y-104530292D01*
X46958067Y-104530293D01*
X47105733Y-104722736D01*
X47105739Y-104722743D01*
X47277256Y-104894260D01*
X47277262Y-104894265D01*
X47469711Y-105041936D01*
X47679788Y-105163224D01*
X47903900Y-105256054D01*
X48138211Y-105318838D01*
X48318586Y-105342584D01*
X48378711Y-105350500D01*
X48378712Y-105350500D01*
X48621289Y-105350500D01*
X48669388Y-105344167D01*
X48861789Y-105318838D01*
X49096100Y-105256054D01*
X49320212Y-105163224D01*
X49530289Y-105041936D01*
X49722738Y-104894265D01*
X49894265Y-104722738D01*
X50041936Y-104530289D01*
X50163224Y-104320212D01*
X50256054Y-104096100D01*
X50318838Y-103861789D01*
X50350500Y-103621288D01*
X50350500Y-103378712D01*
X50318838Y-103138211D01*
X50256054Y-102903900D01*
X50163224Y-102679788D01*
X50041936Y-102469711D01*
X49894265Y-102277262D01*
X49894260Y-102277256D01*
X49722743Y-102105739D01*
X49722736Y-102105733D01*
X49530293Y-101958067D01*
X49530292Y-101958066D01*
X49530289Y-101958064D01*
X49320212Y-101836776D01*
X49320205Y-101836773D01*
X49096104Y-101743947D01*
X48861785Y-101681161D01*
X48621289Y-101649500D01*
X48621288Y-101649500D01*
X48378712Y-101649500D01*
X48378711Y-101649500D01*
X48138214Y-101681161D01*
X47903895Y-101743947D01*
X47679794Y-101836773D01*
X47679785Y-101836777D01*
X47469706Y-101958067D01*
X47277263Y-102105733D01*
X47277256Y-102105739D01*
X47105739Y-102277256D01*
X47105733Y-102277263D01*
X46958067Y-102469706D01*
X46836777Y-102679785D01*
X46836773Y-102679794D01*
X46743947Y-102903895D01*
X46681161Y-103138214D01*
X46649500Y-103378711D01*
X44000000Y-103378711D01*
X44000000Y-99999997D01*
X91695034Y-99999997D01*
X91695034Y-100000002D01*
X91714858Y-100226599D01*
X91714860Y-100226610D01*
X91773730Y-100446317D01*
X91773735Y-100446331D01*
X91869863Y-100652478D01*
X91920974Y-100725472D01*
X92600000Y-100046446D01*
X92600000Y-100052661D01*
X92627259Y-100154394D01*
X92679920Y-100245606D01*
X92754394Y-100320080D01*
X92845606Y-100372741D01*
X92947339Y-100400000D01*
X92953553Y-100400000D01*
X92274526Y-101079025D01*
X92347513Y-101130132D01*
X92347521Y-101130136D01*
X92553668Y-101226264D01*
X92553682Y-101226269D01*
X92773389Y-101285139D01*
X92773400Y-101285141D01*
X92999998Y-101304966D01*
X93000002Y-101304966D01*
X93226599Y-101285141D01*
X93226610Y-101285139D01*
X93446317Y-101226269D01*
X93446331Y-101226264D01*
X93652478Y-101130136D01*
X93725471Y-101079024D01*
X93046447Y-100400000D01*
X93052661Y-100400000D01*
X93154394Y-100372741D01*
X93245606Y-100320080D01*
X93320080Y-100245606D01*
X93372741Y-100154394D01*
X93400000Y-100052661D01*
X93400000Y-100046447D01*
X94079024Y-100725471D01*
X94130136Y-100652478D01*
X94226264Y-100446331D01*
X94226269Y-100446317D01*
X94285139Y-100226610D01*
X94285141Y-100226599D01*
X94304966Y-100000002D01*
X94304966Y-99999998D01*
X96694532Y-99999998D01*
X96694532Y-100000001D01*
X96714364Y-100226686D01*
X96714366Y-100226697D01*
X96773258Y-100446488D01*
X96773261Y-100446497D01*
X96869431Y-100652732D01*
X96869432Y-100652734D01*
X96999954Y-100839141D01*
X97160858Y-101000045D01*
X97160861Y-101000047D01*
X97347266Y-101130568D01*
X97553504Y-101226739D01*
X97773308Y-101285635D01*
X97935230Y-101299801D01*
X97999998Y-101305468D01*
X98000000Y-101305468D01*
X98000002Y-101305468D01*
X98056673Y-101300509D01*
X98226692Y-101285635D01*
X98446496Y-101226739D01*
X98652734Y-101130568D01*
X98839139Y-101000047D01*
X99000047Y-100839139D01*
X99130568Y-100652734D01*
X99226739Y-100446496D01*
X99285635Y-100226692D01*
X99305468Y-100000000D01*
X99285635Y-99773308D01*
X99226739Y-99553504D01*
X99130568Y-99347266D01*
X99000047Y-99160861D01*
X98839139Y-98999953D01*
X98834373Y-98996615D01*
X98803375Y-98974910D01*
X98759751Y-98920332D01*
X98750500Y-98873336D01*
X98750500Y-96309841D01*
X98770185Y-96242802D01*
X98809402Y-96204302D01*
X98868693Y-96167732D01*
X98992732Y-96043693D01*
X99084823Y-95894391D01*
X99140000Y-95727877D01*
X99150500Y-95625099D01*
X99150499Y-94974902D01*
X99140000Y-94872123D01*
X99084823Y-94705609D01*
X99031326Y-94618878D01*
X99012887Y-94551486D01*
X99031682Y-94491540D01*
X99030472Y-94490893D01*
X99033346Y-94485515D01*
X99110609Y-94298983D01*
X99110612Y-94298974D01*
X99120353Y-94250000D01*
X98166988Y-94250000D01*
X98184205Y-94240060D01*
X98240060Y-94184205D01*
X98279556Y-94115796D01*
X98300000Y-94039496D01*
X98300000Y-93960504D01*
X98279556Y-93884204D01*
X98240060Y-93815795D01*
X98184205Y-93759940D01*
X98166988Y-93750000D01*
X99120353Y-93750000D01*
X99110612Y-93701025D01*
X99110609Y-93701016D01*
X99033347Y-93514486D01*
X99033340Y-93514473D01*
X98969773Y-93419339D01*
X98948895Y-93352662D01*
X98967379Y-93285282D01*
X98969726Y-93281627D01*
X99033786Y-93185756D01*
X99111091Y-92999127D01*
X99150500Y-92801003D01*
X99150500Y-92598997D01*
X99111091Y-92400873D01*
X99033786Y-92214244D01*
X99033784Y-92214241D01*
X99033782Y-92214237D01*
X98921558Y-92046281D01*
X98778718Y-91903441D01*
X98610762Y-91791217D01*
X98610752Y-91791212D01*
X98424127Y-91713909D01*
X98424119Y-91713907D01*
X98226007Y-91674500D01*
X98226003Y-91674500D01*
X97773997Y-91674500D01*
X97773992Y-91674500D01*
X97575880Y-91713907D01*
X97575872Y-91713909D01*
X97389247Y-91791212D01*
X97389237Y-91791217D01*
X97221281Y-91903441D01*
X97078441Y-92046281D01*
X96966217Y-92214237D01*
X96966212Y-92214247D01*
X96888909Y-92400872D01*
X96888907Y-92400880D01*
X96849500Y-92598992D01*
X96849500Y-92801007D01*
X96888907Y-92999119D01*
X96888909Y-92999127D01*
X96966213Y-93185754D01*
X97030226Y-93281558D01*
X97051103Y-93348236D01*
X97032618Y-93415616D01*
X97030226Y-93419337D01*
X96966661Y-93514471D01*
X96966652Y-93514487D01*
X96889390Y-93701016D01*
X96889387Y-93701025D01*
X96879647Y-93750000D01*
X97833012Y-93750000D01*
X97815795Y-93759940D01*
X97759940Y-93815795D01*
X97720444Y-93884204D01*
X97700000Y-93960504D01*
X97700000Y-94039496D01*
X97720444Y-94115796D01*
X97759940Y-94184205D01*
X97815795Y-94240060D01*
X97833012Y-94250000D01*
X96879647Y-94250000D01*
X96889387Y-94298974D01*
X96889390Y-94298983D01*
X96966653Y-94485515D01*
X96969525Y-94490887D01*
X96968316Y-94491533D01*
X96987114Y-94551570D01*
X96968673Y-94618879D01*
X96915178Y-94705606D01*
X96915176Y-94705611D01*
X96860000Y-94872121D01*
X96849500Y-94974893D01*
X96849500Y-95625091D01*
X96849501Y-95625109D01*
X96859999Y-95727876D01*
X96860000Y-95727879D01*
X96915176Y-95894388D01*
X96915181Y-95894399D01*
X97007265Y-96043689D01*
X97007268Y-96043693D01*
X97131307Y-96167732D01*
X97190597Y-96204302D01*
X97237321Y-96256250D01*
X97249500Y-96309841D01*
X97249500Y-98873336D01*
X97229815Y-98940375D01*
X97196625Y-98974910D01*
X97160863Y-98999951D01*
X96999951Y-99160862D01*
X96869432Y-99347265D01*
X96869431Y-99347267D01*
X96773261Y-99553502D01*
X96773258Y-99553511D01*
X96714366Y-99773302D01*
X96714364Y-99773313D01*
X96694532Y-99999998D01*
X94304966Y-99999998D01*
X94304966Y-99999997D01*
X94285141Y-99773400D01*
X94285139Y-99773389D01*
X94226269Y-99553682D01*
X94226264Y-99553668D01*
X94130136Y-99347521D01*
X94130132Y-99347513D01*
X94079025Y-99274526D01*
X93400000Y-99953551D01*
X93400000Y-99947339D01*
X93372741Y-99845606D01*
X93320080Y-99754394D01*
X93245606Y-99679920D01*
X93154394Y-99627259D01*
X93052661Y-99600000D01*
X93046445Y-99600000D01*
X93725472Y-98920974D01*
X93652478Y-98869863D01*
X93446331Y-98773735D01*
X93446317Y-98773730D01*
X93226610Y-98714860D01*
X93226599Y-98714858D01*
X93000002Y-98695034D01*
X92999998Y-98695034D01*
X92773400Y-98714858D01*
X92773389Y-98714860D01*
X92553682Y-98773730D01*
X92553673Y-98773734D01*
X92347516Y-98869866D01*
X92347512Y-98869868D01*
X92274526Y-98920973D01*
X92274526Y-98920974D01*
X92953553Y-99600000D01*
X92947339Y-99600000D01*
X92845606Y-99627259D01*
X92754394Y-99679920D01*
X92679920Y-99754394D01*
X92627259Y-99845606D01*
X92600000Y-99947339D01*
X92600000Y-99953552D01*
X91920974Y-99274526D01*
X91920973Y-99274526D01*
X91869868Y-99347512D01*
X91869866Y-99347516D01*
X91773734Y-99553673D01*
X91773730Y-99553682D01*
X91714860Y-99773389D01*
X91714858Y-99773400D01*
X91695034Y-99999997D01*
X44000000Y-99999997D01*
X44000000Y-84378711D01*
X46649500Y-84378711D01*
X46649500Y-84621288D01*
X46681161Y-84861785D01*
X46743947Y-85096104D01*
X46801649Y-85235408D01*
X46836776Y-85320212D01*
X46958064Y-85530289D01*
X46958066Y-85530292D01*
X46958067Y-85530293D01*
X47105733Y-85722736D01*
X47105739Y-85722743D01*
X47277256Y-85894260D01*
X47277263Y-85894266D01*
X47347124Y-85947872D01*
X47469711Y-86041936D01*
X47679788Y-86163224D01*
X47903900Y-86256054D01*
X48138211Y-86318838D01*
X48318586Y-86342584D01*
X48378711Y-86350500D01*
X48378712Y-86350500D01*
X48621289Y-86350500D01*
X48673730Y-86343596D01*
X48861789Y-86318838D01*
X49096100Y-86256054D01*
X49320212Y-86163224D01*
X49530289Y-86041936D01*
X49722738Y-85894265D01*
X49894265Y-85722738D01*
X50041936Y-85530289D01*
X50163224Y-85320212D01*
X50256054Y-85096100D01*
X50318838Y-84861789D01*
X50350500Y-84621288D01*
X50350500Y-84378712D01*
X50318838Y-84138211D01*
X50295774Y-84052135D01*
X55099500Y-84052135D01*
X55099500Y-85947870D01*
X55099501Y-85947876D01*
X55105908Y-86007483D01*
X55156202Y-86142328D01*
X55156206Y-86142335D01*
X55242452Y-86257544D01*
X55242455Y-86257547D01*
X55357664Y-86343793D01*
X55357671Y-86343797D01*
X55492517Y-86394091D01*
X55492516Y-86394091D01*
X55499444Y-86394835D01*
X55552127Y-86400500D01*
X57447872Y-86400499D01*
X57507483Y-86394091D01*
X57642331Y-86343796D01*
X57757546Y-86257546D01*
X57843796Y-86142331D01*
X57862092Y-86093274D01*
X57903961Y-86037342D01*
X57969425Y-86012924D01*
X58037699Y-86027775D01*
X58054436Y-86038755D01*
X58231365Y-86176464D01*
X58231371Y-86176468D01*
X58231374Y-86176470D01*
X58378432Y-86256054D01*
X58434652Y-86286479D01*
X58435497Y-86286936D01*
X58549487Y-86326068D01*
X58655015Y-86362297D01*
X58655017Y-86362297D01*
X58655019Y-86362298D01*
X58883951Y-86400500D01*
X58883952Y-86400500D01*
X59116048Y-86400500D01*
X59116049Y-86400500D01*
X59344981Y-86362298D01*
X59564503Y-86286936D01*
X59768626Y-86176470D01*
X59769170Y-86176047D01*
X59877043Y-86092086D01*
X59951784Y-86033913D01*
X60108979Y-85863153D01*
X60146489Y-85805738D01*
X60199635Y-85760382D01*
X60268866Y-85750958D01*
X60332202Y-85780459D01*
X60346914Y-85797437D01*
X60348811Y-85797634D01*
X61017037Y-85129408D01*
X61034075Y-85192993D01*
X61099901Y-85307007D01*
X61192993Y-85400099D01*
X61307007Y-85465925D01*
X61370590Y-85482962D01*
X60701201Y-86152351D01*
X60731649Y-86176050D01*
X60935697Y-86286476D01*
X60935706Y-86286479D01*
X61155139Y-86361811D01*
X61383993Y-86400000D01*
X61616007Y-86400000D01*
X61844860Y-86361811D01*
X62064293Y-86286479D01*
X62064301Y-86286476D01*
X62268355Y-86176047D01*
X62298797Y-86152351D01*
X62298798Y-86152350D01*
X61629410Y-85482962D01*
X61692993Y-85465925D01*
X61807007Y-85400099D01*
X61900099Y-85307007D01*
X61965925Y-85192993D01*
X61982962Y-85129409D01*
X62651186Y-85797634D01*
X62735484Y-85668606D01*
X62828682Y-85456135D01*
X62885638Y-85231218D01*
X62904798Y-85000005D01*
X62904798Y-84999994D01*
X62885638Y-84768781D01*
X62828682Y-84543864D01*
X62735483Y-84331390D01*
X62651186Y-84202364D01*
X61982962Y-84870589D01*
X61965925Y-84807007D01*
X61900099Y-84692993D01*
X61807007Y-84599901D01*
X61692993Y-84534075D01*
X61629409Y-84517037D01*
X62298797Y-83847647D01*
X62298797Y-83847645D01*
X62268360Y-83823955D01*
X62268354Y-83823951D01*
X62064302Y-83713523D01*
X62064293Y-83713520D01*
X61844860Y-83638188D01*
X61616007Y-83600000D01*
X61383993Y-83600000D01*
X61155139Y-83638188D01*
X60935706Y-83713520D01*
X60935697Y-83713523D01*
X60731650Y-83823949D01*
X60701200Y-83847647D01*
X61370591Y-84517037D01*
X61307007Y-84534075D01*
X61192993Y-84599901D01*
X61099901Y-84692993D01*
X61034075Y-84807007D01*
X61017037Y-84870590D01*
X60348811Y-84202364D01*
X60344030Y-84202860D01*
X60300960Y-84239617D01*
X60231729Y-84249041D01*
X60168393Y-84219539D01*
X60146489Y-84194260D01*
X60108983Y-84136852D01*
X60108980Y-84136849D01*
X60108979Y-84136847D01*
X59951784Y-83966087D01*
X59951779Y-83966083D01*
X59951777Y-83966081D01*
X59768634Y-83823535D01*
X59768628Y-83823531D01*
X59564504Y-83713064D01*
X59564495Y-83713061D01*
X59344984Y-83637702D01*
X59154450Y-83605908D01*
X59116049Y-83599500D01*
X58883951Y-83599500D01*
X58845550Y-83605908D01*
X58655015Y-83637702D01*
X58435504Y-83713061D01*
X58435495Y-83713064D01*
X58231372Y-83823531D01*
X58054436Y-83961245D01*
X57989442Y-83986887D01*
X57920902Y-83973320D01*
X57870577Y-83924852D01*
X57862092Y-83906723D01*
X57843798Y-83857673D01*
X57843793Y-83857664D01*
X57757547Y-83742455D01*
X57757544Y-83742452D01*
X57642335Y-83656206D01*
X57642328Y-83656202D01*
X57507482Y-83605908D01*
X57507483Y-83605908D01*
X57447883Y-83599501D01*
X57447881Y-83599500D01*
X57447873Y-83599500D01*
X57447864Y-83599500D01*
X55552129Y-83599500D01*
X55552123Y-83599501D01*
X55492516Y-83605908D01*
X55357671Y-83656202D01*
X55357664Y-83656206D01*
X55242455Y-83742452D01*
X55242452Y-83742455D01*
X55156206Y-83857664D01*
X55156202Y-83857671D01*
X55105908Y-83992517D01*
X55099501Y-84052116D01*
X55099500Y-84052135D01*
X50295774Y-84052135D01*
X50256054Y-83903900D01*
X50163224Y-83679788D01*
X50041936Y-83469711D01*
X49894265Y-83277262D01*
X49894260Y-83277256D01*
X49722743Y-83105739D01*
X49722736Y-83105733D01*
X49530293Y-82958067D01*
X49530292Y-82958066D01*
X49530289Y-82958064D01*
X49320212Y-82836776D01*
X49306478Y-82831087D01*
X49096104Y-82743947D01*
X48861785Y-82681161D01*
X48621289Y-82649500D01*
X48621288Y-82649500D01*
X48378712Y-82649500D01*
X48378711Y-82649500D01*
X48138214Y-82681161D01*
X47903895Y-82743947D01*
X47679794Y-82836773D01*
X47679785Y-82836777D01*
X47469706Y-82958067D01*
X47277263Y-83105733D01*
X47277256Y-83105739D01*
X47105739Y-83277256D01*
X47105733Y-83277263D01*
X46958067Y-83469706D01*
X46836777Y-83679785D01*
X46836773Y-83679794D01*
X46743947Y-83903895D01*
X46681161Y-84138214D01*
X46649500Y-84378711D01*
X44000000Y-84378711D01*
X44000000Y-76635777D01*
X52599500Y-76635777D01*
X52599500Y-79264208D01*
X52599501Y-79264223D01*
X52609904Y-79396413D01*
X52609905Y-79396420D01*
X52664902Y-79614678D01*
X52664903Y-79614681D01*
X52757991Y-79819622D01*
X52757997Y-79819632D01*
X52886174Y-80004645D01*
X52886178Y-80004650D01*
X52886181Y-80004654D01*
X53045346Y-80163819D01*
X53045350Y-80163822D01*
X53045354Y-80163825D01*
X53117525Y-80213825D01*
X53230374Y-80292007D01*
X53435317Y-80385096D01*
X53435321Y-80385097D01*
X53653579Y-80440094D01*
X53653581Y-80440094D01*
X53653588Y-80440096D01*
X53785783Y-80450500D01*
X55414216Y-80450499D01*
X55546412Y-80440096D01*
X55764683Y-80385096D01*
X55969626Y-80292007D01*
X56154654Y-80163819D01*
X56313819Y-80004654D01*
X56442007Y-79819626D01*
X56535096Y-79614683D01*
X56590096Y-79396412D01*
X56600500Y-79264217D01*
X56600499Y-76685777D01*
X61399500Y-76685777D01*
X61399500Y-79314208D01*
X61399501Y-79314223D01*
X61409904Y-79446413D01*
X61409905Y-79446420D01*
X61464902Y-79664678D01*
X61464903Y-79664681D01*
X61557991Y-79869622D01*
X61557997Y-79869632D01*
X61686174Y-80054645D01*
X61686178Y-80054650D01*
X61686181Y-80054654D01*
X61845346Y-80213819D01*
X61845350Y-80213822D01*
X61845354Y-80213825D01*
X61958196Y-80292002D01*
X62030374Y-80342007D01*
X62235317Y-80435096D01*
X62235321Y-80435097D01*
X62453579Y-80490094D01*
X62453581Y-80490094D01*
X62453588Y-80490096D01*
X62585783Y-80500500D01*
X64214216Y-80500499D01*
X64346412Y-80490096D01*
X64564683Y-80435096D01*
X64769626Y-80342007D01*
X64954654Y-80213819D01*
X65113819Y-80054654D01*
X65242007Y-79869626D01*
X65335096Y-79664683D01*
X65390096Y-79446412D01*
X65400500Y-79314217D01*
X65400500Y-78499988D01*
X73494630Y-78499988D01*
X73494630Y-78500011D01*
X73514102Y-78983211D01*
X73514104Y-78983237D01*
X73572398Y-79463332D01*
X73669136Y-79937185D01*
X73803689Y-80401714D01*
X73975185Y-80853910D01*
X74182512Y-81290841D01*
X74424322Y-81709668D01*
X74424327Y-81709674D01*
X74699058Y-82107691D01*
X75004914Y-82482295D01*
X75004916Y-82482297D01*
X75339934Y-82831088D01*
X75346356Y-82836777D01*
X75701920Y-83151779D01*
X75701924Y-83151782D01*
X75701932Y-83151789D01*
X76088561Y-83442323D01*
X76497315Y-83700803D01*
X76925543Y-83925554D01*
X77370466Y-84115118D01*
X77829201Y-84268267D01*
X78085303Y-84331390D01*
X78298767Y-84384004D01*
X78298783Y-84384007D01*
X78726019Y-84453439D01*
X78776133Y-84461584D01*
X79258188Y-84500500D01*
X79258197Y-84500500D01*
X79741803Y-84500500D01*
X79741812Y-84500500D01*
X80223867Y-84461584D01*
X80701228Y-84384005D01*
X80722707Y-84378711D01*
X88149500Y-84378711D01*
X88149500Y-84621288D01*
X88181161Y-84861785D01*
X88243947Y-85096104D01*
X88301649Y-85235408D01*
X88336776Y-85320212D01*
X88458064Y-85530289D01*
X88458066Y-85530292D01*
X88458067Y-85530293D01*
X88605733Y-85722736D01*
X88605739Y-85722743D01*
X88777256Y-85894260D01*
X88777263Y-85894266D01*
X88847124Y-85947872D01*
X88969711Y-86041936D01*
X89179788Y-86163224D01*
X89403900Y-86256054D01*
X89638211Y-86318838D01*
X89818586Y-86342584D01*
X89878711Y-86350500D01*
X89878712Y-86350500D01*
X90121289Y-86350500D01*
X90173730Y-86343596D01*
X90361789Y-86318838D01*
X90596100Y-86256054D01*
X90820212Y-86163224D01*
X91030289Y-86041936D01*
X91222738Y-85894265D01*
X91394265Y-85722738D01*
X91541936Y-85530289D01*
X91663224Y-85320212D01*
X91756054Y-85096100D01*
X91818838Y-84861789D01*
X91850500Y-84621288D01*
X91850500Y-84378712D01*
X91818838Y-84138211D01*
X91756054Y-83903900D01*
X91745620Y-83878711D01*
X151149500Y-83878711D01*
X151149500Y-84121288D01*
X151181161Y-84361785D01*
X151243947Y-84596104D01*
X151331306Y-84807007D01*
X151336776Y-84820212D01*
X151458064Y-85030289D01*
X151458066Y-85030292D01*
X151458067Y-85030293D01*
X151605733Y-85222736D01*
X151605739Y-85222743D01*
X151777256Y-85394260D01*
X151777262Y-85394265D01*
X151969711Y-85541936D01*
X152179788Y-85663224D01*
X152403900Y-85756054D01*
X152638211Y-85818838D01*
X152818586Y-85842584D01*
X152878711Y-85850500D01*
X152878712Y-85850500D01*
X153121289Y-85850500D01*
X153169388Y-85844167D01*
X153361789Y-85818838D01*
X153596100Y-85756054D01*
X153820212Y-85663224D01*
X154030289Y-85541936D01*
X154222738Y-85394265D01*
X154394265Y-85222738D01*
X154541936Y-85030289D01*
X154663224Y-84820212D01*
X154756054Y-84596100D01*
X154818838Y-84361789D01*
X154850500Y-84121288D01*
X154850500Y-83878712D01*
X154818838Y-83638211D01*
X154756054Y-83403900D01*
X154663224Y-83179788D01*
X154541936Y-82969711D01*
X154394265Y-82777262D01*
X154394260Y-82777256D01*
X154222743Y-82605739D01*
X154222736Y-82605733D01*
X154030293Y-82458067D01*
X154030292Y-82458066D01*
X154030289Y-82458064D01*
X153820212Y-82336776D01*
X153820205Y-82336773D01*
X153596104Y-82243947D01*
X153361785Y-82181161D01*
X153121289Y-82149500D01*
X153121288Y-82149500D01*
X152878712Y-82149500D01*
X152878711Y-82149500D01*
X152638214Y-82181161D01*
X152403895Y-82243947D01*
X152179794Y-82336773D01*
X152179785Y-82336777D01*
X151969706Y-82458067D01*
X151777263Y-82605733D01*
X151777256Y-82605739D01*
X151605739Y-82777256D01*
X151605733Y-82777263D01*
X151458067Y-82969706D01*
X151336777Y-83179785D01*
X151336773Y-83179794D01*
X151243947Y-83403895D01*
X151181161Y-83638214D01*
X151149500Y-83878711D01*
X91745620Y-83878711D01*
X91663224Y-83679788D01*
X91541936Y-83469711D01*
X91394265Y-83277262D01*
X91394260Y-83277256D01*
X91222743Y-83105739D01*
X91222736Y-83105733D01*
X91030293Y-82958067D01*
X91030292Y-82958066D01*
X91030289Y-82958064D01*
X90820212Y-82836776D01*
X90806478Y-82831087D01*
X90596104Y-82743947D01*
X90361785Y-82681161D01*
X90121289Y-82649500D01*
X90121288Y-82649500D01*
X89878712Y-82649500D01*
X89878711Y-82649500D01*
X89638214Y-82681161D01*
X89403895Y-82743947D01*
X89179794Y-82836773D01*
X89179785Y-82836777D01*
X88969706Y-82958067D01*
X88777263Y-83105733D01*
X88777256Y-83105739D01*
X88605739Y-83277256D01*
X88605733Y-83277263D01*
X88458067Y-83469706D01*
X88336777Y-83679785D01*
X88336773Y-83679794D01*
X88243947Y-83903895D01*
X88181161Y-84138214D01*
X88149500Y-84378711D01*
X80722707Y-84378711D01*
X81170799Y-84268267D01*
X81629534Y-84115118D01*
X82074457Y-83925554D01*
X82502685Y-83700803D01*
X82911439Y-83442323D01*
X83298068Y-83151789D01*
X83660066Y-82831088D01*
X83995084Y-82482297D01*
X84300950Y-82107680D01*
X84575679Y-81709665D01*
X84817491Y-81290835D01*
X85024817Y-80853905D01*
X85177808Y-80450499D01*
X85196310Y-80401714D01*
X85201124Y-80385096D01*
X85330865Y-79937179D01*
X85427602Y-79463329D01*
X85485896Y-78983232D01*
X85505370Y-78500000D01*
X85485896Y-78016768D01*
X85427602Y-77536671D01*
X85330865Y-77062821D01*
X85221657Y-76685791D01*
X85196310Y-76598285D01*
X85096581Y-76335321D01*
X85024817Y-76146095D01*
X84817491Y-75709165D01*
X84702448Y-75509905D01*
X84575677Y-75290331D01*
X84575672Y-75290325D01*
X84441611Y-75096104D01*
X84300950Y-74892320D01*
X84300945Y-74892314D01*
X84300941Y-74892308D01*
X83995085Y-74517704D01*
X83995079Y-74517698D01*
X83861580Y-74378711D01*
X88149500Y-74378711D01*
X88149500Y-74621288D01*
X88181161Y-74861785D01*
X88243947Y-75096104D01*
X88336773Y-75320205D01*
X88336776Y-75320212D01*
X88458064Y-75530289D01*
X88458066Y-75530292D01*
X88458067Y-75530293D01*
X88605733Y-75722736D01*
X88605739Y-75722743D01*
X88777256Y-75894260D01*
X88777263Y-75894266D01*
X88890321Y-75981018D01*
X88969711Y-76041936D01*
X89179788Y-76163224D01*
X89403900Y-76256054D01*
X89638211Y-76318838D01*
X89818586Y-76342584D01*
X89878711Y-76350500D01*
X89878712Y-76350500D01*
X90121289Y-76350500D01*
X90169388Y-76344167D01*
X90361789Y-76318838D01*
X90596100Y-76256054D01*
X90820212Y-76163224D01*
X91030289Y-76041936D01*
X91222738Y-75894265D01*
X91394265Y-75722738D01*
X91541936Y-75530289D01*
X91663224Y-75320212D01*
X91756054Y-75096100D01*
X91818838Y-74861789D01*
X91850500Y-74621288D01*
X91850500Y-74378712D01*
X91818838Y-74138211D01*
X91756054Y-73903900D01*
X91663224Y-73679788D01*
X91541936Y-73469711D01*
X91394265Y-73277262D01*
X91394260Y-73277256D01*
X91222743Y-73105739D01*
X91222736Y-73105733D01*
X91030293Y-72958067D01*
X91030292Y-72958066D01*
X91030289Y-72958064D01*
X90820212Y-72836776D01*
X90820205Y-72836773D01*
X90596104Y-72743947D01*
X90361785Y-72681161D01*
X90121289Y-72649500D01*
X90121288Y-72649500D01*
X89878712Y-72649500D01*
X89878711Y-72649500D01*
X89638214Y-72681161D01*
X89403895Y-72743947D01*
X89179794Y-72836773D01*
X89179785Y-72836777D01*
X88969706Y-72958067D01*
X88777263Y-73105733D01*
X88777256Y-73105739D01*
X88605739Y-73277256D01*
X88605733Y-73277263D01*
X88458067Y-73469706D01*
X88336777Y-73679785D01*
X88336773Y-73679794D01*
X88243947Y-73903895D01*
X88181161Y-74138214D01*
X88149500Y-74378711D01*
X83861580Y-74378711D01*
X83660066Y-74168912D01*
X83298079Y-73848220D01*
X83298073Y-73848215D01*
X83298068Y-73848211D01*
X82911439Y-73557677D01*
X82502685Y-73299197D01*
X82074457Y-73074446D01*
X81629534Y-72884882D01*
X81629526Y-72884879D01*
X81629523Y-72884878D01*
X81402843Y-72809201D01*
X81170799Y-72731733D01*
X81170795Y-72731732D01*
X81170788Y-72731730D01*
X80701232Y-72615995D01*
X80701216Y-72615992D01*
X80223872Y-72538416D01*
X79741822Y-72499500D01*
X79741812Y-72499500D01*
X79258188Y-72499500D01*
X79258177Y-72499500D01*
X78776127Y-72538416D01*
X78298783Y-72615992D01*
X78298767Y-72615995D01*
X77829211Y-72731730D01*
X77829204Y-72731732D01*
X77370476Y-72884878D01*
X77370468Y-72884881D01*
X77370466Y-72884882D01*
X77205832Y-72955025D01*
X76925549Y-73074443D01*
X76925544Y-73074445D01*
X76925543Y-73074446D01*
X76865927Y-73105735D01*
X76497318Y-73299195D01*
X76088559Y-73557678D01*
X75701920Y-73848220D01*
X75339933Y-74168912D01*
X75004920Y-74517698D01*
X75004914Y-74517704D01*
X74699058Y-74892308D01*
X74424327Y-75290325D01*
X74424322Y-75290331D01*
X74182512Y-75709158D01*
X73975185Y-76146089D01*
X73803689Y-76598285D01*
X73669136Y-77062814D01*
X73572398Y-77536667D01*
X73514104Y-78016762D01*
X73514102Y-78016788D01*
X73494630Y-78499988D01*
X65400500Y-78499988D01*
X65400499Y-76685784D01*
X65390096Y-76553588D01*
X65377496Y-76503586D01*
X65335097Y-76335321D01*
X65335096Y-76335318D01*
X65327610Y-76318838D01*
X65242007Y-76130374D01*
X65113819Y-75945346D01*
X64954654Y-75786181D01*
X64954650Y-75786178D01*
X64954645Y-75786174D01*
X64769632Y-75657997D01*
X64769630Y-75657995D01*
X64769626Y-75657993D01*
X64564683Y-75564904D01*
X64564681Y-75564903D01*
X64564678Y-75564902D01*
X64346420Y-75509905D01*
X64346413Y-75509904D01*
X64302347Y-75506436D01*
X64214217Y-75499500D01*
X64214215Y-75499500D01*
X62585791Y-75499500D01*
X62585776Y-75499501D01*
X62453586Y-75509904D01*
X62453579Y-75509905D01*
X62235321Y-75564902D01*
X62235318Y-75564903D01*
X62030377Y-75657991D01*
X62030367Y-75657997D01*
X61845354Y-75786174D01*
X61845342Y-75786184D01*
X61686184Y-75945342D01*
X61686174Y-75945354D01*
X61557997Y-76130367D01*
X61557991Y-76130377D01*
X61464903Y-76335318D01*
X61464902Y-76335321D01*
X61409905Y-76553579D01*
X61409904Y-76553586D01*
X61399500Y-76685777D01*
X56600499Y-76685777D01*
X56600499Y-76635784D01*
X56590096Y-76503588D01*
X56535096Y-76285317D01*
X56442007Y-76080374D01*
X56348459Y-75945346D01*
X56313825Y-75895354D01*
X56313822Y-75895350D01*
X56313819Y-75895346D01*
X56154654Y-75736181D01*
X56154650Y-75736178D01*
X56154645Y-75736174D01*
X55969632Y-75607997D01*
X55969630Y-75607995D01*
X55969626Y-75607993D01*
X55798554Y-75530289D01*
X55764681Y-75514903D01*
X55764678Y-75514902D01*
X55546420Y-75459905D01*
X55546413Y-75459904D01*
X55502347Y-75456436D01*
X55414217Y-75449500D01*
X55414215Y-75449500D01*
X53785791Y-75449500D01*
X53785776Y-75449501D01*
X53653586Y-75459904D01*
X53653579Y-75459905D01*
X53435321Y-75514902D01*
X53435318Y-75514903D01*
X53230377Y-75607991D01*
X53230367Y-75607997D01*
X53045354Y-75736174D01*
X53045342Y-75736184D01*
X52886184Y-75895342D01*
X52886174Y-75895354D01*
X52757997Y-76080367D01*
X52757991Y-76080377D01*
X52664903Y-76285318D01*
X52664902Y-76285321D01*
X52609905Y-76503579D01*
X52609904Y-76503586D01*
X52599500Y-76635777D01*
X44000000Y-76635777D01*
X44000000Y-75000710D01*
X44000007Y-74999358D01*
X44002328Y-74786517D01*
X44002793Y-74777073D01*
X44037646Y-74378711D01*
X46649500Y-74378711D01*
X46649500Y-74621288D01*
X46681161Y-74861785D01*
X46743947Y-75096104D01*
X46836773Y-75320205D01*
X46836776Y-75320212D01*
X46958064Y-75530289D01*
X46958066Y-75530292D01*
X46958067Y-75530293D01*
X47105733Y-75722736D01*
X47105739Y-75722743D01*
X47277256Y-75894260D01*
X47277263Y-75894266D01*
X47390321Y-75981018D01*
X47469711Y-76041936D01*
X47679788Y-76163224D01*
X47903900Y-76256054D01*
X48138211Y-76318838D01*
X48318586Y-76342584D01*
X48378711Y-76350500D01*
X48378712Y-76350500D01*
X48621289Y-76350500D01*
X48669388Y-76344167D01*
X48861789Y-76318838D01*
X49096100Y-76256054D01*
X49320212Y-76163224D01*
X49530289Y-76041936D01*
X49722738Y-75894265D01*
X49894265Y-75722738D01*
X50041936Y-75530289D01*
X50163224Y-75320212D01*
X50256054Y-75096100D01*
X50318838Y-74861789D01*
X50350500Y-74621288D01*
X50350500Y-74378712D01*
X50318838Y-74138211D01*
X50256054Y-73903900D01*
X50163224Y-73679788D01*
X50041936Y-73469711D01*
X49894265Y-73277262D01*
X49894260Y-73277256D01*
X49722743Y-73105739D01*
X49722736Y-73105733D01*
X49530293Y-72958067D01*
X49530292Y-72958066D01*
X49530289Y-72958064D01*
X49320212Y-72836776D01*
X49320205Y-72836773D01*
X49096104Y-72743947D01*
X48861785Y-72681161D01*
X48621289Y-72649500D01*
X48621288Y-72649500D01*
X48378712Y-72649500D01*
X48378711Y-72649500D01*
X48138214Y-72681161D01*
X47903895Y-72743947D01*
X47679794Y-72836773D01*
X47679785Y-72836777D01*
X47469706Y-72958067D01*
X47277263Y-73105733D01*
X47277256Y-73105739D01*
X47105739Y-73277256D01*
X47105733Y-73277263D01*
X46958067Y-73469706D01*
X46836777Y-73679785D01*
X46836773Y-73679794D01*
X46743947Y-73903895D01*
X46681161Y-74138214D01*
X46649500Y-74378711D01*
X44037646Y-74378711D01*
X44039943Y-74352444D01*
X44041355Y-74341725D01*
X44115257Y-73922602D01*
X44117589Y-73912083D01*
X44227749Y-73500959D01*
X44230989Y-73490683D01*
X44376558Y-73090736D01*
X44380679Y-73080786D01*
X44560552Y-72695047D01*
X44565532Y-72685480D01*
X44778332Y-72316900D01*
X44784125Y-72307806D01*
X45028246Y-71959165D01*
X45034812Y-71950609D01*
X45308394Y-71624566D01*
X45315681Y-71616615D01*
X45616615Y-71315681D01*
X45624566Y-71308394D01*
X45950609Y-71034812D01*
X45959165Y-71028246D01*
X46307806Y-70784125D01*
X46316900Y-70778332D01*
X46685480Y-70565532D01*
X46695047Y-70560552D01*
X47080786Y-70380679D01*
X47090736Y-70376558D01*
X47490683Y-70230989D01*
X47500959Y-70227749D01*
X47912083Y-70117589D01*
X47922602Y-70115257D01*
X48341732Y-70041353D01*
X48352444Y-70039943D01*
X48777085Y-70002792D01*
X48786517Y-70002328D01*
X48999358Y-70000006D01*
X49000710Y-70000000D01*
X176317120Y-70000000D01*
X176384159Y-70019685D01*
G37*
G04 #@! TD.AperFunction*
M02*
