G04 #@! TF.GenerationSoftware,KiCad,Pcbnew,8.0.7*
G04 #@! TF.CreationDate,2025-07-25T20:57:14-04:00*
G04 #@! TF.ProjectId,Sum25_GTR,53756d32-355f-4475-9452-2e6b69636164,rev?*
G04 #@! TF.SameCoordinates,Original*
G04 #@! TF.FileFunction,Soldermask,Top*
G04 #@! TF.FilePolarity,Negative*
%FSLAX46Y46*%
G04 Gerber Fmt 4.6, Leading zero omitted, Abs format (unit mm)*
G04 Created by KiCad (PCBNEW 8.0.7) date 2025-07-25 20:57:14*
%MOMM*%
%LPD*%
G01*
G04 APERTURE LIST*
G04 Aperture macros list*
%AMRoundRect*
0 Rectangle with rounded corners*
0 $1 Rounding radius*
0 $2 $3 $4 $5 $6 $7 $8 $9 X,Y pos of 4 corners*
0 Add a 4 corners polygon primitive as box body*
4,1,4,$2,$3,$4,$5,$6,$7,$8,$9,$2,$3,0*
0 Add four circle primitives for the rounded corners*
1,1,$1+$1,$2,$3*
1,1,$1+$1,$4,$5*
1,1,$1+$1,$6,$7*
1,1,$1+$1,$8,$9*
0 Add four rect primitives between the rounded corners*
20,1,$1+$1,$2,$3,$4,$5,0*
20,1,$1+$1,$4,$5,$6,$7,0*
20,1,$1+$1,$6,$7,$8,$9,0*
20,1,$1+$1,$8,$9,$2,$3,0*%
G04 Aperture macros list end*
%ADD10RoundRect,0.249900X0.400100X-0.275100X0.400100X0.275100X-0.400100X0.275100X-0.400100X-0.275100X0*%
%ADD11O,1.300000X1.050000*%
%ADD12R,1.800000X1.800000*%
%ADD13C,1.800000*%
%ADD14RoundRect,0.750000X0.750000X-1.250000X0.750000X1.250000X-0.750000X1.250000X-0.750000X-1.250000X0*%
%ADD15C,3.200000*%
%ADD16RoundRect,0.249900X-0.400100X0.275100X-0.400100X-0.275100X0.400100X-0.275100X0.400100X0.275100X0*%
%ADD17C,6.800000*%
%ADD18C,11.000000*%
%ADD19C,1.600000*%
%ADD20C,1.400000*%
%ADD21O,1.400000X1.400000*%
%ADD22R,1.700000X1.700000*%
%ADD23O,1.700000X1.700000*%
G04 APERTURE END LIST*
D10*
X98000000Y-95600000D03*
D11*
X98000000Y-94000000D03*
X98000000Y-92400000D03*
D12*
X56500000Y-115000000D03*
D13*
X59000000Y-115000000D03*
X61500000Y-115000000D03*
D14*
X54600000Y-108000000D03*
X63400000Y-108000000D03*
D15*
X153000000Y-104000000D03*
X48500000Y-84500000D03*
X90000000Y-103500000D03*
X153000000Y-84000000D03*
X221500000Y-113500000D03*
D16*
X208000000Y-92700000D03*
D11*
X208000000Y-94000000D03*
X208000000Y-95300000D03*
D17*
X76500000Y-107500000D03*
D18*
X76500000Y-107500000D03*
D15*
X221500000Y-103500000D03*
X221500000Y-74500000D03*
X90000000Y-84500000D03*
X90000000Y-113500000D03*
D12*
X56500000Y-85000000D03*
D13*
X59000000Y-85000000D03*
X61500000Y-85000000D03*
D14*
X63400000Y-78000000D03*
X54600000Y-77950000D03*
D15*
X48500000Y-113500000D03*
D17*
X76500000Y-78500000D03*
D18*
X76500000Y-78500000D03*
D15*
X221500000Y-84500000D03*
X48500000Y-103500000D03*
X90000000Y-74500000D03*
X48500000Y-74500000D03*
D19*
X211500000Y-87000000D03*
X216500000Y-87000000D03*
D20*
X158690000Y-83000000D03*
D21*
X166310000Y-83000000D03*
D19*
X98000000Y-100000000D03*
X93000000Y-100000000D03*
D22*
X221500000Y-90000000D03*
D23*
X221500000Y-92540000D03*
X221500000Y-95080000D03*
X221500000Y-97620000D03*
D20*
X158690000Y-85500000D03*
D21*
X166310000Y-85500000D03*
D22*
X170500000Y-85000000D03*
D23*
X173040000Y-85000000D03*
X175580000Y-85000000D03*
X178120000Y-85000000D03*
M02*
