M48
; DRILL file {KiCad 8.0.7} date 2025-07-25T20:57:18-0400
; FORMAT={-:-/ absolute / metric / decimal}
; #@! TF.CreationDate,2025-07-25T20:57:18-04:00
; #@! TF.GenerationSoftware,Kicad,Pcbnew,8.0.7
; #@! TF.FileFunction,Plated,1,2,PTH
FMAT,2
METRIC
; #@! TA.AperFunction,Plated,PTH,ViaDrill
T1C0.400
; #@! TA.AperFunction,Plated,PTH,ComponentDrill
T2C0.600
; #@! TA.AperFunction,Plated,PTH,ComponentDrill
T3C0.700
; #@! TA.AperFunction,Plated,PTH,ComponentDrill
T4C0.800
; #@! TA.AperFunction,Plated,PTH,ComponentDrill
T5C1.000
; #@! TA.AperFunction,Plated,PTH,ComponentDrill
T6C1.800
; #@! TA.AperFunction,Plated,PTH,ComponentDrill
T7C6.400
%
G90
G05
T1
X206.0Y-76.5
X206.5Y-73.0
X206.5Y-74.0
X206.5Y-75.0
T2
X98.0Y-92.4
X98.0Y-94.0
X98.0Y-95.6
X208.0Y-92.7
X208.0Y-94.0
X208.0Y-95.3
T3
X158.69Y-83.0
X158.69Y-85.5
X166.31Y-83.0
X166.31Y-85.5
T4
X93.0Y-100.0
X98.0Y-100.0
X211.5Y-87.0
X216.5Y-87.0
T5
X56.5Y-85.0
X56.5Y-115.0
X59.0Y-85.0
X59.0Y-115.0
X61.5Y-85.0
X61.5Y-115.0
X170.5Y-85.0
X173.04Y-85.0
X175.58Y-85.0
X178.12Y-85.0
X221.5Y-90.0
X221.5Y-92.54
X221.5Y-95.08
X221.5Y-97.62
T7
X76.5Y-78.5
X76.5Y-107.5
T6
X54.6Y-78.1G85X54.6Y-77.8
G05
X54.6Y-108.15G85X54.6Y-107.85
G05
X63.4Y-78.15G85X63.4Y-77.85
G05
X63.4Y-108.15G85X63.4Y-107.85
G05
M30
