G04 #@! TF.GenerationSoftware,KiCad,Pcbnew,8.0.7*
G04 #@! TF.CreationDate,2025-06-18T23:26:37-07:00*
G04 #@! TF.ProjectId,ESP32_MIDI_Summer25_GTR.kicad_pro,45535033-325f-44d4-9944-495f53756d6d,rev?*
G04 #@! TF.SameCoordinates,Original*
G04 #@! TF.FileFunction,Soldermask,Top*
G04 #@! TF.FilePolarity,Negative*
%FSLAX46Y46*%
G04 Gerber Fmt 4.6, Leading zero omitted, Abs format (unit mm)*
G04 Created by KiCad (PCBNEW 8.0.7) date 2025-06-18 23:26:37*
%MOMM*%
%LPD*%
G01*
G04 APERTURE LIST*
G04 Aperture macros list*
%AMRoundRect*
0 Rectangle with rounded corners*
0 $1 Rounding radius*
0 $2 $3 $4 $5 $6 $7 $8 $9 X,Y pos of 4 corners*
0 Add a 4 corners polygon primitive as box body*
4,1,4,$2,$3,$4,$5,$6,$7,$8,$9,$2,$3,0*
0 Add four circle primitives for the rounded corners*
1,1,$1+$1,$2,$3*
1,1,$1+$1,$4,$5*
1,1,$1+$1,$6,$7*
1,1,$1+$1,$8,$9*
0 Add four rect primitives between the rounded corners*
20,1,$1+$1,$2,$3,$4,$5,0*
20,1,$1+$1,$4,$5,$6,$7,0*
20,1,$1+$1,$6,$7,$8,$9,0*
20,1,$1+$1,$8,$9,$2,$3,0*%
G04 Aperture macros list end*
%ADD10R,1.800000X1.800000*%
%ADD11C,1.800000*%
%ADD12RoundRect,0.750000X0.750000X-1.250000X0.750000X1.250000X-0.750000X1.250000X-0.750000X-1.250000X0*%
%ADD13C,3.200000*%
%ADD14C,4.300000*%
%ADD15RoundRect,0.249900X0.400100X-0.275100X0.400100X0.275100X-0.400100X0.275100X-0.400100X-0.275100X0*%
%ADD16O,1.300000X1.050000*%
%ADD17RoundRect,0.249900X-0.400100X0.275100X-0.400100X-0.275100X0.400100X-0.275100X0.400100X0.275100X0*%
%ADD18C,6.800000*%
%ADD19C,11.000000*%
%ADD20C,1.600000*%
%ADD21RoundRect,0.250000X0.600000X-0.600000X0.600000X0.600000X-0.600000X0.600000X-0.600000X-0.600000X0*%
%ADD22C,1.700000*%
%ADD23C,1.400000*%
%ADD24O,1.400000X1.400000*%
G04 APERTURE END LIST*
D10*
X56500000Y-112000000D03*
D11*
X59000000Y-112000000D03*
X61500000Y-112000000D03*
D12*
X54600000Y-105000000D03*
X63400000Y-105000000D03*
D13*
X153000000Y-84000000D03*
D14*
X222000000Y-114000000D03*
D15*
X98000000Y-83300000D03*
D16*
X98000000Y-82000000D03*
X98000000Y-80700000D03*
D17*
X208000000Y-80700000D03*
D16*
X208000000Y-82000000D03*
X208000000Y-83300000D03*
D18*
X78000000Y-105000000D03*
D19*
X78000000Y-105000000D03*
D14*
X222000000Y-74000000D03*
D13*
X154000000Y-114000000D03*
X153000000Y-104000000D03*
D10*
X56500000Y-90000000D03*
D11*
X59000000Y-90000000D03*
X61500000Y-90000000D03*
D12*
X63400000Y-83000000D03*
X54600000Y-82950000D03*
D14*
X48000000Y-114000000D03*
D18*
X78000000Y-83000000D03*
D19*
X78000000Y-83000000D03*
D13*
X184000000Y-114000000D03*
D14*
X48000000Y-74000000D03*
D20*
X209500000Y-86500000D03*
X214500000Y-86500000D03*
D21*
X174000000Y-108000000D03*
D22*
X174000000Y-105460000D03*
X171460000Y-108000000D03*
X171460000Y-105460000D03*
X168920000Y-108000000D03*
X168920000Y-105460000D03*
X166380000Y-108000000D03*
X166380000Y-105460000D03*
X163840000Y-108000000D03*
X163840000Y-105460000D03*
D23*
X189310000Y-105500000D03*
D24*
X181690000Y-105500000D03*
D20*
X96500000Y-88500000D03*
X91500000Y-88500000D03*
D23*
X189310000Y-108500000D03*
D24*
X181690000Y-108500000D03*
M02*
