G04 #@! TF.GenerationSoftware,KiCad,Pcbnew,8.0.7*
G04 #@! TF.CreationDate,2025-07-25T20:57:14-04:00*
G04 #@! TF.ProjectId,Sum25_GTR,53756d32-355f-4475-9452-2e6b69636164,rev?*
G04 #@! TF.SameCoordinates,Original*
G04 #@! TF.FileFunction,Legend,Top*
G04 #@! TF.FilePolarity,Positive*
%FSLAX46Y46*%
G04 Gerber Fmt 4.6, Leading zero omitted, Abs format (unit mm)*
G04 Created by KiCad (PCBNEW 8.0.7) date 2025-07-25 20:57:14*
%MOMM*%
%LPD*%
G01*
G04 APERTURE LIST*
G04 Aperture macros list*
%AMRoundRect*
0 Rectangle with rounded corners*
0 $1 Rounding radius*
0 $2 $3 $4 $5 $6 $7 $8 $9 X,Y pos of 4 corners*
0 Add a 4 corners polygon primitive as box body*
4,1,4,$2,$3,$4,$5,$6,$7,$8,$9,$2,$3,0*
0 Add four circle primitives for the rounded corners*
1,1,$1+$1,$2,$3*
1,1,$1+$1,$4,$5*
1,1,$1+$1,$6,$7*
1,1,$1+$1,$8,$9*
0 Add four rect primitives between the rounded corners*
20,1,$1+$1,$2,$3,$4,$5,0*
20,1,$1+$1,$4,$5,$6,$7,0*
20,1,$1+$1,$6,$7,$8,$9,0*
20,1,$1+$1,$8,$9,$2,$3,0*%
G04 Aperture macros list end*
%ADD10C,0.200000*%
%ADD11C,0.150000*%
%ADD12C,0.120000*%
%ADD13RoundRect,0.249900X0.400100X-0.275100X0.400100X0.275100X-0.400100X0.275100X-0.400100X-0.275100X0*%
%ADD14O,1.300000X1.050000*%
%ADD15R,1.800000X1.800000*%
%ADD16C,1.800000*%
%ADD17RoundRect,0.750000X0.750000X-1.250000X0.750000X1.250000X-0.750000X1.250000X-0.750000X-1.250000X0*%
%ADD18C,3.200000*%
%ADD19RoundRect,0.249900X-0.400100X0.275100X-0.400100X-0.275100X0.400100X-0.275100X0.400100X0.275100X0*%
%ADD20C,6.800000*%
%ADD21C,11.000000*%
%ADD22C,1.600000*%
%ADD23C,1.400000*%
%ADD24O,1.400000X1.400000*%
%ADD25R,1.700000X1.700000*%
%ADD26O,1.700000X1.700000*%
G04 APERTURE END LIST*
D10*
X89000000Y-77000000D02*
X217000000Y-77000000D01*
X217000000Y-111000000D01*
X89000000Y-111000000D01*
X89000000Y-77000000D01*
D11*
X89834819Y-94761904D02*
X90644342Y-94761904D01*
X90644342Y-94761904D02*
X90739580Y-94714285D01*
X90739580Y-94714285D02*
X90787200Y-94666666D01*
X90787200Y-94666666D02*
X90834819Y-94571428D01*
X90834819Y-94571428D02*
X90834819Y-94380952D01*
X90834819Y-94380952D02*
X90787200Y-94285714D01*
X90787200Y-94285714D02*
X90739580Y-94238095D01*
X90739580Y-94238095D02*
X90644342Y-94190476D01*
X90644342Y-94190476D02*
X89834819Y-94190476D01*
X89834819Y-93238095D02*
X89834819Y-93714285D01*
X89834819Y-93714285D02*
X90311009Y-93761904D01*
X90311009Y-93761904D02*
X90263390Y-93714285D01*
X90263390Y-93714285D02*
X90215771Y-93619047D01*
X90215771Y-93619047D02*
X90215771Y-93380952D01*
X90215771Y-93380952D02*
X90263390Y-93285714D01*
X90263390Y-93285714D02*
X90311009Y-93238095D01*
X90311009Y-93238095D02*
X90406247Y-93190476D01*
X90406247Y-93190476D02*
X90644342Y-93190476D01*
X90644342Y-93190476D02*
X90739580Y-93238095D01*
X90739580Y-93238095D02*
X90787200Y-93285714D01*
X90787200Y-93285714D02*
X90834819Y-93380952D01*
X90834819Y-93380952D02*
X90834819Y-93619047D01*
X90834819Y-93619047D02*
X90787200Y-93714285D01*
X90787200Y-93714285D02*
X90739580Y-93761904D01*
X51804819Y-109545238D02*
X51328628Y-109878571D01*
X51804819Y-110116666D02*
X50804819Y-110116666D01*
X50804819Y-110116666D02*
X50804819Y-109735714D01*
X50804819Y-109735714D02*
X50852438Y-109640476D01*
X50852438Y-109640476D02*
X50900057Y-109592857D01*
X50900057Y-109592857D02*
X50995295Y-109545238D01*
X50995295Y-109545238D02*
X51138152Y-109545238D01*
X51138152Y-109545238D02*
X51233390Y-109592857D01*
X51233390Y-109592857D02*
X51281009Y-109640476D01*
X51281009Y-109640476D02*
X51328628Y-109735714D01*
X51328628Y-109735714D02*
X51328628Y-110116666D01*
X50804819Y-109259523D02*
X51804819Y-108926190D01*
X51804819Y-108926190D02*
X50804819Y-108592857D01*
X51804819Y-107735714D02*
X51804819Y-108307142D01*
X51804819Y-108021428D02*
X50804819Y-108021428D01*
X50804819Y-108021428D02*
X50947676Y-108116666D01*
X50947676Y-108116666D02*
X51042914Y-108211904D01*
X51042914Y-108211904D02*
X51090533Y-108307142D01*
X152238095Y-100254819D02*
X152238095Y-99254819D01*
X152238095Y-99731009D02*
X152809523Y-99731009D01*
X152809523Y-100254819D02*
X152809523Y-99254819D01*
X153714285Y-99254819D02*
X153523809Y-99254819D01*
X153523809Y-99254819D02*
X153428571Y-99302438D01*
X153428571Y-99302438D02*
X153380952Y-99350057D01*
X153380952Y-99350057D02*
X153285714Y-99492914D01*
X153285714Y-99492914D02*
X153238095Y-99683390D01*
X153238095Y-99683390D02*
X153238095Y-100064342D01*
X153238095Y-100064342D02*
X153285714Y-100159580D01*
X153285714Y-100159580D02*
X153333333Y-100207200D01*
X153333333Y-100207200D02*
X153428571Y-100254819D01*
X153428571Y-100254819D02*
X153619047Y-100254819D01*
X153619047Y-100254819D02*
X153714285Y-100207200D01*
X153714285Y-100207200D02*
X153761904Y-100159580D01*
X153761904Y-100159580D02*
X153809523Y-100064342D01*
X153809523Y-100064342D02*
X153809523Y-99826247D01*
X153809523Y-99826247D02*
X153761904Y-99731009D01*
X153761904Y-99731009D02*
X153714285Y-99683390D01*
X153714285Y-99683390D02*
X153619047Y-99635771D01*
X153619047Y-99635771D02*
X153428571Y-99635771D01*
X153428571Y-99635771D02*
X153333333Y-99683390D01*
X153333333Y-99683390D02*
X153285714Y-99731009D01*
X153285714Y-99731009D02*
X153238095Y-99826247D01*
X46761905Y-85804819D02*
X46761905Y-84804819D01*
X46761905Y-85281009D02*
X47333333Y-85281009D01*
X47333333Y-85804819D02*
X47333333Y-84804819D01*
X48333333Y-85804819D02*
X47761905Y-85804819D01*
X48047619Y-85804819D02*
X48047619Y-84804819D01*
X48047619Y-84804819D02*
X47952381Y-84947676D01*
X47952381Y-84947676D02*
X47857143Y-85042914D01*
X47857143Y-85042914D02*
X47761905Y-85090533D01*
X49285714Y-85804819D02*
X48714286Y-85804819D01*
X49000000Y-85804819D02*
X49000000Y-84804819D01*
X49000000Y-84804819D02*
X48904762Y-84947676D01*
X48904762Y-84947676D02*
X48809524Y-85042914D01*
X48809524Y-85042914D02*
X48714286Y-85090533D01*
X84761905Y-94254819D02*
X84761905Y-93254819D01*
X84761905Y-93731009D02*
X85333333Y-93731009D01*
X85333333Y-94254819D02*
X85333333Y-93254819D01*
X86333333Y-94254819D02*
X85761905Y-94254819D01*
X86047619Y-94254819D02*
X86047619Y-93254819D01*
X86047619Y-93254819D02*
X85952381Y-93397676D01*
X85952381Y-93397676D02*
X85857143Y-93492914D01*
X85857143Y-93492914D02*
X85761905Y-93540533D01*
X87190476Y-93254819D02*
X87000000Y-93254819D01*
X87000000Y-93254819D02*
X86904762Y-93302438D01*
X86904762Y-93302438D02*
X86857143Y-93350057D01*
X86857143Y-93350057D02*
X86761905Y-93492914D01*
X86761905Y-93492914D02*
X86714286Y-93683390D01*
X86714286Y-93683390D02*
X86714286Y-94064342D01*
X86714286Y-94064342D02*
X86761905Y-94159580D01*
X86761905Y-94159580D02*
X86809524Y-94207200D01*
X86809524Y-94207200D02*
X86904762Y-94254819D01*
X86904762Y-94254819D02*
X87095238Y-94254819D01*
X87095238Y-94254819D02*
X87190476Y-94207200D01*
X87190476Y-94207200D02*
X87238095Y-94159580D01*
X87238095Y-94159580D02*
X87285714Y-94064342D01*
X87285714Y-94064342D02*
X87285714Y-93826247D01*
X87285714Y-93826247D02*
X87238095Y-93731009D01*
X87238095Y-93731009D02*
X87190476Y-93683390D01*
X87190476Y-93683390D02*
X87095238Y-93635771D01*
X87095238Y-93635771D02*
X86904762Y-93635771D01*
X86904762Y-93635771D02*
X86809524Y-93683390D01*
X86809524Y-93683390D02*
X86761905Y-93731009D01*
X86761905Y-93731009D02*
X86714286Y-93826247D01*
X216165180Y-93238095D02*
X215355657Y-93238095D01*
X215355657Y-93238095D02*
X215260419Y-93285714D01*
X215260419Y-93285714D02*
X215212800Y-93333333D01*
X215212800Y-93333333D02*
X215165180Y-93428571D01*
X215165180Y-93428571D02*
X215165180Y-93619047D01*
X215165180Y-93619047D02*
X215212800Y-93714285D01*
X215212800Y-93714285D02*
X215260419Y-93761904D01*
X215260419Y-93761904D02*
X215355657Y-93809523D01*
X215355657Y-93809523D02*
X216165180Y-93809523D01*
X215831847Y-94714285D02*
X215165180Y-94714285D01*
X216212800Y-94476190D02*
X215498514Y-94238095D01*
X215498514Y-94238095D02*
X215498514Y-94857142D01*
X84761905Y-86304819D02*
X84761905Y-85304819D01*
X84761905Y-85781009D02*
X85333333Y-85781009D01*
X85333333Y-86304819D02*
X85333333Y-85304819D01*
X86333333Y-86304819D02*
X85761905Y-86304819D01*
X86047619Y-86304819D02*
X86047619Y-85304819D01*
X86047619Y-85304819D02*
X85952381Y-85447676D01*
X85952381Y-85447676D02*
X85857143Y-85542914D01*
X85857143Y-85542914D02*
X85761905Y-85590533D01*
X87238095Y-85304819D02*
X86761905Y-85304819D01*
X86761905Y-85304819D02*
X86714286Y-85781009D01*
X86714286Y-85781009D02*
X86761905Y-85733390D01*
X86761905Y-85733390D02*
X86857143Y-85685771D01*
X86857143Y-85685771D02*
X87095238Y-85685771D01*
X87095238Y-85685771D02*
X87190476Y-85733390D01*
X87190476Y-85733390D02*
X87238095Y-85781009D01*
X87238095Y-85781009D02*
X87285714Y-85876247D01*
X87285714Y-85876247D02*
X87285714Y-86114342D01*
X87285714Y-86114342D02*
X87238095Y-86209580D01*
X87238095Y-86209580D02*
X87190476Y-86257200D01*
X87190476Y-86257200D02*
X87095238Y-86304819D01*
X87095238Y-86304819D02*
X86857143Y-86304819D01*
X86857143Y-86304819D02*
X86761905Y-86257200D01*
X86761905Y-86257200D02*
X86714286Y-86209580D01*
X51804819Y-79545238D02*
X51328628Y-79878571D01*
X51804819Y-80116666D02*
X50804819Y-80116666D01*
X50804819Y-80116666D02*
X50804819Y-79735714D01*
X50804819Y-79735714D02*
X50852438Y-79640476D01*
X50852438Y-79640476D02*
X50900057Y-79592857D01*
X50900057Y-79592857D02*
X50995295Y-79545238D01*
X50995295Y-79545238D02*
X51138152Y-79545238D01*
X51138152Y-79545238D02*
X51233390Y-79592857D01*
X51233390Y-79592857D02*
X51281009Y-79640476D01*
X51281009Y-79640476D02*
X51328628Y-79735714D01*
X51328628Y-79735714D02*
X51328628Y-80116666D01*
X50804819Y-79259523D02*
X51804819Y-78926190D01*
X51804819Y-78926190D02*
X50804819Y-78592857D01*
X50900057Y-78307142D02*
X50852438Y-78259523D01*
X50852438Y-78259523D02*
X50804819Y-78164285D01*
X50804819Y-78164285D02*
X50804819Y-77926190D01*
X50804819Y-77926190D02*
X50852438Y-77830952D01*
X50852438Y-77830952D02*
X50900057Y-77783333D01*
X50900057Y-77783333D02*
X50995295Y-77735714D01*
X50995295Y-77735714D02*
X51090533Y-77735714D01*
X51090533Y-77735714D02*
X51233390Y-77783333D01*
X51233390Y-77783333D02*
X51804819Y-78354761D01*
X51804819Y-78354761D02*
X51804819Y-77735714D01*
X46761905Y-93754819D02*
X46761905Y-92754819D01*
X46761905Y-93231009D02*
X47333333Y-93231009D01*
X47333333Y-93754819D02*
X47333333Y-92754819D01*
X48333333Y-93754819D02*
X47761905Y-93754819D01*
X48047619Y-93754819D02*
X48047619Y-92754819D01*
X48047619Y-92754819D02*
X47952381Y-92897676D01*
X47952381Y-92897676D02*
X47857143Y-92992914D01*
X47857143Y-92992914D02*
X47761905Y-93040533D01*
X48714286Y-92850057D02*
X48761905Y-92802438D01*
X48761905Y-92802438D02*
X48857143Y-92754819D01*
X48857143Y-92754819D02*
X49095238Y-92754819D01*
X49095238Y-92754819D02*
X49190476Y-92802438D01*
X49190476Y-92802438D02*
X49238095Y-92850057D01*
X49238095Y-92850057D02*
X49285714Y-92945295D01*
X49285714Y-92945295D02*
X49285714Y-93040533D01*
X49285714Y-93040533D02*
X49238095Y-93183390D01*
X49238095Y-93183390D02*
X48666667Y-93754819D01*
X48666667Y-93754819D02*
X49285714Y-93754819D01*
D12*
X92000000Y-95500000D02*
X95000000Y-95500000D01*
X97500000Y-95300000D02*
X95000000Y-95300000D01*
X97500000Y-94000000D02*
X95000000Y-94000000D01*
X97500000Y-92700000D02*
X95000000Y-92700000D01*
X92000000Y-92500000D02*
X95000000Y-92500000D01*
X92000000Y-96500000D02*
X95000000Y-96500000D01*
X95000000Y-91500000D01*
X92000000Y-91500000D01*
X92000000Y-96500000D01*
X53979000Y-101880000D02*
X64020000Y-101880000D01*
X53979000Y-105816000D02*
X53979000Y-101880000D01*
X53979000Y-114120000D02*
X53979000Y-110183000D01*
X53979000Y-114120000D02*
X55300000Y-114120000D01*
X57750000Y-114120000D02*
X58130000Y-114120000D01*
X59871000Y-114120000D02*
X60630000Y-114120000D01*
X62370000Y-114120000D02*
X64020000Y-114120000D01*
X64020000Y-105816000D02*
X64020000Y-101880000D01*
X64020000Y-114120000D02*
X64020000Y-110183000D01*
X208500000Y-92700000D02*
X211000000Y-92700000D01*
X208500000Y-94000000D02*
X211000000Y-94000000D01*
X208500000Y-95300000D02*
X211000000Y-95300000D01*
X214000000Y-92500000D02*
X211000000Y-92500000D01*
X214000000Y-95500000D02*
X211000000Y-95500000D01*
X214000000Y-91500000D02*
X211000000Y-91500000D01*
X211000000Y-96500000D01*
X214000000Y-96500000D01*
X214000000Y-91500000D01*
X53979000Y-71880000D02*
X64020000Y-71880000D01*
X53979000Y-75816000D02*
X53979000Y-71880000D01*
X53979000Y-84120000D02*
X53979000Y-80183000D01*
X53979000Y-84120000D02*
X55300000Y-84120000D01*
X57750000Y-84120000D02*
X58130000Y-84120000D01*
X59871000Y-84120000D02*
X60630000Y-84120000D01*
X62370000Y-84120000D02*
X64020000Y-84120000D01*
X64020000Y-75816000D02*
X64020000Y-71880000D01*
X64020000Y-84120000D02*
X64020000Y-80183000D01*
%LPC*%
D13*
X98000000Y-95600000D03*
D14*
X98000000Y-94000000D03*
X98000000Y-92400000D03*
D15*
X56500000Y-115000000D03*
D16*
X59000000Y-115000000D03*
X61500000Y-115000000D03*
D17*
X54600000Y-108000000D03*
X63400000Y-108000000D03*
D18*
X153000000Y-104000000D03*
X48500000Y-84500000D03*
X90000000Y-103500000D03*
X153000000Y-84000000D03*
X221500000Y-113500000D03*
D19*
X208000000Y-92700000D03*
D14*
X208000000Y-94000000D03*
X208000000Y-95300000D03*
D20*
X76500000Y-107500000D03*
D21*
X76500000Y-107500000D03*
D18*
X221500000Y-103500000D03*
X221500000Y-74500000D03*
X90000000Y-84500000D03*
X90000000Y-113500000D03*
D15*
X56500000Y-85000000D03*
D16*
X59000000Y-85000000D03*
X61500000Y-85000000D03*
D17*
X63400000Y-78000000D03*
X54600000Y-77950000D03*
D18*
X48500000Y-113500000D03*
D20*
X76500000Y-78500000D03*
D21*
X76500000Y-78500000D03*
D18*
X221500000Y-84500000D03*
X48500000Y-103500000D03*
X90000000Y-74500000D03*
X48500000Y-74500000D03*
D22*
X211500000Y-87000000D03*
X216500000Y-87000000D03*
D23*
X158690000Y-83000000D03*
D24*
X166310000Y-83000000D03*
D22*
X98000000Y-100000000D03*
X93000000Y-100000000D03*
D25*
X221500000Y-90000000D03*
D26*
X221500000Y-92540000D03*
X221500000Y-95080000D03*
X221500000Y-97620000D03*
D23*
X158690000Y-85500000D03*
D24*
X166310000Y-85500000D03*
D25*
X170500000Y-85000000D03*
D26*
X173040000Y-85000000D03*
X175580000Y-85000000D03*
X178120000Y-85000000D03*
%LPD*%
M02*
