G04 #@! TF.GenerationSoftware,KiCad,Pcbnew,8.0.7*
G04 #@! TF.CreationDate,2025-07-25T20:57:14-04:00*
G04 #@! TF.ProjectId,Sum25_GTR,53756d32-355f-4475-9452-2e6b69636164,rev?*
G04 #@! TF.SameCoordinates,Original*
G04 #@! TF.FileFunction,Copper,L2,Bot*
G04 #@! TF.FilePolarity,Positive*
%FSLAX46Y46*%
G04 Gerber Fmt 4.6, Leading zero omitted, Abs format (unit mm)*
G04 Created by KiCad (PCBNEW 8.0.7) date 2025-07-25 20:57:14*
%MOMM*%
%LPD*%
G01*
G04 APERTURE LIST*
G04 Aperture macros list*
%AMRoundRect*
0 Rectangle with rounded corners*
0 $1 Rounding radius*
0 $2 $3 $4 $5 $6 $7 $8 $9 X,Y pos of 4 corners*
0 Add a 4 corners polygon primitive as box body*
4,1,4,$2,$3,$4,$5,$6,$7,$8,$9,$2,$3,0*
0 Add four circle primitives for the rounded corners*
1,1,$1+$1,$2,$3*
1,1,$1+$1,$4,$5*
1,1,$1+$1,$6,$7*
1,1,$1+$1,$8,$9*
0 Add four rect primitives between the rounded corners*
20,1,$1+$1,$2,$3,$4,$5,0*
20,1,$1+$1,$4,$5,$6,$7,0*
20,1,$1+$1,$6,$7,$8,$9,0*
20,1,$1+$1,$8,$9,$2,$3,0*%
%AMFreePoly0*
4,1,11,0.558779,3.080902,0.595106,3.030902,0.600000,3.000000,0.600000,-1.000000,-0.600000,-1.000000,-0.600000,3.000000,-0.580902,3.058779,-0.530902,3.095106,-0.500000,3.100000,0.500000,3.100000,0.558779,3.080902,0.558779,3.080902,$1*%
G04 Aperture macros list end*
G04 #@! TA.AperFunction,ComponentPad*
%ADD10RoundRect,0.249900X0.400100X-0.275100X0.400100X0.275100X-0.400100X0.275100X-0.400100X-0.275100X0*%
G04 #@! TD*
G04 #@! TA.AperFunction,ComponentPad*
%ADD11O,1.300000X1.050000*%
G04 #@! TD*
G04 #@! TA.AperFunction,ComponentPad*
%ADD12R,1.800000X1.800000*%
G04 #@! TD*
G04 #@! TA.AperFunction,ComponentPad*
%ADD13C,1.800000*%
G04 #@! TD*
G04 #@! TA.AperFunction,ComponentPad*
%ADD14RoundRect,0.750000X0.750000X-1.250000X0.750000X1.250000X-0.750000X1.250000X-0.750000X-1.250000X0*%
G04 #@! TD*
G04 #@! TA.AperFunction,ComponentPad*
%ADD15RoundRect,0.249900X-0.400100X0.275100X-0.400100X-0.275100X0.400100X-0.275100X0.400100X0.275100X0*%
G04 #@! TD*
G04 #@! TA.AperFunction,ComponentPad*
%ADD16C,6.800000*%
G04 #@! TD*
G04 #@! TA.AperFunction,ComponentPad*
%ADD17C,1.600000*%
G04 #@! TD*
G04 #@! TA.AperFunction,ComponentPad*
%ADD18C,1.400000*%
G04 #@! TD*
G04 #@! TA.AperFunction,ComponentPad*
%ADD19O,1.400000X1.400000*%
G04 #@! TD*
G04 #@! TA.AperFunction,SMDPad,CuDef*
%ADD20FreePoly0,270.000000*%
G04 #@! TD*
G04 #@! TA.AperFunction,SMDPad,CuDef*
%ADD21FreePoly0,90.000000*%
G04 #@! TD*
G04 #@! TA.AperFunction,ComponentPad*
%ADD22R,1.700000X1.700000*%
G04 #@! TD*
G04 #@! TA.AperFunction,ComponentPad*
%ADD23O,1.700000X1.700000*%
G04 #@! TD*
G04 #@! TA.AperFunction,ViaPad*
%ADD24C,0.800000*%
G04 #@! TD*
G04 #@! TA.AperFunction,Conductor*
%ADD25C,0.500000*%
G04 #@! TD*
G04 #@! TA.AperFunction,Conductor*
%ADD26C,0.250000*%
G04 #@! TD*
G04 APERTURE END LIST*
D10*
X98000000Y-95600000D03*
D11*
X98000000Y-94000000D03*
X98000000Y-92400000D03*
D12*
X56500000Y-115000000D03*
D13*
X59000000Y-115000000D03*
X61500000Y-115000000D03*
D14*
X54600000Y-108000000D03*
X63400000Y-108000000D03*
D15*
X208000000Y-92700000D03*
D11*
X208000000Y-94000000D03*
X208000000Y-95300000D03*
D16*
X76500000Y-107500000D03*
D12*
X56500000Y-85000000D03*
D13*
X59000000Y-85000000D03*
X61500000Y-85000000D03*
D14*
X63400000Y-78000000D03*
X54600000Y-77950000D03*
D16*
X76500000Y-78500000D03*
D17*
X211500000Y-87000000D03*
X216500000Y-87000000D03*
D18*
X158690000Y-83000000D03*
D19*
X166310000Y-83000000D03*
D20*
X202000000Y-71420000D03*
X202000000Y-73960000D03*
X202000000Y-76500000D03*
X202000000Y-79040000D03*
X202000000Y-81580000D03*
X202000000Y-84120000D03*
X202000000Y-86660000D03*
X202000000Y-89200000D03*
X202000000Y-91740000D03*
D21*
X186760000Y-91740000D03*
X186760000Y-89200000D03*
X186760000Y-86660000D03*
X186760000Y-84120000D03*
X186760000Y-81580000D03*
X186760000Y-79040000D03*
X186760000Y-76500000D03*
X186760000Y-73960000D03*
X186760000Y-71420000D03*
D17*
X98000000Y-100000000D03*
X93000000Y-100000000D03*
D22*
X221500000Y-90000000D03*
D23*
X221500000Y-92540000D03*
X221500000Y-95080000D03*
X221500000Y-97620000D03*
D18*
X158690000Y-85500000D03*
D19*
X166310000Y-85500000D03*
D22*
X170500000Y-85000000D03*
D23*
X173040000Y-85000000D03*
X175580000Y-85000000D03*
X178120000Y-85000000D03*
D24*
X206000000Y-76500000D03*
X206500000Y-75000000D03*
X206500000Y-74000000D03*
X206500000Y-73000000D03*
D25*
X71000000Y-112500000D02*
X69000000Y-110500000D01*
X69000000Y-110500000D02*
X69000000Y-104000000D01*
X69000000Y-104000000D02*
X75500000Y-97500000D01*
X75500000Y-97500000D02*
X96000000Y-97500000D01*
X96000000Y-97500000D02*
X98000000Y-99500000D01*
D26*
X105200000Y-92700000D02*
X109500000Y-97000000D01*
X109500000Y-97000000D02*
X134000000Y-97000000D01*
X176813604Y-97050000D02*
X182500000Y-91363604D01*
X184000000Y-86500000D02*
X185500000Y-86500000D01*
X134000000Y-97000000D02*
X134050000Y-97050000D01*
X134050000Y-97050000D02*
X176813604Y-97050000D01*
X98000000Y-92700000D02*
X105200000Y-92700000D01*
X182500000Y-91363604D02*
X182500000Y-88000000D01*
X182500000Y-88000000D02*
X184000000Y-86500000D01*
X182880000Y-84120000D02*
X182000000Y-85000000D01*
X63000000Y-95500000D02*
X59000000Y-91500000D01*
X182000000Y-85000000D02*
X182000000Y-91227208D01*
X182000000Y-91227208D02*
X176727208Y-96500000D01*
X59000000Y-91500000D02*
X59000000Y-85000000D01*
X176727208Y-96500000D02*
X110500000Y-96500000D01*
X186760000Y-84120000D02*
X182880000Y-84120000D01*
X110500000Y-96500000D02*
X101500000Y-87500000D01*
X101500000Y-87500000D02*
X82000000Y-87500000D01*
X82000000Y-87500000D02*
X74000000Y-95500000D01*
X74000000Y-95500000D02*
X63000000Y-95500000D01*
X186760000Y-81580000D02*
X186680000Y-81500000D01*
X186680000Y-81500000D02*
X182000000Y-81500000D01*
X182000000Y-81500000D02*
X181000000Y-82500000D01*
X181000000Y-82500000D02*
X181000000Y-91219569D01*
X76500000Y-81500000D02*
X79500000Y-78500000D01*
X181000000Y-91219569D02*
X176219569Y-96000000D01*
X176219569Y-96000000D02*
X111000000Y-96000000D01*
X76500000Y-82000000D02*
X76500000Y-81500000D01*
X111000000Y-96000000D02*
X101500000Y-86500000D01*
X101500000Y-86500000D02*
X81000000Y-86500000D01*
X81000000Y-86500000D02*
X76500000Y-82000000D01*
X166310000Y-83000000D02*
X175000000Y-83000000D01*
X175000000Y-83000000D02*
X175580000Y-82420000D01*
X176500000Y-87000000D02*
X178500000Y-85000000D01*
X176000000Y-87000000D02*
X176500000Y-87000000D01*
X166310000Y-85500000D02*
X167810000Y-87000000D01*
X167810000Y-87000000D02*
X176000000Y-87000000D01*
X59000000Y-99500000D02*
X62000000Y-96500000D01*
X62000000Y-96500000D02*
X96075000Y-96500000D01*
X97075000Y-97500000D02*
X177000000Y-97500000D01*
X59000000Y-115000000D02*
X59000000Y-99500000D01*
X96075000Y-96500000D02*
X97075000Y-97500000D01*
X177000000Y-97500000D02*
X183000000Y-91500000D01*
X183000000Y-91500000D02*
X183000000Y-90443366D01*
X183000000Y-90443366D02*
X184443366Y-89000000D01*
X184443366Y-89000000D02*
X186500000Y-89000000D01*
X207000000Y-94500000D02*
X207000000Y-82500000D01*
X207800000Y-95300000D02*
X207000000Y-94500000D01*
X208000000Y-95300000D02*
X207800000Y-95300000D01*
X206000000Y-81500000D02*
X203500000Y-81500000D01*
X207000000Y-82500000D02*
X206000000Y-81500000D01*
D25*
X220000000Y-78500000D02*
X225000000Y-83500000D01*
X66500000Y-117000000D02*
X58000000Y-117000000D01*
X208000000Y-92700000D02*
X208000000Y-90500000D01*
X157000000Y-110000000D02*
X87000000Y-110000000D01*
X87000000Y-110000000D02*
X82500000Y-114500000D01*
X56500000Y-102075000D02*
X57500000Y-103075000D01*
X215500000Y-76500000D02*
X217500000Y-78500000D01*
X202000000Y-76500000D02*
X206000000Y-76500000D01*
X208000000Y-90500000D02*
X211500000Y-87000000D01*
X56500000Y-85000000D02*
X56500000Y-102075000D01*
X217500000Y-78500000D02*
X220000000Y-78500000D01*
X211500000Y-87000000D02*
X211500000Y-86500000D01*
X225000000Y-90000000D02*
X224000000Y-91000000D01*
X223500000Y-106500000D02*
X160500000Y-106500000D01*
X223040000Y-91000000D02*
X224000000Y-91000000D01*
X57500000Y-114000000D02*
X56500000Y-115000000D01*
X82500000Y-114500000D02*
X73000000Y-114500000D01*
X211500000Y-86500000D02*
X217500000Y-80500000D01*
X57500000Y-103075000D02*
X57500000Y-114000000D01*
X71000000Y-112500000D02*
X66500000Y-117000000D01*
X225000000Y-89500000D02*
X225000000Y-90000000D01*
X159250000Y-107750000D02*
X157000000Y-110000000D01*
X73000000Y-114500000D02*
X71000000Y-112500000D01*
X221500000Y-92540000D02*
X223040000Y-91000000D01*
X225000000Y-83500000D02*
X225000000Y-89500000D01*
X206000000Y-76500000D02*
X215500000Y-76500000D01*
X225000000Y-89500000D02*
X225000000Y-105000000D01*
X217500000Y-80500000D02*
X217500000Y-78500000D01*
X160500000Y-106500000D02*
X159250000Y-107750000D01*
X225000000Y-105000000D02*
X223500000Y-106500000D01*
X58000000Y-117000000D02*
X56500000Y-115500000D01*
X202000000Y-73960000D02*
X205540000Y-73960000D01*
X205580000Y-74000000D02*
X205540000Y-73960000D01*
X206500000Y-75000000D02*
X206500000Y-74920000D01*
X206500000Y-75000000D02*
X206500000Y-73000000D01*
X206500000Y-74000000D02*
X205580000Y-74000000D01*
X205540000Y-73960000D02*
X206500000Y-73000000D01*
X206500000Y-74920000D02*
X205540000Y-73960000D01*
D26*
X128000000Y-107500000D02*
X137000000Y-98500000D01*
X177500000Y-98500000D02*
X184000000Y-92000000D01*
X137000000Y-98500000D02*
X177500000Y-98500000D01*
X79500000Y-107500000D02*
X128000000Y-107500000D01*
X184000000Y-92000000D02*
X186500000Y-92000000D01*
X184500000Y-86500000D02*
X186000000Y-86500000D01*
X175580000Y-85000000D02*
X175580000Y-82420000D01*
X186760000Y-71420000D02*
X194000000Y-78660000D01*
X195500000Y-98000000D02*
X217500000Y-98000000D01*
X175580000Y-82420000D02*
X182500000Y-75500000D01*
X182500000Y-72000000D02*
X183000000Y-71500000D01*
X182500000Y-73000000D02*
X182500000Y-72000000D01*
X183000000Y-71500000D02*
X185500000Y-71500000D01*
X194000000Y-79000000D02*
X194000000Y-96500000D01*
X219000000Y-96500000D02*
X220500000Y-95000000D01*
X182500000Y-75500000D02*
X182500000Y-73000000D01*
X194000000Y-96500000D02*
X195500000Y-98000000D01*
X220500000Y-95000000D02*
X221500000Y-95000000D01*
X217500000Y-98000000D02*
X219000000Y-96500000D01*
X194000000Y-78660000D02*
X194000000Y-79000000D01*
X220500000Y-98500000D02*
X221500000Y-97500000D01*
X179573366Y-79573366D02*
X179500000Y-79646732D01*
X193500000Y-79000000D02*
X193500000Y-96636396D01*
X193500000Y-96636396D02*
X195363604Y-98500000D01*
X179573366Y-79573366D02*
X178000000Y-81146732D01*
X178000000Y-85460000D02*
X178000000Y-84960000D01*
X178000000Y-81500000D02*
X178000000Y-85000000D01*
X178000000Y-81146732D02*
X178000000Y-81500000D01*
X186760000Y-73960000D02*
X185186732Y-73960000D01*
X185186732Y-73960000D02*
X179573366Y-79573366D01*
X188460000Y-73960000D02*
X193500000Y-79000000D01*
X195363604Y-98500000D02*
X220500000Y-98500000D01*
X186760000Y-73960000D02*
X188460000Y-73960000D01*
X184500000Y-84000000D02*
X185500000Y-84000000D01*
X184000000Y-81500000D02*
X184500000Y-81500000D01*
M02*
