G04 #@! TF.GenerationSoftware,KiCad,Pcbnew,7.0.5-0*
G04 #@! TF.CreationDate,2024-12-30T17:13:37-05:00*
G04 #@! TF.ProjectId,ESP32_MIDI_v3a,45535033-325f-44d4-9944-495f7633612e,rev?*
G04 #@! TF.SameCoordinates,Original*
G04 #@! TF.FileFunction,Soldermask,Bot*
G04 #@! TF.FilePolarity,Negative*
%FSLAX46Y46*%
G04 Gerber Fmt 4.6, Leading zero omitted, Abs format (unit mm)*
G04 Created by KiCad (PCBNEW 7.0.5-0) date 2024-12-30 17:13:37*
%MOMM*%
%LPD*%
G01*
G04 APERTURE LIST*
G04 Aperture macros list*
%AMFreePoly0*
4,1,25,0.515063,3.095106,0.530902,3.095106,0.543715,3.085796,0.558779,3.080902,0.568088,3.068088,0.580902,3.058779,0.585796,3.043715,0.595106,3.030902,0.595106,3.015062,0.600000,3.000000,0.600000,-1.000000,-0.600000,-1.000000,-0.600000,3.000000,-0.595106,3.015062,-0.595106,3.030902,-0.585796,3.043715,-0.580902,3.058779,-0.568088,3.068088,-0.558779,3.080902,-0.543715,3.085796,
-0.530902,3.095106,-0.515063,3.095106,-0.500000,3.100000,0.500000,3.100000,0.515063,3.095106,0.515063,3.095106,$1*%
G04 Aperture macros list end*
%ADD10C,1.800000*%
%ADD11R,2.600000X5.000000*%
%ADD12C,3.200000*%
%ADD13R,1.800000X1.800000*%
%ADD14FreePoly0,180.000000*%
%ADD15FreePoly0,0.000000*%
G04 APERTURE END LIST*
D10*
X152400000Y-101000000D03*
X152400000Y-99000000D03*
X152400000Y-97000000D03*
X152400000Y-95000000D03*
X152400000Y-93000000D03*
D11*
X142400000Y-104350000D03*
X142400000Y-89650000D03*
X80932000Y-90758000D03*
X80932000Y-105458000D03*
D10*
X90932000Y-94108000D03*
X90932000Y-96108000D03*
X90932000Y-98108000D03*
X90932000Y-100108000D03*
X90932000Y-102108000D03*
D12*
X172000000Y-92000000D03*
X46000000Y-107188000D03*
X172212000Y-107000000D03*
D13*
X39000000Y-95000000D03*
D10*
X39000000Y-92841000D03*
X39000000Y-90682000D03*
X39000000Y-88523000D03*
D13*
X39000000Y-104240000D03*
D10*
X39000000Y-102081000D03*
X39000000Y-99922000D03*
X39000000Y-97763000D03*
D12*
X46000000Y-87376000D03*
D14*
X205740000Y-105000000D03*
X203200000Y-105000000D03*
X200660000Y-105000000D03*
X198120000Y-105000000D03*
X195580000Y-105000000D03*
X193040000Y-105000000D03*
X190500000Y-105000000D03*
X187960000Y-105000000D03*
X185420000Y-105000000D03*
D15*
X185420000Y-89760000D03*
X187960000Y-89760000D03*
X190500000Y-89760000D03*
X193040000Y-89760000D03*
X195580000Y-89760000D03*
X198120000Y-89760000D03*
X200660000Y-89760000D03*
X203200000Y-89760000D03*
X205740000Y-89760000D03*
M02*
