M48
; DRILL file {KiCad 7.0.5-0} date 2024 December 30, Monday 17:13:40
; FORMAT={-:-/ absolute / metric / decimal}
; #@! TF.CreationDate,2024-12-30T17:13:40-05:00
; #@! TF.GenerationSoftware,Kicad,Pcbnew,7.0.5-0
; #@! TF.FileFunction,Plated,1,2,PTH
FMAT,2
METRIC
; #@! TA.AperFunction,Plated,PTH,ViaDrill
T1C0.400
; #@! TA.AperFunction,Plated,PTH,ComponentDrill
T2C0.900
; #@! TA.AperFunction,Plated,PTH,ComponentDrill
T3C1.000
%
G90
G05
T1
X51.0Y-105.0
X52.0Y-90.0
X62.0Y-105.0
X85.0Y-101.0
X89.0Y-110.157
X101.0Y-108.0
X107.0Y-94.0
X125.0Y-103.0
X146.0Y-100.0
X154.0Y-108.0
X156.0Y-110.157
X167.0Y-99.0
X183.0Y-87.0
X185.0Y-99.0
X197.0Y-95.0
X203.0Y-109.0
X204.0Y-85.0
X204.0Y-109.0
T2
X39.0Y-88.523
X39.0Y-90.682
X39.0Y-92.841
X39.0Y-95.0
X39.0Y-97.763
X39.0Y-99.922
X39.0Y-102.081
X39.0Y-104.24
T3
X90.932Y-94.108
X90.932Y-96.108
X90.932Y-98.108
X90.932Y-100.108
X90.932Y-102.108
X152.4Y-93.0
X152.4Y-95.0
X152.4Y-97.0
X152.4Y-99.0
X152.4Y-101.0
T0
M30
