G04 #@! TF.GenerationSoftware,KiCad,Pcbnew,7.0.5-0*
G04 #@! TF.CreationDate,2024-12-30T17:13:37-05:00*
G04 #@! TF.ProjectId,ESP32_MIDI_v3a,45535033-325f-44d4-9944-495f7633612e,rev?*
G04 #@! TF.SameCoordinates,Original*
G04 #@! TF.FileFunction,Copper,L2,Bot*
G04 #@! TF.FilePolarity,Positive*
%FSLAX46Y46*%
G04 Gerber Fmt 4.6, Leading zero omitted, Abs format (unit mm)*
G04 Created by KiCad (PCBNEW 7.0.5-0) date 2024-12-30 17:13:37*
%MOMM*%
%LPD*%
G01*
G04 APERTURE LIST*
G04 Aperture macros list*
%AMRoundRect*
0 Rectangle with rounded corners*
0 $1 Rounding radius*
0 $2 $3 $4 $5 $6 $7 $8 $9 X,Y pos of 4 corners*
0 Add a 4 corners polygon primitive as box body*
4,1,4,$2,$3,$4,$5,$6,$7,$8,$9,$2,$3,0*
0 Add four circle primitives for the rounded corners*
1,1,$1+$1,$2,$3*
1,1,$1+$1,$4,$5*
1,1,$1+$1,$6,$7*
1,1,$1+$1,$8,$9*
0 Add four rect primitives between the rounded corners*
20,1,$1+$1,$2,$3,$4,$5,0*
20,1,$1+$1,$4,$5,$6,$7,0*
20,1,$1+$1,$6,$7,$8,$9,0*
20,1,$1+$1,$8,$9,$2,$3,0*%
%AMFreePoly0*
4,1,25,0.515063,3.095106,0.530902,3.095106,0.543715,3.085796,0.558779,3.080902,0.568088,3.068088,0.580902,3.058779,0.585796,3.043715,0.595106,3.030902,0.595106,3.015062,0.600000,3.000000,0.600000,-1.000000,-0.600000,-1.000000,-0.600000,3.000000,-0.595106,3.015062,-0.595106,3.030902,-0.585796,3.043715,-0.580902,3.058779,-0.568088,3.068088,-0.558779,3.080902,-0.543715,3.085796,
-0.530902,3.095106,-0.515063,3.095106,-0.500000,3.100000,0.500000,3.100000,0.515063,3.095106,0.515063,3.095106,$1*%
G04 Aperture macros list end*
G04 #@! TA.AperFunction,ComponentPad*
%ADD10C,1.800000*%
G04 #@! TD*
G04 #@! TA.AperFunction,SMDPad,CuDef*
%ADD11R,2.600000X5.000000*%
G04 #@! TD*
G04 #@! TA.AperFunction,ComponentPad*
%ADD12R,1.800000X1.800000*%
G04 #@! TD*
G04 #@! TA.AperFunction,SMDPad,CuDef*
%ADD13FreePoly0,180.000000*%
G04 #@! TD*
G04 #@! TA.AperFunction,SMDPad,CuDef*
%ADD14FreePoly0,0.000000*%
G04 #@! TD*
G04 #@! TA.AperFunction,SMDPad,CuDef*
%ADD15RoundRect,2.500000X-2.500000X5.000000X-2.500000X-5.000000X2.500000X-5.000000X2.500000X5.000000X0*%
G04 #@! TD*
G04 #@! TA.AperFunction,ViaPad*
%ADD16C,0.800000*%
G04 #@! TD*
G04 #@! TA.AperFunction,Conductor*
%ADD17C,0.250000*%
G04 #@! TD*
G04 #@! TA.AperFunction,Conductor*
%ADD18C,0.500000*%
G04 #@! TD*
G04 APERTURE END LIST*
D10*
X152400000Y-101000000D03*
X152400000Y-99000000D03*
X152400000Y-97000000D03*
X152400000Y-95000000D03*
X152400000Y-93000000D03*
D11*
X142400000Y-104350000D03*
X142400000Y-89650000D03*
X80932000Y-90758000D03*
X80932000Y-105458000D03*
D10*
X90932000Y-94108000D03*
X90932000Y-96108000D03*
X90932000Y-98108000D03*
X90932000Y-100108000D03*
X90932000Y-102108000D03*
D12*
X39000000Y-95000000D03*
D10*
X39000000Y-92841000D03*
X39000000Y-90682000D03*
X39000000Y-88523000D03*
D12*
X39000000Y-104240000D03*
D10*
X39000000Y-102081000D03*
X39000000Y-99922000D03*
X39000000Y-97763000D03*
D13*
X205740000Y-105000000D03*
X203200000Y-105000000D03*
X200660000Y-105000000D03*
X198120000Y-105000000D03*
X195580000Y-105000000D03*
X193040000Y-105000000D03*
X190500000Y-105000000D03*
X187960000Y-105000000D03*
X185420000Y-105000000D03*
D14*
X185420000Y-89760000D03*
X187960000Y-89760000D03*
X190500000Y-89760000D03*
X193040000Y-89760000D03*
X195580000Y-89760000D03*
X198120000Y-89760000D03*
X200660000Y-89760000D03*
X203200000Y-89760000D03*
X205740000Y-89760000D03*
D15*
X67564000Y-98044000D03*
D16*
X185000000Y-99000000D03*
X101000000Y-108000000D03*
X154000000Y-108000000D03*
X204000000Y-109000000D03*
X156000000Y-110157500D03*
X203000000Y-109000000D03*
X89000000Y-110157500D03*
X167000000Y-99000000D03*
X146000000Y-100000000D03*
X125000000Y-103000000D03*
X51000000Y-105000000D03*
X183000000Y-87000000D03*
X197000000Y-95000000D03*
X52000000Y-90000000D03*
X85000000Y-101000000D03*
X204000000Y-85000000D03*
X62000000Y-105000000D03*
X107000000Y-94000000D03*
D17*
X196000000Y-104000000D02*
X195000000Y-103000000D01*
X191000000Y-101000000D02*
X190000000Y-100000000D01*
X195580000Y-105000000D02*
X196000000Y-104580000D01*
X194000000Y-103000000D02*
X193000000Y-103000000D01*
X193000000Y-103000000D02*
X191000000Y-101000000D01*
X186000000Y-100000000D02*
X185000000Y-99000000D01*
X196000000Y-104580000D02*
X196000000Y-104000000D01*
X195000000Y-103000000D02*
X194000000Y-103000000D01*
X190000000Y-100000000D02*
X186000000Y-100000000D01*
D18*
X154000000Y-108000000D02*
X154000000Y-109308000D01*
X102000000Y-109308000D02*
X154000000Y-109308000D01*
X154000000Y-109308000D02*
X198692000Y-109308000D01*
X44000000Y-100000000D02*
X53308000Y-109308000D01*
X39000000Y-99922000D02*
X40922000Y-99922000D01*
X198692000Y-109308000D02*
X200660000Y-107340000D01*
X39000000Y-90682000D02*
X40682000Y-90682000D01*
X41000000Y-100000000D02*
X44000000Y-100000000D01*
X101000000Y-108000000D02*
X102000000Y-109000000D01*
X40682000Y-90682000D02*
X41000000Y-91000000D01*
X40922000Y-99922000D02*
X41000000Y-100000000D01*
X200660000Y-107340000D02*
X200660000Y-105000000D01*
X53308000Y-109308000D02*
X102000000Y-109308000D01*
X41000000Y-91000000D02*
X41000000Y-100000000D01*
X102000000Y-109000000D02*
X102000000Y-109308000D01*
X39575000Y-83425000D02*
X201425000Y-83425000D01*
X37000000Y-102162000D02*
X37162000Y-102000000D01*
X37000000Y-107000000D02*
X37000000Y-102162000D01*
X203200000Y-108800000D02*
X203000000Y-109000000D01*
X202000000Y-110000000D02*
X202000000Y-109000000D01*
X40008000Y-110008000D02*
X37000000Y-107000000D01*
X202000000Y-105000000D02*
X203000000Y-106000000D01*
X37000000Y-92841000D02*
X37000000Y-86000000D01*
X37000000Y-86000000D02*
X39575000Y-83425000D01*
X201992000Y-110008000D02*
X40008000Y-110008000D01*
X202000000Y-84000000D02*
X202000000Y-105000000D01*
X37162000Y-102000000D02*
X39000000Y-102000000D01*
X202000000Y-109000000D02*
X203000000Y-109000000D01*
X204000000Y-109000000D02*
X203000000Y-109000000D01*
X39000000Y-92841000D02*
X37000000Y-92841000D01*
X201992000Y-110008000D02*
X202000000Y-110000000D01*
X37000000Y-100000000D02*
X37000000Y-92841000D01*
X203200000Y-105000000D02*
X203200000Y-108800000D01*
X201425000Y-83425000D02*
X202000000Y-84000000D01*
X39000000Y-102000000D02*
X37000000Y-100000000D01*
D17*
X169450000Y-100450000D02*
X189450000Y-100450000D01*
X168000000Y-99000000D02*
X169450000Y-100450000D01*
X167000000Y-99000000D02*
X168000000Y-99000000D01*
X189450000Y-100450000D02*
X193040000Y-104040000D01*
X193040000Y-104040000D02*
X193040000Y-105000000D01*
X156000000Y-104000000D02*
X150000000Y-104000000D01*
X150000000Y-104000000D02*
X146000000Y-100000000D01*
X190500000Y-105000000D02*
X190500000Y-102500000D01*
X159000000Y-101000000D02*
X156000000Y-104000000D01*
X189000000Y-101000000D02*
X159000000Y-101000000D01*
X190500000Y-102500000D02*
X189000000Y-101000000D01*
X187960000Y-101960000D02*
X187960000Y-105000000D01*
X156186396Y-104450000D02*
X159186396Y-101450000D01*
X187450000Y-101450000D02*
X187960000Y-101960000D01*
X136000000Y-102000000D02*
X137000000Y-101000000D01*
X149450000Y-104450000D02*
X156186396Y-104450000D01*
X125000000Y-103000000D02*
X126000000Y-102000000D01*
X126000000Y-102000000D02*
X136000000Y-102000000D01*
X137000000Y-101000000D02*
X146000000Y-101000000D01*
X159186396Y-101450000D02*
X187450000Y-101450000D01*
X146000000Y-101000000D02*
X149450000Y-104450000D01*
X92539792Y-108733000D02*
X54733000Y-108733000D01*
X185420000Y-102420000D02*
X184900000Y-101900000D01*
X108210396Y-105426000D02*
X95846792Y-105426000D01*
X184900000Y-101900000D02*
X159550000Y-101900000D01*
X108636396Y-105000000D02*
X108210396Y-105426000D01*
X185420000Y-105000000D02*
X185420000Y-102420000D01*
X54733000Y-108733000D02*
X51000000Y-105000000D01*
X95846792Y-105426000D02*
X92539792Y-108733000D01*
X156450000Y-105000000D02*
X108636396Y-105000000D01*
X159550000Y-101900000D02*
X156450000Y-105000000D01*
X185420000Y-89760000D02*
X185420000Y-89420000D01*
X185420000Y-89420000D02*
X183000000Y-87000000D01*
X198120000Y-96120000D02*
X198120000Y-105000000D01*
X197000000Y-95000000D02*
X198120000Y-96120000D01*
X118727208Y-91000000D02*
X81174000Y-91000000D01*
X77174000Y-87000000D02*
X55000000Y-87000000D01*
X81174000Y-91000000D02*
X80932000Y-90758000D01*
X200000000Y-84000000D02*
X125727208Y-84000000D01*
X200660000Y-89760000D02*
X200660000Y-84660000D01*
X80932000Y-90758000D02*
X77174000Y-87000000D01*
X200660000Y-84660000D02*
X200000000Y-84000000D01*
X125727208Y-84000000D02*
X118727208Y-91000000D01*
X55000000Y-87000000D02*
X52000000Y-90000000D01*
X152400000Y-95000000D02*
X154000000Y-95000000D01*
X155000000Y-87000000D02*
X155650000Y-86350000D01*
X154000000Y-95000000D02*
X155000000Y-94000000D01*
X197000000Y-92000000D02*
X198120000Y-90880000D01*
X198120000Y-90880000D02*
X198120000Y-89760000D01*
X185000000Y-92000000D02*
X197000000Y-92000000D01*
X155000000Y-94000000D02*
X155000000Y-87000000D01*
X179350000Y-86350000D02*
X185000000Y-92000000D01*
X155650000Y-86350000D02*
X179350000Y-86350000D01*
X190500000Y-86500000D02*
X189450000Y-85450000D01*
X107474000Y-104526000D02*
X96526000Y-104526000D01*
X96000000Y-104000000D02*
X88000000Y-104000000D01*
X190500000Y-89760000D02*
X190500000Y-86500000D01*
X126550000Y-85450000D02*
X107474000Y-104526000D01*
X96526000Y-104526000D02*
X96000000Y-104000000D01*
X189450000Y-85450000D02*
X126550000Y-85450000D01*
X88000000Y-104000000D02*
X85000000Y-101000000D01*
X205740000Y-86740000D02*
X205740000Y-89760000D01*
X204000000Y-85000000D02*
X205740000Y-86740000D01*
X95660396Y-104976000D02*
X108024000Y-104976000D01*
X68000000Y-98480000D02*
X67564000Y-98044000D01*
X75000000Y-108000000D02*
X75283000Y-108283000D01*
X108024000Y-104976000D02*
X127100000Y-85900000D01*
X75283000Y-108283000D02*
X92353396Y-108283000D01*
X68000000Y-105000000D02*
X68000000Y-107000000D01*
X68000000Y-107000000D02*
X68000000Y-98480000D01*
X92353396Y-108283000D02*
X95660396Y-104976000D01*
X187960000Y-86960000D02*
X187960000Y-89760000D01*
X127100000Y-85900000D02*
X186900000Y-85900000D01*
X62000000Y-105000000D02*
X68000000Y-105000000D01*
X69000000Y-108000000D02*
X75000000Y-108000000D01*
X186900000Y-85900000D02*
X187960000Y-86960000D01*
X68000000Y-107000000D02*
X69000000Y-108000000D01*
X134900000Y-84900000D02*
X135000000Y-85000000D01*
X193040000Y-86040000D02*
X193040000Y-89760000D01*
X134800000Y-85000000D02*
X134900000Y-84900000D01*
X107000000Y-94000000D02*
X117000000Y-94000000D01*
X135000000Y-85000000D02*
X192000000Y-85000000D01*
X126000000Y-85000000D02*
X134800000Y-85000000D01*
X192000000Y-85000000D02*
X193040000Y-86040000D01*
X117000000Y-94000000D02*
X126000000Y-85000000D01*
X125913604Y-84450000D02*
X117363604Y-93000000D01*
X195580000Y-84968959D02*
X195061041Y-84450000D01*
X117363604Y-93000000D02*
X96040000Y-93000000D01*
X92932000Y-96108000D02*
X96040000Y-93000000D01*
X195061041Y-84450000D02*
X125913604Y-84450000D01*
X195580000Y-89760000D02*
X195580000Y-84968959D01*
X90932000Y-96108000D02*
X92932000Y-96108000D01*
M02*
